<svg viewBox="0 0 64 64" xmlns="http://www.w3.org/2000/svg" fill-rule="evenodd" clip-rule="evenodd" stroke-linejoin="round" stroke-miterlimit="1.414"><path d="M43.444 56.152c-.788-.124-1.484-.16-1.484-.584 0-.16.092-.336.248-.448.132-.108.488-.144.728-.144.248 0 .496.124.648.288.096.112.212.296.232.488h1.272c-.028-.472-.228-.932-.592-1.188-.356-.26-.816-.576-1.448-.576-.6 0-1.196.02-1.608.328-.412.296-.708.792-.708 1.224 0 .248-.02.544.076.728.108.18.412.556.652.7.336.192 1.12.268 1.552.384.352.084.784.104.88.456.056.212-.008.404-.2.528-.184.124-.46.212-.768.212-.316 0-.62-.096-.776-.288-.132-.184-.208-.356-.316-.632H40.56c.028.584.356 1.16.756 1.484.392.316.92.468 1.588.468.672 0 1.256-.112 1.688-.42.42-.308.652-.88.652-1.352 0-.4-.116-.716-.3-.964-.372-.488-1.04-.624-1.5-.692zm-18.492-1.376c-.48-.376-1.092-.632-1.76-.652h-.068c-1.484 0-2.692 1.204-2.692 2.68 0 1.484 1.208 2.7 2.692 2.7h.068c.668-.008 1.28-.276 1.752-.736l.008.66h1.228v-7.02h-1.228v2.368zm8.024-.02c-.48-.376-1.092-.632-1.76-.652h-.068c-1.484 0-2.7 1.216-2.7 2.692 0 1.484 1.216 2.7 2.7 2.7h.068c.668-.02 1.272-.288 1.752-.748v.66h1.224V52.4h-1.224l.008 2.356zm-6.136 4.672h1.292v-5.364H26.84v5.364zm-3.64-1.024h-.008c-.88 0-1.6-.72-1.6-1.6 0-.872.72-1.6 1.6-1.6h.008c.872 0 1.6.72 1.6 1.6 0 .88-.728 1.6-1.6 1.6zm8.016-.012c-.884 0-1.608-.724-1.608-1.608 0-.872.724-1.588 1.608-1.588.88 0 1.608.716 1.608 1.588 0 .884-.728 1.608-1.608 1.608zm-14.104-.076H17.1c-.88 0-1.588-.708-1.588-1.588 0-.872.708-1.588 1.588-1.588h.012c.872 0 1.588.716 1.588 1.588 0 .88-.716 1.588-1.588 1.588zm20.308-.008c-.88-.012-1.6-.72-1.6-1.6 0-.872.72-1.58 1.6-1.588.88 0 1.6.716 1.6 1.588 0 .88-.72 1.6-1.6 1.6zm-18.712-4.244v.508c-.248-.268-.36-.352-.648-.46-.26-.092-.612-.18-.96-.188h-.056c-.412 0-.776.064-1.1.2-.316.132-.616.344-.884.632-.236.248-.428.556-.572.888-.124.336-.192.68-.192 1.056 0 .812.268 1.492.804 2.02.528.536 1.196.812 2 .812h.012c.324 0 .68-.096.964-.2.288-.104.5-.192.632-.384v.488l1.248-.008-.012-5.372-1.236.008zm20.312-.016l.008.508c-.248-.26-.372-.348-.652-.46-.268-.096-.612-.172-.956-.184h-.056c-.412 0-.776.068-1.104.192-.324.136-.62.356-.88.632-.248.248-.44.556-.576.9-.124.324-.2.68-.2 1.052 0 .804.28 1.484.816 2.02.516.528 1.196.808 2 .808.336 0 .688-.088.968-.204.284-.104.508-.192.64-.384v.492l1.244-.012-.02-5.36H39.02zm7.304-2.836c-.008 0-.02-.008-.02-.008-.832 0-1.512.68-1.512 1.512s.68 1.504 1.512 1.504h.02c.824-.012 1.492-.68 1.492-1.504s-.668-1.496-1.492-1.504zm0 2.768c-.7 0-1.264-.564-1.264-1.264 0-.68.564-1.256 1.264-1.244.7 0 1.264.564 1.264 1.252 0 .692-.564 1.256-1.264 1.256zM26.84 53.7h1.3v-1.292h-1.3V53.7zm18.832-.152v-1.636h.7c.184 0 .308.008.384.036.068.032.144.088.192.156.036.076.076.172.076.268 0 .112-.048.22-.116.288-.068.084-.18.14-.324.16.076.048.132.096.18.144.04.04.108.144.184.268l.2.316h-.392l-.24-.364c-.088-.124-.144-.208-.184-.228v-.008l-.004-.004s-.004-.004-.004-.008c-.028-.028-.048-.048-.084-.056-.04-.012-.096-.02-.176-.02h-.056v.688h-.336zm.932-1.004c.012-.012.024-.02.036-.028.028-.032.04-.088.04-.136 0-.048-.012-.096-.048-.124-.028-.028-.076-.056-.124-.056-.02-.012-.088-.012-.184-.012h-.316v.412h.316c.116-.008.192-.008.232-.02.012-.008.024-.016.036-.028l.012-.008zm-12.812-8.588l-6.004.008c.84 1.752 1.916 3.228 3.14 4.636 1.208-1.44 2.012-2.92 2.864-4.644zm-7.076.008H15.788c3.268 2.02 7.088 3.36 11.436 4.26l-.508-4.26zm8.328.008l-.652 4.004c4.368-.804 8.216-2.068 11.56-4.004H35.044zm14.9-2.68l-38.216-.02c-1.272-1.012-2.132-1.54-3.16-2.892h44.584c-.996 1.092-2.136 2.08-3.208 2.912zm5.696-6.224l-49.388.02c-.66-.92-1.416-2.212-1.884-3.236h53.16c-.5 1.148-1.168 2.212-1.888 3.216zm-17.676-6.692h-14.18c-.316-9.124 2.212-18.384 7.096-23.956 4.96 5.428 7.524 14.648 7.084 23.956zm21.02-.02l-17.58.012c4.852-6.828 11.824-10.688 20.852-12.056-.564 4.568-1.616 8.444-3.272 12.044zM20.3 28.348l-17.244.008C1.476 24.708.48 20.944 0 16.272c8.884 1.58 15.74 5.228 20.3 12.076zM60.64 8.344c-.02-.008-.04-.008-.06-.008-1.856 0-3.388 1.52-3.388 3.38 0 1.856 1.532 3.38 3.388 3.38h.06c1.856-.028 3.36-1.544 3.36-3.38 0-1.84-1.504-3.344-3.36-3.372zm0 6.224c-1.552 0-2.824-1.284-2.824-2.832 0-1.532 1.272-2.828 2.824-2.808 1.568 0 2.832 1.276 2.832 2.816 0 1.56-1.264 2.824-2.832 2.824zm.984-2.288c-.104-.104-.236-.22-.392-.316.316-.048.564-.152.74-.356.152-.16.236-.392.236-.66 0-.22-.076-.42-.172-.592-.104-.152-.268-.288-.44-.336-.172-.076-.46-.116-.86-.116h-1.532v3.688h.716v-1.54h.156c.172 0 .296.008.38.036.06.028.124.068.184.124.008.012.028.02.036.028.06.088.192.26.396.548l.524.804h.892l-.44-.708c-.172-.288-.328-.508-.424-.604zm-1.704-.824h.72c.268-.008.42-.02.496-.036.096-.032.164-.088.22-.144.048-.076.068-.192.068-.288 0-.116-.02-.232-.096-.288-.056-.068-.152-.132-.288-.144-.048-.008-.192-.008-.4-.008h-.72v.908z" fill="#fff"/></svg>