<svg viewBox="0 0 64 64" xmlns="http://www.w3.org/2000/svg" fill-rule="evenodd" clip-rule="evenodd" stroke-linejoin="round" stroke-miterlimit="1.414"><path d="M23.463 63.214c-.533.428-1.144.795-1.903.786-2.235-.01-3.413-3.282-3.352-5.5.06-2.19.995-5.612 3.483-5.568.51.01 1 .166 1.47.4v-4.73h2.73v15.232h-2.42v-.62zm7.856-10.457c2.55 0 3.86 2.523 3.86 5.622 0 3.09-1.31 5.62-3.87 5.62s-3.86-2.53-3.86-5.62c0-3.1 1.3-5.63 3.86-5.63zm-16.94 7.21h-2.51l-.737 3.867H8.5l3.31-14.76h2.802l3.098 14.76h-2.627l-.698-3.867zm24.76-3.884c.26-.56.63-.995 1.126-.943.91.105 1.22 2.19 1.213 3.396 0 1.178-.48 3.282-1.25 3.29-.505.018-.837-.488-1.09-1.16v-4.583zm-15.99 0c-.264-.56-.63-.995-1.128-.943-.908.105-1.22 2.19-1.213 3.396 0 1.178.48 3.282 1.25 3.29.5.018.83-.488 1.09-1.16v-4.583zm8.16-1.126c.69 0 1.26 1.536 1.26 3.422 0 1.88-.57 3.42-1.26 3.42-.69 0-1.257-1.54-1.257-3.42 0-1.89.566-3.43 1.256-3.43zm16.576 4.05h4.862c.007-.21.016-.42.016-.628 0-3.1-.74-5.65-3.526-5.63-2.435-.028-3.866 2.52-3.866 5.62 0 3.097 1.36 5.576 4.504 5.5 1.633-.036 2.096-.35 2.55-.656l-.56-2.2c-.444.43-1.116.62-1.79.603-1.43-.036-2.076-1.03-2.19-2.62zm-35.6-1.257h1.692l-.83-4.574-.864 4.574zm38-.75H48.05c.193-1.196.68-2.043 1.197-2.043.515 0 .89.82 1.038 2.043zM38.84 63.214c.532.428 1.143.795 1.903.786 2.235-.01 3.413-3.282 3.352-5.5-.062-2.19-.995-5.612-3.483-5.568-.506.01-.995.166-1.467.4v-4.73h-2.723v15.232h2.418v-.62zm1.894-22.398L30.01 15.878 22.852 32.68h7.707l3.61 8.136h6.56zm11.88-.192L35.37 0h17.247v40.624zM24.693 0L7.56 40.354V0h17.133zm29.583.288h.47v-.28h-1.274v.28h.472V1.57h.332V.29zm2.165-.28h-.47l-.28 1.232h-.01L55.4.008h-.48V1.57h.307V.27h.01l.278 1.3h.323l.288-1.3h.01v1.3h.305V.01z" fill="#fff"/></svg>