<svg viewBox="0 0 64 64" xmlns="http://www.w3.org/2000/svg" fill-rule="evenodd" clip-rule="evenodd" stroke-linejoin="round" stroke-miterlimit="1.414"><path d="M24.974 35.42c-2.34 1.726-5.73 2.646-8.65 2.646-4.093 0-7.778-1.514-10.566-4.032-.22-.198-.023-.468.24-.314 3.01 1.75 6.73 2.804 10.572 2.804 2.592 0 5.443-.537 8.064-1.65.396-.168.727.26.34.547zm.973-1.11c-.298-.383-1.977-.182-2.73-.092-.23.028-.265-.172-.058-.316 1.33-.94 3.53-.67 3.78-.354.25.317-.07 2.516-1.33 3.566-.19.16-.38.075-.29-.138.28-.705.91-2.284.61-2.667zm24.536-1.21c-1.768 0-2.56-1.802-2.56-3.605 0-1.896.93-3.538 2.71-3.538h.095c1.73 0 2.593 1.75 2.593 3.552 0 1.91-.95 3.59-2.74 3.59h-.09zm-19.125-7.104c1.848 0 2.85 1.587 2.85 3.606 0 1.95-1.107 3.498-2.85 3.498-1.816 0-2.804-1.588-2.804-3.566 0-1.99 1-3.538 2.804-3.538zm9.678 6.462c0-.322.275-.582.613-.582.33 0 .61.26.61.582 0 .32-.28.584-.62.584-.34 0-.62-.263-.62-.584zm-32.705.508H7.09c-.12-.008-.214-.098-.223-.212V26.36c0-.128.107-.23.24-.23H8.27c.12.006.216.1.225.214v.836h.024c.3-.808.87-1.184 1.64-1.184.78 0 1.26.376 1.61 1.184.3-.808.99-1.184 1.72-1.184.52 0 1.09.215 1.44.7.39.537.31 1.318.31 2.003v4.03c0 .13-.11.23-.24.23h-1.25c-.13-.01-.23-.11-.23-.23v-3.39c0-.27.02-.94-.04-1.2-.094-.43-.373-.55-.734-.55-.304 0-.62.2-.748.52s-.12.86-.12 1.22v3.39c0 .12-.11.23-.24.23H10.4c-.13-.01-.226-.11-.226-.23v-3.39c0-.72.117-1.77-.77-1.77-.893 0-.86 1.02-.86 1.76v3.39c0 .12-.105.23-.24.23zm27.04 0c-.12-.008-.22-.108-.22-.23V26.34c.01-.12.11-.21.24-.21h1.16c.11.004.2.08.23.18v.975h.027c.348-.874.837-1.29 1.698-1.29.56 0 1.107.2 1.457.752.327.51.327 1.37.327 1.99v4.025c-.016.112-.12.2-.24.2H38.8c-.115-.007-.21-.09-.22-.2V29.29c0-.7.08-1.723-.78-1.723-.305 0-.58.203-.72.51-.177.392-.2.78-.2 1.212v3.44c0 .13-.11.23-.245.23h-1.24zm15.25-.74c.58-.018 1.04-.38 1.32-.98.25-.54.29-1.16.29-1.75 0-.646-.07-1.32-.37-1.87-.27-.483-.73-.79-1.23-.807-.55.01-1.04.39-1.29.96-.22.5-.29 1.16-.29 1.71 0 .62.08 1.33.34 1.87.25.51.73.84 1.25.86zm-5.68.875c-1.75 0-2.51-1.76-2.51-3.55 0-1.77.77-3.59 2.53-3.59h.1c1.22 0 2.09.94 2.28 2.35 0 .11-.09.2-.21.21l-.55-.01c-.11-.01-.19-.11-.21-.22-.13-.78-.58-1.4-1.33-1.43-1.19.04-1.53 1.51-1.53 2.64 0 1.09.287 2.68 1.48 2.72.79-.02 1.21-.66 1.38-1.48.038-.1.117-.18.23-.18h.527c.124.008.238.1.227.218-.24 1.404-1.084 2.355-2.29 2.355h-.094zm-24.93-3.18c0 .49.02.89-.23 1.32-.19.36-.51.57-.86.57-.48 0-.76-.36-.76-.9 0-1.06.95-1.25 1.86-1.25v.27zm-16.33 0c0 .49.02.89-.23 1.32-.19.36-.51.57-.86.57-.48 0-.76-.36-.76-.9 0-1.06.95-1.25 1.85-1.25v.27zm27.7-2.61c-.91 0-.97 1.25-.97 2.03 0 .79-.01 2.45.97 2.45.97 0 1.01-1.34 1.01-2.16 0-.54-.02-1.18-.18-1.69-.14-.44-.42-.62-.816-.62zm-8.1-.04v-.91c0-.14.11-.23.24-.23h4.09c.13 0 .24.1.24.23v.79c0 .13-.11.31-.31.58l-2.12 3.03c.79-.02 1.62.1 2.34.5.16.09.205.227.218.358v.975c0 .13-.145.29-.3.21-1.26-.66-2.933-.733-4.326.007-.15.08-.29-.074-.29-.21v-.925c0-.15 0-.404.15-.63l2.45-3.525H23.5c-.13 0-.235-.098-.235-.23zm-2 5.69c-.08.08-.2.08-.29.03-.41-.34-.49-.5-.71-.83-.68.7-1.17.91-2.05.91-1.05 0-1.86-.65-1.86-1.94 0-1.01.55-1.7 1.33-2.03.68-.3 1.62-.35 2.34-.43v-.16c0-.29.027-.64-.15-.9-.15-.23-.44-.32-.7-.32-.47 0-.894.245-1 .75-.02.11-.1.22-.215.228l-1.21-.13c-.1-.02-.214-.103-.184-.26.277-1.464 1.6-1.91 2.786-1.91.608 0 1.4.16 1.88.62.605.57.547 1.32.547 2.147v1.94c0 .585.24.84.47 1.156.08.11.095.245-.006.33-.25.21-.703.606-.952.826zm-16.33 0c-.08.08-.2.08-.29.03-.41-.34-.482-.5-.71-.83-.684.7-1.17.91-2.055.91C.82 33.06 0 32.41 0 31.12c0-1.01.55-1.7 1.328-2.04.677-.3 1.62-.35 2.343-.435v-.16c0-.297.03-.647-.15-.903-.15-.23-.44-.32-.7-.32-.47 0-.89.242-1 .747-.02.11-.1.22-.21.22L.4 28.1c-.1-.022-.21-.104-.18-.26.28-1.465 1.6-1.907 2.79-1.907.61 0 1.4.16 1.88.62.61.566.55 1.32.55 2.143v1.94c0 .587.24.84.47 1.16.08.11.1.246 0 .33-.254.212-.706.61-.955.83v-.006zm49.31.02c-.13 0-.23-.1-.23-.23v-6.4c.01-.11.1-.2.22-.21h.46c.13 0 .23.09.24.21v.93c.33-.74.937-1.32 1.7-1.32h.097c.81 0 1.404.6 1.625 1.47.345-.86.993-1.47 1.848-1.47h.094c.606 0 1.187.39 1.49.98.29.57.28 1.32.28 1.96l-.006 3.85c0 .13-.1.23-.22.23h-.55c-.12 0-.22-.08-.23-.2V28.9c0-.458.02-.943-.168-1.36-.19-.426-.55-.693-.94-.71-.437.02-.836.336-1.096.764-.338.55-.326 1.05-.326 1.694v3.49c-.013.106-.11.188-.22.197h-.54c-.13-.01-.234-.11-.234-.23l-.005-4.106c0-.38-.02-.82-.19-1.16-.2-.39-.564-.64-.94-.66-.395.02-.79.32-1.026.67-.3.44-.36.99-.36 1.56v3.68c0 .12-.1.22-.223.23h-.546zm9.11-6.87c-.35 0-.65.29-.65.66 0 .36.3.65.65.65.36 0 .66-.29.66-.65 0-.37-.3-.65-.65-.65zm0 .11c.3 0 .55.25.55.55 0 .3-.24.55-.55.55-.3 0-.54-.24-.54-.55 0-.3.25-.54.545-.54zm-.24.92h.14v-.29h.13c.05 0 .07.02.08.068 0 .01.024.197.025.23h.156c-.02-.033-.03-.133-.036-.192-.017-.09-.02-.154-.12-.16.05-.017.14-.045.14-.18 0-.193-.17-.193-.26-.193h-.25v.737zm.14-.61h.116c.038 0 .11 0 .11.1 0 .04-.02.11-.114.11h-.116v-.21z" fill="#fff"/></svg>