<svg viewBox="0 0 64 64" xmlns="http://www.w3.org/2000/svg" fill-rule="evenodd" clip-rule="evenodd" stroke-linejoin="round" stroke-miterlimit="1.414"><path d="M63.793 30.084h-2.927l-.155.86h2.72l-.2 1.103h-2.71l-.19 1.066h3.01l-.22 1.224h-4.76l.97-5.407H64l-.207 1.154zm-6.564 1.124c-.18.218-.39.394-.65.53-.17.086-.38.157-.65.213.19.07.33.14.41.2.056.05.133.14.228.29.096.15.16.26.184.34l.564 1.567h-1.97l-.638-1.652c-.08-.212-.162-.352-.242-.415-.11-.084-.245-.126-.405-.126h-.154l-.39 2.193h-1.75l.97-5.407h2.907c.54 0 .943.045 1.212.133.27.09.47.252.6.492s.165.53.103.875c-.053.3-.166.56-.34.777zm-1.54-1.046c-.1-.093-.31-.14-.63-.14h-.76l-.2 1.1h.733c.08 0 .237-.026.475-.075.12-.022.224-.078.313-.17.09-.09.146-.194.167-.313.03-.174 0-.308-.1-.402zm-5.5 2.895c-.16.283-.36.532-.62.744-.26.22-.52.37-.78.45-.36.12-.78.18-1.26.18-.275 0-.57-.02-.89-.05-.32-.034-.576-.11-.775-.22-.198-.11-.37-.26-.515-.463-.145-.2-.23-.41-.26-.622-.046-.343-.045-.65 0-.913l.58-3.222h1.74l-.59 3.3c-.053.295-.01.526.133.69.142.168.364.25.667.25.3 0 .55-.08.75-.245.2-.164.33-.396.38-.695l.594-3.3h1.74l-.577 3.223c-.06.32-.166.62-.32.906zm-7.8-2.792l-.73 4.072h-1.75l.73-4.072h-1.78l.24-1.335h5.3l-.24 1.335h-1.78zm-4.92.943c-.176.218-.39.394-.65.53-.165.086-.382.157-.65.213.194.07.334.14.417.2.056.05.132.14.23.29.095.15.156.26.183.34l.564 1.567H35.6l-.637-1.652c-.08-.212-.16-.352-.24-.415-.112-.084-.247-.126-.406-.126h-.155l-.393 2.193h-1.75l.97-5.407h2.9c.54 0 .942.045 1.21.133.268.09.47.252.6.492s.167.53.105.875c-.053.3-.167.56-.34.777zm-1.54-1.046c-.1-.093-.31-.14-.627-.14h-.767l-.197 1.1h.736c.08 0 .237-.026.474-.075.12-.022.226-.078.315-.17.09-.09.147-.194.168-.313.03-.174-.004-.308-.102-.402zm-7.605-.078l-.154.86h2.715l-.196 1.103h-2.71l-.19 1.066h3.01l-.22 1.224h-4.76l.97-5.407h4.676l-.207 1.155h-2.927zm-3.96 1.786c-.4.307-.95.46-1.654.46h-.955l-.36 2.007h-1.75l.97-5.407h2.9c.63 0 1.08.144 1.345.432.264.288.348.697.253 1.228-.098.546-.346.972-.743 1.28zM23.3 30.206c-.096-.118-.307-.177-.633-.177h-.492l-.216 1.2h.424c.334 0 .58-.06.74-.17.153-.11.25-.256.28-.43.03-.17-.005-.315-.1-.43zm-6.625 3.24H14.7l-.437.89h-1.78l3.09-5.406h1.903l1.153 5.407H16.8l-.123-.892zm-.43-3.114l-.967 1.944h1.24l-.275-1.944zm-5.51-5.654l-.006-.01c1.802.703 3.26 2.04 4.125 3.71-.22.38-2.135 3.64-2.135 3.64l-1.99-7.34zm-6.16.173c1.284-.59 2.744-.84 4.25-.66.474.06.933.16 1.373.3.11.385 1.067 4.11 1.067 4.11s-5.875-3.3-6.682-3.75zm-4.12 4.51c.656-1.846 1.973-3.35 3.64-4.262v.002c.604.34 3.813 2.13 3.813 2.13s-5.36 1.53-7.453 2.13zm3.995-.633S1.408 34.12.733 35.31c-.6-1.288-.86-2.755-.672-4.27.05-.404.13-.796.24-1.175.59-.084 4.156-1.14 4.156-1.14zm-1.436 3.45l2.15 7.215c-1.797-.657-3.26-1.94-4.164-3.553l.007-.013 2.006-3.648zm8.137 6.98c-1.28.588-2.73.84-4.23.654-.45-.06-.884-.15-1.303-.28 0-.006-.002-.01-.004-.017-.26-.955-1.064-3.955-1.064-3.955s5.693 3.096 6.605 3.59zm4.11-4.418s.003 0 .005-.003c-.675 1.832-2.005 3.314-3.68 4.207l-.01-.007c-.55-.32-3.574-2.04-3.574-2.04s6.457-1.917 7.26-2.158zm2.13.763h.367v2.12h1.364v.284h-1.73v-2.4zm4.516 0h.503l1.19 2.4h-.487l-.344-.72h-1.29l-.357.72h-.454l1.232-2.4zm.74 1.42l-.506-1.06-.526 1.06h1.03zm2.68-1.414h1.222c.333 0 .57.085.71.252.083.098.125.213.125.34 0 .15-.05.276-.152.37-.052.05-.13.1-.226.14.144.05.25.1.324.16.128.106.19.25.19.433 0 .157-.056.297-.17.42-.17.188-.44.28-.817.28h-1.2v-2.4zm1.08 1.013c.163 0 .29-.02.38-.057.143-.06.214-.167.214-.322s-.077-.26-.228-.315c-.086-.03-.213-.046-.38-.046h-.69v.743h.7zm.13 1.105c.235 0 .404-.06.505-.174.064-.072.095-.16.095-.263 0-.174-.09-.292-.275-.356-.1-.034-.23-.05-.39-.05h-.77v.842h.832zm5.336-1.778c.185.21.278.483.278.813 0 .36-.106.657-.318.89-.25.28-.606.42-1.067.42-.43 0-.766-.122-1.013-.365-.22-.236-.33-.532-.33-.89 0-.325.096-.603.284-.833.24-.297.6-.445 1.07-.445.496 0 .86.137 1.1.408zm-.334 1.527c.15-.205.224-.44.224-.707 0-.283-.09-.51-.26-.68-.17-.173-.408-.26-.707-.26-.286 0-.523.086-.706.257-.183.17-.275.42-.275.753 0 .266.08.49.236.672.155.18.41.272.76.272.335 0 .576-.1.726-.306zm2.544-1.87h1.233c.206 0 .374.027.506.08.25.102.374.292.374.567 0 .143-.033.26-.1.35-.067.09-.16.164-.282.22.11.037.19.087.24.15.056.06.086.16.09.3l.015.32c.003.09.01.16.025.206.02.077.06.125.117.148v.053h-.45c-.014-.02-.024-.05-.03-.08-.01-.032-.015-.095-.02-.19l-.02-.4c-.01-.155-.075-.26-.195-.314-.07-.03-.177-.043-.323-.043h-.814V37.9h-.367v-2.4zm1.192 1.1c.17 0 .304-.03.4-.09.1-.062.148-.172.148-.33 0-.172-.067-.288-.204-.35-.07-.032-.17-.05-.29-.05h-.875v.82h.83zm9.204-1.097v.286h-.98v2.11H43.1v-2.11h-.98v-.29h2.356zm6.366 0h1.233c.204 0 .37.027.503.08.25.102.375.292.375.567 0 .143-.032.26-.1.352-.066.09-.16.162-.28.22.105.035.185.085.24.15.052.06.082.16.09.3l.01.32c.005.09.014.16.027.203.02.078.06.126.12.15v.052h-.455c-.012-.02-.022-.05-.03-.08-.006-.033-.013-.096-.018-.19l-.024-.4c-.008-.156-.072-.26-.192-.315-.067-.03-.174-.046-.32-.046h-.814v1.03h-.37v-2.4zm1.194 1.098c.168 0 .3-.03.398-.09.1-.06.15-.17.15-.33 0-.17-.07-.286-.206-.35-.074-.03-.17-.05-.294-.05h-.873v.82h.83zm2.955-1.095h.37v2.39h-.37v-2.4zm2.408 0h1.97v.295h-1.61v.727h1.49v.277h-1.49v.81h1.64v.285h-2v-2.4zm4.126 1.625c.01.134.05.245.12.33.126.16.353.24.68.24.143 0 .275-.02.395-.054.23-.07.347-.19.347-.36 0-.133-.05-.226-.147-.28-.098-.056-.254-.103-.466-.143l-.39-.07c-.252-.048-.432-.1-.54-.16-.18-.1-.272-.248-.272-.448 0-.214.09-.39.27-.53.18-.137.433-.205.762-.205.3 0 .56.06.77.184.212.12.32.314.32.58h-.38c-.02-.127-.06-.226-.124-.294-.117-.13-.317-.19-.6-.19-.226 0-.39.04-.49.12-.098.08-.148.173-.148.28 0 .117.06.203.175.257.078.034.253.08.524.13l.404.076c.194.036.343.087.45.15.182.11.273.275.273.488 0 .266-.113.456-.346.57-.233.114-.504.17-.813.17-.36 0-.645-.074-.85-.227-.202-.15-.302-.356-.3-.615h.38zM39.18 35.5h.502l1.19 2.397h-.49l-.34-.718h-1.29l-.357.71h-.456l1.233-2.398zm.737 1.415l-.505-1.06-.528 1.06h1.032zm8.68-1.072c.185.212.278.484.278.814 0 .358-.105.656-.317.892-.25.27-.604.41-1.066.41-.43 0-.77-.12-1.017-.367-.22-.236-.33-.53-.33-.89 0-.325.095-.603.283-.833.242-.296.6-.444 1.07-.444.495 0 .86.136 1.098.407zm-.335 1.528c.15-.2.222-.44.222-.7 0-.28-.085-.51-.257-.68-.172-.17-.408-.26-.706-.26-.29 0-.53.088-.71.26-.182.17-.274.42-.274.753 0 .266.08.49.236.67.157.18.41.274.763.274.335 0 .577-.102.726-.307z" fill="#fff" fill-rule="nonzero"/></svg>