<svg viewBox="0 0 64 64" xmlns="http://www.w3.org/2000/svg" fill-rule="evenodd" clip-rule="evenodd" stroke-linejoin="round" stroke-miterlimit="1.414"><path d="M63.794 29.96h-2.928l-.154.86h2.716l-.198 1.103h-2.715l-.192 1.066h3.012l-.22 1.22h-4.76l.97-5.41H64l-.206 1.15zM59.2 35.792h-1.065v.42h.992v.32h-.992v.514h1.104v.32h-1.51v-1.894h1.47v.32zm-1.97-4.71c-.173.217-.388.394-.647.53-.164.086-.38.157-.65.213.195.067.335.134.418.2.06.044.14.14.23.285.1.146.16.258.19.337l.566 1.567h-1.97l-.64-1.653c-.08-.21-.16-.35-.24-.41-.11-.08-.246-.122-.405-.122h-.154l-.395 2.195H51.78l.97-5.41h2.907c.54 0 .94.044 1.21.13.27.09.47.255.6.494.133.24.17.53.106.875-.055.3-.17.56-.34.777zm-1.538-1.047c-.1-.093-.308-.14-.626-.14H54.3l-.198 1.1h.736c.08 0 .238-.024.475-.073.12-.023.224-.08.314-.17.09-.092.145-.196.166-.315.03-.174-.003-.308-.1-.402zm-2.866 5.488c.096.033.172.094.23.18.057.088.086.187.086.3 0 .142-.044.26-.13.35-.088.094-.218.152-.392.177.086.05.158.102.214.16.056.057.132.16.227.307l.25.37h-.476l-.29-.412c-.102-.148-.172-.24-.21-.28-.04-.037-.08-.063-.12-.078-.042-.014-.11-.02-.2-.02h-.08v.79h-.4v-1.894h.84c.21 0 .364.017.46.05zm-.9.27v.48h.294c.19 0 .31-.008.358-.024.048-.02.085-.05.112-.08.027-.04.04-.09.04-.14 0-.07-.017-.12-.052-.16-.036-.04-.086-.07-.15-.08-.033-.005-.13-.007-.292-.007h-.31zm-1.73-2.86c-.156.283-.363.53-.624.744-.26.213-.52.362-.78.45-.36.12-.777.18-1.252.18-.275 0-.57-.02-.89-.056-.318-.03-.576-.11-.775-.22-.2-.11-.37-.26-.515-.46-.145-.2-.232-.41-.26-.62-.046-.344-.046-.65.002-.915l.577-3.223h1.74l-.59 3.3c-.06.296-.01.526.13.69.14.167.36.25.66.25.3 0 .55-.082.75-.245.2-.163.33-.396.38-.696l.59-3.3h1.74l-.577 3.223c-.058.32-.164.62-.32.906zm-7.802-2.794l-.73 4.07H39.92l.73-4.08h-1.78l.24-1.337h5.302l-.24 1.336h-1.778zm-3.802 6.85l.242.37h-.477l-.29-.41c-.1-.15-.17-.24-.21-.28-.037-.04-.077-.066-.12-.08-.042-.015-.108-.02-.2-.02h-.08v.79h-.4v-1.89h.84c.21 0 .364.016.46.05.096.033.172.094.23.18.058.088.086.187.086.3 0 .14-.043.26-.13.35-.088.094-.218.15-.392.177.09.05.16.1.22.16.06.05.13.16.23.3zm-.37-.83c.027-.04.04-.085.04-.14 0-.065-.017-.117-.053-.156-.04-.04-.09-.064-.15-.074-.04-.005-.13-.007-.3-.007h-.31v.48h.293c.192 0 .31-.01.36-.025.046-.016.084-.043.11-.08zm-.746-5.087c-.172.216-.388.393-.646.53-.164.085-.38.156-.65.212.195.066.334.133.418.2.056.043.132.14.228.284.096.146.157.26.184.337l.564 1.567h-1.972l-.636-1.653c-.08-.212-.16-.35-.24-.415-.112-.083-.247-.125-.406-.125h-.154l-.394 2.195H32.02l.97-5.41h2.907c.54 0 .944.043 1.213.13.27.09.47.255.6.494.133.24.168.53.106.873-.054.3-.167.56-.34.776zM35.94 30.03c-.1-.093-.31-.14-.63-.14h-.767l-.197 1.1h.735c.08 0 .24-.024.48-.073.12-.024.226-.08.316-.17.09-.093.146-.197.168-.316.03-.17-.002-.302-.1-.4zm-7.61-.077l-.153.86h2.715l-.198 1.103H27.98l-.19 1.066h3.01l-.217 1.224h-4.76l.97-5.41h4.675l-.208 1.156h-2.928zm-1.6 5.513l.793 1.894h-.434l-.18-.43h-.79l-.162.43h-.424l.77-1.894h.423zm.06 1.144l-.273-.702-.268.702h.54zm-2.423-4.87c-.4.306-.95.46-1.653.46h-.955l-.36 2.007h-1.75l.97-5.41h2.9c.63 0 1.07.143 1.34.43.26.29.34.7.25 1.23-.1.546-.35.973-.748 1.282zm-1.064-1.666c-.097-.12-.308-.178-.635-.178h-.497l-.21 1.207h.428c.336 0 .582-.057.74-.17.155-.11.25-.254.28-.43.03-.17-.003-.313-.1-.43zm-6.626 3.24H14.7l-.436.893h-1.782l3.092-5.41h1.903l1.153 5.41h-1.828l-.122-.893zM16.25 30.2l-.963 1.946h1.24l-.275-1.944zm-5.51-5.656l-.002-.01c1.803.7 3.258 2.04 4.126 3.71-.22.382-2.135 3.644-2.135 3.644s-1.85-6.844-1.99-7.345zm-6.16.17c1.287-.592 2.748-.845 4.255-.66.473.058.93.156 1.37.292.11.384 1.07 4.115 1.07 4.115s-5.882-3.29-6.69-3.74zM.46 29.236c.656-1.85 1.974-3.355 3.64-4.268.606.342 3.814 2.134 3.814 2.134S2.55 28.632.458 29.235zm3.996-.637L.734 35.19c-.6-1.29-.858-2.76-.672-4.276.05-.403.13-.796.237-1.176.58-.084 4.15-1.14 4.15-1.14zm-1.44 3.45s1.86 6.23 2.15 7.22C3.37 38.61 1.906 37.33 1 35.71l.008-.013 2.005-3.65zm8.14 6.98c-1.282.587-2.736.838-4.237.653-.45-.056-.89-.148-1.31-.273 0-.006 0-.01-.004-.017-.26-.956-1.063-3.958-1.063-3.958s5.693 3.1 6.605 3.593zm4.1-4.422h.008c-.677 1.83-2.006 3.316-3.68 4.21l-.01-.008C11.024 38.49 8 36.77 8 36.77l7.26-2.16zm7.49 2.432h.992v.32h-1.39v-1.88h.398v1.557zm7.863-1.557c.07.012.14.04.2.08s.11.09.152.157c.04.067.06.14.06.223 0 .09-.025.17-.075.244-.05.074-.116.13-.2.167.12.034.212.09.28.173.062.08.094.18.094.29 0 .084-.02.17-.06.25-.04.08-.1.15-.17.194-.074.05-.16.08-.27.09-.066.008-.226.01-.48.014h-.673V35.47h.79c.158 0 .275.004.35.017zm-.74 1.556h.36c.145 0 .236-.004.275-.01.06-.01.106-.037.144-.077.037-.04.056-.094.056-.16 0-.06-.014-.107-.042-.146-.03-.04-.07-.07-.125-.088-.05-.018-.17-.027-.35-.027h-.32v.508zm0-1.26v.44h.26c.15 0 .25-.003.29-.008.06-.01.12-.03.16-.07.04-.036.06-.086.06-.147 0-.06-.02-.106-.05-.143-.04-.036-.09-.058-.15-.066-.04-.003-.16-.006-.35-.006h-.23zm3.51-.1c.08-.078.16-.134.25-.17.123-.05.265-.076.425-.076.29 0 .524.088.7.26.173.174.26.415.26.723 0 .305-.087.545-.26.72-.174.172-.406.26-.696.26-.294 0-.528-.088-.7-.26-.174-.17-.26-.408-.26-.71 0-.19.03-.35.09-.486.044-.096.105-.182.183-.26zm.29 1.22c.1.11.23.166.39.166s.29-.055.39-.165c.102-.11.153-.274.153-.493 0-.22-.05-.38-.15-.487-.1-.106-.23-.16-.395-.16s-.297.055-.398.16c-.1.11-.15.275-.15.49 0 .216.05.38.154.49zm8.093-1.43l.79 1.89h-.434l-.173-.43h-.79l-.16.43h-.424l.77-1.893h.42zm.055 1.14l-.27-.7-.266.704h.54zm3.896-.823h-.587v1.57h-.4v-1.57h-.585v-.32h1.57v.32zm2.125-.11c.08-.078.163-.134.255-.17.125-.05.267-.076.428-.076.29 0 .524.087.7.26.174.173.26.414.26.72s-.085.548-.26.72c-.172.173-.404.26-.695.26-.29 0-.526-.087-.7-.26-.173-.17-.26-.407-.26-.71 0-.192.03-.353.09-.485.045-.097.107-.183.185-.26zm.292 1.22c.103.11.234.165.393.165.16 0 .29-.054.394-.164.103-.11.154-.275.154-.494 0-.218-.05-.38-.15-.486-.098-.106-.23-.16-.395-.16-.164 0-.297.055-.397.16-.1.11-.15.275-.15.49 0 .216.05.38.154.49zm7.493.46h-.4v-1.89h.4v1.894zm6.104-.377c.073.058.17.087.29.087.13 0 .226-.026.29-.078.066-.055.1-.117.1-.186 0-.047-.015-.085-.04-.116-.03-.033-.078-.06-.146-.084-.046-.014-.153-.04-.32-.08-.213-.05-.363-.114-.45-.188-.12-.104-.182-.23-.182-.38 0-.097.03-.187.086-.27.053-.085.135-.15.243-.193.108-.043.238-.064.39-.064.25 0 .437.052.56.156.127.105.193.244.2.418l-.4.018c-.014-.097-.05-.166-.11-.21-.053-.042-.14-.063-.25-.063-.116 0-.206.02-.27.066-.044.03-.065.07-.065.118 0 .046.02.084.06.115.05.04.172.082.366.125.198.047.34.09.435.14.093.045.166.11.218.19.053.08.08.18.08.3 0 .11-.03.21-.095.306-.064.096-.153.166-.268.21-.114.048-.257.07-.43.07-.25 0-.44-.055-.574-.165-.135-.11-.215-.274-.24-.486l.387-.037c.024.124.07.215.143.275z" fill="#fff" fill-rule="nonzero"/></svg>