<svg viewBox="0 0 64 64" xmlns="http://www.w3.org/2000/svg" fill-rule="evenodd" clip-rule="evenodd" stroke-linejoin="round" stroke-miterlimit="1.414"><path d="M10.997 39.027c-1.263.576-2.697.823-4.178.64-.45-.053-.88-.143-1.29-.267l-.01-.017L4.48 35.5l6.515 3.527zM2.97 32.173s1.833 6.11 2.122 7.082c-1.77-.645-3.214-1.903-4.106-3.488l.007-.012 1.978-3.582zm12.073 2.515l.007-.002c-.67 1.8-1.98 3.255-3.628 4.132l-.012-.008c-.544-.315-3.527-2.003-3.527-2.003s6.368-1.882 7.16-2.12zm45.633 2.343c.01.14.047.25.113.33.12.16.35.24.67.24.14 0 .27-.016.39-.05.22-.067.34-.186.34-.356 0-.13-.05-.22-.15-.274-.098-.053-.25-.1-.46-.14l-.385-.07c-.25-.05-.43-.1-.533-.157-.18-.1-.27-.247-.27-.44 0-.214.09-.387.265-.524.176-.136.427-.2.752-.2.296 0 .55.056.76.175.21.12.312.31.312.57h-.374c-.018-.126-.06-.223-.12-.29-.117-.123-.314-.184-.59-.184-.226 0-.387.04-.485.117-.1.08-.148.17-.148.276 0 .116.057.2.173.254.078.035.25.078.518.13l.398.074c.193.036.34.085.445.15.18.11.27.267.27.477 0 .26-.115.447-.345.56-.23.112-.498.167-.8.167-.358 0-.636-.074-.837-.224-.2-.15-.3-.35-.296-.607h.37zm-12.752-1.25c-.234-.263-.595-.4-1.083-.4-.46 0-.81.148-1.05.44-.18.225-.28.5-.28.815 0 .353.11.645.33.875.243.24.577.36 1 .36.456 0 .806-.138 1.05-.41.21-.234.315-.526.315-.877 0-.325-.09-.59-.274-.8zm-16.496 0c-.234-.263-.595-.4-1.082-.4-.466 0-.818.148-1.056.44-.186.225-.28.5-.28.815 0 .353.11.645.327.875.243.24.577.36 1 .36.456 0 .806-.138 1.052-.41.2-.234.31-.526.31-.877 0-.325-.09-.59-.28-.8zm7.704-.333h-.496l-1.22 2.354h.45l.352-.704h1.27l.338.703h.48l-1.174-2.354zM52.21 37.6c-.02-.044-.028-.11-.03-.2l-.014-.316c-.006-.137-.036-.236-.09-.296-.05-.062-.13-.11-.235-.148.12-.054.217-.126.28-.216.07-.09.1-.208.1-.35 0-.27-.12-.455-.37-.555-.13-.057-.292-.08-.493-.08H50.14v2.35h.363v-1.01h.802c.144 0 .25.013.317.042.118.053.18.155.19.31l.02.392c.006.09.012.152.02.184.007.032.017.06.03.08h.444v-.054c-.056-.022-.095-.07-.117-.144zm-16.537 0c-.013-.044-.022-.11-.026-.2l-.01-.316c-.008-.137-.038-.236-.09-.296-.054-.062-.13-.11-.237-.148.12-.054.213-.126.28-.216.066-.09.1-.208.1-.35 0-.27-.124-.455-.37-.555-.13-.057-.297-.08-.497-.08h-1.218v2.35h.363v-1.01h.803c.15 0 .25.013.32.042.12.053.187.155.19.31l.027.392c.005.09.01.152.02.184.006.032.015.06.028.08h.446v-.054c-.055-.022-.094-.07-.116-.144zm18.557-2.16h.368v2.353h-.368V35.44zm-27.284 1.24c-.07-.056-.177-.108-.32-.154.097-.042.172-.088.224-.14.1-.093.15-.215.15-.363 0-.126-.04-.24-.122-.336-.138-.165-.372-.247-.7-.247h-1.205v2.353h1.185c.37 0 .638-.09.807-.275.114-.123.17-.26.17-.412 0-.18-.062-.32-.188-.425zm-4.853-1.24H21.6l-1.22 2.353h.45l.35-.704h1.27l.34.7h.48l-1.176-2.356zm21.767 0v.28h-.965v2.072h-.392v-2.07h-.966v-.28h2.324zm-26.715 0h.363v2.072h1.344v.28h-1.707V35.44zm39.462 0h1.944v.29h-1.59v.712h1.47v.273h-1.47v.798h1.62v.28h-1.97V35.44zm-9.013 1.836c-.147.2-.385.302-.715.302-.35 0-.6-.09-.76-.268-.157-.18-.23-.4-.23-.66 0-.327.09-.573.27-.74.18-.17.41-.25.7-.25s.522.082.693.25c.17.17.254.393.254.67 0 .26-.074.493-.22.695zm-16.496 0c-.147.2-.385.302-.715.302-.347 0-.598-.09-.752-.268-.15-.18-.23-.4-.23-.66 0-.327.09-.573.27-.74.18-.17.42-.25.7-.25.3 0 .53.082.7.25.17.17.258.393.258.67 0 .26-.073.493-.22.695zm-4.434.075c-.1.12-.266.17-.5.17h-.82v-.83h.755c.16 0 .28.02.38.05.18.07.27.18.27.35 0 .1-.03.19-.095.26zm11.683-.52l.518-1.04.5 1.04h-1.018zm-17.037 0l.518-1.04.5 1.04H21.31zm30.4-.4c-.096.06-.226.09-.392.09h-.815v-.8h.86c.122 0 .218.02.29.05.135.06.202.174.202.342 0 .156-.048.264-.144.323zm-16.53 0c-.097.06-.228.09-.393.09h-.816v-.8h.87c.12 0 .22.02.29.05.136.06.2.174.2.342 0 .156-.045.264-.14.323zm-9.837.01h.694c.16 0 .286-.02.375-.056.14-.06.21-.164.21-.317 0-.155-.074-.26-.223-.31-.09-.032-.21-.046-.38-.046h-.68v.728zM4.39 28.788L.722 35.25v.002C.13 33.986-.125 32.545.06 31.058c.046-.396.125-.78.23-1.155.58-.08 4.1-1.118 4.1-1.118zm18.496 1.35l-2.603 4.36-1.196.05-.49-2.99-1.632 3.08-1.192.05-.986-4.21 1.397-.06.447 2.82 1.5-2.9 1.41-.06.41 2.86 1.54-2.94 1.4-.06zm5.093 4.036l-1.33.056.36-1.898-2.55.107-.36 1.896-1.324.054.81-4.28 1.324-.05-.324 1.71 2.55-.106.322-1.71 1.323-.055-.81 4.282zm12.64-.528l-1.345.057-.32-.895-2.29.095-.664.936-1.355.05 3.06-4.38 1.518-.063 1.397 4.19zM64 28.42l-2.57 2.783-.3 1.586-1.318.05.3-1.59-1.61-2.61 1.475-.062.948 1.79 1.588-1.896L64 28.42zM51.294 33.2l-4.402.185.81-4.284 1.324-.05-.682 3.61 3.078-.13-.128.678zm-12.48-1.058l-.535-1.626-1.11 1.694 1.64-.068zm-28.22-7.33c0-.005-.002-.007-.003-.01 1.78.69 3.22 2.002 4.07 3.642-.21.374-2.1 3.574-2.1 3.574L10.6 24.81zm23.462 9.11l-4.81.2.81-4.284 4.658-.194-.128.677-3.335.14-.19 1.04 3.08-.13-.13.677-3.074.127-.23 1.224 3.486-.148-.13.677zm23.025-.963l-4.81.2.81-4.29 4.66-.198-.13.68-3.33.137-.19 1.033 3.078-.126-.126.674-3.077.13-.23 1.222 3.486-.15-.13.68zm-10.33-3.15l-1.87.07-.68 3.606-1.323.055.68-3.604-1.94.08.127-.674 5.14-.216-.13.68zm-46.3-.4c.65-1.82 1.95-3.3 3.59-4.19l3.76 2.09s-5.28 1.506-7.35 2.1zm4.07-4.43c1.27-.58 2.71-.83 4.2-.65.468.052.92.15 1.35.282.11.373 1.056 4.034 1.056 4.034s-5.8-3.236-6.6-3.675z" fill="#fff"/></svg>