<svg viewBox="0 0 64 64" xmlns="http://www.w3.org/2000/svg" fill-rule="evenodd" clip-rule="evenodd" stroke-linejoin="round" stroke-miterlimit="1.414"><path d="M7.766 40c-.768-.05-1.488-.146-2.093-.36-.253-1.48-.53-2.936-.8-4.397 2.052 1.386 4.126 2.75 6.146 4.17-.81.317-1.71.536-2.78.587h-.48zm-4.202-8.027c.464 2.457.914 4.928 1.357 7.406-1.73-.75-3.02-1.94-3.92-3.52.84-1.318 1.71-2.6 2.57-3.89zm11.804 3.074h.033c-.75 1.782-1.98 3.095-3.61 4.005-1.11-.73-2.24-1.494-3.35-2.256-.15-.104-.28-.204-.44-.327 2.47-.46 4.92-.95 7.37-1.43zm47.486 1.056c-.01-.086-.037-.157-.082-.213-.046-.057-.104-.1-.176-.134-.07-.032-.152-.056-.243-.07-.09-.013-.188-.02-.288-.02-.09 0-.174.01-.253.03-.08.02-.148.05-.207.09-.06.04-.107.087-.14.14-.035.055-.052.116-.052.183 0 .03.005.06.017.09.01.03.032.06.06.09.032.03.07.054.122.075.05.022.113.04.188.053l.923.155c.2.033.35.103.445.21.094.105.142.233.142.384 0 .12-.027.23-.08.327-.054.096-.132.178-.234.245-.102.063-.225.114-.37.15-.146.036-.31.054-.493.054-.355 0-.63-.064-.827-.194-.196-.13-.306-.33-.33-.6h.38c0 .08.023.154.063.22s.09.12.16.16c.07.045.15.08.25.103.1.024.2.036.32.036.26 0 .452-.045.59-.13.136-.09.205-.2.205-.337 0-.082-.028-.15-.083-.196-.054-.05-.126-.085-.214-.112-.088-.027-.19-.047-.304-.06l-.35-.043c-.117-.012-.233-.03-.347-.055-.116-.025-.217-.06-.305-.11-.09-.048-.16-.11-.216-.19-.055-.08-.083-.186-.083-.314 0-.118.025-.22.074-.316.05-.092.12-.17.213-.233s.204-.11.34-.142c.13-.035.283-.05.452-.05.128 0 .255.01.383.03.123.02.24.06.34.114.103.05.188.124.254.22.065.09.103.205.113.345h-.378zm-16.867.57c0-.096.01-.195.03-.297.02-.1.054-.2.1-.294.046-.094.105-.184.177-.268.072-.085.16-.16.262-.22.103-.065.223-.114.36-.15.135-.036.29-.054.463-.054.17 0 .32.018.46.054.13.036.25.086.36.15.1.062.19.136.26.22.07.084.13.174.18.268.04.095.08.193.1.294.02.102.03.2.03.298 0 .146-.03.295-.07.445-.05.15-.13.28-.24.41-.11.12-.25.22-.43.3-.18.08-.398.117-.66.117-.26 0-.48-.04-.657-.118-.178-.08-.32-.183-.43-.308-.108-.126-.187-.263-.235-.415-.047-.15-.07-.3-.07-.444zm-16.733 0c0-.096.01-.195.03-.297.02-.1.054-.2.1-.294.046-.094.104-.184.177-.268.08-.085.16-.16.27-.22.105-.065.22-.114.36-.15.138-.036.29-.054.466-.054.174 0 .33.018.465.054.137.036.257.086.36.15.1.062.19.136.26.22.07.084.13.174.177.268.047.095.08.193.1.294.02.102.03.2.03.298 0 .146-.023.295-.07.445-.048.15-.127.28-.236.41-.11.12-.25.22-.43.3-.18.08-.396.117-.66.117-.26 0-.48-.04-.654-.118-.18-.08-.322-.183-.43-.308-.11-.126-.187-.263-.235-.415-.05-.15-.07-.3-.07-.444zm-11.998-1.22h.357v2.163h1.427v.277h-1.784v-2.44zm39.98 0h1.853v.278h-1.5v.77h1.4v.28h-1.4v.84h1.53v.28h-1.89v-2.44zm-22.91 2.44h-.357v-2.44h1.21c.19 0 .35.016.47.046s.214.07.282.13c.07.05.116.12.142.2.026.08.04.17.04.26 0 .147-.05.273-.154.376-.1.102-.24.166-.413.19v.007c.082.012.15.03.205.05.054.023.1.057.136.102.035.045.065.102.086.172.022.07.04.155.057.26.02.13.04.25.06.355.02.106.047.2.08.28h-.37c-.016-.045-.03-.097-.044-.16-.014-.06-.027-.13-.04-.2-.012-.07-.025-.142-.04-.216-.013-.077-.028-.148-.044-.215-.01-.04-.03-.08-.05-.12-.02-.035-.053-.07-.1-.095-.05-.028-.11-.05-.183-.064-.076-.013-.17-.02-.29-.02h-.69v1.09zm16.732 0h-.356v-2.44h1.217c.19 0 .34.016.47.046.12.03.21.07.28.13.07.05.11.12.14.2.024.08.04.17.04.26 0 .147-.05.273-.156.376-.1.102-.24.166-.413.19v.007c.08.012.15.03.206.05.054.023.1.057.136.102.035.045.064.102.086.172.02.07.04.155.055.26.02.13.04.25.06.355.02.106.045.2.08.28h-.378c-.017-.045-.03-.097-.046-.16-.015-.06-.027-.13-.04-.2-.013-.07-.025-.142-.04-.216-.013-.077-.028-.148-.044-.215-.01-.04-.027-.08-.05-.12-.02-.035-.055-.07-.102-.095-.048-.028-.11-.05-.185-.064s-.17-.02-.29-.02h-.69v1.09zm3.78-2.44h.356v2.44h-.357v-2.44zM40.052 37.26h-1.52l-.32.635h-.397l1.273-2.44h.417l1.273 2.44h-.408l-.32-.635zm-17.303 0h-1.52l-.32.635h-.4l1.27-2.44h.42l1.27 2.44h-.41l-.32-.635zm20.25.635V35.75h-1.05v-.296h2.45v.297h-1.05v2.15H43zm-17.81-2.44h1.17c.17 0 .31.013.43.038.12.026.21.063.29.114.07.05.13.115.16.193s.05.168.05.272c0 .154-.04.275-.13.362-.085.087-.207.146-.367.177v.01c.1.01.184.04.26.07.073.04.134.08.182.14.047.058.083.12.107.18.025.07.037.14.037.21 0 .09-.02.18-.054.26-.035.08-.09.15-.165.22-.074.063-.17.113-.292.15-.12.035-.265.052-.43.052h-1.25v-2.44zm21.17 1.22c0 .15.02.29.07.413.05.124.12.23.21.317.09.088.194.156.32.204.123.05.26.07.412.07.15 0 .287-.03.412-.08.124-.05.23-.116.32-.204.09-.087.16-.193.207-.317.05-.124.077-.26.077-.41 0-.15-.026-.29-.075-.41-.048-.127-.117-.23-.206-.32-.09-.088-.197-.156-.32-.204-.127-.05-.265-.076-.415-.076-.15 0-.29.025-.412.074-.125.047-.23.115-.32.203-.09.09-.16.193-.21.32-.05.122-.075.26-.075.41zm-16.738 0c0 .15.025.29.074.413.05.124.12.23.21.317.09.088.194.156.32.204.123.05.26.07.412.07.15 0 .29-.03.412-.08.124-.05.23-.116.32-.204.09-.087.16-.193.207-.317.05-.124.073-.26.073-.41 0-.15-.023-.29-.073-.41-.05-.127-.117-.23-.206-.32-.086-.088-.193-.156-.32-.204-.122-.05-.26-.076-.41-.076-.15 0-.29.025-.414.074-.126.047-.23.115-.32.203-.09.09-.16.193-.21.32-.05.122-.074.26-.074.41zm-4.084.943h.854c.124 0 .223-.01.3-.032.08-.02.144-.05.19-.09.045-.038.077-.083.096-.135.02-.05.03-.1.03-.16 0-.14-.05-.25-.15-.32-.1-.075-.26-.11-.48-.11h-.836v.856zm14.37-.635l-.618-1.23-.62 1.23h1.237zm-17.3 0l-.62-1.23-.62 1.23h1.24zm11.71-.452h.813c.09 0 .177 0 .253-.02.075-.01.14-.03.192-.06.05-.03.09-.07.12-.12.026-.05.04-.11.04-.19 0-.15-.046-.253-.138-.31-.093-.06-.247-.09-.465-.09h-.82v.798zm16.734 0h-.003.814c.094 0 .18 0 .255-.02.076-.01.14-.03.193-.06.052-.03.092-.07.12-.12.027-.05.04-.11.04-.19 0-.15-.044-.253-.136-.31-.09-.06-.246-.09-.463-.09h-.82v.798zm-25.514-.04h.915c.15 0 .267-.03.352-.085.085-.06.127-.153.127-.284 0-.057-.01-.11-.027-.155s-.048-.086-.092-.12c-.044-.033-.105-.06-.183-.077-.076-.017-.176-.026-.297-.026h-.793v.75zM0 32.24v-.477c.046-.75.148-1.45.344-2.06 1.496-.28 2.973-.58 4.463-.86-1.392 2.09-2.77 4.197-4.17 6.28-.354-.82-.58-1.767-.637-2.88zm33.453-3.456h2.602c.255 0 .472.007.65.018.18.01.332.03.457.052.124.03.23.07.315.125.086.053.16.122.222.205.03.043.07.095.1.157s.05.137.08.225c.02.086.03.19.03.31 0 .114-.02.246-.05.397-.03.154-.08.29-.13.4-.06.11-.12.21-.18.29-.07.083-.138.15-.21.207-.074.054-.15.1-.228.144-.203.115-.386.19-.55.223-.164.034-.287.056-.37.066l-.008.03c.27.01.476.045.62.11.14.06.242.15.302.266.06.115.09.26.09.423 0 .166-.01.358-.025.576-.01.094-.02.2-.026.32l-.02.366c-.005.125-.006.248-.003.37s.01.232.02.33h-1.69c-.01-.17-.005-.362.016-.576.02-.21.044-.444.07-.693.015-.17.026-.315.03-.432.006-.117-.008-.212-.042-.285-.032-.072-.095-.126-.186-.16-.093-.033-.227-.05-.403-.05h-.654l-.466 2.197h-1.56l1.193-5.625zm19.728 0h2.61c.257 0 .47.007.65.018.18.01.33.03.46.052.125.03.23.07.316.125.085.053.16.122.22.205.037.043.07.095.1.157s.06.137.08.225c.02.086.03.19.03.31 0 .114-.014.246-.046.397-.03.154-.074.29-.13.4-.054.11-.114.21-.18.29-.064.083-.132.15-.205.207-.073.054-.15.1-.226.144-.204.115-.387.19-.55.223-.164.034-.288.056-.37.066l-.01.03c.27.01.48.045.62.11.145.06.246.15.306.266.06.115.09.26.09.423 0 .166-.01.358-.026.576-.01.094-.02.2-.03.32s-.013.24-.02.366c-.003.125-.005.248-.002.37s.01.232.02.33h-1.69c-.01-.17-.006-.362.015-.576.02-.21.045-.444.07-.693.016-.17.026-.315.03-.432.007-.117-.01-.212-.04-.285-.035-.072-.098-.126-.188-.16-.09-.033-.223-.05-.4-.05h-.654l-.465 2.197h-1.57l1.19-5.625zm6.6.018H64l-.226 1.07h-2.68l-.25 1.17h2.525l-.24 1.073h-2.52l-.25 1.2h2.74l-.234 1.09h-4.28l1.19-5.605zm-44.41-.02h1.9l1.03 5.62h-1.76l-.15-1.13h-2.25l-.62 1.13h-1.56l3.41-5.625zm11.988.014h4.22l-.225 1.074h-2.68l-.25 1.17h2.525l-.235 1.073h-2.53l-.25 1.2h2.744l-.234 1.09h-4.28l1.19-5.603zM40.94 29.89h-1.72l.236-1.113h5.04l-.233 1.114H42.51l-.96 4.51h-1.573l.958-4.51zm-19.99-1.11h2.586c.11 0 .224 0 .346.004.126.003.25.013.37.03.13.02.25.048.367.087.11.04.22.1.33.17.202.14.352.34.45.59.09.257.09.567.012.93-.052.25-.13.47-.238.65-.107.177-.22.33-.34.45-.12.122-.234.22-.343.29-.11.07-.194.12-.256.15-.126.062-.26.11-.4.14-.14.03-.276.055-.41.07-.13.015-.256.025-.373.027-.115.003-.213.004-.29.004l-1.013.007-.427 2.026h-1.56l1.193-5.624zm26.565 0l-.71 3.342c-.03.15-.052.3-.065.448-.017.15.005.286.062.406.073.155.188.27.343.346.156.076.33.113.522.113.25 0 .456-.044.623-.132.167-.087.303-.2.41-.34.106-.135.188-.283.245-.442.057-.16.1-.3.132-.44l.693-3.29h1.52l-.686 3.256c-.03.157-.07.314-.117.47-.046.16-.102.316-.166.466-.06.15-.14.29-.22.425-.084.133-.182.25-.29.355-.17.166-.36.303-.57.41-.21.106-.42.19-.64.245-.22.058-.432.097-.642.117-.21.02-.404.03-.58.03-.442 0-.805-.04-1.09-.124-.287-.086-.514-.197-.683-.337-.17-.14-.29-.3-.36-.48s-.11-.362-.115-.554c-.01-.195.002-.383.033-.567.03-.185.06-.355.09-.51l.687-3.2h1.575zm-31.267 3.46l-.226-2.36H16l-1.277 2.36h1.528zm-5.113-7.59c1.737.734 3.013 1.933 3.89 3.53-.85 1.23-1.658 2.503-2.533 3.71-.44-2.426-.91-4.82-1.353-7.24zm10.85 6.654h.694c.09 0 .2-.004.32-.01.112-.01.23-.037.34-.083.11-.04.203-.12.292-.22.088-.104.153-.25.195-.437.04-.175.037-.31-.004-.405-.042-.096-.105-.17-.19-.218-.087-.05-.188-.08-.305-.09-.117-.01-.23-.017-.347-.017h-.68l-.313 1.48zm12.528-.11h.585c.17 0 .305 0 .4-.003.097 0 .18-.01.254-.04.098-.022.175-.063.238-.12.062-.052.116-.11.16-.172.044-.063.077-.124.1-.184.024-.06.04-.113.052-.16.035-.17.03-.304-.017-.4-.046-.097-.117-.165-.213-.207-.098-.04-.206-.066-.33-.074-.122-.01-.24-.016-.354-.016H34.8l-.288 1.38zm19.73 0h.584c.17 0 .305 0 .4-.003.097 0 .18-.01.254-.04.1-.022.17-.063.24-.12.062-.052.115-.11.16-.172.043-.063.077-.124.1-.184.024-.06.04-.113.05-.16.036-.17.03-.304-.015-.4-.046-.097-.12-.165-.214-.207-.096-.04-.205-.066-.327-.074-.122-.01-.24-.016-.355-.016h-.584l-.29 1.38zM2.21 26.46l.338-.333c.57-.498 1.138-.917 1.707-1.204 1.25.87 2.502 1.708 3.753 2.567-2.465.48-4.93.98-7.396 1.447.33-.827.846-1.652 1.598-2.476zm5.554-2.463h.474c.78.053 1.523.145 2.125.376.287 1.447.546 2.92.834 4.366-2.042-1.4-4.113-2.77-6.132-4.19.785-.3 1.664-.51 2.698-.56z" fill="#fff"/></svg>