<svg viewBox="0 0 64 64" xmlns="http://www.w3.org/2000/svg" fill-rule="evenodd" clip-rule="evenodd" stroke-linejoin="round" stroke-miterlimit="1.414"><path d="M8.786 37.98c-.47-.763-.923-1.615-1.344-2.536-.97-.252-1.886-.55-2.727-.883-.236.48-.44.95-.605 1.39-.637 1.73-.654 3.01-.045 3.52.207.18.49.26.846.26 1 0 2.39-.64 3.88-1.75zm47.824-1.226c.018-.22.058-.406.12-.562.062-.157.15-.28.267-.366.116-.088.272-.132.468-.132s.352.044.468.132c.117.087.206.21.267.366.062.156.102.343.12.562.018.218.027.457.027.715 0 .26-.01.5-.027.71-.018.215-.058.4-.12.56-.06.154-.15.273-.267.36-.116.08-.272.122-.468.122s-.352-.043-.468-.126c-.116-.083-.205-.2-.267-.358-.062-.158-.102-.344-.12-.56-.018-.218-.027-.457-.027-.72 0-.26.01-.497.027-.715zm-9.724 0c.018-.22.058-.406.12-.562.06-.157.15-.28.266-.366.117-.088.273-.132.47-.132.195 0 .35.044.467.132.11.087.2.21.26.366s.1.343.12.562c.02.218.024.457.024.715 0 .26-.01.5-.027.71-.02.215-.06.4-.12.56-.06.154-.15.273-.267.36-.116.08-.272.122-.47.122-.194 0-.35-.043-.467-.126-.118-.083-.207-.2-.27-.358-.06-.158-.1-.344-.12-.56-.016-.218-.026-.457-.026-.72 0-.26.01-.497.027-.715zm15.407 1.457c0 .08.005.16.014.22.01.07.028.12.055.17.026.047.062.08.107.108.04.025.1.038.16.038.08 0 .15-.033.215-.102.064-.067.096-.173.096-.317 0-.078-.01-.144-.024-.2-.015-.055-.04-.106-.078-.15-.037-.045-.085-.086-.144-.12-.06-.04-.13-.077-.22-.115-.115-.05-.216-.106-.3-.166-.085-.06-.156-.13-.21-.212-.06-.08-.1-.175-.128-.28-.027-.107-.04-.23-.04-.37 0-.34.07-.59.213-.757.142-.167.34-.25.587-.25.117 0 .224.017.322.05.096.034.18.09.252.163.07.077.125.17.165.29.04.115.06.255.06.42v.093h-.5c0-.163-.022-.29-.066-.376-.043-.088-.116-.132-.217-.132-.06 0-.108.014-.146.036-.04.023-.07.05-.094.09-.025.036-.04.078-.05.126-.01.05-.012.1-.012.15 0 .105.018.194.05.266.036.07.108.137.22.197l.403.23c.1.06.18.12.243.18.062.063.112.13.15.2.037.073.063.15.077.24.017.083.024.18.024.284 0 .36-.08.623-.237.787-.16.165-.38.247-.664.247-.295 0-.506-.086-.633-.255-.126-.17-.19-.41-.19-.727v-.14h.523v.1zm-39.816 0c0 .08.005.16.014.22.01.07.03.12.06.17.03.047.06.08.11.108.047.025.1.038.17.038.08 0 .15-.033.217-.102.064-.067.096-.173.096-.317 0-.078-.01-.144-.024-.2-.014-.055-.04-.106-.077-.15-.038-.045-.086-.086-.145-.12-.06-.04-.133-.077-.22-.115-.116-.05-.216-.106-.3-.166-.086-.06-.156-.13-.213-.212-.057-.08-.1-.175-.126-.28-.026-.107-.04-.23-.04-.37 0-.34.072-.59.215-.757.142-.167.338-.25.588-.25.117 0 .224.017.32.05.1.034.185.09.256.163.07.077.125.17.165.29.04.115.06.255.06.42v.093h-.5c0-.163-.023-.29-.066-.376-.047-.088-.12-.132-.22-.132-.06 0-.108.014-.146.036-.04.023-.07.05-.09.09-.024.036-.04.078-.048.126-.01.05-.013.1-.013.15 0 .105.016.194.05.266.034.07.106.137.22.197l.4.23c.1.06.18.12.243.18.065.063.115.13.15.2.04.073.066.15.08.24.015.083.02.18.02.284 0 .36-.08.623-.235.787-.157.165-.38.247-.66.247-.295 0-.506-.086-.633-.255-.126-.17-.19-.41-.19-.727v-.14h.523v.1zm30.552-2.45l.68 3.42h-.548l-.12-.72h-.69l-.12.72h-.544l.686-3.41h.645zm-16.84 3.42v-3.42h1.446v.57h-.925v.805h.87v.563h-.87v.92h.96v.563h-1.48zM27.1 35.77h.523v3.417h-.523v-3.42zm2.96.565h-.927v.804h.87v.564h-.87v.92h.962v.563h-1.48v-3.42h1.45v.566zm9.966-.564h.522v3.416h-.523v-3.42zm20.18 0c.217 0 .386.073.507.22.12.143.183.364.183.66 0 .23-.035.417-.105.56-.07.148-.18.24-.327.28v.01c.13.028.227.08.288.17.06.087.098.225.112.417.005.065.01.134.01.21l.008.25c.005.182.012.32.022.416.015.095.046.16.095.195v.03h-.566c-.026-.05-.043-.104-.05-.166-.008-.062-.013-.13-.015-.194l-.015-.655c-.005-.133-.03-.24-.077-.315-.048-.075-.125-.114-.234-.114h-.28v1.445h-.522v-3.42h.966zm-5.496 3.416V36.33h-.566v-.564H55.8v.565h-.567v2.85h-.52zM25.58 36.37c-.046-.112-.128-.17-.246-.17-.066 0-.12.024-.162.07-.042.047-.076.122-.1.225-.024.104-.04.24-.05.407-.01.168-.015.373-.015.615 0 .258.006.467.02.627.013.16.034.283.062.37.02.088.06.147.1.178.04.03.09.045.142.045.046 0 .09-.01.13-.03.04-.022.073-.063.102-.125.03-.063.05-.15.07-.264.015-.113.023-.262.023-.447h.523c0 .19-.01.37-.032.53-.02.17-.06.31-.12.44-.06.126-.142.22-.25.29-.107.07-.247.108-.42.108-.195 0-.35-.04-.467-.123-.114-.082-.203-.202-.265-.36-.06-.155-.1-.34-.12-.56-.016-.215-.025-.454-.025-.716 0-.26.01-.5.03-.717.02-.22.06-.405.12-.56.06-.158.15-.28.266-.367.116-.09.272-.133.468-.133.186 0 .334.04.44.12.11.08.19.18.243.303.054.124.087.257.1.4.014.14.02.274.02.4h-.522c0-.25-.023-.43-.067-.545zm9.11 0c-.045-.112-.127-.17-.246-.17-.065 0-.12.024-.16.07-.043.047-.077.122-.1.225-.025.104-.042.24-.052.407-.01.168-.014.373-.014.615 0 .258.006.467.02.627.013.16.034.283.06.37.03.088.064.147.107.178.042.03.09.045.147.045.046 0 .09-.01.13-.03.04-.022.073-.063.102-.125.03-.063.052-.15.07-.264.016-.113.024-.262.024-.447h.523c0 .19-.01.37-.03.53-.02.17-.06.31-.12.44-.06.126-.14.22-.25.29-.11.07-.25.108-.42.108-.19 0-.35-.04-.47-.123-.11-.082-.2-.202-.26-.36-.062-.155-.102-.34-.12-.56-.02-.215-.027-.454-.027-.716 0-.26.01-.5.027-.717.02-.22.057-.405.12-.56.06-.158.15-.28.266-.367.115-.09.27-.133.467-.133.187 0 .334.04.44.12.11.08.19.18.243.303.05.124.084.257.1.4.01.14.02.274.02.4h-.525c0-.25-.02-.43-.065-.545zm22.428 1.685c.01.16.026.292.05.392.027.1.063.174.11.22.047.047.11.07.187.07.078 0 .14-.023.187-.07.047-.046.084-.12.11-.22.024-.1.04-.23.05-.392.008-.16.013-.356.013-.586 0-.23-.005-.43-.013-.59-.01-.16-.025-.29-.05-.39-.026-.1-.063-.18-.11-.22-.047-.05-.11-.07-.187-.07s-.14.02-.187.07c-.047.04-.083.12-.11.22-.024.1-.04.23-.05.39-.008.16-.012.352-.012.582 0 .23.004.423.012.584zm-9.724 0c.008.16.025.292.05.392.026.1.062.174.11.22.047.047.11.07.187.07.08 0 .14-.023.19-.07.05-.046.09-.12.11-.22.03-.1.04-.23.05-.392.01-.16.02-.356.02-.586 0-.23-.004-.43-.013-.59-.007-.16-.024-.29-.05-.39-.025-.1-.06-.18-.11-.22-.046-.05-.11-.07-.185-.07-.077 0-.14.02-.186.07-.05.04-.084.12-.11.22-.025.1-.042.23-.05.39-.01.16-.013.352-.013.582 0 .23.005.423.014.584zm2.89.232h.012l.385-2.526h.55l-.595 3.42h-.67l-.597-3.41h.56l.366 2.527zm-7.502-.186h.007v-2.34h.48v3.42h-.6l-.64-2.39h-.01v2.39h-.48v-3.42h.602l.63 2.34zm-10.58 0h.007v-2.34h.47v3.42h-.597l-.638-2.39h-.01v2.39h-.48v-3.42h.605l.63 2.34zm13.263 0h.007v-2.34h.48v3.42h-.596l-.64-2.39h-.006v2.39h-.48v-3.42h.603l.632 2.34zm7.495-.21l-.25-1.53h-.007l-.25 1.54h.507zM9.642 35.93c-.443-.078-.88-.166-1.308-.263.33.686.674 1.314 1.02 1.88.53-.42 1.068-.896 1.604-1.415-.435-.058-.874-.123-1.316-.2zm50.353 1.33c.126 0 .223-.038.29-.116.068-.08.102-.21.102-.395 0-.32-.12-.477-.363-.477h-.247v.986h.218zm-45.257-.922c-.19.007-.382.01-.58.01-.74 0-1.506-.04-2.287-.112-.7.72-1.42 1.364-2.12 1.92 1.32 1.98 2.658 3.078 3.575 3.078.124 0 .243-.02.35-.06.748-.27 1.17-1.48 1.16-3.32 0-.48-.03-.985-.09-1.512zm-1.352-1.77c-.29.347-.583.68-.88 1 .562.043 1.114.064 1.653.064.16 0 .32-.004.48-.008-.1-.674-.25-1.376-.43-2.095-.267.35-.544.694-.83 1.04zm4.257-3.53c-.416-.24-.87-.464-1.357-.677-.43.798-.942 1.616-1.523 2.43.266.967.467 1.91.6 2.805 2.61-.17 4.398-.885 4.575-1.89.138-.782-.7-1.754-2.295-2.666zM13.98 32.65c-.168-.583-.36-1.17-.575-1.76-.22-.605-.45-1.177-.69-1.72-.588-.145-1.193-.274-1.813-.383-.62-.11-1.23-.196-1.832-.26-.42.435-.834.895-1.24 1.377-.403.48-.784.968-1.14 1.456.167.58.36 1.17.573 1.76.22.602.45 1.175.69 1.72.588.143 1.194.272 1.813.38.62.11 1.23.197 1.833.26.41-.434.83-.894 1.23-1.376.402-.48.784-.967 1.14-1.455zm36.647-.254c0 .18.01.345.027.495.017.15.05.28.098.39.048.11.113.2.197.26.08.066.18.097.31.097s.23-.03.31-.093c.08-.063.145-.15.193-.26.047-.11.08-.24.1-.39.015-.15.024-.313.024-.493v-4.97h1.09v4.965c0 .453-.05.827-.144 1.123-.095.296-.224.53-.385.703-.16.174-.346.29-.55.35-.208.06-.42.09-.644.09-.222 0-.437-.027-.643-.08-.207-.053-.39-.16-.552-.324-.16-.162-.29-.393-.385-.692-.095-.3-.143-.688-.143-1.167v-4.964h1.09v4.965zM6.165 32.1c-.417.614-.79 1.225-1.117 1.823.634.25 1.313.477 2.026.68-.168-.403-.33-.817-.484-1.24-.153-.423-.294-.844-.425-1.263zm34.727-4.674c.454 0 .807.152 1.06.454.252.303.378.763.378 1.38 0 .48-.074.87-.22 1.172-.146.303-.373.497-.68.583v.02c.272.054.47.17.597.35.126.18.204.468.235.867.01.133.017.277.022.433l.015.524c.01.37.02.66.04.86.03.2.09.333.192.41v.06h-1.18c-.055-.1-.09-.22-.106-.348-.015-.13-.025-.265-.03-.404l-.03-1.366c-.01-.277-.063-.496-.16-.656-.095-.16-.256-.24-.483-.24h-.58v3.01h-1.09v-7.12h2.01zm-10.695 0c.278 0 .51.062.7.185.19.13.342.29.458.49.116.2.2.43.25.686.05.256.075.517.075.783 0 .365-.042.685-.125.957-.083.274-.2.496-.348.67-.15.172-.33.3-.54.39-.213.084-.447.127-.704.127h-.583v2.843h-1.09v-7.12h1.907zm-5.226 0l1.43 7.12h-1.13l-.25-1.507h-1.44l-.25 1.5H22.2l1.43-7.12h1.346zm22.66 1.177h-1.18v5.942h-1.09v-5.942h-1.18v-1.177h3.45v1.177zm9.58-1.177c.454 0 .807.152 1.06.454.25.303.377.763.377 1.38 0 .48-.072.87-.22 1.172-.145.303-.37.497-.68.583v.02c.273.054.473.17.6.35.125.18.203.468.233.867.01.133.016.277.02.433l.015.524c.01.37.024.66.044.86.03.2.094.333.195.41v.06h-1.18c-.056-.1-.09-.22-.106-.348-.018-.13-.028-.265-.03-.404l-.03-1.366c-.01-.277-.067-.496-.16-.656-.098-.16-.26-.24-.487-.24h-.584v3.01h-1.09v-7.12h2.01zm6.724 1.177H62v1.675h1.814v1.176H62v1.914h2v1.177h-3.094v-7.12h3.018v1.178zm-30.2 5.942v-7.12h3.02v1.178h-1.93v1.675h1.815v1.176h-1.82v1.914h2.003v1.177H33.73zm-29.347-.897c.43-.797.943-1.614 1.524-2.43-.266-.965-.47-1.908-.6-2.803-2.61.168-4.4.885-4.575 1.89-.132.782.7 1.754 2.3 2.666.417.24.87.47 1.357.68zm7.21-1.427c-.124.7-.785 1.16-1.48 1.04-.693-.12-1.156-.78-1.034-1.48.12-.69.784-1.16 1.478-1.03.695.12 1.158.786 1.036 1.48zm2.912-.32c.416-.61.79-1.22 1.116-1.82-.63-.25-1.31-.47-2.02-.68.167.41.33.82.483 1.24.153.43.294.85.425 1.27zm10.322-.03l-.52-3.2h-.016l-.52 3.2h1.06zm5.04-1.214c.215 0 .39-.087.524-.26.135-.172.2-.442.2-.807 0-.36-.056-.63-.172-.818-.115-.186-.31-.28-.582-.28h-.453v2.164h.49zm10.56-.11c.26 0 .46-.08.603-.244.14-.163.21-.437.21-.823 0-.658-.257-.987-.76-.987h-.515v2.054h.453zm16.305 0c.268 0 .47-.08.61-.244.14-.163.21-.437.21-.823 0-.658-.25-.987-.754-.987h-.514v2.054h.453zm-49.442-1.1c.29-.343.583-.677.88-1-.562-.04-1.114-.06-1.653-.06-.164 0-.325.002-.485.006.1.673.245 1.376.426 2.095.268-.35.545-.7.834-1.042zm4.6-3.416c.47.762.922 1.613 1.344 2.535.967.25 1.885.55 2.726.88.235-.475.44-.94.604-1.39.638-1.724.655-3.007.046-3.517-.208-.173-.493-.26-.848-.26-.998 0-2.38.648-3.875 1.75zm-.856 2.056c.442.078.88.166 1.307.263-.33-.687-.674-1.315-1.02-1.88-.53.42-1.068.895-1.604 1.414.437.056.876.122 1.318.2zm-5.1-.41c.19-.005.384-.01.58-.01.743 0 1.51.04 2.29.114.707-.72 1.424-1.364 2.127-1.92-1.32-1.98-2.656-3.078-3.573-3.078-.124 0-.243.02-.352.06-.745.27-1.17 1.483-1.16 3.32 0 .48.034.987.09 1.514zm14.714 6.15c-.245 1.39-2.155 2.285-5.19 2.48.06.536.09 1.053.093 1.54.01 2.19-.57 3.61-1.633 3.998-.19.07-.39.104-.598.104-1.243 0-2.748-1.276-4.143-3.357-1.615 1.18-3.126 1.866-4.263 1.866-.526 0-.965-.144-1.305-.43-.865-.726-.924-2.26-.164-4.314.17-.46.376-.932.614-1.417-.494-.218-.96-.45-1.382-.692-1.9-1.086-2.84-2.3-2.643-3.412.245-1.39 2.154-2.282 5.19-2.48-.06-.533-.09-1.05-.093-1.54-.01-2.19.57-3.61 1.634-3.995.19-.07.39-.102.6-.102 1.24 0 2.746 1.278 4.142 3.36 1.614-1.18 3.125-1.866 4.26-1.866.53 0 .97.145 1.31.43.866.728.925 2.26.165 4.315-.17.46-.375.932-.613 1.417.495.217.96.45 1.383.69 1.9 1.087 2.84 2.3 2.645 3.413z" fill="#fff"/></svg>