<svg viewBox="0 0 64 64" xmlns="http://www.w3.org/2000/svg" fill-rule="evenodd" clip-rule="evenodd" stroke-linejoin="round" stroke-miterlimit="1.414"><path d="M49.466 34c.09 9.686 8.497 12.91 8.59 12.95-.07.228-1.343 4.593-4.43 9.103-2.667 3.9-5.435 7.783-9.796 7.864-4.286.08-5.664-2.542-10.563-2.542-4.898 0-6.43 2.46-10.485 2.62-4.21.16-7.416-4.215-10.105-8.1C7.18 47.95 2.98 33.442 8.62 23.65c2.802-4.863 7.81-7.942 13.243-8.022 4.134-.078 8.036 2.782 10.563 2.782 2.525 0 7.267-3.44 12.252-2.934 2.086.086 7.943.842 11.705 6.348-.303.188-6.99 4.08-6.917 12.177m-8.054-23.78c2.236-2.7 3.74-6.47 3.33-10.213-3.222.13-7.118 2.147-9.428 4.85-2.07 2.395-3.885 6.227-3.396 9.9 3.59.278 7.26-1.824 9.494-4.532" fill="#fff" fill-rule="nonzero"/></svg>