<svg viewBox="0 0 64 64" xmlns="http://www.w3.org/2000/svg" fill-rule="evenodd" clip-rule="evenodd" stroke-linejoin="round" stroke-miterlimit="1.414"><path d="M44.975 34.102c-.93-.24-.93-.25-.93-.76 0-.343.034-.507.8-.507.526 0 1.3.09 1.798.177.068.01.138-.005.194-.047.056-.04.092-.104.1-.173l.142-1.142c.01-.13-.07-.25-.2-.28-.58-.133-1.38-.22-2.04-.22-2.31 0-2.78.87-2.78 2.177 0 1.437.265 1.92 2.032 2.35 1.164.28 1.164.488 1.164.833 0 .453-.04.61-.8.61-.614 0-1.324-.096-1.948-.262-.07-.018-.14-.007-.2.03-.06.038-.103.1-.116.17L42 38.142c-.023.125.05.248.17.287.682.22 1.66.37 2.378.37 2.234 0 2.69-.94 2.69-2.34 0-1.55-.274-1.84-2.266-2.367zm-5.793 0c-.93-.24-.93-.25-.93-.76 0-.343.034-.507.8-.507.525 0 1.3.09 1.798.177.068.01.138-.005.194-.047.056-.04.092-.104.1-.173l.142-1.142c.016-.13-.068-.25-.195-.28-.57-.133-1.37-.22-2.03-.22-2.304 0-2.78.87-2.78 2.177 0 1.437.27 1.92 2.036 2.35 1.164.28 1.164.488 1.164.833 0 .453-.04.61-.8.61-.615 0-1.325-.096-1.95-.262-.07-.018-.14-.007-.2.03-.06.038-.103.1-.116.17l-.2 1.084c-.02.125.05.248.173.287.68.22 1.658.37 2.377.37 2.23 0 2.69-.94 2.69-2.34 0-1.55-.278-1.84-2.27-2.367zM18.677 28.85c-.033-.106-.13-.178-.242-.178h-2.368c-.11 0-.21.072-.243.177l-2.988 9.47c-.024.075-.01.16.037.225.048.065.124.103.205.103h1.63c.113 0 .212-.074.244-.18l2.058-6.97s.054-.175.24-.175c.19 0 .236.18.236.18l.955 3.306h-1.28c-.11 0-.21.076-.24.185l-.37 1.31c-.02.075 0 .16.04.22.05.063.13.1.21.1h2.184l.575 1.846c.032.105.13.177.24.177h1.63c.08 0 .158-.04.206-.105.05-.066.064-.15.04-.227l-2.99-9.48zm31.15 2.447h-1.5c-.14 0-.253.114-.253.254v6.86c0 .14.114.256.254.256h1.5c.14 0 .253-.113.253-.254v-6.86c0-.14-.11-.252-.25-.252zm-21.27-2.81h-1.5c-.14 0-.253.114-.253.254v9.67c0 .14.114.256.254.256h1.5c.14 0 .253-.113.253-.254v-9.67c0-.14-.11-.252-.25-.252zm33.72 2.663c-.793 0-1.876.274-2.79.704l-.11-.374c-.03-.11-.13-.183-.243-.183h-1.11c-.14 0-.254.114-.254.254v6.86c0 .14.113.256.253.256h1.5c.14 0 .254-.113.254-.254v-4.75c.54-.275 1.3-.56 1.753-.56.338 0 .463.126.463.464v4.84c0 .142.114.255.254.255h1.5c.14 0 .253-.113.253-.254V33.37c0-1.472-.58-2.22-1.722-2.22zM5.582 35.228c-.04-.04-.097-.083-.195-.083-.124 0-.198.086-.226.128-.7 1.07-1.06 2.08-1.11 3.094-.002.075.026.15.077.204.05.06.125.09.2.09H5.99c.144 0 .265-.11.275-.25.038-.49.19-.98.467-1.493.094-.18.02-.346-.036-.417-.275-.36-.612-.74-1.112-1.263zm27.838.73v.883c-.248.14-.698.33-1.24.33-.467 0-.61-.14-.61-.61 0-.45.088-.592.64-.592h1.21zm21.308 0v.883c-.25.14-.7.33-1.24.33-.468 0-.61-.14-.61-.61 0-.45.088-.592.64-.592h1.21zM25.782 37.2c-.01-.072-.05-.135-.11-.175-.06-.04-.133-.052-.203-.035-.27.066-.52.102-.72.102-.37 0-.54-.16-.54-.52V32.94h1.455c.14 0 .254-.114.254-.254V31.55c0-.14-.115-.253-.255-.253h-1.45V29.55c0-.075-.034-.144-.09-.193-.055-.048-.13-.07-.2-.06l-1.5.21c-.126.017-.22.124-.22.25v1.54h-.816c-.14 0-.254.114-.254.254v1.14c0 .14.12.256.26.256h.816v3.866c0 1.328.698 2 2.074 2 .39 0 1.056-.09 1.49-.24.115-.04.186-.157.167-.28l-.163-1.086zm6.63-6.048c-.76 0-1.682.12-2.353.306-.13.034-.21.157-.19.284l.173 1.09c.01.067.05.127.105.167.056.04.126.05.194.04.623-.12 1.267-.19 1.812-.19 1.08 0 1.254.23 1.254.96v.64h-1.6c-1.534 0-2.19.63-2.19 2.12 0 1.42.72 2.23 1.97 2.23.727 0 1.453-.2 2.063-.57l.065.233c.03.11.13.187.245.187h1.218c.14 0 .253-.112.253-.253v-4.56c0-1.96-.815-2.69-3.01-2.69zm21.308 0c-.76 0-1.683.12-2.353.306-.125.034-.204.157-.183.284l.176 1.09c.01.067.05.127.105.167.056.04.126.05.194.04.62-.12 1.26-.19 1.81-.19 1.08 0 1.25.23 1.25.96v.64h-1.6c-1.54 0-2.196.63-2.196 2.12 0 1.42.718 2.23 1.97 2.23.726 0 1.45-.2 2.06-.57l.065.233c.03.11.13.187.245.187h1.21c.14 0 .255-.112.255-.253v-4.56c0-1.96-.815-2.69-3.01-2.69zm-41.394-2.62c-.05-.037-.108-.056-.167-.056-.04 0-.07.006-.1.018-.6.227-1.2.4-1.75.527-.11.03-.208.11-.24.21-.4 1.1-1.43 2.15-2.5 3.24-.04.04-.1.1-.2.1s-.16-.05-.2-.093c-1.08-1.095-2.1-2.137-2.5-3.235-.04-.1-.13-.184-.24-.21-.55-.13-1.16-.306-1.75-.533-.03-.01-.068-.017-.1-.017-.06 0-.118.02-.167.056-.076.056-.115.15-.106.24.09.913.452 1.806 1.103 2.74.613.88 1.41 1.695 2.183 2.482 1.42 1.45 2.765 2.82 2.883 4.41.01.142.13.253.272.253h1.67c.076 0 .148-.03.2-.085.052-.054.08-.127.075-.202-.053-1.062-.453-2.126-1.223-3.252-.16-.235-.33-.465-.512-.69-.073-.09-.042-.204.014-.262L9.14 34c.773-.785 1.57-1.6 2.184-2.48.65-.933 1.01-1.82 1.103-2.733.01-.093-.033-.19-.107-.247zm-4.95.82c.523 0 .827-.033.933-.033.12 0 .25.1.25.25 0 .04-.01.07-.02.1-.07.184-.39.852-.98 1.425-.07.064-.14.076-.19.076-.05 0-.13-.012-.197-.076-.59-.573-.906-1.24-.975-1.427-.01-.03-.02-.06-.02-.103 0-.146.123-.252.252-.252.107 0 .41.03.934.03h.002zm42.45-.863H48.33c-.14 0-.254.11-.254.25v1.32c0 .14.114.254.254.254h1.5c.14 0 .253-.114.253-.254v-1.33c0-.14-.113-.252-.253-.252zM14.68 25.34c-.066-.09-.17-.14-.28-.14-.056 0-.112.012-.16.04-2.05 1.12-4.423 1.713-6.867 1.714-2.443 0-4.817-.594-6.865-1.715-.05-.03-.105-.04-.16-.04-.11 0-.215.05-.28.14-.097.12-.1.34.065.47 1.025.76 2.156 1.36 3.36 1.77 1.25.42 2.554.64 3.88.64 1.327 0 2.632-.22 3.88-.64 1.205-.41 2.336-1.01 3.363-1.77.164-.13.16-.35.064-.48z" fill="#fff"/></svg>