<svg viewBox="0 0 64 64" xmlns="http://www.w3.org/2000/svg" fill-rule="evenodd" clip-rule="evenodd" stroke-linejoin="round" stroke-miterlimit="1.414"><path d="M19.568 32c3.183-1.885 5.228-4.653 5.228-8.78 0-4.412-2.62-10.244-13.587-10.244-5.32 0-11.21.197-11.21.197v40.862h9.35c11.9 0 18.2-4.386 18.2-12.69 0-4.942-3.11-8.21-7.99-9.346zm-8.29 16.338H6.635v-30.1c.065 0 2.083-.026 3.34-.026 5.18 0 8.053 2.68 8.134 6.356.05 2.233-.62 4.374-2.89 5.95-1.86 1.288-4.45 1.672-4.45 1.672v.97s3.59.534 5.41 1.386c3.39 1.584 4.4 4.047 4.42 7.23.03 5.034-4.82 6.562-9.34 6.562zM56.023 9.965c4.407 0 7.976 3.57 7.976 7.973 0 4.403-3.57 7.974-7.98 7.974-4.4 0-7.97-3.57-7.97-7.974s3.57-7.973 7.97-7.973zm0 1.17c-3.757 0-6.802 3.046-6.802 6.803 0 3.758 3.05 6.805 6.81 6.805s6.81-3.047 6.81-6.805c0-3.757-3.04-6.803-6.8-6.803zm-18.24 22.942c4.656-1.61 7.988-5.323 7.988-10.837 0-1.38-.7-4.734-3.23-6.897-1.67-1.426-4.09-3.113-11.9-3.302-1.61-.03-6.52.14-6.52.14v.28c1.39 1.06 2.88 2.82 3.598 4.84.747-.02 1.877-.08 2.993-.02 3.137.17 4.503.76 5.916 1.87 1.423 1.12 2.187 3.037 2.178 4.77-.01 2.37-1.133 4.828-4.56 6.22-2.77 1.13-6.123 1.38-6.123 1.38l-.005.868s2.008.96 4.014 3.614c1.725 2.284 11.76 17.05 11.76 17.05h8.283S38.77 35.384 37.79 34.08zm21.445-12.91v-7.982l-8.028 2.88v1.984l2.658-.97v6l5.37-1.92z" fill="#fff"/></svg>