<svg viewBox="0 0 64 64" xmlns="http://www.w3.org/2000/svg" fill-rule="evenodd" clip-rule="evenodd" stroke-linejoin="round" stroke-miterlimit="1.414"><path d="M51.925 45.055c-.422 0-.76.298-.76.298S44.338 50.76 32 50.76s-19.165-5.407-19.165-5.407-.338-.298-.76-.298c-.503 0-.98.338-.98 1.084 0 .07.008.15.022.23 1.06 5.67 1.834 9.69 1.97 10.3C14.012 60.85 22.172 64 32 64s17.99-3.148 18.914-7.32c.135-.61.91-4.635 1.97-10.306.013-.077.02-.156.02-.235 0-.75-.476-1.09-.98-1.09zM32 0C16.74 0 4.278 4.104 4.278 9.197c0 1.342 3.33 20.58 4.65 28.21.59 3.423 9.433 8.44 23.065 8.44l.014-.04v.04c13.632 0 22.475-5.017 23.067-8.44 1.32-7.63 4.648-26.868 4.648-28.21C59.722 4.104 47.262 0 32 0zm0 39.666c-4.867 0-8.812-3.946-8.812-8.812 0-4.867 3.945-8.812 8.812-8.812 4.867 0 8.812 3.945 8.812 8.812 0 4.866-3.945 8.812-8.812 8.812zm4.408-8.815c0 2.44-1.977 4.42-4.416 4.42-2.44 0-4.417-1.97-4.417-4.41 0-2.44 1.977-4.41 4.417-4.41 2.44 0 4.416 1.98 4.416 4.42zm-4.413-18.81c-9.805-.01-17.75-1.72-17.747-3.8.003-2.08 7.955-3.76 17.76-3.75 9.804.02 17.75 1.72 17.747 3.81-.003 2.09-7.955 3.77-17.76 3.75z" fill="#fff"/></svg>