<svg viewBox="0 0 64 64" xmlns="http://www.w3.org/2000/svg" fill-rule="evenodd" clip-rule="evenodd" stroke-linejoin="round" stroke-miterlimit="1.414"><path d="M17.707 34.623c.61-.328.843-.797.843-1.5v-.983c0-1.405-.843-2.108-2.623-2.108h-3.56c-.14 0-.235.094-.235.234v9.182c0 .14.094.234.235.234h3.84c1.687 0 2.67-.843 2.67-2.296v-.983c0-.843-.42-1.5-1.17-1.78zm3.653-2.06h-1.452c-.14 0-.234.092-.234.233v6.652c0 .14.094.234.234.234h1.452c.14 0 .235-.094.235-.234v-6.652c0-.14-.094-.234-.235-.234zm34.898-.142c-1.967 0-2.95.99-2.95 2.82v1.828c0 1.873.983 2.763 3.044 2.763.843 0 1.733-.14 2.483-.42.093-.05.187-.142.14-.282l-.234-1.03c0-.047-.04-.14-.09-.14-.04-.047-.14-.047-.18-.047-.656.187-1.31.28-1.92.28-1.078 0-1.265-.327-1.265-1.077v-.234h3.607c.14 0 .234-.09.234-.233V35.33c-.047-1.966-.937-2.903-2.86-2.903zm-25.716 5.72c-.375 0-.656 0-.937-.04v-3.61c.42-.187.983-.375 1.405-.375.562 0 .796.235.796.75v2.108c0 .797-.187 1.17-1.264 1.17zm33.305.14c0-.04-.047-.14-.094-.18-.047-.048-.14-.048-.187-.048-.28.047-.515.094-.703.094-.374 0-.515-.14-.515-.514v-3.52h1.405c.14 0 .235-.094.235-.235V32.8c0-.14-.094-.235-.235-.235h-1.405v-1.687c0-.093-.047-.14-.094-.187-.046-.04-.14-.04-.187-.04l-1.452.188c-.14 0-.234.14-.234.236v1.5h-.79c-.14 0-.23.09-.23.233v1.077c0 .14.094.232.234.232h.797v3.748c0 1.266.656 1.92 2.015 1.92.376 0 1.03-.092 1.45-.233.096-.046.19-.14.14-.28l-.14-.984zm-37.053 0c0-.04-.047-.14-.093-.18-.04-.048-.14-.048-.18-.048-.232.047-.513.094-.7.094-.374 0-.515-.14-.515-.514v-3.52h1.4c.14 0 .236-.094.236-.235V32.8c0-.14-.094-.235-.234-.235h-1.4v-1.687c0-.093-.047-.14-.093-.187-.047-.04-.14-.04-.19-.04l-1.45.188c-.14 0-.235.14-.235.236v1.5h-.797c-.14 0-.232.09-.232.233v1.077c0 .14.092.232.232.232h.796v3.748c0 1.266.657 1.92 2.015 1.92.376 0 1.03-.092 1.45-.233.097-.046.19-.14.14-.28l-.14-.984zm19.44-.09c0-.044-.047-.14-.094-.19-.046-.042-.14-.042-.187-.042-.422.093-.843.14-1.265.14-.937 0-1.17-.234-1.17-1.03v-1.92c0-.797.28-1.03 1.17-1.03.234 0 .75.045 1.265.14.047 0 .14 0 .187-.048.047-.046.094-.093.094-.186l.187-1.123c0-.14-.04-.233-.18-.28-.56-.19-1.22-.234-1.59-.234-2.2 0-3.09.8-3.09 2.766v1.874c0 1.967.89 2.763 3.09 2.763.517 0 1.126-.093 1.594-.234.14-.047.187-.14.187-.28l-.186-1.078zM14.1 38h1.733c.75 0 1.03-.187 1.03-.796V36.5c0-.61-.234-.844-.89-.844h-.608c-.14 0-.235-.093-.235-.234v-1.17c0-.14.094-.235.235-.235h.327c.61 0 .844-.234.844-.797v-.843c0-.328-.094-.656-.844-.656H14.1V38zm26.326-5.433h-1.453c-.14 0-.234.093-.234.234v4.59c-.52.28-1.27.567-1.69.567-.33 0-.47-.143-.47-.47V32.8c0-.14-.09-.235-.24-.235h-1.45c-.14 0-.233.095-.233.236v4.87c0 1.41.562 2.158 1.686 2.158.75 0 1.826-.28 2.716-.7l.09.373c.05.094.14.188.235.188h1.077c.14 0 .233-.093.233-.233V32.8c-.046-.093-.14-.233-.28-.233zm12.6 6.698l-1.92-3.184 1.873-3.14c.04-.09.04-.182 0-.23-.05-.093-.14-.14-.24-.14h-1.59c-.098 0-.19.047-.24.14l-1.78 3.09v-5.72c0-.14-.092-.232-.233-.232h-1.45c-.14 0-.234.093-.234.234v9.32c0 .14.093.23.234.23h1.458c.14 0 .234-.094.234-.234V36.35l1.873 3.186c.048.096.14.143.188.143h1.595c.14 0 .234-.098.234-.238.046-.096.046-.14 0-.19zm2.202-3.98v-.235c0-.703.328-.984 1.03-.984.797 0 .937.376.937.985v.24h-1.967zm-23.703-2.86c-.702 0-1.452.19-1.92.377v-2.67c0-.14-.094-.233-.234-.233h-1.45c-.14 0-.23.09-.23.23v9.27c0 .14.098.235.19.235.89.14 1.97.233 2.578.233 2.718 0 3.28-1.175 3.28-2.908v-2.01c0-1.686-.75-2.53-2.202-2.53zm-11.617-.84c-.14 0-.234-.095-.234-.235v-1.27c0-.142.094-.235.234-.235h1.452c.14 0 .235.14.235.234v1.26c0 .14-.094.23-.235.23h-1.452zm3.842-5.763c-.328-.092-.328-.092-.328-.28 0-.14 0-.187.28-.187.188 0 .47.046.656.046h.094l.047-.043.04-.422c0-.046-.05-.092-.05-.092-.188-.046-.516-.093-.75-.093-.844 0-.984.326-.984.794 0 .515.093.703.75.843.42.095.42.19.42.28 0 .143 0 .237-.28.237-.234 0-.47-.048-.703-.095h-.094l-.047.043-.095.375c0 .046 0 .093.045.093.188.14.563.234.797.234.796 0 .984-.327.984-.843 0-.562-.095-.702-.798-.89zm-2.11 0c-.326-.092-.326-.092-.326-.28 0-.14 0-.187.28-.187.188 0 .47.046.656.046h.047l.047-.043.047-.422c0-.046-.04-.092-.09-.092-.18-.046-.51-.093-.75-.093-.84 0-.98.326-.98.794 0 .515.097.703.75.843.42.095.42.19.42.28 0 .143 0 .237-.28.237-.23 0-.47-.048-.7-.095h-.092l-.046.043-.093.375c0 .046 0 .093.047.093.33.14.657.234.938.234.798 0 .986-.327.986-.843-.05-.562-.14-.702-.845-.89zm8.34-1.03c-.282 0-.656.094-1.03.235l-.048-.14c0-.046-.047-.046-.094-.046h-.42c-.048 0-.095.05-.095.097v2.484c0 .045.047.09.094.09h.562c.04 0 .09-.046.09-.093V25.68c.18-.094.47-.188.65-.188.14 0 .19.047.19.188v1.733c0 .047.045.094.092.094h.56c.047 0 .094-.047.094-.094v-1.83c-.048-.562-.235-.796-.656-.796zm-4.497.048h-.563c-.046 0-.093.046-.093.093v2.484c0 .045.047.092.093.092h.563c.046 0 .093-.05.093-.1v-2.48c0-.048-.047-.094-.093-.094zM17.8 23.81h-.562c-.047 0-.093.046-.093.093v3.514c0 .045.046.092.093.092h.562c.047 0 .094-.05.094-.1V23.9c0-.048-.047-.095-.094-.095zm-3.56.14c0-.047-.047-.047-.093-.047h-.844c-.046 0-.093.048-.093.048l-1.078 3.42v.098c0 .048.047.048.094.048h.61c.046 0 .093-.047.093-.047l.74-2.53s0-.047.093-.047c.047 0 .094.045.094.045l.327 1.17h-.468c-.048 0-.095.047-.095.047l-.14.47v.094s.048.045.094.045h.796l.19.655c0 .046.048.046.095.046h.61c.047 0 .047 0 .094-.048v-.095l-1.126-3.38zm4.825 2.997c.234 0 .375-.045.47-.092v-.375h-.47c-.187 0-.234.094-.234.234 0 .187.05.235.23.235h.01zm-2.248 0c0-.045 0-.045-.047-.045h-.094c-.094.045-.187.045-.28.045-.14 0-.188-.045-.188-.186V25.4h.515c.047 0 .094-.046.094-.093v-.373c0-.048-.047-.094-.094-.094h-.515v-.656c0-.047 0-.047-.047-.047 0 0-.04-.046-.09 0l-.56.095c-.043 0-.09.046-.09.093v.563h-.28c-.047 0-.093.046-.093.093v.43c0 .046.046.092.093.092h.28v1.407c0 .467.235.7.75.7.14 0 .375-.05.515-.094.187-.093.187-.093.187-.14l-.046-.422zm9.977 0c.234 0 .375-.045.47-.092v-.375h-.47c-.187 0-.234.094-.234.234 0 .187.046.235.23.235h.004zm-7.588-2.153c-.28 0-.61.048-.844.094-.046 0-.093.045-.046.092l.046.375c0 .048 0 .048.047.048h.04c.23-.046.47-.046.653-.046.375 0 .47.095.47.33v.233h-.564c-.56 0-.796.232-.796.75 0 .513.28.794.705.794.28 0 .515-.093.75-.187v.093c0 .048.046.048.093.048h.42c.048 0 .095-.047.095-.094v-1.6c0-.702-.28-.936-1.08-.936zm7.682 0c-.28 0-.61.048-.843.094-.047 0-.094.045-.047.092l.047.375c0 .048 0 .048.047.048h.046c.235-.046.47-.046.656-.046.375 0 .47.095.47.33v.233H26.7c-.562 0-.796.232-.796.75 0 .513.28.794.703.794.28 0 .515-.093.75-.187l.046.093c0 .048.047.048.094.048h.42c.048 0 .095-.047.095-.094v-1.6c-.047-.702-.328-.936-1.124-.936zm-1.405-.983h-.563c-.046 0-.093.05-.093.098v.47c0 .046.047.093.093.093h.563c.046 0 .093-.05.093-.095v-.47c0-.047-.047-.094-.093-.094zM8.198 36.92c-.094 0-.14.048-.14.048s-1.172.937-3.28.937c-2.108 0-3.28-.936-3.28-.936s-.093-.05-.14-.05c-.093 0-.187.047-.187.187v.047c.19.985.33 1.688.33 1.78.14.704 1.55 1.266 3.23 1.266 1.69 0 3.1-.563 3.24-1.266 0-.092.14-.795.33-1.78v-.046c.048-.093 0-.187-.092-.187zm-3.42-7.73C2.155 29.19 0 29.894 0 30.784c0 .234.562 3.56.796 4.87.094.61 1.64 1.453 3.982 1.453 2.342 0 3.84-.843 3.982-1.452.234-1.31.796-4.637.796-4.87-.047-.89-2.155-1.594-4.778-1.594zm0 6.84c-.843 0-1.5-.655-1.5-1.5 0-.84.657-1.497 1.5-1.497s1.5.656 1.5 1.5c0 .795-.657 1.498-1.5 1.498zm0-2.294c.414 0 .75.336.75.75 0 .413-.336.75-.75.75s-.75-.337-.75-.75c0-.414.336-.75.75-.75zm0-2.483c-1.686 0-3.045-.28-3.045-.656 0-.375 1.36-.656 3.045-.656 1.686 0 3.045.28 3.045.658 0 .375-1.36.656-3.045.656z" fill="#fff"/></svg>