<svg viewBox="0 0 64 64" xmlns="http://www.w3.org/2000/svg" fill-rule="evenodd" clip-rule="evenodd" stroke-linejoin="round" stroke-miterlimit="1.414"><path d="M16.19 35.037c.614 0 1.04.303 1.04.945 0 .786-.486 1.407-1.298 1.407-.62 0-1.022-.33-1.022-.97 0-.757.488-1.39 1.28-1.39zm-1.854.713c-.005-.19-.112-.302-.345-.302-.21 0-.37.06-.37.22 0 .1.078.16.28.224l.31.1c.33.107.588.262.588.637 0 .55-.55.76-1.062.76-.434 0-.95-.18-.95-.7v-.09h.57v.07c0 .2.23.3.44.3.187 0 .39-.065.39-.27 0-.154-.086-.2-.22-.244l-.47-.15c-.306-.1-.484-.22-.484-.57 0-.527.557-.71.99-.71.486 0 .92.14.913.714h-.57zm9.257 1.303l-.01-.01c-.137.243-.396.346-.668.346-.535 0-.85-.35-.85-.88 0-.74.393-1.48 1.217-1.48.26 0 .53.11.625.36h.01l.245-1.15h.613l-.652 3.08h-.59l.06-.277zm8.744-2.016c.612 0 1.04.303 1.04.945 0 .786-.488 1.407-1.3 1.407-.62 0-1.022-.33-1.022-.97 0-.757.488-1.39 1.282-1.39zm14.837.713c-.005-.19-.113-.302-.345-.302-.22 0-.38.06-.38.22 0 .1.07.16.28.224l.3.1c.328.107.587.262.587.637 0 .55-.548.76-1.06.76-.437 0-.95-.18-.95-.7v-.09h.57v.07c0 .2.23.3.44.3.185 0 .39-.065.39-.27 0-.154-.088-.2-.22-.244l-.47-.15c-.308-.1-.486-.22-.486-.57 0-.527.557-.71.99-.71.486 0 .92.14.913.714h-.57zm5.475-.652h.58l-.09.4.01.01c.13-.307.44-.47.76-.47.064 0 .124.004.19.013l-.126.6c-.087-.01-.173-.04-.26-.04-.47 0-.638.36-.72.74l-.208.99h-.613l.468-2.232zm-22.84 0h.58l-.09.4.01.01c.14-.307.44-.47.77-.47.06 0 .12.004.19.013l-.13.6c-.087-.01-.17-.04-.26-.04-.47 0-.64.36-.72.74l-.208.99h-.614l.466-2.232zm-9.77 0h.58l-.07.31h.01c.2-.245.46-.37.78-.37.423 0 .652.212.652.6 0 .09-.048.306-.065.384l-.277 1.307h-.613l.273-1.31c.016-.07.038-.21.038-.27 0-.14-.15-.23-.292-.23-.37 0-.56.31-.628.62l-.25 1.18h-.613l.465-2.23zm-9.39 0h.58l-.09.4.01.01c.14-.307.44-.47.77-.47.062 0 .122.004.19.013l-.128.6c-.088-.01-.174-.04-.26-.04-.47 0-.64.36-.72.74l-.208.99h-.614l.466-2.232zm-10.01-.85h1.3c.615 0 1 .134 1 .72 0 .35-.217.674-.58.717v.01c.294.076.458.327.458.624 0 .66-.56 1.01-1.173 1.01H0l.647-3.08zm41.522.85h.582l-.09.4.01.01c.135-.307.44-.47.765-.47.063 0 .123.004.19.013l-.127.6c-.086-.01-.17-.04-.26-.04-.47 0-.637.36-.72.74l-.207.99h-.61l.467-2.232zm9.36 1.16c-.158.09-.34.096-.52.11-.233.024-.453.08-.453.36 0 .17.16.252.335.252.38 0 .504-.264.573-.506l.06-.215zm-3.19.104c-.007.056-.007.095-.007.13 0 .26.16.435.49.435.248 0 .37-.164.46-.305h.613c-.195.5-.514.767-1.156.767-.596 0-.993-.34-.993-.98 0-.71.47-1.38 1.23-1.38.62 0 1.04.33 1.04.974 0 .12-.013.24-.035.35h-1.64zm-4.337 0c-.003.056-.003.095-.003.13 0 .26.16.435.492.435.244 0 .365-.164.456-.305h.616c-.193.5-.513.767-1.155.767-.596 0-.993-.34-.993-.98 0-.71.47-1.38 1.23-1.38.62 0 1.04.33 1.04.974 0 .12-.012.24-.034.35H44zm-28.04.565c.457 0 .655-.56.655-.936 0-.29-.13-.49-.447-.49-.45 0-.65.56-.65.93 0 .27.15.5.44.5zm-12.41-.565c-.003.056-.003.095-.003.13 0 .26.16.435.49.435.246 0 .367-.164.457-.305H5.1c-.195.5-.515.767-1.157.767-.598 0-.995-.34-.995-.98 0-.71.47-1.38 1.23-1.38.62 0 1.04.33 1.04.974 0 .12-.01.24-.032.35H3.55zm5.032 0c-.005.056-.005.095-.005.13 0 .26.16.435.49.435.248 0 .368-.164.46-.305h.612c-.195.5-.514.767-1.157.767-.594 0-.99-.34-.99-.98 0-.71.47-1.38 1.23-1.38.62 0 1.04.33 1.04.974 0 .12-.01.24-.034.35h-1.64zm14.092.07c0 .267.145.495.434.495.46 0 .675-.56.675-.945 0-.284-.144-.483-.44-.483-.463 0-.67.53-.67.93zm9.43.495c.456 0 .655-.56.655-.936 0-.29-.13-.49-.45-.49-.447 0-.645.56-.645.93 0 .27.15.5.44.5zm23.44-1.057c0-.263-.143-.37-.41-.37-.467 0-.627.56-.627.944 0 .267.112.483.423.483.272 0 .427-.193.496-.413h.613c-.186.556-.574.875-1.152.875-.62 0-.993-.31-.993-.96 0-.76.46-1.4 1.26-1.4.55 0 .99.24 1.01.832h-.612zm-20.146 1.46h-.587l.07-.312h-.01c-.198.246-.46.37-.78.37-.423 0-.652-.21-.652-.598 0-.09.048-.307.065-.384l.28-1.308h.618l-.27 1.308c-.018.064-.04.21-.04.272 0 .134.15.228.294.228.37 0 .56-.31.625-.62l.25-1.188h.613l-.465 2.23zm-16.145 0h-.588l.07-.312h-.01c-.198.246-.46.37-.78.37-.424 0-.652-.21-.652-.598 0-.09.05-.307.07-.384l.28-1.308h.61l-.27 1.308c-.02.064-.04.21-.04.272 0 .134.15.228.295.228.37 0 .56-.31.625-.62l.25-1.188h.612l-.464 2.23zm7.504-2.232h.44l-.095.41h-.437l-.228 1.11c-.01.046-.018.086-.018.102 0 .16.117.164.208.164.073 0 .146-.004.22-.013l-.104.48c-.124.018-.254.02-.383.02-.285 0-.59-.09-.582-.45 0-.053.013-.13.03-.21l.25-1.194h-.4l.094-.41h.39l.14-.68h.612l-.138.68zm-18.952 0h.44l-.095.41H7.71l-.227 1.11c-.01.046-.018.086-.018.102 0 .16.117.164.207.164.074 0 .147-.004.22-.013l-.103.48c-.126.018-.255.02-.385.02-.285 0-.59-.09-.583-.45 0-.053.014-.13.03-.21l.25-1.194h-.4l.094-.41h.393l.137-.68h.613l-.13.68zm-1.458 0h.44l-.095.41h-.437l-.23 1.11c-.007.046-.015.086-.015.102 0 .16.11.164.2.164.07 0 .144-.004.22-.013l-.106.48c-.125.018-.255.02-.384.02-.284 0-.59-.09-.58-.45 0-.053.012-.13.03-.21l.25-1.194h-.4l.093-.41h.393l.137-.68h.613l-.136.68zM36.46 36.34c0 .264.13.493.415.493.44 0 .652-.47.652-.85 0-.28-.143-.484-.44-.484-.41 0-.626.48-.626.84zm-35.696.462h.85c.306 0 .53-.168.53-.496 0-.324-.29-.35-.535-.35H.94l-.18.846zm48.662-.827c0-.23-.056-.476-.414-.476-.345 0-.518.22-.61.47h1.024zm-4.333 0c0-.23-.056-.476-.414-.476-.35 0-.52.22-.61.47h1.02zm-40.45 0c0-.23-.058-.476-.415-.476-.346 0-.518.22-.61.47h1.024zm5.03 0c0-.23-.057-.476-.415-.476-.345 0-.518.22-.608.47h1.022zm40.562-.2c.078-.56.553-.738 1.057-.738.397 0 .936.087.928.588 0 .094-.022.237-.048.375l-.198.898c-.022.078-.03.216-.03.3 0 .04.008.092.02.13h-.61v-.22c-.17.19-.433.28-.683.28-.48 0-.72-.274-.72-.586 0-.426.33-.694.86-.76.58-.067.85-.037.85-.323 0-.22-.233-.28-.388-.28-.22 0-.414.102-.453.326h-.576zm9.02-1.526c.368 0 .65.28.65.65s-.282.64-.65.64c-.375 0-.653-.278-.653-.65 0-.37.278-.65.652-.65zM1.04 35.49h.768c.246 0 .457-.138.457-.405 0-.235-.138-.317-.358-.317H1.19l-.15.72zm58.216-.052c.308 0 .542-.233.542-.542 0-.31-.236-.548-.544-.548-.313 0-.545.237-.545.547 0 .31.23.542.54.542zm-21.38 1.77c-.15.678-.492.96-1.23.96-.453 0-.953-.192-.953-.727h.612c-.008.23.203.32.402.32.388 0 .5-.34.62-.77l-.008-.01c-.16.21-.37.314-.62.314-.53 0-.86-.362-.86-.91 0-.65.41-1.347 1.125-1.347.306 0 .557.108.682.403h.01l.067-.345h.588l-.445 2.115zm18.784-2.96h.614l-.23 1.107h.01c.095-.13.337-.32.738-.32.423 0 .652.213.652.6 0 .09-.048.307-.065.385l-.28 1.308h-.62l.27-1.31c.02-.065.04-.21.04-.27 0-.135-.15-.23-.294-.23-.37 0-.56.31-.625.62l-.25 1.188h-.61l.64-3.08zm-17.845 0h.613l-.23 1.107h.01c.095-.13.337-.32.738-.32.423 0 .652.213.652.6 0 .09-.048.307-.065.385l-.277 1.307h-.612l.27-1.31c.02-.067.04-.21.04-.27 0-.137-.15-.23-.293-.23-.37 0-.56.31-.62.62l-.25 1.186h-.61l.644-3.08zm-11.223 0h.613l-.23 1.107h.01c.094-.13.336-.32.738-.32.422 0 .65.213.65.6 0 .09-.047.307-.064.385l-.28 1.307h-.62l.27-1.31c.02-.067.04-.21.04-.27 0-.137-.15-.23-.292-.23-.37 0-.56.31-.626.62l-.25 1.186h-.613l.642-3.08zm31.784.715l.18.285h-.14l-.173-.27h-.114v.27H59v-.7h.307c.12 0 .212.09.212.204v.032c0 .09-.06.156-.15.18zm-.247-.083h.16c.05 0 .11-.03.11-.088v-.035c0-.06-.05-.107-.11-.107h-.17v.226zm-37.9-9.03h-9.28l-3.6 6.24H.014v1.243H17.11c.622 0 1.212-.324 1.54-.89.328-.566.843-1.463 1.064-1.847.22-.386-.013-.877-.423-1.005.61 0 1.22-.35 1.51-.87.3-.51.77-1.34 1.04-1.81.28-.46-.06-1.06-.6-1.06zm25.864 0l-4.317 7.482h10.47l.72-1.242H47.89l1.084-1.876h6.075l.72-1.245H49.69l1.084-1.88h11.4v-1.24H47.1zm-14.17 0h-8.21c-.596 0-1.213.32-1.533.872-.32.55-2.924 5.067-3.207 5.557-.288.49.1 1.05.61 1.05h8.224c.663 0 1.245-.38 1.534-.88.29-.5 2.93-5.076 3.205-5.55.274-.48-.08-1.058-.62-1.058zm3.48 0c-.66 0-1.23.38-1.52.88-.29.503-1.105 1.923-1.4 2.425-.293.504.092 1.06.61 1.06h4.853l-.87 1.507c-.14.24-.37.367-.62.367h-.754c-.25 0-.356-.28-.266-.44.09-.17.29-.5.29-.5h-4.4l-.634 1.1c-.3.514.1 1.074.6 1.074h8.22c.657 0 1.237-.356 1.55-.9.313-.546 1.05-1.83 1.367-2.376.32-.546-.083-1.086-.59-1.086h-4.85l.896-1.556c.103-.18.337-.327.6-.327h.755c.25 0 .35.27.275.41-.075.14-.302.53-.302.53h4.394l.66-1.14c.244-.426-.06-1.04-.62-1.04H36.41zm-20.1 4.804c-.11.193-.483.834-.63 1.088-.145.253-.392.348-.603.348h-2.33l1.085-1.876h2.226c.23 0 .366.247.257.44zm12.486-3.12c-.12.202-2.302 3.988-2.423 4.2-.12.213-.36.355-.613.355h-.764c-.244 0-.356-.27-.262-.44.095-.16 2.303-3.99 2.437-4.22.13-.238.39-.348.603-.348h.766c.22 0 .372.24.253.443zm-10.686-.002c-.11.194-.487.834-.63 1.087-.15.25-.397.34-.608.34h-2.33l1.084-1.878h2.223c.23 0 .364.25.255.44zm45.24-1.706c.37 0 .65.28.65.65s-.28.647-.65.647c-.38 0-.657-.275-.657-.646 0-.37.277-.65.65-.65zm0 1.194c.31 0 .54-.233.54-.542 0-.31-.237-.547-.545-.547-.314 0-.548.24-.548.55 0 .31.235.54.547.54zm.12-.477l.18.284h-.14l-.176-.27h-.114v.27h-.12v-.698h.308c.12 0 .212.08.212.2v.03c0 .09-.058.15-.15.18zm-.25-.083h.167c.056 0 .11-.03.11-.09v-.034c0-.056-.05-.102-.11-.102h-.165v.226z" fill="#fff"/></svg>