<svg viewBox="0 0 64 64" xmlns="http://www.w3.org/2000/svg" fill-rule="evenodd" clip-rule="evenodd" stroke-linejoin="round" stroke-miterlimit="1.414"><path d="M31.552 40.075c-.042-.012-1.226-.338-2.194-.338-1.13 0-1.74.376-1.74.91 0 .678.825.912 1.286 1.062l.777.24c1.83.58 2.66 1.82 2.66 3.18 0 2.79-2.453 3.73-4.61 3.73-1.49 0-2.89-.275-3.03-.306V46c.25.063 1.43.413 2.658.413 1.393 0 2.04-.406 2.04-1.038 0-.565-.558-.888-1.256-1.107-.17-.055-.424-.133-.6-.194-1.564-.49-2.866-1.41-2.866-3.25 0-2.08 1.56-3.477 4.148-3.477 1.37 0 2.654.33 2.74.35v2.377zm26.687 3.03c0 3.183-2.46 5.762-5.88 5.762-3.428 0-5.878-2.58-5.878-5.76 0-3.177 2.45-5.756 5.875-5.756 3.42 0 5.873 2.58 5.873 5.76zM18.1 48.67h2.807V37.55H18.1v11.12zm25.434-7.933c-.114-.06-1.017-.597-2.363-.597-1.81 0-3.07 1.266-3.07 2.97 0 1.65 1.21 2.967 3.07 2.967 1.33 0 2.25-.522 2.37-.59v2.985c-.35.098-1.31.397-2.56.397-3.152 0-5.92-2.18-5.92-5.76 0-3.33 2.506-5.76 5.924-5.76 1.32 0 2.295.32 2.56.4v2.98zm-29.29 0c-.112-.06-1.015-.597-2.36-.597-1.815 0-3.075 1.266-3.075 2.97 0 1.65 1.2 2.967 3.07 2.967 1.32 0 2.23-.522 2.36-.59v2.985c-.35.098-1.31.397-2.56.397-3.15 0-5.92-2.18-5.92-5.76 0-3.33 2.5-5.76 5.92-5.76 1.32 0 2.29.32 2.56.4v2.98zm38.122-.552c-1.668 0-2.906 1.31-2.906 2.923 0 1.618 1.238 2.926 2.906 2.926 1.66 0 2.898-1.308 2.898-2.926 0-1.613-1.237-2.923-2.898-2.923zM48.702 16.52c0-.764-.62-1.386-1.388-1.386-.77 0-1.39.622-1.39 1.387v14.77c0 .77.62 1.39 1.39 1.39.767 0 1.388-.62 1.388-1.39V16.52zm-30.608 0c0-.764-.627-1.386-1.393-1.386s-1.39.622-1.39 1.387v14.77c0 .77.63 1.39 1.4 1.39.767 0 1.394-.62 1.394-1.39V16.52zM64 25.595c0-.764-.62-1.385-1.386-1.385-.77 0-1.392.62-1.392 1.384v2.92c0 .772.62 1.395 1.392 1.395.766 0 1.387-.63 1.387-1.4v-2.92zm-30.608 0c0-.764-.628-1.385-1.387-1.385-.77 0-1.392.62-1.392 1.384v2.92c0 .772.622 1.395 1.392 1.395.76 0 1.387-.63 1.387-1.4v-2.92zm-30.606 0c0-.764-.625-1.385-1.393-1.385-.766 0-1.393.62-1.393 1.384v2.92c0 .772.627 1.395 1.393 1.395.768 0 1.393-.63 1.393-1.4v-2.92zm7.653-3.832c0-.764-.63-1.388-1.4-1.388-.77 0-1.396.624-1.396 1.388v6.753c0 .77.625 1.394 1.393 1.394.765 0 1.393-.624 1.393-1.395v-6.753zm15.3 0c0-.764-.62-1.388-1.39-1.388-.77 0-1.4.624-1.4 1.388v6.753c0 .77.63 1.394 1.392 1.394.77 0 1.39-.624 1.39-1.395v-6.753zm15.3 0c0-.764-.623-1.388-1.396-1.388-.765 0-1.385.624-1.385 1.388v6.753c0 .77.62 1.394 1.384 1.394.773 0 1.395-.624 1.395-1.395v-6.753zm15.306 0c0-.764-.62-1.388-1.403-1.388-.765 0-1.385.624-1.385 1.388v6.753c0 .77.62 1.394 1.384 1.394.785 0 1.405-.624 1.405-1.395v-6.753z" fill="#fff"/></svg>