<svg viewBox="0 0 64 64" xmlns="http://www.w3.org/2000/svg" fill-rule="evenodd" clip-rule="evenodd" stroke-linejoin="round" stroke-miterlimit="1.414"><path d="M9.224 35.113c0 .632-.512 1.145-1.144 1.145-.632 0-1.144-.513-1.144-1.145 0-.63.512-1.144 1.144-1.144.632 0 1.144.51 1.144 1.14zm19.84 1.127c-1.71 0-2.83-1.324-2.83-3.025 0-1.914 1.364-3.004 2.8-3.004.998 0 1.477.49 1.66.68v-2.37h1.69v7.54h-1.61v-.61c-.16.23-.566.79-1.696.794h-.014zm-9.47-3.025c0-1.374.988-2.993 3.045-2.993 2.05 0 3.04 1.62 3.04 3.004 0 1.385-.99 3.004-3.05 3.004s-3.046-1.62-3.046-3.004v-.01zM62.31 28.52H64v7.537h-1.69V28.52zm-22.278 1.885h1.588v.63c.163-.304.458-.824 1.436-.824v1.71h-.06c-.866 0-1.274.317-1.274 1.11v3.036h-1.69V30.41zM59.68 28.52h1.69v7.537h-1.69V28.52zm-24.69 5.296c.072.6.642.998 1.304.998.54 0 .825-.234 1.03-.53h1.73c-.275.632-.673 1.12-1.15 1.447-.47.34-1.03.51-1.61.51-1.62 0-2.994-1.31-2.994-2.99 0-1.58 1.242-3.03 2.963-3.03.866 0 1.61.337 2.14.898.712.764.926 1.67.793 2.71H34.99zm19.23-.56c0 .52.388 1.416 1.406 1.416.6 0 .968-.285 1.18-.632.144-.224.215-.468.235-.723.03-.254-.03-.51-.14-.743-.18-.387-.57-.784-1.28-.784-.962 0-1.39.814-1.39 1.456v.01zm-26.296-.04c0 .865.62 1.446 1.415 1.446.4 0 .78-.163 1.04-.428.264-.265.42-.632.396-1.05 0-.406-.16-.753-.417-.997-.255-.255-.61-.397-1.008-.397-.98 0-1.437.763-1.437 1.415v.01zm-8.85.692c-.306 1.283-1.436 2.332-2.963 2.332-1.71 0-3.02-1.344-3.02-3.025 0-1.66 1.298-3.004 2.99-3.004 1.497 0 2.71.99 2.994 2.38h-1.71c-.184-.384-.52-.79-1.223-.79-.396-.02-.732.132-.977.397-.236.266-.368.63-.368 1.04 0 .825.54 1.436 1.344 1.436.703 0 1.04-.41 1.222-.754h1.72zm2.21-.672c0 .815.62 1.415 1.355 1.415.73 0 1.35-.6 1.35-1.42s-.62-1.42-1.36-1.42-1.356.6-1.356 1.426v.01zm22.622-2.83h1.752l.865 3.512.927-3.513h1.425l.958 3.513.845-3.513h1.74l-1.73 5.652H49.12l-.967-3.656-.948 3.66h-1.568l-1.73-5.65zM9.224 31.998c0 .632-.512 1.144-1.144 1.144-.632 0-1.144-.512-1.144-1.145 0-.632.512-1.145 1.144-1.145.632 0 1.144.513 1.144 1.144zm-3.468-.01c0 .63-.512 1.143-1.144 1.143-.632 0-1.144-.51-1.144-1.14s.512-1.14 1.144-1.14c.632 0 1.144.51 1.144 1.144zm31.78.543c-.04-.26-.387-.89-1.263-.89-.875 0-1.22.63-1.262.9h2.53zm21.196 3.53h-1.69v-.61c-.306.55-1.01.806-1.67.806-1.793 0-2.84-1.405-2.84-3.024 0-1.854 1.332-3.015 2.84-3.015.926 0 1.446.45 1.67.796v-.6h1.69v5.65zM5.756 28.89c0 .63-.512 1.142-1.144 1.142-.632 0-1.144-.512-1.144-1.144s.512-1.145 1.144-1.145c.632 0 1.144.514 1.144 1.146zm-3.468 0c0 .63-.512 1.142-1.144 1.142C.512 30.03 0 29.518 0 28.886s.512-1.145 1.144-1.145c.632 0 1.144.52 1.144 1.15zm6.936 0c0 .63-.512 1.142-1.144 1.142-.632 0-1.144-.512-1.144-1.144s.512-1.145 1.144-1.145c.632 0 1.144.514 1.144 1.146z" fill="#fff"/></svg>