<svg viewBox="0 0 64 64" xmlns="http://www.w3.org/2000/svg" fill-rule="evenodd" clip-rule="evenodd" stroke-linejoin="round" stroke-miterlimit="1.414"><path d="M31.997 0C49.67 0 64 14.328 64 32c0 17.668-14.33 32-32.003 32C14.327 64 0 49.668 0 32 0 14.328 14.328 0 31.997 0zm0 3.46c-7.88 0-15.013 3.196-20.178 8.36C6.65 16.986 3.453 24.12 3.453 32c0 7.88 3.195 15.015 8.36 20.18 5.166 5.165 12.3 8.36 20.18 8.36 7.882 0 15.017-3.195 20.18-8.36 5.168-5.165 8.36-12.3 8.36-20.18 0-7.88-3.192-15.014-8.36-20.18-5.163-5.164-12.298-8.36-20.18-8.36zM51.61 34.608h4.782v4.026h-9.588V24.867h4.805v9.74zm-34.75-2.86c0-1.872-1.237-2.928-2.984-2.928h-1.072v5.857h1.044c1.624 0 3.01-.89 3.01-2.93zm19.08 2.102l-7.902 6.213-7.223-5.68c-1.042 2.503-3.552 4.248-6.46 4.248h-6.17V24.87h6.172c3.244 0 5.577 2.05 6.454 4.25l7.23-5.68 2.68 2.105-6.62 5.205 1.268.997 6.62-5.204 2.677 2.104-6.62 5.207 1.27 1 6.626-5.203v-4.78h4.806v9.74h4.783v4.03h-9.59v-4.79z" fill="#fff"/></svg>