<svg viewBox="0 0 64 64" xmlns="http://www.w3.org/2000/svg" fill-rule="evenodd" clip-rule="evenodd" stroke-linejoin="round" stroke-miterlimit="1.414"><path d="M20.635 30.84c-.28.38-.748 1.037-1.032 1.422-.145.195-.406.55.46.55h4.557l1.35-1.835c.838-1.137.073-3.502-2.922-3.502H11.255L9.21 30.253h11.145c.563 0 .555.214.28.587zm-3.348 2.657c-.866 0-.605-.355-.46-.55.285-.385.76-1.037 1.04-1.416.275-.37.283-.58-.28-.58H12.49l-4.107 5.58h10.015c3.307 0 5.15-2.25 5.717-3.026h-6.828zm6.515 3.028h5.875l2.227-3.028H26.03c-.002 0-2.228 3.028-2.228 3.028zm15.158-9.05l-2.254 3.06h-2.622l2.253-3.06h-5.873l-3.93 5.337h14.37l3.928-5.337H38.96zm-6.66 9.05h5.87l2.23-3.027h-5.873c-.002 0-2.228 3.027-2.228 3.027zM0 34.692v.643h8.182l.473-.643H0zm9.534-1.195H0v.643h9.06l.474-.643zM0 36.525h7.305l.47-.64H0v.64zm55.378-1.19H64v-.643h-8.148l-.474.643zm-.876 1.19H64v-.64h-9.027l-.47.64zm2.228-3.028l-.473.644H64v-.64h-7.27zm-7.693-.685l3.93-5.337h-6.22c-.003 0-3.933 5.337-3.933 5.337h6.223zm-6.727.685l-.638.87c-.737.996-.085 2.158 2.322 2.158h9.432l2.23-3.027H42.31z" fill="#fff" fill-rule="nonzero"/></svg>