<svg viewBox="0 0 64 64" xmlns="http://www.w3.org/2000/svg" fill-rule="evenodd" clip-rule="evenodd" stroke-linejoin="round" stroke-miterlimit="1.414"><path d="M56.874 34.92h2.537c1.84 0 3.33-1.487 3.33-3.323 0-1.835-1.49-3.323-3.32-3.323-1.834 0-3.322 1.488-3.322 3.323l-.015 8.547h-1.22l-.016-8.9c.18-2.37 2.16-4.236 4.575-4.236 2.535 0 4.59 2.055 4.59 4.59 0 2.533-2.055 4.588-4.59 4.588h-2.54V34.92zm-18.402-7.91c2.534 0 4.59 2.055 4.59 4.59 0 2.533-2.056 4.588-4.59 4.588s-4.59-2.055-4.59-4.59c0-2.533 2.056-4.588 4.59-4.588zm10.387 0c2.53 0 4.58 2.055 4.58 4.59 0 2.533-2.056 4.588-4.59 4.588s-4.59-2.055-4.59-4.59c0-2.533 2.055-4.588 4.59-4.588zM31 23.858h1.4V36.12h-1.395V23.856zm-16.328 3.01c1.8 0 3.343 1.037 3.973 2.502.343.798.245 1.64.245 2.477v4.23h-1.33v-5.603c0-.062-.003-.1-.014-.158-.25-1.332-1.433-2.34-2.855-2.34-1.38 0-2.55.963-2.83 2.25-.02.113-.04.17-.04.282v5.57h-1.34V31.61c-.032-.902-.022-1.872.44-2.67.73-1.235 2.14-2.073 3.76-2.073zM4.564 36.17C2.044 36.17 0 34.127 0 31.607c0-2.52 2.044-4.564 4.564-4.564 2.214 0 4.06 1.576 4.476 3.667l.012.065.01.045.01.07.006.04c.004.027.008.053.01.08l.005.03.01.09.002.02.01.098v.014l.007.106v.007l.005.113v.252l-.004.076v.003H1.22c.11 1.75 1.565 3.14 3.344 3.14 1.27 0 2.376-.71 2.944-1.75l1.116.48c-.757 1.465-2.286 2.47-4.05 2.474h-.01zm20.335 0c-2.52 0-4.57-2.043-4.57-4.563 0-2.52 2.04-4.564 4.56-4.564 2.212 0 4.06 1.576 4.475 3.667l.012.065.007.045.014.07.006.04c.004.027.01.053.01.08l.005.03.01.09.002.02.01.098v.014l.007.106v.007l.005.113v.252l-.007.076v.003h-7.9c.11 1.75 1.563 3.14 3.342 3.14 1.27 0 2.374-.71 2.942-1.75l1.114.48c-.756 1.465-2.285 2.47-4.048 2.474h-.01zm13.57-7.896c1.83 0 3.32 1.488 3.32 3.323 0 1.836-1.49 3.324-3.327 3.324s-3.324-1.48-3.324-3.32c0-1.83 1.49-3.32 3.324-3.32zm10.38 0c1.834 0 3.323 1.488 3.323 3.323 0 1.836-1.49 3.324-3.324 3.324-1.836 0-3.325-1.48-3.325-3.32 0-1.83 1.49-3.32 3.324-3.32zm-47.51 2.39h6.43c-.407-1.39-1.693-2.408-3.216-2.408-1.52 0-2.808 1.017-3.215 2.408zm20.334 0h6.43c-.407-1.39-1.69-2.408-3.215-2.408s-2.81 1.017-3.216 2.408z" fill="#fff"/></svg>