<svg viewBox="0 0 64 64" xmlns="http://www.w3.org/2000/svg" fill-rule="evenodd" clip-rule="evenodd" stroke-linejoin="round" stroke-miterlimit="1.414"><path d="M23.622 47.345zm-.058-.056v-.01zm-.054-.06h-.002.002zm-.05-.05h-.003.002zm-.048-.05h-.002.002zm-.03-.03l-.06-.06.06.06zm-.11-.12l-.016-.02h.002l.015.01zm-.057-.06l-.012-.02h.002l.01.01zm-.042-.05l-.007-.01.007.01zM11.913 42l-.02-.02.003.004.016.015zm-.026-.024l-.016-.015.01.01.01.01zm-.055-.052l-.015-.014.01.01.005.004zm-.043-.04l-.07-.065.04.04.02.02zm-.08-.073l-.09-.08-.09-.08.17.17zm-.3-.3l-.1-.1.08.09.01.01zm47.7-2.28zm-.05-.01h-.01zm-.06-.01h-.01.01zm-.06-.01h-.01l.01.01zm-.06-.01h-.01l.01.007zm-.18-.05zm-.13-.045zm-.06-.026h-.01.007zm-.03-.015h-.01.01zm-.03-.014l-.008-.003h.004zm-.02-.03V39v.002zm-.038-.015zm-.12-.06zm-.027-.014h-.01l.01.01zm-.03-.01h-.01v.006zm-.03-.02h-.02l.004.01zm-.03-.02h-.02v.007l.004.006zm-.04-.02h-.01v.007l.004.007zm-.03-.02l-.02-.01.007.01.008.01zm-.03-.02l-.02-.01.01.01.002.01zm-.03-.02l-.02-.01.01.01h.002zm-.03-.02l-.01-.01.01.01zm-.03-.02l-.02-.01.012.01zm-.03-.02l-.03-.02.03.026zm1.51-1.88zm-.047-.04h.004zm-.05-.04l-.007-.01.005.005h.007zm-.05-.046l-.01-.01h.004l.01.01zm-.05-.05l-.01-.01h.002l.004.01zm-.054-.05l-.01-.01.01.01zm-.06-.06l-.01-.006.007.01zm-.11-.113l-.02-.02.014.01v.007zm-.05-.057l-.02-.02.016.014.003.006zm-.05-.056l-.04-.043.04.048zm-.045-.05l-.04-.048.04.047zm-.05-.06l-.016-.016h.01l.01.015zm-.026-.028l-.01-.018.01.017zm-.01-.02l-.02-.025-.018-.02.016.02.02.02zm-.04-.053l-.016-.013.013.017v.004zm-.024-.03l-.01-.01.01.013h.006zm-.02-.023l-.01-.014.01.01zm-.02-.03l-.01-.013.01.01.004.007zm-.02-.03L58.66 36l.008.01h.002zm-.02-.03l-.01-.012.008.01.003.01zm-.02-.03l-.01-.01.01.004.005.01zm-.014-.024l-.01-.02.003.003.003.01zm-.02-.03l-.01-.02h.005l.005.01zm-.015-.03l-.01-.018v.01l.01.01zm-.02-.03l-.006-.017.006.01zm-33.555 12.7c1.23.922 3.04 2.004 5.32 2.614 5.23 1.4 10.545.296 14.06-2.184 5.483-3.86 6.825-8.45 7.276-11.24l-.043.01c-1 .14-1.84-.23-1.84-.23-.27.16-1.96.906-2.17.97-.204.07-1.105.54-2.074.138-.97-.408-.72-1.738-.383-2.41.335-.68 1.06-1.24 1.15-1.42.09-.18-.05-.36-.05-.36-1.104-.59-1.48-1.17-1.48-1.17l.428-.29c.08.2 1.41 1.21 1.523 1.163.118-.044.16-.2.16-.34 0-.132.315-.56.34-.132.02.43-.27.97-.27.97-.41.34-1.24 1.42-1.47 2.03-.223.608-.132 1.51.927 1.53 1.06.025 2.095-.493 3.154-1.102 1.06-.61 1.6-.54 1.8-.54.2 0 .338.38-.045.403-.387.02-.79.27-.79.27 1.22.495 3.04-.48 3.04-.48 1.283-.52 2.772.32 3.155.61s1.395 1.13 2.185 1.42c.787.29 1.26.16 1.37.05.11-.11.204-.52-.043-.81-.25-.297-.9-.86-1.287-1.06-.38-.205-.835-1.06-.835-1.06-.315.043-.27-.137-.27-.137.79-.764 1.554-.674 2.096-.652.54.02 1.96.38 2.41.338.45-.045 1.216-.203 1.284-.654.06-.45-.43-.77-.95-1.105-.52-.34-3.2-.81-3.72-.946-.52-.14-1.108-.386-1.108-.386-.29.766.274 1.15.274 1.15-.45.067-1.17-.563-.34-2.096.84-1.537 2.59-2.777 2.93-3.02.34-.25.88-.66.77-1.15-.114-.5-.86-.5-1.985-.117-1.12.385-3.29 1.647-4.162 2.165-.88.515-1.85.79-1.85.79-.587.18-1.377.197-1.377.197.07-.114.407-.18.655-.27.244-.09.63-.206.63-.206l-.05-.11c-.52-.07-1.376.065-1.67.18-.29.11-.697.156-.697.156-.27.025-.28-.19-.28-.19-.032-.135.406-.27.406-.27l-.027-.4-.01.004v-.02l.36-.226-23.66 14.97-.03.018.615-.39.01.005v.006c4.82 2.705 7.62 2.496 8.25 2.54.63.045 0 .316 0 .316-3.56.312-7.48-1.716-7.48-1.716-.34.9-1.33 2.075-1.6 2.346-.27.275-.835.59-1.286.88-.44.286-.93.84-.968.88-.106-.077-.21-.15-.31-.227zM59.6 32.57l-.05-.01.03.006h.02zm-.115-.026l-.04-.01.022.007.017.01zm-.128-.03l-.038-.006.02.006.01.004zm-.14-.03l-.052-.013.035.01.02.01zm-.115-.03l-.08-.02.03.01.05.012zm-.52-.137zm-.07-.03h.005zm-.072-.03l-.01-.003h.004l.007.002zm-.076-.024l-.01-.006.01.007zm-.07-.03l-.015-.003.01.007zm-.076-.023l-.017-.004h.01l.01.007zm-.076-.024l-.016-.005.01.01zm-.075-.026l-.014-.005.01.004zm-3.34-2.957zm.09-.053l.062-.035-.01.003-.06.037zm.165-.095l.055-.03-.01.005-.046.024zm.166-.093l.05-.03-.01.007-.04.02zm.17-.096l.044-.023-.013.008-.03.02zm.166-.09l.04-.024-.02.01-.03.015zm.164-.092l.04-.024-.02.01-.02.012zm.17-.094l.037-.02-.02.01-.02.01zm.17-.09l.035-.02-.02.01-.018.007zm.17-.09l.033-.02-.02.012-.01.005zm.166-.09l.036-.02-.025.013-.006.004zm.168-.09l.037-.02-.03.017-.01.005zm.165-.087l.045-.024-.04.02h-.008zm.16-.085l.135-.066-.13.066zm.16-.08l.17-.085-.166.085zm.38-.194l.22-.11-.14.07-.08.04zm.29-.143l.26-.13-.185.09-.078.04zM26.7 25.8c.046.134.654.81 1.307.765.654-.04 1.015-.58 1.105-.94.09-.36-.248-.113-.248-.113-.992.81-1.78.38-1.938.22-.113-.112-.27-.066-.226.07zm1.127-2.12c.45-.045.902-.63.88-1.352-.024-.72-.43-1.51-1.015-1.51-.63 0-.946.7-.924 1.488.022.788.608 1.42 1.06 1.374zm.992-6.107c-.5.74-1.29.2-1.29.2-.12-.07-.29.07-.21.2.09.14.54.7 1.03.61.49-.09.72-.58.72-.9 0-.31-.27-.11-.27-.11zm.99-4.17c-.07 1.04.2 1.1.45 1.12 0 0 .52.03.52-.83 0-.85.11-.74.2-.74.09 0 .09.52.25.52.09 0 .09-.18.07-.292 0 0-.12-.81-.68-.81 0 0-.75 0-.81 1.04zm-3.29-1.34s-.7.12-.63 1c.06.88.33 1.08.67 1.02.34-.07.47-.45.34-1.012 0 0-.21-.54-.03-.61.18-.06.24.52.38.43.08-.05.02-.2.02-.2s-.16-.72-.77-.61zm8.77-.49l-.01-.01v.01zm-.02-.04l-.02-.07.02.07zm-.03-.08l-.02-.07.02.07zm-.03-.08l-.02-.07.02.07zm-8.63-1.41c-.49.15-.99.86-.99 1.106 0 .24.29.4.44.13 0 0 .16-.52.84-1.15.07-.11 0-.18-.29-.09zm4.93 1.264s.23.135.32.045c.09-.09-.03-.27-.03-.27s-.54-.77-.97-1.084l-.21-.044-.383.22.023.14s.81.495 1.24.99zm3.68.075l-.02-.067v.03l.01.04zm-.02-.08l-.02-.06.01.054zm-.03-.123l-.01-.02v.01zm-.06-.28l-.01-.01v.007h.004zm-.02-.08v-.01.01zm-.016-.08v-.01.004l.004.005zm-13.23 3.39c.09-.146.194-.376.27-.56l.034-.08c-.08.194-.2.47-.303.634zm24.19 8.87l-.39.25c-4.53-2.89-7.95-2.02-7.95-2.02-.54 3.65-2.84 4.82-2.84 4.82.313-.224 1.95-2.324 2.21-4.46.246-2.05-.86-3.765-1.13-4.193-.36-.57-.847-1.663-.847-1.663-.677-1.533-.26-2.027-.28-3.65-.02-1.738-1.398-3.2-1.398-3.2.36.043 1.15 1.012 1.15 1.012 0-.227.11-.656.76-.81.456-.11 1.31-.256 1.896-.436s1.054-.49 1.19-1.03c.135-.54-.36-.58-.587-.45-.22.14-.63.23-.63.23-.38.045-.22.18-.22.18l.313.375c-.88.07-1.856-.825-2.3-1.95-.402-1.036-1.35-.99-1.35-.99-1.67-.046-3.74 1.45-3.965 1.58-.43.25-.135.356-.135.356.63.047 1.125.227 1.125.227-2.208.09-4.056.63-5.274 1.53-1.214.9-2.16 3.79-2.16 3.79-.27.63-.87 1.836-.87 1.836-.315.495-.84 1.18-1.474 1.856-.63.68-2.34 2.84-2.34 4.87 0 2.03 2.254 4.6 2.48 4.912.225.317.27.72.27.72-.676-.763-1.34-1.332-1.34-1.332s-.936.41-1.77 1.28c-.62.643-1.17 1.63-1.667 2.305-.497.673-1.894 1.83-1.894 1.83-.495.45-1.487 1.323-1.85 1.73-.36.403-1.08.99-1.08.99l.9.36c-.36.45-2.66-.405-4.324-1.35-1.666-.95-3.65-1.986-3.65-1.986-1.76-.77-3.09-.838-3.74-.63-.49.15-.496.72 0 .9.495.18 1.893.673 2.388 1.124.5.45.86 1.17.995 1.44s-.09.18-.09.18c-.45-.586-.768-.81-.768-.81-.994.63-2.57 1.98-2.57 1.98-.68 1.04.54.768.54.768 2.66-.54 3.875 1.036 3.875 1.036s.09.4-.137.18c-.23-.23-1.04-.59-1.04-.59-.09.81-.813 1.08-1.31 1.94-.494.85.497.9.81.72.32-.18.86-.365 1.265-.5.403-.13.043-.4.043-.4.5-.226 2.707 1.31 3.61 1.623.9.32.45-.36.45-.36 1.032.14 3.11 2.66 3.65 2.978.54.31.99.13.99.13.36-.63-.09-1.44-.09-1.44-.836-1.55.36-1.94.36-1.94-.18.275-.318.95-.318.95 1.4-.36 2.617-1.034 3.29-1.62.68-.59 1.49-1.13 1.49-1.13 2.164-1.24 3.65-1.08 3.83-1.08.18 0 .07.247.07.247l-.55.058.71 1.685 24.533-15.51-.865.54zM59.51 39.3c-.094.508-.204 1.01-.33 1.506l-.07.264c0 .007-.003.013-.004.018-.05.193-.11.397-.17.61l-.09.292c-.01.02-.015.05-.023.072-3.02 9.675-11.78 16.82-22.3 17.434-2.672.1-5.445-.245-8.425-.98 0 0-.92-.214-2.324-.76-7.02-2.82-12.456-8.74-14.62-16.06-.1-.386-.136-.6-.136-.6l.23.24-.07-.105c-.765-.9-1.734-1.53-1.734-1.53-.25.32-1.287.16-2.008-.27-.72-.43-2.12-1.17-2.12-1.17-1.12.61-1.91.82-1.91.82-1.26.157-1.19-.474-1.213-.97-.02-.5.945-1.262 1.22-1.51.27-.25.29-.68.29-.68-.61-.36-1.31-.16-2.438-.07s-1.42-.9-.676-1.662c.74-.765 2.54-1.893 2.54-1.893-1.107-.852-1.42-.67-2.57-1.26-1.07-.55-.27-1.49-.27-1.49 1.663-.63 3.01-.28 5.61 1.14 2.19 1.2 3.85 1.95 4.3 2.15.15-1.83.46-3.537.913-5.145 1.743-6.01 5.693-11.084 10.914-14.29l.06-.035.094-.057.13-.08v.01s.375-.563.556-.946c.18-.38.135-1.124 1.17-2.77 1.04-1.644 1.963-1.824 2.797-2.21.83-.38 2.05-.403 2.05-.403-.027-.09.04-.36.04-.36.586-.63 2.59-1.69 3.404-1.916.81-.223 1.76-.074 1.76-.074.86.07 1.105.936 1.376 1.546.27.608.9 1.014.9 1.014.496.065 1.35-.5 1.42-.52.07-.02.45.044.79.25.337.2.11.942-.273 1.55-.383.61-1.915.86-2.433.97-.46.1-.72.29-.777.33l-.108.01v.04h.05c11.114 0 20.53 7.28 23.734 17.33-.1.05-.43.21-.878.433.54-.272.91-.45.91-.45l-.02-.04c1.08-.49 1.505-.6 1.91-.644.43-.05.775.2 1.044.513.275.32.16 1.06-.47 1.6-.553.476-1.553 1.277-1.785 1.46l-.01-.03.007.024c.01.043.038.146.07.297.14.79.245 1.59.31 2.4-.03-.004-.11-.02-.23-.045l.24.05v-.04c2.878.554 3.014.84 3.35.975.337.138.81.79.766 1.24-.046.45-.564.77-.903.906-.34.136-1.33.05-2.14-.11-.49-.093-.84-.134-1.04-.15v-.014s.01.12.01.3c-.02.46-.05.92-.1 1.372l.02.01v-.007c1.08 1.026 1.014 1.32.837 1.854-.106.31-.686.35-1.16.33l.003-.02-.016-.01z" fill="#fff"/></svg>