<svg viewBox="0 0 64 64" xmlns="http://www.w3.org/2000/svg" fill-rule="evenodd" clip-rule="evenodd" stroke-linejoin="round" stroke-miterlimit="1.414"><path d="M23.622 47.345zm-.058-.056v-.01zm-.054-.06h-.002.002zm-.05-.05h-.003.002zm-.048-.05h-.002.002zm-.03-.03l-.06-.06.06.06zm-.11-.116l-.016-.018.002.002.015.014zm-.057-.06l-.012-.014h.002l.01.013zm-.042-.048l-.007-.01.007.01zM11.913 42l-.02-.02.003.004.016.015zm-.026-.024l-.016-.015.01.01.01.01zm-.055-.052l-.015-.014.01.01.005.004zm-.043-.04l-.07-.065.042.04.02.02zm-.08-.073l-.09-.08-.084-.08.17.17zm-.3-.3l-.1-.1.083.09.012.01zm47.7-2.28zm-.05-.01l-.01-.002h.006zm-.057-.014l-.01-.003h.01zm-.056-.015l-.01-.002.01.003zm-.058-.016l-.01-.003.01.004zm-.18-.057zm-.123-.043zm-.06-.026h-.005.007zm-.03-.012l-.007-.002h.006l.004.002zm-.032-.013l-.004-.003h.005zM58.44 39l-.006-.002.005.002zm-.033-.015zm-.122-.06h-.002.002zm-.026-.014h-.01l.01.01zm-.03-.01l-.01-.005v.005zm-.03-.02l-.02-.004h.003l.007.007zm-.03-.02l-.02-.003.003.004.007.003zm-.04-.02l-.01-.003.004.004.006.004zm-.03-.02l-.014-.01.007.01.006.006zm-.03-.02l-.015-.01.01.01.003.005zm-.03-.02l-.015-.01.01.01h.003zm-.03-.02l-.01-.01.012.01h.003zm-.03-.02l-.017-.01.015.01zm-.03-.02l-.028-.023.03.023zm1.516-1.88zm-.047-.04l-.005-.007.004.003zm-.05-.046l-.007-.01.003.005.005.002zm-.05-.046l-.01-.01.004.003.007.008zm-.05-.048l-.01-.01h.002l.007.01zm-.054-.05l-.01-.013v.002l.01.01zm-.058-.058l-.008-.007.005.01zm-.11-.114l-.02-.016.014.012v.005zm-.05-.054l-.02-.02.016.016.003.006zm-.05-.054l-.04-.043.04.044zm-.045-.05l-.042-.048.043.048zm-.052-.06l-.012-.016.01.003.01.012zm-.022-.028l-.01-.017v.003l.01.015zm-.01-.02l-.02-.024-.017-.02.018.02.02.023zm-.04-.052l-.015-.018.014.015v.003zm-.023-.03l-.013-.016.01.013.004.004zm-.022-.028l-.01-.016.01.01v.006zm-.02-.03l-.01-.015.007.01.005.006zm-.02-.03l-.01-.016.006.01.005.006zm-.02-.028l-.01-.016.006.007.006.01zm-.02-.03l-.01-.015.007.005.006.01zm-.016-.028l-.01-.016.002.005.006.01zm-.02-.03l-.01-.015h.004l.006.01zm-.016-.03l-.01-.013v.01l.01.01zm-.02-.03l-.005-.012v.002l.006.01zM25.025 48.53c1.233.926 3.04 2.008 5.324 2.618 5.23 1.397 10.547.293 14.062-2.187 5.483-3.86 6.825-8.45 7.276-11.24l-.047.01c-1 .14-1.84-.23-1.84-.23-.27.158-1.96.903-2.17.97-.205.068-1.106.54-2.075.135-.97-.405-.72-1.735-.383-2.41.337-.677 1.06-1.24 1.15-1.42.09-.18-.047-.36-.047-.36-1.102-.587-1.476-1.17-1.476-1.17l.427-.29c.08.2 1.41 1.21 1.525 1.166.114-.045.157-.202.157-.34 0-.133.317-.56.34-.133.022.43-.27.97-.27.97-.407.338-1.24 1.42-1.466 2.03-.226.607-.135 1.51.924 1.53 1.06.024 2.096-.494 3.155-1.103 1.058-.61 1.6-.54 1.802-.54.2 0 .336.38-.047.403-.382.023-.79.27-.79.27 1.22.496 3.044-.477 3.044-.477 1.285-.52 2.774.32 3.157.61s1.397 1.127 2.187 1.42c.787.29 1.26.157 1.372.045.11-.11.202-.517-.045-.81-.25-.294-.903-.856-1.287-1.06-.38-.202-.835-1.06-.835-1.06-.314.046-.27-.134-.27-.134.79-.765 1.555-.675 2.097-.653.54.022 1.96.382 2.41.338.452-.045 1.218-.203 1.286-.654.064-.45-.43-.77-.95-1.105-.518-.338-3.2-.812-3.72-.946-.516-.14-1.104-.387-1.104-.387-.29.767.273 1.15.273 1.15-.45.068-1.17-.562-.34-2.095.834-1.533 2.59-2.773 2.93-3.02.34-.25.88-.655.765-1.15-.114-.496-.858-.496-1.985-.113-1.126.384-3.29 1.646-4.168 2.164-.88.515-1.85.79-1.85.79-.586.18-1.376.197-1.376.197.07-.113.408-.18.656-.27.246-.09.63-.205.63-.205l-.047-.11c-.52-.07-1.376.067-1.67.18-.29.11-.697.158-.697.158-.27.024-.282-.19-.282-.19-.032-.136.406-.27.406-.27l-.026-.4-.006.003v-.02l.36-.225-23.66 14.97-.03.017.613-.39.008.006v.003c4.822 2.705 7.62 2.496 8.25 2.54.632.045 0 .316 0 .316-3.56.314-7.48-1.714-7.48-1.714-.34.9-1.33 2.074-1.6 2.345-.27.275-.835.59-1.286.88-.436.286-.93.84-.964.88-.105-.077-.21-.152-.31-.227zM59.61 32.563l-.05-.01.03.006h.02zm-.117-.026l-.04-.01.022.006.018.004zm-.128-.03l-.037-.007.02.004.017.004zm-.138-.03l-.053-.014.034.01.02.003zm-.116-.03l-.08-.02.03.008.05.013zm-.52-.138zm-.07-.03h-.005.006zm-.076-.026l-.01-.003h.004l.007.003zm-.076-.024l-.01-.004h.002l.01.004zm-.075-.024l-.014-.005h.003l.01.007zm-.075-.025l-.016-.004h.003l.01.007zm-.075-.024l-.016-.005h.002l.012.008zm-.075-.026l-.012-.005.014.003zm-3.34-2.957zm.09-.053l.064-.035-.007.003-.057.037zm.167-.095l.055-.03-.01.005-.046.024zm.166-.093l.05-.026-.01.007-.04.02zm.168-.092l.045-.023-.013.007-.03.017zm.167-.09l.042-.024-.017.01-.028.014zm.167-.092l.04-.024-.02.01-.02.012zm.17-.094l.037-.02-.02.01-.02.01zm.17-.092l.035-.02-.02.013-.016.006zm.17-.09l.033-.02-.023.014-.014.005zm.166-.09l.035-.017-.025.012-.008.003zm.167-.087l.038-.02-.03.016-.004.006zm.166-.088l.044-.025-.04.02-.006.002zm.16-.086l.134-.065-.13.066zm.16-.08l.17-.084-.167.085zm.38-.193l.22-.11-.14.07-.08.04zm.288-.144l.26-.13-.185.09-.076.04zM26.7 25.798c.046.134.654.81 1.307.765.654-.04 1.015-.58 1.105-.94.09-.36-.248-.113-.248-.113-.992.81-1.78.383-1.938.223-.113-.113-.27-.067-.226.068zm1.127-2.12c.45-.045.902-.63.88-1.352-.024-.72-.43-1.51-1.015-1.51-.63 0-.946.7-.924 1.488.022.788.608 1.42 1.06 1.374zm.992-6.107c-.5.74-1.29.2-1.29.2-.118-.07-.29.07-.208.2.09.137.54.7 1.037.61.495-.09.72-.585.72-.9 0-.316-.27-.113-.27-.113zm.99-4.17c-.07 1.034.2 1.1.45 1.12 0 0 .52.03.52-.83 0-.856.11-.744.2-.744.09 0 .09.518.25.518.09 0 .09-.18.07-.293 0 0-.12-.81-.68-.81 0 0-.75-.002-.81 1.034zm-3.29-1.34s-.7.12-.63 1c.06.88.33 1.08.67 1.014.34-.068.47-.45.34-1.013 0 0-.208-.54-.028-.61.18-.067.247.52.383.43.085-.057.023-.204.023-.204s-.158-.727-.766-.615zm8.77-.49l-.01-.012v.012zm-.02-.04l-.02-.07.02.07zm-.03-.084l-.02-.07.02.07zm-.025-.083l-.02-.07.02.07zm-8.632-1.41c-.492.15-.992.86-.992 1.106 0 .247.29.406.447.135 0 0 .165-.52.84-1.15.07-.11 0-.18-.29-.09zm4.934 1.264s.23.135.32.045c.09-.09-.024-.27-.024-.27s-.54-.77-.97-1.083l-.204-.046-.384.22.023.136s.81.495 1.24.99zm3.684.075l-.016-.066.007.03.01.04zm-.02-.08l-.015-.06.015.055zm-.03-.122l-.004-.02v.014zm-.056-.273l-.002-.007v.006h.002zm-.015-.08v-.01.01zm-.013-.082v-.005.003l.003.004zm-13.234 3.393c.09-.143.194-.373.272-.56l.032-.076c-.08.194-.203.47-.305.634zm24.188 8.87l-.39.25c-4.53-2.89-7.95-2.016-7.95-2.016-.54 3.65-2.84 4.822-2.84 4.822.314-.225 1.95-2.325 2.21-4.462.247-2.05-.858-3.764-1.13-4.192-.36-.57-.846-1.666-.846-1.666-.675-1.532-.26-2.026-.28-3.65-.02-1.737-1.396-3.2-1.396-3.2.36.044 1.15 1.013 1.15 1.013 0-.225.11-.654.762-.81.457-.11 1.31-.254 1.897-.434s1.055-.49 1.19-1.03c.136-.54-.36-.58-.586-.45-.223.14-.63.23-.63.23-.382.046-.224.18-.224.18l.317.376c-.88.066-1.858-.826-2.3-1.953-.404-1.034-1.35-.99-1.35-.99-1.67-.044-3.74 1.45-3.967 1.58-.43.25-.134.358-.134.358.632.046 1.127.226 1.127.226-2.207.09-4.055.63-5.273 1.53-1.215.9-2.16 3.788-2.16 3.788-.272.63-.87 1.837-.87 1.837-.316.494-.843 1.18-1.475 1.855-.63.678-2.342 2.84-2.342 4.87 0 2.03 2.254 4.598 2.48 4.913.225.315.27.72.27.72-.676-.765-1.34-1.334-1.34-1.334s-.936.41-1.77 1.28c-.62.644-1.17 1.63-1.667 2.306-.498.675-1.895 1.83-1.895 1.83-.494.45-1.486 1.325-1.85 1.73-.36.405-1.08.99-1.08.99l.9.36c-.36.45-2.66-.403-4.323-1.35-1.666-.947-3.65-1.984-3.65-1.984-1.76-.766-3.09-.835-3.74-.63-.49.15-.496.72 0 .9.495.18 1.893.676 2.388 1.127.496.45.857 1.17.992 1.44.134.27-.09.18-.09.18-.45-.586-.767-.81-.767-.81-.993.63-2.57 1.98-2.57 1.98-.677 1.04.54.768.54.768 2.66-.54 3.876 1.037 3.876 1.037s.09.404-.135.18c-.226-.226-1.037-.587-1.037-.587-.09.81-.813 1.082-1.308 1.94-.496.854.495.9.81.72.317-.18.857-.362 1.263-.496.404-.135.044-.405.044-.405.496-.223 2.704 1.31 3.606 1.626.9.316.45-.36.45-.36 1.033.136 3.11 2.66 3.65 2.975.54.312.99.133.99.133.36-.632-.09-1.442-.09-1.442-.835-1.552.36-1.94.36-1.94-.18.275-.317.95-.317.95 1.4-.36 2.616-1.034 3.29-1.62.678-.588 1.49-1.13 1.49-1.13 2.163-1.24 3.65-1.08 3.83-1.08.18 0 .068.247.068.247l-.55.058.71 1.683 24.534-15.51-.866.545zm13.49 16.378c-.094.508-.204 1.01-.33 1.506l-.07.264c0 .007-.003.013-.004.018-.05.193-.11.397-.17.61l-.09.292c-.01.02-.015.05-.023.072-3.02 9.678-11.787 16.82-22.306 17.437-2.674.1-5.447-.245-8.427-.98 0 0-.92-.214-2.324-.76-7.018-2.82-12.456-8.74-14.618-16.06-.1-.386-.138-.6-.138-.6l.233.24-.07-.105c-.767-.902-1.736-1.532-1.736-1.532-.25.315-1.285.157-2.006-.27-.72-.43-2.12-1.173-2.12-1.173-1.12.61-1.91.813-1.91.813-1.26.156-1.193-.475-1.216-.97-.02-.497.948-1.263 1.22-1.51.27-.248.292-.677.292-.677-.607-.36-1.306-.16-2.433-.07-1.127.09-1.42-.9-.676-1.666.745-.765 2.547-1.893 2.547-1.893-1.104-.853-1.42-.672-2.57-1.26-1.073-.55-.27-1.49-.27-1.49 1.666-.63 3.01-.28 5.61 1.14 2.19 1.2 3.854 1.95 4.3 2.148.15-1.83.462-3.537.916-5.145 1.744-6.01 5.694-11.084 10.915-14.29l.06-.035.093-.058.134-.08-.003.01s.372-.565.553-.948c.18-.382.134-1.126 1.17-2.77 1.04-1.646 1.962-1.826 2.796-2.21.83-.382 2.05-.405 2.05-.405-.026-.09.042-.36.042-.36.585-.632 2.59-1.69 3.403-1.916.81-.223 1.758-.074 1.758-.074.86.07 1.105.934 1.376 1.544.27.606.9 1.012.9 1.012.495.067 1.35-.497 1.42-.52.067-.02.45.046.79.25.336.2.11.944-.274 1.553-.383.61-1.915.858-2.433.97-.46.1-.723.288-.777.33-.07.005-.107.01-.107.01v.04l.05-.003c11.116 0 20.53 7.28 23.736 17.33-.1.05-.43.21-.878.433.54-.272.91-.45.91-.45l-.016-.04c1.08-.49 1.508-.602 1.91-.645.43-.046.778.2 1.047.517.273.316.16 1.056-.47 1.596-.555.476-1.555 1.277-1.787 1.462l-.007-.03.005.023c.01.043.038.146.07.297.14.79.245 1.59.31 2.4-.03-.004-.11-.02-.23-.045l.24.05v-.028c2.878.554 3.014.84 3.35.975.337.135.81.787.766 1.24-.046.45-.564.77-.903.903-.337.135-1.328.05-2.14-.11-.49-.094-.84-.135-1.04-.15l-.002-.015s.01.12.014.3c-.02.463-.052.922-.097 1.377l.017.013v-.003c1.083 1.025 1.014 1.32.837 1.853-.104.31-.684.352-1.16.332l.005-.018-.014-.007z" fill="#fff"/></svg>