<svg viewBox="0 0 64 64" xmlns="http://www.w3.org/2000/svg" fill-rule="evenodd" clip-rule="evenodd" stroke-linejoin="round" stroke-miterlimit="1.414"><path d="M21.852 27.314c-3.064 0-5.26 2.396-5.26 5.19 0 2.835 2.13 5.275 5.296 5.275 2.867 0 5.215-2.19 5.215-5.22 0-3.47-2.732-5.25-5.25-5.25zm11.44 0c-3.063 0-5.26 2.396-5.26 5.19 0 2.835 2.13 5.275 5.297 5.275 2.86 0 5.21-2.19 5.21-5.22 0-3.47-2.73-5.25-5.25-5.25zm17.766 10.16h2.305V22.048h-2.305V37.47zm-6.34-8.103c1.38 0 2.795 1.18 2.795 3.19 0 2.05-1.413 3.17-2.826 3.17-1.5 0-2.894-1.21-2.894-3.15 0-2.01 1.45-3.21 2.925-3.21zm-22.835 0c1.507 0 2.935 1.22 2.935 3.18 0 1.93-1.422 3.18-2.942 3.18-1.67 0-2.988-1.33-2.988-3.19 0-1.81 1.3-3.16 2.995-3.16zm11.44 0c1.507 0 2.935 1.22 2.935 3.18 0 1.93-1.422 3.18-2.942 3.18-1.67 0-2.987-1.33-2.987-3.19 0-1.81 1.3-3.16 2.99-3.16zm25.96-2.06c-2.652 0-4.88 2.11-4.88 5.23 0 3.3 2.483 5.25 5.136 5.25 2.21 0 3.57-1.21 4.38-2.29l-1.81-1.2c-.47.73-1.26 1.44-2.57 1.44-1.47 0-2.15-.8-2.57-1.58L64 31.23l-.366-.854c-.678-1.67-2.26-3.067-4.352-3.067zm-43.547 1.61h-7.47v2.22h5.297c-.26 3.11-2.847 4.44-5.287 4.44-3.122 0-5.847-2.45-5.847-5.9 0-3.35 2.59-5.93 5.85-5.93 2.51 0 3.99 1.604 3.99 1.604l1.55-1.607s-1.99-2.22-5.63-2.22c-4.62-.004-8.2 3.9-8.2 8.116 0 4.13 3.36 8.16 8.32 8.16 4.36 0 7.55-2.985 7.55-7.4 0-.93-.14-1.47-.14-1.47zm43.64.4c.957 0 1.645.51 1.937 1.12l-4.686 1.96c-.202-1.51 1.235-3.07 2.75-3.07zm-14.86-2c-2.813 0-5.024 2.47-5.024 5.23 0 3.15 2.564 5.24 4.976 5.24 1.49 0 2.284-.59 2.87-1.27v1.03c0 1.81-1.097 2.89-2.75 2.89-1.6 0-2.4-1.19-2.68-1.86l-2.01.84c.713 1.51 2.15 3.09 4.706 3.09 2.796 0 4.928-1.76 4.928-5.453v-9.41h-2.194v.888c-.675-.723-1.597-1.2-2.822-1.2z" fill="#fff"/></svg>