<svg viewBox="0 0 64 64" xmlns="http://www.w3.org/2000/svg" fill-rule="evenodd" clip-rule="evenodd" stroke-linejoin="round" stroke-miterlimit="1.414"><path d="M64 13.233c0 .714-.09 1.385-.267 2.018-.177.64-.394 1.31-.65 2.03L53.016 40.92c-.916 2.7-2.225 5.166-3.926 7.4-1.705 2.24-3.676 4.172-5.914 5.8-2.24 1.625-4.706 2.898-7.4 3.816-2.695.913-5.49 1.372-8.39 1.372-3.765 0-7.313-.713-10.644-2.135-3.33-1.428-6.23-3.383-8.694-5.88-2.467-2.49-4.426-5.388-5.876-8.69C.722 39.293 0 35.763 0 32c0-3.77.723-7.3 2.172-10.604 1.45-3.31 3.41-6.208 5.876-8.697 2.465-2.5 5.364-4.46 8.695-5.88 3.33-1.42 6.877-2.13 10.643-2.13h28.072c1.168 0 2.275.21 3.318.642 1.04.435 1.943 1.03 2.707 1.794.763.763 1.375 1.663 1.83 2.706.46 1.043.687 2.173.687 3.396zM49.508 32c0-3.055-.572-5.94-1.717-8.66-1.14-2.72-2.72-5.097-4.73-7.133-2-2.036-4.36-3.638-7.05-4.805-2.693-1.168-5.57-1.757-8.62-1.757-3.05 0-5.933.59-8.66 1.757-2.72 1.167-5.092 2.768-7.13 4.805-2.04 2.036-3.64 4.413-4.81 7.133-1.17 2.718-1.75 5.605-1.75 8.66 0 3.047.586 5.922 1.756 8.616s2.773 5.047 4.81 7.058c2.032 2.012 4.41 3.582 7.13 4.73 2.72 1.143 5.61 1.714 8.66 1.714s5.922-.57 8.62-1.713c2.693-1.15 5.046-2.72 7.054-4.73 2.01-2.012 3.585-4.365 4.73-7.06 1.14-2.692 1.71-5.565 1.71-8.615zm-8.315 6.332l1.6 4.65-9.305 2.743L27.92 31.08l-8.545 13.58h-6.332l12.282-20.673L23.8 20.25h-3.89v-4.422h7.782l9.306 23.795 4.197-1.29zm16.248-19.99h-4.8c.36-.403.8-.9 1.34-1.49.536-.584 1.054-1.204 1.56-1.868.51-.658.93-1.348 1.26-2.055.33-.72.5-1.43.5-2.14 0-1.18-.332-1.99-.993-2.45-.66-.455-1.5-.685-2.52-.685-1.17 0-2.085.292-2.746.876-.66.583-.94 1.465-.837 2.63h2.67c0-.402.037-.786.114-1.14.078-.36.395-.534.953-.534.305 0 .532.11.684.34.154.23.23.5.23.802 0 .353-.066.7-.19 1.03-.128.33-.37.75-.727 1.26s-.85 1.155-1.487 1.943c-.636.79-1.437 1.844-2.402 3.166v2.21h7.4v-1.9z" fill="#fff" fill-rule="nonzero"/></svg>