<svg viewBox="0 0 64 64" xmlns="http://www.w3.org/2000/svg" fill-rule="evenodd" clip-rule="evenodd" stroke-linejoin="round" stroke-miterlimit="1.414"><path d="M32 64l-18.473-5.237-4.26-46.22h45.465l-4.267 46.22L32 64zm14.3-42.02H17.692l1.6 17.306.035-.108h19.545l-.638 7.32L32 48.295l-6.33-1.824-.38-4.43h-5.746l.82 8.86L32 54.198l11.634-3.304 1.6-17.374H24.497l-.535-5.795h21.81l.53-5.746zm.156-16.254V0H43.56v8.63h6.94V5.726h-4.044zm-23.27-2.822h2.525V8.63h2.91V2.904h2.524V0h-7.95v2.904zM42.082 0v8.63h-2.808V4.234l-2.05 3.196-.008.006-.007-.007-2-3.11v4.31H32.4V0h3.012l1.796 2.95L39.01 0h3.068zm-23.06 2.863h-2.625V0h-2.903v8.63h2.903V5.767h2.626V8.63h2.896V0h-2.9v2.863z" fill="#fff"/></svg>