<svg viewBox="0 0 64 64" xmlns="http://www.w3.org/2000/svg" fill-rule="evenodd" clip-rule="evenodd" stroke-linejoin="round" stroke-miterlimit="1.414"><path d="M37.264 49.072c.012 1.444.208 4.628-.584 5.804-.292.436-.984.852-1.408.248-.984-1.408.748-5.432 1.992-6.052zM6.752 44.024c.1 1.132-.664 2.272-1.188 2.74-.716.64-1.764 1.048-3.052.744-1.36-.32-1.708-1.608-1.256-2.304.268-.412.66-.616.868-1.124C2.9 42.196.032 42.432 0 45.164c-.032 2.78 2.056 3.496 4.448 3.352 4.328-.264 4.1-4.236 4.1-7.676 0-1.304-.004-2.612 0-3.916.008-2.44.072-1.796-1.724-2.024-.76-.096-1.1.056-1.484.448-2.28 2.336-2.856 8.852 1.412 8.676zm21.956-3.612c1.14-.272 1.336 1.272 1.28 1.728-.076.592-.244-.252-.4 1.46-.076.872-.2 2.324-.612 3.092-.324.604-1.456 1.6-1.776-.512-.236-1.556-.096-5.388 1.508-5.768zm19.584.008c1.032-.288 1.332 1.004 1.3 1.66-.024.428-.012.176-.2.448-.408.596-.024 4.04-1.4 4.78-1.46.788-1.324-2.496-1.248-3.448.092-1.104.348-3.1 1.548-3.44zm-12.2-.16c.776-.264 1.124.468 1.22 1.148.132.896-.248 1.284-.284 2.12-.148 3.26-2.1 5.048-2.468 2.48-.228-1.584-.052-5.204 1.532-5.748zm-19.884 5.796c.244-.696.38-1.032.408-1.896.456.524 2.216 1.58 2.424 2.212.272.844-.86.856-1.396.564-.252-.136-.48-.328-.676-.492-.376-.304-.412-.2-.76-.388zm7.368-10.48c-.372-.296-1.112-.472-1.708-.464-.192.876-.136 1.896-.196 2.84-.044.732-.228.52-.952.528-.484.008-.976-.012-1.284.244-.04.856 1.54.752 2.112.992.044 2.32-.496 5.024.292 7.144.296.796 1.128 1.904 2.308 1.392.908-.392 1.228-1.568 1.556-2.248.616 2.064.62 2.028 2.264 2.352 1.216.236 1.828-1.368 2.184-2.352.18.432.128.632.424 1.044.176.252.444.544.868.648.996.244 1.444-.508 1.844-.964l.08-.076c.332 1.476 1.172 1.488 2.036 1.68 1.228.272 1.46-1.088 1.932-1.68-.136 2.516.084 1.296-.892 2.356-.248.276-.504.472-.736.776-1.164 1.5-2.812 5.292-.684 6.272.552.256 2.06.492 2.668.24.628-.26.924-1.064 1.076-1.872.348-1.872.032-3.924.172-5.812.456-.1.752.164 1.028-.292-.048-.512-.56-.512-1.036-.54-.024-.892-.032-1.796 0-2.688.064-1.968.34-1.688.38-2.2-.172-.156-.144-.104-.404-.192-.308-.1-.22-.024-.344-.24-.232-.544.388-1.592-.224-2.42-.52-.696-1.18-.552-2.008-.944-1.764-.84-2.54.988-2.86 2.472-.532 2.444.044 4.024-.836 5.004-.792.888-1.104-.64-1.136-1.34-.116-2.484.832-2.46-.328-2.904-.176-1.184.188-2.032-.636-2.796-.244-.228-.82-.324-1.196-.52-.416-.216-.912-.344-1.472-.232-1.768.352-2.008 3.296-2.168 4.648-.072.616-.124-.16-.444 1.26-.524 2.332-1.636 3.12-1.98 1.484-.172-.82-.136-5.84.092-6.524.164-.212 1.916-.316 2.296-.308.412.008.496.144.608.032.704-.94-2.432-.776-2.904-.932l.208-2.868zm16.24 4.144c-.032 1.032.116 2.104.084 3.18-.016.528-.032 1.06-.104 1.576-.056.384-.256 1.008-.168 1.348.748.264.88-1.1.984-1.708.116-.68.184-1.828.356-2.388.12-.028.26-.068.42-.056.76.048.18 1.264.264 2.944.064 1.308.556 4.196 2.416 3.504.716-.268.976-.996 1.308-1.716.252.46.396 1.66 1.456 1.82 1.12.168 1.74.468 2.604-1.396.068-.144.092-.24.152-.392.028-.08.056-.14.096-.204.08-.124.032-.06.12-.148.132.816.656 1.616 1.54 1.656.916.044 1.4-.82 1.76-1.388.08.524-.016 1.372.404 1.592.388.2 1.28.304 1.68.104.2-.256.14-.956.18-1.32.044-.436.104-.856.176-1.28.072-.408.268-1.984.684-2.216.2 1.488-.332 3.86.656 4.292.22.1.46.124.712.12.844-.016.572-.324.876-1.532.212-.828.78-2.844 1.252-3.356.02 1.208-.216 2.064.032 3.344.428 2.208 2.368 2.88 3.552.728.208-.38.972-2.228.584-2.668-.62-.64-.572 1.484-1.184 2.344-.248.356-.844.748-1.144.184-.196-.364-.252-1.044-.264-1.524-.108-3.708 1.168-3.484-.096-4.296-.5-.32-.8-.384-1.484-.284-.32.176-1.6 4.248-1.82 4.62-.068.112-.04.064-.1.132-.024-.92-.008-1.86-.008-2.78 0-.476.116-.896-.236-1.132-.284-.188-.736-.248-1.128-.172-.572.108-.84 1.056-1.032 1.648-.124.372-.552 1.752-.588 2.028l-.004-4.776c-.216-.332-1.164-.452-1.576-.312-.084.22-.092 2.86-.104 3.332-.02.72.056 1.116-.144 1.568-.156.344-.232.864-.392 1.26-.472 1.172-1.268 1.132-1.448-.288-.06-.492-.068-1.108-.028-1.612.04-.46.288-1.076.228-1.408-.228-.264-.264-.18-.568-.388-.136-.716.056-1.52-.216-2.184-.336-.82-.66-.66-1.416-.992-.616-.268-1.132-.596-1.96-.256-.604.248-.868.664-1.156 1.248-.268.54-.444 1.2-.556 1.852-.1.576-.124 1.688-.264 2.136-.284.908-.56 3.32-1.62 3.192-.608-.572-.52-2.108-.436-3.032.048-.544.12-1.052.236-1.564.104-.444.38-1.02.356-1.452-.544-.796-1.808-.32-2.54-.696-.04-.456.04-.756-.068-1.192-.536-.204-.936.044-1.316.356zm-28.144 7.852c.264-.744.556-3.644 1.296-4.256.096 1.568-.512 4.136 1.504 4.056.664-.028.972-.372 1.304-.624.328.44.424.584 1.056.792 1.388.464 4.248.264 3.944-1.26-.268-1.336-4.14-2.48-2.804-4.276.208-.276.908-.584 1.336-.304.056.04.628.78 1.164-.008.228-.34.496-1.1.16-1.452-.644-.684-3.22-.02-4.18.932-.908.9-.632 1.828-.012 2.768-.716.196-.224.136-.684 1.412-.2.568-.452 1.104-1.112.996-.556-.88-.152-2.632-.224-3.864-.04-.724-.32-1.592-1.164-1.356-.688.196-1.436 2.34-1.78 3.2-.064-.88.06-3.612-.02-4.036-.084-.472-1.24-.692-1.404-.44-.1.148-.28 5.368-.3 5.796-.02.492 0 1.452.252 1.788.288.384 1.196.26 1.668.136zm-4.9-4.884c-1.42.288-1.752-.856-1.904-2.124-.404-3.396 1.344-4.716 1.92-3.784.2.324-.012 1.292-.012 1.792.004 1.368.024 2.752-.004 4.116zm24.992-27.29c-2.854 0-5.17 2.24-5.17 5.007 0 2.767 2.316 5.01 5.17 5.01 2.855 0 5.17-2.243 5.17-5.01 0-2.766-2.315-5.008-5.17-5.008zm9.936 3.08h-2.265c.213.7.33 1.44.33 2.207 0 4.28-3.583 7.75-8 7.75-4.42 0-8-3.47-8-7.75 0-.768.115-1.51.33-2.21H21.73V29.35c0 .564.46 1.024 1.024 1.024h17.923c.562 0 1.023-.46 1.023-1.024V18.476zm-4.08-8.026c-.638 0-1.16.52-1.16 1.16v2.772c0 .637.522 1.16 1.16 1.16h2.91c.637 0 1.157-.523 1.157-1.16V11.61c0-.637-.52-1.158-1.158-1.158h-2.91zm-15.445-2.86h19.13c1.817 0 3.303 1.486 3.303 3.304v19.13c0 1.818-1.486 3.304-3.303 3.304h-19.13c-1.817 0-3.304-1.486-3.304-3.303v-19.13c0-1.82 1.49-3.305 3.307-3.305z" fill="#fff"/></svg>