<svg viewBox="0 0 64 64" xmlns="http://www.w3.org/2000/svg" fill-rule="evenodd" clip-rule="evenodd" stroke-linejoin="round" stroke-miterlimit="1.414"><path d="M47.152 30.337v3.7h2.464l-2.464-3.7zm4.867 3.44l-1.52 2.44-5.46.002v-8.23l3.11-.01 3.86 5.78zm-5.22-4.6v5.21h3.47c-1.16-1.736-2.32-3.47-3.47-5.21zm4.8 4.608l-1.29 2.082-4.92.004v-7.52l2.57.01 3.63 5.44zm-11.82-.462v-2.035l-.81 1.097.81.938zm-2.16.892l-1.46 1.975-1.41-1.755 1.42-1.916-.98-1.14 1.4-1.75.91 1.06 2-2.71h2.47v8.23h-2.64l-1.71-2.01zm2.5.05v-4.04l-1.61 2.177 1.602 1.862zm-2.52-.612l-1.46 1.963-.96-1.19 1.424-1.922-.968-1.13.953-1.19.927 1.08 2.158-2.92h1.944v7.527H39.5l-1.892-2.21zM9.53 36.21l-1.492-2.127 4.24-5.706.322-.446 4.487 6.17-1.443 2.12H9.53zm1.194-2.256h3.615l-1.77-2.457-1.85 2.457zM9.712 35.86L8.47 34.09l4.13-5.564 4.06 5.575-1.2 1.76H9.71zm.315-1.556h4.995l-2.452-3.408-2.543 3.408zm32.32-6.32h2.276V36.2h-2.277v-8.217zm.35.35h1.576v7.516h-1.577v-7.517zm-21.586-.34h2.22v8.223h-2.22v-2.54l-1.55-1.69v4.234h-2.22v-6.51l-1.61-1.7h1.62V28h1.62l2.15 2.38V28zm.35.35h1.52v7.518h-1.52v-2.32l-2.25-2.452v4.78h-1.52v-6.306l-1.15-1.24 2.27.02 2.66 2.94v-2.94zm8.41 3.145v4.73h-2.13v-6.71l-1.34-1.52h3.35l1.39 1.56 1.24-1.64 2.18 2.37v5.92h-2.31l.02-4.66-1.18 1.406-1.212-1.48zm-.35-.98v5.36h-1.43v-6.49l-.91-1.04h2.41l1.57 1.77 1.24-1.65 1.81 1.96v5.43H32.6l.02-5.26-1.528 1.82-1.567-1.91zM5.07 34.45v1.77H2.85v-8.23h2.215v.965l1.087-1.18 3.117 4.05-1.69 2.24 1.6 2.15H6.41L5.06 34.45zm-.35-1.02v2.44H3.2v-7.53h1.515v1.513l1.413-1.54 2.702 3.51-1.683 2.232 1.337 1.798H6.6l-1.88-2.43h-.005zm1.276-2.61l-1.274 1.4h2.39l-1.12-1.4zm-.014.534l-.466.51h.873l-.41-.51zM2.29 27.99v8.228H0V27.99h2.288zm-1.94.35h1.59v7.528H.35V28.34zm56.24-.163v1.946h-2.396v.847h2.388v1.992h-2.37v1.06h2.37v2.185h-3.067l-1.356-1.8L52.14 28h4.287l-.02-.02h3.24l2.14 2.378v-2.376H64v8.234h-2.215v-2.55l-1.56-1.69v4.234H58.01V29.7l-1.42-1.52zm5.545.152h1.516v7.53h-1.51v-2.33l-2.25-2.45v4.78h-1.52v-6.3l-1.15-1.24 2.28.01 2.65 2.94v-2.94zm-5.893.02H52.5l.008 5.94 1.18 1.56h2.543v-1.48h-2.36l.01-1.76h2.36v-1.29h-2.4v-1.55h2.41v-1.42z" fill="#fff"/></svg>