<svg viewBox="0 0 64 64" xmlns="http://www.w3.org/2000/svg" fill-rule="evenodd" clip-rule="evenodd" stroke-linejoin="round" stroke-miterlimit="1.414"><path d="M34.767 6.204c-.025-.13-.042-.264-.05-.4-.132-1.89 1.29-3.53 3.178-3.662 1.89-.132 3.528 1.292 3.66 3.182.132 1.89-1.29 3.53-3.18 3.662-.118.01-.237.01-.352.006-.077.02-.123.03-.19.087-.193.3.496.24.027 1.57 0 0-.003.14-.055.29-.036.51-.232 2.01-.26 2.82.1.11.127.17.117.45-.045.38-.132 1.31-.273 1.91-.12.512-.33.61-.5.736-.24 1.063-.3 1.943-.91 3.234-.06.98-.13 1.245-.33 1.724-.02 1.44.08 1.655-.9 3.937-.25 1.07-.01 1.807.252 2.916.27 1.14 1.022 1.615 1.134 2.782.263 2.748.197 4.62-.39 6.774l.512 1.22c.64.29 2.222 1.093 1.343 2.36 1.24.65 3.11 1.34 4.65 2.66.62.517 1.275 1.08 1.863 1.74 1.12.176 1 .265 1.83.775 2.44 1.497 6.35 4.465 8.614 6.566.39.23.55.394.864.56.05.093.065.115.054.14-.108.275-.104.283-.202.5.124.137.35.26.49.38.126.04.126-.02.344-.073.284.266.637.48.763.468.385-.096.32-.017.645-.382.117-.12.313.003.313.003.124-.14.388-.43.74-.636.28-.165.813-.183.813-.183.18.005.146.19.13.248-.2.104-.63.22-.87.397-.524.543-.934 1.274-.934 1.274 1.054-.145 1.7.117 2.58.016.48-.027.834.004 1.337-.36 0 0 .484-.344.918-.527.42-.184.82-.087 1.19.183.265.295.42.297.025.714-.146.164-.354.345-.62.607-.464.457-1.09 1.07-1.74 1.58-.656.51-1.4.972-1.866 1.184-1.176.843-.9.623-1.82 1.46-.12.103-.428.29-.578.39-.365.238-.48.04-.716-.4 0 0-.11-.163-.287-.512-.2-.38-.347-.816-.287-.81-.218-.026-1.203-1.18-1.205-1.43-.21-.047-1.098-.907-1.13-1.07l-.786-.63c-.9.186-1.108-.373-3.485-2.06-.27-.006-.69-.15-1.29-.598-1.07-.86-3.643-2.803-4.08-3.025-.47-.24-1.03-.464-1.37-.748-.516-.1-.797-.15-1.055-.22-.26-.076-.5-.17-1.167-.258-1.086-.137-2.21-.586-3.28-1.12-.51-.24-.95-.36-1.385-.55-.98-.415-1.818-.787-2.468-.937-.248-.026-1.426-.38-2.044-.74-.214-.11-.34-.217-.48-.25-.323-.074-.53.055-.68.104-.79.414-1.533.77-2.22 1.14-.64.34-1.225.697-1.85 1.056-.56.323-1.21.63-1.876.95 0 0-1.903.952-2.942 1.323-.902.734-2.745 2.01-3.87 2.64-.557.264-1.64.95-2.138 1.104-.286.23-1.3.953-2.095 1.55-.613.46-1.077.848-1.077.848-.356.32-.332.47-1.01.184-.188.155-.333.25-.454.34-.49.355-.537.27-.71.26-.347.296-.39.143-.688.483-.196.305.004.23-.41.38-.086.033-.127.138-.195.197-.33.274-.333 1.047-1.13 1.103-.46.33-.342.725-.694.707.02.344-.624.84-.74.84-1.015.35-1.086-.396-2.304.16-.16.073-.39.27-.693.33-.535.1-1.183-.005-1.58-.31C.66 61.035.09 60.11.09 60.11c-.2-.467-.084-.762.533-1.204.258-.163.305-.285.737-.314.214-.08.156.043.54-.095.22-.08.22-.022.67-.06.1-.07.244-.094.437-.157.353-.116.698-.246.698-.246s.09-.09.43-.058c.288-.12.583-.294.735-.348-.04-.454.01-.433.22-.617.264-.22.31-.19.507-.05.083-.04.123-.06.114-.13-.03-.232-.23-.35-.17-.87-.09-.21-.22-.47-.19-.622.043-.17.084-.25.187-.303.106-.06.142.02.2.086.104.12.19.48.19.48.035.404.16.928.56.63.235-.24.28-.873.762-.74l.342.3c.29-.273.304-.273.48-.383 0 0-.274-.276-.035-.49.166-.146.363-.25.714-.64.96-1.063 1.456-1.533 2.497-2.39 2.08-1.71 4.44-2.91 5.944-3.505.49-.62.965-1.033 2.05-1.14 1.29-2.18 3.768-4.13 4.336-4.44.46-.84.66-.75 1.267-.917.48-.386.59-.386.803-.787.206-.83-.48-3.04 1.276-3.152.375-.53.28-.4.698-.9-.283-.696-.4-1.28-.476-1.78-.015-.057-.7-.54-.505-1.17-.29-.345-.836-1.152-1.005-1.53-.076 0-.14-.028-.227-.04-.088-.014-.198-.01-.323-.02-.274.707-.573.76-1.06.915-.87 1.855-1.175 2.64-3.635 4.17-.976 1.096-1.29 2.315-1.283 2.297-.166.36-.107.867-.02 1.138-.127.4-.093.44-.093.44.05.152.19.353.362.396.297.08.59.067.575.396-.04.41-.58.34-.835.295-.984-.154-.673-.796-1.302-.582-.482.315-.662 1.246-1.45 1.125-.103-.07-.07-.274 0-.42.11-.23.306-.42.19-.507-.51.16-1.536.5-1.536.5-.48.134-1.01-.11-.534-.424.22-.086.535-.193.923-.442 0 0 .2-.273-.184-.136-.42.15-1.04.245-1.483.196 0 0-.92-.12-1.038-.193-.12-.073-.228-.358.06-.356.364.004 1.276-.103 1.983-.292.34-.133.99-.517 1.354-.698 0 0 .395-.578.612-.69.365-.42.67-.666.99-1.094.317-.647.64-1.673 1.68-3.26.48-.733 1.08-1.586 1.83-2.35 0 0 .195-1.22 1.173-2.09.215-.51.542-1.11.866-1.66.12-.214.24-.4.36-.6.3-.48.62-1.364 1.8-1.504 0 0 .507-.374.7-.64.304-.258.235-.66.48-.945-.375-.365-1.34-1.056-1.43-2.016-.1-1.02.26-1.856.876-2.476.682-.683 1.402-1.025 2.276-.973 1.09.163 1.3.524 1.646.883.333.34.458.12.6.52.914.243.863.135.856.81.14.19.377.365.374.76.307-.64.37-.758 1.19-1.46.194-.572.326-1.134.497-1.705.16-.53.36-1.073.516-1.482-.163-1.154.173-1.345.62-2.36-.077-.137-.06-.176-.027-.405.175-.67.447-1.552.61-2.13 0 0 .053-.23.29-.246.206-.73.513-2.09.565-2.368.21-.765.074-1.01-.088-1.44-.053-.14-.03-.34-.12-.498-.255-.445-.53-1.024-.717-1.44-.123-.26-.314-1.253-.314-1.253-.164-.51-.02 0-.02 0z" fill="#fff"/></svg>