<svg viewBox="0 0 64 64" xmlns="http://www.w3.org/2000/svg" fill-rule="evenodd" clip-rule="evenodd" stroke-linejoin="round" stroke-miterlimit="1.414"><path d="M34.767 6.204c-.025-.13-.042-.264-.05-.4-.132-1.89 1.29-3.53 3.178-3.662 1.89-.132 3.528 1.292 3.66 3.182.132 1.89-1.29 3.53-3.18 3.662-.118.01-.237.01-.352.006-.077.02-.123.03-.19.087-.193.3.496.24.027 1.57 0 0-.003.14-.055.29-.036.51-.232 2.01-.26 2.82.1.11.127.17.117.45-.045.38-.132 1.31-.273 1.91-.12.51-.33.61-.5.73-.24 1.06-.3 1.94-.91 3.23-.06.98-.13 1.24-.33 1.72-.02 1.44.08 1.65-.9 3.93-.25 1.07-.01 1.807.25 2.916.27 1.14 1.02 1.615 1.13 2.782.26 2.745.19 4.62-.39 6.77l.51 1.22c.64.29 2.22 1.093 1.34 2.36 1.24.65 3.11 1.34 4.65 2.66.62.517 1.27 1.08 1.86 1.74 1.12.176 1 .265 1.83.775 2.44 1.5 6.35 4.466 8.61 6.57.39.23.55.393.86.56.05.092.066.114.055.14-.11.274-.105.282-.203.5.124.14.35.26.49.38.126.04.126-.02.344-.07.283.262.636.48.762.464.383-.097.32-.018.643-.38.12-.12.317 0 .317 0 .122-.14.386-.43.74-.637.28-.166.81-.18.81-.18.18 0 .147.19.13.244-.2.105-.63.22-.87.398-.523.54-.933 1.272-.933 1.272 1.054-.146 1.7.116 2.58.015.48-.026.834.005 1.337-.36 0 0 .487-.34.92-.526.42-.182.82-.085 1.19.185.267.295.42.297.027.714-.145.163-.353.344-.62.606-.463.46-1.09 1.07-1.74 1.58-.655.51-1.4.97-1.865 1.187-1.175.844-.9.624-1.82 1.46-.12.104-.427.29-.577.39-.363.24-.48.04-.714-.4 0 0-.11-.162-.286-.51-.2-.38-.35-.816-.29-.81-.22-.026-1.2-1.18-1.206-1.43-.21-.047-1.096-.907-1.13-1.07l-.784-.63c-.9.186-1.107-.373-3.484-2.06-.27-.006-.69-.15-1.29-.6-1.07-.86-3.643-2.8-4.08-3.023-.47-.24-1.03-.46-1.37-.743-.516-.1-.797-.15-1.055-.22-.26-.075-.5-.17-1.162-.257-1.087-.14-2.21-.588-3.28-1.12-.51-.24-.95-.36-1.386-.55-.98-.417-1.82-.79-2.47-.94-.248-.026-1.426-.38-2.044-.74-.216-.11-.34-.217-.48-.25-.325-.074-.53.055-.68.104-.79.415-1.535.77-2.22 1.14-.64.34-1.227.698-1.85 1.057-.56.32-1.21.63-1.878.95 0 0-1.9.95-2.94 1.32-.9.734-2.745 2.01-3.87 2.64-.557.264-1.64.95-2.14 1.104-.284.23-1.3.954-2.093 1.55-.613.46-1.077.85-1.077.85-.36.32-.336.47-1.01.185-.19.153-.337.25-.458.34-.49.353-.54.27-.71.26-.35.294-.39.14-.69.48-.196.305.004.23-.41.38-.086.03-.127.138-.195.197-.33.276-.33 1.05-1.13 1.105-.46.33-.34.723-.694.705.02.343-.625.84-.74.84-1.016.35-1.087-.397-2.305.16-.16.072-.39.27-.69.33-.538.1-1.186-.006-1.58-.31-.6-.48-1.17-1.407-1.17-1.407-.2-.468-.087-.763.53-1.205.26-.163.305-.285.737-.314.215-.08.157.044.54-.094.22-.08.22-.02.67-.06.1-.07.245-.093.438-.156.35-.116.697-.246.697-.246s.09-.09.43-.057c.29-.12.583-.293.735-.35-.04-.452.01-.43.22-.615.263-.22.31-.19.506-.05.08-.04.12-.06.115-.13-.03-.23-.23-.35-.17-.87-.09-.21-.22-.47-.19-.62.047-.17.088-.25.19-.3.107-.06.14.02.2.085.105.12.19.48.19.48.036.405.16.93.56.63.236-.24.28-.87.76-.74l.345.3c.29-.27.302-.27.48-.38 0 0-.276-.28-.037-.49.167-.15.364-.25.715-.64.96-1.066 1.458-1.536 2.5-2.39 2.08-1.71 4.44-2.91 5.944-3.508.49-.62.966-1.03 2.05-1.14 1.29-2.18 3.77-4.13 4.34-4.44.46-.84.66-.75 1.27-.916.48-.386.59-.386.8-.787.21-.83-.48-3.04 1.28-3.15.373-.53.28-.4.696-.9-.283-.697-.4-1.28-.476-1.78-.015-.058-.7-.54-.505-1.17-.29-.346-.834-1.15-1.003-1.53-.078 0-.14-.03-.23-.04-.09-.015-.2-.01-.325-.02-.277.706-.576.76-1.06.914-.87 1.857-1.178 2.64-3.638 4.17-.975 1.098-1.29 2.317-1.282 2.3-.16.36-.1.87-.02 1.14-.12.4-.09.44-.09.44.05.15.19.353.36.396.3.08.59.07.58.398-.04.41-.58.34-.834.295-.98-.15-.67-.793-1.3-.58-.48.316-.66 1.247-1.45 1.126-.102-.07-.07-.275 0-.42.11-.23.307-.42.19-.508-.51.16-1.535.5-1.535.5-.48.137-1.01-.11-.536-.42.22-.085.536-.19.924-.44 0 0 .2-.274-.184-.137-.42.15-1.04.244-1.48.195 0 0-.92-.12-1.035-.19-.12-.07-.225-.36.06-.353.367.005 1.28-.102 1.986-.29.34-.133.99-.517 1.355-.698 0 0 .39-.58.61-.69.36-.42.67-.667.99-1.095.313-.65.64-1.673 1.68-3.26.48-.733 1.08-1.586 1.83-2.35 0 0 .19-1.22 1.17-2.09.214-.51.54-1.11.865-1.66.12-.214.24-.4.36-.6.3-.48.62-1.364 1.8-1.504 0 0 .51-.373.7-.64.304-.26.235-.66.48-.944-.375-.366-1.34-1.057-1.43-2.017-.1-1.02.26-1.858.876-2.478.683-.68 1.403-1.023 2.277-.97 1.09.16 1.3.523 1.647.88.335.34.46.12.6.52.916.245.865.137.858.81.14.19.377.367.374.76.307-.64.37-.756 1.19-1.46.19-.57.326-1.132.497-1.703.16-.53.36-1.07.513-1.48-.164-1.155.172-1.346.62-2.36-.078-.138-.06-.177-.028-.406.175-.67.447-1.55.61-2.13 0 0 .053-.23.29-.243.206-.73.513-2.09.565-2.37.21-.764.07-1.01-.09-1.44-.054-.14-.03-.34-.12-.497-.256-.446-.53-1.025-.718-1.44-.122-.26-.313-1.254-.313-1.254-.166-.51-.02 0-.02 0z" fill="#fff"/></svg>