<svg viewBox="0 0 64 64" xmlns="http://www.w3.org/2000/svg" fill-rule="evenodd" clip-rule="evenodd" stroke-linejoin="round" stroke-miterlimit="1.414"><path d="M60.098 29.767v1.765c-.323-.153-1.075-.292-1.55-.292-.753 0-2.38.26-2.38 1.658 0 1.504 1.597 1.72 2.226 1.72.63 0 1.35-.094 1.704-.293v.292h2.455v-4.85h-2.455zm-22.852 1.688v3.162h2.64V33.02c0-.368.307-.583.583-.583.5 0 .55.03.55.645v1.535h2.45V32.59c0-.613-.28-1.34-1.6-1.32-.91.016-1.72.308-2 .46v-.275h-2.64zm-25.8 3.162v-3.162H8.87v3.162h2.577zm43.865 0v-3.162h-2.57v3.162h2.58zm-5.77-5.34H46.2c.154.03.415.444.338.613l-2.577 4.727h1.44l.6-1.197h2.23l.59 1.197h3.33l-2.59-5.34zm-15.34 4.51c-.38 0-.89-.076-1.09-.66h3.53c0-.72-.3-2.056-2.91-2.07-1.56 0-3.13.52-3.14 1.81-.01 1.29 1.69 1.75 3.27 1.75s2.29-.246 2.5-.4l.14-.736c-.31.14-1.12.34-2.29.31zM22.81 31.73c-.582-.35-1.273-.49-2.3-.49-1.03 0-2.886.45-2.886 1.74s1.627 1.75 2.67 1.75c1.044 0 2.27-.23 2.517-.4v-.89c-.3.184-2.51.614-2.51-.414 0-.552.89-.675 1.15-.675.26 0 1.14.13 1.37.29v-.9zm-10.342-.27v1.04h.86v1.013c0 .46.367 1.105 1.533 1.105s1.6-.246 2-.4v-.767c-.18.07-1.07.43-1.07-.3v-.65h1.08v-1.04h-1.08v-1.01h-2.46v1.02h-.852zm47.636 1.61c0 .123-.26.308-.54.308-.26 0-.873.06-.873-.522 0-.43.65-.6.85-.6.2 0 .57.047.57.354v.46zm-13.62-.613l.698-1.397.583 1.396H46.48zM33.71 31.92c.352 0 .49.167.49.49h-1.08c.015-.26.215-.49.583-.49zm-10.04-2.15v4.85h2.64v-1.596c0-.368.305-.52.58-.52.276 0 .553-.093.553.582v1.535H29.9v-2.03c0-.52-.216-1.26-1.535-1.29-.966-.01-1.734.26-2.056.43v-1.96h-2.64zM0 29.277v5.34h2.793V32.99c.215 0 .63-.138.967.384l.783 1.243H7.98l-1.534-2.425c-.215-.307-.292-.614-1.09-.69l1.964-2.226H5.34l-1.503 1.887c-.17.2-.092.384-1.044.384v-2.27H0zm53.99 1.874c.72 0 1.303-.33 1.303-.73s-.583-.74-1.302-.74c-.71 0-1.3.33-1.3.74s.59.74 1.3.74zm-43.863 0c.72 0 1.302-.33 1.302-.73s-.59-.74-1.31-.74c-.72 0-1.31.33-1.31.74s.58.74 1.3.74zm53.723-1.13c-.11-.1-.23-.15-.37-.15s-.27.05-.37.15c-.1.1-.15.23-.15.37s.05.27.15.37c.1.103.22.154.362.154s.265-.05.367-.155c.1-.1.15-.225.15-.368s-.05-.262-.15-.363zm-.06.69c-.09.09-.19.13-.318.13s-.23-.04-.315-.13c-.086-.084-.13-.19-.13-.314s.044-.23.13-.32c.087-.085.192-.13.315-.13s.23.045.317.13c.08.09.13.194.13.317s-.05.23-.13.317zm-.088-.04l-.005-.03v-.083c0-.03-.01-.06-.03-.09-.02-.03-.054-.047-.1-.054.036-.007.064-.016.083-.03.038-.023.056-.06.056-.11 0-.073-.03-.12-.09-.145-.033-.01-.084-.02-.155-.02h-.2v.57h.1v-.224h.08c.06 0 .09.008.11.02.04.02.06.065.06.13v.045l.01.013v.01h.096l-.004-.01zm-.153-.3c-.02.01-.06.01-.1.01h-.09v-.202h.09c.05 0 .09.008.12.02.02.016.03.044.03.085 0 .043-.02.073-.06.09z" fill="#fff"/></svg>