<svg viewBox="0 0 64 64" xmlns="http://www.w3.org/2000/svg" fill-rule="evenodd" clip-rule="evenodd" stroke-linejoin="round" stroke-miterlimit="1.414"><path d="M29.156 38.124c.107.15.287.486.403.767l.07.17v-.25c0-.27.04-.56.11-.69.03-.05.08-.09.17-.11.35-.09.7.13.93.61l.08.17.06-.15c.07-.17.12-.22.26-.26.21-.06.39.1.61.53l.13.26.15-.28c.22-.42.39-.57.6-.51.14.04.18.09.26.26l.06.15.08-.17c.23-.47.58-.7.93-.6.09.02.14.06.17.12.062.12.11.41.11.69v.25l.07-.17c.13-.32.354-.72.46-.84.104-.11.113-.11.16-.06.29.29-.75 3.06-1.35 3.58-.136.12-.154.12-.246.03-.15-.15-.294-.71-.364-1.422l-.04-.38-.02.396c-.06 1.03-.22 2.16-.33 2.29-.13.155-.35-.355-.56-1.31-.06-.25-.117-.52-.13-.597l-.024-.14-.028.14c-.26 1.32-.538 2.093-.69 1.91-.11-.13-.27-1.266-.33-2.295l-.02-.4-.04.38c-.07.718-.216 1.28-.365 1.43-.09.09-.11.088-.24-.03-.584-.51-1.63-3.25-1.36-3.574.06-.068.11-.038.23.13zm7.874-3.88c.165.08.31.227.358.368.082.25.006.635-.162.82-.09.1-.122.11-.28.123-.203.016-.435-.064-.716-.235l-.147-.09.135.255c.26.483.38.965.38 1.51 0 .63-.185.98-.51.98-.19 0-.27-.095-.417-.486-.14-.38-.26-.57-.46-.7-.08-.06-.15-.1-.16-.1-.01 0-.01.09-.01.19.02.24-.03.39-.15.49-.09.07-.11.08-.31.06-.24-.02-.57-.16-.83-.35l-.14-.1-.14.2c-.17.248-.42.514-.517.55-.09.034-.145-.01-.145-.11 0-.146.21-.473.548-.842.16-.176.176-.206.12-.206-.06 0-.35-.158-.43-.24-.13-.116-.11-.184.06-.257.54-.23.923-.406 1.47-.67.573-.274.63-.295.665-.246.07.08.03.31-.09.51-.055.092-.195.28-.314.4l-.216.232.2-.11c.26-.135.59-.468.753-.767.1-.178.14-.29.18-.5.073-.43.226-.628.57-.75.206-.07.533-.06.73.032zm-5.473 2.8c.076.038.21.118.3.176l.158.11.156-.107c.2-.128.55-.3.58-.275.03.034-.08.342-.17.474-.1.146-.33.3-.48.326-.13.025-.32-.045-.47-.168-.11-.097-.28-.38-.32-.546-.02-.098-.02-.104.05-.083.04.02.14.06.21.1zM27.672 34.2c.198.06.4.21.486.367.036.066.088.243.113.393.04.21.08.324.18.5.17.3.5.633.76.767l.2.107-.21-.232c-.11-.125-.26-.308-.31-.403-.11-.2-.15-.43-.09-.52.04-.05.09-.03.67.24.55.26.93.43 1.48.67.17.07.19.14.06.25-.08.08-.37.24-.43.24-.053 0-.04.03.12.2.34.37.55.69.55.84 0 .1-.06.14-.143.11-.1-.04-.346-.308-.517-.55l-.14-.21-.148.1c-.26.19-.59.33-.837.345-.2.01-.227.003-.315-.07-.122-.107-.17-.254-.153-.495.01-.104.01-.192-.01-.192-.01 0-.08.044-.16.1-.195.13-.32.317-.46.696-.15.39-.23.483-.42.483-.33 0-.51-.35-.51-.98 0-.545.12-1.027.38-1.51l.13-.256-.144.09c-.28.17-.51.25-.71.23-.16-.012-.19-.024-.28-.122-.17-.183-.244-.57-.16-.82.114-.35.612-.54 1.06-.41zm-8.15-14.532c-3.438.067-6.327.495-9.385 1.39-.348.1-.644.177-.653.165-.043-.04.058-.263.158-.352.06-.05.104-.09.1-.09-.005 0-.112.03-.237.06-.373.11-.614.21-.874.37-.79.51-1.59.74-2.65.78-.47.02-.49.03-.68.12-.48.24-1.29.78-1.86 1.23-.46.37-1.1 1.02-1.1 1.12 0 .01.14-.06.32-.15.59-.32 1.72-.88 2.29-1.13 1.39-.62 2.45-.93 3.14-.94.41 0 .59.05.76.24.14.16.15.17.08.29-.16.32-.96.79-3.23 1.93-.77.39-1.6.82-1.83.96-.955.56-2.05 1.33-2.75 1.93-.343.3-1.024.987-1.082 1.097-.016.035.1-.044.268-.175 1.13-.9 2.767-1.92 3.66-2.27.325-.13.667-.194.81-.154.226.06.287.237.16.478-.07.137-.45.58-.65.76-2.05 1.81-2.87 2.626-3.467 3.43-.256.34-.515.75-.66 1.036-.17.33-.173.37-.014.184.23-.27.676-.694 1.003-.96.942-.75 2.03-1.27 2.243-1.07.137.12.04.39-.303.87-.35.484-.546.814-.84 1.422-.76 1.54-1.178 3.248-1.178 4.8 0 .956.175 1.81.517 2.526.126.26.416.727.39.62-.39-1.425-.414-2.71-.078-3.98.41-1.55 1.35-2.616 2.54-2.873l.246-.05.083-.32c.248-.94.53-1.41 1.158-1.937.29-.24.556-.407.837-.517.236-.096.544-.157.624-.126.08.03-.11.19-.453.36-.3.16-.3.16-.06.12.26-.05 1.38-.18 1.936-.23 1.35-.11 2.584-.115 2.853 0 .144.06.14.14-.005.234l-.12.07.52.02c.59.02.887.06 1.29.167.92.24.96.63.1.977l-.236.097-.393-.04c-.216-.02-.69-.05-1.05-.06-.577-.02-.67-.017-.735.03-.1.063-.59.145-1.876.31-.61.08-1.28.17-1.51.21-.42.08-.904.2-.88.22.01.01.197-.01.42-.03 2.6-.3 4.75-.2 5.22.24.067.063.09.07.214.04.075-.016.362-.037.64-.046.96-.035 1.692.164 1.876.51.08.15.046.255-.15.442-.32.3-.9.523-1.42.55-.27.01-.35.003-.506-.048-.187-.063-.187-.063-.474-.005-.74.15-1.67.497-2.66.995-.42.21-.925.5-.91.52.01.005.14-.03.29-.08 1.31-.446 2.853-.82 4.12-.99.483-.07 1.387-.097 1.646-.05.444.08.664.3.47.48-.33.298-1.7.62-2.66.625-.272 0-.385-.012-.465-.05-.12-.057-.12-.057-.93.206-3.02.98-7.46 3.115-9.854 4.734-.48.327-.63.446-.362.29 1.805-1.05 4.36-2.263 6.344-3.014 2.3-.87 3.93-1.29 6.22-1.615 1.213-.177 1.55-.205 2.55-.205 1.06 0 1.286.03 1.67.218.28.137.383.26.4.485.023.262-.102.43-.435.592-.34.167-.65.253-1.89.51-1.05.22-1.69.38-2.21.555-.375.126-.964.377-.94.398 0 .008.12-.022.25-.065 2-.62 5.5-1.26 7.42-1.34.454-.02.567-.05.36-.087-.17-.03-.68-.2-.776-.26-.29-.17.2-.47 1.03-.64.53-.11.84-.14 1.37-.145.58 0 .79.045.96.188.117.097.12.207.025.354-.243.368-.964.28-.89-.105.016-.085.01-.085-.055-.04-.033.026-.1.112-.14.194-.07.13-.08.186-.08.455.008.76.33 1.34 1.3 2.303.53.52.58.58.697.82.07.14.15.36.178.49.058.25.07.92.037 1.37-.024.27-.02.29.025.23.108-.13.32-.61.456-.996.273-.82.38-1.66.25-2.075-.052-.18-.14-.3-.14-.19 0 .11-.16.376-.25.42-.132.07-.2.056-.342-.075-.237-.22-.42-.74-.524-1.47-.06-.428-.06-.734 0-.96.19-.72.714-1.148 1.52-1.24.15-.017.38-.02.504-.01.193.02.242.034.312.107.27.27-.17 1.005-.6 1.005-.13 0-.21-.04-.337-.15l-.09-.08.015.35c.042.78.31 1.366.92 2.01.37.39 1.036.91 1.537 1.21.027.013-.003-.045-.06-.125-.12-.177-.19-.37-.16-.48.1-.4.73-.43 1.07-.05.18.2.26.46.306.98.04.384.04.412.14.56.14.194.37.472.73.86.52.56 2.06 1.95 2.12 1.915.08-.05.83-.71 1.28-1.136.66-.615 1.258-1.25 1.52-1.644.108-.142.11-.173.15-.564.044-.532.118-.77.298-.97.343-.38.97-.353 1.073.047.03.11-.04.3-.16.48-.06.08-.09.136-.066.12.5-.3 1.166-.82 1.535-1.21.61-.642.88-1.23.926-2.01l.02-.35-.087.078c-.13.113-.208.15-.336.15-.23 0-.476-.2-.616-.5-.1-.22-.1-.4.01-.505.07-.074.12-.09.31-.108.13-.01.352-.007.504.01.8.093 1.33.52 1.52 1.238.06.23.06.536 0 .96-.104.73-.29 1.25-.523 1.47-.14.13-.21.143-.344.073-.092-.045-.247-.314-.247-.42 0-.11-.09.006-.15.19-.126.417-.02 1.257.253 2.076.13.39.346.864.45.995.046.06.05.04.03-.23-.037-.45-.02-1.118.033-1.37.03-.128.11-.348.18-.49.115-.24.17-.3.692-.826.97-.97 1.294-1.543 1.3-2.31 0-.27-.01-.32-.076-.453-.04-.08-.104-.166-.14-.193-.07-.04-.07-.04-.06.044.07.39-.65.473-.89.107-.1-.145-.095-.255.02-.35.17-.143.383-.186.96-.186.535 0 .843.033 1.375.143.83.17 1.32.472 1.03.64-.1.055-.61.223-.78.254-.207.04-.094.064.36.085 1.92.09 5.423.72 7.42 1.345.13.04.25.07.25.066.025-.02-.564-.27-.937-.393-.52-.17-1.17-.332-2.215-.552-1.236-.255-1.55-.34-1.893-.51-.333-.16-.46-.33-.44-.59.02-.223.126-.348.4-.483.39-.19.61-.216 1.705-.213.835 0 1.045.013 1.632.08 2.693.32 4.58.782 7.1 1.735 1.98.75 4.54 1.962 6.35 3.012.26.156.11.04-.37-.29-2.4-1.62-6.84-3.75-9.86-4.734-.81-.264-.81-.264-.938-.206-.08.04-.19.05-.464.05-.955 0-2.33-.33-2.653-.62-.2-.18.02-.4.466-.48.26-.046 1.165-.02 1.648.05 1.27.172 2.81.545 4.12.99.15.05.28.09.29.08.02-.02-.482-.31-.903-.52-.99-.497-1.915-.84-2.654-.995-.29-.056-.29-.056-.474.01-.51.17-1.48-.086-1.924-.51-.197-.19-.233-.29-.15-.444.18-.344.916-.543 1.875-.51.274.01.562.03.64.046.12.027.145.02.212-.043.2-.195.71-.326 1.48-.387.833-.064 2.57 0 3.75.146.215.03.4.04.404.038.026-.023-.46-.143-.88-.22-.226-.04-.9-.133-1.505-.21-1.29-.165-1.777-.25-1.878-.314-.066-.045-.158-.048-.73-.03-.365.012-.84.04-1.05.06l-.396.035-.24-.092c-.856-.346-.816-.73.103-.972.4-.102.7-.142 1.29-.163l.514-.02-.116-.07c-.147-.09-.15-.18 0-.24.27-.11 1.502-.11 2.85.008.552.05 1.673.18 1.935.23.23.047.23.04-.07-.112-.296-.15-.53-.32-.486-.36.036-.04.42.04.65.13.443.18.974.58 1.326 1 .307.37.57.97.744 1.7.02.067.046.08.256.125 1.204.25 2.18 1.373 2.572 2.96.3 1.23.27 2.51-.11 3.89-.03.11.26-.354.39-.614.34-.714.51-1.57.51-2.525 0-1.55-.42-3.26-1.176-4.8-.3-.61-.495-.94-.84-1.42-.35-.48-.44-.748-.31-.87.214-.2 1.3.32 2.24 1.07.327.263.77.69 1.005.96.16.183.16.146-.013-.187-.14-.287-.4-.696-.658-1.035-.598-.805-1.42-1.62-3.46-3.437-.2-.18-.58-.63-.65-.76-.13-.247-.067-.42.16-.48.142-.04.484.022.81.153.89.354 2.53 1.37 3.654 2.27.162.13.28.21.263.176-.053-.11-.74-.8-1.08-1.1-.7-.6-1.793-1.37-2.75-1.928-.235-.14-1.06-.568-1.83-.95-2.267-1.13-3.077-1.61-3.24-1.93-.063-.12-.06-.137.08-.29.175-.19.35-.246.76-.243.69.006 1.748.32 3.138.94.573.254 1.703.813 2.293 1.133.17.093.31.163.31.15 0-.1-.64-.75-1.1-1.117-.576-.454-1.386-.99-1.865-1.23-.194-.094-.215-.097-.688-.116-1.048-.04-1.867-.273-2.618-.76-.27-.17-.52-.28-.88-.38-.145-.04-.264-.07-.27-.07-.003 0 .04.04.1.09.1.09.2.313.16.353-.01.01-.306-.068-.654-.168-1.89-.55-3.818-.944-5.62-1.15-1.61-.18-3.906-.28-5.5-.24-.97.027-.96.03.137.12 1.543.124 2.514.274 3.473.54 1.89.525 4.08 1.273 4.57 1.563.237.14.19.215-.15.267-.125.01-.317.04-.43.06-.12.012-.25.043-.3.064-.08.035-.07.04.14.06 1.055.11 3.1 1.11 4.52 2.21.386.3.99.875 1.184 1.132.29.38.43.79.35 1.04-.06.18-.26.374-.5.484-.407.185-.82.25-1.71.28l-.635.02.21.05c.506.13.985.37 1.36.68.624.52.97 1.26.676 1.45-.06.044-.18.056-.74.074-.61.02-1.22.077-1.62.15-.14.03-.17.05-.2.12-.07.195-.37.27-1.18.29-1.313.04-2.996.296-4.22.647-1.372.398-2.64 1.03-3.736 1.88-.34.267-.85.75-1.05 1.01l-.143.18.11-.04c.06-.027.147-.048.196-.048.106 0 .25.104.25.183 0 .08-.16.202-.446.35-.21.11-.36.26-.316.304.01.01.145-.01.303-.045.42-.09 1.19-.113 1.642-.046.57.083 1.294.37 1.443.572.17.225-.14.42-.867.53-.44.07-1.56.07-2.185 0-1.23-.137-1.88-.34-1.88-.586 0-.08.145-.21.31-.285l.11-.055-.373-.032c-.6-.06-.99-.21-1.224-.477-.2-.227-.23-.43-.092-.655l.06-.1h-.12c-.223 0-.654-.16-.812-.3-.03-.025-.146-.184-.253-.35-.18-.274-.31-.42-.373-.42-.017 0 .01.06.062.13.11.15.184.38.184.566 0 .077-.033.3-.076.505-.11.53-.1.58.09.71.08.05.08.05.08-.01 0-.07.09-.16.16-.16.072 0 .192.15.412.52.186.32.207.34.216.26.024-.212.186-.252.41-.102.255.17.51.544.62.92.06.217.04.357-.08.467-.234.222-.73.06-1.29-.42-.27-.234-.3-.46-.074-.5.09-.015.313.027.46.09.105.044.05-.04-.127-.203-.17-.15-.527-.38-1.01-.66-.275-.152-.54-.41-.58-.57-.04-.12-.037-.137.085-.357.094-.17.124-.266.124-.36 0-.28-.298-.63-.68-.816-.284-.14-.37-.16-.2-.04.18.12.31.263.402.45.11.22.12.32.053.47-.12.27-.402.41-.78.38-.27-.02-.52-.115-.68-.25-.17-.15-.203-.24-.163-.46.05-.28.044-.5-.03-.62-.06-.105-.14-.14-.103-.047.06.15.05.246-.02.33-.09.106-.21.11-.326.02-.566-.45-1.512-.904-2.004-.962-.174-.02-.18-.022.26.17.95.42 1.478.94 1.325 1.304-.04.097-.055.106-.144.09-.05-.01-.26-.07-.45-.14-.19-.064-.51-.16-.7-.2-.19-.045-.4-.106-.46-.13-.22-.11-.37-.45-.493-1.11-.055-.3-.064-.49-.07-1.37l-.02-1.015-.084-.115c-.05-.06-.18-.27-.29-.46-.11-.19-.21-.344-.22-.344-.015 0-.11.157-.22.346-.11.19-.247.4-.3.47l-.1.125.02.32c.08.98-.017 2.17-.22 2.71-.08.2-.3.453-.42.48-.394.083-.93.23-1.197.328-.408.15-.45.15-.505.02-.15-.36.38-.882 1.324-1.3.444-.192.438-.19.264-.17-.493.06-1.44.515-2.008.96-.12.096-.24.09-.33-.014-.077-.085-.08-.18-.025-.33.04-.09-.04-.06-.105.047-.07.116-.08.34-.03.617.04.22.004.316-.167.46-.16.14-.41.23-.68.25-.377.034-.664-.11-.783-.38-.063-.15-.05-.246.06-.47.093-.185.22-.33.4-.45.17-.116.083-.1-.2.04-.38.183-.68.537-.68.81 0 .098.03.19.127.36.12.22.124.236.09.358-.048.16-.31.413-.58.57-.488.275-.845.51-1.01.66-.18.162-.235.25-.128.205.57-.246.82.023.373.405-.56.48-1.053.64-1.29.417-.115-.11-.14-.25-.075-.465.11-.38.36-.75.612-.92.228-.15.39-.11.414.1.01.08.03.06.217-.26.23-.38.34-.52.42-.52.068 0 .15.093.15.164 0 .054.01.054.09 0 .188-.124.19-.18.08-.71-.04-.2-.074-.43-.074-.504 0-.186.075-.415.185-.565.05-.07.08-.13.065-.13-.064 0-.195.14-.38.415-.106.163-.22.322-.25.35-.16.14-.59.3-.817.3h-.12l.065.096c.134.23.107.43-.095.658-.234.27-.622.415-1.23.474l-.374.04.112.055c.166.07.31.204.31.283 0 .25-.65.45-1.88.59-.622.07-1.742.07-2.182 0-.724-.118-1.033-.31-.865-.537.15-.2.87-.49 1.444-.577.454-.07 1.22-.047 1.645.045.16.034.295.056.304.047.047-.044-.106-.19-.314-.3-.29-.15-.445-.274-.445-.35 0-.08.145-.183.25-.183.05 0 .136.02.197.045l.105.04-.144-.18c-.2-.254-.71-.74-1.05-1.006-1.1-.85-2.36-1.482-3.732-1.88-1.22-.35-2.904-.604-4.22-.644-.813-.02-1.11-.09-1.183-.283-.026-.07-.06-.09-.2-.12-.403-.076-.98-.13-1.576-.147-.35-.01-.67-.03-.71-.04-.04-.02-.07-.05-.07-.1 0-.118.23-.4.52-.64.837-.698 2.1-1.27 3.228-1.455l.337-.06-.64-.02c-1.613-.05-2.63-.295-3.033-.735-.144-.16-.22-.323-.22-.494 0-.566.846-1.445 2.14-2.23 1.4-.846 3.107-1.515 4.066-1.59.247-.02.28-.03.225-.06-.036-.02-.186-.058-.336-.085-.837-.15-.87-.16-.87-.24 0-.26 2.856-1.46 4.316-1.815.637-.15 1.81-.31 3.047-.41 1.047-.08 1.066-.09.415-.11-.57-.016-1.28-.02-2.03-.004zm26.88 2.388c.14.046.384.18.54.306.158.125.302.3.274.33-.012.01-.14-.034-.29-.095-.41-.166-.64-.212-1-.196-.423.02-.564.1-.564.33 0 .2.336.71.685 1.04.366.34.684.52 2.43 1.36.54.26.71.38.98.72.224.27.304.42.282.51-.03.1-.18.16-.35.15-.34-.033-.7-.314-1.18-.915l-.27-.33h-.4c-.36 0-.4.008-.39.054 0 .03-.02.065-.07.086l-.077.036.11.05c.135.055.36.26.62.57.223.267.584.584.904.8.603.408 1.18.585 1.69.51.294-.04.434-.11.513-.252.055-.095.058-.122.025-.28-.045-.21-.216-.504-.5-.86-.26-.32-.296-.383-.247-.47.03-.045.03-.06-.013-.07-.17-.056-.328-.14-.576-.316-.478-.34-1.227-.735-2.018-1.07-.485-.203-.83-.387-.968-.51-.25-.23-.37-.46-.25-.506.095-.036.29-.017.46.05.15.05.23.12.46.35l.28.285h.864l-.02-.07c-.01-.034-.07-.15-.127-.25-.31-.53-.686-.914-1.09-1.112-.234-.113-.585-.21-.75-.21l-.075.005.08.02zm-16.31.37c-.227.05-.505.205-.65.363-.252.28-.383.63-.576 1.53-.168.79-.192.86-.317.97-.07.05-.14.09-.17.09-.04 0-.02.02.04.06.05.03.11.07.12.1.01.02.03.29.04.6.01.54.02.57.1.74.16.33.47.46 1.09.46.31 0 .41-.01.58-.07.53-.18.82-.58 1-1.34.08-.33.122-.42.26-.49l.1-.06-.09-.035c-.158-.068-.167-.114-.125-.773.05-.73.03-1.43-.034-1.615-.085-.236-.2-.368-.41-.468-.173-.09-.224-.1-.52-.11-.18-.008-.39 0-.47.016zm-12.478-.364c-.947.077-1.603.28-2.07.65-.108.087-1.244 1.14-2.527 2.34L10.69 27.24l.837.02.354-.33c.2-.18 1.2-1.162 2.22-2.18 1.05-1.04 1.78-1.74 1.67-1.602-.77.943-3.29 4.077-3.29 4.09 0 .012.12.018.26.018H13l2.313-2.05c1.27-1.13 2.35-2.09 2.404-2.132.05-.042-.173.196-.49.532-.816.852-1.128 1.185-1.6 1.71-.227.254-.69.76-1.02 1.13-.338.37-.637.703-.67.74l-.06.07h.884l.6-.68c.7-.795.91-1.006 1.12-1.1.12-.056.14-.077.11-.108-.03-.027-.03-.058-.01-.125.04-.115 1.95-2.287 2.3-2.62.3-.284.64-.47.97-.54l.2-.043-.2-.003c-.33-.003-.8.055-1.09.137-.47.136-1.03.444-1.48.82-.42.345-1.87 1.597-2.124 1.836-.59.546-.657.607-.596.534.033-.043.213-.256.396-.473.187-.22.62-.75.975-1.17.35-.42.73-.87.84-.98.35-.35.63-.5 1.22-.63.246-.05.25-.05.108-.05-.08.01-.29.01-.454.03zm24.764.413c.28.47 1.457 2.385 1.52 2.474.142.2.157.27.087.36-.034.04-.086.08-.113.08-.073 0-.01.05.122.09.22.07.39.27.758.88l.446.73.103.16h.89l-.4-.64c-.22-.35-.43-.7-.47-.77-.09-.18-.08-.29.02-.39.08-.07.08-.08.03-.08-.09 0-.35-.17-.5-.32l-.132-.14h.39c.445 0 .6-.04.726-.17.077-.07.09-.11.09-.25 0-.28-.167-.61-.573-1.11-.44-.547-.7-.75-1.1-.87-.173-.05-.33-.06-1.04-.07-.473-.01-.83-.01-.82.01zm-20.81.256c-.1.15-.182.28-.182.29 0 .01.177.02.394.03l.397.01-.644.99c-.715 1.1-.788 1.18-1.173 1.31l-.192.07.088.07c.076.06.092.09.092.2 0 .17-.074.31-.53 1.01-.197.3-.356.55-.356.56 0 .01.202.017.452.017h.45l.38-.635c.48-.794.664-1 1.036-1.15.095-.04.15-.073.122-.073-.082 0-.186-.14-.186-.25 0-.13.003-.135.663-1.226l.55-.9h.79l.14-.255c.08-.14.14-.268.14-.277 0-.013-.51-.023-1.13-.023h-1.12l-.19.277zm32.392 3.64l.23.24c.125.14.317.33.427.45l.195.21h-2.5l-.642-.68c-.703-.75-.96-.98-1.22-1.09-.16-.07-.167-.07-.118-.12.04-.04.043-.07.02-.13-.014-.04-.588-.66-1.28-1.39-.686-.72-1.254-1.33-1.26-1.34-.006-.02.25-.035.61-.04.596-.01.62-.01.62-.07 0-.07-.26-.24-.473-.304l-.14-.042h.15c.35-.003.78.205 1.34.65l.39.31-.65.01c-.36.005-.65.01-.65.017 0 .004.24.245.53.53l.52.527h1.23l.36.325.36.33-1.3.03.1.096c.052.05.162.13.24.19.16.1.624.34.68.34.027 0 .03.02 0 .08-.053.15.045.34.326.635l.247.255h1.624zm-26.236-4.29c-.284.06-.47.16-.672.37-.25.25-.336.43-.782 1.64-.403 1.1-.464 1.21-.684 1.29l-.1.04.072.06c.135.11.104.27-.186 1.05-.144.387-.26.71-.26.73 0 .015.526.027 1.253.027h1.25l.045-.16.122-.442.076-.283h-.78c-.426 0-.774-.01-.774-.02 0-.015.042-.152.094-.31.104-.31.23-.48.422-.58.1-.055.104-.06.036-.08-.04-.01-.088-.067-.113-.12-.033-.087-.033-.127.003-.264.09-.33.746-2.25.822-2.4.15-.296.34-.464.59-.523.11-.027.106-.027-.068-.027-.1 0-.265.02-.366.04zm7.403 0c.25.08.34.24.385.67.025.23-.067 2.22-.11 2.38-.015.07-.073.15-.13.2l-.105.1.073.07c.13.13.144.24.123.9-.013.34-.028.677-.037.747l-.018.13h.96l-.026-.735-.02-.735.934.02.17.41c.098.23.236.554.306.725l.13.313h.472c.26 0 .47-.01.47-.02 0-.005-.153-.313-.342-.68-.296-.576-.342-.69-.354-.842-.01-.15-.003-.19.052-.234.06-.053.06-.053-.09-.13-.28-.14-.372-.28-.866-1.34-.25-.54-.514-1.07-.587-1.19-.31-.51-.67-.73-1.255-.76-.266-.017-.27-.017-.135.026zm-18.31 5.18c-.678 0-1.234 0-1.234-.01s.24-.3.538-.66c.3-.35.58-.7.61-.77.09-.15.1-.27.02-.35-.06-.05-.06-.05.09-.09.17-.04.4-.17.55-.31.06-.05.57-.652 1.14-1.34l1.04-1.245h.96c.77 0 .96.01.94.037l-.2.29-.18.256h-1.27l-.4.5c-.22.277-.4.51-.4.52 0 .01.28.02.61.025l.61.01-.24.33-.23.33h-1.32l-.1.13c-.16.21-.17.45-.03.495.06.017.04.03-.12.09-.1.037-.25.116-.34.177-.16.12-.49.46-.61.627l-.07.1h1.53l-.32.443-.33.443h-1.23zm9.02-5.19c-.28.04-.63.16-.83.29-.276.18-.48.42-1.376 1.61-.92 1.23-1 1.31-1.33 1.41-.14.04-.14.04-.08.1.08.07.08.19.01.34-.03.06-.27.41-.55.77l-.49.66.48.01c.47.01.48.01.53-.06l.5-.73.45-.66h.46c.26 0 .46.01.46.028s-.07.293-.16.62l-.196.706-.03.113h.926l.15-.666c.08-.365.17-.725.202-.8.07-.166.218-.325.328-.353l.08-.02-.08-.043c-.084-.045-.18-.182-.18-.27 0-.06.377-1.69.49-2.14.146-.557.287-.75.62-.868l.16-.053-.15.004c-.083 0-.25.015-.36.03zm14.123 5.18h-.79c-.008-.01-.102-.3-.21-.65-.106-.35-.216-.69-.244-.77-.064-.17-.232-.36-.342-.38-.076-.02-.08-.02-.02-.05.094-.05.136-.12.136-.22 0-.17-.6-2.11-.748-2.42-.156-.323-.373-.55-.635-.653l-.16-.064.24.02c.454.036.775.185 1.06.497.204.223.298.437.683 1.52.18.505.354.98.39 1.05.07.14.242.28.34.28.05 0 .043.015-.037.09-.122.11-.122.203-.006.496.05.12.1.26.11.304l.022.086h1.6l.18.43.18.438-1.27.01h-.5zm-.547-4.76c.003.02.482.58 1.063 1.24.577.67 1.07 1.24 1.09 1.28.02.04.037.1.04.14 0 .08-.14.26-.208.26-.03.01.034.05.134.09.303.14.385.26.767 1.05l.34.71.43.01c.23.01.43 0 .43-.01s-.16-.32-.36-.7c-.39-.75-.42-.87-.29-1.03.07-.09.07-.11.01-.11-.12 0-.41-.21-.52-.383-.03-.036-.11-.546-.2-1.236-.09-.65-.16-1.207-.17-1.246-.02-.063-.03-.07-.38-.07-.21 0-.37.016-.37.03 0 .077.18 1.204.23 1.39.03.114.04.214.04.218-.01.01-.13-.14-.28-.33-.15-.19-.45-.553-.68-.813l-.408-.476-.38-.01c-.237-.004-.374.006-.365.02zm-6.405-.04c-.336.09-.538.25-.672.54-.12.26-.16.57-.18 1.4-.025.84-.043.93-.205 1l-.1.048.1.046c.12.07.19.22.24.59.1.68.32 1.03.75 1.238.16.077.2.08.6.08.43 0 .43 0 .64-.1.38-.184.51-.444.57-1.165.05-.454.05-.47.16-.594.09-.1.09-.1.03-.1-.03 0-.1-.037-.14-.08-.07-.07-.09-.075-.45-.075h-.37l-.02.42c-.017.452-.05.59-.17.715-.156.17-.47.09-.64-.16-.16-.245-.175-.346-.175-1.635v-1.2l.07-.145c.09-.185.214-.267.403-.267.11 0 .155.016.22.086.08.08.176.37.176.53v.09h.71l-.02-.175c-.03-.247-.125-.55-.235-.715-.105-.156-.315-.306-.505-.36-.17-.043-.54-.034-.766.018zm-2.44.55c.265.11.296.48.137 1.76-.128 1.04-.232 1.4-.46 1.59-.16.14-.447.15-.612.03-.25-.19-.257-.44-.034-1.73.08-.5.17-.97.19-1.04.08-.33.26-.56.47-.62.13-.032.18-.032.3.02zm-6.928 2.03h.663l.21-.7c.117-.39.263-.84.33-1.01.065-.17.11-.31.108-.32 0 0-.04.06-.09.14-.06.12-.84 1.34-1.16 1.82l-.05.09zm12.984-.66c.134.36.247.65.247.66 0 .01-.14.01-.33.01h-.34v-.14c0-.26-.05-1.57-.07-1.76-.02-.18-.01-.17.12.21.08.22.25.69.38 1.04zm7.547-1.25c.18.08.37.26.56.53.33.46.26.6-.28.6h-.21l-.38-.58c-.21-.32-.38-.59-.38-.61 0-.053.54 0 .7.07z" fill="#fff"/></svg>