<svg viewBox="0 0 64 64" xmlns="http://www.w3.org/2000/svg" fill-rule="evenodd" clip-rule="evenodd" stroke-linejoin="round" stroke-miterlimit="1.414"><path d="M63.998 31.35v-1.126H62.6v-1.75l-.047.015-1.313.4h-.025v1.32h-2.072v-.74c0-.34.076-.61.228-.78.15-.18.37-.27.64-.27.2 0 .41.04.61.14l.05.02V27.4l-.02-.01c-.19-.067-.45-.102-.77-.102-.4 0-.77.09-1.1.267-.32.174-.58.425-.75.745-.18.32-.27.69-.27 1.096v.81h-.97v1.124h.98v4.74h1.4v-4.74h2.075v3.013c0 1.24.58 1.87 1.74 1.87.19 0 .39-.023.59-.066.206-.043.35-.09.43-.135l.02-.01v-1.13l-.06.037c-.073.05-.17.09-.28.12-.11.03-.202.05-.274.05-.27 0-.47-.07-.596-.21-.127-.14-.19-.4-.19-.75v-2.77H64zm-10.346 3.74c-.507 0-.907-.168-1.19-.5-.282-.332-.426-.807-.426-1.41 0-.622.144-1.11.427-1.448.282-.336.678-.507 1.178-.507.49 0 .87.163 1.15.485.28.324.42.807.42 1.436 0 .637-.13 1.127-.39 1.454-.26.325-.65.49-1.16.49m.06-5.007c-.96 0-1.73.283-2.28.842-.54.56-.82 1.333-.82 2.3 0 .92.27 1.658.81 2.196.54.54 1.27.82 2.17.82.94 0 1.69-.29 2.24-.85.55-.56.825-1.33.825-2.27 0-.93-.26-1.67-.774-2.21-.517-.53-1.24-.8-2.15-.8m-5.36 0c-.66 0-1.205.17-1.62.5-.42.337-.63.77-.63 1.3 0 .28.044.52.135.73.09.21.23.39.417.547.185.15.47.31.85.474.32.13.555.24.706.33.15.086.256.17.31.256.06.08.09.193.09.33 0 .395-.294.586-.9.586-.226 0-.483-.045-.764-.14-.283-.09-.546-.223-.783-.394l-.06-.04v1.34l.02.01c.2.09.45.17.74.23s.56.09.79.09c.72 0 1.29-.17 1.71-.5.42-.333.64-.78.64-1.33 0-.394-.116-.734-.343-1.01-.226-.27-.62-.52-1.163-.74-.43-.174-.71-.32-.83-.43-.11-.11-.16-.26-.16-.452 0-.17.07-.305.213-.415.144-.113.344-.17.594-.17.24 0 .47.036.71.108.24.074.45.17.62.29l.06.04v-1.28l-.02-.01c-.162-.07-.373-.13-.63-.177-.254-.05-.486-.07-.69-.07m-5.9 5.007c-.502 0-.902-.167-1.183-.5-.282-.33-.425-.806-.425-1.41 0-.62.14-1.11.427-1.447.28-.34.68-.51 1.177-.51.486 0 .87.164 1.148.486.277.327.42.81.42 1.44 0 .634-.135 1.124-.396 1.45-.255.327-.645.49-1.16.49m.07-5.005c-.97 0-1.74.28-2.287.84-.55.56-.825 1.33-.825 2.3 0 .92.27 1.66.804 2.2.535.54 1.262.82 2.162.82.94 0 1.69-.29 2.24-.857.542-.566.82-1.333.82-2.277 0-.932-.26-1.677-.77-2.21-.513-.536-1.236-.807-2.15-.807m-5.23 1.153v-1.02h-1.38v5.86h1.38v-3c0-.51.117-.93.346-1.247.224-.316.524-.47.89-.47.125 0 .265.02.416.06.15.04.26.08.32.13l.06.04v-1.39l-.02-.01c-.13-.06-.31-.086-.54-.086-.35 0-.66.112-.925.33-.233.194-.402.46-.53.79h-.03zm-3.86-1.16c-.633 0-1.2.136-1.68.4-.48.27-.854.65-1.11 1.14-.25.49-.38 1.056-.38 1.69 0 .553.13 1.06.37 1.51.25.45.596.8 1.036 1.04.44.245.946.37 1.51.37.654 0 1.214-.13 1.663-.39l.02-.01v-1.27l-.06.04c-.202.15-.43.27-.674.353-.246.086-.468.13-.66.13-.545 0-.98-.17-1.295-.5-.32-.34-.48-.81-.48-1.4 0-.6.17-1.08.5-1.43.33-.36.763-.54 1.294-.54.45 0 .89.15 1.31.452l.06.04V30.4l-.02-.01c-.16-.09-.37-.16-.64-.217-.266-.057-.525-.08-.77-.08m-4.118.14h-1.38v5.87h1.38v-5.87zm-.677-2.5c-.226 0-.424.075-.59.23-.16.152-.243.345-.243.574 0 .224.08.414.243.564.16.15.36.23.59.23.23 0 .43-.073.59-.222.163-.15.246-.34.246-.566 0-.22-.08-.41-.24-.57-.16-.15-.36-.23-.6-.23M25.2 29.8v6.3h1.41v-8.18h-1.95L22.187 34l-2.404-6.08h-2.03v8.18h1.323v-6.3h.046l2.54 6.3h1l2.5-6.3h.045zM7.17 32.34h6.493v6.492h-6.5zm-7.17 0h6.49v6.492H-.002zm7.17-7.172h6.49v6.493H7.167zm-7.17 0h6.49v6.493H-.002z" fill="#fff" fill-rule="nonzero"/></svg>