<svg viewBox="0 0 64 64" xmlns="http://www.w3.org/2000/svg" fill-rule="evenodd" clip-rule="evenodd" stroke-linejoin="round" stroke-miterlimit="1.414"><path d="M63.998 31.35v-1.126H62.6v-1.75l-.047.015-1.313.4h-.025v1.325h-2.072v-.74c0-.34.076-.606.228-.78.15-.175.37-.263.64-.263.2 0 .41.047.61.14l.05.02V27.41l-.02-.01c-.19-.067-.45-.102-.77-.102-.408 0-.778.09-1.1.267-.325.174-.58.425-.757.745-.18.32-.27.69-.27 1.097v.81h-.972v1.125h.974v4.74h1.397v-4.74h2.073v3.012c0 1.24.583 1.87 1.74 1.87.19 0 .39-.023.59-.066.208-.043.35-.09.43-.135l.02-.01V34.88l-.056.038c-.075.05-.17.093-.28.123-.11.03-.204.05-.276.05-.27 0-.47-.07-.594-.212-.126-.144-.19-.397-.19-.752v-2.77H64zm-10.346 3.74c-.507 0-.907-.168-1.19-.5-.282-.332-.426-.807-.426-1.41 0-.622.144-1.11.427-1.448.282-.336.678-.507 1.178-.507.49 0 .87.163 1.15.485.28.324.42.807.42 1.436 0 .637-.13 1.127-.39 1.454-.26.325-.65.49-1.16.49m.06-5.007c-.965 0-1.734.283-2.282.842-.546.56-.824 1.333-.824 2.3 0 .92.27 1.658.807 2.196.535.54 1.263.82 2.163.82.937 0 1.69-.29 2.237-.853.55-.566.824-1.333.824-2.277 0-.933-.26-1.678-.774-2.21-.515-.537-1.237-.808-2.15-.808m-5.36 0c-.66 0-1.203.168-1.62.5-.417.334-.63.77-.63 1.3 0 .277.046.52.137.73.09.207.23.39.417.544.186.15.47.31.85.474.32.13.556.24.707.33.15.084.256.17.31.254.06.08.09.195.09.33 0 .397-.294.588-.9.588-.226 0-.483-.047-.764-.14-.283-.092-.546-.225-.783-.396l-.06-.042v1.34l.02.01c.2.09.448.17.74.23.294.062.56.093.79.093.716 0 1.29-.17 1.71-.503.42-.336.637-.784.637-1.332 0-.395-.116-.735-.343-1.008-.226-.273-.617-.522-1.163-.742-.432-.174-.71-.32-.83-.43-.11-.108-.162-.26-.162-.452 0-.17.07-.308.213-.418.144-.112.344-.168.594-.168.232 0 .47.036.71.108.234.073.442.17.615.287l.058.04v-1.28l-.02-.01c-.162-.07-.373-.128-.63-.175-.254-.048-.486-.07-.687-.07m-5.9 5.006c-.505 0-.905-.167-1.186-.5-.284-.33-.427-.806-.427-1.41 0-.62.143-1.11.427-1.447.28-.336.677-.507 1.176-.507.485 0 .87.163 1.147.485.278.325.42.808.42 1.437 0 .637-.134 1.127-.395 1.454-.253.326-.643.49-1.16.49m.07-5.006c-.97 0-1.738.283-2.285.842-.547.56-.824 1.333-.824 2.3 0 .92.27 1.658.802 2.196.536.54 1.263.82 2.163.82.94 0 1.69-.29 2.24-.856.547-.566.825-1.333.825-2.277 0-.933-.26-1.678-.77-2.21-.515-.537-1.238-.808-2.15-.808m-5.23 1.156v-1.02h-1.38v5.865h1.38v-3c0-.51.115-.93.344-1.247.224-.316.524-.47.89-.47.125 0 .265.02.416.06.15.04.258.08.32.13l.06.04v-1.39l-.022-.01c-.13-.058-.31-.086-.54-.086-.347 0-.657.112-.923.33-.234.194-.403.458-.532.788H37.3zm-3.86-1.16c-.635 0-1.2.133-1.68.4-.484.27-.856.65-1.11 1.14-.25.485-.38 1.053-.38 1.685 0 .555.126 1.063.37 1.512.247.45.594.8 1.034 1.044.438.242.946.366 1.508.366.656 0 1.216-.13 1.665-.39l.02-.01V34.57l-.06.042c-.203.15-.43.267-.675.352-.244.085-.466.128-.66.128-.543 0-.977-.17-1.293-.503-.32-.34-.48-.81-.48-1.4 0-.598.17-1.08.498-1.43.33-.36.764-.54 1.295-.54.45 0 .894.154 1.312.457l.058.042v-1.33l-.018-.01c-.158-.09-.372-.16-.64-.217-.264-.055-.523-.082-.77-.082m-4.116.14h-1.38v5.87h1.38v-5.866zm-.676-2.497c-.227 0-.425.077-.588.23-.163.154-.246.347-.246.576 0 .225.083.415.244.565.16.15.36.224.59.224.23 0 .43-.076.593-.225.164-.15.247-.34.247-.565 0-.22-.08-.41-.24-.57-.16-.15-.36-.23-.6-.23m-3.444 2.067v6.3h1.41V27.91h-1.95l-2.474 6.08-2.405-6.08h-2.03v8.187h1.325v-6.3h.046l2.54 6.3h.998l2.5-6.3h.047zM7.17 32.34h6.493v6.492h-6.5zm-7.17 0h6.49v6.492H-.002zm7.17-7.172h6.49v6.493H7.167zm-7.17 0h6.49v6.493H-.002z" fill="#fff" fill-rule="nonzero"/></svg>