<svg viewBox="0 0 64 64" xmlns="http://www.w3.org/2000/svg" fill-rule="evenodd" clip-rule="evenodd" stroke-linejoin="round" stroke-miterlimit="1.414"><path d="M61.432 34.42l-1.534.297-1.812 3.597.74 1.49 2.898-5.44-.292.056zm2.02-5.22l.146.158-.635.59.025 4.94L60.8 39.37l.906-.28c.014.085.02.116.03.186-.603.223-3.487 1.286-4.046 1.488-.232-.458-1.004-3.086-1.05-3.393.083-.26 1.347-2.45 1.568-2.78.156-.17 1.79-.56 3.277-.84l.118-.02-.002-.12c-.01-.78-.03-1.93-.03-2.49 0-.142 0-.25.01-.29.116-.155 1.016-.92 1.88-1.622zm-2.26 5.556c-.236.446-2.136 4.01-2.358 4.427l-.43-.868 1.684-3.346 1.105-.22zm2.183-5.86c-2.047 1.653-2.072 1.798-2.082 1.86-.006.038-.01.19-.01.41 0 .645.023 1.853.032 2.325-1.023.2-3.136.63-3.343.94-.072.11-1.62 2.69-1.62 2.94 0 .128.327 1.25.5 1.83.526 1.73.64 1.813.694 1.853.043.03.095.04.144.023.154-.05 4.088-1.502 4.255-1.564l.11-.04-.123-.74-.587.18 1.928-3.95-.026-4.882.753-.696-.52-.56-.105.084zm-12.162 3.47c-.304.405-1.07 1.875-1.297 2.316-.984 1.908-.95 1.96-.897 2.04l.05.08.1-.02c.09-.023 2.09-.362 3.47-.597l.798 2.06 2.62-.485-.15-.844-.618.107c-.143-.354-.283-.735-.305-.842.14-.27 1.504-2.79 2.422-4.48l.05-.092-.08-.075c-.03-.03-.802-.73-2.505-.835-1.68-.105-3.145.972-3.67 1.675zm.227.17c.415-.553 1.8-1.663 3.427-1.563 1.287.08 2.01.522 2.244.693-.91 1.675-2.37 4.368-2.39 4.444 0 .01-.01.024-.01.047 0 .082.06.297.37 1.08l.05.106s.403-.07.566-.1l.05.29c-.233.042-1.914.353-2.11.39l-.796-2.057-.116.02c-.303.05-2.59.438-3.36.574.344-.77 1.7-3.414 2.083-3.923zm3.42-.792c-.04.004-1.023.112-1.588.543-.554.42-1.53 2.61-1.638 2.858l-.112.254 1.932-.41 1.667-3.28-.26.025zM43.908 33.84c0-.328 1.184-3.505 1.338-3.725.15-.146 1.8-.69 3.35-1.143.084.21 1.037 2.574 1.13 2.808l-4.11 1.603 1.12 1.886s.893-.28 1.088-.33l.126.3-2.687.94c-.675-1.02-1.353-2.154-1.356-2.35zm9.537-1.327c.335-.255.862-.386 1.18-.444-.208.4-1.307 2.56-1.36 2.67-.102.02-.9.19-1.256.26.35-.777 1.06-2.21 1.43-2.496zm-4.806-3.85c-1.28.37-3.45 1.03-3.63 1.29-.208.29-1.39 3.495-1.39 3.887 0 .374 1.12 2.084 1.46 2.6l.062.09 3.175-1.114-.337-.824-1.124.34-.836-1.406 4.067-1.586-1.336-3.313-.12.036zm-41.39 2.23c-.58-.282-1.19-.59-1.26-.64-.117-.085-.21-.05-.778.485-.307.29-.672.65-.94.916l-.324.32c-.245-.066-1.228-.624-1.334-.695-.118-.08-.147-.1-1.35 1.07-.487.474-1.13 1.12-1.183 1.19l-.09.117.645.455.81-.654c.41.195.855.426.93.495.084.134.535 1.24.9 2.13.54 1.33.875 2.147.97 2.28.184.265 1.876 1.124 2.39 1.38l.103.052 1.096-1.37-.126-.085c-.395-.265-1.405-.945-1.57-1.06-.126-.23-1.004-2.663-1.558-4.23l.85-.75c.362 1.025 1.742 4.92 1.814 5.065.025.05.1.2 2.513 1.276l.11.05 1.054-1.57s-1.493-.77-1.583-.82l-1.615-4.27.84-.64c.322.923 1.53 4.364 1.695 4.65.19.324 1.85 1.05 2.358 1.268l.092.043L13.81 36l-.15-.08c-.32-.174-1.18-.65-1.406-.824-.18-.306-1.68-4.567-1.74-4.793-.05-.266-1.317-.76-1.43-.775-.064-.01-.24-.03-1.84 1.36zm7.432-.212c.35.22.998.68 1.115.79.083.165.34 1.4.562 2.59-.508-.25-.996-.505-1.083-.58-.08-.192-.384-1.706-.592-2.79zm-7.322.49c.71-.62 1.53-1.28 1.707-1.35.197.05 1.07.47 1.183.59.135.41 1.625 4.76 1.816 4.91.21.17.98.6 1.31.78l-.75.92c-.967-.418-2.03-.946-2.124-1.107-.127-.22-1.11-2.98-1.737-4.784l-.065-.19-1.32 1.003 1.727 4.573 1.4.723-.747 1.1c-1.035-.462-2.13-.986-2.27-1.11-.107-.26-1.164-3.23-1.864-5.212l-.07-.2-1.31 1.155.03.09c1.533 4.336 1.63 4.408 1.67 4.44.087.064 1.108.752 1.47.997-.14.18-.647.813-.755.95-1.012-.51-2.082-1.1-2.185-1.24-.08-.117-.556-1.285-.94-2.223-.722-1.777-.883-2.15-.953-2.22-.135-.136-.87-.49-1.093-.594l-.08-.04-.785.633-.22-.156c.403-.42 1.815-1.806 2.126-2.047.13.077.396.23.657.37.72.382.81.363.896.3.034-.026.12-.113.388-.376.365-.36 1.185-1.172 1.418-1.33.254.144 1.05.536 1.314.665l.087.043.07-.066zm8.09-3.2l.193.13-.32.56.137.07c.44.21 1.636.856 1.89 1.328.32.59.703 2.815.707 2.838l.042.245.58-.486.074.08c-.134.18-2.294 3.117-2.427 3.3-.47-.25-2.296-1.23-2.58-1.426-.24-.197-.763-2.788-.81-3.2.146-.256 1.536-2.132 2.51-3.433zm10.005.497c-.063.02-.104.08-.1.15v-.002c.06 2.038.122 3.13.19 3.245.082.15.846.693 1.294 1.003l.23.16-.008-.28c-.045-1.92-.112-2.955-.2-3.076-.064-.09-.38-.404-.647-.657-.62-.59-.672-.57-.76-.54zM46.84 30.07l-1 2.745 2.12-.71-.997-2.38-.124.342zm-31.533-2.38c-2.65 3.532-2.65 3.622-2.65 3.682 0 .03.512 3.17.935 3.46.337.235 2.617 1.45 2.714 1.5l.11.06 2.715-3.695-.434-.435-.4.33c-.11-.607-.415-2.165-.693-2.68-.297-.55-1.477-1.178-1.88-1.38l.297-.52-.63-.437-.084.11zm10.34 1.18c.31.265.88.822.977.947.057.173.116 1.434.148 2.645-.463-.327-.904-.66-.978-.746-.05-.203-.113-1.746-.148-2.848zM46.99 30.5c.172.415.515 1.23.597 1.428l-1.273.424.675-1.85zm-20.152-4.196l.17.16-.405.502.126.087c.4.275 1.48 1.102 1.65 1.61.172.495.19 1.92.19 2.516 0 .16-.002.26-.002.26l-.004.3.665-.54c.057.074.085.11.14.176l-2.985 2.99c-.416-.318-2.03-1.55-2.277-1.787-.19-.213-.298-2.48-.298-3.157 0-.057 0-.098.003-.13.182-.228 1.85-1.863 3.018-2.994zm-.1-.3c-3.174 3.074-3.19 3.164-3.198 3.223-.005.028.007 3.208.38 3.564.295.29 2.315 1.82 2.4 1.89l.1.077 3.34-3.34-.478-.597-.417.34c0-.63-.023-2.05-.21-2.583-.207-.59-1.273-1.395-1.64-1.66l.377-.47-.555-.527-.098.094zm-12.3 4.305c-.06.03-.09.09-.078.16.38 2 .615 3.07.697 3.17.108.13.948.55 1.44.782l.25.12-.05-.274c-.347-1.89-.576-2.9-.682-3.006-.078-.076-.44-.337-.743-.545-.707-.484-.755-.458-.835-.415zm6.525-6.12l.3.27c-.14.15-.38.41-.46.57-.018.03-.025.11-.025.23 0 .58.192 2.08.37 3.35l.018.122.79-.027.028.34-.877.05.015.148c.034.34.34 3.346.472 3.69.142.37.922.84 1.01.893l.08.047.445-.32c.06.06.1.095.17.16l-1.29 1.4c-.85-.556-1.76-1.234-1.83-1.407-.09-.232-.38-2.63-.56-4.18l-.015-.13-.75.026c-.02-.12-.04-.253-.06-.39l.762-.052-.015-.144c-.097-1.027-.235-2.54-.256-2.81.14-.19 1.04-1.174 1.662-1.84zm16.79.46c.09-.16 1.17-.8 2.2-1.35l.153.276-.557.37-1 4.777s2.89-1.27 3.08-1.35c.24.325 1.09 1.65 1.09 3.893 0 .438-.033.91-.108 1.415-.464 3.11-2.71 4.73-3.238 5.074l-.625-.958c.4-.33 1.8-1.62 2.365-4.01.12-.513.17-.983.17-1.41 0-1.7-.772-2.7-.813-2.75l-.07-.086-2.07.924-.858 4.16 1.13-.31.08.212-1.96.805c-.338-.41-.69-.885-.724-1.01.016-.384 1.59-8.235 1.74-8.67zm-16.903-.76c-1.836 1.97-1.836 2.032-1.836 2.1 0 .073.173 1.946.245 2.723l-.78.05.14.948.74-.025c.083.75.44 3.8.56 4.12.13.35 1.59 1.32 2.032 1.61l.1.065L23.7 33.7l-.55-.51-.477.348c-.305-.19-.74-.51-.813-.703-.086-.223-.304-2.14-.44-3.467l.87-.05-.073-.898-.805.026c-.186-1.335-.357-2.785-.357-3.202 0-.043.002-.074.005-.094.083-.154.395-.483.51-.598l.106-.106-.73-.657-.095.1zm19.096-.906c-.873.46-2.353 1.277-2.46 1.57-.058.16-.53 2.415-.937 4.41-.86 4.224-.83 4.36-.82 4.41.052.247.67.995.85 1.22l.067.08 2.412-.994-.278-.71-.93.255.736-3.56c.117-.05 1.546-.69 1.73-.77.18.27.685 1.16.685 2.504 0 .404-.045.846-.158 1.324-.625 2.638-2.348 3.917-2.365 3.93l-.11.08.072.112.844 1.294.116-.064c.03-.018 2.948-1.698 3.492-5.35.543-3.65-1.046-5.54-1.114-5.618l-.07-.08-2.776 1.214c.1-.47.838-4.018.86-4.122l.677-.45-.41-.75-.123.064zm-8.455 3l1.59 1.712 1.128-.84c.14.177 1.063 1.324 1.196 1.49l-1.106 1.085c-.243-.304-.79-.96-1.066-1.075-.153-.066-.31-.056-.442.03-.204.13-.327.41-.344.786-.025.536-.127 3.854-.13 3.887l-.006.242.68-.355.083.175-1.216.864c-.508-.506-1.046-1.088-1.087-1.216-.005-.025-.007-.096-.007-.203 0-.773.092-3.467.163-5.31l.01-.28-.778.53-.17-.17c.18-.167 1.333-1.2 1.504-1.35zm-.08-.306l-1.833 1.643.548.55.508-.345c-.04 1.11-.15 4.043-.15 5.01 0 .16.004.27.01.3.056.243.89 1.082 1.25 1.43l.084.084 1.61-1.143-.323-.65-.504.262c.022-.78.1-3.19.12-3.64.015-.325.12-.503.212-.562.054-.034.114-.037.183-.008.2.082.75.726 1.047 1.112l.1.125 1.516-1.487-1.53-1.904-1.14.853-1.602-1.73-.104.092zm-6.934-1.524l-.817.636.842.908.915-.78-.84-.84-.1.08zm.075.303l.445.45-.475.4c-.11-.115-.326-.346-.447-.48l.474-.365zm2.34-.76l-.816.634.84.908.914-.776-.84-.84-.1.076zm.077.3l.447.444-.476.404c-.11-.118-.323-.35-.445-.48l.47-.366z" fill="#fff"/></svg>