<svg viewBox="0 0 64 64" xmlns="http://www.w3.org/2000/svg" fill-rule="evenodd" clip-rule="evenodd" stroke-linejoin="round" stroke-miterlimit="1.414"><path d="M61.432 34.42l-1.534.297-1.812 3.597.74 1.49 2.898-5.44-.292.056zm2.02-5.22l.146.158-.635.59.025 4.94L60.8 39.37l.906-.28c.014.085.02.116.03.186-.603.223-3.487 1.286-4.046 1.488-.232-.458-1.004-3.086-1.05-3.393.083-.26 1.347-2.45 1.568-2.78.156-.17 1.79-.56 3.277-.84l.118-.02-.002-.12c-.01-.78-.03-1.93-.03-2.49 0-.14 0-.25.01-.29.12-.15 1.02-.92 1.88-1.62zm-2.26 5.556c-.236.446-2.136 4.01-2.358 4.427l-.43-.868 1.684-3.346 1.105-.22zm2.183-5.86c-2.047 1.653-2.072 1.798-2.082 1.86-.006.038-.01.19-.01.41 0 .645.023 1.853.032 2.325-1.023.2-3.136.63-3.343.94-.072.11-1.62 2.69-1.62 2.94 0 .13.327 1.25.5 1.83.526 1.73.64 1.82.694 1.86.043.03.095.04.144.03.154-.05 4.088-1.5 4.255-1.56l.11-.04-.123-.74-.587.18 1.928-3.95-.026-4.88.753-.7-.52-.56-.105.084zm-12.162 3.47c-.304.405-1.07 1.875-1.297 2.316-.984 1.908-.95 1.96-.897 2.04l.05.08.1-.02c.09-.023 2.09-.362 3.47-.597l.79 2.06 2.62-.485-.15-.844-.62.107c-.15-.354-.29-.735-.31-.842.14-.27 1.5-2.79 2.42-4.48l.05-.09-.08-.07c-.03-.03-.807-.73-2.51-.83-1.68-.1-3.145.97-3.67 1.68zm.227.17c.415-.553 1.8-1.663 3.427-1.563 1.287.08 2.01.522 2.244.693-.91 1.675-2.37 4.368-2.39 4.444 0 .01-.01.024-.01.047 0 .082.06.297.37 1.08l.05.106s.41-.07.57-.1l.05.29-2.11.39-.79-2.057-.11.02c-.3.05-2.59.438-3.36.574.35-.77 1.7-3.414 2.088-3.923zm3.42-.792c-.04.004-1.023.112-1.588.543-.554.42-1.53 2.61-1.638 2.858l-.112.254 1.932-.41 1.667-3.28-.26.02zM43.908 33.84c0-.328 1.184-3.505 1.338-3.725.15-.146 1.8-.69 3.35-1.143.084.21 1.037 2.574 1.13 2.808l-4.11 1.603 1.12 1.886s.893-.28 1.088-.33l.126.3-2.687.94c-.675-1.02-1.353-2.16-1.356-2.35zm9.537-1.327c.335-.255.862-.386 1.18-.444-.208.4-1.307 2.56-1.36 2.67-.102.02-.9.19-1.256.26.35-.78 1.06-2.21 1.43-2.5zm-4.806-3.85c-1.28.37-3.45 1.03-3.63 1.29-.21.29-1.39 3.495-1.39 3.887 0 .374 1.12 2.084 1.46 2.6l.06.09 3.17-1.114-.34-.824-1.13.34-.84-1.406 4.064-1.586-1.334-3.313-.12.036zm-41.39 2.23c-.58-.282-1.19-.59-1.26-.64-.12-.085-.21-.05-.78.485-.31.29-.67.65-.94.916l-.33.32c-.25-.066-1.23-.624-1.34-.695-.12-.08-.15-.1-1.35 1.07-.49.47-1.13 1.12-1.19 1.19l-.09.11.645.45.81-.66c.41.193.855.424.93.493.084.134.535 1.24.9 2.13.54 1.33.875 2.147.97 2.28.184.265 1.876 1.124 2.39 1.38l.103.052 1.096-1.37-.125-.087c-.396-.267-1.406-.947-1.57-1.06-.127-.23-1.005-2.665-1.56-4.23l.85-.75c.36 1.023 1.74 4.92 1.814 5.063.026.05.1.2 2.514 1.278l.11.05 1.053-1.57s-1.495-.77-1.585-.82l-1.613-4.27.84-.64c.324.925 1.53 4.366 1.697 4.65.19.326 1.85 1.05 2.36 1.27l.09.043L13.81 36l-.15-.08c-.32-.174-1.18-.65-1.406-.824-.18-.306-1.68-4.567-1.74-4.793-.05-.266-1.317-.76-1.43-.775-.064-.01-.24-.03-1.84 1.36zm7.43-.212c.35.22 1 .68 1.11.79.08.17.34 1.4.56 2.59-.51-.25-1-.5-1.09-.58-.08-.19-.388-1.7-.59-2.79zm-7.32.49c.71-.62 1.53-1.28 1.7-1.35.19.05 1.07.47 1.18.59.13.41 1.62 4.76 1.81 4.91.21.17.98.6 1.31.78l-.75.92c-.97-.41-2.03-.94-2.13-1.1-.126-.22-1.11-2.98-1.736-4.78l-.065-.19-1.32 1.01 1.73 4.57 1.4.726-.748 1.1c-1.036-.463-2.13-.987-2.27-1.11-.108-.26-1.165-3.23-1.865-5.213l-.07-.2-1.31 1.153.03.09c1.53 4.335 1.63 4.41 1.67 4.44.083.063 1.104.75 1.47.996-.14.18-.65.81-.76.95-1.012-.51-2.082-1.1-2.185-1.24-.08-.12-.56-1.286-.94-2.224-.725-1.776-.886-2.15-.956-2.22-.138-.135-.87-.49-1.096-.593l-.08-.04-.784.63-.22-.153c.4-.42 1.814-1.81 2.124-2.05.13.075.396.23.657.37.72.38.81.36.895.3.033-.03.12-.115.387-.38.362-.36 1.182-1.17 1.42-1.33.25.146 1.05.538 1.31.667l.09.044.07-.07zm8.09-3.2l.19.13-.32.56.13.07c.44.21 1.63.86 1.89 1.33.32.59.7 2.82.7 2.84l.04.25.58-.48.07.08c-.134.18-2.294 3.12-2.427 3.3-.47-.25-2.3-1.23-2.58-1.42-.24-.197-.766-2.788-.81-3.2.143-.256 1.533-2.13 2.51-3.433zm10 .5c-.07.02-.11.08-.1.15.06 2.04.12 3.13.19 3.25.08.15.84.7 1.29 1.01l.23.16-.01-.28c-.05-1.92-.12-2.95-.2-3.072-.07-.09-.38-.403-.65-.656-.62-.59-.68-.57-.76-.54zm21.38 1.6l-1 2.75 2.12-.71-1-2.38-.13.34zM15.3 27.69c-2.65 3.537-2.65 3.627-2.65 3.687 0 .03.513 3.17.936 3.46.337.235 2.617 1.45 2.714 1.5l.11.06 2.72-3.696-.433-.43-.4.33c-.11-.6-.415-2.16-.693-2.68-.297-.55-1.477-1.18-1.88-1.38l.297-.52-.63-.43-.08.11zm10.34 1.18c.31.27.88.827.978.95.057.175.116 1.436.15 2.647-.464-.327-.905-.66-.98-.746-.05-.2-.112-1.74-.147-2.85zm21.35 1.63c.172.415.515 1.23.597 1.428l-1.273.424.675-1.85zm-20.152-4.196l.17.16-.405.502.126.087c.4.275 1.48 1.102 1.65 1.61.17.495.19 1.92.19 2.516 0 .16-.01.26-.01.26l-.01.3.66-.54c.056.07.084.11.14.17l-2.986 2.99c-.414-.32-2.03-1.55-2.275-1.79-.19-.22-.296-2.48-.296-3.16 0-.06 0-.1.003-.13.18-.23 1.85-1.87 3.02-3zm-.1-.3c-3.174 3.074-3.19 3.164-3.198 3.223-.005.028.007 3.208.38 3.564.295.29 2.315 1.82 2.4 1.89l.1.08 3.34-3.34-.478-.59-.417.34c0-.63-.023-2.05-.21-2.58-.207-.59-1.273-1.39-1.64-1.66l.377-.47-.555-.52-.098.097zm-12.3 4.305c-.06.03-.09.09-.078.16.38 2 .615 3.07.697 3.17.108.13.948.55 1.44.78l.25.12-.05-.28c-.347-1.89-.576-2.9-.682-3.01-.078-.08-.44-.34-.743-.55-.707-.487-.755-.46-.835-.418zm6.525-6.12l.3.27c-.14.15-.38.41-.46.57-.018.03-.025.11-.025.23 0 .58.192 2.08.37 3.35l.018.12.79-.03.028.34-.877.05.015.15c.034.34.34 3.34.472 3.69.142.37.922.84 1.01.89l.08.04.445-.32c.06.06.1.09.17.16l-1.29 1.4c-.85-.56-1.76-1.24-1.83-1.41-.09-.23-.38-2.63-.56-4.18l-.02-.13-.75.024c-.02-.12-.04-.25-.06-.39l.76-.05-.02-.143c-.1-1.026-.24-2.54-.26-2.81.14-.19 1.04-1.173 1.66-1.84zm16.79.46c.09-.16 1.17-.8 2.2-1.35l.153.27-.557.37-1 4.77s2.89-1.27 3.08-1.35c.24.32 1.09 1.65 1.09 3.89 0 .44-.04.91-.11 1.41-.47 3.11-2.71 4.73-3.24 5.073l-.63-.96c.4-.33 1.8-1.62 2.36-4.01.12-.513.17-.983.17-1.41 0-1.7-.77-2.7-.82-2.75l-.07-.086-2.07.922-.86 4.16 1.13-.31.08.21-1.96.803c-.336-.41-.69-.882-.722-1.01.016-.38 1.59-8.232 1.74-8.67zm-16.903-.76c-1.836 1.97-1.836 2.03-1.836 2.1 0 .07.173 1.94.245 2.72l-.78.05.14.95.74-.03c.08.75.44 3.8.56 4.12.13.35 1.59 1.32 2.03 1.61l.1.06 1.65-1.78-.55-.51-.48.34c-.31-.19-.74-.51-.82-.705-.09-.223-.31-2.14-.44-3.467l.87-.05-.08-.896-.808.025c-.186-1.336-.357-2.786-.357-3.2 0-.046 0-.077.004-.097.08-.155.393-.484.51-.6l.104-.105-.73-.657-.095.1zm19.096-.91c-.873.46-2.353 1.27-2.46 1.57-.058.16-.53 2.41-.937 4.41-.86 4.22-.83 4.36-.82 4.41.05.24.67.99.85 1.22l.06.08 2.41-1-.28-.71-.93.25.73-3.56c.113-.05 1.542-.69 1.73-.77.18.27.68 1.16.68 2.5 0 .402-.043.844-.156 1.322-.626 2.636-2.35 3.915-2.366 3.93l-.11.08.07.11.845 1.294.116-.066c.03-.02 2.947-1.7 3.49-5.35.54-3.65-1.047-5.54-1.115-5.62l-.07-.08-2.775 1.216c.1-.47.837-4.018.86-4.12l.676-.45-.41-.75-.122.062zm-8.455 3l1.59 1.71 1.13-.84c.14.17 1.07 1.32 1.2 1.49l-1.11 1.09c-.24-.31-.79-.96-1.06-1.08-.15-.07-.31-.06-.44.03-.2.13-.32.41-.34.78-.02.54-.12 3.86-.13 3.89v.24l.68-.35.085.17-1.216.864c-.507-.508-1.045-1.09-1.086-1.218-.002-.026-.004-.097-.004-.204 0-.775.093-3.47.164-5.31l.01-.28-.78.53-.17-.17c.18-.17 1.33-1.2 1.504-1.35zm-.08-.31l-1.83 1.64.55.55.51-.35c-.04 1.11-.15 4.04-.15 5.01 0 .16.01.27.01.3.06.24.89 1.08 1.25 1.43l.09.08 1.61-1.145-.32-.65-.5.262c.026-.78.1-3.19.12-3.64.02-.327.12-.505.216-.564.053-.03.113-.034.18-.005.2.08.75.725 1.047 1.11l.1.125 1.514-1.48-1.53-1.9-1.14.85-1.602-1.73-.102.092zm-6.93-1.53l-.81.63.85.907.917-.78-.84-.84-.1.08zm.08.3l.45.45-.47.4-.446-.48.475-.368zm2.34-.76l-.81.63.84.908.92-.776-.84-.84-.1.075zm.08.3l.45.44-.47.404c-.11-.116-.323-.35-.445-.48l.47-.364z" fill="#fff"/></svg>