<svg viewBox="0 0 64 64" xmlns="http://www.w3.org/2000/svg" fill-rule="evenodd" clip-rule="evenodd" stroke-linejoin="round" stroke-miterlimit="1.414"><path d="M0 16h64v32H0V16zm63.234.74v30.494h-30.41V16.708l30.41.032zm-6.338 25.888v-.91h-.374v-.186h1.002v.186h-.374v.91h-.254zm.788 0v-1.096h.38l.228.748.226-.748h.382v1.096h-.236v-.862l-.25.862h-.246l-.248-.862v.862h-.236zm-52.27-2.682s0 2.184 2.323 1.24l9.492-3.64s.83-.14 1.11.356c0 0 .2 1.052 1.44.992 0 0 .8.138 2.43-1.022l6.41-3.686s.04-.094-.11-.28l-2.99-4.614s-.48-.898-1.74-1.022l-7.03-1.178s-.56-1.502-2.71-2.09l-9.58-2.368s-1.29-.016-1.196 1.27l2.14 16.042zm33.26-4.044h4.145v1.404H38.7v1.98h4.484v1.404h-4.65s-1.406-.086-1.406-1.49v-5.346s.187-1.234 1.49-1.302h4.567v1.404h-4.53l.016 1.946zm13.468 4.786h1.65v-6.642l.072-.188h3.342l.144.116v1.882h-2.648l-.68 1.316h3.328v3.5h1.692v-6.756s-.188-1.36-1.894-1.402h-3.66s-1.23.158-1.346 1.534v6.64zm-7.942 0h1.62v-6.67l.13-.188h3.428l.202.174v1.75l-.202.16h-2.734l-.592 1.302h1.966l1.722 3.472h1.822l-1.836-3.458s1.258-.202 1.374-1.346v-2.198s-.304-1.014-1.288-1.144H45.53s-1.214.174-1.288 1.418l-.042 6.728zM8.247 35.362l.588 2.788 8.688-2.57s.946-.202 1.564-.202c0 0 .248-.062.574.434 0 0 .38.82 1.54.696 0 0 2.82-.774 6.09-2.586 0 0 .25-.062.1-.34l-.464-.712-7.372 2.152s-.31.186-.432-.34c0 0-.153-1.41-3.715-.62l-7.14 1.3zM20.17 31.49l5.64-.324.527.806L20.9 33.04l-.73-1.55zm25.612-4.788h4.146v1.404h-4.112v1.978H50.3v1.406h-4.654s-1.404-.086-1.404-1.49v-5.346s.186-1.234 1.49-1.302H50.3v1.404h-4.534l.016 1.946zm5.364-3.368h1.624v6.818h1.538v-6.75h1.556v6.716h1.506v-6.784h1.624v6.65s.086 1.386-1.47 1.504h-4.856s-1.378.178-1.514-1.496l-.008-6.658zm-31.733 6.592l-.682-1.378 5.56.604s.27-.076.87.884l-5.74-.11zm17.706 1.58h1.59v-4.872l3.13 4.686s.08.304.93.204c0 0 .57-.102.57-.694v-7.444H41.8v4.956l-3.247-4.872s-1.098-.474-1.42.322l-.018 7.714zM7.97 33.86l3.84-.542-1.813-6.164 2.71.372s.806.078 1.286 1.378l1.44 3.918s2.648-.248 2.988.248l-2.6-5.776s-.55-.93-2.04-1.208l-3.07-.634s-.76-.11-.86.728c0 0-.12.138-.17-.048l-.15-.882-3.433-.774 1.89 9.384z" fill="#fff"/></svg>