<svg viewBox="0 0 64 64" xmlns="http://www.w3.org/2000/svg" fill-rule="evenodd" clip-rule="evenodd" stroke-linejoin="round" stroke-miterlimit="1.414"><path d="M48.416 39.512c-.604 0-1.068.212-1.576.736v-.592h-1.36v6.184h1.468v-2.912c0-.792.068-2.056 1.148-2.056 1.016 0 1.128 1.184 1.128 1.944v3.024h1.468v-3.316c0-.872-.068-1.284-.3-1.776-.34-.736-1.148-1.236-1.976-1.236zm-45.48 0c-.608 0-1.072.212-1.58.736v-.592H0v6.184h1.468v-2.912c0-.792.068-2.056 1.148-2.056 1.016 0 1.124 1.184 1.124 1.944v3.024h1.468v-3.316c0-.872-.064-1.284-.296-1.776-.344-.736-1.148-1.236-1.976-1.236zm33.276 6.324h1.468v-8.252h-1.468v8.252zm-24.156-3.164c0-1.72-1.412-3.16-3.112-3.16-1.744 0-3.168 1.46-3.168 3.26 0 1.784 1.416 3.216 3.18 3.216 1.292 0 2.516-.896 2.88-2.112h-1.612c-.32.516-.74.748-1.312.748-.728 0-1.38-.5-1.588-1.216h4.656c.056-.348.076-.516.076-.736zm51.944 0c0-1.72-1.412-3.16-3.112-3.16-1.744 0-3.168 1.46-3.168 3.26 0 1.784 1.412 3.216 3.18 3.216 1.292 0 2.516-.896 2.88-2.112h-1.612c-.32.516-.74.748-1.312.748-.728 0-1.38-.5-1.592-1.216h4.66c.056-.348.076-.516.076-.736zm-9.644-1.8c.672 0 1.06.224 1.424.848h1.656c-.452-1.328-1.612-2.208-3.024-2.208-1.788 0-3.224 1.44-3.224 3.216 0 1.784 1.444 3.26 3.224 3.26.904 0 1.796-.404 2.404-1.084.308-.348.42-.548.62-1.096H55.78c-.344.536-.784.816-1.336.816-1.028 0-1.788-.804-1.788-1.876 0-1.084.728-1.876 1.7-1.876zM32.116 44.6c-1.02 0-1.852-.836-1.852-1.872s.832-1.872 1.852-1.872c1.024 0 1.852.836 1.852 1.872S33.14 44.6 32.116 44.6zm9.316 0c-1.024 0-1.852-.836-1.852-1.872s.828-1.872 1.852-1.872c1.02 0 1.852.836 1.852 1.872s-.832 1.872-1.852 1.872zm-16.104 0c-1.024 0-1.852-.836-1.852-1.872s.828-1.872 1.852-1.872c1.02 0 1.848.836 1.848 1.872s-.828 1.872-1.848 1.872zm-7.66-1.168l-1.04-3.776h-1.18l-1.052 3.776-1.244-3.776H11.86l2.04 6.184h.94l1.192-4.008 1.16 4.008h.988l1.956-6.184h-1.212l-1.256 3.776zM7.28 42.24c.208-.836.872-1.372 1.688-1.372s1.456.524 1.656 1.372H7.28zm51.94 0c.212-.836.872-1.372 1.688-1.372.82 0 1.46.524 1.656 1.372H59.22zm-25.46-2.432v.504c-.464-.504-1.132-.792-1.852-.792-1.588 0-2.944 1.376-2.944 3.16 0 1.688 1.2 3.2 2.976 3.2.784 0 1.38-.184 1.944-.832v.792h1.344v-6.032H33.76zm9.316 0v.504c-.464-.504-1.136-.792-1.852-.792-1.588 0-2.944 1.376-2.944 3.16 0 1.688 1.2 3.2 2.976 3.2.784 0 1.38-.184 1.94-.832v.792h1.348v-6.032h-1.468zm-17.544-.292c-.716 0-1.388.288-1.852.788v-2.72h-1.468v8.252h1.348v-.792c.564.648 1.16.832 1.944.832 1.776 0 2.976-1.512 2.976-3.2 0-1.784-1.356-3.16-2.948-3.16zm-2.536-3.496l-7.356.268h7.208l.148-.268zm24.936-19.956H37.328l-.3.536 5.308.288c.06 0 .06.088-.028.088l-5.588.188-.54.956 5.272.312c.068.012.052.108-.012.108l-5.596.188-.524.912 5.264.296c.116.008.116.108 0 .108l-5.588.2-.532.956 5.244.304c.116.008.104.116 0 .116l-5.588.2-.54.944 5.252.296c.08.008.088.108-.016.108l-16.104.544 15.28.86c.096 0 .088.124-.016.124l-16.132.584 15.28.856c.072 0 .088.116-.016.116l-16.156.592 15.28.86c.064.008.124.124-.008.132l-16.132.584 15.284.86c.044.008.088.124-.02.124l-8.116.292.024.74 7.236.408c.052.008.08.116-.02.116l-7.188.26.036.828 6.276.352c.064.008.092.136-.016.136l-6.228.22.028.908 5.352.304c.06.008.08.124-.028.124l-5.296.192.036 1 4.42.248c.064.008.064.116-.028.116l-4.376.16.016.432H41.76c3.784 0 7.18-2.792 7.816-5.012.64-2.22.64-4.224-2.404-5.224 1.7-.396 4.652-2.332 5.236-5.012.532-2.432-.356-4.92-4.476-4.928zM23.884 34.452l-7.376.264 6.996.392.38-.656zm.864-1.572l-7.368.264 7.004.392.364-.656zm.88-1.576l-7.376.264 7.012.396.364-.66zm15.124.3h-4.384l2.476-4.44h3.252c3.364 0 1.736 4.44-1.344 4.44zM26.508 29.74l-7.36.264 6.988.392.372-.656zm19.92-7.656c-.14.536-1.2 1.896-2.544 1.896h-3.256l2.088-3.724h1.664c2.12.072 2.192 1.288 2.048 1.828zm-13.524-.24l-9.392.336 9.416.532-.024-.868zm-.064-1.552l-8.436.296 8.464.492-.028-.788zm-.056-1.5l-7.52.252 7.552.424-.032-.676zm-.052-1.536l-6.588.224 6.612.392-.024-.616zm-.044-1.244H26.96l5.736.308-.008-.308z" fill="#fff"/></svg>