<svg viewBox="0 0 64 64" xmlns="http://www.w3.org/2000/svg" fill-rule="evenodd" clip-rule="evenodd" stroke-linejoin="round" stroke-miterlimit="1.414"><path d="M36.037 31.5l-.263-9.147 6.202-6.885-5.94 16.032zm13.22-13.455l1.103-2.924H37.845l-4.298 5.27 1.984-5.26h-4.15l-6.46 17.54h4.104l2.755-7.34.19 7.34 12.584-.027 1.198-3.376h-4.78l1.577-4.254h3.942l1.212-3.27h-3.95l1.355-3.697h4.153zM20.09 32.67l6.508-17.55H30.7l-6.51 17.55h-4.1zm-.533 0H15.14l.502-7.765-2.87 7.764h-4.1l6.508-17.55h4.364l-.504 7.87 2.923-7.87h4.102l-6.508 17.55z" fill="#fff"/><g transform="translate(-.248 15.045) scale(.32156)"><path d="M26.268 35.998C8.443 57.166-8.372 85.33 6.48 98.302c14.392 12.57 32.38 5.127 44.646.166 12.265-4.962 147.836-64.496 147.836-64.496 1.31-.66 1.063-1.488-.572-1.075-.66.167-147.59 40.434-147.59 40.434-18.646 5.3-39.905-6.24-24.533-37.33z" fill="#fff"/><clipPath id="a"><path d="M26.268 35.998C8.443 57.166-8.372 85.33 6.48 98.302c14.392 12.57 32.38 5.127 44.646.166 12.265-4.962 147.836-64.496 147.836-64.496 1.31-.66 1.063-1.488-.572-1.075-.66.167-147.59 40.434-147.59 40.434-18.646 5.3-39.905-6.24-24.533-37.33z"/></clipPath><g clip-path="url(#a)"><path fill="#fff" fill-rule="nonzero" d="M-4.228 27.786h209.03v82.435H-4.23z"/></g></g></svg>