<svg viewBox="0 0 64 64" xmlns="http://www.w3.org/2000/svg" fill-rule="evenodd" clip-rule="evenodd" stroke-linejoin="round" stroke-miterlimit="1.414"><path d="M29.95 26.664c-.377 0-.872.305-1.106.674 0 0-2.525 4.33-2.773 4.762-.13.232-.27.084-.29-.002l-.78-4.73c-.082-.374-.47-.693-.96-.692l-1.572.002c-.38 0-.617.304-.532.672 0 0 1.203 6.822 1.438 8.426.118.888-.01 1.045-.01 1.045L21.8 39.55c-.23.368-.105.67.273.67h1.825c.38 0 .88-.302 1.104-.67l7.02-11.873s.67-1.014.05-1.005c-.42.005-2.113 0-2.113 0zm13.638-1.07c-.22-.428-.55-.772-.97-1.04-.43-.267-.94-.454-1.533-.562-.585-.103-1.28-.162-2.072-.163h-3.687c-.38 0-.752.3-.84.67L32.01 35.29c-.09.366.156.672.53.67l1.768-.003c.375.003.757-.3.846-.667l.598-2.618c.083-.366.465-.674.846-.668h.503c2.16 0 3.83-.444 5.03-1.326 1.2-.887 1.8-2.05 1.8-3.497 0-.63-.11-1.16-.333-1.58zm14.575-1.677h-1.58c-.36 0-.727.277-.83.628l-.013.043-.103.468-2.166 9.816c-.05.222-.08.367-.09.405l.01.005c-.074.343.13.627.47.66l.005.005H55.5c.36 0 .722-.274.827-.62.006-.018.014-.033.018-.05l2.365-10.69h-.01c.08-.366-.155-.67-.533-.67zm-46.566 1.637c-.22-.428-.548-.775-.967-1.036-.434-.27-.94-.454-1.53-.565-.592-.106-1.284-.158-2.08-.166l-3.677.003c-.382.005-.757.304-.845.672L.018 35.244c-.086.37.153.674.534.674h1.762c.38 0 .758-.297.844-.674l.607-2.616c.08-.366.458-.67.84-.67h.504c2.15 0 3.82-.442 5.02-1.324 1.2-.88 1.8-2.048 1.794-3.492.003-.634-.107-1.165-.336-1.588zM48.97 33.72c-.218.14-.45.256-.69.357-.327.13-.635.2-.92.2-.44 0-.775-.062-1.003-.194-.228-.126-.347-.344-.343-.657 0-.36.083-.64.256-.86.173-.212.43-.382.75-.51.32-.106.71-.195 1.163-.26.402-.05 1.196-.14 1.298-.142.11 0 .17-.057.13.214-.02.118-.25 1.06-.35 1.487-.03.13-.2.316-.28.366zm-31.998-.008c-.22.138-.45.256-.69.356-.327.13-.637.2-.92.2-.438 0-.775-.062-1.003-.194-.23-.126-.35-.344-.35-.657 0-.36.08-.64.253-.86.173-.212.43-.382.75-.51.32-.107.712-.195 1.162-.258.4-.06 1.196-.15 1.3-.15.1 0 .166-.06.12.21-.02.117-.25 1.06-.353 1.487-.03.13-.2.316-.28.365zm22.813-4.59c-.528.383-1.27.575-2.223.575h-.438c-.38.005-.625-.302-.535-.67l.52-2.29c.08-.36.463-.67.84-.666h.58c.673.01 1.18.12 1.53.34.34.23.51.58.51 1.05 0 .72-.264 1.27-.794 1.66zm-31.993-.045c-.53.388-1.268.583-2.224.583h-.432c-.38 0-.62-.302-.537-.673l.53-2.286c.08-.36.46-.67.84-.67h.57c.672 0 1.184.12 1.53.35.34.224.513.576.51 1.05.01.714-.26 1.266-.796 1.656zm44.296-1.974c.667.373 1.005.954 1.002 1.74.006.105-.013.25-.03.424-.013.174-.036.325-.066.456l-1.287 5.554c-.078.337-.41.62-.755.66-.006.005-.008.01-.024.01h-.252l-1.356.002v-.01h-.03l-.005-.008c-.338-.033-.544-.317-.47-.66l-.003-.004c0-.003.004-.005.005-.007l.064-.284v-.015c-.23.15-.405.27-.662.445-.257.17-.5.31-.726.4-.3.133-.587.227-.85.293-.264.066-.633.1-1.104.104-.757 0-1.38-.21-1.86-.635-.475-.433-.72-.99-.72-1.67 0-.723.17-1.335.506-1.84.346-.504.847-.9 1.516-1.198.63-.288 1.38-.495 2.24-.616.87-.124 1.59-.22 2.597-.28.17-.02.227-.09.256-.155.034-.075.03-.16.03-.25 0-.38-.176-.644-.533-.8-.356-.15-.892-.226-1.597-.226-.48-.006-1.086.09-1.656.22-.596.136-.754.223-1.046.31-.143.046-.466.07-.343-.497l.213-.885s.103-.67.773-.82c.323-.07.38-.083.902-.164.712-.11 1.423-.166 2.13-.166 1.43 0 2.48.19 3.148.562zm-31.998-.01c-.67-.372-1.715-.56-3.147-.56-.71 0-1.42.056-2.135.167-.525.08-.577.093-.903.164-.67.146-.774.816-.774.816l-.21.886c-.12.565.2.542.35.498.292-.088.452-.176 1.05-.31.57-.13 1.17-.227 1.65-.223.707 0 1.243.08 1.6.23.357.16.53.42.53.8.004.09.005.18-.026.25-.03.07-.087.14-.256.16-1.005.06-1.727.156-2.6.28-.857.12-1.61.33-2.236.617-.67.297-1.17.695-1.512 1.198-.338.506-.507 1.12-.507 1.84 0 .68.244 1.24.72 1.67.48.426 1.1.637 1.856.637.47-.003.84-.04 1.105-.103.26-.068.548-.16.848-.29.227-.096.47-.23.727-.404.258-.17.437-.292.666-.44l.008.013-.064.28c0 .006-.004.007-.004.01l.002.005c-.072.342.13.625.47.66l.006.005h1.64c.015 0 .017-.007.022-.01.347-.044.677-.325.756-.66L21 29.714c.03-.13.05-.28.064-.454.02-.172.038-.32.033-.42.003-.786-.335-1.367-1.002-1.74zm41.058-1c-.053.015-.112.027-.176.036-.064 0-.12.01-.17.01-.177 0-.31-.05-.4-.14-.092-.1-.137-.25-.137-.46v-.91h-.196v-.244h.19v-.49h.29v.493h.59v.243h-.595v.78c0 .09.004.16.007.212.004.05.018.092.043.14.025.04.056.07.095.09.04.02.1.03.18.03.05 0 .098-.01.15-.027.05-.014.087-.026.11-.035h.014v.26zM64 26.11h-.288v-.978c0-.073-.004-.145-.01-.213-.007-.07-.022-.13-.043-.17-.03-.05-.06-.08-.11-.1-.045-.02-.108-.038-.19-.038-.08 0-.16.02-.244.06-.08.04-.16.09-.24.155l.006.082.002.092v1.1h-.29v-.977c0-.077-.004-.15-.01-.217-.007-.068-.02-.12-.04-.163-.026-.043-.06-.076-.104-.1-.042-.02-.105-.03-.19-.03-.077 0-.156.02-.235.06-.08.037-.16.087-.237.147v1.28h-.29V24.39h.29v.19c.09-.074.18-.132.27-.174.09-.04.184-.064.286-.064.115 0 .214.025.295.073.08.05.14.117.18.204.115-.1.222-.17.32-.21.094-.04.2-.066.31-.066.185 0 .324.055.414.17.09.113.135.273.135.48v1.11z" fill="#fff"/></svg>