<svg viewBox="0 0 64 64" xmlns="http://www.w3.org/2000/svg" fill-rule="evenodd" clip-rule="evenodd" stroke-linejoin="round" stroke-miterlimit="1.414"><path d="M52.742 28.128v2.312c0 2.716-1.834 4.236-4.404 4.318-.144.006-.4.006-.556 0-2.568-.098-4.406-1.618-4.406-4.318v-2.312c0-2.722 1.852-4.244 4.432-4.32.132-.004.384-.004.506 0 2.594.076 4.428 1.614 4.428 4.32zM11.05 34.446H7.808l-5.254-5.91v5.91H0V21.214h5.656c2.35 0 5.004.802 5.004 4.042 0 2.686-2.068 3.754-3.732 3.754-.24 0-.484-.008-.726-.026l4.848 5.462zm20.31-4.444v-1.874c0-2.714-1.878-4.232-4.456-4.32h-.482c-2.594.088-4.428 1.606-4.428 4.32v2.312c0 2.586 1.908 4.204 4.372 4.318.262.012.398 0 .578 0 3.084 0 4.228-1.586 4.372-3.388h-2.318c-.07.336-.172 1.214-2.126 1.214-.338 0-.808-.08-1.15-.194-1.446-.488-1.214-2.288-1.214-2.388h6.852zm-15.408 4.762c-.062 0-.132-.002-.214-.006-2.466-.114-4.372-1.732-4.372-4.318v-2.312c0-2.714 1.834-4.232 4.428-4.32h.482c2.578.088 4.456 1.606 4.456 4.32v1.874H13.88c0 .1-.232 1.9 1.214 2.388.342.114.812.194 1.15.194 1.954 0 2.056-.878 2.126-1.214h2.318c-.144 1.802-1.288 3.388-4.372 3.388-.112 0-.208.006-.328.006h-.036zm23.618-4.288c0 1.446-.984 1.992-1.984 2.054-.048.004-.306.004-.356 0-1.02-.068-1.984-.63-1.984-2.054v-2.334c0-1.472.968-2.002 1.982-2.064.116-.006.22-.008.35 0 1.01.062 1.992.6 1.992 2.064v2.334zm8.312-4.418c-1.016.062-1.984.59-1.984 2.064v2.334c0 1.424.964 1.988 1.984 2.054.05.006.308.004.356 0 1.002-.06 1.984-.608 1.984-2.054v-2.334c0-1.462-.982-2.002-1.99-2.064-.134-.008-.234-.006-.35 0zm8.732 2.33s3.776-4.338 3.992-4.584h3.154l-4.572 5.248L64 34.446h-3.19l-4.196-4.698v4.698H54.08V21.214h2.534v7.174zM24.5 27.954c0-1.402.916-1.944 2.004-1.996.114-.004.238-.004.338 0 1.104.052 2.03.638 2.03 1.994v.184H24.5v-.182zm-10.628 0c0-1.402.916-1.944 2.004-1.996.114-.004.238-.004.338 0 1.104.052 2.03.638 2.03 1.994v.184h-4.372v-.182zM2.554 23.478l3.072.002c1.424 0 2.674.45 2.674 1.808 0 1.366-.784 1.862-2.674 1.862H2.554v-3.672zm35.114.348c-1.174 0-1.976.324-2.426.708v-3.32H32.72v13.232h.442s1.122-.64 1.18-.66c.164.176 1.266.998 2.796.998.194 0 .362.004.556 0 2.554-.062 4.404-1.666 4.404-4.32v-2.312c0-2.598-1.862-4.326-4.43-4.326z" fill="#fff"/></svg>