<svg viewBox="0 0 64 64" xmlns="http://www.w3.org/2000/svg" fill-rule="evenodd" clip-rule="evenodd" stroke-linejoin="round" stroke-miterlimit="1.414"><path d="M2.432 29.748c-.044-.185-.033-.38-.008-.48.062-.29.26-.616.837-.616.54 0 .86.332.86.83v.567H6.4v-.65c0-1.99-1.794-2.31-3.088-2.31-1.625 0-2.953.54-3.196 2.03-.067.413-.08.773.018 1.235.4 1.87 3.65 2.413 4.12 3.595.09.22.066.504.02.676-.074.308-.28.62-.892.62-.573 0-.915-.334-.915-.834l-.002-.88H0v.7c0 2.047 1.607 2.66 3.327 2.66 1.653 0 3.01-.562 3.233-2.093.11-.79.026-1.304-.01-1.498-.387-1.922-3.857-2.49-4.118-3.562zm58.332 1.655v1.335h.938v1.324c.002.12-.005.246-.024.348-.038.248-.273.668-.936.668s-.893-.42-.932-.668c-.018-.102-.025-.23-.025-.348V29.88c0-.147.01-.31.042-.432.043-.222.24-.663.91-.663.7 0 .872.464.912.663.02.132.02.353.02.353v.51h2.303v-.3s.01-.31-.017-.6c-.173-1.713-1.587-2.26-3.21-2.26-1.624 0-3.01.55-3.21 2.26-.02.16-.047.44-.047.608v3.847c0 .166.006.296.037.603.15 1.667 1.598 2.26 3.217 2.26 1.626 0 3.062-.593 3.215-2.26.026-.31.03-.44.033-.605V31.41H60.76zM44.878 27.39H42.56v6.77c.006.116 0 .25-.018.346-.05.228-.242.665-.88.665-.63 0-.827-.43-.87-.66-.025-.092-.027-.23-.025-.342v-6.77h-2.313v6.56c-.002.17.01.515.02.605.16 1.708 1.506 2.264 3.19 2.264s3.03-.556 3.193-2.264c.01-.09.03-.437.02-.608v-6.56zm-21.26 0l-1.156 7.15-1.154-7.15h-3.733l-.197 9.15h2.286l.062-8.47 1.573 8.47h2.31l1.575-8.47.063 8.47h2.292l-.206-9.15H23.61zm-13.822 0L8.1 36.54h2.472l1.278-8.47 1.246 8.47h2.454l-1.687-9.15H9.796zm43.167 7.366L50.81 27.39h-3.396v9.054h2.244l-.13-7.602 2.314 7.602H55.1V27.39h-2.262l.125 7.366zM32.19 29.77c-.043-.18-.03-.37-.01-.47.066-.294.263-.613.828-.613.53 0 .838.328.838.823v.558h2.257v-.637c0-1.97-1.768-2.28-3.047-2.28-1.61 0-2.928.54-3.167 2.02-.07.407-.08.76.02 1.22.39 1.85 3.61 2.39 4.08 3.56.08.22.06.504.01.67-.07.305-.28.612-.88.612-.57 0-.91-.33-.91-.822v-.877h-2.43v.698c0 2.024 1.58 2.635 3.29 2.635 1.63 0 2.98-.56 3.2-2.07.1-.78.022-1.29-.02-1.48-.38-1.9-3.81-2.47-4.07-3.53z" fill="#fff" fill-rule="nonzero"/></svg>