<svg viewBox="0 0 64 64" xmlns="http://www.w3.org/2000/svg" fill-rule="evenodd" clip-rule="evenodd" stroke-linejoin="round" stroke-miterlimit="1.414"><path d="M29.06 27.883c.565.246.606.43.165 1.27-.45.863-.564.914-1.118.688-.697-.29-1.59-.52-2.164-.52-.944 0-1.57.34-1.57.85 0 1.7 5.406.78 5.406 4.39 0 1.82-1.56 3.03-3.9 3.03-1.23 0-2.75-.41-3.8-.94-.53-.26-.56-.42-.11-1.28.39-.76.51-.84 1.07-.6.89.39 2.02.69 2.78.69.86 0 1.43-.35 1.43-.86 0-1.64-5.5-.86-5.5-4.36 0-1.85 1.55-3.09 3.87-3.09 1.09 0 2.46.33 3.412.76zm4.36-4.287v13.456c0 .205-.215.42-.523.42h-1.415c-.308 0-.523-.215-.523-.42V23.596c0-.668.18-.73 1.23-.73 1.19 0 1.23.084 1.23.73zm3.54 10.923c0 .68.584 1.14 1.466 1.14 1.066 0 2.03-.52 2.595-1.39v-.9c-.56-.22-1.25-.34-1.86-.34-1.31 0-2.19.62-2.19 1.47zm16.123-6.62c.513.29.533.46-.03 1.33-.534.82-.627.87-1.19.58-.43-.23-1.118-.42-1.683-.42-1.774 0-2.954 1.17-2.954 2.93 0 1.83 1.18 3.06 2.954 3.06.615 0 1.384-.24 1.887-.51.513-.3.626-.28 1.17.51.492.74.482.91.04 1.22-.79.54-2.04.96-3.138.96-3.29 0-5.48-2.105-5.48-5.25 0-3.13 2.19-5.21 5.5-5.21 1 0 2.18.335 2.92.78zm10.707 8.3c.412.52.248.7-.78 1.07-1.045.38-1.188.36-1.558-.13l-2.932-3.91-1.314 1.27v2.54c0 .2-.215.42-.523.42h-1.415c-.308 0-.523-.22-.523-.42V23.59c0-.67.184-.73 1.23-.73 1.19 0 1.23.084 1.23.73v7.65l4.022-3.855c.44-.42.687-.39 1.477.14.872.56.933.71.513 1.12l-2.995 2.91 3.57 4.634zm-20.308-5.04v5.79c0 .3-.215.52-.523.52h-1.4c-.32 0-.55-.24-.53-.56l.02-.63c-.76.84-1.85 1.28-2.94 1.28-2.12 0-3.53-1.22-3.53-3.05 0-1.94 1.6-3.24 4-3.25.91 0 1.74.16 2.42.44v-.67c0-1.065-.84-1.7-2.27-1.7-.67 0-1.49.267-2.15.647-.5.29-.628.27-1.17-.54-.53-.81-.51-.965 0-1.29.982-.638 2.32-1.048 3.55-1.048 2.76 0 4.49 1.495 4.49 4.04zm-26.185-1.54c-1.86-6.21-4.55-7.65-10.753-5.79-6.204 1.86-7.65 4.55-5.79 10.75 1.862 6.2 4.55 7.65 10.753 5.78 6.204-1.86 7.652-4.55 5.79-10.76zM8.21 33.67l-.78-2.323 2.413-.808.777 2.32-2.41.81zm5.95-.02l-1.17.39.405 1.21c.164.49-.1 1.02-.59 1.186-.106.033-.215.05-.32.046-.383-.01-.736-.256-.864-.64l-.4-1.21-2.41.808.41 1.21c.17.49-.1 1.02-.59 1.185-.1.036-.21.05-.32.05-.38-.01-.73-.256-.86-.64l-.4-1.21-1.17.39c-.11.037-.21.053-.32.05-.38-.01-.73-.256-.86-.64-.162-.49.1-1.02.59-1.183l1.17-.392-.776-2.322-1.17.392c-.11.036-.216.05-.32.048-.385-.01-.737-.255-.866-.638-.164-.49.1-1.02.59-1.185l1.17-.39-.405-1.21c-.165-.49.1-1.02.59-1.183.49-.165 1.02.1 1.18.59l.41 1.21 2.41-.808-.404-1.21c-.167-.49.1-1.02.59-1.187.49-.164 1.02.1 1.182.59l.406 1.21 1.17-.39c.49-.166 1.02.1 1.184.59.166.49-.1 1.02-.59 1.182l-1.17.39.78 2.32 1.17-.39c.49-.17 1.02.1 1.184.59.164.49-.1 1.02-.59 1.18z" fill="#fff"/></svg>