<svg viewBox="0 0 64 64" xmlns="http://www.w3.org/2000/svg" fill-rule="evenodd" clip-rule="evenodd" stroke-linejoin="round" stroke-miterlimit="1.414"><path d="M26.57 49.805c-.023-.297-.035-.45.056-.737-.045-.034-.09-.068-.136-.097.365-.12.445-.34.41-.69l-.41-.14c-.23.428-.452.85-.674 1.27 0-.67.234-1.05.514-1.66h.16c.102-.35.205-.69.314-1.032h.16c.314-1.04 1.182-2 1.347-3.014h.16c.41-2.387 1.08-1.587.32-3.963h-.16l.06-.183c.09-.024.17-.04.26-.058.067.582.43 1.135.678 1.667.394-.81 1.18-2.187 1.313-3.016h.154v-.16h.16c.69-3.145-.37-6.936-.633-10.145h-.16v-.24h.16l-.12-1.98c-.28.23-1.11.183-1.49.21-.024.06-.04.12-.06.184h-.233v.633h.08v-.474h.08c.304 4.093.407 8.136.79 12.213h-.155c-.284-2.033-.375-4.077-.672-6.11.075 4.603.155 6.11.115 6.504h-.073v-.313h-.08c-.017.286 0 .434-.2.634-.08-.16-.08-.16-.24-1.98-.068 1.5-.13 3.01-.194 4.516H28c.034-.823.617-6.4.12-6.898-.028.022-.057.05-.08.08-.03-.744-.057-1.486-.08-2.223-.103-.065-.103-.065-.28 0-.017-.16-.028-.32-.04-.476.48-.48.235-1.05.2-1.667.057-.025.114-.048.177-.065.023-.49-.137-2.198-.16-4.322-.428-.074-.765-.085-1.205-.057-.018.052-.03.103-.04.16l-.08-.08c-.177.177-.166.23-.2.474h-.16c.017-.257.074-.405-.063-.616-.06.018-.12.04-.17.063v.24h-.16c-.03-.063-.05-.125-.07-.182-1.31-.005-3.47-.633-3.83 1.057-.086.04-.17.087-.257.13-.024.06-.04.12-.058.185.182-.03.365-.056.553-.08v.16c-.658.04-.595.366-1.11.555l.034.56c-.095-.102-.095-.102-.295-.102-.498.634-1.326 1.387-1.526 2.164.098.097.834.274 1.074.394-.022.057-.044.114-.06.177h-.52c-.033.046-.07.09-.096.142l-.713-.44c-.73.77-1.307 1.553-1.78 2.5-.452.13-1.217 1.387-1.35 1.74h.16c-.02.06-.044.116-.06.18-.143.016-.28.038-.417.06-.12.28-.12.28-.08.475-.06-.022-.12-.045-.175-.063-.022-.34.24-.585.195-.87-.055.017-.11.04-.17.062v-.24h.155c.046-.114.09-.228.137-.342.058-.022.12-.04.184-.056.01-.07.023-.132.04-.194-.034-.05-.07-.096-.103-.14-.255-.026-.34.145-.57.26.595-.954.95-1.394 1.11-1.75h.16c.025-.106.05-.215.08-.32h.16c.05-.13.1-.26.16-.39.76-.168 4.24-5.16 4.28-5.32h.16c.026-.14.06-.28.094-.416-.085-.022-.17-.04-.25-.057v.16h-.16v-.16c-.29-.1-.583-.19-.874-.28.228-.035.456-.07.69-.097-.022-.086-.04-.17-.056-.258h.633v-.32c.16-.04.16-.04.257-.137.02.126.04.25.064.377.177-.062.29-.262.474-.314.01.05.025.1.04.153.636-.71 2.44-2.48 2.555-3.51.76-.225 1.156-2.413 2.09-2.75.11-.33.265-.46.516-.712l-.12-1.03h.16c.024.263.05.526.08.79h.156c-.025-.064-.04-.12-.06-.178.046-.027.092-.04.14-.06v-.715l.254.018c.156-.992-.095-1.89-.175-2.87h.16c0 .16 0 .16.08.16 0-.16 0-.16.08-.16.02.21.05.42.08.633h.152v-.16h.16c.012.05.024.103.04.16.053-.057.104-.11.16-.16.024.023.052.05.08.08-.125.554-.24 1.502 0 1.98.44-.553 1.103-1.963 1.783-2.14.085 1.387-1.27 2.113-1.51 3.335H28.8c-.2.316-.2.316-.24.555h.16c-.016.184-.028.367-.04.555l-.08-.08c.16 1.507.16 1.507.258 1.844.06.017.116.034.18.057v.24h-.155v.16c-.05.018-.095.035-.14.058.067.8.142 1.6.216 2.4.1-.03.21-.054.32-.077-.08.72-.45.816-.24 1.66.6.35.85.15 1.503.24.088-1.066.06-1.66-.232-2.694.058.018.116.035.173.058l.1-.137c.08.08.08.08.24.636.064-.32.133-.64.2-.954h.235c.13 2.283-.155 5.566.553 7.69.057.017.114.034.177.057.03 1.36.53 2.65.7 3.994h.16c.02.13.05.264.08.396-.065.016-.128.033-.185.056v.2h.2c.12-.325.36-.536.457-.81h.32c.01.05.02.1.04.16.06-.14.124-.27.192-.4-.13-.07-.26-.13-.392-.194.13.01.263.02.394.04v-.24c.08-.02.16-.03.24-.04-.054-.06-.105-.11-.16-.16l.26-.104c.34-.832 1.605-2.95 1.508-3.92h.16c.046-.207.09-.413.137-.613h.16c.02-.135.05-.266.08-.397h.16c.136-.65.66-1.348.552-1.98l.24-.12c-.023-.035-.046-.07-.063-.1.95-1.61 1.297-3.42 2.045-5.097h-.16v-.235c.137.02.274.036.417.06.03.083.063.17.098.255.16-.235.16-.235.44-1.19h.16c-.04.395-.12.475-.32 1.35h-.24v.16h.16c-.2.724-.956 4.88-1.864 5.79.057-.31.217-.675.08-.955 0 .28 0 .28-.103.57-.063.02-.12.04-.177.064-.01.11-.016.222-.022.336-.046.038-.09.07-.138.107.023.023.052.046.08.074-.028.024-.057.05-.08.08.052.01.103.024.16.04v.16h-.16c.017.058.034.115.057.178-.766.468-2.114 4.305-2.513 5.613l.33.14c.02.056.04.12.065.18l-.498.05c-.098.51-.178.588-.218.9-1.466.57-.484 3.53-.233 4.52h-.16c-.28-1.742-.28-1.742-.593-3.17-1.136 1.92-3.946 5.43-4.24 7.538h-.16c-.63 1.617-1.498 3.107-2.024 4.798.303.235.777.474.91.834-.458-.07-.73-.458-1.188-.555-.12.406-.316.926-.555 1.27zM6.744 29.345c.314.035.314.035.633.154v.16c.11.04.217.09.332.13.02.18-.06.26-.04.39.38-.01.74-.062.89.343h.55v.16c-.16 0-.16 0-.16.08.953.592.953.592 1.113.632v-.16h.16c-.018.09-.03.182-.04.274l.154.2c.502-.5.617-1.256 1.033-1.82-.08.393-.08.393-.672 1.74h.24c.144-.24.287-.48.435-.713-.074.43-.394.71-.394 1.113.156-.152.15-.18.373-.18.217-.256.433-.513.656-.77 0 .3-.126.45-.275.713h-.16c-.12.183-.24.366-.36.554l-.08-.08c-.016.052-.028.103-.04.16.11-.01.223-.017.337-.02.337.523 1.21.586 1.388 1.07-.282.035-1.52-.78-1.72-.89-.01.16-.02.326-.025.49.342.07.377.304.662.504-.024.03-.046.06-.064.09.095.18.117.2.3.267v.16c.057.016.115.033.177.056v.234l-.177-.05c-.067-.237-.187-.248-.393-.36.023-.03.052-.06.08-.08-.057-.04-.108-.08-.16-.12-.12-.168-.405-.647-.657-.58-.02.087-.04.173-.057.264-1.474 2.536-3.278 5.14-4.603 7.77h-.15c-.662 1.156-1.325 2.258-2.107 3.33 0-.392.25-.69.44-1.026h.16c.434-.79 1.233-1.716 1.484-2.56.057-.024.114-.04.177-.058-.01-.084-.017-.17-.023-.255.46-.136 1.19-1.764 1.14-2.28-.09.07-.173.145-.26.22-1.79 3.547-4.562 6.81-6.32 10.33H.56c-.07.133-.14.264-.2.4-.076-.08-.076-.08-.036-.48-.11.013-.216.024-.32.04 1.314-1.603 2.034-2.21 1.51-4.32.255.073.312.273.45.495.085.017.17.035.262.057.55-.923 1.697-2.334 1.8-3.43.09-.04.183-.08.28-.12.405-.77 3.946-6.413 3.79-7.39h.315c.05-.19.108-.37.16-.553.09-.024.17-.047.26-.064.34-.73.34-.73.42-1.05-.63-.408-1.234-.92-1.965-1.09-.287-.55-.94-.86-1.486-1.134v-.08h.24c0-.08 0-.08-.48-.313v-.16c-.114-.024-.228-.047-.337-.064-.02.046-.04.092-.056.143-.29-.04-.44-.19-.672-.36-.14.095-.14.095-.4.44 0-.288.156-.368.2-.637-.267.16-.335.17-.393.475-.28.08-.286.3-.4.556-.074-.02-.15-.044-.223-.06.126-.246.25-.49.383-.73h.16c-.12-.356-.12-.356-.08-.556-.24-.04-.24-.04-.32-.12.08-.08.08-.08.4-.16-.297-.143-.925-.554-1.194-.554l.16.16c-.08.01-.16.022-.24.04v-.32c-.13-.03-.264-.052-.396-.075v-.16c.614.222 1.04.513 1.67.513-.16-.16-.16-.16-1.033-.594v-.16c-.472-.143-.85-.406-1.265-.674.84 0 1.62 1.03 2.38 1.03l-.16-.16c.463.07.41-.027.794-.12.023-.12.046-.24.075-.36 1.9-2.813 3.856-5.457 5.48-8.443h.16c.2-.366.7-1.696 1.265-1.902.013.08.024.16.04.24.08-.11.167-.224.25-.34h.2c.14.218.44.48.7.458-.218.286-.275.337-.258.697-.245.08-.313.09-.44.314h-.233c.17-.224.256-.298.256-.57-.19.24-.28.52-.535.61l-.136.34c.085-.02.17-.044.256-.06-.006.147-.01.3-.018.455.427-.045 1.084-.873 1.324-1.29.057-.006.12-.01.183-.017-.68.863-1.553 1.725-1.987 2.736h-.153c-.6 1.11-.913 1.508-1.193 2.06-.11-.026-.21-.055-.31-.077v.24H9.3c-.213.706-.78 1.22-1.035 1.9H8.1c-.12.21-.238.422-.36.634l-.078-.08c-.017.05-.03.104-.04.16H7.46c-.342.59-.633 1.075-1.096 1.566.02.088.04.174.065.265h-.16v.234h-.16v.24c-.09.016-.17.033-.26.056-.1.22-.1.22-.18.736.08-.11.16-.218.24-.32.182.18.26.187.513.24-.04.16-.04.16-.304.37.02.086.04.17.064.262.11.046.224.092.338.137.104-.14.104-.14.144-.376.04.016.084.033.13.056l-.05.18c.04.02.084.037.13.06-.046.114-.09.228-.13.34zm-4.05 15.777c.44-1.444 1.726-2.5 2.142-3.883l.24.12c-.662.62-1.587 2.33-1.9 3.21h-.16c-.08.26-.098.38-.32.55zm58.057-.314c-.37-.622-1.04-2.273-1.9-2.615.01.13.03.263.04.394-.05.052-.1.103-.15.16-.04-.108-.08-.217-.12-.32.045-.023.09-.046.137-.063-.022-.057-.04-.114-.057-.17-.116-.024-.23-.047-.344-.064-.07-.108-.133-.217-.195-.32-.19.12-.205.143-.296.343.03.07.064.137.098.21-.176-.004-.353-.01-.53-.016.034-.12.074-.24.114-.354-.52-.89-1.2-2.598-2.02-3.174.017-.04.034-.07.057-.11-1.09-1.95-2.512-4.08-3.385-6.12h-.16c-.03-.11-.056-.22-.08-.32h-.16c-.113-.32-.433-.718-.633-1.11h-.232v.16c-.954.272-1.193.43-1.348.43l-.08-.08c.393-.314.393-.314 1.324-.89-.025-.063-.04-.12-.06-.177-.416-.075-.924.336-1.29.53-.022.057-.04.12-.057.183-.188.022-.37.05-.554.08-.457 1.644-1.3 2.7-1.428 4.516h-.16c-.1.36-.33.822-.24 1.193-.05.016-.1.033-.144.056.023.42.023.42-.057.5-.03-.028-.06-.056-.08-.08-.236 1.03-.675 1.977-.83 3.016h-.16l.137.41c-.045.02-.09.04-.136.066v.4c-.654.194-.654 1.53-.87 2.14l-.144.052c.05.45-.31.508-.41.897-.32-.04-.32-.04-.4-.12.08-.04.16-.08.24-.116-.106-.628-.1-.936 0-1.507h-.24c.985-1.98 1.66-4.8 2.26-6.902.433-.858 1.495-3.816 1.403-4.42-.15.06-.29.124-.436.193-.022-.048-.04-.094-.056-.14.787-.284.84-.57.713-1.346h.32c-.054-.29-.11-.583-.16-.87h.16c.01.138.01.275.02.41.045.02.09.04.137.065.965-2.19 1.982-4.844 2.54-7.22-1.627.04-3.808.754-5.315 0v.16h-.16v-.16h-.153v.16h-1.59c-.686 1.793-1.474 3.54-2.22 5.31.552.01 1.106.023 1.665.04-.08.08-.08.08-.817.1-.023.054-.04.12-.057.18-.183-.063-.183-.063-.28-.24-.08.08-.08.08-.12.32h1.353c0-.16 0-.16.072-.16v.24c.32-.04.32-.04.48.04-.48.073-.48.073-1.113.073.394.062.793.13 1.193.2.006-.115.01-.23.017-.337.07-.023.142-.04.216-.06-.01.08-.017.168-.023.254.25.02.498.04.74.065v-.236h.4c.09.36.55.19.796.435-.18.09-.177.097-.24.28-.416.12-.52.885-.616 1.285h-.2c-.03-.446.2-.87.343-1.286-.27.02-.53.05-.793.08-.036.506-.208.88-.4 1.346h-.32c.182-.48.365-.95.553-1.424h-3.57c-.604 1.142-1.797 2.804-2.06 4.043.13.02.263.05.394.08v.16l-.495.015c-.24.285-.162.474-.133.85h.24c-.03.104-.055.212-.08.32-.16 0-.16 0-.16.08h1.43v-.24c.77.383 4.67-.022 5.87 0v.16h-.474c-.015.052-.03.103-.04.16-.26-.262-1.483-.13-1.89-.142-.02.047-.04.09-.06.144.48.02.96.036 1.45.06v.194c-2.165.104-4.398.104-6.516.464v.16c-1.975.057-1.033.137-2.203 1.84h-.2c.006-.114.01-.23.023-.337h.16c.05-.187.1-.37.156-.553-.16.024-.32.05-.475.08.107-.484.08-.633-.08-1.107h.32c.004-.143.01-.286.016-.423.286-.103 1.13-1.525 1.03-1.822l-.33-.015c.072-.15.152-.297.232-.44.05-.017.1-.028.16-.04-.03-.028-.06-.05-.08-.074l.24-.12c0 .16 0 .16.08.16v-.24h.16c.02-.136.05-.267.08-.4-.11.013-.22.024-.32.04.095-.096.095-.096.16-.353.1-.016.204-.027.312-.04l-.08-.08.136-.1c-.045-.115-.09-.224-.137-.333.205-.055.216-.146.296-.34l.36-.12.033-.512c.06-.023.12-.04.184-.057v-.16c.05-.017.103-.028.16-.04-.03-.028-.057-.057-.08-.08l.24-.034c.045-.39.062-.85.234-1.194h.24c0-.08 0-.08-.16-.12.147-.25.48-1.066.56-1.386h.15c.22-.44.508-1.13.897-1.41.01-.11.022-.212.04-.315h.2c.056-.084.113-.17.176-.256 0 .412-.286.79-.475 1.15l.097.096c.345-.123.56-.643.5-1.003.65-.142 1.27-2.432 1.482-3.197-1.084-.1-1.084-.1-1.164-.18l.16-.032v-.24c.364.023.736.052 1.107.08v-.16c.084-.022.17-.045.255-.062.18-.33.18-.33.3-.81h.16l-.12.714.08.08c.085-.116.17-.23.256-.338l.184-.016c-.2.2-.08.184-.16.436.21-.018.42-.03.634-.04-.03.022-.056.05-.08.08.503.02 1.006.05 1.51.08l-.16-.16c.234-.133.525-.007.794.04v.16h.16v-.16h.632v.16c.61.01 1.146.067 1.74-.08v.16h.4c.017-.053.034-.1.056-.144.53.063.913.228 1.41.336.097-.093.097-.093.097-.293l.257-.06c.01-.11.023-.214.04-.32-.057-.05-.11-.1-.16-.15-.03.05-.05.1-.074.154-.302-.456-.205-.513-.753-.833.475.08.795.24 1.19.32.256-.184.256-.184.32-.355l.17.05c.034-.043.07-.09.103-.13.023.036.05.076.08.116-.155.356-.2.43-.04.756l.474.12c-.314-.315-.314-.315-.474-.355v-.16l.416.136c.017.057.035.12.058.183.057.014 7.257 3.64 7.594 4.22.77.03 1.43-.26 2.165-.42-.025.057-.048.114-.065.177-.663.24-1.217.324-1.668.872.193.142.376.102.616.102-.11-.08-.212-.16-.314-.24 1.09.47 2.13 1.017 3.17 1.59-.996 0-1.766-1.036-2.937-1.036.36.29.76.593 1.193.753v.16c-1.192-.596-1.346-.756-1.906-1.036V26.5l-.232.033.16.16c-.24 0-.32-.08-.64-.12-.08.263-.314.31-.554.44.16.16.48.314.635.474-.23 0-1.164-.216-1.507-.273-.005.017-4.956 2.575-5.63 3.05.13.25.263.5.4.753h.16c.303.617.7 1.073.868 1.747h-.15c.646 1.017 3.576 4.894 3.884 6.344h.16c.33.618 1.23 1.737 1.348 2.457-.05.017-.094.034-.14.057.58.847 1.62 2.29 1.81 3.2h-.16zm-52.18-2.06c.02-.064.04-.127.06-.184-.043-.023-.09-.04-.135-.057.184-.72.584-1.37.875-2.06h.16c.05-.16.102-.32.153-.475H8.33v-.08c.503-.057 1.005-.11 1.51-.16.203-.383.415-.68.48-1.108h.152c.12-.736.765-1.308.953-2.067h.16c.48-1.262 3.364-4.996 3.09-6.104.2.04.2.04.416-.063.06-.217.12-.434.187-.65l.07.08c.69-.926 1.19-3.24 2.11-3.57-.104-.588.82-1.54 1.026-2.22h.16c.423-.978 1.325-3.028 1.96-3.793.056.017.12.04.18.063v-.16h.16c.018.046.035.092.057.137.056-.023.114-.04.177-.057v.24h-.154c-.144.29-.532.73-.503 1.05.182.018.182.018.263-.056l-.08-.08c.333-.263.45-.463.63-.52-.445.908-.354.93-.354 1.747-.397.4-.35 1.01-.82 1.41.033.4-.384.94-.57 1.29h-.16c-.4 1.32-1.755 2.42-2.064 3.73-.45.13-1.102 1.18-1.033 1.67-.115-.01-.23-.015-.337-.02-.56 1.57-1.862 3.146-2.26 4.637-.087.018-.173.04-.258.063-.28.632-.438.792-.478 1.032-.062.017-.125.034-.182.057-.034.135-.07.272-.097.415l-.08-.08c-.322.38-.83 1.712-1.145 1.826-.063.216-.125.433-.182.65.343.023.343.023 1.137-.097v.16h.312v-.16c2.54-.2 2.54-.2 2.695-.16v-.16c.27.046.31-.097.56-.16 0 .16 0 .16.072.16.023-.108.052-.21.08-.314h.16c.017.055.034.113.057.17.113.02.23.04.342.062v-.312h.153v.234c1.765-.193 3.54-.52 5.317-.712v-.635h.08c.024.16.05.32.08.48h.475c.01-.056.023-.107.04-.16.49.493 1.844-.28 2.495-.28-.03.025-.05.053-.075.08.074.013.154.025.234.04v.24c-.066.02-.13.036-.186.06l-.05.176-2.07.24v.16h.16v.24c-.473.033-.473.033-.736.13.007.136.013.28.024.42-.063-.02-.126-.045-.183-.06l-.05-.26c-.48.04-.48.04-.736.14-.024.057-.04.12-.058.18-1.19.138-2.21.424-3.416.475v.16c-2.364-.166-6.852.657-8.822 2.118-.006.11-.01.226-.017.34-.06-.05-.11-.103-.16-.154-.07.153-.14.313-.2.473h-.15v.16h-.32zm49.17-.875c-.28-.474-.28-.474-.51-1.107.316.394.316.394.636.987l-.12.12zm.72-1.187c-.594-1.034-.594-1.034-.594-1.194.314.4.314.4.753 1.194h-.16zm-2.06-1.114c-.21-.434-.41-.8-.515-1.268.023-.028.05-.057.08-.08.177.47.543.777.57 1.285-.044.01-.09.04-.136.06zm1.266-.16c-.434-.788-.434-.788-.434-.948.188.297.377.594.57.89-.045.018-.09.036-.136.058zm-27.677-.074c.122-2.507-.295-5.19-.478-7.697h.155c.17 2.54.44 5.08.44 7.62-.04.03-.08.05-.12.08zm-7.935-.714v-.16c-.16 0-.16 0-.16-.08.394-.057.794-.108 1.194-.16v.16c-.714.12-.714.12-1.034.24zm-14.75-.24c.023-.108.05-.217.08-.32h.235c-.04-.193-.04-.193.08-.473h.24c0 .08 0 .08-.14.14.03.38-.18.52-.494.66zm21.414-1.9h.08v1.66h-.08v-1.66zM7.93 37.51c-.14-.508.875-1.598 1.11-2.14h.16c0 .16 0 .16.08.16-.03-.138-.058-.27-.08-.4h.24c.193-.554.273-.634.313-.87.32-.118.32-.118.457-.1-.337.638-.674 1.278-1.01 1.923l-.264.017c-.017.046-.034.092-.05.143-.064.017-.127.034-.184.057-.097.417-.097.417-.177.497l-.16-.16c-.08.337-.17.657-.434.874zm47.425-.16v-.153h-.234c-.12-.4-.28-.64-.32-.954-.36-.108-.52-.782-.67-1.113-.03.023-.05.05-.08.08-.22-.223-.71-1.24-.71-1.508.26.4.64 1.273 1.076 1.428.09.417.18.953.634 1.113.05.21.102.423.16.634h.154v.24h.16v.234h-.16zM28.71 36.324c-.24-1.747-.49-3.73-.2-5.476.24 5.236.24 5.236.2 5.476zm-13.96-.08c.05-.137.102-.27.16-.4h.16l.016.337c-.114.02-.228.04-.337.07zm18.243-.554c.07-.246.138-.492.212-.737.057-.023.12-.04.182-.058-.09.366-.154.51-.394.794zm-22.206-2.222c.017-.09.034-.177.056-.263.252-.068.537.41.657.577-.034.017-.063.034-.09.057-.212-.13-.418-.26-.623-.38zm6.583-1.114c-.28.48-.28.48-.52.714.012-.13.024-.262.04-.394.16-.108.32-.217.48-.32zm0 0c-.028-.256-.034-.32.08-.554h.235c.028-.257.022-.296.217-.456.056.034.12.068.182.103-.24.302-.48.605-.714.907zm1.348-1.98v-.24h.16c.04-.144.085-.28.13-.418.207-.057.224-.125.32-.32h.16c-.65.897-.65.897-.77.977zm-11.974-1.03v.155c.234.04.394.2.61.29-.04.05-.08.1-.12.16-.296-.197-.593-.39-.89-.58l.4-.035zm42.98-.08c.395-1.26.937-2.5 1.114-3.808-.08 0-.08.16-.16.16.023-.16.05-.32.08-.48h.24c-.074-.93.337-1.627.925-2.317.263-.02.263-.02.44.07.017.193-.154.32-.12.433.057.017.12.04.182.063.234-1.1 4.026 1.856 4.123 1.902v.16c.503.33 1.005.66 1.507.992-.633.232-.633.232-.816.21-.03-.058-.04-.115-.06-.17h-.16v.232c-2.06.445-3.94 1.685-5.95 2.38v-.24c-.56.047-.86.327-1.35.4zm8.965-2.54c.19-.262.41-.33.71-.394-.03.057-.05.114-.06.177-.22.07-.44.143-.65.217zm-.48-.314c-1.67-1.233-1.67-1.233-2.07-1.467.576 0 2.066.896 2.62 1.267-.32.16-.32.16-.56.2zm.87-.794c-.4-.28-.4-.28-.56-.32v-.16c-.6-.085-1.154-.627-1.75-.867v-.16c-.632-.28-.632-.28-1.66-.92 1.057.4 3.43 1.45 4.28 2.3l-.32.12zm-35.77-.32l-.16-.12c.28-.342.697-.793.788-1.227.417-.13.406-.64.794-.84l-.08-.08c.36-.518.36-.518.4-.677h.16c.19-.577.81-.96.95-1.508h.16v-.235c.13-.07.26-.14.4-.2l-.08-.08c.203-.235.67-.715.825-.99.023.024.052.047.08.075.04-.08.08-.16.12-.235h.16c-.04 1.31-.12 1.43-.12 1.59.206.205.206 1.467.12 1.9h-.16c.223.45.097 1.44.16 1.983-1.22.068-3.06.057-4.123.434.633 0 .633 0 .873.08l-1.27.12zm4.2 0c-.047-.074-.09-.148-.14-.216-.645.188-1.92.125-2.64.017 1.59-.154 1.59-.154 3.097-.194v.394h-.32zm3.57 0c-.14-.89-.15-1.478-.04-2.375.01.79.02 1.59.04 2.38zm20.78-3.17c-.16-.078-.32-.16-.476-.238.046-.103.09-.206.137-.303.057.017.12.04.18.063v.16l.277-.12c.25.13.502.262.753.4-.35 0-.525-.16-.873-.16.24.12.24.12.24.2h-.24zm-41.4-2.14v.234h.24c-.01.137-.02.274-.02.417-.397.148-.517.188-.73.537 0-.32-.08-.394-.067-.617.056.017.12.04.182.063l.24-.634h.152zm0 0c.044-.303.12-.457.4-.56.02-.16.05-.32.08-.473.11-.012.22-.017.33-.023.01.142.023.29.04.44h-.24l-.05.137h-.16c-.028.102-.057.21-.08.32-.108.05-.216.102-.32.16zm18.003-2.3v-.24h.16c-.01-.115-.017-.23-.023-.338.087-.023.17-.04.264-.057v.16h.156v.16c-.393.28-.393.28-.553.32zm-16.657-.16c-.035-.218-.006-.27.08-.475l.176.06c.008.06.014.12.025.18-.097.08-.188.16-.28.24zm17.924-1.668c.113-.298.21-.406.438-.634-.074.302-.14.525-.44.634z" fill="#fff"/></svg>