<svg viewBox="0 0 64 64" xmlns="http://www.w3.org/2000/svg" fill-rule="evenodd" clip-rule="evenodd" stroke-linejoin="round" stroke-miterlimit="1.414"><path d="M26.57 49.805c-.023-.297-.035-.45.056-.737-.045-.034-.09-.068-.136-.097.365-.12.445-.34.41-.69l-.41-.14c-.23.43-.452.85-.674 1.27 0-.67.234-1.05.514-1.66h.16c.102-.35.205-.69.314-1.03h.16c.314-1.04 1.182-2 1.347-3.01h.16c.41-2.38 1.08-1.58.32-3.96h-.16l.06-.18.26-.06c.07.59.43 1.14.68 1.67.4-.81 1.18-2.19 1.32-3.01h.16V38h.16c.69-3.146-.37-6.937-.63-10.146h-.16v-.24h.16l-.12-1.98c-.28.23-1.11.184-1.49.21-.022.06-.04.12-.06.185h-.23v.63h.08v-.48h.08c.304 4.09.407 8.133.79 12.21h-.155c-.286-2.034-.377-4.08-.674-6.11.076 4.6.156 6.11.116 6.503h-.07v-.31h-.08c-.02.29 0 .435-.2.635-.08-.16-.08-.16-.24-1.98-.07 1.5-.13 3.01-.194 4.514H28c.034-.82.617-6.4.12-6.897-.028.02-.057.05-.08.08-.03-.746-.057-1.488-.08-2.225-.103-.065-.103-.065-.28 0-.017-.16-.028-.32-.04-.476.48-.48.235-1.05.2-1.668.057-.028.114-.05.177-.068.023-.49-.137-2.2-.16-4.32-.428-.073-.765-.084-1.205-.056-.018.054-.03.105-.04.16l-.08-.08c-.177.18-.166.23-.2.476h-.16c.017-.257.074-.405-.063-.616-.06.017-.12.04-.17.062v.24h-.16c-.03-.064-.05-.126-.07-.183-1.31-.004-3.47-.632-3.83 1.058-.09.04-.17.088-.26.13-.03.06-.04.12-.06.186.18-.03.36-.056.55-.08v.16c-.66.04-.6.366-1.11.555l.03.56c-.1-.1-.1-.1-.3-.1-.5.63-1.33 1.382-1.53 2.16.098.1.834.274 1.074.394-.023.057-.045.114-.06.177h-.52c-.034.048-.07.09-.097.144l-.71-.44c-.73.77-1.307 1.553-1.78 2.5-.45.13-1.217 1.387-1.35 1.74h.16c-.02.06-.044.116-.06.18-.143.016-.28.04-.417.06-.12.28-.12.28-.08.475-.06-.025-.12-.048-.174-.066-.025-.34.24-.588.192-.87-.056.014-.11.04-.17.06v-.24h.154l.134-.34c.06-.025.12-.04.186-.06.01-.07.02-.132.04-.194-.036-.05-.07-.096-.105-.14-.25-.026-.34.145-.57.26.6-.954.95-1.394 1.11-1.75h.16c.03-.106.05-.215.08-.32h.16c.05-.13.1-.26.16-.39.76-.17 4.24-5.16 4.28-5.32h.16c.03-.14.06-.28.1-.416-.09-.023-.17-.04-.25-.058v.16h-.16v-.16c-.29-.1-.588-.19-.88-.28.23-.035.46-.07.69-.097-.02-.084-.04-.17-.05-.26h.63v-.32c.16-.04.16-.04.257-.13.02.122.04.25.065.373.176-.06.29-.26.473-.313.01.05.022.1.04.15.633-.71 2.44-2.48 2.552-3.51.76-.223 1.154-2.41 2.09-2.75.11-.33.263-.46.514-.71l-.12-1.03h.16c.023.263.05.526.08.79h.155c-.023-.064-.04-.12-.06-.18.048-.026.094-.04.14-.06v-.714l.256.018c.157-.99-.094-1.89-.174-2.87h.16c0 .16 0 .16.08.16 0-.16 0-.16.08-.16.02.21.05.42.08.634h.15v-.16h.16l.04.16c.058-.06.11-.11.16-.16.03.02.057.05.08.08-.12.55-.24 1.5 0 1.98.44-.556 1.108-1.966 1.788-2.14.086 1.384-1.27 2.11-1.51 3.332h-.15c-.2.317-.2.317-.24.556h.16c-.015.182-.027.365-.04.553l-.08-.08c.16 1.51.16 1.51.26 1.85.06.015.115.032.18.055v.24h-.156v.16c-.05.017-.096.034-.14.057.066.8.14 1.6.215 2.4.1-.03.21-.053.32-.076-.08.72-.45.816-.24 1.66.6.35.85.15 1.5.24.09-1.066.06-1.66-.23-2.694.053.02.11.035.17.06l.1-.14c.08.08.08.08.24.633.062-.32.13-.64.2-.955h.233c.13 2.284-.156 5.567.55 7.69.06.02.117.035.18.06.03 1.36.53 2.65.7 3.993h.16c.02.13.05.264.08.396-.063.01-.126.03-.183.05v.2h.2c.12-.326.36-.537.457-.81h.32c.01.05.02.1.04.16.06-.14.123-.27.19-.4-.13-.07-.26-.13-.39-.195.13.01.26.02.393.04v-.24c.08-.02.16-.03.24-.04-.055-.06-.106-.11-.16-.16l.26-.108c.34-.836 1.604-2.95 1.507-3.92h.16c.047-.21.09-.417.138-.617h.16c.02-.134.05-.265.08-.396h.16c.136-.65.66-1.35.55-1.98l.24-.12c-.02-.038-.044-.07-.06-.1.95-1.61 1.296-3.42 2.044-5.1h-.16v-.236c.137.02.274.037.417.06.03.084.06.17.097.256.16-.235.16-.235.44-1.19h.16c-.04.395-.12.475-.32 1.35h-.24v.16h.16c-.2.724-.953 4.88-1.86 5.79.054-.31.214-.675.08-.955 0 .28 0 .28-.106.57-.062.02-.12.04-.176.062-.01.11-.016.22-.02.335-.048.04-.09.07-.14.103.023.025.052.048.08.076-.028.024-.057.05-.08.08.052.01.103.024.16.04v.16h-.16c.017.06.034.115.057.18-.762.466-2.11 4.303-2.51 5.61l.33.14c.02.057.04.12.066.18l-.5.05c-.096.51-.176.59-.216.9-1.465.57-.483 3.53-.232 4.52h-.16c-.28-1.74-.28-1.74-.59-3.17-1.135 1.92-3.945 5.43-4.24 7.54h-.16c-.63 1.62-1.497 3.11-2.023 4.8.302.235.776.474.91.834-.46-.07-.73-.46-1.19-.555-.12.403-.316.923-.555 1.27zM6.744 29.345c.314.035.314.035.633.154v.16c.11.04.217.09.332.13.02.18-.06.26-.04.39.38-.01.74-.07.89.34h.55v.16c-.16 0-.16 0-.16.08.95.59.95.59 1.11.63v-.16h.16c-.02.09-.03.18-.04.27l.15.2c.5-.5.61-1.26 1.03-1.82-.08.39-.08.39-.68 1.74h.24c.14-.24.284-.48.432-.72-.075.43-.395.71-.395 1.11.16-.15.15-.18.375-.18.22-.257.435-.514.658-.77 0 .3-.123.45-.272.712h-.16c-.12.183-.24.366-.36.554l-.08-.08-.04.16c.11-.01.225-.015.34-.02.335.525 1.21.59 1.386 1.07-.28.037-1.52-.78-1.72-.89-.01.16-.02.33-.023.49.34.07.377.306.66.506-.022.03-.044.06-.062.09.095.18.12.2.3.267v.16c.06.02.115.034.18.06v.23l-.176-.05c-.066-.234-.186-.245-.392-.36.026-.03.055-.06.08-.08l-.16-.12c-.12-.165-.402-.644-.654-.58-.02.09-.04.176-.057.267-1.475 2.536-3.28 5.14-4.6 7.77h-.15c-.666 1.156-1.33 2.258-2.11 3.33 0-.392.25-.69.44-1.026h.16c.435-.79 1.234-1.715 1.485-2.56.057-.023.114-.04.177-.057-.01-.084-.016-.17-.022-.255.46-.135 1.19-1.76 1.14-2.28-.09.07-.17.146-.26.22C5.25 42.14 2.48 45.4.72 48.92H.56c-.07.135-.14.266-.2.4-.076-.08-.076-.08-.036-.48-.11.015-.216.026-.32.04 1.314-1.6 2.034-2.21 1.51-4.32.255.075.312.275.45.497.085.017.17.035.262.057.55-.922 1.697-2.333 1.8-3.43.09-.04.183-.08.28-.12.405-.77 3.946-6.412 3.79-7.39h.315c.05-.19.11-.37.16-.552.09-.02.17-.044.26-.06.34-.73.34-.73.42-1.05-.63-.41-1.23-.92-1.96-1.09-.28-.55-.94-.86-1.48-1.136v-.08h.24c0-.08 0-.08-.48-.313v-.16c-.11-.027-.22-.05-.33-.067-.02.046-.04.092-.053.143-.29-.04-.44-.19-.67-.36-.14.09-.14.09-.4.44 0-.29.155-.37.2-.64-.27.16-.336.17-.394.47-.28.08-.29.3-.4.557-.076-.02-.15-.046-.225-.06.125-.25.25-.49.38-.73h.16c-.12-.36-.12-.36-.08-.56-.24-.04-.24-.04-.32-.12.08-.08.08-.08.4-.16-.296-.14-.924-.55-1.193-.55l.16.16c-.08.01-.16.02-.24.04v-.32c-.13-.03-.26-.055-.393-.078v-.16c.616.222 1.04.513 1.67.513-.16-.16-.16-.16-1.03-.595v-.16c-.474-.14-.85-.403-1.267-.67.84 0 1.62 1.03 2.38 1.03l-.16-.16c.462.07.41-.03.793-.12.024-.12.047-.24.076-.36 1.9-2.815 3.856-5.46 5.48-8.445h.16c.2-.367.7-1.697 1.265-1.903.012.08.023.16.04.24l.25-.34h.2c.14.22.44.48.7.46-.22.287-.276.338-.26.698-.247.08-.315.09-.44.314h-.235c.17-.223.26-.3.26-.57-.19.24-.28.52-.536.61l-.138.34c.088-.02.17-.043.26-.06-.006.148-.01.3-.02.456.43-.043 1.086-.87 1.326-1.29l.18-.015c-.68.863-1.553 1.725-1.987 2.736h-.155c-.6 1.11-.914 1.51-1.194 2.06-.11-.026-.21-.055-.31-.08v.24H9.3c-.213.71-.78 1.22-1.035 1.9H8.1c-.12.21-.238.425-.36.637l-.078-.08c-.017.05-.03.107-.04.16H7.46c-.342.59-.633 1.078-1.096 1.57.02.087.04.173.065.264h-.16v.234h-.16v.24c-.09.015-.17.032-.26.055-.1.22-.1.22-.18.734.08-.11.16-.218.24-.32.18.18.26.187.51.24-.04.16-.04.16-.31.37l.06.262c.11.047.22.093.34.138.1-.14.1-.14.14-.375l.13.056-.05.18c.04.02.08.037.13.06-.05.114-.09.228-.13.34zm-4.05 15.777c.44-1.444 1.726-2.5 2.142-3.883l.24.12c-.662.62-1.587 2.33-1.9 3.21h-.16c-.08.26-.098.38-.32.55zm58.057-.314c-.37-.622-1.04-2.273-1.9-2.615.01.13.03.263.04.394-.05.052-.1.103-.15.16-.04-.108-.08-.217-.12-.32.05-.023.09-.046.14-.063-.02-.057-.04-.114-.05-.17-.11-.024-.23-.047-.34-.064-.07-.108-.13-.217-.19-.32-.19.12-.203.143-.294.343.03.07.064.137.098.21-.173-.004-.35-.01-.53-.016.037-.12.077-.24.117-.354-.52-.89-1.2-2.598-2.02-3.174.02-.04.036-.07.06-.11-1.09-1.95-2.513-4.08-3.386-6.12h-.16c-.03-.11-.055-.22-.08-.32h-.16c-.112-.32-.432-.72-.632-1.11h-.23v.16c-.95.27-1.19.43-1.346.43l-.08-.08c.39-.32.39-.32 1.32-.89l-.06-.18c-.414-.08-.92.33-1.29.53-.02.05-.04.12-.055.18-.19.02-.37.05-.553.08-.455 1.64-1.3 2.7-1.426 4.51h-.16c-.1.36-.33.82-.24 1.19-.05.01-.1.03-.143.05.024.42.024.42-.056.5-.03-.03-.06-.056-.08-.08-.236 1.03-.675 1.977-.83 3.016h-.16l.137.41c-.045.02-.09.04-.136.066v.4c-.65.195-.65 1.53-.87 2.14l-.14.053c.05.45-.31.51-.41.9-.32-.04-.32-.04-.4-.12.08-.04.16-.08.24-.116-.107-.63-.1-.937 0-1.508h-.24c.984-1.98 1.66-4.8 2.26-6.905.43-.86 1.494-3.816 1.4-4.42-.15.06-.29.124-.432.193-.022-.05-.04-.094-.056-.14.786-.284.84-.57.71-1.346h.32c-.052-.29-.11-.586-.16-.87h.16c.01.135.01.272.02.41l.14.062c.964-2.19 1.98-4.843 2.54-7.22-1.628.04-3.81.755-5.316 0v.16h-.16v-.16h-.152v.16h-1.59c-.683 1.794-1.47 3.54-2.22 5.31.555.01 1.11.024 1.668.04-.08.08-.08.08-.816.1-.03.055-.04.12-.06.18-.186-.062-.186-.062-.28-.24-.08.08-.08.08-.12.32h1.35c0-.16 0-.16.072-.16v.24c.32-.04.32-.04.48.04-.48.074-.48.074-1.115.074.395.064.794.13 1.194.2l.018-.335.217-.06c-.01.08-.015.17-.02.256.25.02.497.04.74.067v-.236h.4c.09.36.55.19.795.44-.18.09-.18.095-.24.28-.417.12-.52.883-.617 1.283h-.2c-.03-.445.2-.87.343-1.285-.27.02-.53.05-.793.08-.04.51-.21.88-.4 1.35h-.32c.18-.48.362-.95.55-1.425H40.7c-.605 1.14-1.798 2.803-2.06 4.042.13.02.262.05.393.08v.16l-.495.014c-.24.29-.16.48-.13.85h.24c-.03.11-.055.212-.08.32-.16 0-.16 0-.16.08h1.43v-.24c.77.383 4.67-.02 5.87 0v.16h-.474c-.016.052-.03.103-.04.16-.26-.26-1.484-.13-1.89-.14-.02.05-.04.09-.06.142l1.45.06v.2c-2.166.106-4.4.106-6.517.466v.16c-1.976.058-1.034.138-2.204 1.84h-.2c.006-.113.01-.23.023-.336h.16c.05-.184.1-.37.156-.55-.16.026-.32.05-.476.08.11-.48.08-.63-.08-1.105h.32c.006-.142.01-.285.018-.422.286-.1 1.13-1.52 1.03-1.82l-.33-.013c.072-.15.152-.297.232-.44.05-.017.1-.03.16-.04-.03-.03-.06-.05-.08-.074l.24-.12c0 .16 0 .16.08.16v-.24h.16c.02-.133.05-.264.08-.4-.11.016-.22.027-.32.04.094-.093.094-.093.16-.35.1-.015.203-.026.31-.04l-.08-.08.135-.1c-.04-.114-.09-.223-.14-.332.21-.056.22-.147.3-.34l.36-.12.04-.513c.06-.02.12-.04.187-.054v-.16c.05-.018.105-.03.16-.04l-.08-.08.24-.035c.047-.39.06-.85.236-1.193h.24c0-.08 0-.08-.16-.12.148-.25.48-1.067.56-1.387h.15c.22-.44.51-1.13.898-1.41.01-.11.026-.21.04-.31h.2c.06-.085.117-.17.18-.257 0 .41-.285.79-.474 1.15l.1.093c.344-.126.56-.646.5-1.006.65-.14 1.27-2.43 1.48-3.2-1.083-.1-1.083-.1-1.163-.18l.16-.033v-.24c.36.023.732.05 1.103.08v-.16c.083-.02.17-.045.254-.06.18-.33.18-.33.3-.81h.16l-.12.71.08.08c.085-.12.17-.23.256-.34l.186-.016c-.2.2-.08.187-.16.44.21-.017.42-.03.635-.04-.03.023-.057.05-.08.08.5.02 1.005.05 1.51.08l-.16-.16c.233-.13.524-.006.793.04v.16h.16v-.16h.632v.16c.61.01 1.143.07 1.74-.08v.16h.4c.014-.05.03-.1.053-.143.53.064.91.23 1.41.337.095-.096.095-.096.095-.296l.26-.06c.01-.11.023-.212.04-.32-.057-.05-.11-.1-.16-.15-.03.05-.05.1-.074.156-.3-.46-.204-.516-.752-.836.474.08.794.24 1.19.32.255-.183.255-.183.32-.354l.17.05.102-.13c.02.037.05.077.08.117-.158.357-.2.43-.04.757l.47.12c-.314-.313-.314-.313-.474-.353v-.16l.416.137c.02.06.037.12.06.186.057.01 7.257 3.64 7.594 4.22.77.03 1.43-.26 2.165-.42-.023.053-.046.11-.063.173-.662.24-1.216.324-1.667.872.192.14.375.1.615.1-.11-.08-.212-.16-.314-.24 1.09.47 2.13 1.015 3.17 1.59-.995 0-1.765-1.04-2.936-1.04.36.29.76.595 1.193.755v.16c-1.193-.595-1.347-.755-1.907-1.035v-.15l-.235.03.16.16c-.24 0-.32-.08-.64-.12-.08.263-.31.31-.55.44.16.16.48.314.635.474-.23 0-1.165-.215-1.508-.27-.003.014-4.954 2.572-5.63 3.05.13.25.265.5.4.75h.16c.305.62.7 1.073.87 1.75h-.15c.646 1.013 3.576 4.89 3.884 6.34h.16c.33.62 1.23 1.74 1.35 2.46-.05.016-.093.033-.14.056.58.847 1.62 2.29 1.81 3.2h-.16zm-52.18-2.06c.02-.064.04-.127.06-.184-.04-.023-.09-.04-.13-.057.19-.72.59-1.37.88-2.06h.16c.05-.16.11-.32.16-.475H8.33v-.08c.503-.057 1.005-.11 1.51-.16.203-.383.415-.68.48-1.108h.152c.12-.736.765-1.308.953-2.067h.16c.48-1.262 3.364-4.996 3.09-6.104.2.04.2.04.416-.063.06-.217.12-.434.19-.65l.07.08c.69-.926 1.19-3.24 2.11-3.57-.1-.588.82-1.54 1.03-2.22h.16c.43-.978 1.33-3.028 1.96-3.793.06.017.12.04.18.063v-.16h.16l.06.137c.06-.023.12-.04.18-.057v.24h-.15c-.14.29-.53.73-.5 1.05.185.018.185.018.266-.056l-.08-.08c.334-.263.45-.463.63-.52-.444.908-.353.93-.353 1.747-.396.4-.35 1.01-.82 1.41.034.4-.383.94-.57 1.29h-.16c-.4 1.32-1.754 2.42-2.063 3.73-.45.13-1.103 1.18-1.034 1.67-.116-.01-.23-.01-.34-.02-.56 1.57-1.86 3.15-2.26 4.64-.09.02-.172.04-.26.07-.28.64-.435.8-.475 1.04-.062.02-.125.037-.182.06-.03.135-.07.27-.093.415l-.08-.08c-.32.38-.83 1.71-1.144 1.827-.06.218-.123.435-.18.65.34.025.34.025 1.137-.095v.16h.313v-.16c2.54-.2 2.54-.2 2.69-.16v-.16c.27.046.31-.1.56-.16 0 .16 0 .16.07.16.025-.11.05-.21.08-.314h.16c.02.055.036.113.06.17l.34.06v-.31h.15v.234c1.764-.195 3.54-.52 5.316-.714v-.638h.08c.02.16.05.32.08.48h.472c.01-.055.026-.106.04-.16.49.494 1.847-.28 2.5-.28-.03.026-.05.054-.078.08.072.014.152.026.232.04v.24c-.065.02-.13.037-.185.06L25.3 38l-2.07.24v.16h.16v.24c-.473.034-.473.034-.736.13.01.137.015.28.026.42-.063-.02-.126-.044-.183-.06l-.05-.26c-.48.04-.48.04-.737.14-.023.058-.04.12-.057.18-1.19.14-2.21.425-3.416.476v.16c-2.365-.163-6.853.66-8.823 2.12-.006.11-.01.227-.017.34-.06-.05-.11-.102-.16-.153-.07.15-.14.31-.2.47h-.15v.16h-.32zm49.17-.875c-.28-.474-.28-.474-.51-1.107.32.394.32.394.64.987l-.12.12zm.72-1.187c-.59-1.034-.59-1.034-.59-1.194.32.4.32.4.76 1.194h-.16zm-2.06-1.114c-.21-.434-.41-.8-.51-1.268.03-.028.05-.057.08-.08.18.47.55.777.57 1.285-.04.01-.09.04-.13.06zm1.27-.16c-.43-.788-.43-.788-.43-.948l.57.89c-.04.018-.09.036-.13.058zM30 39.338c.123-2.507-.294-5.19-.477-7.697h.155c.17 2.54.44 5.08.44 7.62-.04.03-.08.05-.12.08zm-7.934-.714v-.16c-.16 0-.16 0-.16-.08.394-.057.794-.108 1.194-.16v.16c-.715.12-.715.12-1.035.24zm-14.75-.24c.023-.108.05-.217.08-.32h.235c-.04-.193-.04-.193.08-.473h.24c0 .08 0 .08-.14.14.03.38-.18.52-.49.66zm21.414-1.9h.08v1.66h-.08v-1.66zM7.93 37.51c-.14-.508.875-1.598 1.11-2.14h.16c0 .16 0 .16.08.16-.03-.138-.058-.27-.08-.4h.24c.193-.554.273-.634.313-.87.32-.118.32-.118.457-.1-.337.638-.674 1.278-1.01 1.923l-.264.017c-.017.046-.034.092-.05.143-.064.017-.127.034-.184.057-.097.417-.097.417-.177.497l-.16-.16c-.08.337-.17.657-.434.874zm47.425-.16v-.153h-.234c-.12-.4-.28-.64-.32-.954-.36-.108-.52-.782-.67-1.113-.03.023-.05.05-.08.08-.22-.223-.71-1.24-.71-1.508.26.4.64 1.273 1.08 1.428.09.417.18.953.64 1.113.05.21.11.423.16.634h.16v.24h.16v.234h-.16zM28.71 36.324c-.24-1.747-.49-3.73-.2-5.476.24 5.236.24 5.236.2 5.476zm-13.96-.08c.05-.137.102-.27.16-.4h.16l.016.337c-.114.02-.228.04-.337.07zm18.243-.554c.07-.246.138-.492.212-.737.057-.023.12-.04.182-.058-.09.366-.154.51-.394.794zm-22.206-2.222c.017-.09.034-.177.056-.263.252-.068.537.41.657.577-.034.017-.063.034-.09.057-.212-.13-.418-.26-.623-.38zm6.583-1.114c-.28.48-.28.48-.52.714.012-.13.024-.262.04-.394.16-.108.32-.217.48-.32zm0 0c-.028-.256-.034-.32.08-.554h.235c.028-.257.022-.296.217-.456.056.034.12.068.182.103-.24.302-.48.605-.714.907zm1.348-1.98v-.24h.16c.04-.144.085-.28.13-.418.207-.057.224-.125.32-.32h.16c-.65.897-.65.897-.77.977zm-11.974-1.03v.155c.234.04.394.2.61.29-.04.05-.08.1-.12.16-.296-.2-.593-.39-.89-.58l.4-.04zm42.98-.08c.395-1.26.937-2.5 1.114-3.808-.08 0-.08.16-.16.16.023-.16.05-.32.08-.48h.24c-.074-.93.337-1.627.925-2.317.263-.02.263-.02.44.07.017.19-.154.32-.12.43.057.01.12.04.182.06.234-1.1 4.026 1.85 4.123 1.9v.16l1.507.99c-.633.23-.633.23-.816.21-.03-.06-.04-.12-.06-.17h-.16v.23c-2.06.44-3.94 1.68-5.95 2.38v-.24c-.56.05-.86.33-1.35.4zm8.965-2.54c.19-.262.41-.33.71-.394-.03.057-.05.114-.06.177-.22.07-.44.143-.65.217zm-.48-.314c-1.67-1.233-1.67-1.233-2.07-1.467.57 0 2.06.896 2.62 1.267-.32.16-.32.16-.56.2zm.87-.794c-.4-.28-.4-.28-.56-.32v-.16c-.6-.085-1.16-.627-1.75-.867v-.16c-.64-.28-.64-.28-1.66-.92 1.05.4 3.43 1.45 4.28 2.3l-.32.12zm-35.77-.32l-.16-.12c.28-.342.69-.793.78-1.227.41-.13.4-.64.79-.84l-.08-.08c.36-.52.36-.52.4-.68h.16c.19-.58.81-.96.95-1.51h.16v-.24c.13-.07.26-.14.4-.2l-.08-.08c.2-.24.67-.72.82-.99.02.02.05.04.08.07l.12-.24h.16c-.04 1.31-.12 1.43-.12 1.59.203.202.203 1.464.12 1.9h-.16c.22.45.094 1.44.16 1.98-1.22.066-3.06.055-4.126.432.632 0 .632 0 .872.08l-1.27.12zm4.2 0c-.05-.074-.09-.148-.14-.216-.65.188-1.92.125-2.64.017 1.59-.154 1.59-.154 3.09-.194v.394h-.32zm3.57 0c-.14-.89-.15-1.478-.04-2.375.01.79.02 1.59.04 2.38zm20.78-3.17c-.16-.078-.32-.16-.48-.238.04-.103.09-.206.13-.303.05.017.12.04.18.063v.16l.27-.12c.25.13.5.262.75.4-.35 0-.526-.16-.874-.16.24.12.24.12.24.2h-.24zm-41.4-2.14v.234h.24c-.01.137-.02.274-.02.417-.4.148-.52.188-.73.537 0-.32-.08-.394-.07-.617.05.017.12.04.18.063l.24-.634h.15zm0 0c.04-.303.12-.457.4-.56.02-.16.05-.32.08-.473.11-.012.22-.017.33-.023.01.142.02.29.04.44h-.24l-.05.137h-.16c-.03.102-.06.21-.08.32-.11.05-.22.102-.32.16zm18-2.3v-.24h.16l-.03-.338c.08-.023.17-.04.26-.057v.16H29v.16c-.394.28-.394.28-.554.32zm-16.66-.16c-.04-.218-.01-.27.08-.475l.17.06c.01.06.01.12.02.18-.1.08-.19.16-.28.24zm17.92-1.668c.11-.298.21-.406.43-.634-.077.302-.14.525-.44.634z" fill="#fff"/></svg>