<svg viewBox="0 0 64 64" xmlns="http://www.w3.org/2000/svg" fill-rule="evenodd" clip-rule="evenodd" stroke-linejoin="round" stroke-miterlimit="1.414"><path d="M46.622 39.742c-.125.342-.287.648-.486.918-.2.27-.43.5-.694.686-.264.187-.557.33-.88.427-.323.098-.672.147-1.046.147-.35 0-.65-.044-.897-.132-.25-.088-.44-.22-.57-.4-.13-.177-.2-.4-.2-.665-.01-.266.05-.578.18-.934l1.23-3.4c.01-.03.02-.06.05-.08s.06-.04.11-.06.11-.03.183-.04c.08-.01.17-.02.28-.02.11 0 .2 0 .27.01s.12.02.16.03c.04.01.064.03.074.05.01.024.01.05 0 .08l-1.2 3.294c-.08.22-.12.412-.126.574-.006.16.024.3.087.4.068.107.16.187.28.24.127.055.276.08.45.08s.35-.026.51-.08c.16-.054.31-.133.448-.24.132-.103.254-.23.364-.386.11-.158.2-.33.27-.528l1.223-3.36c.01-.03.03-.058.054-.08.03-.024.065-.04.11-.058.05-.018.114-.03.19-.038.077-.01.17-.01.28-.01.11 0 .2.005.266.013.07.01.12.02.16.035.04.013.06.032.07.055.01.02.01.043 0 .073l-1.22 3.35zm-5.94.405c-.106.294-.255.55-.444.772-.19.22-.405.4-.646.55-.24.15-.5.26-.778.33-.277.07-.56.11-.843.11-.19 0-.36-.02-.52-.05-.15-.04-.28-.07-.39-.12-.11-.05-.2-.1-.26-.14-.06-.05-.11-.1-.13-.13-.02-.04-.03-.09-.02-.17.01-.07.04-.17.09-.31.03-.09.07-.165.09-.225.03-.06.06-.11.08-.15.03-.04.06-.06.08-.08.03-.014.06-.02.09-.02.04 0 .09.023.15.07.056.046.13.1.226.156.093.058.21.11.353.158.14.05.32.07.53.07.135 0 .265-.014.39-.047.12-.033.23-.08.325-.14.097-.06.183-.135.256-.225.07-.09.13-.186.17-.295.046-.126.05-.234.015-.325-.04-.09-.1-.17-.184-.24-.087-.07-.19-.14-.307-.2-.12-.06-.24-.13-.367-.198-.127-.07-.24-.148-.35-.236-.11-.084-.2-.19-.265-.31-.066-.12-.103-.27-.11-.437-.01-.17.03-.37.113-.6.095-.27.23-.5.403-.708.178-.2.37-.37.59-.505.22-.133.45-.233.707-.3.254-.065.508-.1.764-.1.13 0 .26.01.382.03.123.023.24.05.34.084.1.035.19.073.263.12.073.04.12.08.137.105.02.03.03.057.03.077.002.02 0 .046 0 .08l-.03.124-.067.19c-.03.085-.06.156-.083.21-.024.06-.05.108-.072.145-.025.038-.05.066-.074.084-.022.012-.05.02-.082.02-.03 0-.074-.02-.128-.06-.057-.04-.126-.08-.21-.13-.083-.05-.184-.09-.3-.13-.12-.04-.26-.06-.416-.06-.124 0-.24.02-.34.05-.104.03-.196.07-.28.13-.08.05-.15.12-.21.19-.06.073-.1.15-.13.235-.05.124-.05.23-.02.32.037.09.1.17.187.24.09.07.195.137.317.2.12.06.244.127.37.196.12.07.24.15.352.237.11.087.2.192.27.314.063.12.102.266.11.43.01.167-.03.36-.11.586zm-35.917-.405c-.125.342-.287.648-.487.918-.198.27-.43.5-.693.687-.263.186-.557.328-.88.426-.324.098-.672.147-1.046.147-.36 0-.65-.044-.9-.132-.25-.087-.44-.22-.56-.4-.13-.177-.2-.4-.2-.665-.01-.266.05-.577.18-.934l1.23-3.4c.01-.03.03-.06.05-.08.02-.03.06-.04.11-.06s.11-.03.18-.04c.07-.01.17-.02.28-.02.11 0 .2 0 .27.01.062.01.12.02.153.03.04.01.063.03.073.052.01.02.01.05 0 .076l-1.2 3.296c-.08.22-.12.41-.125.57-.004.16.026.3.09.403.063.104.156.183.28.24.12.05.27.08.447.08.18 0 .35-.03.51-.086.16-.053.31-.132.446-.24.133-.102.255-.23.365-.385.11-.16.2-.33.27-.53l1.222-3.36c.013-.03.03-.053.056-.076.025-.02.06-.04.11-.056s.11-.026.19-.035c.074-.004.167-.01.276-.01.11 0 .198.005.265.01.07.01.12.02.16.037.04.014.064.03.07.056.01.023.01.05 0 .08l-1.22 3.35zm47.453 1.682c-.024.066-.057.125-.1.177-.04.06-.087.1-.138.13-.052.04-.107.06-.166.08-.06.02-.116.03-.17.03h-.483c-.1 0-.18-.01-.25-.03-.06-.02-.12-.05-.16-.11-.04-.05-.07-.12-.1-.21-.02-.09-.04-.21-.06-.35l-.44-2.61c-.02-.15-.04-.32-.06-.5-.02-.18-.03-.35-.03-.52h-.01c-.06.21-.13.41-.2.62-.07.21-.14.42-.22.64l-1.06 2.92c-.01.03-.02.056-.05.08-.02.02-.06.04-.1.057s-.1.03-.17.038-.15.016-.26.016c-.1 0-.18-.005-.24-.01-.06-.01-.11-.02-.14-.04-.03-.012-.05-.03-.06-.054 0-.027 0-.05.01-.08l1.83-5.02c.05-.133.127-.235.23-.3.105-.07.215-.105.33-.105h.608c.11 0 .2.01.266.03.07.02.123.05.166.09.043.04.077.1.1.177.025.076.045.17.06.28l.35 2.04.052.367c.02.12.035.238.05.358l.04.35.034.35.21-.63.22-.623.957-2.62c.01-.025.03-.05.056-.075.026-.02.06-.04.11-.06.046-.015.103-.03.172-.034.07-.01.15-.01.254-.01.1 0 .18 0 .24.01.063.01.11.02.14.038.03.02.046.04.052.06.01.026.003.05-.007.08l-1.825 5.02zm-25.318.108c-.043.07-.087.125-.133.166-.044.042-.1.073-.17.095-.068.02-.15.036-.248.043-.1.007-.22.01-.37.01-.17 0-.3-.003-.39-.01-.1-.007-.17-.022-.22-.043-.05-.022-.08-.053-.09-.095-.01-.04-.01-.097 0-.166l.39-3.538h-.01l-2.13 3.538c-.04.066-.08.12-.12.162-.04.042-.1.074-.16.096-.07.024-.15.04-.25.046-.1.007-.23.01-.39.01-.17 0-.3-.003-.4-.01-.1-.007-.17-.022-.22-.043-.05-.022-.08-.053-.09-.095-.01-.04-.01-.097-.01-.166l.505-4.87c.01-.104.025-.186.044-.244.02-.06.05-.105.1-.137.046-.03.11-.05.197-.05.085 0 .2-.01.347-.01.136 0 .242 0 .32.01.08.01.133.02.17.03.032.02.05.04.054.07 0 .03 0 .07-.01.13l-.58 4.28h.002l2.56-4.24c.03-.05.063-.1.095-.13.03-.032.07-.06.124-.08.053-.02.12-.03.2-.04.08-.003.184-.01.313-.01.136 0 .245.006.325.01.08.008.14.02.175.038.04.02.06.05.07.08.006.038.005.08-.004.14l-.49 4.246h.01l2.53-4.26c.024-.045.05-.084.08-.12.023-.03.06-.06.11-.075.044-.02.11-.034.184-.04.078-.008.184-.01.32-.01.126 0 .22.002.29.01.07.006.11.026.13.06.02.03.017.076-.01.14-.03.06-.073.144-.14.25l-3.05 4.86zm8.258.133c-.01.03-.03.055-.056.078-.028.023-.065.042-.114.056-.048.01-.11.02-.185.03-.074.01-.168.01-.28.01-.11 0-.2-.01-.27-.01-.07-.01-.124-.02-.162-.04-.03-.02-.06-.04-.07-.06-.01-.03-.01-.05 0-.08l1.92-5.27c.01-.03.03-.06.06-.08.03-.02.07-.04.12-.06s.12-.03.19-.04c.08-.01.17-.01.28-.01.11 0 .21 0 .27.01.07.01.13.02.16.03.04.01.07.03.08.053.01.023.01.05 0 .08l-1.92 5.27zm-15.313.01c-.012.03-.027.057-.047.08-.02.02-.053.038-.102.053-.048.014-.115.024-.2.03-.086.006-.2.008-.344.008-.12 0-.217-.002-.286-.008-.07-.006-.123-.016-.16-.032-.035-.016-.057-.036-.065-.06 0-.025-.01-.055-.01-.09l-.04-1.246c-.01-.14-.02-.266-.04-.375-.02-.11-.05-.2-.09-.274-.04-.07-.1-.12-.18-.16-.08-.04-.18-.05-.3-.05h-.35l-.77 2.13c-.01.03-.03.06-.05.08-.03.03-.063.05-.11.06-.048.02-.11.03-.186.04-.076.01-.17.01-.28.01-.11 0-.2 0-.27-.01s-.125-.02-.16-.03c-.04-.02-.065-.04-.074-.06-.007-.025-.007-.05.004-.08l1.85-5.07c.045-.125.11-.216.196-.273.087-.054.177-.082.27-.082h1.447c.147 0 .267.003.36.01.09.004.176.01.25.02.213.03.395.087.546.165.15.076.264.18.343.302.08.127.12.276.123.446 0 .17-.038.365-.12.59-.07.184-.152.354-.26.51-.1.15-.22.29-.36.41-.133.12-.29.226-.453.315-.165.09-.345.16-.54.217.07.04.13.09.184.147.057.058.1.127.13.21.04.08.067.175.086.28.02.105.03.224.04.356l.07 1.1c0 .11 0 .19-.004.24-.003.05-.01.09-.02.117zm-9.58-1.528c-.072.198-.165.378-.278.54-.113.16-.24.303-.382.427-.14.123-.295.23-.46.32-.167.088-.34.16-.523.22-.182.056-.37.1-.562.126-.193.027-.4.04-.626.04H5.95c-.095 0-.164-.027-.21-.084-.043-.056-.042-.147.004-.273l1.77-4.867c.048-.126.113-.217.198-.274.085-.056.176-.084.27-.084h1.403c.34 0 .62.03.837.086.216.058.385.145.505.262.12.116.19.263.212.442.02.178-.02.388-.1.63-.05.135-.12.262-.2.382s-.17.227-.27.325-.22.184-.34.26c-.13.074-.26.134-.4.18.15.03.27.08.38.15.1.073.19.166.25.28.06.113.09.246.09.398 0 .153-.03.324-.1.514zm4.173 1.23c-.03.083-.06.153-.087.21-.02.055-.05.1-.08.135-.02.034-.05.06-.08.075-.02.016-.05.024-.08.024h-2.8c-.09 0-.16-.02-.21-.08-.04-.05-.04-.14.01-.27l1.77-4.86c.05-.12.12-.21.2-.27.09-.05.18-.08.27-.08h2.79c.03 0 .05.01.06.02.02.02.03.04.03.08s0 .09-.02.14c-.01.06-.03.13-.06.22-.03.08-.053.15-.08.206-.03.056-.06.1-.086.136-.027.03-.054.06-.08.074-.026.013-.05.02-.077.02h-2l-.494 1.364H15c.026 0 .047.01.063.022.016.015.026.04.028.072.01.035 0 .08-.01.135-.01.06-.03.13-.06.21-.03.083-.06.15-.09.206-.02.057-.05.1-.08.134-.02.03-.05.053-.08.07-.02.012-.05.02-.08.02H13l-.573 1.57h2.01c.026 0 .046.01.063.025.015.014.024.04.026.073.003.04-.003.084-.016.14-.014.056-.035.126-.066.21zm18.314 0c-.03.083-.06.153-.087.21-.028.055-.055.1-.083.135-.027.034-.053.06-.08.075-.028.016-.054.024-.08.024h-2.805c-.095 0-.164-.02-.21-.08-.043-.05-.042-.14.004-.27l1.78-4.87c.05-.12.12-.21.2-.27.09-.05.18-.08.27-.08h2.79c.03 0 .05.01.06.02.02.02.03.04.03.08s0 .09-.01.14c-.01.06-.03.13-.062.22-.03.08-.057.15-.085.21-.023.055-.05.1-.08.135-.024.03-.05.06-.08.07-.023.017-.05.025-.075.025h-2l-.5 1.36h1.688c.025 0 .045.01.06.024.017.013.027.04.03.07 0 .035-.005.08-.02.135-.012.06-.033.13-.062.21-.03.084-.06.152-.087.21-.03.052-.057.1-.08.13-.03.03-.056.054-.08.07-.03.013-.057.02-.08.02h-1.69l-.578 1.572h2.01c.026 0 .047.01.063.02.01.02.02.04.02.08s-.006.086-.02.14c-.014.06-.036.13-.065.21zm27.14-4.272c-.03.084-.06.155-.09.216-.028.06-.055.11-.08.15-.027.04-.052.06-.075.08-.025.02-.05.03-.075.03-.038 0-.09-.02-.154-.08-.064-.05-.154-.11-.27-.17-.116-.06-.26-.11-.432-.16-.174-.05-.386-.07-.64-.07-.27 0-.53.05-.784.14-.252.096-.487.23-.706.4-.217.17-.41.378-.582.618-.17.24-.31.505-.415.796-.12.32-.18.6-.18.84-.01.246.04.45.13.61.09.167.23.29.41.374.18.08.4.12.66.12.12 0 .25-.018.39-.046.13-.03.26-.072.39-.13l.47-1.293h-1.05c-.06 0-.08-.03-.09-.097-.01-.063.02-.173.08-.33.03-.08.05-.146.08-.2.02-.053.05-.1.08-.13.02-.033.05-.06.08-.073.02-.015.05-.023.07-.023H59c.046 0 .083.01.114.025.03.02.056.04.07.07.02.034.025.07.02.12 0 .04-.01.09-.03.15l-.81 2.22c-.03.09-.074.162-.127.23-.055.06-.136.112-.24.15-.11.037-.24.075-.39.116-.156.04-.31.07-.47.1-.16.03-.317.05-.473.06-.15.018-.31.02-.46.02-.442 0-.82-.06-1.124-.19-.306-.13-.537-.31-.693-.56-.155-.24-.234-.54-.236-.89 0-.35.08-.75.24-1.19.17-.46.39-.87.66-1.23s.58-.67.93-.93c.345-.25.72-.45 1.13-.58.406-.133.83-.2 1.27-.2.24 0 .455.016.64.05.188.03.347.07.477.12.13.047.237.1.315.15.08.056.13.104.153.144.024.04.03.097.02.17-.01.074-.04.18-.093.326zm-50.818 3.08c.047-.13.067-.244.06-.347-.005-.1-.037-.187-.095-.256-.06-.07-.15-.122-.27-.16-.12-.037-.28-.056-.49-.056h-.67l-.58 1.587h.82c.15 0 .29-.015.41-.05.12-.032.23-.08.33-.146.1-.064.19-.145.27-.24.08-.098.14-.207.18-.33zm10.687-2.3c.07-.183.09-.338.05-.465-.04-.126-.14-.215-.31-.268-.05-.014-.11-.025-.18-.034-.07-.008-.17-.013-.3-.013h-.51l-.57 1.584h.58c.16 0 .31-.02.45-.06.14-.04.26-.1.36-.17.11-.07.2-.16.28-.26.078-.1.137-.21.18-.33zm-10.1-.09c.04-.112.06-.212.06-.302s-.02-.163-.07-.22c-.05-.06-.12-.106-.21-.138-.09-.03-.23-.047-.4-.047h-.58l-.52 1.45h.64c.163 0 .3-.02.413-.06.114-.037.215-.09.3-.158.09-.068.17-.147.235-.237s.117-.187.154-.287zm-5.9-2.592c-.07.2-.16.342-.27.422-.11.08-.27.122-.49.122-.22 0-.35-.04-.4-.117-.05-.078-.03-.214.04-.41.08-.204.17-.346.28-.425.11-.08.275-.12.494-.12.22 0 .36.04.41.116.045.08.034.22-.04.42zm1.89 0c-.07.2-.16.342-.27.422-.11.08-.27.122-.49.122-.22 0-.35-.04-.4-.117-.05-.078-.032-.214.04-.41.073-.204.164-.346.273-.425.107-.08.27-.12.493-.12.22 0 .36.04.41.116.05.08.04.22-.032.42zm18.39-11.91c-.56-.803-1.52-1.212-2.86-1.213-.87 0-1.72.2-2.52.577-1.14.54-2.17 1.438-3.01 2.63-.54.777-1.01 1.674-1.38 2.68-.69 1.894-.68 3.432.03 4.446.4.572 1.24 1.257 2.93 1.26h.01c3.09 0 5.398-2.026 6.858-6.02.387-1.057.896-3.028-.034-4.36zm18.64 0c-.56-.803-1.52-1.212-2.86-1.213-.87 0-1.72.2-2.52.577-1.14.54-2.17 1.438-3.01 2.63-.54.777-1.01 1.674-1.38 2.68-.69 1.894-.68 3.432.03 4.446.4.572 1.238 1.257 2.93 1.26h.01c3.09 0 5.4-2.026 6.858-6.02.39-1.057.897-3.028-.033-4.36zm10.13-1.046c.22.174.41.373.57.6.41.583.56 1.276.47 2.07h2.07l-3.12 8.577h3.12l3.12-8.578h4.01l.98-2.67H52.8zm-.15 1.103c-.51-.74-1.55-1.1-3.19-1.103h-3.79l-4.1 11.245h3.48l1.49-3.958c.078.163.95 3.958.95 3.958h3.66s-.662-2.79-1.15-3.916c-.125-.29-.256-.614-.43-.885 1.03-.38 2.53-1.2 3.15-2.87.38-1.02.356-1.85-.067-2.46zm-16.27-1.11H29.8c-1.838 0-3.206.93-3.85 2.67l-3.122 8.575h3.418l1.604-4.408 3.022.002.86-2.37H28.72l.48-1.37c.1-.25.342-.44.696-.44h3.563c.03-.04.05-.09.08-.13.75-1.07 1.82-1.93 2.82-2.54zm-18.68 0h-6.45c-1.01 0-2 0-2.89.45-.88.45-1.66 1.347-2.26 3.144-.13.387-.2.72-.21 1.008-.01.29.04.537.15.75.14.262.36.508.63.715.278.207.607.376.96.484l.42.13c.226.07.49.14.655.19.096.03.204.07.3.13.098.06.185.14.24.25.036.07.055.15.057.23.006.09-.01.18-.042.27-.083.25-.21.4-.447.5-.236.1-.586.13-1.12.13H1.05L0 33.49h7.102c.67 0 1.89 0 3.064-.5 1.175-.5 2.3-1.5 2.778-3.49.18-.75.123-1.36-.17-1.84-.295-.48-.828-.83-1.604-1.05l-.378-.11-.56-.16c-.198-.06-.35-.17-.44-.32-.09-.148-.117-.32-.066-.507.054-.18.182-.34.368-.44.187-.1.432-.16.72-.16h4.127c.03-.04.06-.08.09-.13.76-1.06 1.67-1.93 2.67-2.54zm3.03 5.57c-.96 2.638-1.66 3.303-2.71 3.303H18c-1.025-.002-1.385-.65-.425-3.276.717-1.96 1.645-3.213 2.768-3.213 1.07 0 1.313.62.376 3.187zm18.64 0c-.96 2.638-1.66 3.303-2.71 3.303-1.022-.002-1.38-.65-.42-3.276.717-1.96 1.646-3.213 2.77-3.213 1.067 0 1.312.62.374 3.187zm10.25-1.976c-.33.9-.93 1.455-2.07 1.455l-.59-.01 1.01-2.72h.576c1.05 0 1.44.31 1.09 1.26z" fill="#fff"/></svg>