<svg viewBox="0 0 64 64" xmlns="http://www.w3.org/2000/svg" fill-rule="evenodd" clip-rule="evenodd" stroke-linejoin="round" stroke-miterlimit="1.414"><path d="M22.72 37.615h-.026c-2.3-.006-4.433-.7-5.86-1.978-1.08-.97-1.6-2.29-1.6-3.647 0-1.34.542-2.668 1.6-3.634 1.33-1.21 3.678-1.97 5.887-1.97 2.45 0 4.41.616 5.9 1.973 1.07.96 1.58 2.28 1.58 3.63 0 1.3-.54 2.68-1.58 3.64-1.38 1.29-3.56 1.97-5.87 1.975h-.03zm39.903-.473h-.01c-.755-.005-1.367-.62-1.367-1.377 0-.76.616-1.377 1.377-1.377.76 0 1.377.616 1.377 1.377 0 .758-.612 1.372-1.368 1.377h-.01zm0-.21c.645 0 1.168-.522 1.168-1.167s-.52-1.168-1.16-1.168-1.17.523-1.17 1.168c0 .645.526 1.168 1.17 1.168zm-.388-1.02v.702h-.245v-1.692h.763c.256-.007.59.086.59.464 0 .21-.084.314-.22.407v-.002c-.016.02-.014.04.004.05.107.07.135.19.138.38.004.217.032.348.11.4h-.285c-.03-.05-.074-.13-.074-.22 0-.182.013-.505-.323-.48h-.458zm-39.514.22c1.23 0 2.37-.422 3.16-1.212.79-.785 1.16-1.75 1.16-2.93 0-1.13-.392-2.186-1.152-2.935-.783-.773-1.95-1.207-3.16-1.207-1.21 0-2.377.43-3.16 1.207-.757.748-1.154 1.808-1.154 2.935 0 1.124.4 2.182 1.153 2.93.78.778 1.937 1.21 3.15 1.213h.013zm39.52-.436h-.01v.217h.01v-.217h.528c.155-.006.323-.04.323-.27 0-.24-.164-.285-.324-.285h-.522v.56zm-25.6-8.683L43.5 33.2l-.07-4.16c-.007-.547-.108-.775-.7-.775h-1.29V27.02h5.86v1.245h-1.258c-.602 0-.64.194-.648.775L45.5 37h-2.008l-7.897-7.05v5.003c.008.543.034.8.594.8h1.41v1.245h-5.76V35.75h1.34c.5 0 .48-.48.48-.83v-5.838c0-.377-.053-.82-.842-.82h-1.09v-1.25h4.904zm17.367 8.734c.054 0 .3-.007.347-.022.13-.042.223-.138.27-.24.013-.04.023-.23.023-.27v-1.97c0-.046-.003-.067-.083-.172-.09-.115-3.59-4.085-3.75-4.26-.2-.217-.55-.553-1.08-.553h-1.22v-1.247h6.874v1.246h-.828c-.194 0-.32.18-.158.38l2.336 2.79c.02.03.04.035.068.01.03-.028 2.372-2.78 2.39-2.8.11-.135.036-.388-.204-.388h-.85V27.01h5.635v1.248H62.52c-.457 0-.643.085-.987.473l-3.794 4.33c-.05.06-.05.14-.05.19v1.97c0 .04.01.23.02.27.043.1.135.198.27.24.048.015.29.02.344.02h1.29V37h-6.84V35.75H54zM5.837 26.39c-1.238 0-2.64.232-3.835.765C.902 27.647 0 28.44 0 29.758c0 1.186.753 1.88.733 1.862.32.295.837.798 2.186 1.093.6.132 1.89.334 3.17.47 1.272.133 2.53.26 3.04.39.404.104 1.09.245 1.09 1.01 0 .762-.72.994-.846 1.044-.125.05-.987.445-2.537.445-1.14 0-2.52-.344-3.02-.523-.576-.21-1.183-.48-1.75-1.17-.14-.17-.36-.64-.36-1.11H.31v3.93h1.56v-.53c0-.06.075-.31.337-.19.326.14 1.28.53 2.28.73.82.17 1.348.292 2.366.292 1.662 0 2.555-.27 3.172-.447.582-.166 1.3-.465 1.884-.93.31-.25 1-.898 1-2.07 0-1.12-.604-1.82-.817-2.03-.29-.29-.64-.514-1.01-.687-.32-.15-.826-.33-1.24-.434-.804-.197-2.62-.44-3.49-.53-.91-.096-2.49-.227-3.12-.42-.19-.06-.58-.248-.58-.7 0-.32.176-.596.53-.816.56-.35 1.69-.57 2.87-.57 1.39-.002 2.57.317 3.32.65.256.116.554.28.792.474.266.218.642.67.78 1.304h1.257v-3.42H10.8v.4c0 .126-.13.293-.38.155-.63-.33-2.41-1.04-4.59-1.044z" fill="#fff"/></svg>