<svg viewBox="0 0 64 64" xmlns="http://www.w3.org/2000/svg" fill-rule="evenodd" clip-rule="evenodd" stroke-linejoin="round" stroke-miterlimit="1.414"><path d="M46.167 50.242c-1.603 0-2.55-1.24-2.55-3.03 0-1.787.947-3.028 2.55-3.028 1.603 0 2.55 1.24 2.55 3.03 0 1.787-.947 3.028-2.55 3.028zm-34.404 0c-1.603 0-2.55-1.24-2.55-3.03 0-1.787.947-3.028 2.55-3.028 1.602 0 2.55 1.24 2.55 3.03 0 1.787-.948 3.028-2.55 3.028zm-5.75 0c-.98 0-1.837-.41-2.283-1.065l.848-.756c.412.48.94.68 1.503.68.7 0 1.03-.19 1.03-.64 0-.37-.2-.54-1.31-.79-1.08-.25-1.83-.59-1.83-1.75 0-1.06.94-1.72 2.1-1.72.92 0 1.59.34 2.14.92l-.84.83c-.38-.385-.8-.604-1.335-.604-.63 0-.84.27-.84.53 0 .37.253.486 1.185.705.93.22 1.963.536 1.963 1.81 0 1.12-.703 1.875-2.306 1.875zm51.843-.09h-1.753v-5.877h1.837c1.68 0 2.92.79 2.92 2.938 0 2.064-1.492 2.938-3.004 2.938zm-28.136 0h-1.753v-5.877h1.838c1.678 0 2.92.79 2.92 2.938 0 2.064-1.493 2.938-3.005 2.938zm9.82 0v-5.877h1.176v4.717h2.356v1.16h-3.53zm-21.693.09c-1.418 0-2.375-.957-2.375-2.668v-3.3h1.175v3.283c0 .94.453 1.536 1.2 1.536.746 0 1.208-.58 1.208-1.52v-3.298h1.175v3.282c0 1.703-.89 2.685-2.383 2.685zm34.405 0c-1.42 0-2.375-.957-2.375-2.668v-3.3h1.174v3.283c0 .94.46 1.536 1.21 1.536s1.21-.58 1.21-1.52v-3.298h1.18v3.282c0 1.703-.89 2.685-2.38 2.685zm-6.085-4.892c-.95 0-1.343.814-1.343 1.863 0 1.048.394 1.863 1.343 1.863.947 0 1.342-.815 1.342-1.863 0-1.05-.4-1.863-1.35-1.863zm-8.734.638c-.21-.403-.546-.638-1.074-.638-.89 0-1.39.772-1.39 1.863 0 1.057.51 1.863 1.39 1.863.53 0 .84-.227 1.15-.748l.99.59c-.41.83-1.11 1.324-2.18 1.324-1.54 0-2.57-1.175-2.57-3.03 0-1.787 1.07-3.028 2.61-3.028 1.1 0 1.78.537 2.15 1.3l-1.09.504zm-25.67-.638c-.95 0-1.343.814-1.343 1.863 0 1.048.394 1.863 1.343 1.863.948 0 1.343-.815 1.343-1.863 0-1.05-.395-1.863-1.343-1.863zm46.136.067h-.63v3.592h.58c1.23 0 1.79-.73 1.79-1.8 0-1.2-.51-1.8-1.76-1.8zm-28.14 0h-.62v3.592h.58c1.23 0 1.79-.73 1.79-1.8 0-1.2-.52-1.8-1.76-1.8zM25.4 50.15l-2.157-3.2c-.143-.22-.336-.513-.41-.663 0 .218.016.956.016 1.283v2.585h-1.16V44.28h1.12l2.08 3.104c.14.22.33.512.41.664 0-.218-.02-.957-.02-1.284V44.28h1.15v5.875H25.4z" fill="#fff"/><path d="M34.308 41.54c.02.002 21.68.013 21.82.013 4.348 0 7.872-3.525 7.872-7.873 0-4.348-3.524-7.873-7.87-7.873-1.08 0-2.11.22-3.046.612-.627-7.1-6.576-12.66-13.833-12.66-1.77 0-3.5.34-5.03.94-.59.23-.75.46-.76.92v24.99c.01.48.38.88.85.93zm-2.46-25.936c-.472 0-.86.388-.867.864l-.35 17.734.36 6.435c.01.47.4.858.87.858s.86-.388.87-.864v.01l.39-6.43-.38-17.73c-.005-.47-.394-.86-.866-.86zm-2.688 25.93c.44 0 .805-.36.813-.808v.006l.342-6.532-.342-16.26c-.008-.446-.372-.808-.813-.808-.44 0-.805.362-.812.81l-.306 16.253.306 6.536c.007.45.372.81.812.81zM27.598 34.2l-.38-13.666c-.01-.422-.342-.753-.757-.753s-.75.34-.75.76l-.34 13.67.34 6.58c.01.42.34.75.76.75s.75-.33.76-.75v.005l.38-6.573zm-3.816 7.31c.384 0 .692-.308.702-.7v.005l.417-6.617-.41-14.182c-.01-.39-.32-.698-.7-.698-.38 0-.69.307-.7.7l-.37 14.18.37 6.615c.01.39.32.697.71.697zm-2.66.007c.353 0 .638-.283.65-.644v.004l.454-6.68-.455-14.553c-.01-.36-.29-.644-.64-.644-.35 0-.64.283-.65.645l-.4 14.55.41 6.68c.01.36.3.642.65.642zm-2.637-21.99c-.322 0-.583.26-.594.59l-.43 14.08.44 6.72c.01.327.28.586.6.586.32 0 .58-.258.6-.588v.004l.49-6.73-.49-14.08c-.01-.33-.27-.59-.59-.59zm-2.617 21.99c.288 0 .525-.234.54-.534v.004l.528-6.793-.53-12.993c-.013-.3-.25-.53-.538-.53-.29 0-.527.24-.54.54L14.86 34.2l.47 6.79c.01.3.25.533.54.533zm-1.546-7.324l-.567-10.576c-.015-.268-.228-.48-.484-.48s-.47.212-.48.48l-.5 10.576.5 6.834c.02.266.23.477.49.477s.47-.21.49-.48v.003l.57-6.834zm-3.627 7.255c.23 0 .413-.183.43-.424l.604-6.834-.61-6.502c-.02-.24-.2-.422-.43-.422-.23 0-.42.182-.43.425l-.54 6.5.53 6.84c.01.24.2.43.43.43zm-2.555-.11c.196 0 .357-.16.375-.37l.64-6.78-.64-7.007c-.018-.2-.18-.36-.375-.36-.2 0-.36.16-.376.37l-.564 7 .564 6.78c.016.21.177.37.376.37zm-2.215-13.97c-.02-.182-.154-.313-.32-.313-.17 0-.304.132-.32.313l-.6 6.82.6 6.57c.016.183.15.315.32.315.166 0 .3-.132.32-.313l.68-6.572-.68-6.82zm-5.2 10.564c.13 0 .234-.103.255-.25l.554-3.495-.554-3.555c-.02-.147-.126-.25-.256-.25-.134 0-.24.104-.257.25L0 34.188l.467 3.494c.018.148.123.252.257.252zm.255-.25zm2.11 2.385c.135 0 .245-.106.266-.258l.716-5.63-.716-5.75c-.02-.16-.13-.26-.266-.26s-.247.11-.265.26l-.63 5.74.63 5.62c.018.15.13.26.265.26z" fill="#fff" fill-rule="nonzero"/></svg>