<svg viewBox="0 0 64 64" xmlns="http://www.w3.org/2000/svg" fill-rule="evenodd" clip-rule="evenodd" stroke-linejoin="round" stroke-miterlimit="1.414"><path d="M64 12.15c-2.355 1.046-4.885 1.75-7.54 2.07 2.71-1.626 4.792-4.2 5.772-7.266-2.537 1.505-5.347 2.598-8.338 3.187C51.5 7.59 48.086 6 44.31 6c-7.25 0-13.13 5.88-13.13 13.13 0 1.03.115 2.032.34 2.993-10.914-.55-20.59-5.78-27.065-13.72-1.13 1.94-1.778 4.194-1.778 6.6 0 4.555 2.318 8.574 5.84 10.93-2.15-.07-4.176-.66-5.946-1.644v.165c0 6.364 4.53 11.67 10.53 12.877-1.1.3-2.26.46-3.453.46-.846 0-1.67-.08-2.47-.236 1.67 5.218 6.52 9.014 12.265 9.12-4.494 3.52-10.156 5.62-16.31 5.62-1.06 0-2.103-.06-3.13-.183 5.81 3.726 12.713 5.9 20.128 5.9 24.15 0 37.358-20.01 37.358-37.36 0-.57-.013-1.135-.038-1.7 2.566-1.85 4.793-4.165 6.553-6.8" fill="#fff"/></svg>