<svg viewBox="0 0 64 64" xmlns="http://www.w3.org/2000/svg" fill-rule="evenodd" clip-rule="evenodd" stroke-linejoin="round" stroke-miterlimit="1.414"><path d="M13.243 37.09c.895 0 1.62.725 1.62 1.62 0 .894-.725 1.62-1.62 1.62-.894 0-1.62-.726-1.62-1.62 0-.895.726-1.62 1.62-1.62zm.096-4.52c-.28 1.942-1.96 3.442-3.97 3.442-.53 0-1.04-.103-1.5-.29l-1.39 2.41c.89.42 1.87.64 2.88.64.53 0 1.05-.06 1.552-.178.037-.76.45-1.488 1.16-1.898.706-.408 1.54-.402 2.217-.056 1.06-1.122 1.69-2.545 1.816-4.07h-2.77zM5.35 32c0-1.276.6-2.416 1.534-3.15L5.5 26.44c-.324.23-.633.486-.92.774-.804.804-1.38 1.775-1.7 2.835.64.41 1.064 1.13 1.064 1.95 0 .82-.423 1.54-1.063 1.95.32 1.06.9 2.03 1.7 2.83.29.286.6.543.92.77l1.39-2.407c-.93-.73-1.53-1.87-1.53-3.15zm38.78 2.21c0 .355.08.62.242.794.16.178.373.267.64.267.27 0 .487-.08.652-.26.165-.18.247-.44.247-.792V31.9c0-.658.05-1.116.14-1.373.09-.254.235-.45.434-.593.202-.14.45-.212.742-.212s.54.07.742.208c.206.14.36.348.457.618.074.202.11.633.11 1.295v2.38c0 .355.08.618.24.79.16.177.37.265.636.265.27 0 .486-.086.65-.262.165-.177.246-.44.247-.79V32.31c0-1.224-.097-2.06-.29-2.512-.237-.55-.586-.973-1.046-1.27-.46-.29-1.044-.438-1.754-.438-.77 0-1.396.172-1.874.516-.47.343-.804.822-1 1.436-.14.425-.204 1.2-.204 2.32v1.856zm8.308-6.254h.2v-1.104c0-.297.006-.528.02-.694.017-.17.06-.317.13-.438.073-.126.174-.227.307-.303.133-.08.28-.12.444-.12.23 0 .44.086.622.26.123.118.2.262.23.432.036.16.054.4.054.71v1.25h.66c.257 0 .45.06.584.19.137.12.205.274.205.47 0 .244-.096.42-.29.52-.19.1-.464.144-.82.144h-.34v3.38c0 .29.01.51.027.67.022.152.075.28.16.376.087.096.23.143.423.143.108 0 .25-.02.43-.056.184-.04.325-.06.427-.06.146 0 .276.06.39.18.12.117.18.263.18.44 0 .294-.16.52-.477.68-.32.155-.776.234-1.37.234-.568 0-.996-.094-1.288-.29-.29-.19-.483-.46-.576-.8-.086-.34-.13-.795-.13-1.366v-3.53h-.24c-.26 0-.46-.06-.595-.188-.137-.127-.205-.286-.205-.48s.07-.35.21-.47c.146-.127.356-.19.63-.19zM32.033 33.6c.17-.115.308-.27.41-.466.016-.017.03-.036.04-.056.19-.387.3-.87.3-1.394 0-.505-.104-.973-.278-1.353-.11-.25-.263-.44-.466-.58-.226-.15-.498-.222-.82-.222-.32 0-.594.078-.816.234-.217.156-.376.373-.475.65-.075.217-.12.56-.14 1.03-.01.73.04 1.227.14 1.508.1.28.26.496.477.652.222.155.495.232.817.232.322 0 .594-.075.816-.227zm4.037-4.457c0-.357.08-.62.24-.795.16-.178.37-.267.64-.268.27 0 .483.09.65.268.164.178.25.443.25.795v2.314c0 .657.043 1.115.134 1.372.09.25.234.45.432.59.2.14.45.21.74.21s.54-.07.743-.21c.203-.14.36-.348.46-.62.07-.202.11-.633.11-1.295v-2.38c0-.354.08-.617.24-.79.16-.176.37-.264.63-.265.267 0 .483.09.647.266.164.178.246.44.246.79v1.917c0 1.225-.097 2.063-.29 2.514-.238.55-.587.975-1.047 1.27-.46.29-1.045.44-1.756.44-.77 0-1.394-.17-1.872-.514-.47-.344-.804-.823-1-1.437-.136-.428-.205-1.2-.205-2.32v-1.86zm21.752 0c0-.357.08-.62.242-.795.16-.178.373-.267.638-.268.27 0 .488.09.653.268.166.178.25.443.25.795v2.314c0 .657.043 1.115.134 1.372.09.25.23.45.43.59.2.14.45.21.74.21s.54-.07.743-.21c.205-.14.36-.348.457-.62.075-.202.11-.633.11-1.295v-2.38c0-.354.08-.617.24-.79.16-.176.373-.264.637-.265.27 0 .484.09.65.266.164.178.245.44.246.79v1.917c0 1.225-.097 2.063-.29 2.514-.238.55-.586.975-1.047 1.27-.46.29-1.048.44-1.758.44-.77 0-1.396-.17-1.873-.514-.47-.344-.804-.823-1-1.437-.14-.428-.204-1.2-.204-2.32v-1.86zm-37.726 0c0-.357.08-.62.242-.795.16-.178.373-.267.64-.268.27 0 .486.09.652.268.163.176.246.44.248.786v2.323c0 .657.046 1.115.136 1.372.09.25.232.45.43.59.203.14.45.21.743.21s.54-.07.742-.21c.2-.14.36-.348.453-.62.074-.202.11-.633.11-1.295v-2.38c0-.354.08-.617.24-.79.16-.176.37-.264.636-.265.267 0 .483.09.647.266.163.178.245.44.245.79v1.917c0 1.225-.1 2.063-.29 2.514-.24.55-.588.975-1.05 1.27-.46.29-1.045.44-1.755.44-.77 0-1.392-.17-1.87-.514-.474-.344-.807-.823-1-1.437-.14-.428-.208-1.2-.208-2.32v-1.86zM1.62 30.38c.895 0 1.622.727 1.622 1.62 0 .896-.727 1.622-1.62 1.622-.896 0-1.622-.726-1.622-1.62 0-.895.726-1.622 1.62-1.622zm32.322-.745l-.004-.01.074.16.04.104v-.01l-.04-.1-.07-.15zm.11.25v.004c.195.5.31 1.11.31 1.78 0 .65-.11 1.25-.3 1.75-.016.05-.033.09-.05.132-.05.12-.107.23-.168.335-.05.087-.103.17-.16.25-.198.275-.437.503-.718.684-.46.29-1.046.438-1.757.44-.77 0-1.4-.173-1.88-.517-.476-.344-.81-.823-1-1.438-.11-.33-.175-.87-.2-1.62l.003-.106c-.003-.01-.004-.02-.004-.036V26.8c0-.29.006-.518.02-.68.016-.17.06-.312.13-.43.07-.124.174-.224.306-.3.132-.078.28-.118.443-.118.23 0 .44.085.624.257.125.113.2.254.233.42.036.166.054.4.054.704v1.822c.364-.13.748-.407 1.498-.407.71 0 1.06.144 1.52.436.24.156.452.35.634.577.127.16.238.336.334.53l.005.01c.04.08.077.164.11.25zM9.368 27.99c2.017 0 3.692 1.5 3.97 3.442h2.776c-.126-1.527-.76-2.95-1.817-4.072-.68.345-1.513.352-2.22-.057-.71-.41-1.12-1.134-1.16-1.894-.502-.12-1.022-.18-1.55-.18-1.014 0-1.994.22-2.884.64l1.39 2.41c.462-.19.966-.29 1.493-.29zm3.872-4.32c.894 0 1.62.726 1.62 1.62 0 .895-.726 1.62-1.62 1.62-.895 0-1.62-.725-1.62-1.62 0-.894.725-1.62 1.62-1.62z" fill="#fff"/></svg>