<svg viewBox="0 0 64 64" xmlns="http://www.w3.org/2000/svg" fill-rule="evenodd" clip-rule="evenodd" stroke-linejoin="round" stroke-miterlimit="1.414"><path d="M12.654 38.274c0 .33.268.595.6.595.33 0 .6-.27.6-.6 0-.33-.27-.6-.6-.6-.332 0-.6.263-.6.594zm.078 0c0-.287.234-.522.522-.522.287 0 .52.235.52.522 0 .288-.233.522-.52.522-.288 0-.522-.234-.522-.522zm.343.058h.238c.075 0 .106.047.113.128l.01.082c.002.04.01.072.013.09h.1v-.014c-.01-.014-.02-.04-.03-.09l-.01-.085c-.008-.08-.034-.13-.087-.156.065-.022.112-.086.112-.18 0-.12-.078-.193-.225-.193h-.34v.718h.094v-.3zm0-.336h.243c.095 0 .13.045.13.125s-.034.14-.13.14h-.243V38zm.658-4.116c.065-.42.145-.84.193-1.264.078-.71.022-1.415-.13-2.11-.013-.056-.056-.114-.1-.15-1.083-.858-2.322-1.2-3.687-1.093-.92.072-1.77.355-2.58.788-.04.02-.07.05-.12.08.05.03.08.048.11.06 2.06.99 3.11 2.66 3.31 4.9.08.967-.07 1.91-.42 2.817l-.11.28c.036-.012.05-.014.065-.02.652-.355 1.24-.796 1.75-1.336.03-.032.05-.08.06-.122.22-.77.286-1.56.213-2.36-.09-.992-.386-1.92-.893-2.78-.01-.02-.02-.046-.04-.09 1.165.453 1.89 1.29 2.314 2.418l.057-.006zM5.1 38.755c.42.066.836.152 1.256.19.713.067 1.423.034 2.124-.127.052-.01.107-.05.14-.093.742-.933 1.108-2.002 1.114-3.19.004-.956-.223-1.862-.627-2.725-.073-.155-.154-.306-.23-.46-.026.014-.036.015-.04.02l-.053.105c-.314.684-.746 1.287-1.305 1.79-1.15 1.035-2.52 1.498-4.04 1.51-.72.006-1.42-.11-2.1-.347-.18-.06-.35-.125-.53-.19v.033c.35.66.79 1.25 1.33 1.77.033.037.084.06.13.07.84.24 1.693.297 2.56.19.93-.11 1.8-.4 2.605-.88.017-.01.04-.01.065-.02-.446 1.157-1.29 1.88-2.416 2.31l.005.055zm10.57-11.26c.12.304.24.607.364.91 1.16 2.87 2.32 5.74 3.478 8.61.038.092.084.12.18.12.52-.004 1.04-.005 1.56 0 .1 0 .144-.032.18-.12.828-2.027 1.66-4.05 2.487-6.074.31-.77.66-1.53 1.18-2.19.48-.6 1.054-1.07 1.822-1.25.25-.06.512-.082.77-.12.066-.01.122-.022.112-.113l-.08-.022c-.022-.005-.046-.01-.07-.012-.58-.104-1.163-.125-1.752-.072-.7.066-1.37.247-1.99.58-1.05.566-1.77 1.435-2.22 2.52-.376.906-.716 1.825-1.07 2.737l-.154.383-.05-.11c-.737-1.925-1.476-3.85-2.21-5.775-.034-.09-.076-.12-.17-.118-.76.004-1.52.003-2.283.003h-.14l.044.127zm11.862 3.676c-.62.1-1.237.19-1.857.28-.084.01-.108.047-.108.13.003 1.814.003 3.625 0 5.44 0 .096.03.125.127.125.627-.004 1.253-.003 1.88-.003.038 0 .077-.004.12-.007v-5.98l-.162.022zm27.15-.02c-.66.1-1.32.2-1.983.29-.09.02-.11.06-.11.14v5.437c0 .098.03.127.122.126.63-.003 1.26-.002 1.892-.002.032 0 .067-.003.11-.005v-5.97c-.02 0-.03-.005-.04-.003zm8.118 5.39c0-.33.27-.59.6-.59.332 0 .6.265.6.596 0 .33-.268.594-.6.594-.33 0-.6-.265-.6-.596zm.08 0c0 .29.233.52.52.52.288 0 .522-.23.522-.52 0-.283-.234-.52-.52-.52-.29 0-.522.237-.522.52zm.342.06v.3h-.095v-.715h.34c.147 0 .226.073.226.194 0 .093-.05.157-.113.18.053.025.08.076.087.155.004.03.006.057.01.08.005.053.014.08.025.094v.013h-.105c-.004-.02-.01-.05-.015-.09l-.008-.082c-.008-.08-.038-.126-.114-.126h-.238zm0-.334v.257h.244c.095 0 .13-.05.13-.132 0-.08-.036-.123-.13-.123h-.244zm-25.288-.913c0 .05-.016.114-.05.147-.48.48-1.144.505-1.643.06-.25-.234-.39-.537-.46-.87-.12-.64-.04-1.24.36-1.775.42-.555 1.13-.704 1.73-.364.04.02.07.094.07.144.008.445.006.89.006 1.335 0 .44 0 .883-.003 1.323zM2.59 32.537c-.126-.25-.25-.47-.353-.7-.456-.99-.647-2.037-.598-3.12.02-.48.09-.95.23-1.408.01-.05.03-.1.07-.14.51-.535 1.09-.976 1.74-1.327.01-.01.03-.015.06-.027-.08.22-.16.424-.227.633-.256.82-.356 1.66-.29 2.514.1 1.235.51 2.346 1.293 3.31.534.654 1.19 1.154 1.956 1.51l.167.08c-.053.034-.083.06-.115.075-1.03.55-2.124.853-3.298.805-1.115-.044-2.113-.42-2.987-1.116-.05-.04-.085-.12-.1-.19-.22-1.088-.2-2.17.088-3.247.004-.02.01-.038.017-.056 0-.006.01-.01.024-.033.422 1.13 1.144 1.97 2.31 2.422zm56.334 3.13c.32.456.64.91.954 1.367.05.073.104.1.192.1.74-.002 1.482-.002 2.223-.002.036 0 .074-.002.13-.006l-.08-.12c-.704-.992-1.41-1.986-2.114-2.975-.07-.09-.07-.15 0-.24.65-.85 1.31-1.702 1.96-2.555.04-.05.07-.1.11-.153-.03-.006-.04-.01-.05-.01-.647 0-1.294 0-1.94.003-.04 0-.093.036-.12.07-.305.387-.607.777-.907 1.165l-.14.17c-.025-.03-.043-.055-.057-.077-.295-.412-.59-.824-.88-1.24-.047-.067-.095-.09-.174-.09-.745.002-1.49 0-2.234 0-.033 0-.067.007-.116.012l.087.13c.664.94 1.327 1.878 1.996 2.81.066.09.07.146 0 .235-.563.72-1.12 1.442-1.68 2.164l-.54.7c.04.005.07.01.094.01h1.903c.05 0 .112-.037.143-.076.232-.292.46-.59.69-.886.15-.2.3-.394.462-.6l.073.096zm-11.517 1.458H45.3V33.75c0-.14-.007-.283-.035-.42-.092-.48-.456-.716-.942-.617-.472.096-.72.416-.82.858-.046.2-.065.4-.065.6-.007.94-.003 1.87-.003 2.808v.15h-2.1V31.2l1.94-.29v1.134c.02.013.072-.03.095-.054.33-.376.69-.722 1.165-.905.697-.268 1.394-.28 2.053.122.283.173.47.437.628.725.02.037.043.072.063.107.15-.17.29-.33.45-.48.654-.6 1.43-.78 2.29-.6.7.146 1.092.61 1.242 1.286.06.28.095.567.096.852.01 1.292.006 2.585.006 3.88v.134h-2.1v-.136c-.003-1.13-.003-2.264-.007-3.394 0-.096-.015-.194-.038-.29-.117-.47-.46-.683-.93-.59-.436.086-.69.367-.805.775-.058.202-.086.42-.087.63-.01.953-.003 1.91-.004 2.862v.15zm-9.26.188c.028.088.064.105.154.082.44-.112.88-.216 1.32-.324.23-.05.46-.11.69-.17-.01-.03-.013-.06-.02-.08-.193-.42-.23-.86-.23-1.31-.007-1.48-.005-2.963-.007-4.445v-.142h-.07c-.5.077-.996.15-1.495.23-.155.024-.295.016-.443-.05-.532-.23-1.086-.313-1.663-.233-.86.12-1.55.523-2.062 1.223-.37.503-.566 1.075-.625 1.695-.084.89.064 1.726.572 2.48.744 1.103 2.207 1.485 3.377.875.124-.067.24-.147.37-.226.05.14.106.27.145.404zm-8.403-8.103c-.003.043-.005.08-.005.113-.01.54-.01 1.08 0 1.62 0 .098-.03.128-.13.126-.22 0-.44.005-.65 0-.1-.005-.12.03-.12.12v1.36c0 .034 0 .068.01.115h.7c.18 0 .18 0 .18.177.01 1.024.01 2.05.03 3.07.004.293.062.584.22.838.152.25.36.398.676.39.7-.01 1.402-.002 2.103-.003.044 0 .09-.006.133-.01l.01-.033c-.035-.016-.07-.033-.1-.053-.137-.083-.29-.15-.407-.256-.38-.342-.51-.796-.518-1.287-.01-.9 0-1.8 0-2.698 0-.04 0-.084.004-.135h.14c.385 0 .77-.004 1.16 0 .085 0 .122-.02.12-.116-.003-.456-.004-.91 0-1.36 0-.106-.04-.126-.13-.124-.38.004-.764 0-1.147 0h-.15v-2.183l-2.14.326zm-2.107-.31c-.662.1-1.322.2-1.984.293-.085.012-.084.06-.084.124v1.24c0 .03 0 .07.01.103l2.11-.31V28.9c-.03 0-.048-.004-.06-.002zm26.93.006c-.62.092-1.242.187-1.864.277-.086.013-.12.043-.12.134.006.41.003.83.003 1.25 0 .023.006.05.01.08.03 0 .05 0 .074-.004.646-.095 1.29-.193 1.936-.284.088-.016.12-.04.12-.13-.005-.417-.002-.83-.004-1.24 0-.03-.005-.06-.007-.1-.055 0-.102 0-.148.01zM8.837 25.27c-1.11-.3-2.226-.334-3.35-.084-.054.013-.115.05-.15.094-.662.83-1.03 1.78-1.1 2.837-.076 1.223.22 2.364.796 3.438.018.032.04.06.072.112l.068-.136c.178-.39.396-.76.664-1.1 1.026-1.29 2.38-1.99 4.006-2.163 1.094-.118 2.158.04 3.178.46l.14.045c-.01-.024-.01-.036-.01-.045-.346-.648-.782-1.228-1.31-1.738-.042-.04-.102-.074-.16-.09-.734-.205-1.48-.28-2.242-.22-1.012.077-1.96.357-2.84.87l-.145.077C6.9 26.45 7.74 25.73 8.878 25.3c-.027-.018-.033-.025-.04-.027z" fill="#fff"/></svg>