<svg viewBox="0 0 64 64" xmlns="http://www.w3.org/2000/svg" fill-rule="evenodd" clip-rule="evenodd" stroke-linejoin="round" stroke-miterlimit="1.414"><path d="M12.654 38.274c0 .33.268.595.6.595.33 0 .6-.27.6-.6 0-.33-.27-.6-.6-.6-.332 0-.6.26-.6.59zm.078 0c0-.287.234-.522.522-.522.287 0 .52.235.52.522 0 .288-.233.522-.52.522-.288 0-.522-.234-.522-.522zm.343.058h.238c.075 0 .106.047.113.128l.01.082c.002.04.01.072.013.09h.1v-.014c-.01-.014-.02-.04-.03-.09l-.01-.085c-.01-.08-.04-.13-.09-.156.06-.022.11-.086.11-.18 0-.12-.08-.193-.23-.193h-.34v.718h.09v-.3zm0-.336h.243c.095 0 .13.045.13.125s-.034.14-.13.14h-.243V38zm.658-4.116c.065-.42.145-.84.193-1.264.078-.71.022-1.415-.13-2.11-.013-.056-.056-.114-.1-.15-1.083-.858-2.322-1.2-3.687-1.093-.92.072-1.77.355-2.58.788-.04.02-.07.05-.12.08.05.03.08.05.11.06 2.06.99 3.11 2.66 3.31 4.9.08.97-.07 1.91-.42 2.82l-.11.28c.03-.01.05-.01.06-.02.65-.35 1.24-.79 1.75-1.33.03-.03.05-.08.06-.12.22-.77.28-1.56.21-2.36-.09-.99-.39-1.92-.9-2.78-.01-.02-.02-.04-.04-.09 1.16.46 1.89 1.29 2.31 2.42h.056zM5.1 38.755c.42.066.836.152 1.256.19.713.067 1.423.034 2.124-.127.052-.01.107-.05.14-.093.742-.933 1.108-2.002 1.114-3.19.004-.956-.223-1.862-.627-2.725-.073-.155-.154-.306-.23-.46-.026.014-.036.015-.04.02l-.053.105c-.314.684-.746 1.287-1.305 1.79-1.15 1.035-2.52 1.498-4.04 1.51-.72.006-1.42-.11-2.1-.347-.18-.06-.35-.125-.53-.19v.033c.35.66.79 1.25 1.33 1.77.03.04.08.06.13.07.84.24 1.69.3 2.56.19.93-.11 1.8-.4 2.6-.88.01-.01.04-.01.06-.02-.45 1.16-1.29 1.88-2.42 2.31v.06zm10.57-11.26c.12.304.24.607.364.91 1.16 2.87 2.32 5.74 3.478 8.61.038.092.084.12.18.12.52-.004 1.04-.005 1.56 0 .1 0 .144-.032.18-.12.828-2.027 1.66-4.05 2.487-6.074.31-.77.66-1.53 1.18-2.19.48-.6 1.05-1.07 1.82-1.25.25-.06.51-.08.77-.12.06-.01.12-.02.11-.11l-.08-.02c-.02 0-.05-.01-.07-.01-.58-.1-1.17-.12-1.75-.07-.7.07-1.37.25-1.99.58-1.05.57-1.77 1.44-2.22 2.52-.38.91-.72 1.83-1.07 2.74l-.16.39-.05-.11c-.74-1.924-1.48-3.85-2.21-5.774-.04-.09-.08-.12-.17-.117-.76.002-1.52 0-2.29 0h-.14l.04.13zm11.862 3.676c-.62.1-1.237.19-1.857.28-.084.01-.108.05-.108.13.003 1.82.003 3.63 0 5.44 0 .1.03.13.127.13h2v-5.98l-.162.02zm27.15-.02c-.66.1-1.32.2-1.983.29-.09.02-.11.06-.11.14v5.44c0 .1.03.13.12.13h2v-5.97h-.04zm8.118 5.39c0-.33.27-.59.6-.59.332 0 .6.27.6.6 0 .33-.268.6-.6.6-.33 0-.6-.26-.6-.59zm.08 0c0 .29.233.52.52.52.288 0 .522-.23.522-.52 0-.28-.234-.52-.52-.52-.29 0-.522.24-.522.52zm.342.06v.3h-.095v-.71h.34c.147 0 .226.08.226.2 0 .1-.05.16-.113.18.053.03.08.08.087.16l.01.08c.005.058.014.08.025.1v.01h-.105c-.004-.02-.01-.05-.015-.09l-.008-.08c-.008-.08-.038-.128-.114-.128h-.238zm0-.33v.26h.244c.095 0 .13-.05.13-.13s-.036-.12-.13-.12h-.244zm-25.288-.91c0 .05-.016.12-.05.15-.48.48-1.144.51-1.643.06-.25-.23-.39-.53-.46-.87-.12-.64-.04-1.24.36-1.77.42-.55 1.13-.7 1.73-.36.04.02.07.096.07.146.01.443.01.89.01 1.333v1.323zM2.59 32.54c-.126-.25-.25-.47-.353-.7-.456-.99-.647-2.038-.598-3.12.02-.48.09-.95.23-1.41.01-.05.03-.1.07-.14.51-.54 1.09-.98 1.74-1.33.01-.01.03-.015.06-.027-.08.22-.16.427-.23.636-.26.82-.36 1.66-.29 2.51.1 1.23.51 2.34 1.29 3.31.53.65 1.19 1.15 1.95 1.51l.16.08c-.054.03-.084.06-.116.07-1.03.55-2.125.85-3.3.8-1.11-.04-2.11-.42-2.984-1.114-.05-.04-.084-.12-.1-.19-.22-1.088-.2-2.17.09-3.247.004-.02.01-.04.017-.06 0-.005.01-.01.023-.03.424 1.13 1.146 1.97 2.31 2.42zm56.334 3.13c.32.455.64.91.954 1.366.05.073.104.1.192.1.74-.002 1.482-.002 2.223-.002.036 0 .074 0 .13-.005l-.08-.12c-.704-1-1.41-1.99-2.114-2.98-.07-.09-.07-.15 0-.24.65-.85 1.31-1.7 1.96-2.55.04-.05.07-.1.11-.15-.03-.01-.04-.01-.05-.01h-1.94c-.04 0-.1.032-.12.07-.31.39-.61.78-.91 1.16l-.14.17c-.03-.03-.05-.054-.06-.076-.3-.413-.59-.825-.88-1.24-.05-.068-.1-.09-.18-.09h-2.23c-.04 0-.07.006-.12.01l.09.13c.66.94 1.322 1.88 1.99 2.81.067.09.07.146 0 .235-.562.72-1.12 1.44-1.68 2.162l-.54.7c.04.002.07.01.095.01h1.9c.05 0 .114-.04.145-.08.233-.292.46-.59.69-.886.15-.2.3-.394.463-.6l.072.096zm-11.517 1.46H45.3v-3.38c0-.14-.007-.283-.035-.42-.092-.48-.456-.716-.942-.617-.472.096-.72.416-.82.858-.046.2-.065.4-.065.6-.007.94-.003 1.87-.003 2.81v.15h-2.1V31.2l1.94-.29v1.134c.02.013.072-.03.095-.054.33-.376.69-.722 1.165-.905.697-.268 1.394-.28 2.053.122.283.173.47.437.628.725.02.037.043.072.063.107.15-.17.29-.33.45-.48.65-.6 1.43-.78 2.29-.6.7.14 1.09.61 1.24 1.28.06.28.09.56.09.85.01 1.29 0 2.58 0 3.88v.13h-2.1v-.14c-.01-1.13-.01-2.268-.01-3.398 0-.094-.018-.19-.04-.29-.12-.47-.46-.68-.93-.59-.438.09-.69.37-.807.777-.056.202-.084.42-.085.63-.01.953-.004 1.91-.005 2.862v.15zm-9.26.185c.028.088.064.105.154.082.44-.112.88-.216 1.32-.324.23-.05.46-.11.69-.17-.01-.03-.01-.06-.02-.08-.19-.42-.23-.86-.23-1.31v-4.58h-.07c-.5.077-.99.15-1.49.23-.15.024-.29.016-.44-.05-.53-.23-1.08-.313-1.66-.233-.86.12-1.55.524-2.06 1.224-.37.503-.563 1.075-.622 1.695-.082.89.066 1.72.57 2.48.747 1.1 2.21 1.48 3.38.87.124-.07.24-.15.37-.23.05.14.106.27.145.4zm-8.403-8.103c-.003.042-.005.08-.005.112-.01.54-.01 1.08 0 1.62 0 .098-.03.128-.13.126h-.65c-.1-.01-.12.03-.12.12v1.36c0 .03 0 .062.01.11h.7c.18 0 .18 0 .18.176.01 1.024.01 2.05.03 3.07 0 .293.06.584.22.84.15.25.36.396.67.39.7-.01 1.4-.004 2.1-.005.04 0 .09 0 .13-.01l.01-.03c-.04-.01-.07-.03-.1-.05-.14-.08-.29-.15-.41-.253-.38-.343-.51-.797-.52-1.29-.01-.9 0-1.8 0-2.7v-.135H32c.385 0 .77-.002 1.16 0 .085 0 .12-.02.12-.114-.003-.46-.004-.91 0-1.36 0-.11-.04-.13-.13-.126-.38.003-.764 0-1.147 0h-.15v-2.18l-2.14.325zm-2.107-.31c-.662.1-1.322.2-1.984.292-.085.012-.084.06-.084.124v1.24c0 .03 0 .07.01.103l2.11-.31V28.9c-.03 0-.05-.004-.06-.002zm26.93.005c-.62.092-1.242.187-1.864.277-.086.013-.12.043-.12.134.006.41.003.83.003 1.25 0 .023.006.05.01.08.03 0 .05 0 .074-.004.646-.095 1.29-.193 1.936-.284.088-.02.12-.04.12-.13-.005-.42-.002-.83-.004-1.24 0-.03-.005-.06-.007-.1-.055 0-.102 0-.148.01zM8.837 25.27c-1.11-.3-2.226-.334-3.35-.084-.054.013-.115.05-.15.094-.662.83-1.03 1.78-1.1 2.837-.076 1.223.22 2.364.796 3.438.018.032.04.06.072.112l.068-.136c.178-.39.396-.76.664-1.1 1.026-1.29 2.38-1.99 4.006-2.16 1.094-.12 2.158.04 3.178.46l.14.05c-.01-.02-.01-.03-.01-.04-.34-.65-.78-1.23-1.31-1.74-.04-.04-.1-.07-.16-.09-.73-.2-1.48-.28-2.24-.22-1.01.08-1.96.36-2.84.87l-.14.08c.45-1.18 1.29-1.9 2.42-2.33-.02-.02-.03-.02-.04-.02z" fill="#fff"/></svg>