<svg viewBox="0 0 64 64" xmlns="http://www.w3.org/2000/svg" fill-rule="evenodd" clip-rule="evenodd" stroke-linejoin="round" stroke-miterlimit="1.414"><path d="M4.753 36.98l6.627 1.31v-6.038H4.753v4.727zm7.084.624h.21v.655h.086v-.66h.212v-.08h-.508v.074zm1.21-.077l-.23.508c-.01.02-.02.05-.035.09h-.003l-.04-.088-.23-.51h-.11v.732h.084v-.49c0-.07-.003-.12-.005-.15.005.03.012.06.02.07l.25.56h.04l.25-.564c.007-.014.014-.038.022-.07h.002c-.007.055-.01.103-.01.142v.49h.086v-.73h-.106zM0 36.037l4.11.814v-4.59H0v3.788zm36.947-5.105h-.02c-.327-.576-.85-.656-1.568-.656-.73 0-1.31.266-1.75.797-.44.53-.657 1.238-.657 2.12 0 .823.197 1.474.592 1.95.393.48.92.717 1.574.717.81 0 1.41-.21 1.796-.896h.02v.77h1.21V27.84h-1.21v3.094zm4.725-.656c-.87 0-1.56.252-2.07.755-.513.51-.77 1.21-.77 2.1 0 .83.247 1.49.738 1.99.49.5 1.148.75 1.972.75.847 0 1.52-.256 2.023-.768.502-.512.753-1.194.753-2.045 0-.867-.233-1.546-.698-2.035-.466-.49-1.115-.736-1.948-.736zm13.7 2.982c-.118-.123-.262-.233-.43-.33-.167-.098-.357-.193-.568-.287-.16-.05-.302-.11-.425-.16-.13-.05-.23-.1-.32-.16s-.16-.13-.2-.21c-.05-.08-.07-.178-.07-.29 0-.096.02-.18.064-.26.045-.078.107-.145.187-.2.08-.056.177-.1.29-.13.114-.03.24-.048.38-.048.45 0 .847.13 1.19.385V30.5c-.356-.15-.762-.224-1.22-.224-.253 0-.5.034-.74.102-.24.067-.455.168-.644.302-.19.134-.34.3-.45.495-.113.196-.17.422-.17.68 0 .208.03.39.083.547.053.156.134.296.24.42.11.122.243.232.404.33.16.097.343.19.544.276.16.066.31.125.44.177.133.052.248.11.346.177.095.066.173.14.23.226.06.085.087.19.087.31 0 .43-.334.646-1.006.646-.5 0-.96-.172-1.376-.515v1.11c.394.194.86.29 1.397.29.277 0 .542-.032.793-.096.25-.064.474-.16.666-.294.192-.132.346-.3.46-.5.116-.202.174-.44.174-.71 0-.22-.032-.413-.097-.575-.064-.16-.155-.3-.273-.425zm7.352-1.61c.558-.352.923-.93.923-1.587 0-1.07-.976-1.94-2.18-1.94-1.205 0-2.182.87-2.182 1.95 0 .683.394 1.28.99 1.63-.72.39-1.2 1.1-1.2 1.917 0 1.235 1.1 2.235 2.462 2.235 1.36 0 2.463-1 2.463-2.235 0-.846-.516-1.58-1.276-1.96zm-37.476 4.087h1.21V30.4h-1.21v5.335zm5.14-5.46c-.735 0-1.296.338-1.685 1.012h-.02V30.4h-1.18v5.335h1.18v-3.042c0-.42.117-.768.35-1.044.233-.28.522-.5.88-.5.687 0 1.224.28 1.203 1.58v3h1.01v-3.26c0-.71-.15-1.26-.446-1.638-.298-.376-.73-.565-1.293-.565zm6.575 3.03c0 .48-.134.878-.4 1.194-.267.31-.615.47-1.044.47-.44 0-.79-.17-1.05-.49-.26-.33-.388-.77-.388-1.34 0-.62.135-1.106.403-1.455.27-.35.637-.525 1.106-.525.397 0 .723.138.98.41.255.276.383.61.383 1v.727zm24.5 1.643c-.783 0-1.416-.634-1.416-1.416 0-.782.633-1.416 1.415-1.416s1.416.634 1.416 1.416c0 .782-.634 1.416-1.416 1.416zm-18.768-.52c-.255.316-.62.474-1.096.474-.47 0-.84-.16-1.12-.482-.28-.32-.42-.762-.42-1.32 0-.58.136-1.035.41-1.365.274-.33.65-.495 1.12-.495.476 0 .84.16 1.096.48.255.32.383.772.383 1.36 0 .582-.128 1.032-.383 1.348zm7.337-.167c-.045.18-.07.33-.078.46h-.036c-.013-.18-.036-.33-.067-.46l-.95-3.86h-1.12l-1.07 3.84c-.043.17-.07.327-.08.47h-.037c-.01-.19-.03-.34-.062-.46l-.96-3.84h-1.24l1.556 5.335h1.23l1.046-3.625c.056-.19.087-.34.094-.46h.02c.01.174.033.33.07.47l.963 3.614h1.255l1.56-5.336h-1.14l-.944 3.86zm-27.744-.5c-.068.29-.107.52-.118.69h-.02c-.024-.255-.06-.48-.108-.664l-1.395-5.51H19.39l-1.51 5.468c-.08.303-.13.543-.142.72h-.026c-.014-.25-.048-.49-.102-.72l-1.334-5.47h-1.34l2.058 7.47h1.41l1.406-5.24c.065-.232.106-.47.124-.72h.02c.014.266.05.51.108.73l1.4 5.226h1.38l2.017-7.47h-1.27l-1.31 5.49zM0 31.74h4.11v-4.59L0 27.962v3.776zm4.753 0h6.627v-6.03l-6.627 1.31v4.717zm51.72-1.464c-.178 0-.33.062-.454.185-.13.13-.19.28-.19.45s.06.33.18.45.275.186.452.186c.175 0 .326-.06.45-.184.125-.123.19-.272.19-.446s-.065-.325-.19-.448c-.124-.122-.275-.184-.45-.184zm.386 1.017c-.11.107-.24.16-.39.16-.15 0-.28-.053-.39-.16-.11-.106-.16-.235-.16-.386 0-.15.05-.28.16-.387.11-.107.24-.16.39-.16.15 0 .28.053.38.16.106.107.16.236.16.387 0 .15-.054.28-.16.386zm4.61-2.306c.64 0 1.16.52 1.16 1.165 0 .643-.52 1.164-1.17 1.164s-1.165-.52-1.165-1.164c0-.644.522-1.165 1.165-1.165zm-4.91 1.952v-.01c.06-.01.11-.04.14-.08.032-.04.05-.086.05-.14 0-.067-.03-.12-.08-.16-.056-.038-.13-.057-.23-.057h-.24v.794h.142v-.32h.066c.045 0 .09.045.127.137l.08.183h.176l-.105-.21c-.042-.09-.09-.14-.13-.146zm-.11-.08h-.108v-.24h.09c.055 0 .097.01.123.03.026.01.04.04.04.09 0 .08-.05.12-.147.12zm-30.57-2.88c-.4 0-.73.3-.73.67 0 .37.326.67.727.67.4 0 .727-.3.727-.67 0-.37-.326-.67-.727-.67z" fill="#fff"/></svg>