<svg viewBox="0 0 64 64" xmlns="http://www.w3.org/2000/svg" fill-rule="evenodd" clip-rule="evenodd" stroke-linejoin="round" stroke-miterlimit="1.414"><path d="M32 0C14.354 0 0 14.354 0 31.998c0 17.646 14.355 32 32 32 17.643 0 32-14.354 32-32C64 14.354 49.643 0 32 0zm0 62.53C15.163 62.53 1.466 48.835 1.466 32S15.163 1.47 31.998 1.47c16.834 0 30.53 13.695 30.53 30.53C62.53 48.834 48.834 62.53 32 62.53zm.48-28.13l-8.234 23.93c2.46.723 5.06 1.118 7.754 1.118 3.196 0 6.26-.552 9.115-1.556-.074-.117-.14-.242-.195-.378L32.48 34.4zM4.55 31.997c0 10.866 6.315 20.256 15.47 24.706L6.926 20.827C5.403 24.24 4.55 28.02 4.55 31.997zm51.538-13.17c.118.874.185 1.813.185 2.823 0 2.786-.52 5.918-2.086 9.833L45.8 55.726c8.16-4.76 13.65-13.6 13.65-23.727 0-4.78-1.22-9.27-3.364-13.18zM50.53 30.613c0-3.393-1.218-5.742-2.263-7.57-1.392-2.262-2.696-4.177-2.696-6.438 0-2.523 1.92-4.872 4.61-4.872.13 0 .24.015.36.022C45.66 7.28 39.15 4.548 32 4.548c-9.59 0-18.028 4.92-22.936 12.374.644.02 1.25.032 1.766.032 2.87 0 7.316-.348 7.316-.348 1.48-.087 1.654 2.086.176 2.26 0 0-1.487.176-3.142.263l9.996 29.73 6.008-18.02-4.277-11.72c-1.478-.09-2.88-.26-2.88-.26-1.478-.09-1.304-2.35.175-2.26 0 0 4.533.34 7.23.34 2.87 0 7.316-.348 7.316-.348 1.48-.088 1.655 2.085.176 2.26 0 0-1.49.175-3.142.262l9.92 29.51 2.74-9.15c1.185-3.8 2.09-6.526 2.09-8.876z" fill="#fff"/></svg>