<svg viewBox="0 0 64 64" xmlns="http://www.w3.org/2000/svg" fill-rule="evenodd" clip-rule="evenodd" stroke-linejoin="round" stroke-miterlimit="1.414"><path d="M21.497 33.27l.97-2.872c.282-.83.156-1.07-.745-1.07v-.28h2.646v.28c-.887 0-1.098.212-1.45 1.24l-1.604 4.813h-.183l-1.43-4.4-1.46 4.41h-.18l-1.568-4.82c-.337-1.025-.563-1.24-1.38-1.24v-.28h3.126v.28c-.83 0-1.056.2-.76 1.07l.942 2.87 1.422-4.22h.262l1.398 4.22zm40.786 2.054c-.563 0-1.055-.295-1.266-.478-.07.07-.197.28-.225.478h-.268v-1.942h.282c.112.93.76 1.478 1.59 1.478.45 0 .816-.253.816-.675 0-.366-.323-.648-.9-.915l-.803-.38c-.57-.268-.99-.732-.99-1.35 0-.677.63-1.254 1.5-1.254.464 0 .858.17 1.098.366.07-.056.14-.21.183-.38h.27v1.66h-.295c-.1-.66-.465-1.21-1.21-1.21-.395 0-.76.225-.76.577 0 .36.295.56.97.87l.774.38c.677.32.944.84.944 1.26 0 .885-.774 1.504-1.717 1.504zm-36 0c-1.55 0-2.816-1.14-2.816-2.533 0-1.37 1.267-2.51 2.815-2.51s2.815 1.14 2.815 2.52c0 1.39-1.267 2.53-2.815 2.53zm31.666 0c-.57 0-1.06-.295-1.27-.478-.07.07-.2.28-.23.478h-.27v-1.942h.28c.113.93.76 1.478 1.59 1.478.452 0 .82-.253.82-.675 0-.366-.325-.648-.9-.915l-.804-.38c-.564-.268-.986-.732-.986-1.35 0-.677.634-1.254 1.506-1.254.465 0 .86.17 1.1.366.07-.056.14-.21.18-.38h.268v1.66h-.298c-.1-.66-.465-1.21-1.21-1.21-.394 0-.76.225-.76.577 0 .36.295.56.97.87l.775.38c.676.32.944.84.944 1.26 0 .885-.776 1.504-1.718 1.504zm-20.83-4.87H34.6v.268c.788 0 .914.17.914 1.168v1.802c0 1-.126 1.182-.914 1.182-.605-.084-1.014-.408-1.577-1.027l-.647-.704c.872-.155 1.337-.704 1.337-1.323 0-.774-.66-1.365-1.9-1.365h-2.477v.267c.788 0 .915.17.915 1.168v1.802c0 1-.12 1.182-.91 1.182v.268h2.8v-.268c-.782 0-.91-.183-.91-1.182v-.507h.24l1.56 1.957h4.098c2.013 0 2.885-1.07 2.885-2.35 0-1.282-.872-2.337-2.885-2.337zm6.36 4.406v.282h-3.23v-.282c.94 0 1.11-.24 1.11-1.647V30.96c0-1.406-.17-1.63-1.114-1.63v-.283h2.914c1.45 0 2.253.746 2.253 1.746 0 .97-.804 1.73-2.253 1.73h-.8v.69c0 1.408.17 1.647 1.112 1.647zm-17.2-4.152c-1.3 0-1.75 1.168-1.75 2.083 0 .93.45 2.09 1.743 2.09 1.31 0 1.76-1.15 1.76-2.08 0-.914-.45-2.082-1.76-2.082zm10.88 3.997h-.1c-.51 0-.58-.126-.58-.774v-3.05h.672c1.464 0 1.73 1.07 1.73 1.9 0 .86-.266 1.93-1.73 1.93zm10.47-1.956h.57c.633 0 .914-.44.914-.93 0-.51-.28-.95-.915-.95h-.578v1.87zm-16.41 0h.57c.632 0 .914-.44.914-.93 0-.51-.28-.95-.915-.95h-.578v1.87zm23.87 1.07l-.07.25c-.13.46-.28.63-1.28.63h-.2c-.73 0-.86-.17-.86-1.17v-.65c1.1 0 1.18.098 1.18.83h.27v-2.09h-.27c0 .732-.085.83-1.18.83v-1.576h.773c.998 0 1.153.17 1.28.633l.07.267h.225l-.096-1.323H50.8v.27c.787 0 .914.17.914 1.17v1.8c0 .92-.108 1.15-.73 1.18-.59-.09-.995-.41-1.55-1.02l-.648-.704c.873-.154 1.337-.703 1.337-1.322 0-.773-.66-1.364-1.9-1.364h-2.477v.266c.788 0 .915.17.915 1.166v1.8c0 1-.12 1.18-.91 1.18v.27h2.8v-.27c-.782 0-.91-.18-.91-1.18v-.506h.24l1.56 1.957h5.786l.085-1.324h-.21zm-11.92-4.27h-.81V32h.803c.79 0 1.153-.55 1.153-1.21 0-.677-.366-1.24-1.154-1.24zM7.26 24.74C3.258 24.74 0 27.995 0 32c0 4.003 3.257 7.26 7.26 7.26 4.004 0 7.262-3.257 7.262-7.26 0-4.004-3.258-7.26-7.26-7.26zm0 14.188c-3.82 0-6.927-3.108-6.927-6.93 0-3.818 3.108-6.926 6.928-6.926S14.19 28.18 14.19 32s-3.108 6.928-6.927 6.928zm.11-6.384l-1.87 5.43c.56.165 1.15.254 1.76.254.726 0 1.422-.125 2.07-.353-.018-.026-.033-.055-.045-.085L7.37 32.544zM1.032 32c0 2.465 1.433 4.596 3.51 5.605l-2.97-8.14c-.346.774-.54 1.63-.54 2.534zm11.694-2.99c.027.2.042.413.042.642 0 .632-.118 1.342-.474 2.23l-1.902 5.5c1.852-1.078 3.097-3.085 3.097-5.382 0-1.083-.28-2.102-.77-2.99zm-1.26 2.675c0-.77-.277-1.303-.514-1.718-.316-.513-.612-.947-.612-1.46 0-.573.434-1.106 1.046-1.106.028 0 .054.01.08.01-1.106-1.01-2.584-1.63-4.206-1.63-2.17 0-4.09 1.12-5.2 2.81.15.004.287.007.4.007.65 0 1.66-.08 1.66-.08.34-.02.38.474.04.514 0 0-.333.04-.71.06l2.27 6.747 1.36-4.09-.97-2.66c-.334-.02-.652-.058-.652-.058-.336-.02-.296-.534.04-.514 0 0 1.028.08 1.64.08.65 0 1.66-.08 1.66-.08.336-.02.376.47.04.51 0 0-.338.04-.713.06l2.25 6.696.62-2.076c.27-.86.477-1.48.477-2.014z" fill="#fff"/></svg>