<svg viewBox="0 0 128 93" xmlns="http://www.w3.org/2000/svg" fill-rule="evenodd" clip-rule="evenodd" stroke-linejoin="round" stroke-miterlimit="1.414"><path d="M68.395 85.34c-6.677 0-11.842-3.655-11.842-10.77 0-7.234 4.766-11.248 11.803-11.248 7.352 0 11.88 4.334 11.88 10.812 0 7.63-5.166 11.206-11.84 11.206zm.103-16.735c-3.43 0-4.447 3.046-4.447 5.507 0 4.133 1.79 5.925 4.35 5.925 2.71 0 4.35-1.792 4.35-5.925 0-3.213-1.64-5.633-4.25-5.507zm42.445 4.368c0-3.21-.624-4.5-2.917-4.5-2.536 0-3.037 2.208-3.037 4.832V84.56h-8.67V72.973c0-3.21-.625-4.5-2.916-4.5-2.54 0-3.04 2.208-3.04 4.832V84.56H82.18V63.69h7.955v3.247c1.08-1.666 3.79-3.873 6.91-3.873 3.915 0 5.764 1.666 6.807 4 1.872-2.622 4.644-4 7.848-4 4.863 0 6.9 2.087 7.596 5.72l-.03-68.21L26.843.497l.037 64.418c1.713-7.01 7.368-11.122 14.34-11.122 9.16 0 14.013 5.138 14.443 10.35H46.81c-.25-1.74-1.356-4.442-5.17-4.442-3.457 0-6.328 1.88-6.328 9.5s2.87 10.17 6.327 10.17c3.81 0 4.92-2.7 5.17-4.44h8.85c-.43 5.21-5.28 10.35-14.44 10.35-6.99 0-12.66-4.217-14.36-11.26L26.84 93h92.425v-8.44h-8.326V72.973zm15.016-13.7c-1.14 0-2.06.916-2.06 2.04 0 1.137.916 2.05 2.05 2.05 1.13 0 2.043-.913 2.043-2.05 0-1.124-.91-2.04-2.043-2.04zM18.31 69.663c4.752 1.06 6.522 3.985 6.522 7.887 0 6.194-6.342 8.108-12.977 8.108-5.667 0-12.106-2.86-11.85-8.502h7.96c.203 1.524 1.69 2.903 4.88 2.903 1.633 0 4.21-1.42 4.21-3.25 0-2.38-.774-4.03-8.26-4.01v-5.07c5.28-.02 7.782-1.746 7.782-4.126 0-1.828-1.63-3.243-3.26-3.243-3.188 0-4.52 1.38-4.72 2.904H.955C.7 57.624 6.665 55 12.33 55c6.632 0 12.27 1.678 12.27 7.87 0 3.903-3.43 5.954-6.29 6.787zm107.644-6.545c-.995 0-1.8-.803-1.8-1.804 0-.99.805-1.792 1.8-1.792.988 0 1.794.8 1.794 1.792 0 1-.805 1.804-1.794 1.804zm1.048-2.34c0-.192-.086-.395-.257-.492-.174-.102-.364-.113-.558-.113h-.995v2.286h.278V61.4h.515l.65 1.052h.333l-.69-1.053c.406-.01.723-.18.723-.63zm-1.1.405h-.43v-.807h.652c.285 0 .593.042.593.395 0 .47-.496.42-.815.42z"/></svg>