<svg viewBox="0 0 64 64" xmlns="http://www.w3.org/2000/svg" fill-rule="evenodd" clip-rule="evenodd" stroke-linejoin="round" stroke-miterlimit="1.414"><path d="M25.867 32.758c-.756-.844-1.73-1.52-2.914-1.984 1.345-.66 2.297-1.556 2.914-2.66v4.644zm19.066 3.012l-5.875-20.775h-13.19v5.567c-1.72-3.336-5.87-5.337-11.66-5.337-6.804 0-12.868 3.192-13.192 10.69h8.702c.276-2.313 1.944-3.47 4.21-3.47 1.9 0 3.795.785 3.795 2.916 0 3.054-3.192 3.33-5.738 3.33v5.697c2.313 0 6.016.323 6.016 3.61 0 1.896-1.48 3.794-4.302 3.794-3.007 0-4.627-1.81-4.627-4.812H0c0 8.005 5.6 12.028 13.188 12.028 5.91 0 10.372-1.797 12.68-5.274v4.586h9.812v-11.29c0-2.686-.373-7.176-.697-10.09h.096l6.06 21.38h7.59l6.06-21.38h.093c-.415 3.838-.695 7.45-.695 11.196v10.184H64v-33.32H50.812l-5.88 20.774z" fill="#fff" fill-rule="nonzero"/></svg>