<svg viewBox="0 0 128 69" xmlns="http://www.w3.org/2000/svg" fill-rule="evenodd" clip-rule="evenodd" stroke-linejoin="round" stroke-miterlimit="1.414"><path d="M51.733 35.526c-1.51-1.69-3.46-3.04-5.827-3.968 2.69-1.32 4.595-3.113 5.827-5.322v9.29zm38.132 6.024L78.115 0H51.733v11.134C48.293 4.462 39.993.46 28.413.46 14.808.46 2.68 6.843 2.033 21.84H19.44c.552-4.627 3.888-6.937 8.422-6.937 3.794 0 7.587 1.567 7.587 5.83 0 6.103-6.386 6.658-11.478 6.658v11.395c4.627 0 12.032.645 12.032 7.22 0 3.79-2.964 7.587-8.608 7.587-6.013 0-9.254-3.617-9.254-9.625H0C0 59.975 11.198 68.02 26.377 68.02c11.82 0 20.743-3.594 25.356-10.547v9.168H71.36V44.06c0-5.37-.745-14.35-1.393-20.18h.19L82.28 66.64h15.18l12.118-42.76h.19c-.83 7.678-1.39 14.903-1.39 22.395V66.64H128V0h-26.377L89.865 41.55z" fill-rule="nonzero"/></svg>