<svg viewBox="0 0 128 32" xmlns="http://www.w3.org/2000/svg" fill-rule="evenodd" clip-rule="evenodd" stroke-linejoin="round" stroke-miterlimit="1.414"><path d="M121.906 8.573l5.786-5.787c.21-.21.702-.703-.294-1.728-.427-.44-.816-.664-1.157-.667-.29 0-.49.16-.64.32l-5.8 5.8L114 .68c-.47-.47-1.017-.36-1.723.346-.72.722-.836 1.277-.37 1.746l5.79 5.824-5.67 5.672-.04.04c-.14.134-.348.336-.35.665-.003.34.223.74.67 1.19.38.38.74.57 1.07.57.37 0 .608-.24.742-.37l5.69-5.7 5.82 5.82c.07.074.28.243.603.243h.012c.367-.005.755-.22 1.152-.635.652-.685.76-1.257.322-1.7l-5.82-5.82zM101.002.26c-4.288.327-7.647 4.098-7.647 8.586V23.04c0 .82.625.99 1.563.99s1.563-.17 1.563-.99V8.812c0-2.796 2.04-5.197 4.64-5.466 1.49-.153 2.926.314 4.04 1.32 1.096.986 1.723 2.404 1.724 3.89 0 .425-.21 1.81-1.16 3.097-.72.972-2.08 2.13-4.496 2.13h-.045c-.62 0-1.15.028-1.25 1.496-.07.98-.063 1.43.79 1.55 1.523.21 3.075-.09 4.613-.89 2.63-1.37 4.39-3.96 4.596-6.76.18-2.438-.7-4.81-2.41-6.52-1.72-1.712-4.09-2.59-6.51-2.41m-88.78 9.41c-3.072-.44-6.07.377-8.51 2.256V3.47h14.32c.497 0 .854-.09.854-1.56 0-1.435-.578-1.492-.96-1.492H2.074c-.92 0-1.41.745-1.41 1.57v13.874c0 .728.463.974 1.32 1.144.752.15 1.19.062 1.517-.302l.04-.054c1.51-2.178 4.8-4.288 7.928-3.905 3.73.456 6.734 3.432 7.145 7.075.26 2.325-.45 4.56-1.997 6.293-1.53 1.71-3.717 2.692-6.003 2.692-3.39 0-6.35-2.177-7.584-5.337-.18-.468-.49-.815-1.824-.33-1.23.446-1.3.962-1.13 1.43 1.605 4.42 5.838 7.39 10.534 7.39 3.18 0 6.223-1.364 8.35-3.742 2.154-2.408 3.133-5.513 2.772-8.742-.565-5.055-4.48-9.088-9.5-9.807M74.15 28.6c-6.92 0-12.548-5.63-12.548-12.55 0-6.918 5.63-12.547 12.548-12.547 6.92 0 12.547 5.63 12.547 12.548 0 6.92-5.63 12.55-12.55 12.55m0-28.49c-8.795 0-15.95 7.156-15.95 15.95C58.203 24.85 65.36 32 74.153 32s15.95-7.155 15.95-15.95c0-8.793-7.156-15.948-15.95-15.948M39.637 28.6c-6.92 0-12.548-5.63-12.548-12.55 0-6.918 5.62-12.547 12.54-12.547 6.92 0 12.545 5.63 12.545 12.548 0 6.92-5.63 12.55-12.547 12.55m0-28.49c-8.795 0-15.95 7.156-15.95 15.95 0 8.79 7.156 15.946 15.95 15.946 8.796 0 15.95-7.153 15.95-15.95C55.58 7.266 48.426.11 39.63.11" fill-rule="nonzero"/></svg>