<svg viewBox="0 0 64 64" xmlns="http://www.w3.org/2000/svg" fill-rule="evenodd" clip-rule="evenodd" stroke-linejoin="round" stroke-miterlimit="1.414"><path d="M60.952 28.235l2.893-2.893c.105-.105.35-.35-.146-.864-.22-.22-.41-.332-.58-.333h-.01c-.15 0-.247.078-.325.155l-2.9 2.9L57 24.287c-.235-.234-.51-.18-.862.174-.36.37-.418.64-.185.88l2.895 2.916-2.835 2.836-.02.02c-.07.066-.174.167-.175.33-.002.17.11.37.336.596.19.19.37.287.534.287.185 0 .304-.12.37-.186l2.848-2.85 2.91 2.91c.038.04.14.123.305.123h.01c.19 0 .38-.11.58-.316.328-.342.38-.63.16-.85l-2.91-2.91zM50.5 24.08c-2.144.162-3.823 2.048-3.823 4.292v7.097c0 .41.312.49.782.49.46 0 .78-.09.78-.5v-7.11c0-1.4 1.01-2.6 2.31-2.734.742-.077 1.46.157 2.02.66.543.492.86 1.2.86 1.944 0 .218-.107.91-.58 1.55-.36.49-1.04 1.068-2.25 1.068h-.024c-.31 0-.574.015-.625.75-.034.493-.03.714.396.774.76.105 1.54-.044 2.308-.443 1.314-.686 2.193-1.98 2.297-3.38.09-1.22-.35-2.406-1.205-3.26-.86-.856-2.046-1.295-3.256-1.205M6.11 28.78c-1.535-.22-3.033.188-4.253 1.128V25.68H9.02c.248 0 .426-.043.426-.78 0-.715-.29-.744-.48-.744h-7.93c-.46 0-.704.373-.704.786v6.936c0 .364.23.487.66.572.375.074.593.03.757-.15l.01-.028c.753-1.09 2.4-2.144 3.96-1.953 1.864.23 3.366 1.71 3.57 3.54.132 1.16-.22 2.28-.997 3.14-.764.852-1.86 1.343-3 1.343-1.695 0-3.175-1.09-3.79-2.67-.09-.233-.247-.406-.915-.164-.613.223-.648.48-.564.715.803 2.21 2.92 3.695 5.27 3.695 1.59 0 3.11-.68 4.174-1.87 1.08-1.203 1.568-2.756 1.388-4.37-.28-2.527-2.24-4.543-4.75-4.903m30.965 9.467c-3.46 0-6.273-2.814-6.273-6.273 0-3.46 2.814-6.27 6.273-6.27 3.46 0 6.274 2.812 6.274 6.272s-2.817 6.273-6.276 6.273m0-14.248c-4.395 0-7.973 3.574-7.973 7.972 0 4.396 3.58 7.973 7.977 7.973s7.975-3.577 7.975-7.974-3.578-7.976-7.975-7.976m-17.26 14.25c-3.46 0-6.277-2.813-6.277-6.272 0-3.46 2.814-6.275 6.274-6.275s6.27 2.814 6.27 6.274-2.812 6.275-6.27 6.275m0-14.247c-4.4 0-7.976 3.576-7.976 7.974s3.576 7.975 7.974 7.975c4.397 0 7.974-3.58 7.974-7.973 0-4.4-3.576-7.978-7.973-7.978" fill="#fff" fill-rule="nonzero"/></svg>