<svg viewBox="0 0 128 111" xmlns="http://www.w3.org/2000/svg" fill-rule="evenodd" clip-rule="evenodd" stroke-linejoin="round" stroke-miterlimit="1.414"><path d="M86.888 103.884c-1.576-.248-2.968-.32-2.968-1.168 0-.32.184-.672.496-.896.264-.216.976-.288 1.456-.288.496 0 .992.248 1.296.576.192.224.424.592.464.976h2.544c-.056-.944-.456-1.864-1.184-2.376-.712-.52-1.632-1.152-2.896-1.152-1.2 0-2.392.04-3.216.656-.824.592-1.416 1.584-1.416 2.448 0 .496-.04 1.088.152 1.456.216.36.824 1.112 1.304 1.4.672.384 2.24.536 3.104.768.704.168 1.568.208 1.76.912.112.424-.016.808-.4 1.056-.368.248-.92.424-1.536.424-.632 0-1.24-.192-1.552-.576-.264-.368-.416-.712-.632-1.264H81.12c.056 1.168.712 2.32 1.512 2.968.784.632 1.84.936 3.176.936 1.344 0 2.512-.224 3.376-.84.84-.616 1.304-1.76 1.304-2.704 0-.8-.232-1.432-.6-1.928-.744-.976-2.08-1.248-3-1.384zm-36.984-2.752c-.96-.752-2.184-1.264-3.52-1.304h-.136c-2.968 0-5.384 2.408-5.384 5.36 0 2.968 2.416 5.4 5.384 5.4h.136c1.336-.016 2.56-.552 3.504-1.472l.016 1.32h2.456v-14.04h-2.456v4.736zm16.048-.04c-.96-.752-2.184-1.264-3.52-1.304h-.136c-2.968 0-5.4 2.432-5.4 5.384 0 2.968 2.432 5.4 5.4 5.4h.136c1.336-.04 2.544-.576 3.504-1.496v1.32h2.448V96.38h-2.448l.016 4.712zm-12.272 9.344h2.584V99.708H53.68v10.728zm-7.28-2.048h-.016c-1.76 0-3.2-1.44-3.2-3.2 0-1.744 1.44-3.2 3.2-3.2h.016c1.744 0 3.2 1.44 3.2 3.2 0 1.76-1.456 3.2-3.2 3.2zm16.032-.024c-1.768 0-3.216-1.448-3.216-3.216 0-1.744 1.448-3.176 3.216-3.176 1.76 0 3.216 1.432 3.216 3.176 0 1.768-1.456 3.216-3.216 3.216zm-28.208-.152H34.2c-1.76 0-3.176-1.416-3.176-3.176 0-1.744 1.416-3.176 3.176-3.176h.024c1.744 0 3.176 1.432 3.176 3.176 0 1.76-1.432 3.176-3.176 3.176zm40.616-.016c-1.76-.024-3.2-1.44-3.2-3.2 0-1.744 1.44-3.16 3.2-3.176 1.76 0 3.2 1.432 3.2 3.176 0 1.76-1.44 3.2-3.2 3.2zm-37.424-8.488v1.016c-.496-.536-.72-.704-1.296-.92-.52-.184-1.224-.36-1.92-.376h-.112c-.824 0-1.552.128-2.2.4-.632.264-1.232.688-1.768 1.264-.472.496-.856 1.112-1.144 1.776-.248.672-.384 1.36-.384 2.112 0 1.624.536 2.984 1.608 4.04 1.056 1.072 2.392 1.624 4 1.624h.024c.648 0 1.36-.192 1.928-.4.576-.208 1-.384 1.264-.768v.976l2.496-.016-.024-10.744-2.472.016zm40.624-.032l.016 1.016c-.496-.52-.744-.696-1.304-.92-.536-.192-1.224-.344-1.912-.368h-.112c-.824 0-1.552.136-2.208.384-.648.272-1.24.712-1.76 1.264-.496.496-.88 1.112-1.152 1.8-.248.648-.4 1.36-.4 2.104 0 1.608.56 2.968 1.632 4.04 1.032 1.056 2.392 1.616 4 1.616.672 0 1.376-.176 1.936-.408.568-.208 1.016-.384 1.28-.768v.984l2.488-.024-.04-10.72H78.04zm14.608-5.672c-.016 0-.04-.016-.04-.016-1.664 0-3.024 1.36-3.024 3.024s1.36 3.008 3.024 3.008h.04c1.648-.024 2.984-1.36 2.984-3.008s-1.336-2.992-2.984-3.008zm0 5.536c-1.4 0-2.528-1.128-2.528-2.528 0-1.36 1.128-2.512 2.528-2.488 1.4 0 2.528 1.128 2.528 2.504 0 1.384-1.128 2.512-2.528 2.512zm-38.968-.56h2.6v-2.584h-2.6v2.584zm37.664-.304v-3.272h1.4c.368 0 .616.016.768.072.136.064.288.176.384.312.072.152.152.344.152.536 0 .224-.096.44-.232.576-.136.168-.36.28-.648.32.152.096.264.192.36.288.08.08.216.288.368.536l.4.632h-.784l-.48-.728c-.176-.248-.288-.416-.368-.456v-.016l-.008-.008s-.008-.008-.008-.016c-.056-.056-.096-.096-.168-.112-.08-.024-.192-.04-.352-.04h-.112v1.376h-.672zm1.864-2.008c.024-.024.048-.04.072-.056.056-.064.08-.176.08-.272 0-.096-.024-.192-.096-.248-.056-.056-.152-.112-.248-.112-.04-.024-.176-.024-.368-.024h-.632v.824h.632c.232-.016.384-.016.464-.04.024-.016.048-.032.072-.056l.024-.016zM67.584 79.492l-12.008.016c1.68 3.504 3.832 6.456 6.28 9.272 2.416-2.88 4.024-5.84 5.728-9.288zm-14.152.016H31.576c6.536 4.04 14.176 6.72 22.872 8.52l-1.016-8.52zm16.656.016l-1.304 8.008c8.736-1.608 16.432-4.136 23.12-8.008H70.088zm29.8-5.36l-76.432-.04c-2.544-2.024-4.264-3.08-6.32-5.784h89.168c-1.992 2.184-4.272 4.16-6.416 5.824zm11.392-12.448l-98.776.04c-1.32-1.84-2.832-4.424-3.768-6.472h106.32c-1 2.296-2.336 4.424-3.776 6.432zM75.928 48.332h-28.36C46.936 30.084 51.992 11.564 61.76.42c9.92 10.856 15.048 29.296 14.168 47.912zm42.04-.04l-35.16.024c9.704-13.656 23.648-21.376 41.704-24.112-1.128 9.136-3.232 16.888-6.544 24.088zM40.6 48.276l-34.488.016C2.952 40.996.96 33.468 0 24.124c17.768 3.16 31.48 10.456 40.6 24.152zm80.68-40.008c-.04-.016-.08-.016-.12-.016-3.712 0-6.776 3.04-6.776 6.76 0 3.712 3.064 6.76 6.776 6.76h.12c3.712-.056 6.72-3.088 6.72-6.76 0-3.68-3.008-6.688-6.72-6.744zm0 12.448c-3.104 0-5.648-2.568-5.648-5.664 0-3.064 2.544-5.656 5.648-5.616 3.136 0 5.664 2.552 5.664 5.632 0 3.12-2.528 5.648-5.664 5.648zm1.968-4.576c-.208-.208-.472-.44-.784-.632.632-.096 1.128-.304 1.48-.712.304-.32.472-.784.472-1.32 0-.44-.152-.84-.344-1.184-.208-.304-.536-.576-.88-.672-.344-.152-.92-.232-1.72-.232h-3.064v7.376h1.432v-3.08h.312c.344 0 .592.016.76.072.12.056.248.136.368.248.016.024.056.04.072.056.12.176.384.52.792 1.096l1.048 1.608h1.784l-.88-1.416c-.344-.576-.656-1.016-.848-1.208zm-3.408-1.648h1.44c.536-.016.84-.04.992-.072.192-.064.328-.176.44-.288.096-.152.136-.384.136-.576 0-.232-.04-.464-.192-.576-.112-.136-.304-.264-.576-.288-.096-.016-.384-.016-.8-.016h-1.44v1.816z"/></svg>