<svg viewBox="0 0 98 128" xmlns="http://www.w3.org/2000/svg" fill-rule="evenodd" clip-rule="evenodd" stroke-linejoin="round" stroke-miterlimit="1.414"><path d="M31.81 126.428c-1.067.856-2.29 1.59-3.807 1.572-4.47-.017-6.826-6.564-6.703-10.998.122-4.382 1.99-11.226 6.964-11.138 1.013.017 1.99.332 2.933.802v-9.46h5.447v30.463H31.81v-1.25zm15.71-20.913c5.115 0 7.734 5.045 7.734 11.242 0 6.197-2.62 11.243-7.734 11.243-5.115 0-7.716-5.046-7.716-11.243s2.6-11.242 7.716-11.242zm-33.868 14.42H8.625L7.16 127.67H1.885L8.5 98.148h5.606l6.197 29.52H15.05l-1.398-7.733zm49.528-7.77c.523-1.116 1.257-1.99 2.253-1.884 1.815.21 2.443 4.39 2.426 6.8 0 2.357-.97 6.565-2.5 6.58-1.02.037-1.68-.975-2.18-2.32v-9.165zm-31.983 0c-.523-1.116-1.257-1.99-2.252-1.884-1.815.21-2.444 4.39-2.426 6.8 0 2.357.96 6.565 2.49 6.58.99.037 1.66-.975 2.18-2.32v-9.165zm16.323-2.25c1.38 0 2.515 3.072 2.515 6.842 0 3.77-1.136 6.843-2.515 6.843-1.38 0-2.514-3.073-2.514-6.843s1.135-6.843 2.514-6.843zm33.152 8.1h9.724c.018-.42.035-.84.035-1.258 0-6.197-1.48-11.295-7.05-11.242-4.87-.053-7.73 5.045-7.73 11.242 0 6.197 2.727 11.156 9.01 11 3.266-.07 4.19-.7 5.1-1.312l-1.117-4.398c-.89.856-2.235 1.24-3.58 1.205-2.862-.07-4.154-2.06-4.38-5.238zM9.462 115.5h3.387l-1.66-9.147-1.73 9.147zm75.994-1.5h-4.468c.383-2.393 1.36-4.086 2.39-4.086s1.78 1.64 2.078 4.085zM62.57 126.427c1.064.856 2.286 1.59 3.805 1.572 4.47-.02 6.825-6.57 6.703-11-.122-4.38-1.99-11.23-6.965-11.14-1.013.012-1.99.33-2.933.8V97.2h-5.447v30.464h4.836v-1.242zm3.787-44.795L44.903 31.756 30.586 65.362H46l7.23 16.27h13.127zm23.76-.385L55.62 0h34.497v81.25zM34.27 0L0 80.708V0h34.27zm59.165.577h.942v-.56h-2.55v.56h.944v2.565h.67V.577zm4.33-.56h-.944l-.55 2.463h-.015L95.69.01h-.96v3.13h.612V.54h.016l.56 2.6h.645l.576-2.6h.012v2.6h.61V.018z"/></svg>