<svg viewBox="0 0 114 129" xmlns="http://www.w3.org/2000/svg" fill-rule="evenodd" clip-rule="evenodd" stroke-linejoin="round" stroke-miterlimit="1.414"><path d="M96.854 68.73c-.027-2.483-.608-4.934-1.514-7.236-.698-1.783-1.51-3.519-2.302-5.261a996.771 996.771 0 0 0-19.839-40.764c-.973-1.878-1.926-3.767-2.954-5.615-1.01-1.803-2.186-3.539-3.709-4.95-2.429-2.316-5.689-3.697-9.034-3.905h-1.54c-3.444.17-6.805 1.615-9.277 4.024-1.466 1.389-2.601 3.083-3.584 4.836-1.015 1.818-1.954 3.677-2.909 5.525a1004.043 1004.043 0 0 0-13.521 27.25c-2.604 5.476-5.186 10.962-7.67 16.492-1.03 2.304-1.962 4.686-2.312 7.201-.65 4.247.282 8.704 2.55 12.35a18.409 18.409 0 0 0 8.312 7.195 18.73 18.73 0 0 0 8.489 1.502c3.885-.206 7.63-1.602 10.917-3.638 3.666-2.25 6.802-5.243 9.721-8.376 2.715 2.926 5.62 5.718 8.974 7.907 3.239 2.131 6.933 3.674 10.817 4.041 4.219.44 8.59-.605 12.131-2.954a18.499 18.499 0 0 0 6.953-8.543 18.296 18.296 0 0 0 1.301-7.081zm-40.158-1.638c-1.059-1.247-1.992-2.596-2.93-3.935-1.577-2.313-3.01-4.731-4.164-7.286-.945-2.119-1.704-4.345-2-6.656-.216-1.833-.164-3.746.509-5.487a8.092 8.092 0 0 1 3.226-3.981c3.494-2.255 8.475-2.011 11.641.724 1.602 1.366 2.559 3.384 2.8 5.458.316 2.758-.311 5.527-1.274 8.099-1.818 4.772-4.696 9.05-7.808 13.064zM90.98 72.94a12.982 12.982 0 0 1-6.114 7.663c-2.603 1.456-5.71 1.954-8.644 1.464-3.737-.581-7.091-2.564-9.996-4.905-2.135-1.716-4.058-3.677-5.9-5.698 2.908-3.679 5.648-7.527 7.741-11.734 1.826-3.684 3.214-7.675 3.346-11.818.074-2.628-.42-5.305-1.648-7.645-1.608-3.126-4.488-5.528-7.789-6.69a15.944 15.944 0 0 0-9.658-.303c-2.967.84-5.677 2.623-7.534 5.095-1.635 2.155-2.566 4.805-2.782 7.492-.332 3.87.637 7.731 2.105 11.289 2.181 5.199 5.382 9.904 8.918 14.269a48.614 48.614 0 0 1-5.176 5.143c-2.87 2.43-6.155 4.545-9.876 5.349-3.008.675-6.253.34-9.012-1.056-3.231-1.61-5.712-4.643-6.648-8.13-.716-2.561-.557-5.326.294-7.834.708-2.076 1.668-4.054 2.566-6.051A996.885 996.885 0 0 1 44.79 18.509c1.02-1.978 2.024-3.966 3.104-5.913.881-1.567 1.907-3.107 3.355-4.208a8.681 8.681 0 0 1 5.49-1.83c2.041-.024 4.069.728 5.63 2.039 1.541 1.28 2.583 3.032 3.518 4.777 2.114 3.971 4.144 7.988 6.175 12.001a977.292 977.292 0 0 1 16.707 34.753c.807 1.816 1.671 3.618 2.214 5.536.664 2.364.686 4.917-.003 7.276zM26.445 98.085c1.745-.395 3.653.756 4.106 2.489.563 1.774-.556 3.835-2.339 4.348-1.741.612-3.809-.452-4.386-2.191-.547-1.465.039-3.233 1.338-4.099a3.608 3.608 0 0 1 1.281-.547zm11.79 11.447c1.051-1.143 2.533-1.859 4.059-2.087a9.492 9.492 0 0 1 3.043.193c-.013 1.608-.003 3.215-.006 4.825-1.565-.405-3.26-.488-4.796.077a5.718 5.718 0 0 0-2.196 1.443c-.132.113-.1.295-.112.452.009 4.495-.007 8.991.007 13.485-.016.173.026.368-.051.53-1.736.04-3.473.008-5.21.014.001-6.853-.005-13.707.004-20.56 1.463.006 2.926-.006 4.389.003.321-.019.664.146.782.46.115.376.078.776.087 1.165zm37.426.018c1.39-1.437 3.403-2.144 5.379-2.148 2.088-.053 4.227.564 5.841 1.919a6.356 6.356 0 0 1 2.206 3.32c.459 1.602.418 3.285.413 4.935l.001 10.892c-1.751-.003-3.5.011-5.251-.008l.001-10.886c0-1.348.064-2.802-.653-4.003-.499-.862-1.488-1.291-2.44-1.391-1.815-.29-3.711.432-4.962 1.755-.134.133-.248.302-.233.503-.017.561.068 1.124.02 1.686-.069.763.038 1.526.013 2.291a152.302 152.302 0 0 0-.005 4.328c-.099 1.908.073 3.822-.041 5.728-1.743-.005-3.485-.001-5.229-.002 0-6.856-.012-13.711.007-20.567 1.348.01 2.699 0 4.046.004.349-.022.73.173.82.527.082.364.057.743.067 1.117zm-51.136 18.918c-.001-6.855-.011-13.71.003-20.565 1.738.004 3.474.002 5.21.001.014 6.855.004 13.71.005 20.564-1.739 0-3.478-.002-5.218 0zm-3.236-20.563c-1.376-.003-2.753.004-4.131-.008-.364-.002-.829.015-1.006.398-.16.393-.099.83-.113 1.243-1.146-1.219-2.76-1.943-4.417-2.1-2.557-.23-5.207.479-7.261 2.032-1.692 1.25-2.943 3.057-3.597 5.048-.315.933-.473 1.912-.574 2.891v1.407c.147 2.947 1.457 5.861 3.743 7.761 1.725 1.461 3.941 2.277 6.186 2.419h1.17c1.78-.12 3.537-.856 4.751-2.182.012.416-.047.857.109 1.255.162.322.545.411.877.398 1.42-.004 2.843.001 4.265-.006 0-6.851.004-13.703-.002-20.556zm-5.411 14.157c-1.063 1.272-2.723 2.025-4.38 1.972-1.777.014-3.621-.667-4.772-2.061-1.123-1.33-1.463-3.181-1.208-4.872.191-1.369.889-2.681 1.991-3.531 1-.789 2.26-1.196 3.522-1.284 1.879-.164 3.861.665 4.992 2.183.063 2.234.001 4.474.029 6.712-.018.295.063.65-.174.881zm51.842-8.275a10.251 10.251 0 0 0-4.063-4.821c-1.874-1.166-4.122-1.693-6.319-1.544-1.735.114-3.43.855-4.634 2.12-.007-3.841 0-7.679-.004-11.52-1.751.001-3.504-.007-5.255.005.009 10.144-.015 20.293.013 30.436 1.45.003 2.901.007 4.352.003.361.029.75-.17.849-.535.072-.371.045-.754.048-1.13 1.217 1.354 3.005 2.088 4.803 2.197h1.073c2.911-.146 5.765-1.511 7.592-3.798 2.559-3.138 3.059-7.699 1.545-11.413zm-6.124 8.653c-1.174 1.089-2.797 1.611-4.383 1.596a5.549 5.549 0 0 1-4.355-2.003.632.632 0 0 1-.161-.49c.001-2.353.003-4.706 0-7.058 1.006-1.312 2.616-2.13 4.263-2.214 1.67-.049 3.422.441 4.648 1.619 1.167 1.083 1.737 2.707 1.7 4.281.034 1.571-.551 3.185-1.712 4.269zm49.335-11.198c-2.227-2.836-6.035-4.268-9.585-3.737-1.483.234-2.888.945-3.924 2.036-.012-3.838 0-7.677-.006-11.517-1.748-.002-3.496-.003-5.243.002v30.437c1.378.011 2.76-.002 4.138.011.362.006.815-.023 1-.393.161-.4.101-.845.112-1.265 1.208 1.323 2.957 2.054 4.727 2.183h1.18c2.879-.157 5.694-1.501 7.518-3.753 1.489-1.797 2.292-4.098 2.425-6.416v-1.375c-.165-2.237-.92-4.459-2.342-6.213zm-4.092 10.607c-1.386 1.785-3.833 2.449-6.003 2.102-1.321-.263-2.602-.977-3.384-2.09-.087-.864-.008-1.738-.035-2.605.019-1.597-.039-3.198.027-4.791.795-1.096 2.067-1.799 3.376-2.089 2.423-.448 5.24.512 6.465 2.749 1.115 2.071 1.004 4.838-.446 6.724z" fill-rule="nonzero"/></svg>