<svg viewBox="0 0 64 64" xmlns="http://www.w3.org/2000/svg" fill-rule="evenodd" clip-rule="evenodd" stroke-linejoin="round" stroke-miterlimit="1.414"><path d="M63.32 29.932c-.33 0-.534-.258-.534-.574 0-.338.234-.574.535-.574.3 0 .54.236.54.574 0 .34-.235.574-.53.574zm0-1.268c-.367 0-.683.276-.683.694 0 .395.285.695.684.695.37 0 .68-.277.68-.695 0-.418-.31-.694-.68-.694zm-.137.655v-.23h.152c.076 0 .168.01.168.1 0 .112-.084.12-.18.12h-.14zm.445-.12c0-.156-.094-.22-.28-.22h-.29v.77h.125v-.33h.12l.198.33h.15l-.214-.338c.116-.013.2-.07.2-.21zm-3.775 2.826h-4.977c-.383 0-.692-.31-.692-.69 0-.38.31-.69.692-.69h7.133V28.66h-7.56c-1.48 0-2.678 1.197-2.678 2.675 0 1.476 1.197 2.673 2.676 2.673h4.975c.382 0 .69.31.69.695 0 .382-.31.692-.69.692h-7.85v1.984h8.27c1.476 0 2.675-1.198 2.675-2.676s-1.2-2.677-2.677-2.677zm-15.755 0H39.12c-.38 0-.69-.31-.69-.69 0-.38.31-.69.69-.69h7.135V28.66h-7.553c-1.478 0-2.676 1.197-2.676 2.675 0 1.476 1.198 2.673 2.676 2.673h4.977c.38 0 .69.31.69.695 0 .382-.31.692-.69.692H27.63c-.383 0-.693-.31-.693-.69v-.668l.01-.03h7.11l.002-1.98h-7.12v-.693c0-.38.31-.69.69-.69h6.42V28.66h-6.84c-1.478 0-2.676 1.197-2.676 2.675v4.072l-5.117-.002c-.74 0-1.22-.507-1.22-1.12l-.003-5.627h-2.422v6.045c0 1.478 1.2 2.676 2.677 2.676H44.1c1.477 0 2.675-1.2 2.675-2.678s-1.198-2.676-2.676-2.676zm-32.356-5.42c-.633 0-1.214.204-1.644.61L0 37.386h3.318l7.73-7.722c.425-.418.964-.243 1.003.41v3.3H8.83L6.524 35.68h5.527v1.705h2.37v-7.358c0-.386-.013-.758-.063-1.103-.156-1.3-1.263-2.31-2.607-2.31zm36.07 10.772h2.353v-8.72h-2.353v8.723z" fill="#fff" fill-rule="nonzero"/></svg>