<svg viewBox="0 0 128 22" xmlns="http://www.w3.org/2000/svg" fill-rule="evenodd" clip-rule="evenodd" stroke-linejoin="round" stroke-miterlimit="1.414"><path d="M126.64 6.634c-.66 0-1.067-.516-1.067-1.147 0-.677.466-1.148 1.068-1.148.6 0 1.07.47 1.07 1.14 0 .68-.47 1.145-1.06 1.145zm0-2.536c-.734 0-1.366.553-1.366 1.39 0 .79.57 1.388 1.367 1.388.73 0 1.36-.554 1.36-1.39 0-.835-.63-1.388-1.36-1.388zm-.274 1.31V4.96h.305c.16 0 .34.023.34.207 0 .223-.163.242-.352.242h-.283zm.89-.223c0-.31-.188-.44-.56-.44h-.582V6.28h.252v-.656h.238l.398.657h.285l-.43-.67c.23-.022.4-.14.4-.42zm-7.55 5.654l-9.954-.01c-.765 0-1.385-.62-1.385-1.385 0-.764.62-1.383 1.385-1.383l14.267-.003V4.1h-15.11c-2.96 0-5.36 2.396-5.36 5.35 0 2.956 2.397 5.35 5.354 5.35l9.953.003c.765 0 1.384.62 1.384 1.384 0 .764-.62 1.384-1.383 1.384l-15.7.01v3.97l16.54.002c2.957 0 5.35-2.396 5.35-5.35 0-2.956-2.393-5.353-5.35-5.353zm-31.51 0l-9.953-.01c-.765 0-1.384-.62-1.384-1.385 0-.764.61-1.383 1.38-1.383h14.27V4.1H77.4c-2.955 0-5.352 2.396-5.352 5.35 0 2.956 2.4 5.35 5.354 5.35l9.954.003c.76 0 1.382.62 1.382 1.384 0 .764-.62 1.384-1.385 1.384l-32.09.01c-.765 0-1.384-.62-1.384-1.382V14.86l.012-.056 14.22.004.01-3.964-14.245-.002V9.454c0-.764.62-1.383 1.384-1.383H68.1V4.1H54.43c-2.955 0-5.352 2.396-5.352 5.35v8.147l-10.232-.005c-1.48 0-2.445-1.016-2.445-2.24V4.097h-3.75l-1.1.003v12.084c0 2.956 2.398 5.352 5.35 5.352l1.94.003H88.2c2.955 0 5.35-2.4 5.35-5.35 0-2.96-2.395-5.36-5.35-5.36zM23.484 0c-1.266 0-2.428.407-3.29 1.22L0 21.54h6.636L22.094 6.1c.853-.838 1.93-.488 2.007.82v6.596h-6.44l-4.61 4.614H24.1v3.412h4.725V6.826c.003-.772-.027-1.514-.127-2.205C28.386 2.02 26.172 0 23.484 0zm72.14 21.543h4.706V4.097h-4.705v17.446z" fill-rule="nonzero"/></svg>