<svg viewBox="0 0 64 64" xmlns="http://www.w3.org/2000/svg" fill-rule="evenodd" clip-rule="evenodd" stroke-linejoin="round" stroke-miterlimit="1.414"><path d="M24.974 35.42c-2.34 1.726-5.73 2.646-8.65 2.646-4.093 0-7.778-1.514-10.566-4.032-.22-.198-.023-.468.24-.314 3.01 1.75 6.73 2.804 10.572 2.804 2.592 0 5.443-.537 8.064-1.65.396-.168.727.26.34.547zm.973-1.11c-.298-.383-1.977-.182-2.73-.092-.23.028-.265-.172-.058-.316 1.33-.94 3.53-.67 3.78-.354.252.317-.07 2.516-1.327 3.566-.19.16-.376.075-.29-.138.282-.705.914-2.284.615-2.667zm24.536-1.21c-1.768 0-2.56-1.802-2.56-3.605 0-1.896.93-3.538 2.71-3.538h.095c1.73 0 2.593 1.75 2.593 3.552 0 1.91-.95 3.59-2.74 3.59h-.09zm-19.125-7.104c1.848 0 2.85 1.587 2.85 3.606 0 1.95-1.107 3.498-2.85 3.498-1.816 0-2.804-1.588-2.804-3.566 0-1.99 1-3.538 2.804-3.538zm9.678 6.462c0-.322.275-.582.613-.582.33 0 .61.26.61.582 0 .32-.28.584-.62.584-.34 0-.614-.263-.614-.584zm-32.705.508H7.09c-.12-.008-.214-.098-.223-.212V26.36c0-.128.107-.23.24-.23H8.27c.12.006.216.1.225.214v.836h.024c.3-.808.87-1.184 1.64-1.184.78 0 1.26.376 1.61 1.184.304-.808.99-1.184 1.72-1.184.525 0 1.097.215 1.445.7.394.537.313 1.318.313 2.003v4.03c0 .13-.108.23-.24.23h-1.25c-.123-.01-.223-.11-.223-.23v-3.39c0-.27.024-.94-.035-1.2-.093-.43-.372-.55-.733-.55-.304 0-.62.2-.748.522-.128.323-.116.862-.116 1.225v3.39c0 .127-.108.23-.24.23H10.42c-.128-.008-.226-.108-.226-.23v-3.39c0-.713.116-1.763-.77-1.763-.894 0-.86 1.023-.86 1.762v3.39c0 .126-.106.23-.24.23zm27.04 0c-.122-.008-.222-.108-.222-.23V26.34c.01-.12.112-.21.24-.21h1.153c.11.004.198.08.223.18v.975h.023c.348-.874.837-1.29 1.698-1.29.56 0 1.105.2 1.455.752.326.51.326 1.37.326 1.99v4.025c-.013.112-.116.2-.24.2h-1.25c-.112-.007-.21-.09-.22-.2V29.29c0-.7.08-1.723-.78-1.723-.302 0-.58.203-.72.51-.174.392-.2.78-.2 1.212v3.44c0 .13-.11.23-.242.23h-1.24zm15.25-.74c.58-.018 1.04-.38 1.314-.98.243-.54.29-1.16.29-1.75 0-.646-.07-1.32-.373-1.87-.27-.483-.737-.79-1.23-.807-.552.01-1.044.39-1.29.96-.224.5-.292 1.16-.292 1.71 0 .62.08 1.33.337 1.87.25.51.73.84 1.247.86zm-5.68.875c-1.754 0-2.51-1.76-2.51-3.55 0-1.77.77-3.59 2.524-3.59h.094c1.22 0 2.09.94 2.278 2.35 0 .105-.096.196-.212.21l-.548-.01c-.117-.014-.19-.112-.21-.223-.13-.783-.58-1.407-1.33-1.43-1.195.037-1.535 1.505-1.535 2.636 0 1.088.285 2.677 1.48 2.716.79-.026 1.21-.66 1.38-1.485.036-.102.115-.18.23-.18h.525c.123.003.237.1.226.213-.24 1.404-1.086 2.355-2.29 2.355h-.096zm-24.93-3.18c0 .487.014.89-.232 1.32-.197.354-.512.57-.86.57-.48 0-.76-.365-.76-.903 0-1.06.952-1.254 1.854-1.254v.27zm-16.332 0c0 .487.013.89-.232 1.32-.197.354-.51.57-.86.57-.48 0-.758-.365-.758-.903 0-1.06.95-1.254 1.85-1.254v.27zm27.698-2.61c-.917 0-.975 1.25-.975 2.03 0 .784-.014 2.45.964 2.45.966 0 1.01-1.344 1.01-2.164 0-.54-.02-1.185-.184-1.696-.14-.445-.42-.62-.817-.62zm-8.1-.04v-.916c0-.14.107-.23.233-.23h4.09c.13 0 .235.093.235.23v.783c-.002.13-.112.303-.308.574l-2.122 3.03c.788-.02 1.62.098 2.335.5.16.09.204.226.217.357v.975c0 .13-.147.29-.302.21-1.26-.662-2.933-.734-4.326.006-.15.08-.29-.075-.29-.21v-.926c0-.15 0-.405.15-.63l2.45-3.526H23.5c-.13 0-.235-.096-.235-.23zm-2.006 5.69c-.08.072-.2.08-.294.03-.413-.345-.49-.504-.714-.83-.682.695-1.17.904-2.052.904-1.05 0-1.864-.648-1.864-1.943 0-1.01.55-1.7 1.33-2.036.677-.3 1.62-.35 2.34-.432v-.16c0-.295.026-.645-.15-.9-.15-.23-.44-.324-.7-.324-.473 0-.895.244-1 .75-.02.11-.102.22-.216.227l-1.207-.13c-.1-.024-.215-.106-.185-.26.278-1.467 1.603-1.91 2.787-1.91.608 0 1.4.16 1.88.62.605.567.547 1.32.547 2.144v1.94c0 .583.24.84.47 1.154.08.11.095.247-.006.33-.252.213-.704.608-.953.828v-.003zm-16.334 0c-.08.072-.2.08-.293.03-.412-.345-.486-.504-.714-.83-.684.695-1.168.904-2.055.904C.82 33.054 0 32.407 0 31.114c0-1.01.55-1.7 1.328-2.038.677-.298 1.62-.35 2.343-.433v-.16c0-.297.03-.647-.15-.903-.15-.23-.44-.32-.7-.32-.47 0-.89.243-1 .748-.02.112-.1.222-.21.228l-1.21-.13c-.1-.023-.212-.105-.184-.26.28-1.466 1.6-1.908 2.787-1.908.606 0 1.398.162 1.876.62.607.567.55 1.322.55 2.144v1.94c0 .585.24.84.47 1.156.08.112.097.247-.005.33-.253.213-.705.608-.954.828l-.002-.003zm49.31.02c-.13-.007-.23-.107-.23-.23v-6.4c.006-.115.102-.205.22-.21h.46c.125 0 .226.09.237.21v.93c.327-.74.933-1.32 1.7-1.32h.093c.812 0 1.406.6 1.627 1.47.344-.86.992-1.47 1.847-1.47h.092c.604 0 1.185.39 1.487.98.29.57.28 1.32.28 1.955l-.006 3.848c.003.123-.097.223-.22.23h-.548c-.12-.003-.218-.087-.23-.2v-3.88c0-.457.02-.942-.167-1.36-.19-.425-.55-.692-.94-.71-.436.02-.835.337-1.095.765-.337.552-.325 1.05-.325 1.694v3.49c-.014.106-.11.188-.22.197h-.54c-.13-.01-.235-.11-.235-.23l-.003-4.107c0-.377-.02-.82-.194-1.16-.2-.384-.562-.637-.94-.656-.393.02-.79.32-1.024.67-.302.444-.36.995-.36 1.56v3.684c0 .123-.1.223-.224.23h-.545zm9.11-6.874c-.35 0-.65.283-.65.653 0 .36.296.65.652.65.36 0 .653-.294.653-.65 0-.37-.3-.656-.65-.656zm0 .105c.3 0 .55.243.55.548 0 .298-.246.55-.55.55-.3 0-.546-.246-.546-.55 0-.308.25-.546.543-.546zm-.243.916h.14v-.293h.13c.05 0 .066.022.076.064 0 .01.024.197.025.23h.155c-.02-.033-.03-.133-.036-.192-.013-.092-.02-.157-.12-.164.05-.016.14-.044.14-.18 0-.192-.17-.192-.258-.192h-.25v.733zm.137-.614h.114c.037 0 .11 0 .11.1 0 .04-.02.106-.115.106h-.117v-.21z" fill="#fff"/></svg>