<svg viewBox="0 0 128 25" xmlns="http://www.w3.org/2000/svg" fill-rule="evenodd" clip-rule="evenodd" stroke-linejoin="round" stroke-miterlimit="1.414"><path d="M49.948 18.974c-4.68 3.45-11.46 5.29-17.3 5.29-8.186 0-15.556-3.03-21.132-8.066-.438-.396-.046-.935.48-.627 6.017 3.51 13.458 5.61 21.144 5.61 5.183 0 10.885-1.07 16.128-3.29.792-.336 1.454.52.68 1.094zm1.945-2.225c-.596-.77-3.953-.37-5.46-.19-.46.054-.53-.346-.116-.63 2.674-1.88 7.062-1.34 7.574-.71.52.633-.13 5.03-2.64 7.13-.382.32-.75.15-.58-.277.566-1.41 1.83-4.568 1.23-5.335zm49.072-2.42c-3.536 0-5.12-3.61-5.12-7.218 0-3.79 1.86-7.075 5.42-7.075h.19c3.463 0 5.187 3.497 5.187 7.103 0 3.82-1.91 7.184-5.49 7.184h-.187zM62.715.12c3.698 0 5.7 3.176 5.7 7.21 0 3.904-2.213 7-5.7 7-3.63 0-5.607-3.175-5.607-7.13 0-3.98 2-7.077 5.607-7.077zM82.07 13.05c0-.645.552-1.164 1.228-1.164.676 0 1.227.52 1.227 1.164 0 .64-.55 1.167-1.227 1.167-.676 0-1.227-.526-1.227-1.167zm-65.41 1.016h-2.49c-.24-.017-.43-.196-.446-.424V.85c0-.256.214-.46.48-.46h2.324c.24.01.434.197.452.428V2.49h.045C17.632.874 18.77.12 20.305.12c1.56 0 2.534.754 3.235 2.37C24.143.874 25.513.12 26.982.12c1.044 0 2.187.432 2.884 1.4.79 1.075.627 2.638.627 4.008L30.49 13.6c0 .255-.214.462-.48.462h-2.488c-.25-.017-.45-.217-.45-.462V6.82c0-.538.05-1.884-.07-2.396-.185-.858-.742-1.1-1.464-1.1-.603 0-1.234.403-1.49 1.048-.255.645-.23 1.724-.23 2.45V13.6c0 .255-.215.462-.48.462h-2.49c-.252-.017-.448-.217-.448-.462l-.003-6.78c0-1.425.234-3.524-1.535-3.524-1.79 0-1.72 2.047-1.72 3.525v6.78c0 .26-.215.46-.48.46zm54.067 0c-.25-.017-.45-.217-.45-.462V.81c.02-.235.227-.418.48-.418h2.31c.216.01.394.158.444.358v1.956h.05C74.257.956 75.23.123 76.95.123c1.12 0 2.21.403 2.91 1.507.652 1.023.652 2.744.652 3.98v8.05c-.028.225-.235.404-.48.404h-2.5c-.227-.017-.416-.186-.44-.403V6.72c0-1.398.16-3.445-1.56-3.445-.607 0-1.164.407-1.44 1.024-.35.78-.397 1.56-.397 2.42V13.6c-.003.255-.22.462-.487.462h-2.48zm30.497-1.48c1.164-.037 2.082-.76 2.625-1.96.48-1.08.58-2.318.58-3.503 0-1.287-.14-2.633-.75-3.737-.548-.964-1.48-1.577-2.468-1.612-1.1.04-2.085.786-2.58 1.935-.445.99-.58 2.31-.58 3.41 0 1.24.16 2.67.67 3.745.5 1.02 1.456 1.683 2.493 1.72zm-11.358 1.75c-3.512 0-5.026-3.526-5.026-7.104 0-3.55 1.535-7.185 5.047-7.185h.19c2.438 0 4.176 1.878 4.555 4.685 0 .212-.196.394-.428.418l-1.096-.014c-.232-.03-.383-.227-.418-.448-.262-1.567-1.163-2.815-2.663-2.864-2.387.078-3.067 3.014-3.067 5.275 0 2.17.568 5.35 2.955 5.43 1.587-.05 2.42-1.33 2.765-2.97.07-.21.228-.37.46-.37l1.047-.004c.25.01.477.2.456.43-.484 2.81-2.177 4.71-4.588 4.71h-.19zM40.01 7.954c0 .972.023 1.782-.468 2.644-.395.7-1.026 1.132-1.724 1.132-.957 0-1.517-.73-1.517-1.805 0-2.124 1.91-2.51 3.71-2.51v.54zm-32.668 0c0 .972.024 1.782-.466 2.644-.396.7-1.024 1.132-1.725 1.132-.95 0-1.51-.73-1.51-1.805 0-2.124 1.9-2.51 3.71-2.51v.54zm55.394-5.22c-1.836 0-1.952 2.502-1.952 4.062 0 1.563-.024 4.9 1.93 4.9 1.932 0 2.023-2.693 2.023-4.333 0-1.08-.045-2.37-.37-3.392-.28-.89-.84-1.23-1.63-1.23zM46.538 2.65V.82c0-.277.21-.463.462-.463h8.19c.264 0 .474.19.474.463v1.567c-.004.262-.224.606-.617 1.15l-4.244 6.06c1.577-.04 3.242.195 4.672 1 .322.183.41.45.434.712v1.95c0 .26-.3.58-.61.41-2.52-1.323-5.87-1.466-8.656.013-.283.154-.58-.155-.58-.42V11.41c0-.297.002-.805.3-1.257l4.917-7.05H47c-.262 0-.472-.187-.472-.46zm-4.016 11.38c-.165.146-.404.157-.59.06-.826-.688-.977-1.007-1.43-1.663-1.366 1.395-2.337 1.812-4.107 1.812-2.1 0-3.73-1.3-3.73-3.89 0-2.02 1.095-3.4 2.658-4.07 1.353-.6 3.242-.7 4.686-.87v-.32c0-.593.04-1.294-.31-1.805-.3-.46-.888-.648-1.4-.648-.95 0-1.798.486-2 1.495-.04.222-.21.443-.44.454l-2.415-.26c-.203-.046-.43-.21-.37-.523C33.635.883 36.285 0 38.655 0c1.212 0 2.797.322 3.753 1.24 1.21 1.133 1.094 2.643 1.094 4.287V9.41c0 1.167.484 1.68.94 2.31.157.224.192.494-.01.662-.51.424-1.413 1.212-1.91 1.654l-.004-.007zm-32.667 0c-.165.146-.403.157-.59.06-.826-.688-.973-1.007-1.43-1.663C6.47 13.822 5.503 14.24 3.73 14.24 1.632 14.24 0 12.945 0 10.355c0-2.022 1.097-3.4 2.656-4.072 1.353-.596 3.242-.7 4.686-.866v-.322c0-.593.045-1.294-.302-1.805-.304-.458-.886-.647-1.398-.647-.95 0-1.798.487-2.004 1.496-.043.22-.207.44-.432.45L.788 4.33c-.203-.044-.427-.21-.37-.52C.973.882 3.62 0 5.988 0 7.2 0 8.784.322 9.74 1.24c1.212 1.133 1.096 2.643 1.096 4.287V9.41c0 1.167.483 1.68.94 2.31.16.224.195.494-.008.662-.508.424-1.413 1.212-1.91 1.654l-.007-.007zm98.617.038c-.26-.01-.463-.21-.463-.463V.817c.01-.228.2-.407.44-.42h.91c.25 0 .455.18.476.42V2.68c.652-1.478 1.864-2.634 3.396-2.634h.184c1.628 0 2.817 1.198 3.258 2.94.69-1.72 1.988-2.94 3.7-2.94h.19c1.21 0 2.372.778 2.974 1.962.582 1.132.56 2.64.56 3.904l-.003 7.693c.005.245-.195.445-.444.463h-1.092c-.236-.01-.43-.18-.46-.4V5.912c0-.914.05-1.885-.323-2.72-.378-.85-1.104-1.384-1.882-1.422-.87.042-1.668.676-2.186 1.53-.676 1.105-.65 2.1-.65 3.39v6.985c-.03.21-.22.375-.447.393h-1.086c-.26-.01-.468-.21-.468-.463L115.05 5.4c0-.75-.046-1.64-.393-2.31-.4-.77-1.123-1.273-1.88-1.31-.785.045-1.577.645-2.047 1.342-.606.89-.722 1.99-.722 3.123v7.37c0 .245-.2.445-.447.463h-1.09zM126.696.322c-.7 0-1.307.568-1.307 1.308 0 .725.59 1.303 1.3 1.303.712 0 1.3-.585 1.3-1.303 0-.74-.6-1.308-1.304-1.308zm-.003.21c.6 0 1.096.484 1.096 1.094 0 .596-.49 1.097-1.1 1.097-.61 0-1.1-.49-1.1-1.097 0-.617.497-1.093 1.093-1.093zm-.488 1.83h.28v-.59h.26c.102 0 .13.043.15.128 0 .02.05.392.053.462h.312c-.038-.07-.06-.27-.073-.39-.028-.185-.042-.314-.242-.328.1-.035.277-.09.277-.36 0-.387-.34-.387-.516-.387h-.5v1.465zm.274-1.23h.23c.072 0 .212 0 .212.2 0 .077-.035.206-.225.206h-.227v-.406z"/></svg>