<svg viewBox="0 0 129 32" xmlns="http://www.w3.org/2000/svg" fill-rule="evenodd" clip-rule="evenodd" stroke-linejoin="round" stroke-miterlimit="1.414">
    <path d="M30.357 29.124h-7.099l-2.172-5.238H9.255l-1.978 5.238H.295L10.962 2.668h7.641l11.754 26.456zM14.879 8.991L11 19.269h8.147L14.879 8.991zm41.265-6.323h5.74v26.456H55.29V12.599L48.152 20.9h-1.007l-7.138-8.301v16.525h-6.595V2.668h5.741l8.496 9.814 8.495-9.814zm22.451 0c9.659 0 14.624 6.012 14.624 13.266 0 7.603-4.81 13.189-15.361 13.189h-10.94V2.668h11.677zm-5.082 21.606h4.306c6.633 0 8.61-4.499 8.61-8.378 0-4.539-2.443-8.379-8.689-8.379h-4.228v16.757h.001zm46.352-15.429H106.31L98.071.568 128.295.53v30.262l-8.43-8.468V8.845zM106.31 22.59l.039-12.226-8.582 8.58V31.02h12.415l8.43-8.43H106.31z"/>
</svg>
