<svg viewBox="0 0 64 64" xmlns="http://www.w3.org/2000/svg" fill-rule="evenodd" clip-rule="evenodd" stroke-linejoin="round" stroke-miterlimit="1.414"><path d="M2.255 61.124c0-.605-.498-1.104-1.153-1.104C.5 60.02 0 60.52 0 61.124c0 .656.5 1.156 1.102 1.156.655 0 1.153-.5 1.153-1.156zm-.156 0c0 .55-.45.945-1 .945s-.95-.4-.95-.95c0-.5.392-.95.943-.95.55 0 .997.446.997.945zm-.5.55h-.21c0-.105-.03-.262-.03-.288 0-.053 0-.157-.16-.157H.89v.44H.76v-1.05h.446c.184 0 .34.05.34.23 0 .158-.05.21-.104.264.053.052.105.105.105.21v.184c0 .05 0 .05.053.05v.107zm-.21-.76c0-.132-.08-.132-.13-.132H.89v.29h.313c.106 0 .184-.054.184-.16zM64 40.788c0 1.495-.97 2.205-2.675 2.205h-3.25v-1.497h3.25c.314 0 .55-.053.656-.158.11-.105.21-.263.21-.447 0-.21-.1-.42-.21-.5-.1-.1-.28-.15-.6-.15-1.54-.05-3.51.055-3.51-2.18 0-1 .66-2.1 2.41-2.1h3.36v1.497h-3.1c-.314 0-.524 0-.655.106-.157.157-.262.316-.262.55 0 .265.158.423.34.5.212.054.422.106.658.106h.917c.945 0 1.548.21 1.968.553.288.366.498.813.498 1.523zm-7.08-1.526c-.42-.34-1.022-.552-1.965-.552h-.918c-.237 0-.447-.052-.656-.105-.18-.078-.34-.236-.34-.5 0-.235.06-.394.27-.55.13-.106.34-.106.657-.106h3.093v-1.5H53.7c-1.81 0-2.41 1.1-2.41 2.1 0 2.23 1.965 2.13 3.512 2.18.312 0 .496.05.6.16.105.08.21.29.21.5 0 .18-.105.34-.21.44-.157.104-.34.157-.654.157h-3.252v1.497h3.252c1.704 0 2.674-.71 2.674-2.207 0-.71-.21-1.156-.5-1.524zm-6.45 2.286h-3.96v-1.42h3.882V38.71h-3.88v-1.287h3.96v-1.47H44.86v7.04h5.61V41.55zm-7.42-5.255c-.55-.29-1.205-.34-2.07-.34h-3.854v7.04h1.705V40.42h1.81c.61 0 .95.053 1.21.315.29.342.29.946.29 1.42v.84h1.68v-1.367c0-.63-.052-.945-.262-1.287-.157-.21-.445-.47-.865-.6.47-.16 1.206-.76 1.206-1.86 0-.814-.288-1.26-.84-1.576zm-16.02 3.18l2.597-2.76v5.675l-2.596-2.916zm-4.09 2.075h-4.167v-1.42h3.723V38.71h-3.723v-1.287h4.22l1.863 2.05-1.915 2.075zm10.567-2.338h-2.23v-1.787h2.23c.604 0 .996.237.996.84 0 .605-.392.947-.996.947zm8.18-.342c-.262.105-.498.105-.812.105l-2.044.053v-1.603h2.05c.318 0 .607 0 .817.13.21.107.34.317.34.606 0 .31-.13.55-.34.71zm-8.18-2.916h-5.374l-2.176 2.312-2.045-2.312h-6.79v7.04h6.684l2.15-2.31 2.072 2.31h3.25V40.63h2.124c1.443 0 2.91-.394 2.91-2.364 0-1.918-1.494-2.312-2.805-2.312zm5.873-12.138h-1.703v7.04h1.703v-7.04zm-3.565.315c-.55-.32-1.154-.32-2.02-.32h-3.853v7.04h1.65v-2.54h1.81c.603 0 .997.05 1.26.29.288.364.235.97.235 1.36v.895h1.73V29.46c0-.604-.053-.92-.314-1.26-.158-.21-.446-.447-.813-.604.47-.21 1.207-.763 1.207-1.866 0-.815-.342-1.26-.892-1.603zm-7.08 5.28h-3.932v-1.42h3.88v-1.44h-3.88v-1.26h3.933v-1.48H23.1v7.04h5.636v-1.44zm-6.895-5.6h-2.756l-2.072 4.78-2.202-4.78h-2.7v6.642L9.23 23.81H6.74l-3.017 7.04h1.81l.63-1.55H9.7l.63 1.55h3.434v-5.51l2.466 5.517h1.44l2.466-5.517v5.517h1.703v-7.04zm37.49 7.04h-2.41l-3.174-5.28v5.28H50.34l-.656-1.55H46.17l-.655 1.55H43.55c-.814 0-1.862-.187-2.465-.79-.552-.607-.866-1.42-.866-2.68.02-1.05.15-2 .91-2.76.5-.55 1.413-.815 2.57-.815h1.6v1.524h-1.6c-.604 0-.97.105-1.313.394-.31.315-.443.867-.443 1.602 0 .762.13 1.314.445 1.682.237.234.71.34 1.155.34h.76l2.412-5.544h2.49l2.83 6.646v-6.64h2.597L57.6 28.7v-4.886h1.73v7.04zm-10.25-3.04l-1.153-2.79-1.153 2.785h2.307zm-42.315 0l1.18-2.79 1.152 2.785H6.765zM63.58 1.72H3.67V27.1l2.046-4.677h4.378l.603 1.156v-1.16h5.113l1.154 2.49 1.127-2.498H34.4c.76 0 1.415.13 1.913.552v-.553h4.483v.554c.734-.42 1.705-.55 2.806-.55h6.476l.603 1.157v-1.15h4.78l.71 1.156V22.42h4.666v9.852h-4.72l-.917-1.498v1.498h-5.88l-.655-1.603H47.22l-.656 1.6h-3.068c-1.205 0-2.097-.29-2.7-.61v.604h-7.29v-2.26c0-.315-.05-.368-.26-.368h-.237v2.627H18.93v-1.26l-.5 1.263h-2.96l-.498-1.21v1.21H9.28l-.6-1.602H7.236l-.656 1.6H3.67v29.74h59.91V43.96c-.63.29-1.548.448-2.44.448h-4.377v-.604c-.5.394-1.416.604-2.255.604H40.744v-2.26c0-.315-.053-.315-.315-.315h-.24v2.574h-4.54v-2.68c-.76.366-1.6.366-2.36.366h-.49v2.314h-5.535l-1.31-1.524-1.444 1.524h-8.886v-9.88h9.045l1.285 1.525 1.416-1.525h6.083c.708 0 1.862.105 2.36.604v-.6h5.427c.55 0 1.6.107 2.31.606v-.605h8.18v.604c.47-.395 1.31-.605 2.07-.605h4.56v.603c.5-.34 1.2-.604 2.12-.604h3.093V1.72zM34.503 26.68c-.26.157-.498.157-.84.157h-2.07v-1.55h2.07c.29 0 .63 0 .84.105.21.132.315.342.315.657 0 .28-.105.55-.315.63z" fill="#fff"/></svg>