<svg viewBox="0 0 64 64" xmlns="http://www.w3.org/2000/svg" fill-rule="evenodd" clip-rule="evenodd" stroke-linejoin="round" stroke-miterlimit="1.414"><path d="M58.314 44.063c.68 0 1.235.563 1.235 1.256v17.42c0 .69-.56 1.25-1.24 1.25H5.68c-.68 0-1.23-.565-1.23-1.258V45.32c0-.694.555-1.257 1.236-1.257h13.02C13.128 39.963 9.5 33.357 9.5 25.92 9.504 13.5 19.6 3.41 32.01 3.41c12.41 0 22.51 10.092 22.51 22.51 0 7.43-3.62 14.04-9.2 18.14h13zm-9.338 11.82c-.314 0-.555.082-.722.248-.166.17-.25.41-.25.72v2c0 .31.084.55.25.72.167.167.408.25.722.25.315 0 .555-.083.722-.25.167-.166.25-.404.25-.715v-2c0-.31-.083-.55-.25-.716-.167-.166-.407-.25-.722-.25zm-11.566 0c-.314 0-.555.082-.722.248-.167.17-.25.41-.25.72v2c0 .31.083.55.25.72.167.167.408.25.722.25s.555-.083.72-.25c.168-.166.252-.404.252-.715v-2c0-.31-.084-.55-.25-.716-.167-.166-.408-.25-.722-.25zm18.08 2.123c-.094-.107-.194-.204-.3-.294-.106-.09-.207-.18-.3-.27-.093-.09-.17-.184-.233-.285-.062-.1-.093-.216-.093-.348 0-.14.03-.24.085-.3.05-.06.13-.09.23-.09s.18.03.232.085c.056.057.084.155.084.294v.185h.605v-.148c0-.31-.08-.55-.236-.717-.16-.164-.394-.25-.708-.25-.315 0-.55.086-.708.25-.16.17-.237.407-.237.718 0 .182.03.342.093.477.062.138.14.26.232.365.092.105.192.203.3.293.106.09.205.18.3.27.092.09.17.182.232.283.06.1.093.215.093.347 0 .14-.03.238-.09.29-.06.058-.14.086-.242.086-.1 0-.18-.03-.24-.086-.06-.054-.09-.15-.09-.29v-.3h-.6v.262c0 .31.08.55.24.715.162.168.4.25.714.25.316 0 .553-.082.714-.25.16-.165.24-.403.24-.714 0-.183-.03-.343-.09-.478-.066-.136-.14-.256-.236-.36zm-46.21 0c-.094-.107-.194-.204-.3-.294-.11-.09-.208-.18-.3-.27-.094-.09-.17-.184-.234-.285-.062-.1-.093-.216-.093-.348 0-.14.03-.24.085-.3.056-.06.135-.09.235-.09.1 0 .18.03.236.085.05.057.08.155.08.294v.185h.61v-.148c0-.31-.08-.55-.24-.717-.16-.164-.396-.25-.71-.25-.315 0-.55.086-.707.25-.16.17-.24.407-.24.718 0 .182.03.342.093.477.062.138.14.26.233.365.092.105.192.203.3.293.105.09.205.18.3.27.093.09.17.182.232.283.062.1.093.215.093.347 0 .14-.03.238-.09.29-.06.058-.14.086-.24.086-.1 0-.182-.03-.242-.086-.058-.054-.09-.15-.09-.29v-.3H7.69v.262c0 .31.08.55.243.715.16.168.4.25.713.25.314 0 .552-.082.713-.25.16-.165.24-.403.24-.714 0-.183-.03-.343-.095-.478-.063-.136-.14-.256-.233-.36zM52.933 59.3v-.593c0-.2-.03-.372-.09-.513-.06-.14-.172-.242-.335-.304.278-.125.42-.384.42-.78v-.3c0-.296-.076-.518-.226-.665-.15-.146-.39-.22-.724-.22h-.967v3.842h.64v-1.563h.23c.148 0 .255.036.32.11.067.072.1.2.1.378v.602c0 .078.002.143.004.193 0 .05.005.093.01.126.007.034.014.06.02.083.01.022.017.045.024.07h.654c-.03-.073-.05-.144-.06-.216-.005-.07-.01-.154-.01-.25zM42.77 55.926l-.65 3.84h.587l.11-.696h.786l.11.697h.647l-.652-3.84h-.937zm-18.66 3.84h1.746v-.548H24.75v-1.125h.88v-.55h-.88v-1.068h1.106v-.55H24.11v3.842zm-9.948-3.84h-.64v3.84h.64v-3.84zm1.117 3.84h1.74v-.548h-1.1v-1.125h.88v-.55h-.88v-1.068h1.102v-.55H15.28v3.842zm13.81-3.84h-.64v3.84h.64v-3.84zm16.036.55h.67v3.29h.64v-3.29h.67v-.55h-1.98v.55zm4.173 2.407c0 .14-.03.238-.09.294-.06.056-.14.085-.243.085-.1 0-.18-.03-.24-.085-.06-.056-.09-.155-.09-.294V56.81c0-.14.03-.238.09-.295.06-.056.14-.085.24-.085.104 0 .184.03.244.085.06.057.09.155.09.294v2.07zm-11.566 0c0 .14-.03.238-.09.294-.06.056-.14.085-.24.085-.1 0-.184-.03-.24-.085-.06-.056-.094-.155-.094-.294V56.81c0-.14.03-.238.09-.295.06-.056.14-.085.244-.085.1 0 .18.03.24.085.06.057.09.155.09.294v2.07zm-26.216-3c-.316 0-.55.082-.715.248-.16.17-.24.41-.24.72v2c0 .31.08.55.24.72.16.167.4.25.716.25.314 0 .552-.083.712-.25.16-.166.242-.404.242-.715v-.51h-.607v.55c0 .137-.03.235-.09.29-.06.054-.14.08-.24.08-.1 0-.18-.03-.24-.08-.06-.056-.09-.154-.09-.29v-2.08c0-.14.03-.237.09-.294.06-.056.14-.084.24-.084.104 0 .184.03.245.085.06.057.09.155.09.294v.41h.605v-.37c0-.31-.08-.55-.24-.714-.16-.168-.4-.25-.712-.25zm10.586 0c-.315 0-.554.082-.714.248-.16.17-.244.41-.244.72v2c0 .31.08.55.24.72.16.167.4.25.713.25.314 0 .552-.083.713-.25.16-.166.242-.404.242-.715v-.51h-.606v.55c0 .137-.03.235-.09.29-.06.054-.14.08-.244.08-.1 0-.18-.03-.24-.08-.06-.056-.09-.154-.09-.29v-2.08c0-.14.03-.237.09-.294.06-.056.14-.084.24-.084.1 0 .18.03.24.085.06.057.09.155.09.294v.41h.607v-.37c0-.31-.08-.55-.24-.714-.16-.168-.4-.25-.714-.25zM40.4 59.06l-.49-3.14h-.644l.63 3.84h.954l.63-3.84h-.59l-.487 3.132zm2.49-.52l.31-1.94.31 1.94h-.61zm-11.22-.32l-.658-2.297h-.803v3.84h.57v-2.78l.796 2.78h.66v-3.84h-.57v2.298zm-12.14 0l-.66-2.297h-.803v3.84h.576v-2.78l.798 2.78h.66v-3.84h-.57v2.298zm15.277 0l-.658-2.297h-.81v3.84h.576v-2.78l.8 2.78h.66v-3.84h-.57v2.298zm17.48-.974c0 .152-.034.258-.102.317-.068.058-.162.087-.283.087h-.25v-1.18h.31c.112 0 .194.03.247.095.05.062.07.163.07.3v.38zm-2.045-3.34V52.72c0-.404-.064-.748-.19-1.03-.13-.283-.366-.487-.713-.612.59-.25.89-.772.89-1.565v-.605c0-.596-.16-1.04-.48-1.333-.32-.294-.83-.44-1.54-.44h-2.05v7.712h1.36v-3.142h.47c.31 0 .54.074.68.22.14.148.21.402.21.762V53.9c0 .152 0 .28.003.384.004.102.013.186.025.253.012.066.026.12.043.166.018.043.034.09.05.143h1.387c-.06-.15-.103-.294-.12-.437-.02-.15-.026-.31-.026-.51zm-41.03-6.774L7.826 54.85h1.25l.236-1.4h1.67l.236 1.4h1.373l-1.38-7.714H9.217zm6.93 4.815h.645c.685 0 1.195-.16 1.53-.486.333-.32.5-.79.5-1.42v-1c0-.62-.167-1.09-.5-1.42-.335-.32-.845-.48-1.53-.48H14.78v7.714h1.363v-2.9zm15.09 2.462c-.017-.15-.026-.31-.026-.51v-1.18c0-.404-.064-.748-.19-1.03-.13-.283-.366-.487-.713-.612.594-.25.89-.772.89-1.565v-.605c0-.596-.158-1.04-.475-1.333-.32-.294-.835-.44-1.544-.44H27.12v7.712h1.36v-3.143h.473c.313 0 .54.074.68.22.14.148.21.402.21.762v1.21c0 .154.003.283.007.386.005.102.014.186.026.253.012.065.027.12.043.165l.05.143h1.38c-.07-.15-.11-.294-.127-.437zm6.26-7.28h-4.206v1.1h1.423v6.61h1.36v-6.61h1.42v-1.1zm-12.77 6.61H22.37v-2.26h1.87v-1.1h-1.87v-2.15h2.352v-1.1H21.01v7.712h3.712V53.74zm27.97 1.1h3.714v-1.1h-2.35v-2.26h1.868v-1.1h-1.87V48.23h2.352V47.13h-3.713v7.713zM43.67 53v-5.87h-1.29v5.95c0 .28-.065.474-.194.584-.125.11-.296.165-.51.165-.215 0-.386-.06-.515-.17-.124-.11-.19-.307-.19-.585v-5.95h-1.36V53c0 .625.17 1.105.51 1.44.347.336.85.5 1.52.5s1.175-.164 1.517-.5c.34-.333.51-.813.51-1.437zm-34.19-.6l.656-3.9.66 3.9H9.484zm6.66-4.163h.643c.215 0 .38.05.495.154.117.11.174.3.174.58v1.158c0 .28-.057.47-.173.576-.117.103-.28.154-.496.154h-.644V48.24zm32.73 1.553c0 .31-.074.523-.218.64-.145.118-.345.176-.6.176h-.533v-2.368h.65c.24 0 .412.063.523.187.112.125.167.327.167.606v.76zm-19.037 0c0 .31-.072.523-.217.64-.145.118-.344.176-.6.176h-.533v-2.368h.656c.24 0 .41.063.52.187.11.125.17.327.17.606v.76zM6.17 62.256h51.695c.4 0 .727-.206.727-.463v-15.36c0-.255-.326-.463-.727-.463h-15.08c-.567 0-1.027-.46-1.027-1.026 0-.375.2-.698.5-.878 6.32-3.583 10.594-10.376 10.594-18.147 0-11.5-9.35-20.84-20.84-20.84s-20.84 9.34-20.84 20.84c0 7.77 4.277 14.56 10.6 18.14h-.004c.3.18.504.5.504.88 0 .57-.46 1.03-1.027 1.03H6.17c-.403 0-.728.2-.728.46v15.36c0 .25.305.45.69.46h.037zM32.453 36.83v8.14c4.878-.11 9.304-2.048 12.62-5.156l-12.62-2.983zm-7.857-2.898l-5.755 5.753c3.29 3.144 7.7 5.124 12.57 5.278l-6.81-11.03zm7 2.738c-2.466-.096-4.718-1.02-6.49-2.503l6.49 10.506V36.67zm1.388-.034L45 39.476l-5.66-5.658c-1.7 1.573-3.91 2.603-6.355 2.818zm12.83 2.444c3.144-3.288 5.122-7.697 5.277-12.568l-11.03 6.814 5.76 5.754zm-32.86-12.755c.107 4.878 2.045 9.304 5.154 12.62l2.983-12.62h-8.13zm8.332.53l-2.84 12.016 5.658-5.65c-1.572-1.7-2.602-3.91-2.818-6.355zm11.237 5.283c.603-.68 1.204-1.447 1.785-2.29 1.012-.08 1.982-.216 2.88-.4.152.516.274 1.017.36 1.495.332 1.835.123 3.12-.576 3.523-.162.094-.355.142-.574.142-1.007 0-2.42-.942-3.875-2.47zm-4.872 2.468c-.21 0-.41-.048-.57-.14-.7-.405-.9-1.69-.57-3.525.09-.47.21-.97.36-1.49.9.19 1.87.32 2.88.4.58.848 1.18 1.61 1.785 2.29-1.455 1.53-2.866 2.47-3.875 2.47zm12.65-1.792l10.51-6.49H42.8c-.097 2.467-1.02 4.72-2.503 6.49zm-8.27-1.22c-.45-.514-.9-1.08-1.34-1.688.445.02.893.032 1.347.032h.006c.453 0 .9-.01 1.34-.032-.44.608-.892 1.174-1.345 1.687zm-2.87-4.04c-.32-.553-.61-1.108-.88-1.66.27-.55.567-1.105.886-1.656.32-.554.653-1.086.997-1.595.61-.042 1.238-.063 1.875-.063s1.265.02 1.877.063c.344.51.678 1.043.998 1.596.317.55.612 1.1.883 1.65-.27.55-.567 1.103-.885 1.655-.32.553-.652 1.086-.996 1.596-.61.04-1.234.06-1.87.06v.365l-.003-.36c-.635 0-1.262-.02-1.874-.064-.343-.51-.677-1.044-.995-1.596zm6.37.364c.23-.395.45-.79.65-1.186.31.686.58 1.363.8 2.02-.68.136-1.398.243-2.146.32.238-.374.473-.758.7-1.154zm-7 0c.23.395.468.78.707 1.152-.747-.076-1.466-.184-2.144-.32.22-.657.488-1.333.795-2.02.206.396.42.792.648 1.187zm10.638-4.28c1.756.63 2.764 1.453 2.764 2.26 0 .805-1.01 1.628-2.764 2.258-.458.164-.95.31-1.476.437-.29-.872-.66-1.778-1.096-2.696.436-.92.804-1.825 1.093-2.696.523.13 1.017.28 1.474.44zM24.9 28.153c-1.758-.63-2.766-1.453-2.765-2.26 0-.804 1.01-1.627 2.764-2.258.45-.163.95-.31 1.47-.437.29.872.655 1.78 1.092 2.697-.437.917-.804 1.824-1.094 2.696-.523-.12-1.017-.27-1.474-.43zm7.13-3.553c.713 0 1.293.584 1.293 1.298 0 .715-.58 1.294-1.293 1.294-.716 0-1.296-.58-1.296-1.293 0-.72.58-1.3 1.295-1.3zm19.07.87c-.107-4.88-2.046-9.304-5.156-12.62L42.96 25.47h8.138zm-27.343-6.49L13.25 25.47h8c.098-2.466 1.022-4.718 2.505-6.488zm-5.52-6.266C15.093 16 13.117 20.41 12.96 25.28l11.032-6.813-5.756-5.754zm16.59 10.008c.75.08 1.467.186 2.145.323-.22.656-.485 1.332-.794 2.02-.205-.396-.42-.792-.648-1.187-.228-.396-.463-.78-.702-1.154zm-7.742.32c.68-.135 1.397-.243 2.145-.32-.24.374-.475.76-.703 1.155-.228.394-.444.79-.65 1.186-.306-.686-.572-1.362-.793-2.02zm15.682 1.898l2.84-12.015-5.658 5.66c1.57 1.7 2.6 3.91 2.81 6.355zM36.4 17.185c.22 0 .412.048.575.142.698.403.908 1.688.574 3.524-.09.48-.21.98-.36 1.5-.9-.18-1.87-.32-2.88-.4-.58-.84-1.18-1.61-1.79-2.29 1.453-1.53 2.87-2.47 3.872-2.47zm-9.32.14c.163-.094.356-.14.574-.14 1.007 0 2.42.94 3.874 2.47-.603.677-1.203 1.446-1.785 2.29-1.012.08-1.98.215-2.88.4-.15-.518-.272-1.02-.358-1.496-.333-1.84-.123-3.12.575-3.53zm4.947 2.874c.452.51.904 1.07 1.344 1.68-.44-.02-.89-.03-1.35-.03-.45 0-.89.01-1.33.03.44-.61.894-1.176 1.346-1.69zm5.31 14.89c.992-.577 1.32-2.098.926-4.28-.09-.49-.212-1-.364-1.53.53-.13 1.03-.28 1.5-.448 2.09-.75 3.24-1.796 3.24-2.943 0-1.15-1.15-2.194-3.245-2.944-.468-.168-.97-.317-1.503-.448.152-.53.275-1.04.364-1.528.397-2.188.07-3.71-.926-4.283-.275-.16-.59-.24-.94-.24-1.205 0-2.777.993-4.373 2.656-1.594-1.664-3.166-2.658-4.372-2.657-.348 0-.66.08-.94.237-.992.575-1.322 2.095-.926 4.284.085.488.21.998.36 1.524-.53.13-1.036.28-1.503.45-2.09.75-3.244 1.796-3.245 2.94 0 1.15 1.154 2.196 3.246 2.947.467.17.97.32 1.503.45-.152.527-.275 1.038-.364 1.526-.396 2.19-.067 3.71.926 4.282.273.16.59.24.936.24 1.21 0 2.78-.996 4.375-2.658 1.597 1.662 3.17 2.655 4.374 2.655.35 0 .665-.08.94-.24zm-6.27-19.94l-12.015-2.84 5.658 5.66c1.702-1.577 3.912-2.607 6.357-2.82zM45.21 12.1c-3.288-3.142-7.7-5.12-12.57-5.275l6.815 11.03L45.21 12.1zm-6.267 5.52l-6.49-10.5v8.003c2.467.096 4.72 1.02 6.49 2.503zm-7.345-10.8c-4.88.107-9.305 2.047-12.62 5.155l12.62 2.982V6.82zm20.465 7.53c-.146-.245-.22-.367-.37-.605.507-.683.752-1.033 1.225-1.75 0-.002-.003-.003-.005-.006l-1.64 1.11c-.125-.188-.19-.28-.318-.46.92-.66 1.38-.99 2.3-1.647.184.257.274.388.45.652-.46.71-.696 1.055-1.188 1.73l.005.01 1.643-1.03c.135.218.2.327.332.55l-.654.387-1.126.667-.654.387zm-42.14-1.08c.1.06.196.096.29.11.093.017.187.01.283-.016.095-.027.19-.072.29-.136.1-.065.205-.147.318-.246.085-.074.16-.134.226-.18.066-.043.126-.074.182-.09.055-.017.107-.02.157-.01.04.01.09.033.15.068.1.067.15.147.15.243s-.02.183-.07.264c-.05.068-.09.12-.14.154-.05.04-.097.06-.145.07-.048.01-.1 0-.15-.014-.053-.02-.107-.046-.163-.08-.028-.02-.04-.03-.07-.046-.137.22-.205.33-.337.553l.1.06c.227.133.44.168.637.11.2-.06.39-.237.58-.53.18-.28.27-.532.265-.765-.005-.23-.127-.43-.37-.605-.07-.05-.14-.09-.208-.117-.07-.027-.14-.04-.217-.036-.08.004-.16.023-.247.057-.087.035-.185.09-.293.168-.175.125-.263.19-.44.32-.116.09-.213.14-.286.145-.073.005-.146-.016-.22-.062-.035-.02-.067-.047-.095-.08-.03-.03-.048-.065-.058-.107-.01-.04-.008-.09.004-.14.01-.052.04-.112.08-.18.07-.11.154-.17.246-.173.09-.007.193.027.305.1.142-.213.214-.32.36-.526-.025-.02-.038-.03-.064-.047-.11-.076-.22-.122-.325-.135-.11-.01-.216 0-.32.044-.103.04-.203.11-.3.2-.092.094-.183.205-.267.334-.18.278-.26.538-.24.772.016.234.15.422.39.565zm3.28-1.212c-.157-.19-.234-.285-.39-.476.2-.26.3-.388.506-.64.22.11.33.165.54.277.16-.2.24-.29.4-.48-1.054-.518-1.592-.76-2.69-1.208-.21.257-.31.387-.516.653.68.975 1.032 1.45 1.763 2.373.15-.206.223-.308.376-.51zm37.486.223l2.27-1.69c-.17-.22-.25-.32-.41-.54l-2.23 1.75c.15.19.22.29.36.49zm-38.99-2.1c.475.22.712.33 1.18.56-.154.19-.23.284-.38.48-.327-.41-.49-.617-.807-1.034zm37.38.16c.21-.12.32-.18.53-.302.214.236.32.357.53.603-.147.2-.22.297-.368.494.16.19.24.288.396.484.687-.954 1.02-1.444 1.65-2.45-.215-.25-.324-.375-.544-.62-1.07.508-1.595.778-2.62 1.348.17.177.256.267.42.45zm2.1-1.16l.002.007c-.298.433-.45.646-.758 1.07-.158-.185-.237-.276-.398-.455.455-.252.685-.376 1.15-.62zM14.4 10.6l-2.105-1.893c.18-.2.266-.3.446-.49l1.717 1.622c.29-.31.44-.463.74-.758.05.05.09.09.126.13l.075.075.125.13c-.455.444-.68.68-1.104 1.156l-.02.025zm33.514-1.44c.17.16.255.24.42.406L50 7.876c.198.193.296.293.49.5l.338-.33c-.577-.604-.875-.89-1.488-1.44l-.31.35c.206.186.306.28.51.47L47.923 9.15zM14.17 7.443l1.618 1.724c.17-.16.255-.24.428-.394-.63-.705-.946-1.057-1.575-1.763.21-.184.31-.275.52-.453l-.3-.358c-.62.53-.93.81-1.512 1.396.13.133.198.2.33.333.198-.198.298-.295.5-.486zm32.196.37c.295-.378.443-.567.74-.944l.25.2c.098.08.148.16.148.24 0 .083-.033.17-.1.26L47.07 8c-.034.046-.064.09-.09.135-.028.046-.042.093-.045.142.19.16.286.243.473.41l.016-.018c-.02-.06-.013-.13.027-.2.05-.066.12-.16.21-.276.05-.06.1-.114.13-.163.04-.05.08-.094.11-.137.09-.13.138-.25.13-.35-.006-.1-.06-.206-.163-.32l.006-.006c.154.085.3.11.44.073.14-.035.276-.125.4-.27.16-.183.23-.37.194-.56-.035-.19-.156-.37-.363-.54-.367-.3-.554-.45-.933-.733-.675.91-1.014 1.362-1.692 2.27.185.137.276.207.456.35zm1.488-1.9l.234.188c.228.19.256.38.088.58-.098.12-.2.18-.3.18-.104 0-.212-.047-.327-.14l-.2-.16.5-.642zM44.4 5.96c-.02.127-.01.24.025.34.038.1.095.188.174.263.07.076.16.146.26.21s.19.116.29.157c.1.042.21.06.315.052.11-.008.22-.044.33-.11.11-.066.22-.17.322-.316l1.156-1.603c-.206-.15-.31-.223-.52-.368-.447.653-.67.98-1.12 1.63-.04.06-.08.11-.12.155-.043.044-.086.076-.13.098-.047.02-.094.03-.144.027-.05-.003-.105-.024-.16-.062-.057-.037-.096-.078-.12-.123-.027-.045-.037-.093-.034-.143.002-.05.014-.104.04-.16.023-.054.054-.112.093-.172l1.072-1.66c-.213-.137-.32-.205-.536-.336l-1.03 1.68c-.1.16-.16.31-.18.43zm-25.59-.29c-.1-.16-.15-.237-.252-.395-.396.25-.59.38-.977.65l.27.385c.38-.267.57-.395.96-.64zm2.656-.442c-.06-.237-.09-.355-.147-.594.27-.13.4-.194.68-.318.14.198.22.297.36.496.21-.093.32-.14.53-.227-.703-.937-1.07-1.397-1.834-2.296-.28.12-.42.19-.7.32.2 1.16.314 1.74.58 2.88.206-.11.31-.16.52-.27zm21.628.48c.162.088.307.135.436.142.13.007.248-.017.357-.074.107-.056.206-.137.297-.243.092-.106.176-.226.254-.357-.202-.12-.304-.18-.508-.295-.076.14-.145.24-.207.31-.062.08-.12.13-.173.16-.053.03-.103.046-.15.04-.046-.005-.09-.02-.135-.045-.053-.03-.095-.064-.123-.11-.03-.043-.04-.105-.034-.183.008-.08.036-.18.084-.304.048-.123.12-.28.22-.47.095-.18.18-.325.252-.443.075-.12.145-.21.21-.27.066-.065.13-.1.192-.11.062-.01.128 0 .196.04.123.064.186.152.186.26 0 .107-.05.25-.15.43.21.12.316.18.525.304.053-.09.103-.19.15-.298.046-.11.068-.226.065-.346-.004-.118-.045-.24-.124-.362-.08-.12-.22-.235-.416-.342-.21-.11-.392-.166-.55-.165-.157 0-.297.043-.42.126-.124.086-.235.205-.334.358-.1.155-.197.327-.29.52-.098.194-.176.376-.238.547-.062.17-.092.328-.09.473 0 .147.042.278.122.396.08.12.21.228.396.33zM20.927 2.893c.322.412.48.62.793 1.038-.207.1-.31.14-.515.24-.12-.5-.177-.76-.285-1.27h.007zm19.86.193c-.43-.163-.64-.238-1.102-.39l-.146.445c.45.15.65.23 1.08.39l.16-.435zm-4.654.176c.31.056.563.04.766-.056.2-.097.33-.288.4-.58.02-.084.03-.163.03-.236 0-.073-.02-.144-.05-.21-.03-.07-.077-.135-.14-.202-.06-.065-.145-.134-.25-.204-.172-.112-.26-.168-.435-.277-.12-.073-.198-.142-.228-.207-.03-.066-.04-.142-.024-.228.007-.04.02-.08.036-.118.015-.037.04-.07.072-.094.033-.025.075-.042.125-.052.05-.01.11-.01.18.003.123.03.204.08.24.16.04.08.045.19.018.32.238.05.357.07.593.13l.02-.074c.03-.132.03-.25.004-.355-.025-.11-.075-.2-.145-.28-.08-.08-.17-.144-.286-.195-.112-.05-.24-.09-.384-.114-.305-.057-.56-.03-.756.08-.195.11-.313.303-.354.58-.01.115-.01.22.008.31.017.093.056.177.112.254.056.077.13.15.22.214.09.066.197.13.323.196.096.05.174.095.237.137.065.045.11.088.146.13.035.047.057.094.065.14.01.05.005.107-.007.17-.02.115-.074.194-.156.236-.085.043-.17.056-.258.04-.076-.014-.138-.036-.183-.065-.048-.03-.08-.066-.106-.107-.026-.04-.038-.09-.04-.146 0-.055.003-.114.014-.18.01-.032.01-.05.017-.082-.24-.04-.358-.06-.597-.092l-.014.113c-.04.26.004.47.123.628.12.16.337.265.66.324zm-10.677.01c.09-.023.134-.035.223-.06.13-.035.24-.092.31-.173.07-.08.08-.2.04-.36-.02-.08-.048-.15-.085-.19-.036-.05-.078-.08-.126-.11-.048-.02-.1-.035-.16-.03-.06 0-.12.01-.187.03-.103.022-.154.04-.256.064l.09.317.05.186.056.2.033.117zM22.4 2.905c.06.07.133.125.218.163.085.04.18.066.287.08.107.012.23.015.365.01.103-.004.19-.002.263.005.072.006.133.02.183.042.05.022.09.05.123.09.03.038.05.087.07.147.04.114.034.208-.01.283-.048.077-.11.13-.19.16-.07.024-.13.034-.185.03-.053-.002-.1-.015-.14-.04-.04-.024-.075-.06-.104-.107-.03-.047-.055-.1-.08-.163-.01-.03-.016-.047-.03-.078-.214.08-.32.123-.535.21l.045.106c.1.243.24.403.42.483.18.08.41.065.707-.042.28-.1.49-.242.613-.427.13-.185.15-.418.058-.702-.027-.083-.06-.156-.097-.22-.04-.062-.085-.114-.145-.157-.06-.044-.136-.08-.222-.105-.086-.025-.193-.042-.32-.05l-.5-.026c-.136-.004-.232-.026-.29-.068-.06-.05-.102-.11-.133-.19-.014-.04-.024-.08-.03-.12-.004-.04 0-.08.016-.12.014-.04.038-.07.075-.107s.09-.06.15-.086c.114-.04.208-.033.28.02.07.05.13.14.173.27.22-.078.344-.12.575-.19-.008-.03-.013-.05-.023-.078-.04-.13-.1-.233-.175-.31-.078-.077-.168-.13-.27-.16-.107-.032-.226-.04-.346-.03-.118.013-.244.04-.374.09-.28.1-.475.248-.58.438-.108.19-.106.415 0 .675.044.107.096.195.16.267zm10.845-.388c.062.133.154.238.278.315.125.08.294.126.51.145.216.02.39.004.528-.05.14-.052.25-.138.34-.26.088-.12.15-.265.2-.44.044-.176.08-.372.11-.586.03-.21.044-.41.046-.59.003-.18-.025-.34-.084-.48-.06-.14-.154-.25-.29-.34-.134-.09-.325-.14-.57-.17-.242-.02-.44 0-.59.07-.15.06-.262.157-.346.28-.084.126-.14.28-.17.46-.034.18-.055.376-.065.59-.01.216-.01.414 0 .594s.05.34.11.47zM28.87 1.262c.04.084.1.156.174.215.074.06.163.11.267.15.11.04.23.074.37.104.11.03.19.05.268.08.07.027.128.058.173.09.045.035.077.07.098.12.023.046.036.1.04.162.008.12-.023.21-.09.27-.07.06-.15.097-.238.104-.077.006-.14 0-.19-.015-.055-.015-.098-.04-.13-.075-.035-.035-.06-.08-.076-.13-.016-.055-.026-.114-.033-.18 0-.034-.002-.05-.005-.084-.24.02-.36.035-.6.064l.015.116c.03.26.127.45.284.57.158.123.397.168.722.14.312-.025.55-.11.72-.252.17-.146.25-.367.238-.665-.003-.086-.014-.165-.034-.236-.02-.07-.053-.135-.1-.19-.046-.06-.107-.113-.183-.16-.076-.048-.174-.09-.294-.13-.194-.066-.292-.097-.49-.157-.137-.04-.228-.084-.275-.14-.05-.06-.077-.13-.086-.216-.004-.04-.002-.082.006-.122.005-.04.02-.076.045-.11.026-.032.06-.06.107-.082.045-.023.104-.038.175-.044.126-.01.217.02.276.09.06.067.097.17.107.302.24-.018.36-.024.602-.036 0-.03 0-.046-.003-.078-.007-.136-.036-.25-.09-.345-.054-.095-.126-.17-.217-.228-.09-.06-.2-.097-.323-.117-.12-.02-.256-.023-.4-.01-.31.024-.546.12-.706.273-.16.155-.22.373-.186.65.013.117.04.216.084.3zm4.877.227c.014-.19.032-.35.052-.49.02-.13.04-.24.08-.32.032-.08.082-.14.15-.17.06-.036.14-.05.23-.04.092.01.17.035.22.08.052.043.09.11.112.196.02.086.03.196.025.33-.005.13-.018.29-.038.48-.023.19-.046.35-.07.48-.024.133-.056.24-.093.32-.036.08-.084.136-.14.17-.055.033-.13.045-.215.037-.087-.01-.155-.034-.204-.076-.05-.04-.084-.105-.11-.19-.02-.085-.03-.195-.03-.33 0-.133.01-.295.025-.484zm-8.6-.2c.155-.04.276-.047.362-.01.08.035.14.117.17.25.03.13.012.233-.05.31-.064.072-.18.13-.347.175l-.17.046-.2-.713.224-.06zm.808 2.28c.165-.04.298-.1.4-.17.1-.07.178-.15.23-.238.055-.09.087-.187.094-.29 0-.106 0-.213-.03-.32-.04-.188-.12-.326-.24-.415-.128-.09-.27-.125-.448-.105 0-.002-.003-.003-.003-.007.142-.076.237-.174.29-.298.05-.124.06-.26.03-.41-.03-.13-.077-.238-.14-.32-.065-.08-.14-.137-.235-.174-.09-.037-.195-.05-.31-.05-.116.005-.24.02-.367.055-.425.11-.636.167-1.055.293L25 3.834c.38-.117.568-.17.948-.268zm2.86-.55l-.06-.463c-.43.055-.647.087-1.077.162l-.133-.75c.402-.07.604-.1 1.007-.155l-.063-.46c-.42.053-.62.084-1.03.16L27.34.86c.446-.08.67-.11 1.12-.17L28.4.223c-.714.093-1.07.152-1.78.293.228 1.11.34 1.665.565 2.774.65-.13.974-.182 1.628-.266zm2.83-2.55l.02 2.36c.232 0 .347 0 .58.004l.035-2.36c.278.003.416.007.693.02.007-.188.01-.28.02-.47-.825-.033-1.235-.036-2.06-.006l.018.46c.28-.01.42-.01.69-.013z" fill="#fff"/></svg>