<svg viewBox="0 0 128 32" xmlns="http://www.w3.org/2000/svg" fill-rule="evenodd" clip-rule="evenodd" stroke-linejoin="round" stroke-miterlimit="1.414"><path d="M21.993 30.057c-2.526 1.152-5.394 1.646-8.356 1.28-.9-.106-1.76-.286-2.58-.534l-.02-.034L8.96 23l13.03 7.054h.002zM5.94 16.35s3.665 12.22 4.243 14.163c-3.54-1.29-6.428-3.806-8.212-6.976l.02-.024 3.95-7.163zm24.145 5.03l.014-.005c-1.34 3.6-3.96 6.51-7.26 8.264l-.03-.02c-1.09-.63-7.055-4.01-7.055-4.01s12.736-3.766 14.32-4.24zm91.267 4.685c.02.28.094.5.226.66.24.32.7.48 1.34.48.28 0 .54-.032.78-.1.44-.134.68-.372.68-.712 0-.26-.1-.44-.3-.548-.196-.106-.5-.2-.92-.28l-.77-.14c-.5-.1-.86-.2-1.066-.314-.36-.2-.54-.49-.54-.88 0-.42.18-.77.53-1.04.352-.27.854-.4 1.504-.4.592 0 1.1.11 1.52.35.42.24.624.62.624 1.14h-.748c-.036-.25-.12-.444-.24-.58-.234-.244-.628-.37-1.18-.37-.452 0-.774.08-.97.237-.2.16-.296.34-.296.55 0 .234.114.4.346.51.156.07.5.156 1.036.26l.796.148c.386.074.68.17.89.3.36.22.54.536.54.956 0 .52-.23.896-.69 1.12-.46.226-.996.336-1.6.336-.716 0-1.272-.147-1.674-.447-.4-.3-.6-.7-.592-1.215h.74l.034-.01zm-25.504-2.5c-.468-.526-1.19-.8-2.166-.8-.92 0-1.62.296-2.1.88-.36.45-.56 1-.56 1.63 0 .706.22 1.29.66 1.75.486.48 1.154.72 2 .72.912 0 1.612-.276 2.1-.82.42-.468.63-1.052.63-1.754 0-.65-.18-1.18-.548-1.6h-.016zm-32.992 0c-.468-.526-1.19-.8-2.164-.8-.932 0-1.636.296-2.112.88-.372.45-.56 1-.56 1.63 0 .706.22 1.29.654 1.75.486.48 1.154.72 2 .72.912 0 1.612-.276 2.104-.82.4-.468.62-1.052.62-1.754 0-.65-.18-1.18-.56-1.6h.018zm15.408-.666h-.992l-2.44 4.7h.9l.704-1.41h2.54l.676 1.405h.96l-2.348-4.708zm26.156 4.3c-.04-.09-.056-.22-.06-.4l-.028-.64c-.012-.272-.072-.47-.18-.59-.1-.124-.26-.22-.47-.296.24-.108.434-.25.56-.43.14-.18.2-.416.2-.7 0-.54-.24-.91-.74-1.11-.26-.114-.584-.16-.986-.16h-2.436v4.7h.726v-2.02h1.604c.288 0 .5.026.634.084.236.106.36.31.38.62l.04.784c.012.18.024.3.04.365.014.064.034.12.06.16h.888v-.108c-.112-.047-.19-.14-.234-.29l.002.02zm-33.074 0c-.026-.09-.044-.22-.052-.4l-.02-.64c-.016-.272-.076-.47-.18-.59-.108-.124-.26-.22-.474-.296.24-.108.426-.25.56-.43.132-.18.2-.416.2-.7 0-.54-.248-.91-.74-1.11-.26-.114-.594-.16-.994-.16H67.21v4.7h.726v-2.02h1.606c.3 0 .5.026.64.084.24.106.374.31.38.62l.054.784c.01.18.02.3.04.365.012.064.03.12.056.16h.892v-.108c-.11-.047-.188-.14-.232-.29l-.026.02zm37.114-4.32h.736v4.7h-.736v-4.7zm-54.568 2.48c-.14-.12-.354-.22-.64-.31.194-.09.344-.18.448-.28.2-.19.3-.43.3-.73 0-.254-.08-.48-.244-.674-.276-.33-.744-.494-1.4-.494h-2.41v4.706h2.37c.74 0 1.276-.18 1.614-.55.228-.248.34-.52.34-.826 0-.36-.124-.64-.376-.85h-.002zm-9.707-2.48H43.2l-2.44 4.7h.9l.7-1.41h2.54l.68 1.4h.96l-2.353-4.71-.002.012zm43.535 0v.56h-1.93v4.14h-.784v-4.14h-1.932v-.56h4.648l-.002-.007zm-53.43 0h.725v4.14h2.688v.56H34.29v-4.7zm78.924 0h3.888v.58h-3.18v1.42h2.94v.543h-2.94v1.595h3.24v.56h-3.94v-4.7h-.008zm-18.026 3.67c-.294.4-.77.6-1.43.6-.7 0-1.2-.18-1.52-.538-.314-.36-.46-.8-.46-1.32 0-.654.18-1.146.54-1.48.36-.34.82-.5 1.4-.5s1.044.164 1.386.5c.34.34.508.786.508 1.34 0 .52-.148.986-.44 1.39l.016.002zm-32.992 0c-.294.4-.77.6-1.43.6-.694 0-1.196-.18-1.504-.538-.3-.36-.46-.8-.46-1.32 0-.654.18-1.146.54-1.48.36-.34.84-.5 1.4-.5.6 0 1.06.164 1.4.5.34.34.516.786.516 1.34 0 .52-.146.986-.44 1.39l-.022.002zm-8.868.15c-.2.24-.532.34-1 .34h-1.64v-1.66h1.51c.32 0 .56.04.76.1.36.14.54.36.54.7 0 .2-.06.38-.19.52h.02zm23.366-1.04l1.036-2.08 1 2.08h-2.036zm-34.075 0l1.03-2.08 1 2.08h-2.03zm60.8-.8c-.2.12-.46.18-.79.18H101v-1.6h1.72c.245 0 .437.04.58.1.27.12.405.35.405.68 0 .31-.097.526-.29.644v-.01zm-33.06 0c-.2.12-.46.18-.79.18h-1.63v-1.6h1.74c.24 0 .44.04.58.1.27.12.4.35.4.68 0 .31-.09.526-.28.644l-.02-.01zm-19.68.02h1.39c.32 0 .57-.04.75-.11.28-.12.42-.33.42-.64s-.15-.52-.45-.62c-.18-.066-.42-.094-.76-.094h-1.36v1.456l.01.002zM8.78 9.58L1.442 22.502v.004C.26 19.976-.25 17.093.12 14.12c.09-.793.25-1.56.46-2.31 1.16-.16 8.2-2.237 8.2-2.237v.006zm36.99 2.7L40.566 21l-2.392.1-.98-5.98-3.264 6.16-2.385.1-1.972-8.42 2.794-.12.894 5.64 3-5.8 2.82-.12.82 5.72 3.08-5.88 2.8-.12h-.01zm10.188 8.07l-2.66.113.72-3.796-5.1.214-.72 3.8-2.65.11 1.62-8.56 2.65-.1-.65 3.42 5.102-.21.644-3.42 2.646-.11-1.62 8.563.018-.012zm25.28-1.055l-2.69.114-.64-1.79-4.58.19L72 19.68l-2.71.1 6.12-8.76 3.036-.125 2.794 8.38-.002.02zM128 8.843l-5.14 5.566-.6 3.17-2.636.1.6-3.18-3.22-5.22 2.95-.13 1.896 3.58 3.176-3.79 2.974-.1zm-25.412 9.56l-8.804.37 1.62-8.568 2.648-.1-1.364 7.22 6.156-.26-.256 1.356v-.01zm-24.96-2.116l-1.07-3.252-2.22 3.388 3.28-.136h.01zm-56.44-14.66c0-.01-.005-.015-.007-.02 3.56 1.38 6.44 4.004 8.14 7.284-.42.75-4.2 7.15-4.2 7.15L21.2 1.62l-.013.004zm46.924 18.22l-9.62.4 1.62-8.568 9.316-.39-.256 1.35-6.67.28-.38 2.08 6.16-.26-.26 1.35-6.148.253-.46 2.45 6.972-.297-.26 1.354-.014-.012zm46.05-1.926l-9.62.4 1.62-8.58 9.32-.39-.26 1.36-6.66.278-.38 2.066 6.156-.252-.252 1.35-6.154.26-.46 2.445 6.972-.3-.26 1.36-.022.018zm-20.66-6.3l-3.74.14-1.36 7.22-2.646.11 1.36-7.21-3.88.16.254-1.35 10.28-.43-.26 1.36-.008.008zm-92.6-.8c1.3-3.64 3.9-6.6 7.18-8.38l7.52 4.18L.9 10.82zm8.14-8.86C11.58.8 14.46.3 17.44.66c.935.104 1.84.3 2.7.564.22.746 2.11 8.07 2.11 8.07S10.65 2.82 9.05 1.942l-.01.018z"/></svg>