<svg viewBox="0 0 64 64" xmlns="http://www.w3.org/2000/svg" fill-rule="evenodd" clip-rule="evenodd" stroke-linejoin="round" stroke-miterlimit="1.414"><path d="M22.082 32.093c0 1.71.597.777.597 1.3 0 .555-.78 1.157-1.51 1.157-.787 0-.806-.495-1.055-.495-.12 0-.248.126-.467.242-.22.127-.517.253-.974.253-.825 0-1.65-.428-1.65-1.39 0-.69.676-1.544 2.425-1.544.31 0 .447.02.447-.33 0-.32-.01-.99-.47-.99-.595 0-.655 1.05-1.54 1.05-.317 0-.556-.224-.556-.535 0-.82 1.68-1.36 2.623-1.36.567 0 2.117.22 2.117 1.68v.97zm-2.982.854c0 .252.14.524.428.524.377 0 .407-.39.407-.68 0-.213.01-.456-.268-.456-.338 0-.567.31-.567.62zm4.593-.457c0-1.02-.06-1.243-.11-1.292-.13-.125-.666 0-.666-.553 0-.66 2.048-1.165 2.783-1.165.24 0 .28.077.28.29 0 .07.01.204.108.204.14 0 .696-.524 1.51-.524 1.303 0 2 1.273 2 2.41 0 1.3-.945 2.69-2.397 2.69-.46 0-.93-.243-1.02-.243-.14 0-.16.204-.16.31 0 .74.62.505.62.982 0 .54-.9.61-1.29.61-1.33 0-2.374-.48-2.374-.97 0-.44.408-.28.587-.66.1-.205.14-.486.14-1.564v-.535zm2.723-1.602c-.358 0-.477.146-.477 1.913 0 .33.15.44.5.44.613 0 .693-.65.693-1.12 0-.46-.1-1.23-.726-1.23zm5.974 1.292c-.11 0-.268-.03-.268.136 0 .485.646.893 1.113.893.746 0 1.113-.44 1.322-.44.21 0 .388.3.388.48 0 .75-1.402 1.29-2.296 1.29-1.79 0-2.72-1.263-2.72-2.516 0-1.496 1.3-2.584 2.79-2.584 1.69 0 2.435 1.273 2.435 2 0 .643-.298.73-.617.73h-2.15zm.865-1.224c0-.35-.22-.622-.586-.622-.33 0-.6.33-.6.64 0 .35.34.273.59.273.267 0 .585.058.585-.29zm2.823.514c0-.95-.616-.417-.616-1.01 0-.767 2.326-.98 2.415-.98.378 0 .388.097.428.427.01.116 0 .34.17.34.237 0 .386-.767 1.24-.767.667 0 1.104.485 1.104 1.127 0 .65-.57 1.165-1.23 1.165-.648 0-.827-.553-1.085-.553-.28 0-.23.65-.23.82 0 .29.03.7.08 1.07.06.43.815.16.815.75 0 .61-.874.66-1.97.66-.455 0-1.807.02-1.807-.65 0-.41.456-.41.566-.75.08-.25.11-.8.11-1.07v-.588zm8.24.846c0 .65.28.806.547.806.308 0 .487-.224.666-.224.2 0 .34.272.34.448 0 .64-1.13 1.204-2.13 1.204-.506 0-1.78-.214-1.78-1.758V30.79c0-.174 0-.242-.05-.27-.05-.03-.16-.01-.386-.01-.26 0-.387.01-.437-.04-.07-.067-.05-.165-.05-.388 0-.136-.03-.243.09-.32l2.266-1.41c.23-.136.22-.106.517-.106.4 0 .42-.04.42.408 0 .3-.02.602.03.72.027.076.097.076.355.076h.697c.427 0 .427.03.427.466 0 .554-.07.593-.46.593h-.687c-.35 0-.37.01-.37.36v1.44zm4.613 0c0 .388.03.99.57.99.72 0 .62-.913.62-1.38 0-.32.01-.737-.04-1.048-.08-.485-.564-.32-.564-.728 0-.573 1.998-.67 2.376-.67.358 0 .507.204.507.543 0 .31-.02.612-.02.923v1.952c0 .584.547.31.547.777 0 .66-1.76.846-2.305.846-.767 0-.26-.58-.657-.58-.11 0-.27.15-.51.29-.24.15-.556.29-.993.29-1.89 0-1.73-1.45-1.73-2.91 0-1.482-.685-.83-.685-1.472 0-.62 2.507-.65 2.587-.65.28 0 .31.126.31.37v2.467zm4.87-.846c0-.95-.616-.417-.616-1.01 0-.767 2.326-.98 2.416-.98.377 0 .387.097.427.427.01.116 0 .34.17.34.24 0 .388-.767 1.243-.767.665 0 1.102.485 1.102 1.127 0 .65-.57 1.165-1.225 1.165-.646 0-.825-.553-1.083-.553-.28 0-.23.65-.23.82 0 .29.03.7.08 1.07.06.43.815.16.815.75 0 .61-.878.66-1.97.66-.46 0-1.81.02-1.81-.65 0-.41.454-.41.563-.75.08-.25.11-.8.11-1.07v-.588zm7.436.71c-.11 0-.27-.03-.27.136 0 .485.647.893 1.114.893.744 0 1.112-.44 1.32-.44.21 0 .388.3.388.48 0 .75-1.402 1.29-2.296 1.29-1.79 0-2.712-1.263-2.712-2.516 0-1.496 1.302-2.584 2.793-2.584 1.69 0 2.436 1.273 2.436 2 0 .643-.298.73-.617.73h-2.16zm.864-1.224c0-.35-.218-.622-.586-.622-.33 0-.596.33-.596.64 0 .35.338.273.596.273.27 0 .585.058.585-.29zm-59.2-5.04c1.35-1.1 3.07-1.758 4.944-1.758 1.875 0 3.596.66 4.945 1.757H2.9zm.613 6.224H0c.02 1.057.247 2.064.644 2.98h4.188c-.786-.758-1.286-1.81-1.323-2.98zM.808 28.528h4.436c.724-.54 1.622-.863 2.596-.863s1.872.322 2.595.863h4.436c-.45-.91-1.07-1.718-1.82-2.386H2.63c-.75.668-1.37 1.477-1.82 2.386zm-.11.228c-.39.862-.63 1.808-.687 2.803h3.52c.12-1.12.65-2.1 1.44-2.81H.7zm7.253 7.576c-.03 0-.07.003-.11.003l-.11-.003H1.31c1.404 2.115 3.807 3.51 6.536 3.51 2.73 0 5.13-1.395 6.536-3.51H7.95zm7.73-4.192h-3.51c-.03 1.17-.53 2.222-1.32 2.98h4.19c.4-.916.63-1.923.648-2.98zm-4.96-3.384c.79.703 1.328 1.69 1.44 2.803h3.517c-.056-1-.297-1.95-.69-2.81H10.72z" fill="#fff" fill-rule="nonzero"/></svg>