<svg viewBox="0 0 128 32" xmlns="http://www.w3.org/2000/svg" fill-rule="evenodd" clip-rule="evenodd" stroke-linejoin="round" stroke-miterlimit="1.414"><path d="M44.157 15.868c0 3.42 1.194 1.553 1.194 2.6 0 1.11-1.56 2.313-3.02 2.313-1.57 0-1.61-.99-2.103-.99-.24 0-.496.258-.934.49-.44.254-1.034.506-1.95.506-1.65 0-3.3-.855-3.3-2.78 0-1.38 1.355-3.086 4.85-3.086.62 0 .896.04.896-.66 0-.64-.02-1.98-.94-1.98-1.19 0-1.31 2.1-3.08 2.1-.634 0-1.11-.45-1.11-1.07 0-1.64 3.357-2.72 5.243-2.72 1.132 0 4.23.44 4.23 3.36v1.94l.028-.017zm-5.963 1.707c0 .504.28 1.048.856 1.048.754 0 .814-.78.814-1.36 0-.426.02-.91-.536-.91-.676 0-1.134.618-1.134 1.238v-.01zm9.185-.914c0-2.033-.12-2.48-.22-2.58-.26-.25-1.338 0-1.338-1.103 0-1.32 4.095-2.33 5.565-2.33.48 0 .56.154.56.58 0 .14.02.408.216.408.28 0 1.392-1.047 3.02-1.047 2.605 0 4 2.546 4 4.82 0 2.6-1.89 5.38-4.794 5.38-.92 0-1.86-.487-2.04-.487-.28 0-.32.408-.32.62 0 1.48 1.24 1.01 1.24 1.964 0 1.078-1.8 1.218-2.58 1.218-2.66 0-4.748-.96-4.748-1.94 0-.88.816-.56 1.174-1.32.2-.41.28-.97.28-3.125v-1.07l-.02.02zm5.44-3.2c-.717 0-.955.29-.955 3.828 0 .66.3.88 1 .88 1.225 0 1.385-1.3 1.385-2.24 0-.92-.2-2.46-1.45-2.46l.02-.005zm11.945 2.587c-.22 0-.537-.06-.537.272 0 .97 1.292 1.784 2.226 1.784 1.49 0 2.224-.88 2.642-.88.42 0 .774.6.774.96 0 1.5-2.804 2.58-4.592 2.58-3.58 0-5.44-2.526-5.44-5.03 0-2.993 2.6-5.17 5.58-5.17 3.38 0 4.87 2.547 4.87 4 0 1.287-.597 1.46-1.235 1.46h-4.3l.008.023zm1.73-2.448c0-.7-.44-1.245-1.173-1.245-.66 0-1.2.66-1.2 1.28 0 .7.68.547 1.18.547.534 0 1.17.116 1.17-.58l.022-.002zm5.644 1.027c0-1.9-1.23-.834-1.23-2.02 0-1.534 4.65-1.96 4.83-1.96.753 0 .773.194.853.854.02.23 0 .68.34.68.474 0 .772-1.534 2.48-1.534 1.333 0 2.207.97 2.207 2.254 0 1.3-1.14 2.33-2.46 2.33-1.293 0-1.65-1.108-2.17-1.108-.56 0-.46 1.3-.46 1.64 0 .58.06 1.4.16 2.14.12.86 1.63.32 1.63 1.5 0 1.22-1.745 1.32-3.94 1.32-.906 0-3.61.04-3.61-1.3 0-.82.91-.82 1.13-1.5.16-.5.22-1.6.22-2.14v-1.175l.02.018zm16.477 1.692c0 1.3.56 1.61 1.094 1.61.617 0 .975-.448 1.333-.448.4 0 .68.544.68.896 0 1.28-2.26 2.408-4.26 2.408-1.01 0-3.56-.427-3.56-3.515v-4.003c0-.348 0-.484-.1-.54-.1-.06-.32-.02-.77-.02-.52 0-.775.02-.875-.08-.14-.134-.1-.33-.1-.776 0-.273-.06-.487.18-.64l4.53-2.82c.46-.27.44-.21 1.034-.21.8 0 .84-.08.84.814 0 .6-.04 1.204.06 1.44.054.152.194.152.71.152h1.394c.854 0 .854.06.854.932 0 1.108-.14 1.186-.92 1.186h-1.37c-.7 0-.74.02-.74.72v2.88l-.01.014zm9.225 0c0 .774.06 1.98 1.14 1.98 1.44 0 1.24-1.827 1.24-2.76 0-.64.02-1.475-.08-2.097-.16-.97-1.128-.64-1.128-1.456 0-1.146 3.994-1.34 4.75-1.34.716 0 1.014.408 1.014 1.086 0 .62-.04 1.222-.04 1.844v3.903c0 1.167 1.093.62 1.093 1.553 0 1.32-3.52 1.695-4.61 1.695-1.532 0-.52-1.16-1.312-1.16-.22 0-.54.3-1.02.58-.48.3-1.11.58-1.985.58-3.78 0-3.46-2.9-3.46-5.82 0-2.963-1.37-1.66-1.37-2.943 0-1.24 5.013-1.3 5.173-1.3.56 0 .62.253.62.74v4.935l-.027-.02zm9.738-1.693c0-1.9-1.23-.834-1.23-2.02 0-1.534 4.65-1.96 4.83-1.96.756 0 .776.194.856.854.02.23 0 .68.34.68.48 0 .774-1.534 2.484-1.534 1.33 0 2.204.97 2.204 2.254 0 1.3-1.14 2.33-2.45 2.33-1.292 0-1.65-1.108-2.165-1.108-.56 0-.46 1.3-.46 1.64 0 .58.06 1.4.16 2.14.12.86 1.63.32 1.63 1.5 0 1.22-1.758 1.32-3.94 1.32-.92 0-3.62.04-3.62-1.3 0-.82.91-.82 1.124-1.5.16-.5.22-1.6.22-2.14v-1.175l.015.018zm14.87 1.42c-.22 0-.54-.06-.54.272 0 .97 1.296 1.784 2.23 1.784 1.49 0 2.224-.88 2.64-.88.42 0 .776.6.776.96 0 1.5-2.803 2.58-4.59 2.58-3.58 0-5.424-2.526-5.424-5.03 0-2.993 2.604-5.17 5.586-5.17 3.378 0 4.87 2.547 4.87 4 0 1.287-.596 1.46-1.234 1.46h-4.32l.01.023zm1.73-2.448c0-.7-.435-1.245-1.17-1.245-.66 0-1.19.66-1.19 1.28 0 .7.674.547 1.19.547.54 0 1.17.116 1.17-.58V13.6zM5.8 3.517C8.5 1.313 11.94 0 15.69 0c3.75 0 7.19 1.32 9.888 3.514H5.8v.002zM7.027 15.96H0c.04 2.113.494 4.127 1.288 5.96h8.375C8.09 20.404 7.09 18.3 7.017 15.96h.01zm-5.41-7.22h8.87c1.447-1.08 3.243-1.727 5.19-1.727 1.948 0 3.744.644 5.19 1.726h8.87c-.9-1.82-2.14-3.44-3.64-4.778H5.26C3.76 5.302 2.52 6.92 1.62 8.74h-.004zm-.22.455C.617 10.918.137 12.81.02 14.8h7.04c.24-2.24 1.3-4.2 2.878-5.62H1.4l-.004.015zM15.9 24.345c-.06 0-.14.005-.22.005l-.22-.006H2.62c2.807 4.23 7.612 7.02 13.07 7.02 5.46 0 10.258-2.79 13.07-7.02H15.898h.002zm15.457-8.383h-7.02c-.06 2.34-1.06 4.443-2.638 5.96h8.372c.8-1.833 1.26-3.847 1.296-5.96h-.016zM21.44 9.195c1.578 1.405 2.654 3.38 2.878 5.605h7.033c-.11-2-.59-3.9-1.38-5.62h-8.53l.005.015z" fill-rule="nonzero"/></svg>