<svg viewBox="0 0 111 128" xmlns="http://www.w3.org/2000/svg" fill-rule="evenodd" clip-rule="evenodd" stroke-linejoin="round" stroke-miterlimit="1.414"><path d="M108.53 88.144c1.36 0 2.47 1.126 2.47 2.512V125.5c0 1.38-1.12 2.5-2.48 2.5H3.25c-1.36 0-2.46-1.13-2.46-2.516V90.658c0-1.388 1.11-2.514 2.47-2.514h26.044c-11.157-8.2-18.414-21.415-18.414-36.29.008-24.843 20.203-45.026 45.025-45.026 24.823 0 45.026 20.187 45.026 45.025 0 14.862-7.24 28.084-18.4 36.285h26.01l-.01.006zm-18.68 23.642c-.627 0-1.11.164-1.443.496-.332.34-.5.82-.5 1.44v4c0 .62.168 1.1.5 1.44.334.335.816.5 1.444.5.63 0 1.11-.165 1.45-.5.338-.33.5-.807.5-1.43v-4c0-.62-.162-1.1-.5-1.432-.33-.332-.81-.5-1.44-.5v-.014zm-23.133 0c-.628 0-1.11.164-1.445.496-.334.34-.5.82-.5 1.44v4c0 .62.166 1.1.5 1.44.334.335.817.5 1.445.5.628 0 1.11-.165 1.44-.5.336-.33.504-.807.504-1.43v-4c0-.62-.16-1.1-.5-1.432-.33-.332-.81-.5-1.44-.5v-.014zm36.164 4.247c-.18-.214-.38-.408-.6-.588-.21-.18-.41-.36-.6-.54-.18-.18-.34-.368-.46-.57-.12-.2-.182-.432-.182-.696 0-.28.06-.48.17-.61.1-.12.26-.18.46-.18s.36.06.464.17c.11.114.168.31.168.59v.37h1.21v-.298c0-.62-.16-1.1-.47-1.435-.32-.328-.79-.5-1.416-.5-.63 0-1.1.172-1.416.5-.32.34-.474.815-.474 1.437 0 .363.06.683.185.953.123.278.28.52.463.73.183.21.384.408.6.588.21.18.41.36.6.54.184.18.34.363.464.565.12.2.186.43.186.693 0 .28-.06.476-.18.58-.12.116-.28.172-.487.172-.2 0-.36-.06-.48-.173-.12-.108-.18-.3-.18-.58v-.6h-1.2v.524c0 .62.16 1.1.48 1.43.323.337.8.5 1.43.5.63 0 1.104-.163 1.426-.5.32-.33.48-.805.48-1.427 0-.367-.06-.687-.18-.957-.13-.27-.28-.51-.47-.72l.015.02zm-92.43 0c-.18-.214-.38-.408-.6-.588-.22-.18-.41-.36-.6-.54-.18-.18-.34-.368-.46-.57-.123-.2-.185-.432-.185-.696 0-.28.06-.48.17-.61.11-.12.27-.18.47-.18.2 0 .36.06.47.17.1.114.16.31.16.59v.37h1.22v-.298c0-.62-.16-1.1-.48-1.435-.32-.328-.79-.5-1.42-.5-.63 0-1.1.172-1.413.5-.32.34-.48.815-.48 1.437 0 .363.06.683.186.953.126.278.28.52.468.73.185.21.385.408.6.588.21.18.41.36.6.54.187.18.34.363.465.565.125.2.187.43.187.693 0 .28-.06.476-.18.58-.12.116-.28.172-.48.172-.2 0-.363-.06-.483-.173-.117-.108-.18-.3-.18-.58v-.6H7.27v.524c0 .62.16 1.1.486 1.43.32.337.8.5 1.426.5.628 0 1.104-.163 1.426-.5.32-.33.48-.805.48-1.427 0-.367-.06-.687-.19-.957-.126-.27-.28-.51-.466-.72l.018.02zm87.32 2.588v-1.18c0-.4-.06-.74-.18-1.022-.12-.28-.34-.484-.67-.61.56-.25.84-.766.84-1.56v-.6c0-.59-.15-1.035-.45-1.33-.3-.29-.78-.44-1.45-.44h-1.93v7.686h1.28v-3.126h.46c.297 0 .51.07.64.22.135.142.2.4.2.754v1.205c0 .157.005.287.01.387 0 .1.01.186.02.25.014.07.03.12.04.167.02.046.034.09.05.14h1.306c-.06-.144-.1-.286-.12-.43-.01-.14-.02-.307-.02-.5h-.02zm-20.33-6.74l-1.3 7.68h1.18l.22-1.39h1.57l.22 1.394h1.295l-1.305-7.68h-1.88l-.002-.003zm-37.32 7.68h3.49v-1.094H41.4v-2.25h1.76v-1.1H41.4v-2.137h2.212v-1.1h-3.494v7.685-.002zm-19.9-7.68h-1.28v7.68h1.28v-7.68zm2.238 7.68h3.48v-1.094h-2.2v-2.25h1.76v-1.1h-1.76v-2.137h2.206v-1.1H22.46v7.685l-.002-.002zm27.625-7.68H48.8v7.68h1.28v-7.68zm32.075 1.1h1.34v6.58h1.28v-6.58h1.34v-1.1h-3.96v1.1zm8.346 4.816c0 .28-.06.476-.18.588-.12.113-.28.17-.486.17-.2 0-.36-.06-.48-.17-.12-.11-.18-.31-.18-.587v-4.148c0-.28.06-.476.18-.59.12-.113.28-.17.48-.17.207 0 .367.06.487.17.12.114.18.31.18.59v4.14l-.002.006zm-23.134 0c0 .28-.06.476-.18.588-.12.113-.28.17-.48.17-.2 0-.368-.06-.48-.17-.12-.11-.188-.31-.188-.587v-4.148c0-.28.06-.476.18-.59.12-.113.28-.17.487-.17.2 0 .36.06.48.17.12.114.18.31.18.59v4.146zm-52.438-6c-.633 0-1.1.163-1.43.495-.32.34-.48.82-.48 1.44v4c0 .62.16 1.1.48 1.44.32.335.8.5 1.43.5.628 0 1.104-.165 1.424-.5.32-.33.485-.807.485-1.43v-1.02h-1.22v1.1c0 .275-.06.47-.18.58-.12.11-.28.16-.48.16-.2 0-.36-.06-.48-.16-.12-.11-.18-.307-.18-.58v-4.16c0-.28.06-.473.18-.587.12-.112.28-.17.48-.17.21 0 .37.06.49.173.12.112.18.31.18.586v.82h1.21v-.74c0-.62-.16-1.1-.48-1.43-.32-.334-.8-.5-1.423-.5l-.012-.02zm21.173 0c-.63 0-1.11.163-1.43.495-.32.34-.49.82-.49 1.44v4c0 .62.16 1.1.48 1.44.32.335.8.5 1.428.5.63 0 1.105-.165 1.427-.5.32-.33.484-.807.484-1.43v-1.02h-1.21v1.1c0 .275-.06.47-.18.58-.12.11-.28.16-.49.16-.2 0-.36-.06-.48-.16-.12-.11-.18-.307-.18-.58v-4.16c0-.28.06-.473.18-.587.12-.112.28-.17.48-.17.2 0 .36.06.48.173.12.112.18.31.18.586v.82H38v-.74c0-.62-.16-1.1-.48-1.43-.32-.334-.8-.5-1.427-.5l.013-.02zm36.6 6.354l-.98-6.28h-1.29l1.26 7.68H73.6l1.26-7.68h-1.18l-.975 6.264-.006.016zm4.98-1.04l.62-3.88.62 3.88h-1.24zm-22.443-.64l-1.32-4.595h-1.604v7.68h1.14v-5.56l1.592 5.56h1.32v-7.68h-1.14v4.595l.01-.003zm-24.286 0l-1.32-4.595H28.03v7.68h1.152v-5.56l1.595 5.56h1.32v-7.68h-1.14v4.595l-.002-.003zm30.558 0l-1.314-4.6h-1.62v7.68h1.15v-5.56l1.6 5.56h1.32v-7.68h-1.14v4.595l.004-.002zm34.965-1.948c0 .304-.07.516-.207.634-.135.116-.323.174-.565.174h-.5v-2.36h.62c.223 0 .387.06.493.19.1.125.14.327.14.6v.76l.018.003zm-4.09-6.68v-2.373c0-.81-.13-1.5-.38-2.06-.26-.57-.736-.977-1.43-1.227 1.18-.5 1.78-1.543 1.78-3.13v-1.21c0-1.19-.32-2.08-.96-2.666-.64-.586-1.66-.88-3.08-.88h-4.1v15.428h2.72v-6.284h.94c.62 0 1.08.15 1.36.44.28.297.42.806.42 1.526v2.427c0 .305 0 .56.003.77.008.203.026.37.05.505.024.13.052.24.086.33.035.087.07.18.1.287h2.774c-.12-.3-.206-.588-.24-.874-.04-.3-.052-.62-.052-1.02l.002.014zm-82.07-13.55L7.54 109.72h2.5l.472-2.8h3.34l.473 2.8h2.746l-2.76-15.43h-3.99l-.01-.008zm13.86 9.63h1.29c1.37 0 2.39-.32 3.06-.972.664-.64 1-1.58 1-2.84v-2c0-1.24-.336-2.18-1-2.84-.67-.64-1.69-.96-3.06-.96h-4.02v15.43h2.73v-5.8l-.005-.017zm30.18 4.925c-.032-.3-.05-.62-.05-1.02v-2.36c0-.806-.127-1.495-.38-2.06-.26-.565-.73-.973-1.425-1.223 1.19-.5 1.78-1.543 1.78-3.13v-1.21c0-1.19-.315-2.08-.95-2.666-.64-.59-1.67-.88-3.087-.88h-4.11v15.425h2.72v-6.287h.943c.628 0 1.08.15 1.36.44.28.297.42.806.42 1.526v2.42c0 .307.008.565.016.77.01.205.027.373.05.507.025.13.055.24.087.33l.1.286h2.76c-.14-.3-.22-.587-.254-.873l.02.008zm12.52-14.56h-8.41v2.2h2.848v13.22h2.72V96.48h2.84v-2.202h.005zM41.34 107.5h-4.705v-4.52h3.74v-2.2h-3.74v-4.3h4.705v-2.203h-7.425v15.426h7.425V107.5zm55.946 2.2h7.43v-2.2h-4.702v-4.52h3.737v-2.2h-3.74v-4.3h4.71v-2.2h-7.43v15.427-.008zm-18.046-3.68V94.278h-2.58v11.902c0 .56-.13.948-.388 1.168-.25.22-.592.33-1.02.33-.43 0-.773-.12-1.03-.34-.25-.22-.38-.614-.38-1.17V94.266h-2.72v11.754c0 1.25.34 2.21 1.02 2.88.693.672 1.7 1 3.04 1s2.35-.328 3.034-1c.68-.666 1.02-1.626 1.02-2.874l.004-.006zm-68.388-1.2l1.312-7.8 1.32 7.8H10.85zm13.322-8.327h1.286c.43 0 .76.1.99.308.234.22.348.6.348 1.16v2.32c0 .56-.114.94-.346 1.15-.234.21-.56.31-.992.31h-1.29V96.5l.002-.007zM89.64 99.6c0 .62-.15 1.045-.437 1.28-.29.235-.69.35-1.2.35h-1.066v-4.735h1.3c.48 0 .824.126 1.046.374.224.25.334.65.334 1.21v1.52h.022zm-38.08 0c0 .62-.143 1.045-.433 1.28-.29.235-.688.35-1.2.35H48.86v-4.735h1.313c.48 0 .82.126 1.04.374.22.25.34.65.34 1.21v1.52h.008zM4.23 124.533h103.4c.8 0 1.455-.412 1.455-.926V92.884c0-.51-.652-.926-1.454-.926H77.47c-1.134 0-2.054-.92-2.054-2.052 0-.75.4-1.396 1-1.756 12.64-7.167 21.19-20.755 21.19-36.3 0-23-18.702-41.683-41.685-41.683S14.24 28.85 14.24 51.85c0 15.543 8.555 29.125 21.202 36.286h-.01c.6.36 1.007 1 1.007 1.76 0 1.14-.92 2.06-2.058 2.06H4.23c-.807 0-1.457.4-1.457.92V123.6c0 .5.61.9 1.38.92h.074l.002.014zM56.8 73.676v16.282c9.76-.22 18.612-4.097 25.244-10.313L56.8 73.678v-.002zM41.087 67.88L29.574 79.386c6.58 6.288 15.402 10.25 25.143 10.557L41.097 67.88h-.01zm14 5.476c-4.93-.192-9.436-2.04-12.98-5.007l12.98 21.01V73.35zm2.778-.068l24.034 5.68L70.58 67.65c-3.4 3.15-7.823 5.21-12.713 5.64h-.002zm25.663 4.888C89.815 71.6 93.772 62.78 94.082 53.038L72.02 66.668l11.52 11.508h-.013zM17.8 52.664c.213 9.757 4.09 18.61 10.308 25.242l5.967-25.242H17.8zm16.665 1.06l-5.68 24.034 11.317-11.3c-3.145-3.4-5.205-7.822-5.637-12.712v-.022zM56.94 64.29c1.208-1.36 2.41-2.893 3.572-4.58 2.024-.16 3.964-.432 5.76-.8.305 1.032.55 2.035.72 2.99.665 3.67.247 6.24-1.15 7.047-.326.188-.712.284-1.15.284-2.014 0-4.84-1.88-7.75-4.94zm-9.744 4.937c-.42 0-.82-.096-1.14-.28-1.4-.81-1.8-3.38-1.14-7.05.18-.94.42-1.94.72-2.98 1.8.38 3.74.64 5.76.8 1.16 1.696 2.36 3.22 3.57 4.58-2.91 3.06-5.73 4.94-7.75 4.94l-.02-.01zM72.5 65.643l21.022-12.98H77.498c-.194 4.933-2.04 9.44-5.007 12.98h.01zm-16.543-2.44c-.9-1.028-1.8-2.16-2.68-3.377.89.04 1.786.064 2.694.064h.02c.908 0 1.8-.02 2.68-.064-.88 1.217-1.782 2.35-2.69 3.375l-.014.01zm-5.74-8.08c-.64-1.107-1.22-2.217-1.76-3.322.54-1.1 1.134-2.21 1.772-3.31.64-1.11 1.3-2.17 1.99-3.19 1.22-.08 2.47-.12 3.75-.12 1.27 0 2.53.04 3.75.128.69 1.02 1.355 2.086 1.995 3.19.634 1.1 1.224 2.2 1.766 3.3-.54 1.103-1.134 2.21-1.77 3.313-.64 1.106-1.304 2.17-1.992 3.19-1.22.08-2.468.12-3.74.12v.73l-.007-.72c-1.27 0-2.522-.04-3.746-.13-.686-1.02-1.354-2.09-1.99-3.19l-.026.018zm12.74.727c.46-.79.9-1.58 1.3-2.372.62 1.372 1.16 2.726 1.602 4.04-1.37.272-2.8.486-4.3.64.473-.748.943-1.516 1.4-2.308h-.01zm-14 0c.46.79.936 1.56 1.414 2.304-1.49-.152-2.93-.368-4.28-.64.44-1.314.977-2.666 1.59-4.04.41.792.84 1.584 1.298 2.374l-.012.002zm21.278-8.56c3.512 1.26 5.53 2.905 5.53 4.52 0 1.61-2.022 3.256-5.53 4.516-.916.328-1.9.62-2.952.874-.58-1.744-1.32-3.556-2.193-5.393.873-1.84 1.61-3.65 2.187-5.392 1.046.26 2.034.56 2.948.88l.01-.006zm-28.54 9.03c-3.518-1.26-5.534-2.906-5.532-4.52 0-1.61 2.02-3.255 5.53-4.517.9-.326 1.9-.62 2.94-.874.58 1.74 1.31 3.56 2.183 5.39-.874 1.83-1.608 3.65-2.188 5.39-1.046-.24-2.034-.54-2.948-.86l.014-.02zm14.26-7.107c1.427 0 2.587 1.168 2.587 2.596 0 1.43-1.16 2.58-2.587 2.58-1.432 0-2.592-1.16-2.592-2.588 0-1.44 1.16-2.6 2.59-2.6l.002.002zm38.145 1.74c-.214-9.76-4.093-18.61-10.313-25.243l-5.97 25.243H94.1zm-54.693-12.98L18.39 50.953h16.003c.196-4.933 2.044-9.438 5.01-12.978l.004-.004zm-11.04-12.535c-6.29 6.573-10.242 15.394-10.556 25.135l22.07-13.627-11.51-11.51v.002zm33.183 20.02c1.5.16 2.934.37 4.29.645-.44 1.312-.97 2.664-1.588 4.04-.41-.792-.84-1.584-1.296-2.374-.456-.8-.926-1.56-1.404-2.31l-.002-.01zm-15.486.64c1.36-.27 2.795-.487 4.29-.64-.48.747-.95 1.52-1.405 2.31-.46.787-.89 1.58-1.31 2.37-.61-1.37-1.145-2.723-1.587-4.04h.002zm31.368 3.795l5.68-24.033-11.317 11.322c3.14 3.4 5.2 7.82 5.62 12.71h.017zM64.696 34.38c.44 0 .824.097 1.15.285 1.397.807 1.817 3.377 1.15 7.05-.18.96-.42 1.96-.72 3-1.802-.36-3.742-.64-5.762-.8-1.16-1.68-2.36-3.22-3.58-4.58 2.906-3.06 5.74-4.942 7.744-4.942l.018-.012zm-18.642.28c.326-.187.712-.28 1.148-.28 2.015 0 4.84 1.882 7.75 4.942-1.207 1.354-2.407 2.892-3.57 4.58-2.025.16-3.962.43-5.762.8-.3-1.035-.544-2.04-.716-2.992-.666-3.68-.246-6.24 1.15-7.06v.01zm9.895 5.75c.9 1.02 1.8 2.14 2.68 3.36-.88-.04-1.78-.06-2.7-.06-.9 0-1.78.02-2.66.06.88-1.22 1.786-2.352 2.69-3.38l-.02.02zm10.62 29.784c1.98-1.155 2.64-4.197 1.85-8.56-.18-.982-.43-2.002-.73-3.062 1.06-.26 2.06-.56 3-.896 4.18-1.5 6.48-3.592 6.48-5.887 0-2.3-2.3-4.39-6.49-5.89-.94-.34-1.94-.64-3.01-.9.303-1.06.55-2.08.727-3.06.794-4.377.14-7.42-1.85-8.568-.55-.32-1.18-.48-1.88-.48-2.41 0-5.556 1.987-8.75 5.313-3.187-3.328-6.33-5.317-8.744-5.315-.697 0-1.32.16-1.88.473-1.985 1.15-2.645 4.19-1.853 8.57.17.975.42 1.996.72 3.048-1.06.26-2.07.56-3.005.9-4.18 1.5-6.49 3.595-6.49 5.88 0 2.304 2.306 4.396 6.49 5.898.935.34 1.94.64 3.007.9-.305 1.054-.55 2.076-.73 3.053-.79 4.38-.133 7.42 1.853 8.565.547.32 1.18.48 1.873.48 2.42 0 5.56-1.993 8.75-5.317 3.198 3.325 6.344 5.31 8.75 5.31.7 0 1.33-.16 1.88-.48l.025.02zM54.03 30.31l-24.034-5.682L41.314 35.95c3.404-3.155 7.825-5.215 12.715-5.64zm28.288-6.1c-6.576-6.284-15.4-10.24-25.142-10.55l13.63 22.062L82.32 24.21zM69.783 35.252L56.8 14.25v16.007c4.936.192 9.443 2.04 12.983 5.007v-.012zM55.09 13.65c-9.76.213-18.61 4.094-25.242 10.31l25.243 5.965V13.65zm40.936 15.06c-.292-.49-.44-.733-.74-1.21 1.014-1.365 1.504-2.066 2.45-3.5 0-.004-.006-.006-.01-.012l-3.28 2.22c-.25-.376-.38-.56-.636-.92 1.84-1.32 2.76-1.98 4.6-3.294.368.514.548.776.9 1.304-.92 1.42-1.392 2.11-2.376 3.46l.01.02 3.286-2.06c.27.436.4.654.665 1.1l-1.31.775-2.25 1.334-1.31.774v.01zm-84.29-2.16c.2.12.392.193.58.22.186.035.374.02.566-.03.19-.055.38-.145.58-.273.2-.13.41-.294.637-.493.17-.148.32-.268.45-.36.13-.086.25-.148.36-.18.11-.034.21-.04.31-.02.08.02.18.066.3.136.2.134.3.294.3.486 0 .193-.04.367-.14.53-.1.135-.18.24-.28.307-.1.08-.195.12-.29.14-.097.02-.2 0-.3-.028-.107-.04-.215-.092-.327-.16-.056-.04-.08-.06-.14-.092-.274.44-.41.66-.674 1.106l.2.12c.453.26.88.33 1.273.22.4-.12.78-.48 1.16-1.06.36-.56.54-1.07.53-1.54-.01-.46-.255-.86-.74-1.21-.14-.1-.28-.18-.417-.235-.14-.054-.28-.08-.435-.07-.16.01-.32.045-.494.113-.174.07-.37.18-.586.336-.35.25-.526.38-.88.64-.233.18-.43.28-.573.29-.148.01-.294-.03-.44-.123-.07-.04-.136-.093-.19-.16-.06-.06-.098-.13-.118-.213-.02-.08-.02-.18.004-.28.02-.105.08-.225.16-.36.14-.22.307-.34.49-.347.18-.014.386.054.61.2.284-.426.43-.64.72-1.052-.05-.04-.075-.06-.127-.093-.22-.15-.44-.242-.65-.27-.22-.02-.434 0-.64.09-.208.08-.408.22-.6.4-.186.188-.368.41-.536.668-.36.553-.52 1.073-.48 1.54.03.47.3.847.78 1.13l.025-.03zm6.56-2.424c-.313-.38-.467-.57-.78-.952.4-.52.6-.776 1.013-1.28.44.22.66.33 1.08.554.32-.4.48-.58.8-.96-2.11-1.036-3.19-1.52-5.38-2.416-.42.514-.62.774-1.04 1.306 1.36 1.95 2.062 2.9 3.524 4.746.3-.412.446-.616.752-1.02l.02.022zm74.982.446l4.54-3.38c-.34-.44-.5-.64-.82-1.08l-4.46 3.5c.3.38.44.58.72.98l.02-.02zm-77.99-4.2c.95.44 1.425.66 2.36 1.12-.307.38-.46.568-.76.96-.653-.82-.98-1.234-1.613-2.068l.014-.012zm74.77.32c.42-.24.64-.36 1.06-.604.427.472.64.714 1.06 1.206-.295.4-.44.594-.737.988.32.38.49.576.8.968 1.377-1.908 2.04-2.888 3.3-4.9-.43-.5-.65-.75-1.09-1.24-2.14 1.016-3.19 1.556-5.24 2.696.34.354.51.534.84.9l.01-.014zm4.2-2.32l.004.014c-.596.866-.9 1.292-1.516 2.14-.316-.37-.474-.552-.796-.91.91-.504 1.37-.752 2.3-1.24l.008-.004zM20.69 21.21l-4.21-3.786c.36-.4.533-.6.893-.98l3.434 3.244c.58-.62.88-.926 1.48-1.516.1.1.18.18.253.26l.15.15.25.26c-.91.888-1.36 1.36-2.21 2.312l-.04.05v.006zm67.037-2.88c.34.32.51.48.84.812l3.333-3.38c.396.385.592.585.98 1l.676-.66c-1.154-1.21-1.75-1.78-2.977-2.88l-.62.7c.41.37.61.56 1.02.94l-3.24 3.448-.02.02zM20.23 14.895l3.238 3.45c.34-.32.51-.48.856-.79-1.26-1.41-1.892-2.114-3.15-3.526.42-.37.62-.55 1.04-.91l-.6-.72c-1.24 1.06-1.86 1.62-3.025 2.79.26.265.39.4.66.665.39-.396.59-.59 1-.97h-.02zm64.4.74c.59-.756.887-1.134 1.48-1.888l.5.4c.197.16.297.32.297.48 0 .166-.066.34-.2.52l-.668.862c-.07.09-.13.18-.18.27-.06.09-.09.18-.09.28.38.32.57.48.94.82l.03-.04c-.04-.12-.028-.26.052-.4.1-.13.24-.32.42-.55.1-.12.2-.23.26-.33.08-.1.16-.19.22-.274.18-.26.276-.5.26-.7-.01-.2-.12-.41-.326-.64l.012-.01c.307.17.6.22.88.145.28-.07.55-.25.8-.54.32-.366.46-.74.387-1.12-.07-.38-.31-.74-.724-1.08-.735-.6-1.11-.9-1.867-1.466-1.35 1.82-2.028 2.72-3.384 4.54.37.27.55.41.91.7l-.02.01zm2.977-3.8l.468.376c.456.38.512.76.176 1.16-.19.24-.4.36-.6.36-.2 0-.42-.09-.65-.28l-.4-.32 1-1.28.01-.01zm-6.91.094c-.04.25-.02.48.05.68.077.2.19.37.35.52.14.15.32.29.52.42s.38.23.58.31c.2.083.42.12.63.103.22-.016.44-.088.66-.22.22-.13.44-.34.644-.63l2.32-3.206c-.41-.3-.62-.446-1.04-.736-.89 1.306-1.34 1.96-2.24 3.26-.08.12-.16.22-.24.31-.084.088-.17.15-.26.196-.092.04-.19.06-.29.053-.1-.008-.21-.05-.32-.126-.11-.076-.19-.158-.24-.248-.05-.09-.07-.187-.064-.287.004-.1.028-.21.08-.32.046-.11.108-.227.186-.347l2.145-3.32c-.426-.275-.64-.41-1.073-.673l-2.06 3.36c-.2.32-.32.62-.36.86l.036.025zm-51.185-.58c-.2-.32-.3-.48-.504-.79-.792.5-1.18.76-1.954 1.3l.54.77c.76-.54 1.14-.79 1.92-1.28h-.002zm5.313-.89c-.12-.478-.18-.71-.294-1.19.54-.26.8-.39 1.36-.64.28.397.44.595.72.993.42-.187.64-.28 1.06-.455-1.4-1.87-2.14-2.79-3.66-4.59-.56.24-.84.38-1.4.64.4 2.32.63 3.48 1.16 5.76.415-.22.62-.32 1.04-.54l.025.02zm43.26.96c.325.172.615.27.873.28.26.013.496-.035.714-.15.214-.11.412-.273.594-.485.184-.21.352-.45.508-.714-.404-.24-.608-.36-1.016-.59-.152.28-.29.48-.414.62-.124.16-.24.26-.346.32-.106.06-.206.093-.3.08-.092-.01-.18-.04-.27-.09-.106-.06-.19-.127-.246-.22-.06-.085-.08-.21-.068-.365.016-.16.072-.36.168-.606.096-.246.24-.56.44-.94.19-.36.36-.65.504-.887.15-.24.29-.42.42-.54.132-.13.26-.2.384-.22.124-.02.256 0 .392.08.246.127.372.303.372.52 0 .213-.1.5-.3.86.42.24.632.36 1.05.61.106-.18.206-.383.3-.6.092-.22.136-.45.13-.69-.008-.237-.09-.48-.248-.725-.16-.24-.44-.47-.832-.685-.42-.22-.784-.33-1.1-.33-.314 0-.594.085-.84.25-.248.174-.47.41-.668.718-.2.31-.394.653-.58 1.04-.196.387-.352.75-.476 1.094-.124.34-.184.66-.18.95 0 .295.084.557.244.793.16.24.42.457.792.66v-.037zM33.747 5.79c.644.824.96 1.24 1.586 2.076-.414.2-.62.28-1.03.48-.24-1-.354-1.52-.57-2.54h.014V5.79zm39.724.386c-.86-.327-1.28-.477-2.2-.78l-.29.89c.9.3 1.3.46 2.16.78l.32-.87.02-.02zm-9.3.35c.62.113 1.127.08 1.53-.11.4-.195.66-.577.8-1.16.04-.17.06-.327.06-.473 0-.146-.04-.288-.1-.42-.06-.14-.15-.27-.28-.404-.12-.13-.29-.27-.5-.41-.342-.227-.52-.34-.87-.557-.24-.147-.394-.285-.454-.415s-.08-.284-.05-.456c.016-.08.04-.16.074-.236.03-.075.08-.14.143-.19.068-.05.15-.083.25-.103.1-.02.22-.02.36.004.248.06.41.16.48.32.08.16.09.38.038.64.48.1.717.14 1.19.26l.04-.15c.06-.264.06-.5.007-.71-.05-.22-.15-.4-.29-.56-.16-.16-.34-.288-.57-.39-.226-.1-.48-.18-.77-.228-.61-.115-1.12-.06-1.51.16-.39.22-.628.605-.71 1.16-.02.23-.02.44.016.62.034.185.11.353.224.507.112.156.26.3.44.43s.394.26.646.39c.19.1.347.19.473.276.13.09.22.175.292.26.07.093.113.187.13.28.02.1.01.213-.015.34-.04.23-.15.387-.313.47-.17.087-.34.113-.517.08-.15-.027-.274-.07-.364-.13-.097-.06-.16-.13-.21-.213-.055-.08-.08-.18-.08-.29 0-.11.003-.227.025-.36.02-.063.02-.1.035-.163-.48-.08-.714-.12-1.192-.183l-.027.227c-.08.52.01.94.247 1.255.24.32.674.53 1.32.65l.008-.022zm-21.355.02c.18-.045.268-.07.446-.12.26-.07.48-.183.62-.345.14-.16.16-.4.08-.72-.04-.16-.096-.3-.17-.38-.072-.1-.156-.16-.252-.22-.095-.04-.2-.07-.32-.06-.12 0-.24.02-.373.06-.206.05-.31.08-.512.13l.18.64.1.37.113.4.063.233.023.018zM36.7 5.813c.12.14.265.25.435.326.17.08.36.13.574.16.21.02.46.03.73.02.202-.01.38-.01.522.01.142.01.264.04.364.08.1.043.18.1.245.18.06.075.1.173.14.293.083.23.07.415-.02.565-.094.154-.22.26-.38.32-.14.05-.26.07-.37.06-.104-.004-.2-.03-.28-.08-.08-.048-.15-.12-.206-.214-.06-.094-.11-.2-.16-.326-.02-.06-.032-.092-.06-.154-.428.16-.64.246-1.07.42l.09.212c.2.486.48.806.84.966.36.16.82.13 1.414-.086.56-.2.98-.484 1.224-.854.26-.37.3-.835.116-1.403-.05-.164-.12-.31-.19-.44-.08-.12-.17-.226-.29-.31-.12-.09-.27-.16-.444-.21-.172-.05-.387-.086-.64-.1l-1-.05c-.273-.01-.465-.05-.58-.138-.12-.1-.205-.22-.267-.38-.03-.08-.05-.16-.06-.24-.01-.08 0-.16.03-.24.026-.08.074-.14.15-.212.072-.07.18-.12.3-.17.226-.08.414-.065.56.04.14.1.26.28.344.54.44-.155.69-.24 1.15-.38-.014-.06-.024-.1-.044-.155-.08-.26-.2-.465-.35-.62-.158-.153-.338-.26-.54-.32-.216-.063-.454-.08-.694-.06-.236.027-.488.08-.748.18-.56.2-.95.497-1.16.877-.22.38-.215.83 0 1.35.085.214.19.39.32.534l-.007.015zm21.692-.776c.122.266.306.476.554.63.25.16.588.252 1.02.29.432.04.78.01 1.056-.1.28-.104.5-.276.68-.52.176-.24.3-.53.4-.88.088-.35.16-.744.22-1.17.06-.42.088-.82.09-1.18.008-.36-.05-.68-.166-.96-.12-.28-.308-.5-.58-.68-.268-.18-.65-.28-1.14-.34-.484-.04-.88 0-1.18.14-.3.12-.524.312-.692.56-.166.25-.28.56-.34.92-.066.36-.11.75-.13 1.18-.02.43-.02.826 0 1.186s.1.68.22.94l-.012-.016zm-8.75-2.51c.08.17.2.312.345.43.148.12.326.22.534.3.22.08.46.15.74.21.22.06.38.1.537.16.14.052.256.114.346.18.09.07.155.14.197.24.045.09.07.2.08.322.015.24-.047.42-.18.54-.14.12-.3.19-.477.202-.153.013-.28 0-.38-.03-.11-.03-.195-.08-.26-.15-.07-.07-.12-.16-.15-.26-.033-.11-.053-.227-.067-.36 0-.067-.002-.1-.01-.167-.48.04-.72.07-1.2.13l.03.232c.06.52.256.9.57 1.14.316.245.794.335 1.444.28.624-.05 1.1-.22 1.44-.505.34-.295.5-.737.476-1.33-.01-.175-.03-.33-.07-.475-.04-.14-.107-.27-.2-.38-.09-.12-.215-.225-.367-.32s-.35-.18-.59-.26c-.388-.13-.584-.193-.98-.313-.274-.08-.456-.168-.55-.28-.1-.12-.154-.26-.17-.43-.01-.08-.006-.164.01-.244.01-.08.04-.15.09-.22.052-.063.12-.12.214-.163.09-.048.21-.078.35-.09.25-.02.436.04.55.18.12.134.198.34.218.604.48-.036.72-.05 1.204-.072 0-.06 0-.09-.004-.155-.014-.27-.072-.5-.18-.69-.108-.19-.252-.34-.434-.453-.18-.12-.4-.195-.644-.235-.24-.04-.512-.044-.8-.02-.62.05-1.092.24-1.412.548-.32.31-.44.745-.37 1.3.026.233.08.43.17.6l-.046.003zm9.752.454c.03-.38.065-.7.105-.98.04-.26.08-.48.16-.64.06-.16.16-.28.3-.34.12-.07.28-.1.46-.08.18.02.34.07.44.16.1.09.18.22.22.398.04.172.06.392.05.66-.01.26-.034.58-.074.96-.047.38-.093.7-.14.96-.05.266-.113.48-.187.64-.073.16-.17.272-.28.34-.11.066-.26.09-.43.074-.175-.02-.31-.067-.41-.15-.1-.08-.17-.21-.22-.38-.04-.17-.06-.39-.06-.66 0-.267.02-.59.05-.97l.01.015zm-17.2-.4c.31-.08.55-.09.723-.02.16.07.28.24.34.5s.024.47-.1.62c-.128.15-.36.26-.694.35l-.34.098-.4-1.426.45-.12.02.005zm1.615 4.56c.33-.08.592-.2.8-.34.2-.14.352-.3.46-.47.11-.18.17-.375.184-.58 0-.213 0-.427-.06-.64-.08-.377-.24-.653-.48-.83-.256-.18-.54-.25-.896-.21 0-.005-.01-.007-.01-.015.286-.15.476-.346.58-.594.1-.25.12-.52.06-.82-.06-.26-.15-.477-.28-.64-.13-.16-.28-.275-.47-.35-.18-.073-.39-.1-.62-.1-.23.01-.48.04-.73.11-.85.22-1.275.335-2.11.587l1.655 5.428c.76-.233 1.136-.34 1.896-.535l.016.003zm5.72-1.1l-.12-.92c-.86.11-1.298.173-2.158.323l-.265-1.5c.802-.14 1.206-.2 2.013-.31l-.126-.92c-.84.106-1.24.17-2.06.32l-.24-1.306c.893-.16 1.34-.22 2.242-.34L48.7.45c-1.43.187-2.14.305-3.56.587.454 2.22.68 3.33 1.13 5.547 1.3-.26 1.946-.364 3.255-.532l.006-.01zm5.66-5.1l.04 4.72c.46 0 .69 0 1.16.01l.07-4.72c.553.01.83.018 1.384.04.014-.372.02-.56.04-.94-1.65-.063-2.47-.07-4.12-.01l.035.92c.56-.02.84-.02 1.38-.023l.01.01z"/></svg>