<svg viewBox="0 0 129 32" xmlns="http://www.w3.org/2000/svg" fill-rule="evenodd" clip-rule="evenodd" stroke-linejoin="round" stroke-miterlimit="1.414"><path d="M127.586 11.9h-5.854l-.31 1.72h5.44l-.4 2.207h-5.42l-.38 2.132h6.02l-.44 2.44h-9.52l1.94-10.816H128l-.414 2.31zm-13.128 2.25c-.36.435-.78.787-1.3 1.06-.34.17-.76.313-1.3.425.38.14.66.28.82.4.112.1.266.28.456.58.192.3.32.52.368.68l1.128 3.134h-3.94l-1.276-3.31c-.16-.428-.324-.708-.484-.83-.22-.17-.49-.25-.81-.25h-.308l-.78 4.38h-3.5l1.94-10.814h5.814c1.08 0 1.886.09 2.424.266.54.18.94.504 1.2.984s.33 1.06.206 1.75c-.106.6-.332 1.12-.68 1.556l.022-.02zm-3.08-2.093c-.2-.186-.62-.28-1.26-.28h-1.52l-.4 2.2h1.466c.16 0 .474-.052.95-.15.24-.044.448-.156.626-.34.18-.18.292-.388.334-.626.06-.34 0-.61-.2-.8h.004zm-11 5.79c-.32.566-.72 1.064-1.24 1.488-.52.44-1.04.74-1.56.9-.72.24-1.56.36-2.52.36-.55 0-1.14-.04-1.78-.1-.64-.068-1.152-.22-1.55-.44-.396-.22-.74-.52-1.03-.926-.29-.4-.46-.82-.52-1.25-.092-.69-.09-1.3 0-1.83l1.16-6.445h3.48l-1.18 6.6c-.106.59-.02 1.052.266 1.38.284.336.728.5 1.334.5.6 0 1.1-.16 1.5-.49.4-.328.66-.79.76-1.39l1.188-6.6h3.48l-1.154 6.446c-.12.64-.332 1.24-.64 1.813l.006-.028zm-15.6-5.584l-1.46 8.144h-3.5l1.46-8.144h-3.56l.48-2.67h10.6l-.48 2.67h-3.56.02zm-9.84 1.886c-.352.43-.78.78-1.3 1.06-.33.17-.764.31-1.3.42.388.14.668.28.834.4.112.1.264.28.46.58.19.3.312.52.366.68l1.128 3.13H71.2l-1.274-3.305c-.16-.424-.32-.704-.48-.83-.224-.168-.494-.25-.812-.25h-.31l-.786 4.385h-3.5l1.94-10.814h5.8c1.08 0 1.884.09 2.42.268.536.18.94.505 1.2.985s.334 1.06.21 1.75c-.106.6-.334 1.12-.68 1.553l.01-.02zm-3.08-2.1c-.2-.188-.62-.28-1.254-.28H69.07l-.394 2.2h1.472c.16 0 .474-.05.948-.15.24-.046.452-.158.63-.34.18-.18.294-.39.336-.628.06-.348-.008-.616-.204-.804zm-15.21-.158l-.308 1.72h5.43l-.392 2.206h-5.42l-.38 2.132h6.02l-.44 2.446h-9.52l1.94-10.815h9.352l-.414 2.31h-5.868zm-7.92 3.572c-.8.613-1.9.92-3.31.92h-1.91l-.72 4.013h-3.5l1.94-10.814h5.8c1.26 0 2.16.287 2.69.863.53.575.698 1.393.508 2.455-.196 1.09-.693 1.944-1.487 2.56h-.02zm-2.13-3.33c-.19-.235-.613-.353-1.265-.353h-.984l-.44 2.4h.85c.67 0 1.16-.12 1.48-.34.303-.22.5-.51.56-.86.06-.34-.01-.63-.2-.86l-.01.017zm-13.25 6.48H29.4l-.873 1.78h-3.56l6.18-10.81h3.806L37.26 20.4H33.6l-.247-1.783h-.004zm-.86-6.227l-1.933 3.89h2.48l-.55-3.89h.004zM21.47 1.087l-.01-.02c3.603 1.41 6.52 4.082 8.25 7.422-.44.76-4.27 7.28-4.27 7.28L21.46 1.08h.01zm-12.32.347c2.57-1.18 5.49-1.68 8.5-1.32.95.12 1.867.32 2.747.6.22.77 2.134 8.22 2.134 8.22s-11.75-6.6-13.36-7.5h-.02zm-8.24 9.02c1.313-3.69 3.947-6.7 7.28-8.523v.01c1.21.68 7.627 4.26 7.627 4.26S5.095 9.26.91 10.46zM8.9 9.19S2.816 19.972 1.466 22.352c-1.2-2.576-1.72-5.51-1.344-8.54.1-.808.26-1.592.48-2.35 1.18-.168 8.313-2.28 8.313-2.28L8.9 9.19zm-2.87 6.9l4.3 14.43C6.735 29.205 3.81 26.64 2 23.413l.015-.026 4.012-7.296h.002zM22.3 30.05c-2.56 1.175-5.46 1.68-8.46 1.307-.9-.12-1.767-.3-2.605-.56 0-.012-.004-.02-.008-.034-.52-1.91-2.128-7.91-2.128-7.91s11.38 6.192 13.21 7.18l-.01.016zm8.22-8.837s.007 0 .01-.006c-1.35 3.664-4.01 6.628-7.36 8.414l-.02-.01c-1.1-.64-7.147-4.08-7.147-4.08s12.914-3.83 14.52-4.31l-.002.003zm4.26 1.526h.735v4.24h2.728v.56h-3.46v-4.8l-.002-.01zm9.033 0h1.006l2.38 4.8h-.98l-.69-1.44h-2.58l-.716 1.44h-.908l2.463-4.8h.013zm1.48 2.84l-1.012-2.12-1.05 2.12h2.07zm5.36-2.83H53.1c.666 0 1.14.17 1.42.5.166.192.25.422.25.68 0 .3-.1.55-.304.74-.104.1-.26.2-.452.28.288.1.5.2.648.32.256.21.38.5.38.862 0 .314-.112.594-.34.84-.34.376-.88.56-1.634.56h-2.4v-4.8l-.012.01zm2.16 2.02c.327 0 .58-.04.76-.116.287-.12.43-.334.43-.644s-.155-.52-.457-.63c-.172-.06-.426-.092-.76-.092h-1.38v1.486h1.4l.008-.006zm.26 2.21c.47 0 .81-.12 1.01-.35.13-.145.19-.32.19-.527 0-.348-.18-.584-.55-.71-.2-.07-.46-.1-.78-.1h-1.54v1.683h1.665l.006.002zm10.673-3.558c.37.42.556.966.556 1.626 0 .72-.212 1.314-.636 1.78-.5.56-1.212.84-2.134.84-.86 0-1.532-.244-2.026-.73-.44-.47-.66-1.064-.66-1.78 0-.65.192-1.206.568-1.666.48-.592 1.2-.89 2.14-.89.992 0 1.72.276 2.2.818l-.008.004zm-.668 3.054c.3-.41.448-.88.448-1.414 0-.564-.18-1.02-.52-1.36-.34-.344-.816-.52-1.414-.52-.572 0-1.046.174-1.412.516-.366.34-.55.84-.55 1.505 0 .53.16.98.472 1.343.31.36.82.544 1.52.544.67 0 1.152-.2 1.452-.61l.004-.004zm5.088-3.74h2.466c.412 0 .748.054 1.012.16.5.204.748.584.748 1.134 0 .285-.066.52-.2.7-.134.18-.32.327-.564.44.22.073.38.173.48.3.112.12.172.32.18.6l.03.64c.006.18.02.32.05.41.04.155.12.25.234.297v.108h-.9c-.028-.04-.048-.1-.06-.16-.02-.064-.03-.19-.04-.38l-.04-.8c-.02-.31-.15-.52-.39-.628-.14-.06-.354-.087-.646-.087h-1.628v2.054h-.734v-4.8l.002.012zm2.384 2.2c.34 0 .608-.06.8-.18.2-.124.296-.344.296-.66 0-.344-.134-.576-.408-.7-.14-.064-.34-.1-.58-.1h-1.75v1.64h1.66-.018zm18.408-2.194v.574h-1.96v4.22H86.2v-4.22h-1.96v-.58h4.712l.006.01zm12.732 0h2.466c.408 0 .74.056 1.006.16.5.206.75.586.75 1.136 0 .285-.064.52-.2.703-.132.18-.32.324-.56.44.21.07.37.17.48.3.104.12.164.32.18.6l.02.64c.01.18.028.32.054.406.04.156.12.252.24.3v.104h-.91c-.024-.04-.044-.1-.06-.16-.012-.07-.026-.195-.036-.38l-.048-.8c-.016-.315-.144-.52-.384-.63-.134-.06-.348-.095-.64-.095h-1.628v2.06h-.74v-4.8l.01.015zm2.388 2.198c.336 0 .6-.06.796-.18.2-.12.3-.34.3-.66 0-.34-.14-.57-.412-.7-.148-.06-.34-.1-.588-.1h-1.746v1.64h1.66-.01zm5.91-2.19h.74v4.78h-.74v-4.8.02zm4.816 0h3.94v.59h-3.22v1.46h2.98v.555h-2.98v1.62h3.28v.57h-4v-4.8.012zm8.252 3.25c.02.27.1.49.24.66.252.32.706.48 1.36.48.286 0 .55-.04.79-.107.46-.14.694-.38.694-.72 0-.267-.1-.453-.294-.56-.196-.113-.508-.207-.932-.287l-.78-.14c-.504-.096-.864-.2-1.08-.32-.36-.2-.544-.496-.544-.896 0-.427.18-.78.54-1.06.36-.273.866-.41 1.524-.41.6 0 1.12.12 1.54.37.424.24.64.627.64 1.16h-.76c-.04-.255-.12-.453-.248-.59-.234-.26-.634-.38-1.2-.38-.452 0-.78.08-.98.24-.196.16-.296.347-.296.56 0 .235.12.407.35.515.156.07.506.16 1.048.26l.808.152c.388.072.686.174.9.3.364.22.546.55.546.976 0 .53-.226.91-.692 1.14-.466.227-1.008.34-1.626.34-.72 0-1.29-.15-1.7-.455-.404-.3-.604-.71-.6-1.23h.76l-.008.003zM78.36 22.73h1.004l2.38 4.794h-.98l-.68-1.436h-2.58l-.714 1.42h-.912l2.466-4.79.016.02zm1.474 2.83l-1.01-2.12-1.056 2.12h2.066zm17.36-2.144c.37.42.556.96.556 1.62 0 .717-.21 1.313-.634 1.785-.5.54-1.208.82-2.132.82-.86 0-1.54-.24-2.034-.732-.44-.47-.66-1.06-.66-1.78 0-.65.19-1.205.566-1.665.484-.59 1.2-.886 2.14-.886.99 0 1.72.272 2.196.814l.002.024zm-.67 3.05c.3-.4.444-.88.444-1.4 0-.56-.17-1.02-.514-1.36-.344-.34-.816-.52-1.412-.52-.58 0-1.06.175-1.42.52-.364.34-.548.84-.548 1.505 0 .534.16.98.472 1.34.314.36.82.55 1.526.55.67 0 1.154-.204 1.452-.614v-.02z" fill-rule="nonzero"/></svg>