<svg viewBox="0 0 128 42" xmlns="http://www.w3.org/2000/svg" fill-rule="evenodd" clip-rule="evenodd" stroke-linejoin="round" stroke-miterlimit="1.414"><path d="M50.012 11.8l2.856 14.224H50.6l-.5-3.008h-2.87l-.5 3.008h-2.266L47.32 11.8h2.692zm-.288 8.864l-1.04-6.394h-.034l-1.04 6.394h2.114zM60.456 11.8c.554 0 1.02.12 1.4.368.376.246.68.568.912.966.232.4.4.854.5 1.366.1.51.15 1.032.15 1.56 0 .732-.1 1.372-.26 1.916-.176.546-.4.99-.7 1.334-.3.346-.66.604-1.08.776-.42.174-.9.26-1.412.26h-1.16v5.68h-2.18V11.8h3.83zm-.666 6.434c.434 0 .784-.172 1.05-.516.268-.36.4-.9.4-1.62 0-.72-.114-1.26-.346-1.64-.232-.38-.62-.56-1.164-.56h-.908v4.32h.98l-.012.016zm13.754-4.084H69.69v3.348h3.628v2.34h-3.64v3.82h4v2.346h-6.18v-14.22h6.024v2.356l.022.01zm8.28-2.35c.91 0 1.614.3 2.12.906.5.606.754 1.524.754 2.76 0 .956-.16 1.736-.44 2.34-.3.604-.76.994-1.36 1.166v.04c.54.106.94.34 1.18.696.248.36.404.94.464 1.734.02.28.034.56.044.88l.03 1.052c.02.76.046 1.336.086 1.734.06.4.192.672.392.816v.12h-2.36c-.11-.2-.18-.426-.21-.684-.03-.26-.052-.526-.06-.806l-.06-2.728c-.02-.56-.128-.99-.32-1.31-.19-.32-.512-.48-.966-.48h-1.166v6.02H77.8v-14.24h4.02l.004-.016zm-.934 6.216c.52 0 .926-.164 1.208-.488.28-.326.42-.874.42-1.644 0-1.314-.5-1.972-1.52-1.972h-1.036v4.104h.928zm14.388-3.866h-2.36v11.874h-2.18V14.15h-2.36V11.8h6.88v2.35h.02zm6 7.57c0 .36 0 .688.04.986.028.3.1.56.2.78.1.22.22.39.384.516.166.14.374.2.626.2.26 0 .474-.06.634-.18.164-.124.292-.3.388-.52.1-.22.16-.48.2-.78.032-.3.05-.62.05-.98v-9.92h2.174v9.92c0 .9-.096 1.65-.288 2.24-.196.592-.454 1.06-.776 1.404-.32.348-.692.58-1.106.7-.41.12-.84.18-1.28.18-.446 0-.874-.06-1.286-.16-.414-.108-.78-.32-1.1-.648-.32-.326-.58-.788-.774-1.386-.19-.6-.286-1.38-.286-2.332v-9.92h2.18v9.92l.02-.02zm13.12-9.92c.9 0 1.606.3 2.12.906.5.606.76 1.524.76 2.76 0 .956-.156 1.736-.44 2.34-.3.604-.74.994-1.36 1.166v.04c.54.106.94.34 1.2.696.24.36.4.94.46 1.734.02.28.04.56.04.88l.03 1.052c.02.76.052 1.336.092 1.734.06.4.194.672.396.816v.12h-2.36c-.11-.2-.18-.426-.21-.684-.04-.26-.06-.526-.06-.806L115 21.82c-.02-.56-.12-.992-.312-1.312-.194-.32-.516-.48-.97-.48h-1.17v6.02h-2.168v-14.24h4.02l-.002-.008zm-.94 6.216c.52 0 .924-.164 1.206-.488.28-.326.424-.874.424-1.644 0-1.314-.506-1.972-1.514-1.972h-1.028v4.104h.912zm14.372-3.866h-3.85v3.348h3.628v2.34h-3.628v3.82H128v2.346h-6.18v-14.22h6.03v2.356l-.02.01zm-82.82 19.2c0 .16.008.304.026.434.02.132.06.24.11.33.05.09.12.16.212.21.088.052.2.076.336.076.16 0 .3-.068.43-.204.13-.14.194-.35.194-.636 0-.152-.02-.286-.048-.396-.034-.112-.086-.212-.16-.3-.074-.092-.168-.174-.286-.246-.12-.08-.26-.16-.44-.24-.228-.1-.428-.22-.6-.34-.168-.12-.308-.26-.42-.428-.114-.16-.2-.35-.25-.56-.054-.216-.08-.46-.08-.74 0-.68.14-1.18.428-1.512.284-.332.674-.5 1.174-.5.23 0 .446.036.64.1.2.07.366.18.508.328.146.146.256.34.336.57.08.228.12.508.12.832v.196h-1c0-.326-.04-.576-.136-.752-.084-.174-.23-.26-.432-.26-.116 0-.214.02-.29.064-.08.044-.14.104-.188.18-.048.07-.08.156-.096.252-.02.094-.028.194-.028.294 0 .21.032.388.1.53.068.14.212.276.44.396l.8.46c.2.12.36.236.486.36.126.126.226.26.3.4.076.146.128.3.16.476.026.17.04.36.04.57 0 .72-.16 1.246-.474 1.574-.316.326-.76.49-1.32.49-.594 0-1.016-.172-1.27-.512s-.38-.82-.38-1.46v-.28H45v.204l.01.04zm6.2-3.68c-.092-.224-.254-.336-.492-.336-.128 0-.24.046-.32.14-.086.092-.152.24-.2.448-.048.22-.08.48-.1.82-.02.34-.03.76-.03 1.24 0 .52.01.936.04 1.254.024.32.064.568.12.74.06.18.126.296.21.356.088.06.186.092.296.092.092 0 .18-.02.26-.06.08-.044.146-.124.204-.248.06-.126.104-.3.14-.526.032-.226.05-.526.05-.9h1.048c0 .372-.02.72-.07 1.054-.04.33-.12.62-.24.87s-.28.44-.5.58c-.212.14-.492.214-.84.214-.386 0-.7-.084-.93-.248-.23-.17-.408-.41-.532-.72-.12-.314-.2-.686-.24-1.12-.04-.434-.06-.912-.06-1.434 0-.52.016-.992.054-1.43.04-.44.12-.81.24-1.12.12-.314.3-.56.536-.732.232-.176.544-.266.94-.266.372 0 .666.08.88.24.22.16.38.36.484.608.104.246.17.508.2.792.024.286.04.552.04.8H51.35c0-.5-.04-.86-.134-1.086l-.006-.022zm3.06-1.216h1.046v6.826h-1.04v-6.826h-.006zm5.914 1.13h-1.852v1.604h1.74v1.128h-1.74v1.836h1.92v1.128h-2.96v-6.826h2.9v1.13h-.008zm4.26 3.546h.01v-4.676h.96v6.826H64.22l-1.272-4.78h-.02v4.78h-.954v-6.826h1.2l1.26 4.676h.01zm4.968-3.46c-.09-.224-.254-.336-.49-.336-.128 0-.236.046-.32.14-.086.092-.152.24-.2.448-.048.22-.08.48-.1.82-.02.34-.03.76-.03 1.24 0 .52.014.936.04 1.254.028.32.068.568.12.74.06.18.13.296.214.356.09.06.188.092.3.092.09 0 .18-.02.26-.06.08-.044.144-.124.2-.248.06-.126.106-.3.14-.526.034-.226.052-.526.052-.9h1.046c0 .372-.02.72-.07 1.054-.04.33-.12.62-.24.87s-.284.44-.5.58c-.212.14-.492.214-.834.214-.388 0-.7-.084-.932-.248-.232-.17-.41-.41-.534-.72-.124-.314-.2-.686-.24-1.12-.04-.434-.054-.912-.054-1.434 0-.52.02-.992.06-1.43.04-.44.114-.81.24-1.12.12-.314.3-.56.532-.732.232-.176.544-.266.936-.266.372 0 .666.08.88.24.216.16.376.36.48.608.108.246.176.508.2.792.028.286.04.552.04.8h-1.04c0-.5-.048-.86-.136-1.086l-.02-.022zm5.908-.086h-1.85v1.604h1.74v1.128h-1.74v1.836h1.92v1.128h-2.96v-6.826h2.9v1.13h-.01zm4.78-1.13h1.04v6.826H80.1v-6.826zm5.48 4.676h.016v-4.676h.96v6.826h-1.192l-1.276-4.78h-.02v4.78h-.96v-6.826h1.208l1.26 4.676h.004zm5.36 0h.016v-4.676h.96v6.826h-1.192l-1.276-4.78h-.02v4.78h-.96v-6.826h1.208l1.26 4.676h.004zm2.84-2.692c.04-.44.12-.82.24-1.14.126-.316.3-.56.534-.734.234-.174.548-.26.94-.26.39 0 .7.086.934.26.232.18.41.42.534.732.12.312.2.686.24 1.12.034.44.054.92.054 1.432 0 .52-.02 1-.052 1.432-.04.434-.12.806-.24 1.12-.124.31-.3.55-.534.72-.232.16-.544.244-.936.244s-.706-.086-.94-.25c-.23-.172-.406-.412-.53-.72-.12-.316-.2-.688-.24-1.12-.032-.436-.05-.914-.05-1.436 0-.516.02-.992.052-1.43l-.006.03zm1.02 2.6c.014.32.048.58.1.78.05.2.12.34.216.44.1.08.22.14.374.14s.28-.06.372-.14c.096-.1.168-.24.22-.44.05-.2.08-.46.1-.78.02-.34.026-.72.026-1.18 0-.46-.012-.86-.028-1.18-.02-.32-.05-.58-.1-.78-.05-.206-.12-.354-.22-.448-.092-.092-.22-.14-.372-.14s-.28.048-.372.14c-.096.094-.168.24-.22.446-.054.2-.088.46-.1.78-.02.32-.03.708-.03 1.168 0 .46.008.846.026 1.168l.008.026zm5.776.46h.02l.77-5.06h1.08l-1.19 6.82h-1.34l-1.188-6.826h1.116l.74 5.048-.008.018zm5.48-5.06l1.374 6.82h-1.09l-.24-1.44h-1.374l-.24 1.44H103.4l1.37-6.826h1.29l-.004.006zm-.136 4.26l-.5-3.076h-.016l-.5 3.068h1.012l.004.008zm5.7-3.132h-1.132v5.7h-1.04v-5.7h-1.14v-1.13h3.31v1.13h.002zm1.592.854c.04-.44.12-.812.24-1.12.12-.314.3-.556.534-.732.23-.176.54-.266.934-.266.396 0 .708.092.94.266.232.174.41.42.532.73.128.312.208.686.24 1.12.04.44.06.92.06 1.432 0 .52-.02 1-.056 1.436-.034.432-.114.804-.24 1.12-.12.308-.3.548-.53.72-.234.16-.546.24-.94.24-.39 0-.7-.08-.934-.246-.232-.168-.41-.408-.532-.72-.12-.312-.2-.68-.24-1.12-.034-.432-.052-.91-.052-1.432 0-.516.02-.992.054-1.43l-.01.002zm1.02 2.6c.02.32.05.58.1.78.052.2.124.352.22.44.094.096.22.14.372.14.16 0 .28-.044.38-.14.092-.088.164-.24.22-.44.046-.2.08-.46.1-.78.014-.32.02-.712.02-1.17 0-.46-.006-.85-.02-1.17-.02-.32-.054-.58-.1-.78-.056-.204-.128-.352-.22-.446-.096-.092-.22-.14-.376-.14s-.28.048-.38.14c-.09.094-.16.24-.22.446-.044.2-.08.46-.1.78-.012.32-.02.71-.02 1.17 0 .46.01.85.028 1.172l-.004-.002zm6.2-4.584c.432 0 .772.146 1.012.434.246.29.368.73.368 1.324 0 .46-.064.832-.204 1.12-.14.292-.36.48-.66.56v.02c.266.05.456.16.58.334.12.174.194.452.22.834.012.128.02.266.02.42l.02.5c.008.36.02.64.04.83.032.192.094.32.19.392v.06h-1.126c-.056-.1-.09-.204-.1-.33-.02-.12-.028-.248-.034-.38l-.024-1.31c-.012-.266-.06-.48-.154-.632-.09-.152-.246-.228-.464-.228h-.56v2.886h-1.04v-6.82h1.92l-.004-.014zm-.432 3c.248 0 .44-.08.58-.24.132-.154.2-.42.2-.788 0-.63-.24-.948-.726-.948h-.494v1.976h.44zm4.586 1.908c0 .16.01.304.03.434.02.12.054.24.108.32.052.086.124.16.212.206.09.05.2.074.34.074.16 0 .3-.06.43-.2.128-.14.192-.346.192-.632 0-.152-.02-.286-.06-.396-.036-.114-.08-.214-.16-.3-.074-.094-.17-.176-.288-.248-.12-.07-.266-.144-.44-.22-.232-.1-.432-.22-.6-.34-.17-.12-.312-.26-.42-.426-.116-.16-.2-.352-.254-.56-.052-.22-.08-.46-.08-.74 0-.68.144-1.18.428-1.516.28-.332.68-.5 1.172-.5.236 0 .45.036.64.1.2.07.37.18.514.328.14.15.252.34.33.574.08.236.12.516.12.84v.192h-1c0-.328-.04-.58-.128-.754-.086-.18-.23-.26-.434-.26-.11 0-.21.02-.286.06-.08.04-.14.1-.186.18-.044.066-.076.16-.092.248-.02.094-.028.194-.028.294 0 .216.04.394.104.536.064.14.21.274.432.394l.8.46c.2.114.36.232.492.36.128.12.228.26.3.4.08.14.13.3.16.472.028.174.04.366.04.574 0 .72-.16 1.248-.472 1.58-.32.324-.76.488-1.328.488-.59 0-1.012-.168-1.266-.508-.26-.34-.38-.82-.38-1.452v-.28h1.04v.204l.018.014zM36.216 6.62c3.412 3.64 5.54 8.496 5.66 13.85H32.94l3.276-13.852v.002zm-7.124 5.5l6.32-6.316C31.802 2.352 26.96.18 21.612.01l7.48 12.11zM12.24 28.972c-1.726-1.87-2.856-4.294-3.092-6.98l-3.12 13.19 6.212-6.2v-.01zm20.524-7.56c-.106 2.706-1.12 5.18-2.748 7.124l11.532-7.124h-8.784zm-3.13-8.5c1.726 1.866 2.856 4.292 3.092 6.976L35.846 6.7l-6.212 6.21v.002zm-1.1-1.052L21.408.33v8.784c2.706.104 5.18 1.12 7.124 2.746h.002zm.434 17.78c-1.868 1.724-4.294 2.854-6.98 3.09l13.192 3.12-6.212-6.212v.002zm-15.624.38l7.124 11.532v-8.784c-2.708-.106-5.18-1.12-7.124-2.748zm-.56-.26l-6.32 6.32c3.61 3.448 8.452 5.62 13.8 5.79L12.78 29.76h.004zm-3.85-8.348H0c.12 5.354 2.246 10.212 5.66 13.852l3.274-13.852zm12.474 11.532v8.934c5.354-.12 10.212-2.26 13.852-5.66L21.408 32.94v.004zm8.35-3.848l6.3 6.32c3.448-3.61 5.62-8.452 5.79-13.8l-12.11 7.48h.02zM9.1 20.47c.106-2.706 1.12-5.18 2.748-7.124L.324 20.47h8.784H9.1zM19.874 9.15L6.684 6.034l6.212 6.21c1.87-1.726 4.3-2.856 6.98-3.092l-.002-.002zm.586-.21V0C15.104.12 10.246 2.24 6.606 5.66l13.86 3.28h-.006zm-8.34 3.84L5.8 6.46C2.348 10.08.176 14.92.008 20.268l12.11-7.48.002-.008zm10.24 8.16c0 .784-.64 1.42-1.42 1.42-.786 0-1.424-.636-1.424-1.42 0-.784.64-1.42 1.42-1.42.786 0 1.42.636 1.42 1.42h.004zm10.24 0c0 1.26-1.266 2.41-3.564 3.232-.512.184-1.066.348-1.652.49.168.58.304 1.14.4 1.68.434 2.4.074 4.08-1.02 4.7-.3.18-.646.26-1.026.26-1.34 0-3.06-1.08-4.82-2.9-1.754 1.82-3.48 2.92-4.8 2.92-.38 0-.73-.09-1.032-.26-1.092-.634-1.452-2.3-1.016-4.7.094-.54.23-1.1.4-1.68-.586-.144-1.14-.306-1.652-.49-2.3-.824-3.56-1.974-3.56-3.232 0-1.26 1.26-2.41 3.56-3.232.512-.184 1.066-.348 1.65-.492-.166-.58-.3-1.14-.4-1.676-.434-2.4-.072-4.074 1.02-4.7.3-.18.648-.26 1.028-.26 1.32 0 3.044 1.084 4.8 2.91 1.746-1.82 3.472-2.912 4.8-2.912.38 0 .724.08 1.026.26 1.092.626 1.454 2.3 1.02 4.7-.096.532-.232 1.092-.4 1.67.584.14 1.14.308 1.65.492 2.3.82 3.56 1.974 3.56 3.234l.028-.014zm-11.114-6.852c.66.744 1.32 1.59 1.96 2.514 1.11.1 2.174.24 3.16.44.168-.56.3-1.1.396-1.64.38-2 .14-3.42-.62-3.86-.18-.1-.38-.16-.62-.16-1.106 0-2.656 1.04-4.254 2.72l-.022-.014zm3.574 6.852c-.296-.604-.62-1.212-.97-1.82-.35-.606-.716-1.192-1.094-1.752-.672-.044-1.36-.068-2.06-.068-.696 0-1.384.02-2.056.068-.376.56-.744 1.144-1.094 1.752-.35.606-.674 1.216-.972 1.82.3.604.62 1.212.972 1.82.35.606.716 1.192 1.094 1.752.67.044 1.36.068 2.06.068l.004.4v-.4c.696 0 1.38-.02 2.052-.068.376-.56.744-1.146 1.094-1.752.35-.606.674-1.214.972-1.82h-.002zm-.28 2.22c-.25.434-.508.856-.77 1.266.82-.084 1.61-.2 2.354-.352-.24-.72-.534-1.46-.872-2.216-.224.42-.46.86-.712 1.3v.002zm-3.836 2.22h-.006c-.5 0-1-.014-1.48-.04.48.67.98 1.29 1.46 1.854.5-.564.99-1.184 1.48-1.852-.488.04-.98.04-1.474.04l.02-.002zm-3.85-2.22c-.25-.434-.486-.87-.71-1.304-.34.754-.632 1.5-.874 2.216.744.15 1.534.268 2.356.352-.264-.408-.52-.832-.772-1.266v.002zm0-4.44c.252-.434.51-.856.772-1.266-.82.084-1.61.2-2.354.352.24.72.534 1.46.872 2.216.224-.42.46-.86.712-1.3l-.002-.002zm3.84-2.22c.5 0 .994.014 1.48.04-.484-.67-.98-1.29-1.476-1.854-.5.564-1 1.184-1.48 1.852.48-.04.96-.04 1.46-.04l.016.002zm4.56 3.524c.336-.754.63-1.5.872-2.216-.744-.15-1.534-.268-2.356-.354.264.412.52.832.772 1.268.26.44.5.88.72 1.32l-.008-.018zM15.268 17.04c.988-.2 2.052-.35 3.16-.44.64-.924 1.3-1.768 1.96-2.512-1.596-1.68-3.146-2.712-4.252-2.712-.24 0-.454.054-.632.156-.766.44-.996 1.852-.632 3.868.096.524.228 1.074.394 1.64h.002zm-.54 6.86c.316-.96.72-1.954 1.2-2.96-.48-1.008-.884-2.004-1.2-2.96-.576.14-1.12.3-1.62.48-1.93.69-3.034 1.594-3.034 2.48 0 .88 1.104 1.786 3.034 2.48.5.18 1.04.34 1.62.48zm5.66 3.892c-.66-.744-1.32-1.59-1.96-2.514-1.11-.1-2.174-.24-3.16-.44-.168.56-.3 1.1-.396 1.64-.364 2-.136 3.42.632 3.86.18.1.39.14.63.14 1.106 0 2.656-1.032 4.254-2.708v.022zm6.216-2.954c-.988.2-2.052.34-3.16.44-.64.92-1.3 1.76-1.96 2.5 1.594 1.68 3.146 2.704 4.252 2.704.236 0 .45-.052.628-.154.766-.44.996-1.852.632-3.868-.096-.524-.228-1.074-.394-1.64l.002.018zM31.8 20.94c0-.88-1.106-1.786-3.034-2.48-.5-.18-1.04-.34-1.62-.48-.316.96-.72 1.954-1.2 2.96.48 1.008.884 2.004 1.2 2.96.576-.14 1.12-.3 1.62-.48 1.928-.69 3.034-1.594 3.034-2.48z" fill-rule="nonzero"/></svg>