<svg viewBox="0 0 129 32" xmlns="http://www.w3.org/2000/svg" fill-rule="evenodd" clip-rule="evenodd" stroke-linejoin="round" stroke-miterlimit="1.414"><path d="M127.59 11.93h-5.857l-.308 1.72h5.432l-.396 2.208h-5.43l-.38 2.132h6.03l-.44 2.44h-9.52l1.94-10.82H128l-.41 2.3v.02zm-9.19 11.666h-2.13v.84h1.985v.64h-1.984v1.028h2.21v.64h-3.02v-3.788h2.94v.64zm-3.94-9.42c-.345.434-.775.788-1.293 1.06-.328.172-.76.314-1.3.426.39.134.67.268.836.4.12.088.28.28.46.57.2.292.32.516.38.674l1.132 3.134h-3.94l-1.28-3.306c-.16-.42-.32-.7-.48-.82-.22-.16-.493-.244-.81-.244h-.31l-.79 4.39h-3.505l1.94-10.82h5.814c1.08 0 1.88.087 2.42.26.54.18.94.51 1.2.987.267.48.34 1.06.213 1.75-.11.6-.34 1.12-.68 1.554l-.006-.01zm-3.076-2.095c-.2-.18-.616-.28-1.252-.28H108.6l-.396 2.2h1.472c.16 0 .476-.04.95-.14.24-.042.448-.16.628-.34.18-.18.29-.39.332-.63.06-.35-.006-.612-.2-.8h-.002zm-5.732 10.98c.192.07.344.19.46.36.114.18.172.38.172.6 0 .29-.088.52-.26.7-.176.19-.436.31-.784.36.172.1.316.205.428.32.112.115.264.32.454.615l.5.74h-.952l-.58-.824c-.204-.296-.344-.48-.42-.56-.08-.074-.16-.126-.24-.156-.084-.03-.22-.04-.4-.04h-.16v1.58h-.8v-3.79h1.68c.42 0 .728.032.92.1h-.018zm-1.8.54v.96h.588c.38 0 .62-.01.716-.05.096-.04.17-.1.224-.16.054-.08.08-.18.08-.28 0-.14-.034-.24-.104-.32-.072-.08-.172-.14-.3-.16-.066-.01-.26-.01-.584-.01h-.62v.02zm-3.46-5.72c-.312.57-.726 1.06-1.248 1.49-.52.43-1.04.73-1.56.9-.72.24-1.554.36-2.504.36-.55 0-1.14-.04-1.78-.11-.636-.06-1.152-.22-1.55-.44-.4-.22-.74-.52-1.03-.92-.29-.4-.464-.82-.52-1.24-.092-.69-.092-1.3.004-1.83l1.154-6.444h3.48l-1.18 6.6c-.12.593-.02 1.053.26 1.38.28.335.72.5 1.32.5.6 0 1.1-.163 1.5-.49.4-.325.66-.79.76-1.39l1.18-6.602h3.48l-1.154 6.448c-.116.64-.328 1.24-.64 1.813l.028-.017zm-15.605-5.59l-1.46 8.14H79.84l1.46-8.16h-3.56l.48-2.67h10.604l-.48 2.67h-3.557v.02zm-7.604 13.7l.484.74h-.954l-.58-.82c-.2-.3-.34-.48-.42-.56-.074-.08-.154-.13-.24-.16-.084-.03-.216-.04-.4-.04h-.16v1.58h-.8v-3.78h1.68c.42 0 .728.04.92.1.192.07.344.19.46.36.116.18.172.38.172.6 0 .28-.086.52-.26.7-.176.19-.436.3-.784.36.18.1.32.2.44.32.12.1.26.32.46.6l-.01.008zm-.74-1.66c.054-.08.08-.17.08-.28 0-.13-.034-.23-.106-.31-.08-.08-.18-.13-.3-.15-.08-.01-.26-.01-.6-.01h-.62v.96h.586c.384 0 .62-.02.72-.05.092-.03.168-.082.22-.16l.02.008zM74.95 14.16c-.343.433-.775.787-1.29 1.06-.33.17-.76.313-1.3.425.39.133.667.267.835.4.112.087.264.28.456.57.2.29.32.52.37.673l1.13 3.134h-3.94l-1.274-3.31c-.16-.424-.32-.7-.48-.83-.222-.166-.492-.25-.81-.25h-.31l-.786 4.39h-3.51L65.98 9.6h5.813c1.08 0 1.888.085 2.426.26.54.18.94.51 1.2.987.26.48.33 1.06.21 1.746-.11.6-.34 1.12-.68 1.552v.01zm-3.07-2.084c-.2-.183-.62-.28-1.26-.28h-1.535l-.394 2.2h1.47c.16 0 .48-.045.96-.143.24-.05.46-.16.64-.34.18-.186.29-.394.338-.632.06-.34-.004-.6-.2-.8h-.01zm-15.222-.15l-.306 1.72h5.43l-.396 2.206h-5.428l-.38 2.13h6.02l-.434 2.45h-9.52l1.94-10.82h9.35l-.415 2.31h-5.86l-.01.002zm-3.2 11.026l1.586 3.787h-.868l-.36-.86h-1.58l-.324.86h-.848l1.54-3.79h.854zm.12 2.287l-.546-1.408-.536 1.403h1.082zm-4.846-9.74c-.8.61-1.9.92-3.306.92h-1.91l-.72 4.01h-3.5l1.94-10.82h5.8c1.26 0 2.14.287 2.68.86.52.58.68 1.4.5 2.46-.2 1.09-.7 1.95-1.496 2.566l.012.002zm-2.128-3.337c-.194-.24-.616-.356-1.27-.356h-.994l-.42 2.413h.856c.672 0 1.164-.112 1.48-.34.31-.22.5-.506.56-.86.06-.34-.006-.624-.2-.86l-.012.004zM33.35 18.64h-3.953l-.872 1.786H24.96l6.185-10.82h3.806l2.31 10.82H33.6l-.243-1.786h-.006zm-.853-6.23l-1.926 3.894h2.48l-.55-3.89v-.003zM21.477 1.1l-.004-.02c3.606 1.4 6.516 4.08 8.252 7.42-.44.763-4.27 7.288-4.27 7.288s-3.7-13.69-3.98-14.69h.002zm-12.32.34C11.73.254 14.652-.25 17.667.12c.945.115 1.86.31 2.74.583.22.768 2.14 8.23 2.14 8.23s-11.766-6.58-13.38-7.48l-.01-.014zm-8.24 9.043c1.31-3.7 3.947-6.71 7.28-8.536 1.21.684 7.628 4.268 7.628 4.268S5.095 9.275.912 10.48l.004.003zm7.99-1.274L1.465 22.39C.265 19.81-.25 16.87.12 13.837c.1-.807.26-1.593.475-2.353 1.16-.168 8.3-2.28 8.3-2.28l.014.002zm-2.88 6.9s3.72 12.46 4.3 14.44c-3.59-1.32-6.52-3.88-8.33-7.12l.015-.03 4.01-7.3h.006zM22.31 30.07c-2.565 1.174-5.473 1.676-8.475 1.306-.9-.112-1.78-.296-2.62-.546 0-.012 0-.02-.01-.034-.52-1.912-2.125-7.916-2.125-7.916s11.387 6.2 13.21 7.186l.02.004zm8.2-8.844h.015c-1.354 3.66-4.012 6.632-7.36 8.42l-.02-.016c-1.1-.638-7.148-4.078-7.148-4.078l14.52-4.32-.008-.006zm14.98 4.864h1.984v.64h-2.78v-3.76h.796v3.12zm15.726-3.114c.14.024.28.08.4.16s.22.18.304.314c.08.134.12.28.12.446 0 .18-.05.34-.15.488-.1.148-.232.26-.4.334.24.068.424.18.56.346.124.16.188.36.188.58 0 .168-.04.34-.12.5-.08.16-.2.3-.34.388-.148.1-.32.16-.54.18-.132.016-.452.02-.96.028h-1.346v-3.788h1.58c.316 0 .55.008.7.034l.004-.01zm-1.48 3.112h.72c.29 0 .472-.008.55-.02.12-.02.212-.074.288-.154.074-.08.112-.188.112-.32 0-.12-.028-.214-.084-.292-.06-.08-.14-.14-.25-.176-.1-.036-.34-.054-.7-.054h-.64v1.016h.004zm0-2.52v.88h.52c.3 0 .5-.006.58-.016.12-.02.24-.06.32-.14.08-.072.12-.172.12-.294 0-.12-.04-.212-.1-.286-.08-.072-.18-.116-.3-.132-.08-.006-.32-.012-.7-.012h-.46.02zm7.02-.2c.16-.156.32-.268.5-.34.247-.1.53-.152.85-.152.58 0 1.05.176 1.4.52.347.348.52.83.52 1.446 0 .61-.173 1.09-.52 1.44-.347.344-.81.52-1.39.52-.59 0-1.057-.176-1.4-.52-.35-.34-.52-.816-.52-1.42 0-.38.06-.7.18-.972.087-.192.21-.364.365-.52l.02-.002zm.58 2.44c.2.22.46.332.78.332s.58-.11.78-.33c.205-.22.307-.548.307-.986 0-.44-.1-.76-.3-.974-.2-.212-.46-.32-.79-.32s-.594.11-.796.32c-.2.22-.3.55-.3.98 0 .432.1.76.308.98l.012-.002zm16.187-2.86l1.58 3.78h-.868l-.346-.86h-1.58l-.32.86h-.85l1.54-3.786h.84v.006zm.11 2.28l-.54-1.4-.532 1.408h1.08v-.008zm7.793-1.646h-1.174v3.14h-.8v-3.14h-1.17v-.64h3.14v.64h.004zm4.25-.22c.16-.156.326-.268.51-.34.25-.1.534-.152.856-.152.58 0 1.048.174 1.4.52.348.346.52.828.52 1.44s-.17 1.096-.52 1.44c-.344.346-.808.52-1.39.52-.58 0-1.052-.174-1.4-.52-.346-.34-.52-.814-.52-1.42 0-.384.06-.706.18-.97.09-.194.214-.366.37-.52l-.006.002zm.584 2.44c.206.22.468.33.786.33.32 0 .58-.108.788-.328.206-.22.308-.55.308-.988 0-.436-.1-.76-.3-.972-.196-.212-.46-.32-.79-.32-.328 0-.594.11-.794.32-.2.22-.3.55-.3.98 0 .432.1.76.308.98l-.006-.002zm14.986.92h-.8v-3.78h.8v3.788-.008zm12.21-.754c.145.116.34.174.58.174.26 0 .45-.052.58-.156.13-.11.2-.234.2-.372 0-.094-.03-.17-.08-.232-.06-.066-.157-.12-.293-.168-.092-.028-.306-.08-.64-.16-.426-.1-.726-.228-.9-.376-.24-.208-.364-.46-.364-.76 0-.194.06-.374.17-.54.1-.17.27-.3.48-.386.214-.086.474-.128.78-.128.5 0 .872.104 1.12.312.252.21.384.488.4.836l-.8.036c-.03-.194-.1-.332-.22-.42-.108-.084-.28-.126-.5-.126-.23 0-.41.04-.54.132-.09.06-.13.14-.13.236 0 .092.04.168.12.23.1.08.342.164.73.25.395.094.68.18.87.28.185.09.33.22.435.38.106.16.16.36.16.6 0 .22-.06.42-.19.612-.128.192-.306.332-.536.42-.23.096-.515.14-.86.14-.5 0-.88-.11-1.15-.33-.27-.22-.43-.548-.48-.972l.775-.074c.05.248.14.43.286.55l-.014.012z" fill-rule="nonzero"/></svg>