<svg viewBox="0 0 129 40" xmlns="http://www.w3.org/2000/svg" fill-rule="evenodd" clip-rule="evenodd" stroke-linejoin="round" stroke-miterlimit="1.414"><path d="M17.563 31.942c-.94-1.526-1.847-3.23-2.69-5.073-1.94-.51-3.772-1.1-5.454-1.77-.48.96-.88 1.9-1.21 2.78-1.28 3.46-1.31 6.02-.09 7.04.41.36.98.52 1.69.52 2 0 4.78-1.28 7.76-3.5l-.01-.007zm95.668-2.453c.04-.44.12-.82.24-1.13.13-.318.3-.56.54-.73.23-.18.548-.27.94-.27.393 0 .705.088.937.264.234.174.41.42.534.732.125.31.205.685.24 1.123.038.436.056.914.056 1.43 0 .52-.02 1-.057 1.42-.036.43-.116.8-.24 1.12-.12.31-.3.546-.534.72-.23.16-.543.244-.935.244-.39 0-.703-.083-.935-.25-.232-.165-.41-.4-.534-.715-.123-.317-.203-.69-.24-1.12-.035-.437-.053-.915-.053-1.44 0-.52.02-.995.054-1.43v.022zm-19.45 0c.04-.44.12-.82.24-1.13.12-.318.3-.56.53-.73.24-.18.55-.27.94-.27.39 0 .7.088.94.264.22.174.4.42.52.732s.2.685.24 1.123c.04.436.05.914.05 1.43 0 .52-.02 1-.052 1.42-.04.43-.12.8-.24 1.12-.12.31-.3.546-.534.72-.232.16-.544.244-.94.244-.39 0-.7-.083-.934-.25-.235-.165-.413-.4-.54-.715-.12-.317-.2-.69-.24-1.12-.03-.437-.05-.915-.05-1.44 0-.52.02-.995.053-1.43l.024.022zm30.82 2.91c0 .16.01.32.03.44.02.14.06.24.11.34.05.09.13.16.22.21.08.05.2.075.32.075.16 0 .3-.066.43-.204.13-.133.192-.345.192-.633 0-.157-.02-.29-.05-.4-.03-.11-.08-.213-.155-.3-.074-.09-.17-.173-.29-.24-.12-.08-.26-.155-.44-.23-.23-.1-.43-.213-.6-.333-.17-.12-.31-.26-.42-.422-.12-.16-.2-.35-.254-.56-.055-.213-.08-.46-.08-.74 0-.68.14-1.18.425-1.514.285-.334.68-.5 1.175-.5.23 0 .443.034.64.1.19.07.36.18.504.326.14.153.25.34.33.58.08.23.12.51.12.84v.185h-1c0-.327-.045-.58-.133-.753-.083-.177-.23-.265-.43-.265-.12 0-.217.03-.29.074-.08.045-.14.1-.19.18-.05.07-.08.155-.1.25-.02.1-.027.2-.027.3 0 .21.036.39.1.533.072.14.216.273.44.393l.806.46c.2.12.36.24.49.36.12.127.22.26.3.4.07.147.123.3.15.48.037.167.05.36.05.57 0 .72-.16 1.245-.473 1.573-.32.33-.76.495-1.33.495-.59 0-1.01-.172-1.265-.51-.25-.34-.38-.82-.38-1.454v-.28h1.047v.2l.03-.032zm-79.65 0c0 .16.01.32.03.44.02.14.06.24.12.34.06.09.12.16.22.21.1.05.2.075.34.075.16 0 .3-.066.44-.204.13-.133.19-.345.19-.633 0-.157-.02-.29-.05-.4-.03-.11-.08-.213-.152-.3-.076-.09-.172-.173-.29-.24-.12-.08-.266-.155-.44-.23-.233-.1-.433-.213-.6-.333-.173-.12-.313-.26-.427-.422-.114-.16-.2-.35-.252-.56-.052-.213-.08-.46-.08-.74 0-.68.144-1.18.43-1.514.284-.334.676-.5 1.177-.5.235 0 .45.034.64.1.2.07.37.18.513.326.14.153.25.34.33.58.08.23.12.51.12.84v.185h-1c0-.327-.046-.58-.132-.753-.093-.177-.24-.265-.44-.265-.12 0-.215.03-.29.074-.08.045-.142.1-.182.18-.045.07-.08.155-.093.25-.02.1-.027.2-.027.3 0 .21.03.39.1.533.07.14.214.273.44.393l.8.46c.2.12.36.24.488.36.13.127.23.26.3.4.08.147.134.3.16.48.03.167.04.36.04.57 0 .72-.16 1.245-.47 1.573-.312.33-.76.495-1.32.495-.59 0-1.01-.172-1.265-.51-.252-.34-.38-.82-.38-1.454v-.28h1.046v.2l-.02-.032zm61.12-4.9l1.36 6.84h-1.09l-.24-1.44h-1.38l-.24 1.44h-1.088l1.37-6.82h1.29l.02-.02zM72.39 34.34V27.5h2.894v1.14h-1.85v1.61h1.74v1.126h-1.74v1.84h1.92v1.125H72.39zM54.2 27.52h1.047v6.836H54.2v-6.84.005zm5.922 1.13h-1.855v1.61h1.74v1.128h-1.74v1.84h1.925v1.126h-2.96v-6.84h2.9v1.13l-.01.007zm19.936-1.127H81.1v6.833h-1.046v-6.84l.002.007zm40.368 0c.434 0 .772.146 1.014.44.24.286.367.728.367 1.32 0 .46-.07.835-.21 1.12-.14.297-.36.48-.655.56v.02c.26.057.454.16.577.34.12.175.19.45.22.835.01.13.02.268.02.42l.02.5c.01.364.02.64.04.832.03.19.092.32.19.39v.06h-1.13c-.05-.1-.088-.208-.1-.332-.018-.124-.028-.26-.03-.388l-.03-1.31c-.01-.266-.06-.48-.156-.63-.098-.15-.25-.228-.47-.228h-.56v2.89h-1.044v-6.84h1.933zm-10.994 6.833V28.64H108.3v-1.127h3.312v1.13h-1.134v5.7h-1.04l-.006.013zM51.158 28.72c-.092-.223-.256-.34-.492-.34-.132 0-.24.05-.324.14-.084.095-.152.245-.2.45-.048.21-.08.48-.1.815-.02.337-.03.747-.03 1.23 0 .517.012.935.04 1.255.026.32.068.566.124.74.04.176.12.294.2.356.08.06.18.09.284.09.092 0 .18-.02.26-.06.08-.044.146-.126.204-.25.06-.126.1-.3.14-.528.03-.226.046-.524.046-.894h1.046c0 .38-.02.74-.064 1.06-.04.34-.12.62-.24.88-.12.252-.284.44-.5.58-.214.14-.494.216-.84.216-.39 0-.7-.08-.935-.246-.228-.164-.406-.404-.53-.72-.12-.31-.2-.68-.24-1.12-.032-.43-.05-.908-.05-1.432 0-.52.02-1 .06-1.435.04-.44.12-.81.24-1.12.12-.316.3-.56.532-.734.23-.18.54-.266.93-.266.37 0 .67.08.88.24.22.16.38.36.483.606.11.248.174.514.2.8.03.28.04.548.04.8H51.28c0-.5-.045-.86-.133-1.09l.003-.022zm18.224 0c-.09-.223-.254-.34-.493-.34-.13 0-.24.05-.32.14-.09.095-.16.245-.2.45-.05.21-.09.48-.11.815-.02.337-.03.747-.03 1.23 0 .517.01.935.04 1.255.024.32.07.566.12.74.06.176.13.294.212.356.084.06.18.09.294.09.092 0 .18-.02.26-.06.08-.044.147-.126.205-.25.06-.126.104-.3.14-.528.03-.226.048-.524.048-.894h1.05c0 .38-.02.74-.06 1.06-.04.34-.12.62-.24.88-.12.252-.28.44-.5.58-.22.14-.5.216-.84.216-.38 0-.7-.08-.94-.246-.22-.164-.4-.404-.52-.72-.126-.31-.206-.68-.24-1.12-.04-.43-.056-.908-.056-1.432 0-.52.02-1 .052-1.435.04-.44.114-.81.24-1.12.12-.316.3-.56.532-.734.23-.18.54-.266.93-.266.373 0 .67.08.88.24.22.16.38.36.485.606.1.248.168.514.2.8.02.28.04.548.04.8h-1.05c0-.5-.04-.86-.13-1.09l-.014-.022zm44.865 3.372c.02.32.052.584.1.784.054.2.126.348.22.44.094.094.22.14.374.14.16 0 .28-.046.38-.14.098-.092.17-.24.22-.44.05-.2.08-.46.1-.784.02-.32.03-.712.03-1.172 0-.46-.01-.86-.025-1.18-.02-.32-.05-.58-.1-.78-.052-.2-.126-.36-.22-.44-.094-.1-.22-.14-.374-.14s-.28.04-.373.14c-.093.08-.165.24-.22.44-.047.2-.08.46-.1.78-.015.32-.023.704-.023 1.164 0 .46.006.846.022 1.168v.02zm-19.452 0c.016.32.05.584.1.784.052.2.124.348.22.44.094.094.22.14.374.14.16 0 .28-.046.38-.14.1-.092.18-.24.22-.44.06-.2.08-.46.1-.784.02-.32.04-.712.04-1.172 0-.46-.01-.86-.03-1.18-.02-.32-.05-.58-.1-.78-.05-.2-.12-.36-.22-.44-.09-.1-.22-.14-.37-.14-.16 0-.28.04-.37.14-.1.08-.17.24-.22.44-.05.2-.09.46-.1.78-.02.32-.03.704-.03 1.164 0 .46.01.846.03 1.168l-.03.02zm5.78.464h.025l.77-5.053h1.1l-1.19 6.84h-1.34l-1.194-6.82h1.12l.732 5.055-.022-.022zm-15.006-.372h.01v-4.68h.96v6.84h-1.2l-1.28-4.78h-.02v4.78h-.96v-6.84h1.2l1.26 4.68h.02zm-21.17 0h.01v-4.68h.94v6.84h-1.19l-1.276-4.78h-.02v4.78h-.96v-6.84h1.21l1.26 4.68h.027zm26.53 0h.01v-4.68h.96v6.84h-1.19l-1.28-4.78h-.01v4.78h-.96v-6.84h1.206l1.264 4.68zm14.99-.42l-.5-3.06h-.015l-.5 3.08h1.014v-.02zM19.27 27.84c-.886-.155-1.76-.33-2.616-.525.66 1.372 1.347 2.63 2.04 3.76 1.06-.84 2.135-1.792 3.208-2.83-.87-.116-1.75-.246-2.633-.4v-.004zM120 30.502c.253 0 .447-.076.58-.232.137-.16.205-.42.205-.79 0-.64-.24-.955-.726-.955h-.5v1.973h.44v.004zm-90.53-1.845c-.38.014-.765.02-1.16.02-1.48 0-3.014-.08-4.576-.224-1.4 1.44-2.84 2.73-4.24 3.84 2.64 3.962 5.316 6.158 7.15 6.158.25 0 .487-.04.7-.12 1.497-.54 2.34-2.96 2.32-6.64 0-.96-.06-1.97-.18-3.02l-.015-.01zm-2.705-3.54c-.58.694-1.167 1.36-1.76 2 1.123.086 2.228.128 3.306.128.32 0 .64-.008.96-.016-.2-1.35-.5-2.76-.86-4.2-.53.7-1.08 1.39-1.66 2.08h.02zm8.515-7.062c-.832-.48-1.74-.928-2.714-1.354-.86 1.6-1.885 3.24-3.047 4.87.53 1.935.93 3.82 1.2 5.61 5.22-.34 8.79-1.77 9.15-3.78.27-1.563-1.4-3.51-4.59-5.332v-.004zm-7.327 3.225c-.336-1.167-.72-2.34-1.15-3.52-.44-1.21-.9-2.356-1.38-3.442-1.177-.29-2.387-.548-3.627-.766-1.24-.22-2.46-.392-3.665-.52-.84.87-1.66 1.79-2.48 2.755-.8.96-1.56 1.936-2.28 2.912.34 1.16.72 2.34 1.15 3.52.44 1.2.9 2.35 1.38 3.44 1.18.28 2.39.54 3.63.76 1.24.22 2.46.39 3.67.52.82-.87 1.66-1.79 2.46-2.76.805-.96 1.57-1.935 2.28-2.91h.023zm73.31-.508c0 .36.02.69.053.99.034.3.1.56.196.78.096.22.226.4.394.52.16.132.36.194.62.194s.46-.06.62-.186c.16-.126.29-.3.387-.52.094-.22.16-.48.2-.78.03-.3.048-.626.048-.986v-9.942h2.18v9.932c0 .906-.1 1.654-.28 2.246-.19.592-.45 1.06-.77 1.406-.32.348-.69.58-1.1.7-.414.12-.84.18-1.29.18-.442 0-.872-.053-1.284-.16-.414-.105-.78-.32-1.104-.648-.32-.324-.58-.786-.77-1.384-.19-.6-.286-1.376-.286-2.334v-9.93h2.18v9.932l.012-.01zM12.32 20.18c-.835 1.228-1.58 2.45-2.235 3.646 1.268.5 2.627.954 4.053 1.36-.336-.806-.66-1.634-.968-2.48-.306-.846-.588-1.688-.85-2.527zm69.468-9.35c.908 0 1.615.304 2.12.908.505.606.757 1.526.757 2.76 0 .96-.148 1.74-.44 2.345-.292.606-.746.994-1.36 1.166v.04c.544.1.94.34 1.194.7.25.36.4.93.47 1.73.02.26.03.55.04.86l.03 1.048c.02.74.04 1.32.08 1.72.06.4.18.666.38.82v.12H82.7c-.11-.2-.18-.44-.212-.696-.03-.26-.05-.53-.06-.808l-.06-2.733c-.02-.552-.126-.99-.32-1.31-.19-.32-.51-.48-.966-.48h-1.16v6.02h-2.18V10.81h4.02l.02.022zm-21.394 0c.556 0 1.02.124 1.4.37.38.26.684.58.916.98.232.4.4.86.5 1.372.1.512.15 1.034.15 1.566 0 .73-.084 1.37-.25 1.915-.166.548-.4.992-.696 1.34-.3.344-.66.6-1.08.78-.426.168-.894.254-1.408.254H58.76v5.688h-2.18V10.852h3.814v-.022zm-10.455 0l2.86 14.243h-2.26l-.5-3.015h-2.88l-.5 3h-2.27l2.86-14.242h2.69l-.01.014zm45.33 2.354h-2.36V25.07h-2.19V13.185h-2.36V10.83h6.9v2.354zm19.16-2.354c.91 0 1.61.304 2.12.908.5.606.75 1.526.75 2.76 0 .96-.145 1.74-.44 2.345-.29.606-.74.994-1.36 1.166v.04c.544.1.944.34 1.2.7.25.36.405.93.465 1.73.02.26.032.55.04.86l.03 1.048c.02.74.05 1.32.09 1.72.06.4.19.666.39.82v.12h-2.36c-.114-.2-.18-.44-.214-.696-.036-.26-.056-.53-.06-.808l-.06-2.733c-.02-.552-.134-.99-.32-1.31-.196-.32-.52-.48-.974-.48h-1.168v6.02h-2.18V10.81h4.02l.025.022zm13.45 2.354h-3.87v3.35h3.63v2.353h-3.63v3.83h4v2.354h-6.19V10.83h6.033v2.356h.022zM67.47 25.07V10.83h6.042v2.356h-3.86v3.35h3.63v2.353h-3.64v3.83h4.006v2.35h-6.19.01zM8.766 23.277c.86-1.594 1.886-3.23 3.048-4.86-.532-1.93-.94-3.818-1.2-5.608-5.22.33-8.802 1.77-9.152 3.78-.263 1.56 1.402 3.51 4.602 5.33.834.48 1.74.94 2.715 1.36l-.02-.01zm14.423-2.854c-.25 1.4-1.57 2.32-2.96 2.08-1.39-.24-2.32-1.56-2.07-2.96.24-1.38 1.57-2.32 2.95-2.06 1.39.24 2.315 1.57 2.07 2.96v-.02zm5.82-.64c.83-1.22 1.58-2.44 2.23-3.64-1.26-.5-2.62-.942-4.04-1.362.332.82.66 1.64.964 2.48.307.86.59 1.7.85 2.54l-.007-.02zm20.65-.06l-1.04-6.402h-.03l-1.04 6.4h2.12-.01zm10.08-2.43c.43 0 .78-.173 1.05-.52.27-.343.4-.883.4-1.614 0-.72-.11-1.26-.346-1.64-.23-.37-.62-.56-1.166-.56h-.906v4.33h.98-.014zm21.123-.22c.52 0 .92-.16 1.204-.487.28-.326.42-.874.42-1.647 0-1.32-.514-1.98-1.52-1.98h-1.03v4.11h.924zm32.615 0c.536 0 .94-.16 1.22-.487.28-.326.42-.874.42-1.647 0-1.32-.5-1.98-1.508-1.98h-1.03v4.11h.906-.01zm-98.905-2.2c.58-.686 1.167-1.354 1.76-2-1.123-.08-2.227-.12-3.305-.12-.326 0-.65.004-.97.012.2 1.346.49 2.753.854 4.19.536-.7 1.09-1.4 1.668-2.084l-.003.01zM23.78 8.04c.94 1.523 1.845 3.226 2.69 5.07 1.934.5 3.77 1.1 5.453 1.76.47-.95.88-1.88 1.208-2.78 1.28-3.45 1.31-6.015.098-7.036-.416-.346-.986-.52-1.696-.52-2 0-4.76 1.296-7.754 3.5l.006.005zm-1.713 4.11c.882.156 1.76.332 2.612.526-.66-1.374-1.35-2.63-2.04-3.76-1.06.84-2.14 1.79-3.21 2.828.87.112 1.75.244 2.632.4v.006zm-10.205-.82c.38-.01.77-.02 1.16-.02 1.487 0 3.02.08 4.582.228 1.412-1.44 2.846-2.73 4.253-3.84-2.64-3.962-5.313-6.158-7.147-6.158-.248 0-.486.04-.704.12-1.49.54-2.34 2.966-2.32 6.64 0 .96.066 1.975.18 3.03h-.006zM41.3 23.632c-.49 2.78-4.31 4.57-10.382 4.96.12 1.073.18 2.108.185 3.082.02 4.38-1.14 7.22-3.267 7.998-.38.14-.78.208-1.197.208-2.49 0-5.5-2.553-8.29-6.716-3.23 2.36-6.258 3.733-8.53 3.733-1.05 0-1.93-.29-2.61-.86-1.73-1.453-1.85-4.522-.33-8.63.34-.92.75-1.865 1.23-2.836-.99-.43-1.92-.9-2.768-1.38-3.8-2.17-5.68-4.6-5.288-6.82.49-2.78 4.31-4.565 10.38-4.96-.12-1.07-.18-2.102-.185-3.082-.02-4.376 1.14-7.22 3.27-7.99.38-.14.78-.202 1.2-.202 2.48 0 5.493 2.558 8.286 6.723 3.23-2.364 6.25-3.736 8.522-3.736 1.06 0 1.94.29 2.62.86 1.73 1.457 1.85 4.52.33 8.633-.34.92-.75 1.863-1.228 2.833.99.436 1.92.9 2.767 1.38 3.8 2.176 5.68 4.603 5.29 6.83l-.02-.017z"/></svg>