<svg viewBox="0 0 129 32" xmlns="http://www.w3.org/2000/svg" fill-rule="evenodd" clip-rule="evenodd" stroke-linejoin="round" stroke-miterlimit="1.414"><path d="M38.31 10.806l2.166 10.433h-1.72l-.38-2.22h-2.18l-.38 2.2h-1.72l2.16-10.44h2.04l.014.02zm-.217 6.5L37.3 12.62h-.02l-.79 4.68h1.603v.01zm5.84-6.5c.422 0 .776.09 1.062.27.286.18.52.42.694.71.17.292.3.626.38 1 .07.376.11.76.11 1.148 0 .534-.06 1-.18 1.4-.12.4-.3.73-.52.98-.22.255-.5.445-.82.57-.32.13-.67.19-1.06.19h-.88v4.165h-1.65V10.8h2.88l-.02.006zm-.503 4.72c.328 0 .594-.126.797-.38.2-.254.304-.648.304-1.184 0-.52-.08-.92-.26-1.18-.17-.27-.47-.408-.88-.408h-.69v3.173h.74v-.02zm8.136-2.996h-2.92v2.456h2.748v1.725h-2.75v2.81h3.036v1.728h-4.687V10.8h4.573v1.73zm3.986-1.724c.687 0 1.22.22 1.6.666.385.44.577 1.116.577 2.02 0 .704-.12 1.276-.34 1.72-.22.445-.568.73-1.03.855v.03c.41.08.71.248.903.512.19.26.31.68.354 1.27.017.18.03.4.035.62l.02.76c0 .55.04.98.06 1.27.04.29.14.49.3.6v.08H56.24c-.08-.15-.14-.32-.16-.507-.02-.19-.04-.386-.046-.59l-.046-2c-.015-.41-.096-.734-.24-.968-.146-.23-.39-.35-.734-.35h-.88v4.415h-1.648V10.8h3.048l.016.006zm-.712 4.56c.4 0 .704-.12.92-.36.21-.24.32-.64.32-1.204 0-.96-.384-1.44-1.148-1.44h-.78v3.02h.688v-.016zm8.616-2.836H61.67v8.71h-1.65v-8.722h-1.787v-1.72h5.22v1.72l.003.012zm2.26 5.553c0 .28.01.52.04.74.024.22.074.414.146.574.072.16.172.288.3.38.124.092.28.14.474.14.2 0 .36-.048.48-.14.12-.092.22-.22.292-.38.072-.16.12-.35.15-.57.026-.22.04-.46.04-.724v-7.28h1.65v7.274c0 .666-.073 1.214-.22 1.646-.14.432-.337.78-.58 1.028-.247.26-.525.43-.842.52-.31.09-.634.14-.97.14-.336 0-.66-.04-.974-.12-.314-.075-.592-.235-.836-.473-.246-.24-.44-.58-.584-1.015-.146-.44-.22-1.01-.22-1.71v-7.28h1.65v7.27l.004-.012zm7.66-7.26c.69 0 1.222.22 1.606.67.38.44.56 1.115.56 2.02 0 .7-.12 1.275-.34 1.72-.22.44-.568.728-1.034.854v.03c.414.08.714.25.906.514.19.26.308.69.354 1.28.02.198.032.41.04.638l.02.768c.02.56.04.98.072 1.277.046.29.146.49.3.6v.086h-1.788c-.08-.15-.14-.317-.16-.507-.02-.188-.04-.38-.046-.588l-.048-2c-.02-.412-.1-.734-.24-.97-.15-.234-.393-.352-.737-.352h-.88v4.41H70.3V10.8h3.05l.027.022zm-.71 4.56c.397 0 .7-.12.918-.36.214-.24.32-.64.32-1.2 0-.96-.38-1.445-1.145-1.445h-.78v3.012h.68v-.008zm8.603-2.84h-2.93v2.46h2.75v1.728h-2.75v2.8h3.035v1.72H76.7V10.82h4.57v1.724zm8.26-1.72v1.72h-2.92v2.46h2.74v1.724H86.6v4.526h-1.64V10.82h4.57v.002zm.81 0h1.64v10.434h-1.66V10.82l.02.002zm4.34 0l1.042 3.38 1.04-3.377h1.8l-1.9 5.16 2.04 5.273h-1.86l-1.18-3.54-1.166 3.53h-1.81l2.04-5.277-1.88-5.16h1.83zm9.46 1.72h-1.797v8.71h-1.65V12.54H98.91v-1.726h5.22v1.724l.01.004zm2.26 5.554c0 .266.002.506.04.726.02.22.08.408.14.568.07.16.17.29.3.38.122.1.28.14.47.14.2 0 .36-.04.48-.14.123-.09.22-.22.293-.38.07-.16.12-.34.15-.56.025-.22.04-.46.04-.73v-7.28h1.65v7.28c0 .666-.074 1.214-.22 1.646-.14.44-.34.78-.58 1.03-.248.26-.527.43-.84.518-.31.1-.64.14-.975.14-.34 0-.66-.04-.974-.12-.31-.07-.59-.23-.834-.467-.247-.24-.44-.58-.585-1.02-.146-.44-.22-1.005-.22-1.707v-7.28h1.65v7.276l.012-.01zm7.66-7.275c.68 0 1.22.22 1.6.664.38.44.57 1.12.57 2.02 0 .7-.11 1.28-.33 1.72-.22.44-.565.73-1.03.857v.03c.41.08.71.252.903.516.19.26.306.68.352 1.27.02.19.03.4.04.63l.02.77c.02.55.04.98.067 1.27.048.29.148.49.3.6v.09h-1.786c-.08-.15-.14-.32-.16-.51-.02-.19-.04-.384-.04-.59l-.045-2c-.013-.41-.093-.732-.24-.966-.14-.236-.387-.354-.73-.354h-.88v4.41h-1.66V10.82h3.053l-.007.002zm-.717 4.56c.394 0 .7-.12.914-.36.214-.24.32-.64.32-1.206 0-.96-.38-1.444-1.14-1.444h-.78v3.012h.686v-.002zm8.602-2.84h-2.92v2.452h2.747v1.725h-2.74v2.8h3.036v1.72h-4.685V10.8h4.575v1.726l-.01.016zm2.267 5.76c0 .24.016.46.046.66s.086.367.172.5c.08.14.2.25.34.32.14.08.32.12.532.12.25 0 .475-.1.68-.31.2-.21.303-.533.303-.973 0-.24-.03-.44-.08-.61-.05-.17-.133-.32-.247-.46-.11-.14-.262-.26-.45-.37-.182-.12-.42-.23-.69-.35-.364-.16-.682-.33-.95-.51-.266-.18-.49-.4-.67-.648-.18-.25-.31-.535-.394-.86-.09-.33-.13-.705-.13-1.135 0-1.03.23-1.8.68-2.308.453-.505 1.07-.76 1.86-.76.37 0 .7.053 1.01.155.31.1.578.27.8.495.228.234.4.52.53.88.126.356.19.78.19 1.28v.296h-1.58c0-.5-.06-.88-.2-1.15-.14-.267-.368-.4-.688-.4-.188 0-.34.035-.46.1-.12.07-.22.16-.296.273-.073.11-.12.24-.15.38-.027.15-.04.3-.04.455 0 .32.053.586.16.804.107.22.335.42.687.61l1.27.7c.31.18.564.36.762.55.2.184.36.4.476.61.12.22.2.46.245.72.046.26.068.554.068.88 0 1.1-.242 1.9-.742 2.4s-1.2.75-2.094.75c-.93 0-1.6-.26-2-.77-.4-.52-.6-1.26-.6-2.22v-.43h1.654v.31zm-124.2-2.66C.1 11.58 1.732 7.9 4.35 5.16l4.82 4.822c-1.386 1.5-2.26 3.476-2.34 5.655H.012zM9.17 22c-1.386-1.5-2.26-3.48-2.344-5.66H.01c.09 4.06 1.725 7.74 4.342 10.476L9.172 22zM16.027.338v6.817c2.18.084 4.156.956 5.655 2.34l4.822-4.82C23.767 2.06 20.086.425 16.026.338zm-6.36 9.16c1.5-1.387 3.475-2.26 5.656-2.343V.338c-4.06.088-7.742 1.72-10.476 4.34l4.82 4.82zm5.656 15.35c-2.18-.086-4.157-.96-5.655-2.34l-4.82 4.82c2.733 2.613 6.414 4.247 10.475 4.337v-6.817zM22.18 9.994c1.383 1.5 2.255 3.476 2.34 5.657h6.82c-.092-4.06-1.726-7.74-4.34-10.47L22.18 10zm2.34 6.36c-.085 2.18-.957 4.157-2.34 5.656L27 26.83c2.614-2.736 4.248-6.417 4.34-10.477h-6.82v.002zm-2.84 6.152c-1.498 1.384-3.474 2.256-5.654 2.34v6.82c4.06-.09 7.74-1.725 10.476-4.34l-4.82-4.82h-.003z" fill-rule="nonzero"/></svg>