<svg viewBox="0 0 64 64" xmlns="http://www.w3.org/2000/svg" fill-rule="evenodd" clip-rule="evenodd" stroke-linejoin="round" stroke-miterlimit="1.414"><path d="M19.146 29.403l1.083 5.216h-.86l-.19-1.11h-1.09l-.19 1.1h-.86l1.08-5.217h1.02zm-.108 3.25l-.396-2.344h-.01l-.396 2.34h.802zm2.92-3.25c.21 0 .387.045.53.135.143.09.26.21.347.355.087.146.15.313.19.5.037.188.056.38.056.574 0 .267-.03.5-.09.7-.06.2-.15.364-.26.49-.11.127-.25.222-.41.285-.16.064-.335.095-.53.095h-.44v2.082h-.825V29.4h1.443zm-.252 2.36c.164 0 .297-.063.398-.19.1-.127.152-.324.152-.592 0-.26-.044-.46-.132-.59-.087-.135-.234-.204-.44-.204h-.344v1.586h.366zm4.067-1.498h-1.46v1.228h1.374v.862h-1.375v1.402h1.518v.862h-2.343V29.4h2.286v.862zm1.993-.862c.343 0 .61.11.8.333.192.22.288.558.288 1.01 0 .352-.056.638-.166.86-.11.222-.283.364-.516.427v.015c.206.04.357.124.453.256.095.13.154.343.177.635.008.09.014.2.017.31l.01.382c0 .277.02.49.03.635.02.146.07.246.15.3v.043h-.898c-.04-.074-.07-.16-.08-.253-.01-.095-.02-.193-.023-.295l-.023-1c-.008-.206-.048-.367-.12-.484-.073-.115-.195-.174-.367-.174h-.44v2.207h-.824V29.4h1.524zm-.356 2.28c.2 0 .352-.06.46-.18.105-.12.16-.32.16-.602 0-.48-.192-.72-.574-.72h-.39v1.51h.344zm4.307-1.418h-.893v4.354H30v-4.36h-.894v-.86h2.61v.86zm1.13 2.776c0 .14.005.26.02.37.012.11.037.207.073.287.036.08.086.144.15.19.062.046.14.07.237.07.1 0 .18-.024.24-.07.06-.046.11-.11.146-.19.036-.08.06-.175.075-.285.013-.11.02-.23.02-.362v-3.64h.824v3.637c0 .333-.036.607-.11.823-.07.216-.168.39-.29.514-.123.13-.262.214-.42.258-.155.044-.317.066-.485.066-.168 0-.33-.02-.487-.06-.157-.037-.296-.117-.418-.236-.123-.12-.22-.29-.292-.508-.073-.22-.11-.505-.11-.856V29.41h.825v3.637zm3.83-3.63c.344 0 .61.11.802.335.19.22.28.558.28 1.01 0 .35-.06.638-.17.86-.11.22-.284.364-.517.427v.015c.207.04.357.125.453.257.095.13.154.344.177.636.01.098.016.204.02.318l.01.384c.01.28.02.49.036.638.023.146.073.246.15.3v.043h-.894c-.04-.073-.07-.157-.08-.252-.01-.093-.02-.19-.023-.293l-.024-1c-.01-.206-.05-.367-.12-.484-.074-.118-.196-.177-.368-.177h-.444v2.205h-.827V29.4h1.526zm-.355 2.28c.198 0 .35-.06.458-.18.107-.12.16-.32.16-.6 0-.48-.19-.722-.572-.722h-.39v1.506h.344zm4.3-1.42h-1.46v1.23h1.375v.864h-1.375v1.4h1.518v.86h-2.342v-5.216h2.285v.862zm4.13-.86v.86h-1.46v1.23h1.374v.862H43.29v2.263h-.823V29.41h2.285zm.407 0h.82v5.217h-.83V29.41zm2.17 0l.523 1.69.52-1.688h.9l-.95 2.58 1.02 2.636h-.93l-.59-1.767-.583 1.767h-.905l1.02-2.638-.94-2.58h.91zm4.73.86h-.897v4.355h-.825V30.27h-.893v-.863h2.61v.862zm1.13 2.777c0 .133.002.253.02.363.01.11.04.204.07.284.036.08.086.145.15.19.062.047.14.07.236.07.1 0 .18-.023.24-.07.062-.045.11-.11.147-.19.035-.08.06-.174.074-.284.013-.11.02-.23.02-.364V29.41h.824v3.637c0 .333-.036.607-.11.823-.07.217-.17.39-.29.515-.123.127-.262.212-.42.256-.155.05-.32.07-.486.07-.17 0-.33-.02-.487-.06-.156-.035-.295-.115-.417-.234-.123-.12-.22-.29-.292-.51-.073-.22-.11-.502-.11-.853v-3.64h.825v3.638zm3.83-3.637c.34 0 .61.11.8.332.19.22.285.56.285 1.01 0 .35-.054.64-.165.86-.11.22-.282.365-.515.428v.015c.206.04.356.126.452.258.094.13.153.344.176.636.01.096.015.202.02.316l.01.385c.01.278.02.49.034.636.023.147.073.247.15.3v.044h-.894c-.04-.073-.07-.157-.08-.252-.01-.094-.02-.192-.02-.294l-.022-1c-.006-.206-.046-.367-.12-.484-.07-.118-.193-.177-.365-.177h-.44v2.206h-.83v-5.22h1.527zm-.358 2.28c.197 0 .35-.06.457-.18.107-.12.16-.32.16-.603 0-.48-.19-.722-.57-.722h-.39v1.506h.343zm4.3-1.42h-1.46v1.226h1.374v.862h-1.37v1.4h1.517v.86H58.68V29.4h2.286v.863zm1.134 2.88c0 .12.007.23.022.33s.043.183.086.25c.04.07.1.124.17.16.07.04.16.06.266.06.125 0 .238-.05.34-.156.1-.104.152-.266.152-.486 0-.118-.016-.22-.04-.305-.026-.084-.067-.16-.124-.23-.056-.067-.132-.13-.225-.185-.092-.056-.21-.113-.345-.172-.183-.078-.342-.163-.475-.255-.134-.09-.245-.2-.335-.322-.09-.124-.156-.267-.198-.43-.043-.164-.064-.352-.064-.567 0-.516.114-.9.34-1.154.227-.252.536-.38.93-.38.184 0 .35.027.506.078.154.05.288.134.4.248.113.117.2.26.264.44.063.178.095.39.095.64v.148h-.79c0-.25-.03-.44-.1-.575-.07-.134-.184-.2-.344-.2-.093 0-.17.017-.23.05-.06.035-.11.08-.147.136-.036.054-.06.12-.074.19-.014.074-.02.15-.02.228 0 .16.026.294.08.403.053.11.167.21.343.306l.634.35c.155.09.283.18.382.273.1.094.18.2.238.306.06.11.1.23.123.36.023.13.034.278.034.44 0 .55-.122.95-.372 1.2s-.6.376-1.048.376c-.465 0-.8-.13-1-.385-.2-.26-.3-.63-.3-1.11v-.215h.826v.154zM0 31.82c.045-2.03.862-3.87 2.17-5.238l2.41 2.41c-.693.75-1.13 1.738-1.17 2.827H0zM4.58 35c-.693-.75-1.13-1.74-1.172-2.83H0c.045 2.03.862 3.87 2.17 5.238L4.58 35zm3.426-10.83v3.408c1.09.042 2.078.478 2.827 1.17l2.41-2.41c-1.367-1.307-3.207-2.124-5.237-2.168zm-3.18 4.58c.75-.694 1.738-1.13 2.828-1.172V24.17c-2.03.044-3.87.86-5.237 2.17l2.41 2.41zm2.828 7.673c-1.09-.043-2.078-.48-2.827-1.17l-2.41 2.41c1.367 1.306 3.207 2.123 5.237 2.168v-3.4zm3.428-7.426c.692.75 1.128 1.738 1.17 2.828h3.41c-.046-2.03-.863-3.87-2.17-5.237l-2.41 2.41zm1.17 3.18c-.042 1.09-.478 2.078-1.17 2.827l2.41 2.41c1.307-1.368 2.124-3.208 2.17-5.238h-3.41zm-1.42 3.075c-.748.692-1.736 1.128-2.826 1.17v3.41c2.03-.046 3.87-.863 5.237-2.17l-2.41-2.41z" fill="#fff" fill-rule="nonzero"/></svg>