<svg viewBox="0 0 64 64" xmlns="http://www.w3.org/2000/svg" fill-rule="evenodd" clip-rule="evenodd" stroke-linejoin="round" stroke-miterlimit="1.414"><path d="M25.006 23.43l1.428 7.112H25.3l-.25-1.504h-1.435l-.25 1.504h-1.133l1.428-7.112h1.346zm-.144 4.432l-.52-3.197h-.017l-.52 3.197h1.057zm5.366-4.432c.277 0 .51.06.7.184.188.123.34.284.456.483.116.2.2.427.25.683.05.255.075.516.075.78 0 .366-.05.686-.13.958-.088.273-.2.495-.35.667-.15.173-.33.302-.54.388-.21.087-.45.13-.706.13h-.58v2.84h-1.09V23.43h1.904zm-.333 3.217c.217 0 .392-.086.525-.258.134-.18.2-.45.2-.81 0-.36-.057-.63-.173-.82-.116-.19-.31-.28-.582-.28h-.454v2.16h.49zm6.877-2.042h-1.927v1.674h1.814v1.17h-1.82v1.91h2v1.173h-3.09v-7.11h3.012V24.6zm4.14-1.175c.455 0 .807.15 1.06.453.25.303.377.762.377 1.38 0 .478-.08.868-.22 1.17-.15.302-.38.497-.68.583v.02c.27.053.47.17.59.348.124.18.202.47.232.867.01.14.017.28.022.44l.015.526c.01.38.023.668.043.867.03.2.096.336.196.408v.06h-1.18c-.055-.1-.09-.213-.105-.342-.015-.13-.026-.263-.03-.403l-.03-1.364c-.01-.28-.064-.495-.16-.655-.095-.16-.256-.24-.483-.24h-.583v3.01H38.9v-7.12h2.01zm-.467 3.108c.26 0 .463-.082.604-.244.14-.163.21-.437.21-.822 0-.657-.25-.986-.76-.986h-.518v2.052h.454zm7.194-1.933h-1.18v5.937h-1.09v-5.937h-1.18V23.43h3.44v1.175zm3 3.785c0 .18 0 .344.02.493.014.15.05.28.1.39.05.11.11.195.192.258.083.07.187.1.313.1.13 0 .237-.03.317-.09.082-.062.146-.15.194-.26.05-.11.08-.24.1-.39.016-.15.025-.31.025-.49v-4.96h1.087v4.96c0 .45-.048.825-.144 1.12-.098.296-.227.53-.388.702-.16.174-.346.29-.553.35-.205.06-.42.09-.64.09-.223 0-.437-.03-.643-.08-.207-.054-.39-.16-.55-.324-.16-.163-.29-.394-.387-.693-.095-.3-.143-.69-.143-1.166v-4.96h1.09v4.96zm6.56-4.96c.45 0 .803.15 1.06.453.25.303.38.762.38 1.38 0 .478-.078.868-.22 1.17-.15.302-.37.497-.68.583v.02c.27.053.47.17.6.348.12.18.2.47.23.867.01.14.02.28.02.44l.015.526c.01.38.026.668.046.867.03.2.097.336.198.408v.06h-1.18c-.055-.1-.09-.213-.105-.342-.02-.13-.03-.263-.03-.403L57.5 28.44c-.01-.28-.06-.496-.156-.656-.097-.16-.258-.24-.485-.24h-.585v3.01H55.19v-7.12h2.01zm-.47 3.108c.26 0 .462-.082.603-.244.14-.163.212-.437.212-.822 0-.657-.253-.986-.757-.986h-.514v2.052h.453zm7.186-1.933H61.99v1.674h1.814v1.17H61.99v1.91H64v1.173h-3.09v-7.11h3.015V24.6zm-41.41 9.6c0 .08.004.152.013.217.01.066.03.12.055.165.025.045.06.08.106.105.044.026.1.038.168.038.08 0 .15-.034.215-.102.065-.07.097-.175.097-.318 0-.076-.01-.143-.024-.198-.017-.056-.043-.106-.08-.15-.037-.046-.084-.087-.143-.123-.06-.04-.13-.08-.22-.12-.114-.05-.214-.11-.3-.17-.084-.06-.154-.13-.21-.214-.057-.08-.1-.175-.125-.28-.027-.108-.04-.23-.04-.37 0-.34.07-.59.214-.756.142-.166.337-.25.587-.25.115 0 .223.018.32.05.1.035.183.09.254.164.073.073.128.17.168.285.04.114.06.254.06.416v.098h-.5c0-.163-.02-.288-.068-.376-.042-.087-.115-.13-.216-.13-.058 0-.107.01-.145.032-.04.022-.07.052-.094.09-.024.035-.04.078-.048.126-.01.047-.014.097-.014.147 0 .105.016.194.05.265.034.07.106.138.22.198l.4.23c.1.06.18.118.243.18.063.063.113.13.15.2.038.073.064.15.08.238.013.085.02.18.02.285 0 .36-.08.623-.237.787-.158.163-.38.245-.66.245-.297 0-.508-.086-.635-.256s-.19-.41-.19-.73v-.14h.524v.102zm3.1-1.84c-.046-.112-.127-.168-.246-.168-.064 0-.12.023-.16.07-.043.046-.076.12-.1.224-.024.11-.04.24-.05.41-.01.17-.015.38-.015.62 0 .26.005.468.02.627.012.16.032.284.06.37.03.09.063.148.105.178.044.03.093.046.148.046.046 0 .09-.01.13-.03.04-.022.073-.062.102-.124.03-.063.052-.15.07-.263.016-.113.025-.263.025-.45h.524c0 .186-.01.36-.035.527-.02.165-.06.31-.12.435s-.14.22-.25.29c-.106.07-.246.107-.42.107-.193 0-.35-.042-.465-.124-.115-.085-.204-.205-.266-.36-.06-.157-.1-.343-.12-.56-.02-.217-.03-.456-.03-.717 0-.26.008-.496.027-.715.02-.22.06-.405.12-.56.06-.157.15-.28.268-.366.116-.088.272-.133.47-.133.186 0 .333.04.44.12.11.08.19.18.242.304.052.123.085.254.1.396.012.143.02.276.02.4h-.524c0-.25-.02-.43-.067-.543zm1.53-.608h.523v3.413h-.52v-3.413zm2.957.565h-.926v.802h.87v.564h-.87v.918h.96v.564h-1.48v-3.413h1.45v.565zm2.13 1.773h.005v-2.338h.48v3.413h-.597l-.636-2.39h-.01v2.39h-.477v-3.413h.6l.63 2.338zm2.484-1.73c-.045-.112-.127-.168-.245-.168-.064 0-.118.023-.16.07-.043.046-.076.12-.1.224-.024.11-.04.24-.05.41-.01.17-.015.38-.015.62 0 .26.007.468.02.627.014.16.034.284.06.37.03.09.065.148.107.178.045.03.094.046.15.046.045 0 .09-.01.13-.03.04-.022.072-.062.1-.124.03-.063.053-.15.07-.263.017-.113.026-.263.026-.45h.523c0 .186-.01.36-.035.527-.02.165-.06.31-.12.435s-.142.22-.25.29c-.106.07-.246.107-.417.107-.194 0-.35-.042-.466-.124-.116-.085-.205-.205-.267-.36-.062-.157-.1-.343-.12-.56-.02-.217-.027-.456-.027-.717 0-.26.01-.496.03-.715.02-.22.057-.405.12-.56.06-.157.15-.28.266-.366.116-.088.272-.133.468-.133.186 0 .333.04.44.12.108.08.188.18.24.304.054.123.088.254.1.396.014.143.02.276.02.4h-.52c0-.25-.024-.43-.068-.543zm2.954-.043h-.925v.802h.87v.564h-.87v.918h.96v.564h-1.48v-3.413h1.45v.565zm2.39-.565h.52v3.413h-.52v-3.413zm2.74 2.338h.008v-2.338h.48v3.413h-.596l-.638-2.39h-.01v2.39h-.48v-3.413h.604l.63 2.338zm2.68 0h.008v-2.338h.48v3.413h-.596l-.638-2.39h-.01v2.39h-.48v-3.413h.604l.63 2.338zm1.42-1.346c.02-.22.06-.41.12-.57.063-.158.15-.28.267-.367.117-.087.274-.13.47-.13.195 0 .35.043.467.13.116.09.205.21.267.366.06.156.1.343.12.56.017.22.027.46.027.716 0 .26-.01.5-.026.716-.02.217-.06.403-.12.56-.062.155-.15.275-.267.36-.116.08-.272.122-.468.122s-.353-.043-.47-.125c-.115-.086-.203-.206-.265-.36-.06-.158-.1-.344-.12-.56-.016-.218-.025-.457-.025-.718 0-.258.01-.496.026-.715zm.51 1.3c.007.16.024.29.05.39.025.1.06.17.108.22.05.04.11.07.187.07s.14-.03.186-.07c.048-.05.084-.12.11-.22.025-.1.04-.23.05-.39.01-.17.013-.36.013-.59 0-.23-.006-.43-.014-.59-.01-.16-.025-.29-.05-.39-.025-.103-.06-.177-.11-.224-.046-.046-.11-.07-.186-.07s-.14.024-.186.07c-.048.047-.084.12-.11.223-.027.1-.044.23-.05.39-.01.16-.015.354-.015.584 0 .23.004.423.013.584zm2.888.23h.01l.385-2.53h.54l-.595 3.41h-.67l-.594-3.413h.558l.37 2.524zm2.74-2.53l.687 3.41h-.545l-.12-.72h-.687l-.12.72H51.7l.685-3.413h.645zm-.068 2.13l-.25-1.538h-.008l-.25 1.534h.506zm2.85-1.566h-.566v2.85h-.52v-2.85h-.57v-.565h1.655v.565zm.796.427c.02-.22.06-.406.12-.56.06-.157.15-.278.267-.366.115-.088.27-.133.467-.133.198 0 .354.046.47.133.116.087.205.21.266.365.064.156.104.343.12.56.02.22.03.46.03.716 0 .26-.01.5-.028.718-.017.216-.057.402-.12.56-.06.154-.15.274-.265.36-.117.08-.273.12-.47.12-.195 0-.35-.04-.467-.123-.116-.084-.205-.204-.266-.36-.06-.156-.1-.34-.12-.56-.017-.216-.026-.455-.026-.716 0-.258.01-.496.027-.715zm.51 1.3c.01.16.025.29.05.39.026.1.062.176.11.22.047.048.11.07.186.07.08 0 .14-.022.19-.07.046-.044.082-.12.11-.22.023-.1.04-.23.05-.39.007-.16.01-.356.01-.585 0-.23-.003-.425-.01-.585-.01-.16-.027-.29-.05-.39-.028-.102-.064-.176-.11-.223-.048-.046-.11-.07-.188-.07s-.14.024-.19.07c-.045.047-.08.12-.11.223-.022.1-.04.23-.05.39-.006.16-.01.355-.01.585 0 .23.005.425.014.586zm3.1-2.292c.216 0 .386.073.506.217.123.145.184.365.184.662 0 .23-.032.416-.102.56-.07.146-.18.24-.33.28v.01c.133.025.228.08.29.167.06.087.097.226.11.417.006.064.01.133.01.21l.01.25c.004.18.01.32.02.415.016.096.047.16.095.196v.03h-.563c-.028-.05-.045-.102-.05-.165-.01-.06-.014-.124-.017-.19l-.012-.655c-.006-.133-.03-.24-.077-.316-.045-.076-.123-.114-.232-.114h-.28v1.443h-.52v-3.41h.96zm-.216 1.5c.124 0 .22-.04.29-.12.066-.077.1-.21.1-.394 0-.315-.12-.474-.363-.474h-.247v.988H60zm2.293.954c0 .08.005.152.015.217.01.06.027.12.054.16.026.043.062.08.106.103.045.025.1.037.17.037.08 0 .15-.03.215-.1.064-.07.096-.173.096-.316 0-.076-.01-.143-.03-.198-.018-.057-.04-.107-.08-.15-.037-.047-.085-.088-.144-.124-.06-.035-.133-.072-.22-.11-.116-.05-.216-.11-.3-.17-.085-.06-.156-.13-.21-.213-.058-.08-.1-.176-.127-.28-.026-.11-.04-.23-.04-.37 0-.34.072-.59.214-.758.14-.166.34-.25.586-.25.118 0 .225.018.32.05.1.035.185.09.257.164.07.075.126.17.165.287.04.118.06.258.06.42v.096h-.5c0-.164-.02-.29-.064-.377-.043-.09-.115-.13-.217-.13-.055 0-.105.01-.143.03-.04.02-.07.05-.093.09-.022.033-.038.08-.046.124-.01.047-.014.097-.014.147 0 .108.02.197.052.268.032.07.105.137.216.197l.4.23c.1.057.18.116.246.18.064.06.114.13.15.2.04.07.065.15.08.236.014.087.02.183.02.287 0 .36-.08.624-.236.79-.16.162-.38.244-.664.244-.295 0-.506-.084-.633-.254-.13-.17-.19-.41-.19-.726v-.14h.52v.102zM18.108 20.84c1.706 1.82 2.77 4.248 2.83 6.925H16.47l1.638-6.926zm-3.562 2.75l3.16-3.158c-1.805-1.726-4.226-2.812-6.9-2.897l3.74 6.055zM6.12 32.016c-.863-.935-1.428-2.147-1.546-3.49l-1.56 6.595 3.106-3.1zm10.262-3.78c-.053 1.353-.56 2.59-1.374 3.562l5.766-3.562h-4.392zm-1.565-4.25c.863.933 1.428 2.146 1.546 3.488l1.56-6.594-3.106 3.105zm-.55-.526l-3.563-5.765v4.392c1.353.052 2.59.56 3.562 1.373zm.217 8.89c-.934.862-2.147 1.427-3.49 1.545l6.596 1.56-3.106-3.106zm-7.812.19l3.562 5.766v-4.392c-1.354-.053-2.59-.56-3.562-1.374zm-.28-.13l-3.16 3.16c1.805 1.724 4.226 2.81 6.9 2.895L6.39 32.41zm-1.925-4.174H0c.06 2.677 1.123 5.106 2.83 6.926l1.637-6.926zm6.237 5.766v4.467c2.677-.06 5.106-1.13 6.926-2.83L10.704 34zm4.175-1.924l3.15 3.16c1.724-1.805 2.81-4.226 2.895-6.9l-6.055 3.74zM4.55 27.765c.053-1.353.56-2.59 1.374-3.562L.162 27.765h4.392zm5.387-5.66l-6.595-1.558 3.106 3.105c.935-.863 2.15-1.428 3.49-1.546zM10.23 22v-4.47c-2.678.06-5.107 1.12-6.927 2.83l6.93 1.64zm-4.17 1.92L2.9 20.76C1.174 22.57.088 24.99.004 27.664l6.055-3.74zM11.18 28c0 .392-.32.71-.71.71-.393 0-.712-.318-.712-.71 0-.392.32-.71.71-.71.393 0 .71.318.71.71zm5.12 0c0 .63-.633 1.205-1.782 1.616-.256.092-.533.174-.826.245.084.29.152.57.2.84.217 1.2.037 2.04-.51 2.35-.15.09-.323.13-.513.13-.67 0-1.53-.54-2.41-1.45-.877.91-1.74 1.46-2.4 1.46-.19 0-.365-.045-.516-.13-.546-.317-.726-1.15-.508-2.35.047-.27.115-.55.2-.84-.293-.072-.57-.153-.826-.245-1.15-.412-1.78-.987-1.78-1.616 0-.63.63-1.205 1.78-1.616.256-.092.533-.174.825-.246-.083-.29-.15-.57-.2-.838-.217-1.2-.036-2.037.51-2.35.15-.09.324-.13.514-.13.66 0 1.522.542 2.4 1.455.873-.91 1.736-1.456 2.4-1.456.19 0 .362.04.513.13.546.313.727 1.15.51 2.35-.048.266-.116.546-.2.835.292.07.57.154.825.246 1.15.41 1.78.987 1.78 1.617zm-5.557-3.426c.33.372.66.795.98 1.257.555.05 1.087.12 1.58.22.084-.28.15-.55.198-.82.19-1 .07-1.71-.31-1.93-.09-.05-.19-.08-.31-.08-.553 0-1.328.52-2.127 1.36zM12.53 28c-.148-.302-.31-.606-.485-.91-.175-.303-.358-.596-.547-.876-.336-.022-.68-.034-1.03-.034-.348 0-.692.01-1.028.034-.188.28-.372.572-.547.876-.175.303-.337.608-.486.91.15.302.31.606.486.91.175.303.358.596.547.876.335.022.68.034 1.03.034l.002.2v-.2c.348 0 .69-.01 1.026-.034.188-.28.372-.573.547-.876.175-.303.337-.607.486-.91zm-.14 1.11c-.125.217-.254.428-.385.633.41-.042.805-.1 1.177-.176-.12-.36-.267-.73-.436-1.108-.112.21-.23.43-.356.65zm-1.918 1.11h-.003c-.25 0-.5-.007-.74-.02.24.335.49.645.73.927.25-.282.495-.592.74-.926-.244.02-.49.02-.737.02zm-1.925-1.11c-.125-.217-.243-.435-.355-.652-.17.377-.316.75-.437 1.108.372.075.767.134 1.178.176-.132-.204-.26-.416-.386-.633zm0-2.22c.126-.217.255-.428.386-.633-.41.042-.805.1-1.177.176.12.36.267.73.436 1.108.112-.21.23-.43.356-.65zm1.92-1.11c.25 0 .497.007.74.02-.242-.335-.49-.645-.738-.927-.25.282-.5.592-.74.926.24-.02.48-.02.73-.02zm2.28 1.762c.168-.377.315-.75.436-1.108-.372-.075-.767-.134-1.178-.177.132.206.26.416.386.634.13.22.25.44.36.66zM7.634 26.05c.494-.1 1.026-.175 1.58-.22.32-.462.65-.884.98-1.256-.798-.84-1.573-1.356-2.126-1.356-.12 0-.227.027-.316.078-.383.22-.498.926-.316 1.934.048.262.114.537.197.82zm-.27 3.43c.158-.48.36-.977.6-1.48-.24-.504-.442-1.002-.6-1.48-.288.07-.56.15-.81.24-.965.345-1.517.797-1.517 1.24 0 .44.552.893 1.517 1.24.25.09.52.17.81.24zm2.83 1.946c-.33-.372-.66-.795-.98-1.257-.555-.05-1.087-.12-1.58-.22-.084.28-.15.55-.198.82-.182 1-.068 1.71.316 1.93.09.05.195.07.315.07.553 0 1.328-.516 2.127-1.354zm3.108-1.477c-.494.1-1.026.17-1.58.22-.32.46-.65.88-.98 1.25.797.84 1.573 1.352 2.126 1.352.118 0 .225-.026.314-.077.383-.22.498-.926.316-1.934-.048-.262-.114-.537-.197-.82zM15.9 28c0-.44-.553-.893-1.517-1.24-.25-.09-.52-.17-.81-.24-.158.48-.36.977-.6 1.48.24.504.442 1.002.6 1.48.288-.07.56-.15.81-.24.964-.345 1.517-.797 1.517-1.24z" fill="#fff" fill-rule="nonzero"/></svg>