<svg viewBox="0 0 128 31" xmlns="http://www.w3.org/2000/svg" fill-rule="evenodd" clip-rule="evenodd" stroke-linejoin="round" stroke-miterlimit="1.414"><path d="M20.193 16.134c-.041-2.476 1.029-4.404 3.206-5.784-1.228-1.786-3.039-2.789-5.434-3.014-.852-.08-1.941.122-3.266.609-1.425.529-2.227.791-2.405.791-.376 0-1.099-.222-2.169-.669-1.068-.447-1.979-.67-2.732-.67a6.77 6.77 0 0 0-3.533 1.05c-1.089.68-1.96 1.61-2.613 2.785C.415 12.694 0 14.44 0 16.469c0 1.826.306 3.652.919 5.479.574 1.746 1.308 3.278 2.198 4.596.791 1.198 1.486 2.07 2.078 2.619.853.852 1.722 1.258 2.615 1.217.573-.021 1.325-.234 2.256-.641.87-.383 1.742-.576 2.613-.576.811 0 1.652.192 2.524.576.969.407 1.762.61 2.376.61.91-.04 1.761-.436 2.554-1.186.276-.245.578-.579.905-1.005a31.79 31.79 0 0 0 1.084-1.522c.289-.447.561-.904.817-1.37a13.88 13.88 0 0 0 .727-1.553c.098-.223.187-.451.267-.684.079-.234.158-.471.238-.715a6.61 6.61 0 0 1-1.99-1.372c-1.305-1.296-1.968-2.9-1.988-4.808zm21.532 5.427h-.144L35.551 7.78h-4.736v22.235h4.127V15.614h.192l5.04 11.435h2.894l5.024-11.435h.192v14.401h4.175V7.78h-4.703l-6.031 13.781zM16.45 4.871c1.05-1.319 1.575-2.74 1.575-4.262V.305c0-.102-.01-.204-.03-.305-.733.041-1.509.274-2.331.7-.821.427-1.499.965-2.035 1.613-1.068 1.28-1.603 2.649-1.603 4.11v.289c0 .092.01.188.029.29 1.644.162 3.109-.549 4.395-2.131zm84.246 2.909h4.639v22.235h-4.639V7.78zm18.65 3.534c2.751 0 4.206 2.118 4.206 4.399H128v-.473c0-4.3-3.28-7.883-8.687-7.883-5.791 0-9.246 3.811-9.246 10.311v2.509c0 6.498 3.423 10.262 9.23 10.262 5.551 0 8.703-3.634 8.703-7.673v-.488h-4.448c0 2.298-1.423 4.203-4.174 4.203-2.816 0-4.608-2.004-4.608-6.289v-2.507c0-4.27 1.808-6.371 4.576-6.371zM70.201 21.821c0 2.982-1.744 4.626-4.303 4.626-2.575 0-4.319-1.629-4.319-4.626V7.78h-4.607v14.693c0 4.741 3.359 7.966 8.925 7.966 5.552 0 8.926-3.225 8.926-7.966V7.78h-4.622v14.041zm19.97-4.756l-3.311-.749c-1.951-.408-2.975-1.271-2.975-2.558 0-1.71 1.391-2.786 3.632-2.786 2.527 0 3.791 1.45 3.903 3.014h4.319c-.048-3.926-3.327-6.662-8.207-6.662-4.622 0-8.27 2.427-8.27 6.793 0 3.779 2.56 5.537 5.632 6.207l3.278.764c2.208.505 3.328 1.239 3.328 2.753 0 1.728-1.376 2.901-3.951 2.901-2.768 0-4.224-1.467-4.351-3.112H78.75c.066 3.144 2.145 6.809 8.576 6.809 5.406 0 8.75-2.688 8.75-7.055-.001-4.04-2.705-5.62-5.905-6.319z" fill="#231f20" fill-rule="nonzero"/></svg>