<svg viewBox="0 0 129 28" xmlns="http://www.w3.org/2000/svg" fill-rule="evenodd" clip-rule="evenodd" stroke-linejoin="round" stroke-miterlimit="1.414"><path d="M16.612 6.634c-2.261-.167-4.179 1.263-5.248 1.263-1.086 0-2.76-1.227-4.535-1.195-2.33.036-4.479 1.356-5.68 3.444-2.421 4.203-.618 10.429 1.74 13.837 1.153 1.668 2.528 3.544 4.335 3.476 1.74-.069 2.397-1.127 4.499-1.127 2.101 0 2.694 1.127 4.533 1.091 1.871-.033 3.058-1.698 4.202-3.375 1.325-1.933 1.87-3.804 1.902-3.906-.042-.014-3.649-1.401-3.685-5.556-.032-3.473 2.836-5.144 2.967-5.225-1.629-2.397-4.144-2.661-5.03-2.727zM106.971 20.2v.368c0 3.627-2.653 6.872-7.977 6.872-5.309 0-8.465-3.333-8.465-9.158v-2.433c0-5.765 3.171-9.202 8.479-9.202 4.984 0 7.963 3.142 7.963 7.064v.206h-3.997c0-1.99-1.268-3.76-3.937-3.76-2.846 0-4.277 1.902-4.277 5.692v2.433c0 3.834 1.417 5.619 4.306 5.619 2.876 0 3.908-1.623 3.908-3.701h3.997zm-72.686 1.15h.059l3.584-14.378h4.232l3.598 14.378h.059l3.334-14.378h4.453l-5.589 20.13h-4.233l-3.701-13.76h-.074l-3.702 13.76h-4.202l-5.604-20.13h4.454l3.332 14.378zm81.298-6.297h8.228V6.972H128v20.13h-4.189v-8.583h-8.228v8.583h-4.173V6.972h4.173v8.081zM87.83 6.972v3.48h-6.001v16.65H77.67v-16.65h-5.987v-3.48H87.83zm-22.548 0l6.474 20.129h-4.469l-1.435-5.073h-6.367l-1.458 5.073h-4.173l6.489-20.129h4.939zm-.303 11.96l-2.262-7.993h-.044l-2.297 7.993h4.603zM15.125 4.491c-.966 1.108-2.487 1.951-3.98 1.836-.212-1.576.568-3.22 1.456-4.248C13.592.921 15.263.054 16.645 0c.178 1.606-.469 3.224-1.429 4.382l-.045.055-.046.054z"/></svg>