<svg viewBox="0 0 106 129" xmlns="http://www.w3.org/2000/svg" fill-rule="evenodd" clip-rule="evenodd" stroke-linejoin="round" stroke-miterlimit="1.414"><path d="M87.988 69.002c.18 19.37 16.993 25.817 17.18 25.9-.143.454-2.687 9.185-8.858 18.204-5.335 7.798-10.872 15.566-19.594 15.727-8.572.16-11.328-5.082-21.126-5.082-9.796 0-12.858 4.924-20.97 5.244-8.42.318-14.83-8.432-20.21-16.2C3.416 96.898-4.984 67.884 6.296 48.3 11.9 38.573 21.912 32.415 32.78 32.257c8.268-.158 16.07 5.562 21.127 5.562 5.05 0 14.533-6.88 24.503-5.87 4.174.173 15.89 1.685 23.41 12.696-.605.375-13.977 8.16-13.832 24.354M71.88 21.438C76.35 16.028 79.36 8.494 78.54 1c-6.444.26-14.236 4.294-18.857 9.7-4.142 4.79-7.77 12.454-6.79 19.8 7.18.556 14.518-3.65 18.987-9.063" fill-rule="nonzero"/></svg>