<svg viewBox="0 0 128 39" xmlns="http://www.w3.org/2000/svg" fill-rule="evenodd" clip-rule="evenodd" stroke-linejoin="round" stroke-miterlimit="1.414">
    <path d="M18.819.625c-1.676 4.109-2.687 6.796-4.552 10.783 1.144 1.213 2.548 2.625 4.828 4.22-2.451-1.009-4.124-2.022-5.374-3.073C11.333 17.538 7.592 24.636 0 38.277c5.967-3.445 10.593-5.568 14.904-6.379a10.883 10.883 0 0 1-.283-2.556l.007-.191c.094-3.823 2.083-6.763 4.439-6.563 2.356.199 4.187 3.462 4.092 7.285-.018.72-.099 1.412-.24 2.054 4.264.834 8.84 2.952 14.726 6.35-1.16-2.136-2.196-4.063-3.186-5.897-1.558-1.208-3.184-2.78-6.499-4.482 2.279.592 3.91 1.275 5.182 2.039C23.083 11.209 22.269 8.72 18.819.625zm19.167 34.292h-.155v-1.033h-.385v-.138h.927v.138h-.387v1.033zm1.665 0h-.149v-.98l-.34.98h-.14l-.338-.997v.997h-.149v-1.171h.233l.277.829.056.173.062-.187.28-.815h.208v1.171zm73.166-9.131l-1.432.293-.007-2.559c0-.11-.787 2.858-4.58 2.792-3.683-.02-4.286-2.871-4.266-3.511l-.045-8.997 1.522-.307.023 8.887c.001.243.292 2.489 2.894 2.497 2.603.007 4.426-1.567 4.439-3.938l-.019-7.012 1.417-.361.054 12.216zm2.808-12.147l3.622 4.619 3.103-4.429 1.048.886-3.407 4.787 4.271 5.918-.986.787-3.985-5.536-3.862 5.407-1.065-.79 4.107-5.823-3.851-5.04 1.005-.786zm-44.55-5.21l.008 4.717c-.653.525-1.321 1.232-2.117 2.255.861-.724 1.737-1.292 2.504-1.884.448-.266 1.329-.626 2.919-.628 3.346.014 5.428 2.001 5.408 2.943l-.012 9.78-3.085.545-.056-9.223c.006-.159-.423-1.418-2.342-1.438-2.007-.041-3.208 1.242-3.215 2.078l-.036 7.967-3.128.565-.024-16.93 3.176-.747zm18.912 5.311l1.432-.293.007 2.559c0 .11.787-2.858 4.58-2.792 3.683.02 4.286 2.871 4.266 3.511l.045 8.997-1.256.272-.007-8.886c.015-.26-.574-2.455-3.177-2.463-2.602-.007-4.405 1.89-4.402 3.103l.021 7.829-1.455.38-.054-12.217zm-49.481-1.487c-1.829-.003-3.347.372-3.934.577l-.605 3.262c-.001.012 3.008-.802 4.334-.754 2.194.079 2.396.839 2.358 1.864.037.06-.566-.927-2.465-.96-2.395-.041-5.776.848-5.771 4.464-.065 4.067 3.038 5.263 5.151 5.285 1.899-.035 2.79-.719 3.278-1.086.641-.671 1.375-1.344 2.074-2.153-.662 1.202-1.236 2.034-1.833 2.67v.537l2.888-.485.019-7.849c-.029-1.111.638-5.362-5.494-5.372zm26.329 2.431c-.032-.015-1.754-2.014-5.216-2.029-3.242-.054-6.879 1.203-6.938 6.64.029 4.78 3.494 6.648 6.956 6.685 3.705.038 5.18-2.317 5.268-2.376-.442-.383-2.098-2.024-2.098-2.024s-1.034 1.473-3.041 1.492c-2.007.019-3.752-1.552-3.776-3.743-.026-2.191 1.604-3.378 3.791-3.474 1.894-.001 2.987 1.222 2.987 1.222l2.067-2.393zm-18.931-1.706l3.062-.526s-.005.717.003 1.912c.764-.626.82-1.899 5.213-1.889-.191.439-.976 2.369-1.393 3.124-1.967-.02-3.534 1.262-3.535 2.359l-.005 7.369-3.364.648.019-12.997zm38.467.985l1.255-.559.011 12.238-1.213.251-.053-11.93zm-3.895-5.094l1.433-.359.067 17.068-1.455.248-.045-16.957zm43.82 16.167h-.158V23.98h-.395v-.142h.949v.142h-.396v1.056zm.714 0h-.153v-1.198h.239l.283.848.057.177a14 14 0 0 1 .064-.192l.287-.833H128v1.198h-.153v-1.002l-.348 1.002h-.143l-.346-1.02v1.02zm-86.919-5.95c1.197.017 2.57.607 2.572 2.027.006 1.291-1.618 1.986-2.674 1.975-1.057-.011-2.459-.831-2.465-2.09.02-1.125 1.322-1.941 2.567-1.912zm45.981-9.537l1.013-.826.841.936-1.013.848-.841-.958zm0 0"/>
</svg>
