<svg viewBox="0 0 98 128" xmlns="http://www.w3.org/2000/svg" fill-rule="evenodd" clip-rule="evenodd" stroke-linejoin="round" stroke-miterlimit="1.414"><path d="M37.43 115.035l5.22-2.132.957-3.41 5.54-2.232 1.068 2.56 4.58-1.81-6.287-15.72-5.22 2.016-5.86 20.736zm10.656-11.078l-3.624 1.703 1.595-6.482h.213l1.816 4.78zm7.774 3.512l4.44-1.81v-7.44h.22l4.455 5.73 4.342-1.914-4.234-5.306.21-.21c2.22-1.806 2.958-4.565 2.958-5.944 0-3.615-3.16-4.574-4.12-4.574-.42 0-1.19.106-1.96.424l-6.303 2.448v18.586zM60.3 90.9l1.1-.425c.326-.105.985-.213 1.206-.213.658 0 1.21.317 1.21 1.378 0 1.17-.66 3.184-2.968 4.033l-.55.208V90.9zM31.63 51.02L1.85 63.062V38.456L92.5 1.92v97.525l-60.87 24.617V51.025zm40.322 49.92l6.44-2.57c3.47-1.394 7.805-4.823 7.805-12.32 0-6.913-3.702-7.44-5.075-7.44-.945 0-1.996.208-2.945.635l-6.225 2.535v19.16zM29.78 124.67l5.06 3.332 62.806-25.342V2.666L92.5 0 0 37.286V63.81l4.834 3.195L29.78 56.992v67.68zm46.612-40.438l2.207-.86c.63-.212 1.05-.318 1.47-.318.63 0 1.68.43 1.68 3.748 0 4.61-2.42 6.858-4.735 7.607l-.63.21V84.23z"/></svg>