<svg viewBox="0 0 128 28" xmlns="http://www.w3.org/2000/svg" fill-rule="evenodd" clip-rule="evenodd" stroke-linejoin="round" stroke-miterlimit="1.414">
    <path d="M125.084 2.672h-.627v1.203h.627c.354 0 .603-.045.745-.133.143-.089.215-.24.215-.451 0-.219-.076-.378-.227-.474-.15-.096-.395-.145-.733-.145zM40.861 28h-.939.939zm3.709 0h-.939.939zm71.699-17.098c7.431 2.193 7.283 14.561-2.713 14.535l-22.906-.059.023-6.715 23.37.152c1.688.011 1.496-2.551 0-2.699-6.249-.621-11.017-.874-17.266-1.496-3.072-.305-5.285-2.748-5.839-5.297l25.331 1.579zM61.159.422h6.711v6.512h-6.711V.422zm6.711 7.464v8.826c0 1.224.73 2.229 1.623 2.229h12.415c.893 0 1.623-1.003 1.623-2.229v-7.85l6.649.414v9.588c0 3.141-3.084 6.574-6.39 6.574H67.548c-3.306 0-6.389-3.24-6.389-6.387V7.467l6.711.419zm15.661-.952V.422h6.649v6.512h-6.649zM8.417 25.282L19.759 8.07l-3.33-.278-4.615-.386L0 25.279l8.417.003zm12.09-18.348h9.592l.037-6.512-11.219.004c-1.724 0-2.96.711-3.891 2.12l-2.901 4.388h8.382zm2.628 1.419v17.085h6.859l.094-16.504-1.882-.157-5.071-.424zm37.342 6.61c1.914 4.39-.247 10.492-7.271 10.474L30.3 25.378l.023-6.715 23.37.153c1.689.01 1.496-2.551 0-2.7-6.249-.621-11.017-.874-17.266-1.496-3.213-.319-5.487-2.977-5.905-5.65l25.014 2.092a3.885 3.885 0 0 1 .245.026l.013.001.07.01.014.002.086.014.007.001.074.013h.005l.082.016a.457.457 0 0 1 .036.007l.012.002.102.023.006.002.095.023h.001l.048.013c.061.016.122.033.182.052l.044.013.056.019a4.795 4.795 0 0 1 1.021.475l.053.034.018.011.04.025a5 5 0 0 1 .373.266l.038.029c.099.078.194.159.288.242l.005.005.074.068.008.007.064.061.006.005a7.435 7.435 0 0 1 .394.41l1.381 2.026zm-.933-1.474l.083.112.002.003c.038.053.076.105.113.159l-.198-.274zm.672 1.014l.097.167.005.008.008.014.151.271-.261-.46zM36.374.422h23.711v6.512H30.474v-.879c0-1.917 3.454-5.633 5.9-5.633zm60.35 0h23.711v6.512H90.824v-.879c0-1.917 3.454-5.633 5.9-5.633zm28.455 1.909c.47 0 .82.076 1.046.226.226.15.338.384.338.699a.854.854 0 0 1-.214.591.917.917 0 0 1-.575.289l.746 1.544h-.576l-.705-1.472h-.782V5.68h-.503V2.331h1.225zm2.504 1.733a2.65 2.65 0 0 0-.191-1.002 2.468 2.468 0 0 0-.547-.831 2.567 2.567 0 0 0-.848-.565 2.582 2.582 0 0 0-1.004-.197c-.345 0-.671.064-.98.19-.309.129-.59.318-.827.555-.25.256-.443.542-.577.857a2.5 2.5 0 0 0-.201.985c0 .341.066.668.197.979a2.631 2.631 0 0 0 1.407 1.405 2.589 2.589 0 0 0 1.975-.002 2.69 2.69 0 0 0 .858-.571c.241-.235.424-.505.55-.81.126-.305.188-.635.188-.993zm-2.59-2.919c.4 0 .778.073 1.132.218.353.145.672.361.938.635.268.266.479.584.62.934.145.354.217.726.217 1.12 0 .397-.07.77-.213 1.116a2.706 2.706 0 0 1-.624.924 2.986 2.986 0 0 1-.96.644 2.825 2.825 0 0 1-1.111.225 2.836 2.836 0 0 1-2.047-.861 2.843 2.843 0 0 1-.854-2.048c0-.38.075-.75.225-1.107.15-.36.369-.687.645-.963a2.75 2.75 0 0 1 .92-.623 2.88 2.88 0 0 1 1.112-.214z"/>
</svg>
