<svg viewBox="0 0 129 28" xmlns="http://www.w3.org/2000/svg" fill-rule="evenodd" clip-rule="evenodd" stroke-linejoin="round" stroke-miterlimit="1.414"><path d="M89.95 18c-1.86-.48-1.86-.5-1.86-1.52 0-.687.068-1.015 1.6-1.015 1.052 0 2.6.18 3.596.354.136.02.276-.01.388-.1.112-.08.184-.21.2-.35l.284-2.285c.02-.26-.14-.5-.4-.56-1.16-.266-2.76-.44-4.08-.44-4.62 0-5.56 1.74-5.56 4.354 0 2.873.53 3.84 4.064 4.7 2.328.56 2.328.975 2.328 1.665 0 .906-.08 1.22-1.6 1.22-1.228 0-2.648-.19-3.896-.524-.14-.034-.28-.012-.4.06-.12.078-.206.2-.232.34L84 26.08c-.046.25.1.495.34.573 1.364.44 3.32.74 4.756.74 4.468 0 5.38-1.88 5.38-4.68 0-3.1-.548-3.68-4.532-4.734l.006.02zm-11.586 0c-1.86-.48-1.86-.5-1.86-1.52 0-.687.068-1.015 1.6-1.015 1.05 0 2.6.18 3.596.354.136.02.276-.01.388-.1.112-.08.184-.21.2-.35l.284-2.285c.032-.26-.136-.5-.39-.56-1.14-.266-2.74-.44-4.06-.44-4.608 0-5.56 1.74-5.56 4.354 0 2.873.54 3.84 4.072 4.7 2.328.56 2.328.975 2.328 1.665 0 .906-.08 1.22-1.6 1.22-1.23 0-2.65-.19-3.9-.524-.14-.034-.28-.012-.4.06-.12.078-.206.2-.232.34l-.4 2.17c-.04.25.1.496.346.574 1.36.44 3.316.74 4.754.74 4.46 0 5.38-1.88 5.38-4.68 0-3.1-.556-3.68-4.54-4.734l-.006.02zM37.354 7.494c-.066-.212-.26-.356-.484-.356h-4.737c-.22 0-.42.143-.486.353L25.67 26.43c-.046.15-.02.32.076.45s.248.207.41.207h3.26c.226 0 .424-.15.488-.36l4.117-13.94s.11-.35.48-.35c.38 0 .48.36.48.36l1.91 6.61h-2.56c-.22 0-.42.153-.48.37l-.74 2.62c-.04.15 0 .32.08.44.1.127.26.2.42.2h4.37l1.15 3.693c.064.21.26.354.48.354h3.26c.16 0 .316-.08.412-.21.1-.132.128-.3.08-.454L37.38 7.46l-.02.032zm62.3 4.894h-3c-.28 0-.506.227-.506.507v13.72c0 .28.228.512.508.512h3c.28 0 .507-.227.507-.51V12.9c0-.28-.22-.503-.5-.503l-.01-.008zm-42.54-5.62h-3c-.28 0-.506.227-.506.507v19.34c0 .28.228.512.508.512h3c.28 0 .506-.227.506-.51V7.28c0-.28-.22-.503-.5-.503l-.008-.008zm67.44 5.325c-1.585 0-3.75.548-5.58 1.408l-.22-.74c-.06-.22-.26-.365-.485-.365h-2.22c-.28 0-.51.227-.51.507v13.72c0 .28.22.51.5.51h3c.28 0 .51-.226.51-.51v-9.5c1.08-.55 2.6-1.12 3.503-1.12.676 0 .926.254.926.93v9.68c0 .284.23.51.51.51h3c.28 0 .506-.226.506-.51V16.54c0-2.945-1.16-4.44-3.442-4.44h-.002zM11.164 20.25c-.08-.08-.194-.165-.39-.165-.25 0-.396.172-.452.256-1.4 2.14-2.12 4.16-2.22 6.19-.003.15.053.3.155.41.1.12.25.18.4.18h3.324c.29 0 .53-.22.55-.5.08-.98.38-1.96.94-2.98.19-.36.04-.69-.07-.833-.55-.72-1.223-1.48-2.223-2.526l-.004-.02zm55.677 1.46v1.767c-.49.28-1.39.66-2.48.66-.93 0-1.22-.28-1.22-1.22 0-.9.18-1.184 1.28-1.184h2.42v-.022zm42.62 0v1.767c-.5.28-1.4.66-2.48.66-.93 0-1.22-.28-1.22-1.22 0-.9.18-1.184 1.28-1.184h2.42v-.022zm-57.89 2.485c-.02-.144-.1-.27-.22-.35-.12-.08-.262-.104-.402-.07-.54.132-1.04.204-1.44.204-.74 0-1.08-.32-1.08-1.04v-7.27h2.91c.28 0 .508-.23.508-.51v-2.27c0-.28-.23-.51-.51-.51h-2.9V8.89c0-.15-.068-.287-.18-.385-.11-.097-.26-.14-.4-.12l-3 .42c-.252.033-.44.247-.44.5v3.08H42.78c-.28 0-.508.227-.508.507v2.28c0 .28.24.512.52.512h1.632v7.73c0 2.657 1.394 4 4.146 4 .78 0 2.112-.18 2.98-.48.23-.08.372-.313.334-.56l-.325-2.17.01-.015zM64.83 12.1c-1.52 0-3.368.24-4.71.61-.26.07-.42.315-.38.57l.346 2.18c.02.133.1.253.21.333.112.08.252.1.388.08 1.246-.24 2.534-.38 3.624-.38 2.16 0 2.508.46 2.508 1.92v1.28h-3.2c-3.068 0-4.38 1.26-4.38 4.24 0 2.84 1.44 4.46 3.94 4.46 1.454 0 2.906-.4 4.126-1.14l.13.466c.06.22.26.37.49.37h2.436c.28 0 .506-.23.506-.51v-9.12c0-3.92-1.63-5.38-6.02-5.38l-.018.01zm42.613 0c-1.52 0-3.36.24-4.7.61-.25.07-.41.315-.365.57l.35 2.18c.02.133.1.253.21.333.114.08.254.1.39.08 1.24-.24 2.52-.38 3.62-.38 2.16 0 2.5.46 2.5 1.92v1.28h-3.2c-3.08 0-4.392 1.26-4.392 4.24 0 2.84 1.437 4.46 3.94 4.46 1.453 0 2.9-.4 4.12-1.14l.13.466c.06.22.26.37.49.37h2.42c.28 0 .51-.23.51-.51v-9.12c0-3.92-1.63-5.38-6.02-5.38l.005.01zM24.65 6.86c-.1-.075-.215-.113-.333-.113-.08 0-.14.012-.2.036-1.2.454-2.4.8-3.5 1.054-.22.06-.416.22-.48.42-.8 2.2-2.86 4.3-5 6.48-.08.08-.2.2-.4.2s-.32-.1-.4-.186c-2.16-2.19-4.2-4.27-5-6.47-.08-.2-.26-.36-.48-.42-1.1-.26-2.32-.61-3.5-1.06-.06-.02-.136-.03-.2-.03-.12 0-.236.04-.334.113-.152.11-.23.3-.212.48.18 1.826.91 3.61 2.21 5.48 1.23 1.76 2.82 3.39 4.37 4.964 2.84 2.9 5.53 5.64 5.768 8.82.02.284.26.506.544.506h3.34c.15 0 .296-.06.4-.17.104-.11.16-.256.15-.406-.106-2.123-.906-4.25-2.446-6.503-.32-.47-.66-.93-1.023-1.38-.146-.18-.084-.41.028-.522l.34-.344c1.547-1.57 3.14-3.2 4.37-4.96 1.3-1.865 2.02-3.64 2.205-5.465.02-.185-.064-.38-.212-.493l.01-.015zm-9.9 1.64c1.047 0 1.655-.067 1.867-.067.24 0 .5.2.5.5 0 .08-.02.14-.04.2-.14.368-.78 1.704-1.96 2.85-.14.128-.28.152-.38.152-.1 0-.26-.024-.394-.152-1.18-1.146-1.812-2.48-1.95-2.854-.02-.06-.04-.12-.04-.21 0-.29.246-.51.504-.51.214 0 .82.06 1.868.06h.004l.02.02zm84.902-1.727H96.66c-.28 0-.508.22-.508.5v2.64c0 .28.228.508.508.508h3c.28 0 .507-.22.507-.5V7.26c0-.28-.227-.505-.507-.505l-.008.024zM29.36.475c-.133-.18-.34-.28-.56-.28-.113 0-.225.024-.32.08-4.1 2.24-8.847 3.426-13.735 3.428-4.886 0-9.634-1.188-13.73-3.43-.1-.06-.21-.08-.32-.08-.22 0-.43.1-.56.28-.194.24-.2.68.13.94 2.05 1.52 4.312 2.72 6.72 3.54 2.5.84 5.108 1.28 7.76 1.28 2.654 0 5.264-.44 7.76-1.28 2.41-.82 4.672-2.02 6.726-3.54.33-.26.32-.7.13-.96v.022z"/></svg>