<svg viewBox="0 0 128 33" xmlns="http://www.w3.org/2000/svg" fill-rule="evenodd" clip-rule="evenodd" stroke-linejoin="round" stroke-miterlimit="1.414"><path d="M115.75 19.943c0-2.605-1.065-5.62-4.378-9.823L103.382 0H92.258l6.333 7.1c1.067 1.184 2.426 2.248 2.426 2.248-1.54-.887-3.49-1.242-5.03-1.242-3.668 0-7.396.77-10.71 2.604-3.55 1.952-5.92 5.207-5.92 9.528 0 3.313 1.482 5.858 3.375 7.81 4.26 4.263 12.013 4.676 14.854 4.676 4.202 0 10.772-.948 14.498-4.32 2.192-2.012 3.67-4.793 3.67-8.46zM128 8.758h-9.646v23.197H128V8.758zM48.703 31.955L27.398 0H15.445l3.303 3.905L0 31.955h10.77l3.213-5.266h20.314l3.28 5.264h11.126zM76.93 22.25V8.758h-9.348v10.356c0 2.96-.12 3.786-.297 4.555-.65 2.13-2.9 3.076-5.21 3.076-3.195 0-4.675-1.243-5.265-3.196-.18-.65-.237-1.358-.296-2.07-.06-.768 0-1.597 0-2.485V8.758h-9.468v13.55c0 3.02 1.005 5.267 2.662 6.807 2.84 2.78 7.634 3.61 12.073 3.61 5.386 0 9.53-.77 12.488-3.67 1.54-1.48 2.664-3.432 2.664-6.805zm29.59-2.012c0 2.425-1.598 4.26-3.61 5.266-1.656.888-3.61 1.124-5.327 1.124-1.716 0-3.728-.353-5.385-1.183-2.012-1.005-3.55-2.958-3.55-5.09 0-2.543 1.952-4.555 4.26-5.562 1.42-.652 3.137-.888 4.497-.888 1.302 0 3.197.177 4.675.77 2.664 1.125 4.44 3.254 4.44 5.563zm-75.978.215H17.667l6.416-10.586 6.46 10.586z"/></svg>