<svg viewBox="0 0 64 64" xmlns="http://www.w3.org/2000/svg" fill-rule="evenodd" clip-rule="evenodd" stroke-linejoin="round" stroke-miterlimit="1.414"><path d="M19.568 32c3.183-1.885 5.228-4.653 5.228-8.78 0-4.412-2.62-10.244-13.587-10.244-5.32 0-11.21.197-11.21.197v40.862h9.35c11.903 0 18.2-4.386 18.2-12.69 0-4.942-3.107-8.21-7.99-9.346zm-8.29 16.338H6.635v-30.1c.065 0 2.083-.026 3.34-.026 5.18 0 8.053 2.68 8.134 6.356.05 2.233-.62 4.374-2.89 5.95-1.86 1.288-4.45 1.672-4.45 1.672v.97s3.59.534 5.41 1.386c3.39 1.584 4.4 4.047 4.422 7.23.037 5.034-4.82 6.562-9.334 6.562zM56.023 9.965c4.407 0 7.976 3.57 7.976 7.973 0 4.403-3.57 7.974-7.98 7.974-4.4 0-7.97-3.57-7.97-7.974s3.57-7.973 7.97-7.973zm0 1.17c-3.757 0-6.802 3.046-6.802 6.803 0 3.758 3.05 6.805 6.81 6.805s6.808-3.047 6.808-6.805c0-3.757-3.047-6.803-6.805-6.803zm-18.24 22.942c4.656-1.61 7.988-5.323 7.988-10.837 0-1.38-.7-4.734-3.23-6.897-1.673-1.426-4.092-3.113-11.902-3.302-1.613-.03-6.524.14-6.524.14v.28c1.387 1.06 2.878 2.82 3.595 4.84.746-.02 1.876-.08 2.992-.02 3.137.168 4.503.754 5.916 1.865 1.423 1.116 2.187 3.033 2.178 4.77-.01 2.37-1.134 4.824-4.56 6.22-2.772 1.13-6.124 1.38-6.124 1.38l-.005.864s2.008.96 4.014 3.613c1.725 2.284 11.76 17.05 11.76 17.05h8.283S38.77 35.383 37.79 34.08zm21.445-12.91v-7.982l-8.028 2.88v1.984l2.658-.97v6l5.37-1.92z" fill="#fff"/></svg>