<svg viewBox="0 0 128 89" xmlns="http://www.w3.org/2000/svg" fill-rule="evenodd" clip-rule="evenodd" stroke-linejoin="round" stroke-miterlimit="1.414"><path d="M39.138 44.07c6.366-3.77 10.456-9.306 10.456-17.56 0-8.824-5.24-20.488-27.174-20.488-10.64 0-22.42.394-22.42.394V88.14h18.7c23.806 0 36.4-8.772 36.4-25.38 0-9.884-6.214-16.42-15.98-18.692l.018.002zm-16.58 32.676h-9.286v-60.2c.13 0 4.166-.052 6.68-.052 10.36 0 16.106 5.36 16.268 12.712.1 4.466-1.24 8.748-5.78 11.9-3.72 2.576-8.9 3.344-8.9 3.344v1.94s7.18 1.068 10.82 2.772c6.78 3.168 8.8 8.094 8.844 14.46.074 10.068-9.64 13.124-18.668 13.124h.022zM112.048 0C120.862 0 128 7.14 128 15.946c0 8.806-7.14 15.948-15.96 15.948-8.8 0-15.94-7.14-15.94-15.948S103.24 0 112.04 0h.008zm0 2.34c-7.514 0-13.604 6.092-13.604 13.606 0 7.516 6.1 13.61 13.62 13.61s13.616-6.094 13.616-13.61c0-7.514-6.094-13.606-13.61-13.606h-.022zm-36.48 45.884c9.312-3.22 15.976-10.646 15.976-21.674 0-2.76-1.4-9.468-6.46-13.794C81.738 9.904 76.9 6.53 61.28 6.152c-3.226-.06-13.048.28-13.048.28v.56c2.774 2.12 5.756 5.64 7.19 9.68 1.492-.04 3.752-.16 5.984-.04 6.274.336 9.006 1.508 11.832 3.73 2.846 2.232 4.374 6.066 4.356 9.54-.02 4.74-2.268 9.648-9.12 12.44-5.544 2.26-12.248 2.76-12.248 2.76l-.01 1.728s4.016 1.92 8.028 7.226c3.45 4.568 23.52 34.1 23.52 34.1h16.566S77.542 50.836 75.582 48.23l-.014-.006zm42.89-25.82V6.44l-16.056 5.76v3.968l5.316-1.94v12l10.74-3.84v.016z"/></svg>