<svg viewBox="0 0 64 64" xmlns="http://www.w3.org/2000/svg" fill-rule="evenodd" clip-rule="evenodd" stroke-linejoin="round" stroke-miterlimit="1.414"><path d="M32 0c-3.136 0-6.166.454-9.03 1.294v17.474c2.59-1.715 5.692-2.715 9.03-2.715 9.04 0 16.37 7.33 16.37 16.37 0 9.04-7.33 16.37-16.37 16.37-9.04 0-16.317-7.33-16.317-16.37 0-.444-.035-.883 0-1.318V4.47C6.293 10.047 0 20.288 0 32c0 17.673 14.327 32 32 32 17.673 0 32-14.327 32-32C64 14.327 49.673 0 32 0zm9.346 32.276c0-5.25-4.255-9.505-9.505-9.505-5.247 0-9.503 4.258-9.503 9.507 0 5.25 4.256 9.505 9.505 9.505 5.25 0 9.506-4.255 9.506-9.504z" fill="#fff"/></svg>