<svg viewBox="0 0 128 128" xmlns="http://www.w3.org/2000/svg" fill-rule="evenodd" clip-rule="evenodd" stroke-linejoin="round" stroke-miterlimit="1.414"><path d="M64 0c-6.273 0-12.332.907-18.06 2.59v34.946c5.177-3.43 11.385-5.43 18.06-5.43 18.08 0 32.74 14.658 32.74 32.74 0 18.08-14.66 32.738-32.74 32.738-18.082 0-32.634-14.657-32.634-32.738 0-.887-.07-1.766 0-2.635V8.94C12.586 20.092 0 40.575 0 64c0 35.347 28.653 64 64 64 35.346 0 64-28.653 64-64 0-35.346-28.654-64-64-64zm18.692 64.553c0-10.5-8.51-19.01-19.01-19.01-10.498 0-19.01 8.51-19.01 19.01 0 10.498 8.512 19.01 19.01 19.01 10.5 0 19.01-8.512 19.01-19.01z"/></svg>