<svg viewBox="0 0 128 34" xmlns="http://www.w3.org/2000/svg" fill-rule="evenodd" clip-rule="evenodd" stroke-linejoin="round" stroke-miterlimit="1.414"><path d="M16.395 26.837c-.187 0-.28.094-.28.094s-2.343 1.88-6.56 1.88C5.34 28.81 3 26.93 3 26.93s-.187-.093-.28-.093c-.188 0-.376.094-.376.375v.093c.375 1.968.656 3.373.656 3.56.28 1.406 3.092 2.53 6.464 2.53 3.373 0 6.184-1.124 6.465-2.53 0-.187.28-1.592.65-3.56v-.093c.09-.188 0-.375-.19-.375zm19.018-4.59c1.218-.656 1.687-1.593 1.687-3V17.28c0-2.81-1.687-4.214-5.247-4.214h-7.12c-.28 0-.468.188-.468.47v18.36c0 .282.187.47.468.47h7.682c3.373 0 5.34-1.687 5.34-4.59v-1.97c0-1.685-.843-2.996-2.342-3.56zm7.308-4.123h-2.9c-.28 0-.47.188-.47.47v13.302c0 .28.19.47.47.47h2.91c.28 0 .47-.19.47-.47V18.593c0-.28-.19-.47-.47-.47zm69.8-.28c-3.93 0-5.9 1.967-5.9 5.62v3.654c0 3.748 1.97 5.528 6.09 5.528 1.69 0 3.47-.28 4.97-.844.187-.093.374-.28.28-.562l-.468-2.06c0-.095-.093-.282-.187-.282-.094-.094-.28-.094-.375-.094-1.31.375-2.622.563-3.84.563-2.155 0-2.53-.656-2.53-2.155v-.47h7.214c.28 0 .47-.186.47-.467v-2.623c-.094-3.935-1.874-5.81-5.715-5.81zm-51.43 11.43c-.75 0-1.31 0-1.87-.095v-7.22c.844-.38 1.968-.75 2.81-.75 1.125 0 1.594.47 1.594 1.5v4.21c0 1.593-.375 2.343-2.53 2.343zm66.61.28c0-.094-.09-.28-.183-.375-.094-.1-.28-.1-.375-.1-.562.09-1.03.19-1.405.19-.75 0-1.03-.28-1.03-1.03v-7.03h2.81c.28 0 .466-.19.466-.47v-2.15c0-.28-.186-.47-.467-.47h-2.81v-3.37c0-.19-.096-.285-.19-.378-.094-.094-.28-.094-.375-.094l-2.903.38c-.28 0-.47.28-.47.467v2.998h-1.59c-.28 0-.47.188-.47.47v2.153c0 .28.19.47.47.47h1.59v7.492c0 2.53 1.313 3.84 4.03 3.84.75 0 2.06-.185 2.904-.47.188-.09.376-.28.28-.56l-.28-1.966zm-74.102 0c0-.094-.093-.28-.187-.375-.093-.1-.28-.1-.374-.1-.47.09-1.03.19-1.405.19-.75 0-1.03-.28-1.03-1.03v-7.03h2.81c.28 0 .47-.19.47-.47v-2.15c0-.28-.19-.47-.47-.47H50.6v-3.37c0-.19-.094-.285-.188-.378-.094-.094-.28-.094-.375-.094l-2.902.38c-.28 0-.467.28-.467.467v2.998H45.07c-.28 0-.47.188-.47.47v2.153c0 .28.188.47.47.47h1.592v7.492c0 2.53 1.31 3.84 4.027 3.84.75 0 2.06-.185 2.9-.47.19-.09.375-.28.28-.56l-.28-1.966zm38.88-.187c0-.094-.094-.282-.187-.375-.093-.094-.28-.094-.374-.094-.843.187-1.686.28-2.53.28-1.873 0-2.342-.467-2.342-2.06v-3.84c0-1.594.562-2.062 2.342-2.062.47 0 1.5.094 2.53.28.093 0 .28 0 .374-.093.092-.093.186-.187.186-.375l.377-2.248c0-.28-.095-.468-.376-.562-1.123-.375-2.435-.47-3.184-.47-4.404 0-6.185 1.594-6.185 5.53v3.746c0 3.935 1.78 5.528 6.182 5.528 1.03 0 2.248-.187 3.185-.47.28-.092.375-.28.375-.56l-.376-2.155zm-64.27-.375h3.468c1.5 0 2.06-.375 2.06-1.593v-1.41c0-1.22-.466-1.69-1.78-1.69h-1.22c-.28 0-.47-.19-.47-.47V21.5c0-.282.19-.47.47-.47h.656c1.218 0 1.686-.468 1.686-1.592V17.75c0-.656-.182-1.312-1.68-1.312H28.2v12.554zm52.65-10.868h-2.9c-.28 0-.47.188-.47.47v9.18c-1.03.562-2.53 1.124-3.37 1.124-.657 0-.94-.28-.94-.937V18.6c0-.28-.19-.47-.47-.47H69.8c-.28 0-.468.19-.468.47v9.743c0 2.81 1.122 4.31 3.37 4.31 1.5 0 3.654-.563 5.434-1.406l.187.75c.097.188.285.376.47.376h2.157c.28 0 .468-.19.468-.47v-13.31c-.094-.19-.28-.47-.562-.47zm-71.3-6.744C4.31 11.38 0 12.783 0 14.563c0 .47 1.124 7.12 1.593 9.744.187 1.217 3.28 2.904 7.963 2.904 4.684 0 7.682-1.68 7.963-2.9.46-2.62 1.59-9.27 1.59-9.74-.1-1.78-4.31-3.184-9.56-3.184zm0 13.677c-1.685 0-2.997-1.312-2.997-2.998 0-1.69 1.31-3 2.996-3s2.998 1.31 2.998 3c0 1.59-1.312 2.99-2.998 2.99zm96.498 6.464l-3.842-6.37 3.75-6.27c.093-.19.093-.372 0-.47-.095-.183-.282-.28-.47-.28h-3.185c-.188 0-.376.097-.47.28L98.28 24.6V13.16c0-.282-.19-.47-.47-.47h-2.905c-.28 0-.47.188-.47.47V31.8c0 .28.19.47.47.47h2.904c.28 0 .47-.19.47-.47v-6.09l3.744 6.37c.094.19.28.283.375.283h3.184c.28 0 .47-.188.47-.47.092-.186.092-.28 0-.374zm4.403-7.96v-.47c0-1.4.655-1.96 2.06-1.96 1.593 0 1.874.75 1.874 1.97v.47h-3.934zM9.56 20.47c.826 0 1.5.678 1.5 1.5 0 .83-.674 1.5-1.5 1.5s-1.5-.67-1.5-1.5c0-.822.672-1.5 1.5-1.5zm53.494-2.62c-1.405 0-2.904.378-3.84.75v-5.34c0-.28-.188-.47-.47-.47H55.84c-.28 0-.47.19-.47.47v18.55c0 .28.19.47.375.47 1.78.28 3.935.47 5.153.47 5.434 0 6.558-2.342 6.558-5.81v-4.03c0-3.37-1.5-5.06-4.403-5.06zM39.82 16.16c-.28 0-.47-.188-.47-.47v-2.53c0-.282.19-.47.47-.47h2.905c.282 0 .47.282.47.47v2.528c0 .28-.188.47-.47.47H39.82zM9.558 15.5c-3.374 0-6.09-.56-6.09-1.31s2.716-1.312 6.09-1.312c3.372 0 6.09.562 6.09 1.31 0 .75-2.718 1.313-6.09 1.313zm37.567-7.4c-.468 0-1.218-.188-1.593-.47-.09 0-.09-.092-.09-.186l.187-.75.09-.093h.187c.47.1.936.19 1.404.19.57 0 .57-.18.57-.47 0-.18 0-.37-.845-.56-1.31-.28-1.5-.65-1.5-1.68 0-.936.282-1.59 1.97-1.59.467 0 1.123.09 1.5.186 0 0 .09.094.09.187l-.093.84-.093.094h-.188c-.166 0-.366-.017-.57-.037l-.177-.018c-.204-.02-.404-.04-.568-.04-.562 0-.562.093-.562.374 0 .38 0 .38.656.566 1.404.376 1.59.657 1.59 1.78 0 1.024-.37 1.678-1.93 1.688h-.036zM43 8.1c-.56 0-1.217-.188-1.873-.47-.094 0-.094-.092-.094-.186l.188-.75.1-.093h.19c.467.1.936.19 1.404.19.56 0 .56-.18.56-.47 0-.18 0-.37-.842-.56-1.31-.28-1.5-.65-1.5-1.68 0-.936.283-1.59 1.97-1.59.468 0 1.124.09 1.5.186.092 0 .186.094.186.187l-.092.844-.092.093h-.1c-.163 0-.363-.02-.567-.04l-.176-.017c-.204-.02-.404-.036-.57-.036-.57 0-.57.09-.57.37 0 .377 0 .377.658.564 1.405.377 1.593.658 1.686 1.78 0 1.025-.37 1.68-1.93 1.69H43zm16.96-5.528c-.563 0-1.313.188-2.062.47l-.094-.282c0-.094-.093-.094-.187-.094h-.843c-.094 0-.188.094-.188.187V7.82c0 .092.094.186.188.186h1.124c.094 0 .187-.094.187-.187V4.35c.375-.187.937-.374 1.312-.374.28 0 .375.093.375.374v3.47c0 .092.093.186.187.186h1.12c.09 0 .19-.094.19-.187V4.16c-.1-1.124-.47-1.593-1.31-1.593zm-8.995.094H49.84c-.093 0-.186.094-.186.187V7.82c0 .092.093.186.187.186h1.13c.098 0 .19-.094.19-.187V2.85c0-.093-.092-.187-.19-.187zM35.6.606h-1.124c-.093 0-.187.093-.187.186V7.82c0 .092.09.186.18.186h1.13c.09 0 .184-.094.184-.187V.79c0-.093-.094-.187-.187-.187zm-7.12.28c0-.094-.093-.094-.187-.094h-1.686c-.094 0-.188.094-.188.094l-2.16 6.84v.186c0 .094.09.094.183.094h1.22c.092 0 .185-.094.185-.094l1.5-5.06s0-.092.187-.092c.092 0 .186.093.186.093l.657 2.343h-.938c-.096 0-.19.093-.19.093l-.28.93v.184s.093.094.187.094h1.59l.376 1.312c0 .092.094.092.188.092h1.22c.094 0 .094 0 .19-.095v-.19L28.48.885zm9.65 5.996c.47 0 .75-.094.937-.187v-.75h-.937c-.375 0-.468.187-.468.468 0 .372.092.467.46.47h.008zm-4.497 0c0-.094 0-.094-.093-.094h-.188c-.187.094-.375.094-.562.094-.28 0-.375-.094-.375-.375V3.79h1.03c.095 0 .188-.093.188-.187v-.75c0-.093-.093-.187-.187-.187h-1.03V1.354c0-.093 0-.093-.094-.093 0 0-.094-.09-.188 0l-1.124.19c-.094 0-.187.1-.187.19v1.12h-.562c-.09 0-.18.098-.18.19v.845c0 .095.096.19.19.19h.563v2.81c0 .936.468 1.405 1.5 1.405.28 0 .748-.095 1.03-.19.374-.187.374-.187.374-.28l-.094-.844zm19.955 0c.47 0 .75-.094.937-.187v-.75h-.937c-.374 0-.468.187-.468.468 0 .372.092.467.46.47h.008zM38.41 2.572c-.56 0-1.217.094-1.685.188-.094 0-.187.093-.094.187l.1.75c0 .093 0 .093.098.093h.093c.47-.093.937-.093 1.31-.093.75 0 .938.187.938.655v.47H38.04c-1.125 0-1.593.467-1.593 1.498 0 1.03.562 1.592 1.405 1.592.56 0 1.03-.187 1.498-.374v.187c0 .094.094.094.187.094h.844c.09 0 .19-.1.19-.19V4.44c0-1.405-.56-1.874-2.152-1.874zm15.366 0c-.562 0-1.218.094-1.687.188-.1 0-.19.093-.1.187l.09.75c0 .093 0 .093.093.093h.094c.47-.093.937-.093 1.31-.093.75 0 .94.187.94.655v.47H53.4c-1.123 0-1.592.467-1.592 1.498 0 1.03.562 1.592 1.406 1.592.562 0 1.03-.187 1.5-.374l.092.187c0 .094.094.094.188.094h.843c.094 0 .187-.1.187-.19V4.44c-.093-1.405-.656-1.874-2.248-1.874zM50.966.605H49.84c-.093 0-.186.094-.186.187v.937c0 .09.093.18.187.18h1.13c.098 0 .19-.096.19-.19V.79c0-.093-.092-.187-.19-.187z"/></svg>