<svg viewBox="0 0 128 23" xmlns="http://www.w3.org/2000/svg" fill-rule="evenodd" clip-rule="evenodd" stroke-linejoin="round" stroke-miterlimit="1.414"><path d="M109.19 6.537c-2.957 0-4.967 1.752-5.65 5.04-.287 1.414-1.365 6.384-1.365 6.384h2.774l1.34-6.21c.42-1.94 1.45-2.6 2.83-2.6.445 0 .73.054.876.078.08-.396.464-2.15.554-2.58-.295-.04-.77-.102-1.37-.102zm-84.812 6.876c.234-1.05 2.2-10.142 2.2-10.142h5.29c3.834 0 4.775 2.13 4.775 3.43 0 2.86-2.703 3.62-3.034 3.72.3.1 2.06.8 2.06 3.05 0 2.44-2.26 4.488-5.75 4.488h-1.59c-2.94 0-4.52-2.01-3.96-4.535zm53.368 0c.235-1.05 2.2-10.142 2.2-10.142h5.288c3.835 0 4.78 2.13 4.78 3.43 0 2.86-2.703 3.62-3.037 3.72.306.1 2.065.8 2.065 3.05 0 2.44-2.253 4.488-5.75 4.488h-1.595c-2.93 0-4.506-2.01-3.95-4.535zm47.71 2.652h-.65v1.88h-.31v-1.88h-.653v-.224h1.614v.23zm1.465 1.33h.01l.59-1.554h.48v2.11h-.31v-1.76h-.01l-.65 1.76h-.212l-.65-1.755h-.012v1.756h-.31v-2.11h.49l.595 1.556zm-87.29-2.613c0-.173.05-.5.2-1.186.154-.686 2.24-10.305 2.24-10.305h-2.78l-2.3 10.61c-.095.44-.14.89-.14 1.28 0 2.328 1.8 3.01 3.248 3.01.513 0 .99-.08 1.106-.1.05-.23.485-2.23.503-2.32-.062.01-.364.03-.72.03-1.03 0-1.355-.44-1.355-1.01zm58.47-.25c-.093.223-.77 1.165-2.28 1.165-2.17 0-2.66-1.84-2.61-2.346h8.456c.047-.2.238-.96.238-1.73 0-2.67-1.81-5.12-5.47-5.12-3.345 0-6.027 2.81-6.027 6.16 0 3.23 1.94 5.52 5.37 5.52 4.24 0 5.384-3.324 5.49-3.637H98.1zm-50.47-1.446c.618-.09 2.407-.36 2.648-.395l-.17.72c-.322 1.38-1.73 2.27-3.28 2.27-.988 0-1.568-.53-1.568-1.17 0-.52.48-1.14 2.375-1.42zm14.68.872c-.12.272-.76 1.5-2.352 1.5-1.85 0-2.568-1.53-2.568-2.673 0-1.88 1.266-3.573 3.135-3.573 2.01 0 2.49 1.496 2.53 1.767h2.966c.176-1.1-.7-4.48-5.38-4.48-3.424 0-6.156 2.73-6.156 6.38 0 2.99 1.868 5.29 5.33 5.29 4.31 0 5.475-3.38 5.624-4.22H62.31zm-29.65-.725c0-.69-.445-1.565-2.42-1.565h-2.56l-.77 3.55h2.905c1.877 0 2.845-.845 2.845-1.985zm53.37 0c0-.69-.448-1.565-2.42-1.565h-2.56l-.77 3.55h2.9c1.88 0 2.848-.845 2.848-1.985zm-73.764-.367c0-.704-.424-1.598-2.233-1.598h-2.8l-.792 3.67h2.91c2.27 0 2.915-1.073 2.915-2.072zm106.37 9.464l9.305-15.79h-2.993l-4.275 7.43-1-7.44h-3.202c-3.667 0-5.57 1.68-6.244 4.89-.34 1.6-1.413 6.54-1.413 6.54h2.77s1.02-4.69 1.426-6.58c.39-1.836 1.752-2.403 3.22-2.09l.586-2.695c.43 2.56 1.753 10.74 1.753 10.74l-2.904 4.993h2.97zM20.13 10.63c0-.705-.432-1.6-2.244-1.6h-2.79l-.79 3.67h2.905c2.27 0 2.92-1.075 2.92-2.07zm76.33-1.6c1.87 0 2.582 1.14 2.505 2.057h-5.34c.137-.583 1.03-2.055 2.835-2.055zm-17.44-2.5h-3.87l-4.966 4.48 1.674-7.743h-2.79l-3.176 14.68h2.796l.77-3.57 1.72-1.362 2.373 4.932h3.11l-3.363-6.605 5.73-4.81zM46.6 10.11c.066-.11.78-1.21 2.557-1.21 1.105 0 1.67.404 1.67.89 0 .69-1.112.87-3.04 1.147-3.314.475-5.41 1.506-5.41 3.897 0 1.697 1.407 3.348 3.91 3.348 2.082 0 3.168-1.252 3.262-1.348.01.302.05.752.07 1.113h2.87c-.103-.495-.304-1.442.035-2.96.18-.804.69-3.106.947-4.377.486-2.4-.83-4.1-4.216-4.1-4.34 0-5.59 3.126-5.797 3.604h3.14zM5.827 7.12c0-.707-.432-1.594-2.245-1.594H.792L0 9.186h2.91c2.27 0 2.918-1.073 2.918-2.07zm7.514 0c0-.707-.43-1.594-2.24-1.594H8.31L7.515 9.19h2.905c2.273 0 2.92-1.074 2.92-2.07zm20.26.2c0-.716-.54-1.33-1.87-1.33H28.9l-.64 2.965h2.946c1.588 0 2.397-.764 2.397-1.634zm53.38 0c0-.716-.545-1.33-1.876-1.33h-2.83l-.64 2.965h2.945c1.586 0 2.396-.764 2.396-1.634zM21.21 4.88c0-.704-.43-1.596-2.24-1.596h-2.79l-.796 3.67h2.903c2.275 0 2.92-1.075 2.92-2.072zM6.837 1.598C6.835.892 6.402 0 4.59 0H1.8l-.79 3.668h2.903c2.274 0 2.923-1.074 2.923-2.07zm7.513 0C14.35.892 13.92 0 12.11 0H9.32l-.792 3.668h2.905c2.275 0 2.92-1.074 2.92-2.07z"/></svg>