<svg viewBox="0 0 128 128" xmlns="http://www.w3.org/2000/svg" fill-rule="evenodd" clip-rule="evenodd" stroke-linejoin="round" stroke-miterlimit="1.414"><path d="M64 0c35.323 0 64 28.677 64 64s-28.677 64-64 64S0 99.323 0 64 28.677 0 64 0zm-2.539 96.898c9.565 0 12.285-4.517 12.285-8.735 0-2.973-1.81-6.741-9.444-6.741H52.524l-3.341 15.476h12.278zm45.069-20.385c0-2.962-1.821-6.741-9.461-6.741H85.303l-3.341 15.476h12.261c9.587 0 12.307-4.529 12.307-8.735zM78.297 63.918c0-2.973-1.809-6.718-9.449-6.718H57.077l-3.336 15.453H65.99c9.587-.001 12.307-4.529 12.307-8.735zm-45.091 8.735c9.564-.001 12.301-4.529 12.301-8.735 0-2.973-1.821-6.718-9.466-6.718H24.276l-3.349 15.453h12.279zm65.58-9.438c9.587 0 12.307-4.529 12.307-8.735 0-2.973-1.809-6.73-9.449-6.73H89.867l-3.342 15.465h12.261zm-61.351-13.84c9.587 0 12.324-4.529 12.325-8.735 0-2.973-1.827-6.729-9.467-6.729H28.516l-3.325 15.464h12.244zm32.807 0c9.588 0 12.319-4.529 12.319-8.735 0-2.973-1.821-6.729-9.472-6.729H61.335l-3.342 15.464h12.249z"/></svg>