<svg viewBox="0 0 64 64" xmlns="http://www.w3.org/2000/svg" fill-rule="evenodd" clip-rule="evenodd" stroke-linejoin="round" stroke-miterlimit="1.414"><path d="M54.595 29.687c-1.48 0-2.484.876-2.825 2.52-.144.707-.682 3.19-.682 3.19h1.387l.67-3.105c.213-.97.727-1.303 1.42-1.303.222 0 .364.02.44.03.038-.2.23-1.077.275-1.29-.148-.02-.385-.05-.685-.05zM12.19 33.125c.116-.526 1.098-5.072 1.098-5.072h2.645c1.918 0 2.388 1.065 2.388 1.713 0 1.43-1.35 1.81-1.51 1.86.156.05 1.03.4 1.03 1.523 0 1.22-1.123 2.24-2.87 2.24h-.796c-1.47 0-2.257-1.01-1.977-2.27zm26.683 0c.118-.526 1.1-5.072 1.1-5.072h2.644c1.917 0 2.39 1.065 2.39 1.713 0 1.43-1.352 1.81-1.518 1.86.15.05 1.03.4 1.03 1.523 0 1.22-1.13 2.24-2.88 2.24h-.8c-1.466 0-2.255-1.01-1.977-2.27zM62.73 34.45h-.327v.94h-.156v-.94h-.325v-.112h.807v.113zm.73.666h.005l.293-.778H64v1.053h-.155v-.87h-.004l-.32.88h-.106l-.325-.877h-.006v.878h-.157v-1.06h.243l.296.78zM19.812 33.81c0-.088.023-.25.098-.594.076-.343 1.12-5.153 1.12-5.153h-1.39l-1.15 5.304c-.05.22-.07.445-.07.638 0 1.163.9 1.504 1.623 1.504.257 0 .496-.04.553-.05l.252-1.16c-.03 0-.182.01-.36.01-.515 0-.678-.22-.678-.51zm29.235-.126c-.05.112-.385.582-1.14.582-1.085 0-1.333-.92-1.306-1.173h4.23c.03-.104.12-.48.12-.867 0-1.336-.9-2.56-2.73-2.56-1.672 0-3.013 1.405-3.013 3.077 0 1.615.97 2.76 2.687 2.76 2.12 0 2.69-1.662 2.744-1.82H49.05zm-25.232-.724c.306-.044 1.2-.18 1.32-.197l-.083.358c-.162.7-.865 1.14-1.64 1.14-.495 0-.785-.262-.785-.58 0-.26.24-.57 1.188-.71zm7.338.436c-.06.136-.38.75-1.177.75-.924 0-1.283-.765-1.283-1.335 0-.94.633-1.78 1.567-1.78 1.004 0 1.244.75 1.265.886h1.48c.088-.552-.35-2.24-2.688-2.24-1.714 0-3.08 1.364-3.08 3.19 0 1.495.934 2.646 2.666 2.646 2.155 0 2.736-1.69 2.81-2.107h-1.56zm-14.826-.362c0-.345-.223-.782-1.21-.782h-1.28l-.384 1.776h1.452c.938 0 1.422-.424 1.422-.994zm26.685 0c0-.345-.223-.782-1.21-.782h-1.28l-.384 1.776h1.45c.94 0 1.424-.424 1.424-.994zM6.13 32.85c0-.352-.214-.8-1.12-.8H3.616l-.397 1.836h1.45c1.13 0 1.452-.536 1.452-1.036zm53.183 4.732l4.652-7.895h-1.497l-2.138 3.715-.5-3.72h-1.6c-1.834 0-2.786.84-3.123 2.446-.17.8-.707 3.27-.707 3.27h1.387s.51-2.345.713-3.29c.194-.92.875-1.202 1.61-1.045l.292-1.348c.215 1.28.877 5.37.877 5.37l-1.46 2.497h1.484zm-49.252-5.85c0-.352-.21-.8-1.12-.8H7.55l-.396 1.835H8.6c1.137 0 1.46-.536 1.46-1.035zm38.17-.798c.94 0 1.29.57 1.26 1.027h-2.67c.07-.29.514-1.02 1.42-1.02zm-8.72-1.25h-1.93l-2.49 2.236.84-3.87h-1.393l-1.59 7.34h1.4l.384-1.784.86-.682 1.186 2.466h1.554l-1.685-3.303 2.865-2.407zm-16.21 1.79c.04-.055.39-.607 1.28-.607.55 0 .84.203.84.446 0 .346-.557.436-1.52.574-1.66.238-2.705.753-2.705 1.948 0 .848.704 1.674 1.955 1.674 1.04 0 1.582-.63 1.63-.68.005.15.024.373.04.553h1.434c-.054-.247-.154-.72.015-1.48.09-.4.342-1.553.472-2.188.24-1.2-.417-2.053-2.11-2.053-2.17 0-2.796 1.565-2.9 1.804h1.57zM2.92 29.976c0-.352-.216-.796-1.123-.796H.4L0 31.01h1.455c1.134 0 1.46-.536 1.46-1.034zm3.757 0c0-.352-.212-.796-1.12-.796h-1.4l-.396 1.83h1.45c1.14 0 1.46-.536 1.46-1.034zm10.13.1c0-.358-.27-.664-.934-.664h-1.42l-.32 1.482h1.474c.793 0 1.198-.382 1.198-.817zm26.69 0c0-.358-.27-.664-.938-.664h-1.42l-.32 1.482h1.472c.793 0 1.197-.382 1.197-.817zm-32.885-1.22c0-.35-.215-.798-1.12-.798h-1.4l-.397 1.835h1.45c1.135 0 1.46-.537 1.46-1.036zm-7.185-1.64c0-.353-.217-.798-1.122-.798H.9l-.395 1.834h1.452c1.137 0 1.46-.537 1.46-1.035zm3.757 0c0-.353-.215-.798-1.12-.798h-1.4l-.398 1.834H5.72c1.136 0 1.46-.537 1.46-1.035z" fill="#fff"/></svg>