<svg viewBox="0 0 128 15" xmlns="http://www.w3.org/2000/svg" fill-rule="evenodd" clip-rule="evenodd" stroke-linejoin="round" stroke-miterlimit="1.414"><path d="M13.128 3.1c1.29 1.936 1.614 4.778.58 6.908-.968 2.39-3.42 4.068-5.94 4.263-2.583.26-4.778-.9-6.392-2.84-1.614-2-1.808-5.42-.582-7.68C1.988 1.56 4.064.25 6.4 0h1.66c.16.017.322.038.483.065C10.35.517 12.03 1.55 13.128 3.1zM27.592.903c.968.194 2.13.775 2.454 1.872.387.97.193 2.195-.388 3.035-.388.324-.775.84-1.29.97.967.71 1.484 1.937 1.16 3.228-.193 1.1-.968 2.195-2.065 2.712-2.97 1.163-6.65.452-9.944.646L20.23.84l7.362.064zm48.235.71c1.29 1.098 1.743 2.842 1.227 4.456-.387 1.22-1.227 2.58-2.583 3.03-1.55.58-3.35.32-5.16.383l-.9 3.874h-3.88L67.045.84c2.906.258 6.328-.582 8.782.774zm-41.26 8.46l3.873.064-.646 3.228h-7.878L32.693.84h3.874l-2 9.233zm92.788-5.94h-3.36l-1.87 9.232h-3.875l1.744-9.17-3.422-.063.645-3.294H128l-.645 3.293zM51.74 13.365h-3.937l-.26-1.808-4.13-.064-1.034 1.872h-4.27L45.54.84h3.875l2.324 12.526zM81.317 9.17c.064.322.13.58.322.838.64.58 1.74.453 2.45.13.71-.452.84-1.163 1.03-1.873L86.61.84h4.004L88.74 9.88c-.322 1.227-1.354 2.453-2.518 3.034-2.582.904-6.198 1.097-8.264-.904-.58-.774-.775-1.68-.71-2.712l1.808-8.46h3.874l-1.614 8.33zm-25.12 0c.065.322.13.58.324.838.65.58 1.75.453 2.46.13.71-.452.84-1.163 1.036-1.873L61.558.84h3.937l-1.872 9.04c-.323 1.227-1.356 2.453-2.52 3.034-2.58.904-6.133 1.097-8.263-.904-.584-.774-.778-1.68-.71-2.712l1.74-8.46h3.94l-1.617 8.33zM96.232.84c.71 2.646 1.357 5.36 2.132 7.94L99.847.84h3.617l-2.584 12.526h-4.067c-.71-2.647-1.486-5.23-2.196-7.813l-1.42 7.813h-3.552L92.163.84h4.068zm-49.14 7.812L46.64 5.23l-1.614 3.423h2.066zm-24.6-.517L22.04 10.2c1.29-.127 2.97.39 3.744-.837.13-.323 0-.71-.194-.97-.84-.45-2.067-.128-3.1-.257zM70.47 4.002l-.516 2.324c.905-.128 2.003.26 2.713-.387.323-.33.58-.71.58-1.23-.45-1.23-1.872-.45-2.776-.71zM23.46 3.81l-.388 1.678c1.162-.13 2.712.452 3.358-.775 0-.193.064-.516-.13-.71-.84-.388-1.937-.13-2.84-.193zM108.886.84c-.26 1.484-.58 2.905-.84 4.326 1.422-1.292 2.713-2.906 4.198-4.327h4.65L111.47 6l3.68 7.36h-4.26l-2.262-4.584-1.613 1.42-.71 3.23h-3.746L105.2.84h3.68z"/></svg>