<svg viewBox="0 0 64 64" xmlns="http://www.w3.org/2000/svg" fill-rule="evenodd" clip-rule="evenodd" stroke-linejoin="round" stroke-miterlimit="1.414"><path d="M6.564 29.973c.646.97.807 2.39.29 3.454-.484 1.195-1.71 2.035-2.97 2.132-1.29.12-2.39-.46-3.196-1.43-.807-1-.904-2.71-.29-3.84.596-1.09 1.632-1.747 2.802-1.87h.83l.242.03c.903.226 1.743.742 2.292 1.517zm7.232-1.097c.484.096 1.065.387 1.227.935.193.49.097 1.1-.194 1.52-.2.16-.39.42-.65.49.48.358.74.97.58 1.616-.1.55-.49 1.098-1.03 1.357-1.49.58-3.33.226-4.97.32l1.35-6.262 3.68.034zm24.118.355c.645.55.87 1.42.613 2.23-.194.62-.613 1.29-1.29 1.52-.777.29-1.68.16-2.585.198l-.45 1.937h-1.94l1.26-6.263c1.453.13 3.165-.29 4.392.388zm-20.63 4.23l1.936.04-.323 1.615h-3.94l1.39-6.263h1.937l-1 4.617zm46.394-2.97h-1.68l-.936 4.62h-1.937l.872-4.58-1.71-.03.32-1.647H64l-.322 1.647zM25.87 35.11H23.9l-.128-.903-2.066-.033-.517.937h-2.14l3.71-6.26h1.94l1.16 6.265zm14.788-2.098c.032.16.064.29.16.42.324.29.873.225 1.228.063.355-.225.42-.58.517-.936l.742-3.72h2.002l-.936 4.52c-.16.615-.67 1.228-1.26 1.52-1.29.453-3.09.55-4.13-.45-.29-.388-.38-.84-.35-1.356l.907-4.23h1.937l-.807 4.165zm-12.56 0c.033.16.065.29.162.42.323.29.87.225 1.227.063.355-.225.42-.58.516-.936l.775-3.72h1.97l-.937 4.52c-.16.615-.67 1.228-1.25 1.52-1.29.453-3.066.55-4.13-.45-.29-.388-.388-.84-.356-1.356l.87-4.23h1.97l-.81 4.164zm20.018-4.166c.355 1.324.678 2.68 1.065 3.97l.75-3.97h1.81l-1.29 6.264h-2.04c-.356-1.328-.743-2.62-1.098-3.91l-.712 3.91h-1.776l1.26-6.265h2.034zm-24.57 3.907l-.226-1.71-.807 1.71h1.033zm-12.3-.26l-.227 1.036c.64-.07 1.48.19 1.87-.42.06-.16 0-.36-.1-.49-.42-.224-1.037-.063-1.55-.13zm23.988-2.063l-.26 1.162c.454-.065 1.002.13 1.357-.194.17-.162.3-.355.3-.614-.225-.612-.935-.225-1.39-.354zm-23.504-.1l-.194.84c.58-.066 1.356.225 1.68-.39 0-.096.03-.257-.066-.354-.42-.194-.968-.064-1.42-.097zm42.714-1.486c-.13.743-.29 1.453-.42 2.163.71-.645 1.356-1.452 2.1-2.163h2.323l-2.712 2.583 1.84 3.68h-2.13l-1.13-2.292-.808.71-.355 1.614H51.28l1.323-6.3h1.84z" fill="#fff"/></svg>