<svg viewBox="0 0 128 32" xmlns="http://www.w3.org/2000/svg" fill-rule="evenodd" clip-rule="evenodd" stroke-linejoin="round" stroke-miterlimit="1.414"><path d="M104.412 13.04v9.963c0 2.438 1.398 3.6 3.897 3.6.83 0 1.21-.064 1.66-.18V23.57h-1.1c-.778 0-1.137-.482-1.137-1.314V13.04h2.232V10.3h-2.234V5.99h-3.33v4.31h-1.844v2.74h1.846zM79.11 20.655c0 3.51 1.368 5.948 5.173 5.948 3.81 0 5.18-2.44 5.18-5.948v-4.7c0-3.51-1.37-5.952-5.18-5.952-3.805 0-5.174 2.442-5.174 5.952v4.7zm-6.953-7.615v9.963c0 2.438 1.4 3.6 3.896 3.6.83 0 1.22-.064 1.666-.18V23.57h-1.11c-.773 0-1.13-.482-1.13-1.314V13.04h2.23V10.3h-2.23V5.99h-3.33v4.31h-1.84v2.74h1.845zm19.05 7.615c0 3.51 1.37 5.948 5.178 5.948s5.176-2.44 5.176-5.948v-4.7c0-3.51-1.36-5.952-5.17-5.952-3.81 0-5.175 2.442-5.175 5.952v4.7zm-49.97 5.65h3.33V4.83h-3.33v21.475zm-13.062 0h5.83c4.2 0 5.772-2.68 5.772-6.215 0-2.768-1.097-4.256-2.972-5.088 1.783-.71 2.557-2.646 2.557-4.49 0-3.664-1.754-5.683-5.71-5.683h-5.477V26.3zM86.13 21.25c0 1.838-.654 2.615-1.847 2.615-1.184 0-1.843-.777-1.843-2.616v-5.89c0-1.85.66-2.62 1.843-2.62 1.193 0 1.846.77 1.846 2.62v5.882zm-16.91-5.295c0-3.51-1.37-5.952-5.177-5.952-3.807 0-5.176 2.442-5.176 5.952v4.7c0 3.51 1.37 5.948 5.176 5.948 3.718 0 5.118-2.322 5.176-5.713h-3.34v.36c0 1.838-.657 2.615-1.845 2.615-1.19 0-1.845-.777-1.845-2.616v-2.33h7.023v-2.97zM53.487 10.3v12.556c-.77.566-1.426 1.01-2.137 1.01-.716 0-1.193-.358-1.193-1.157V10.3h-3.33v12.94c0 2.082 1.036 3.36 2.792 3.36 1.93 0 2.65-.715 4.04-1.903v1.605h3.153V10.3H53.48zm44.74 10.95c0 1.838-.653 2.615-1.843 2.615-1.188 0-1.845-.777-1.845-2.616v-5.89c0-1.85.65-2.62 1.84-2.62s1.84.77 1.84 2.62v5.882zm-66.362-4.58h1.19c2.198 0 3.03 1.102 3.03 3.3 0 2.17-.706 3.3-2.676 3.3h-1.55v-6.6zm30.33-.48v-.83c0-1.85.656-2.618 1.847-2.618 1.188 0 1.842.77 1.842 2.62v.827h-3.688zm-30.33-8.325h1.397c1.637 0 2.408 1.038 2.408 3.03 0 1.79-1.068 2.737-2.464 2.737h-1.34V7.865zm83.513 18.44v-12.55c.774-.566 1.425-1.013 2.14-1.013.713 0 1.192.358 1.192 1.16v12.403h3.33V13.363c0-2.08-1.044-3.36-2.796-3.36-1.934 0-2.647.716-3.867 1.784V4.83h-3.335v21.475h3.334zM128 6.58c0 1.416-1.203 2.61-2.62 2.61-1.48 0-2.61-1.143-2.61-2.61 0-1.443 1.17-2.61 2.61-2.61 1.48 0 2.62 1.13 2.62 2.61zm-4.645-.025c0 1.118.907 2.088 2.024 2.088 1.13 0 2.02-.92 2.02-2.04 0-1.128-.896-2.086-2.028-2.086-1.118 0-2.025.92-2.025 2.038zm2.51 1.44l-.795-1.265h-.037v1.266h-.5v-2.87h.873c.682 0 .956.285.956.72 0 .485-.298.784-.758.833.06.07.172.23.287.41l.6.9h-.62zm-.51-2.472h-.322v.883h.196c.46 0 .61-.26.61-.498 0-.272-.13-.385-.49-.385zM11.475 31.118c6.798 0 11.48-3.23 11.48-15.562C22.955 3.23 18.273 0 11.475 0 4.68 0 0 3.23 0 15.556c0 12.332 4.68 15.562 11.475 15.562zM9.987 15.556L4.43 9.984l1.606-1.612 4.432 4.435V2.18l8.06 8.056-5.324 5.32 5.324 5.325-8.06 8.06V18.31l-4.432 4.436L4.43 21.13l5.555-5.576zm2.747 7.884l2.574-2.577-2.573-2.574v5.15zm0-15.754l2.574 2.572-2.573 2.57v-5.14z"/></svg>