<svg viewBox="0 0 64 64" xmlns="http://www.w3.org/2000/svg" fill-rule="evenodd" clip-rule="evenodd" stroke-linejoin="round" stroke-miterlimit="1.414"><path d="M52.206 30.74v4.982c0 1.22.7 1.8 1.948 1.8.416 0 .61-.032.832-.09v-1.426h-.55c-.386 0-.566-.24-.566-.657v-4.61h1.116v-1.37H53.87v-2.16h-1.664v2.15h-.923v1.37h.923zm-12.652 3.808c0 1.755.685 2.974 2.588 2.974 1.905 0 2.59-1.22 2.59-2.974v-2.35c0-1.755-.685-2.976-2.59-2.976-1.903 0-2.588 1.22-2.588 2.976v2.35zM36.08 30.74v4.982c0 1.22.698 1.8 1.946 1.8.416 0 .61-.032.833-.09v-1.426h-.55c-.39 0-.57-.24-.57-.657v-4.61h1.11v-1.37h-1.11v-2.16h-1.66v2.15h-.925v1.37h.923zm9.524 3.808c0 1.755.684 2.974 2.588 2.974 1.905 0 2.588-1.22 2.588-2.974v-2.35c0-1.755-.683-2.976-2.588-2.976-1.904 0-2.588 1.22-2.588 2.976v2.35zM20.62 37.373h1.664V26.635H20.62v10.738zm-6.532 0h2.914c2.1 0 2.887-1.34 2.887-3.108 0-1.384-.55-2.127-1.49-2.543.89-.356 1.28-1.323 1.28-2.246 0-1.832-.88-2.84-2.86-2.84h-2.74v10.737zm28.976-2.528c0 .92-.326 1.308-.922 1.308-.593 0-.922-.388-.922-1.308V31.9c0-.924.33-1.31.922-1.31.596 0 .922.386.922 1.31v2.945zm-8.455-2.647c0-1.755-.69-2.976-2.59-2.976-1.91 0-2.59 1.22-2.59 2.976v2.35c0 1.755.68 2.974 2.59 2.974 1.86 0 2.56-1.16 2.58-2.857h-1.66v.18c0 .92-.326 1.308-.92 1.308-.596 0-.924-.388-.924-1.308v-1.16h3.51v-1.487zm-7.87-2.828v6.278c-.39.284-.72.505-1.07.505-.36 0-.6-.18-.6-.578V29.37h-1.66v6.47c0 1.042.52 1.682 1.396 1.682.967 0 1.324-.358 2.023-.952v.803h1.58V29.37h-1.66zm22.37 5.475c0 .92-.33 1.308-.928 1.308-.593 0-.92-.388-.92-1.308V31.9c0-.924.327-1.31.92-1.31.596 0 .923.386.923 1.31v2.945zm-33.18-2.29h.59c1.1 0 1.514.552 1.514 1.65 0 1.085-.355 1.65-1.34 1.65h-.77v-3.3zm15.16-.24V31.9c0-.924.33-1.31.922-1.31s.92.386.92 1.31v.415H31.1zm-15.16-4.162h.7c.82 0 1.202.52 1.202 1.515 0 .894-.535 1.368-1.233 1.368h-.67v-2.883zm41.754 9.22v-6.276c.387-.282.712-.506 1.07-.506.357 0 .596.18.596.59v6.2h1.666v-6.47c0-1.04-.52-1.68-1.398-1.68-.968 0-1.325.36-1.935.89v-3.48H56.02v10.74h1.667zM64 27.51c0 .71-.6 1.306-1.31 1.306-.74 0-1.306-.572-1.306-1.306 0-.72.586-1.304 1.306-1.304.74 0 1.31.565 1.31 1.304zm-2.323-.012c0 .56.454 1.044 1.013 1.044.565 0 1.013-.46 1.013-1.02 0-.564-.448-1.043-1.013-1.043-.56 0-1.013.45-1.013 1.01zm1.255.72l-.397-.633h-.02v.634h-.248v-1.44h.436c.34 0 .478.14.478.36 0 .24-.14.39-.37.41.03.037.087.117.144.204l.298.454h-.31zm-.254-1.236h-.162v.44h.1c.23 0 .304-.13.304-.248 0-.136-.063-.192-.242-.192zM5.738 39.78c3.4 0 5.74-1.616 5.74-7.78s-2.34-7.78-5.74-7.78C2.34 24.22 0 25.837 0 32s2.34 7.78 5.737 7.78zM4.993 32l-2.78-2.787.804-.807 2.216 2.218V25.31l4.03 4.028-2.662 2.66 2.67 2.662-4.03 4.03v-5.31L3.02 35.6l-.803-.81L4.995 32zm1.373 3.94l1.287-1.288-1.286-1.287v2.576zm0-7.877l1.287 1.286-1.286 1.28v-2.57z" fill="#fff"/></svg>