<svg viewBox="0 0 128 69" xmlns="http://www.w3.org/2000/svg" fill-rule="evenodd" clip-rule="evenodd" stroke-linejoin="round" stroke-miterlimit="1.414"><path d="M117.75 64.35c-.305-.33-.803-.498-1.48-.498-.786 0-1.978.364-2.03 1.367-.05.87.753 1.17 1.337 1.38l.148.052c.582.206 1.13.4 1.105.902-.032.567-.776.78-1.24.78-.335 0-.79-.06-1.06-.35-.168-.18-.243-.43-.224-.74l.005-.09h-.78l-.01.074c-.05.475.07.872.35 1.18.334.37.902.582 1.556.582.98 0 2.144-.398 2.206-1.52.05-.864-.79-1.166-1.465-1.41l-.162-.06c-.54-.205-.99-.406-.965-.783.036-.65.86-.72 1.216-.72.408 0 .71.104.888.305.14.156.19.368.16.63l-.01.096h.79l.01-.08c.03-.466-.076-.84-.326-1.107zm-97.995-.498c-1.964 0-3.08 1.558-3.168 3.1-.034.602.126 1.11.465 1.468.36.38.91.58 1.592.58 2.042 0 3.067-1.666 3.156-3.216.03-.54-.124-1-.444-1.34-.366-.387-.92-.592-1.6-.592zm68.723-.002c-1.968 0-3.082 1.56-3.17 3.1-.034.6.127 1.11.466 1.47.36.377.907.58 1.592.58 2.044 0 3.07-1.67 3.155-3.218.01-.044.01-.088.01-.133 0-.49-.15-.9-.45-1.21-.36-.39-.912-.6-1.6-.6zm-12.895 5.015l2.026-7.086h4.94l-.21.73h-4.05c-.034.11-.61 2.13-.665 2.32h3.594l-.19.73h-3.62l-.94 3.295h-.89zm19.095-5.013c-.62 0-1.248.292-1.715.776l.17-.638h-.745l-1.4 4.875h.8l.707-2.477c.323-1.125 1.13-1.882 2.008-1.882.34 0 .614.092.767.257.12.124.172.293.16.503-.006.133-.04.297-.09.45 0 .005-.907 3.15-.907 3.15h.797l.883-3.082c.065-.233.1-.427.11-.574.023-.39-.075-.708-.294-.937-.26-.274-.7-.42-1.26-.42zm6.34 5.013l1.398-4.875h.795l-1.39 4.875h-.793zm-90.49 0l2.024-7.086h4.945l-.205.73h-4.057l-.663 2.32h3.595l-.188.73h-3.63l-.946 3.295h-.886zm8.264-.52c-.478 0-.842-.127-1.08-.378-.23-.245-.34-.614-.314-1.06.054-.97.798-2.4 2.22-2.4.467 0 .822.126 1.06.376.224.242.33.588.306 1.007-.056.99-.79 2.454-2.192 2.454zm68.72-.002c-.476 0-.84-.126-1.077-.38-.235-.244-.34-.61-.315-1.06.052-.966.795-2.397 2.216-2.397.47 0 .827.126 1.063.377.22.236.33.588.3 1.007-.058.99-.79 2.453-2.19 2.453zm-47.166-4.48c-1.848 0-2.924 1.555-3 3.02-.033.58.14 1.084.5 1.46.4.424 1.014.657 1.733.657 1.12 0 1.94-.51 2.39-1.47l.052-.12h-.835l-.025.04c-.31.553-.872.866-1.536.866-.48 0-.89-.155-1.16-.438-.22-.23-.338-.542-.338-.88v-.078c.006-.102.02-.193.036-.278h4l.015-.068c.06-.304.082-.582.092-.813.003-.04.003-.08.003-.12 0-.49-.15-.912-.44-1.216-.346-.364-.86-.55-1.496-.55zm21.215 0c-1.84 0-2.92 1.555-3 3.02-.03.58.15 1.084.507 1.46.4.424 1.016.657 1.736.657 1.12 0 1.95-.51 2.396-1.468l.055-.123h-.83l-.027.04c-.313.55-.874.86-1.536.86-.48 0-.894-.158-1.16-.44-.22-.23-.34-.54-.34-.88 0-.025 0-.05.005-.08.005-.102.017-.193.033-.28h4l.014-.065c.064-.3.08-.58.097-.814.003-.04.003-.086.003-.127 0-.494-.15-.915-.446-1.22-.34-.363-.857-.55-1.49-.55zm45.38 0c-1.84 0-2.93 1.555-3 3.02-.03.58.146 1.084.504 1.46.4.424 1.016.657 1.734.657 1.12 0 1.95-.51 2.398-1.468l.058-.123h-.837l-.02.04c-.32.55-.877.86-1.54.86-.48 0-.89-.158-1.163-.44-.217-.23-.34-.54-.34-.88 0-.03.002-.05.004-.08.006-.096.02-.19.038-.28h4l.013-.065c.06-.29.08-.56.094-.814v-.127c0-.49-.15-.915-.442-1.22-.34-.363-.855-.55-1.49-.55zm-77.46 0c-1.85 0-2.93 1.555-3.004 3.02-.03.58.144 1.084.5 1.46.4.424 1.018.657 1.735.657 1.12 0 1.95-.51 2.396-1.47l.055-.12h-.835l-.028.04c-.313.553-.874.866-1.536.866-.48 0-.894-.155-1.164-.438-.22-.23-.337-.542-.337-.88v-.078c.005-.102.02-.193.035-.278h4l.017-.068c.06-.304.08-.582.098-.813l.005-.12c0-.49-.15-.912-.443-1.216-.34-.364-.857-.55-1.49-.55zm69.07 5.057c-.39 0-.66-.09-.815-.25-.11-.12-.164-.27-.164-.46v-.06c.003-.124.04-.31.096-.5 0 0 .78-2.807.84-3.01h-.973l.2-.654h.962c.036-.115.44-1.52.44-1.52h.797l-.436 1.52h1.046l-.167.652H99.3l-.846 2.953-.01.05c-.053.18-.072.26-.077.38v.02c0 .05.006.11.053.16.037.04.093.06.168.06.234 0 .47-.02.72-.053l.125-.02-.186.69-.06.003c-.174.015-.398.033-.615.033h-.02zm-65.34-.06l-.553-4.876h.82s.328 3.52.363 3.91l2.507-3.91h.883L34 68.858h-.79zm31.87 0l-.34-4.876h.82l.17 3.83 2.21-3.83h.86l.116 3.796 2.263-3.796h.86l-3.03 4.876h-.796s-.12-3.302-.138-3.762c-.236.4-2.192 3.764-2.192 3.764h-.808zm-14.56 0l2.037-7.087h.923l2.572 6.035 1.678-6.036h.867l-2.054 7.085h-.904l-2.575-6.037-1.684 6.037h-.855zm-21.15-4.357c.41 0 .747.122.967.356.185.19.28.453.28.77 0 .02 0 .05-.002.08l-.022.272h-3.14c.275-.753.95-1.484 1.92-1.484zm10.878 0c.41 0 .745.122.965.356.187.19.28.453.28.77v.08s-.02.222-.02.272h-3.14c.27-.753.95-1.484 1.917-1.484zm21.213 0c.41 0 .743.122.963.356.186.19.282.46.282.77v.08l-.024.272h-3.13c.27-.753.946-1.484 1.914-1.484zm45.375 0c.41 0 .747.123.965.356.185.19.28.453.28.76 0 .027 0 .055-.004.083 0 0-.016.228-.023.278h-3.134c.27-.75.943-1.482 1.913-1.482zm-63.816 4.36l1.425-4.996h.738l-.257.89c.47-.57 1.022-.84 1.714-.833l.45.012-.205.68-.016.062-.42-.013c-1.302.025-1.773 1.177-1.917 1.67l-.723 2.525h-.79zm38.25 0l1.43-4.996h.74s-.16.536-.26.89c.47-.57 1.02-.84 1.712-.833l.45.012-.2.68-.015.062-.416-.013c-1.305.025-1.78 1.177-1.92 1.67l-.723 2.525h-.796zm28.256 0l1.43-4.996h.737l-.257.89c.47-.57 1.023-.84 1.712-.833l.446.012-.205.68-.01.062-.42-.013c-1.303.025-1.775 1.177-1.92 1.67l-.72 2.525h-.795zm-87.215 0l1.433-4.996h.738l-.256.89c.468-.57 1.02-.84 1.714-.833l.443.012-.2.68-.016.062-.417-.013c-1.303.025-1.776 1.177-1.92 1.67l-.723 2.525h-.796zm80.278-5.6l.26-.893h.796l-.262.893h-.795zM48.695 44.58c0-.982-.795-1.78-1.78-1.78H35.25c-2 0-3.775.958-4.892 2.44l-6.027 7.998c-.22.3-.35.668-.35 1.07 0 .98.8 1.78 1.78 1.78h11.67c2 0 3.776-.956 4.89-2.44l6.03-7.996c.225-.3.356-.67.356-1.073zm-27.453 5.19c1.434-.325 2.676-1.15 3.532-2.286l1.38-1.832c.225-.3.357-.67.357-1.073 0-.99-.794-1.78-1.78-1.78H10.01L0 56.09h15.237c2 0 3.775-.956 4.894-2.44l1.42-1.874c.18-.238.286-.535.286-.857 0-.47-.23-.89-.582-1.15zm41.975.974l2.093-2.777-7.29-.004 1.8-2.384h7.29l2.09-2.78H54.65L44.644 56.09h14.55l2.095-2.78H54l1.93-2.564h7.29zM73.33 42.8L63.318 56.09h7.264l10.01-13.29H73.33zm-58.823 8.684l-.9 1.192c-.288.382-.75.632-1.268.632H9.35l1.93-2.564h2.85c.255 0 .46.208.46.46 0 .105-.034.203-.09.28zM40.58 46.32l-4.787 6.354c-.29.384-.748.633-1.268.633h-2.057c-.255 0-.46-.207-.46-.46 0-.107.034-.203.09-.28l4.79-6.354c.29-.382.75-.634 1.268-.634h2.055c.26 0 .47.21.47.46 0 .1-.03.2-.09.28zm80.693-3.52H109.6c-2 0-3.772.958-4.89 2.44l-6.027 7.998c-.226.298-.36.668-.36 1.07 0 .98.798 1.78 1.78 1.78h11.673c1.997 0 3.774-.956 4.89-2.44l1.45-1.922h1.685l2.11-2.798h-8.94l-2.82 3.744c-.29.386-.75.635-1.26.635h-2.057c-.26 0-.465-.207-.465-.464 0-.103.035-.2.094-.277l4.788-6.353c.29-.386.75-.634 1.268-.634h2.06c.254 0 .46.21.46.46 0 .1-.034.2-.092.27l-.78 1.032h7.26l1.28-1.7c.226-.298.357-.67.357-1.07 0-.983-.797-1.78-1.78-1.78zm-23.748 0l-5.074 6.735L90.9 42.8h-5.68L75.203 56.09h4.805l5.03-6.674 1.54 6.674h5.74l10.01-13.287H97.52zm-79.128 3.52l-.763 1.014c-.29.383-.75.633-1.27.633l-2.982-.004 1.798-2.384h2.85c.253 0 .46.21.46.46 0 .1-.034.2-.093.28zm107.91-3.513c-.937 0-1.695.755-1.695 1.693 0 .937.758 1.692 1.695 1.692S128 45.437 128 44.5c0-.938-.756-1.693-1.693-1.693zm.006 3.235c-.866 0-1.526-.687-1.526-1.542 0-.874.65-1.545 1.526-1.545.87 0 1.515.675 1.515 1.54 0 .855-.652 1.547-1.515 1.547zm.67-2.02c0-.36-.195-.55-.65-.55h-.75v2h.17v-.923h.523l.6.92h.192l-.6-.92c.287-.05.516-.2.516-.53zm-.805.377h-.425v-.78h.554c.238 0 .507.09.507.4 0 .34-.332.38-.636.38zM76.013 23.19c.766-1.645 1.196-3.48 1.196-5.414 0-4.465-2.28-8.394-5.74-10.695 2.06-2.11 4.28-4.21 6.653-6.2-2.778 1.633-5.387 3.51-7.803 5.53-1.78-.936-3.807-1.47-5.96-1.47-7.092 0-12.84 5.75-12.84 12.843 0 3.2 1.175 6.127 3.114 8.376-2.456 5.315-2.89 9.59-.722 11.036 2.32 1.548 7.365-1.256 10.392-5.823 0 0-4.683 4.224-7.255 3.253-1.586-.6-1.59-3.02-.284-6.49 2.126 1.56 4.75 2.486 7.594 2.486 3.516 0 6.703-1.416 9.02-3.706l.46.86c5.595-.453 22.308-.895 22.308-.895 0-.805-11.068-.08-20.145-3.684zm-6.79-4.1l3.69 6.923c-2.16 2.24-5.19 3.635-8.543 3.635-2.72 0-5.223-.916-7.223-2.45 2.187-5.21 6.993-12.418 13.643-19.404 3.278 2.113 5.45 5.79 5.45 9.982 0 1.803-.403 3.51-1.123 5.04-2.17-.947-4.2-2.162-5.895-3.726zm-14.12 6.11c-1.63-2.033-2.606-4.613-2.606-7.42 0-6.555 5.314-11.87 11.872-11.87 1.85 0 3.6.422 5.16 1.177C62.96 12.777 57.93 19.5 55.1 25.2z"/></svg>