<svg viewBox="0 0 124 28" xmlns="http://www.w3.org/2000/svg" fill-rule="evenodd" clip-rule="evenodd" stroke-linejoin="round" stroke-miterlimit="1.414"><path d="M.787 14.414c0 3.604 1.414 6.987 3.98 9.525 2.56 2.53 5.966 3.92 9.592 3.92 7.43 0 13.48-6.04 13.48-13.45 0-3.62-1.4-7.02-3.94-9.57C21.36 2.28 17.97.87 14.353.87 6.874.873.784 6.948.784 14.413zm5.137 8.372c-2.275-2.245-3.527-5.22-3.527-8.372 0-6.58 5.366-11.935 11.962-11.935 3.15 0 6.14 1.25 8.39 3.51 2.24 2.26 3.48 5.25 3.48 8.415 0 6.53-5.33 11.845-11.87 11.845-3.18 0-6.17-1.234-8.44-3.473zM76.12 10.59c0 2.76 1.817 4.66 5.12 5.35l.632.134c2.27.476 3.264.813 3.264 2.048 0 1.1-1 1.838-2.485 1.838-1.79 0-3.36-.79-4.56-2.28l-2.79 2.726c1.46 1.722 3.37 3.306 7.41 3.306 3.43 0 6.9-1.994 6.9-5.803 0-4.23-3.384-4.94-5.62-5.41l-.635-.13c-1.414-.3-2.79-.69-2.79-1.87 0-1.197 1.13-1.73 2.25-1.73 1.343 0 2.68.603 3.685 1.65l2.712-2.68C88.08 6.48 86.044 5 82.73 5c-3.954 0-6.61 2.247-6.61 5.59zm-18.227 3.766c0 5.596 3.303 9.356 8.22 9.356 4.913 0 8.216-3.76 8.216-9.356S71.02 5 66.11 5c-4.916 0-8.22 3.76-8.22 9.356zM41.62 5.45v17.838h9.138c2.673 0 5.556-1.894 5.556-4.953 0-2.913-2.215-3.94-3.168-4.246-.072-.03-.102-.04-.102-.08 0-.03.018-.05.042-.06.024-.01 2.438-.87 2.438-3.63 0-3.05-2.067-4.88-5.53-4.88H41.62zm-22.715.665v4.252H9.722V6.115c0-.3-.16-.49-.402-.49-.09 0-.178.024-.255.07-3.08 1.868-4.922 5.126-4.922 8.72 0 3.588 1.793 6.733 4.922 8.627.077.047.164.07.255.07.197 0 .402-.15.402-.4v-4.34h9.183v4.25c0 .27.22.49.493.49.068 0 .146-.02.207-.058 3.054-1.836 4.88-5.066 4.88-8.64 0-3.627-1.807-6.885-4.833-8.718-.077-.047-.166-.07-.254-.07-.273 0-.493.22-.493.49zm1.85 13.587l.314-.47c1.01-1.514 1.52-3.134 1.52-4.818 0-1.652-.56-3.43-1.53-4.88l-.316-.465.01.33.024.83v8.29l-.017.605-.016.57zm25.172-.094V16.08c0-.033.027-.06.06-.06h3.216c1.547 0 2.433.66 2.433 1.81 0 1.202-.813 1.838-2.353 1.838h-3.296c-.033 0-.06-.027-.06-.06zM7.624 9.482l.243-.363-.033 1.33v8.01l.025.83.01.33-.32-.466c-1.05-1.568-1.52-3.03-1.52-4.746 0-1.685.54-3.4 1.52-4.828l.07-.104zm54.605 4.874c0-3.13 1.52-5.154 3.88-5.154 2.37 0 3.91 2.024 3.91 5.154 0 3.147-1.54 5.18-3.91 5.18-2.4 0-3.89-1.986-3.89-5.18zm28.97-.106c0 5.572 3.4 9.463 8.27 9.463 3.65 0 5.296-1.346 7.03-3.826l-3.56-2.398c-.775 1.26-1.6 2.04-3.26 2.04-1.986 0-4.12-1.658-4.12-5.29 0-3.313 2.006-5.047 3.986-5.047 1.46 0 2.475.617 3.29 1.992l3.535-2.347c-1.776-2.643-3.89-3.825-6.85-3.825-5.75 0-8.322 4.632-8.322 9.224zM9.72 16.488h9.182V12.25h-9.18v4.238zm36.204-4.016V9.13c0-.033.027-.06.06-.06h3.296c1.06 0 1.773.707 1.773 1.758 0 .826-.65 1.704-1.853 1.704h-3.216c-.033 0-.06-.027-.06-.06zM118.61 5.45v6.545c0 .033-.03.06-.062.06h-5.455c-.035 0-.06-.027-.06-.06V5.45h-4.6v17.838h4.6v-7.023c0-.033.025-.06.06-.06h5.455c.033 0 .06.027.06.06v7.023h4.626V5.45h-4.625z"/></svg>