<svg viewBox="0 0 128 25" xmlns="http://www.w3.org/2000/svg" fill-rule="evenodd" clip-rule="evenodd" stroke-linejoin="round" stroke-miterlimit="1.414"><path d="M32.384 18.424c1.228 0 2.08.606 2.08 1.89 0 1.572-.972 2.814-2.596 2.814-1.24 0-2.045-.66-2.045-1.94 0-1.514.976-2.78 2.56-2.78v.016zm-3.71 1.426c-.01-.38-.223-.604-.69-.604-.42 0-.74.12-.74.44 0 .2.157.32.56.448l.62.2c.66.214 1.177.524 1.177 1.274 0 1.1-1.1 1.52-2.12 1.52-.87 0-1.9-.36-1.9-1.4v-.18h1.14v.14c0 .4.46.6.88.6.38 0 .78-.13.78-.54 0-.308-.17-.4-.44-.488l-.94-.3c-.61-.2-.97-.44-.97-1.14 0-1.054 1.12-1.42 1.98-1.42.97 0 1.84.28 1.83 1.428H28.7l-.02.022zm18.517 2.606l-.02-.02c-.27.486-.79.692-1.33.692-1.07 0-1.7-.7-1.7-1.76 0-1.48.79-2.96 2.438-2.96.52 0 1.06.22 1.25.72h.02l.49-2.3h1.226l-1.304 6.16h-1.18l.12-.554v.022zm17.49-4.032c1.23 0 2.08.606 2.08 1.89 0 1.572-.97 2.814-2.6 2.814-1.24 0-2.04-.66-2.04-1.94 0-1.514.98-2.78 2.57-2.78v.016zm29.68 1.426c-.01-.38-.22-.604-.69-.604-.44 0-.76.12-.76.44 0 .2.14.32.56.448l.6.2c.66.214 1.18.524 1.18 1.274 0 1.1-1.094 1.52-2.12 1.52-.872 0-1.9-.36-1.9-1.4v-.18h1.14v.14c0 .4.46.6.88.6.37 0 .78-.13.78-.54 0-.308-.174-.4-.44-.488l-.94-.3c-.614-.2-.97-.44-.97-1.14 0-1.054 1.114-1.42 1.98-1.42.97 0 1.84.28 1.827 1.428h-1.14l.02.022zm10.96-1.304h1.16l-.18.8.02.02c.26-.614.88-.94 1.52-.94.128 0 .248.008.38.026l-.252 1.2c-.173-.02-.345-.08-.52-.08-.94 0-1.275.72-1.44 1.48l-.415 1.98h-1.227l.938-4.464.02-.022zm-45.685 0h1.16l-.18.8.02.02c.28-.614.88-.94 1.54-.94.12 0 .24.008.38.026l-.26 1.2c-.174-.02-.34-.08-.52-.08-.94 0-1.28.72-1.44 1.48l-.416 1.98h-1.23l.933-4.464.013-.022zm-19.543 0h1.16l-.14.62h.02c.4-.49.92-.74 1.56-.74.847 0 1.305.424 1.305 1.2 0 .18-.095.612-.13.768l-.553 2.614h-1.23l.547-2.62c.03-.14.076-.42.076-.54 0-.28-.3-.46-.58-.46-.74 0-1.12.62-1.257 1.24l-.5 2.36h-1.23l.93-4.46.02.018zm-18.782 0h1.16l-.18.8.02.02c.28-.614.88-.94 1.54-.94.125 0 .245.008.38.026l-.255 1.2c-.178-.02-.35-.08-.52-.08-.94 0-1.28.72-1.44 1.48l-.42 1.98h-1.23l.934-4.464.007-.022zm-20.022-1.7h2.6c1.23 0 2 .268 2 1.44 0 .7-.432 1.348-1.16 1.434v.02c.59.152.918.654.918 1.248 0 1.32-1.12 2.02-2.346 2.02H0l1.294-6.16-.016-.002zm83.054 1.7h1.16l-.18.8.02.02c.27-.614.88-.94 1.53-.94.125 0 .245.008.38.026l-.255 1.2c-.172-.02-.34-.08-.52-.08-.94 0-1.275.72-1.44 1.48l-.415 1.98H83.4l.934-4.464v-.022zm18.72 2.32c-.317.18-.68.192-1.04.22-.467.048-.907.16-.907.72 0 .34.32.504.67.504.76 0 1.01-.528 1.147-1.012l.12-.43.01-.002zm-6.38.208c-.015.112-.015.19-.015.26 0 .52.32.87.98.87.495 0 .74-.328.92-.61h1.225c-.39 1-1.03 1.534-2.313 1.534-1.193 0-1.987-.68-1.987-1.96 0-1.42.94-2.76 2.46-2.76 1.24 0 2.08.66 2.08 1.948 0 .24-.023.48-.07.7h-3.28v.018zm-8.676 0c-.005.112-.005.19-.005.26 0 .52.32.87.98.87.49 0 .73-.328.91-.61h1.238c-.387 1-1.027 1.534-2.31 1.534-1.193 0-1.987-.68-1.987-1.96 0-1.42.94-2.76 2.46-2.76 1.24 0 2.08.66 2.08 1.948 0 .24-.022.48-.066.7h-3.29l-.012.018zm-56.085 1.13c.91 0 1.31-1.12 1.31-1.872 0-.58-.26-.98-.896-.98-.9 0-1.3 1.12-1.3 1.86 0 .54.3 1 .88 1l.005-.008zm-24.83-1.13c-.01.112-.01.19-.01.26 0 .52.32.87.98.87.496 0 .738-.328.918-.61h1.22c-.39 1-1.03 1.534-2.313 1.534-1.196 0-1.99-.68-1.99-1.96 0-1.42.94-2.76 2.46-2.76 1.24 0 2.08.66 2.08 1.948 0 .24-.02.48-.064.7H7.1l-.01.018zm10.063 0c-.01.112-.01.19-.01.26 0 .52.32.87.98.87.496 0 .736-.328.92-.61h1.224c-.39 1-1.028 1.534-2.314 1.534-1.188 0-1.98-.68-1.98-1.96 0-1.42.94-2.76 2.46-2.76 1.24 0 2.08.66 2.08 1.948 0 .24-.02.48-.068.7h-3.28l-.012.018zm28.187.14c0 .534.29.99.87.99.92 0 1.35-1.12 1.35-1.89 0-.568-.29-.966-.88-.966-.926 0-1.34 1.06-1.34 1.86v.006zm18.864.99c.912 0 1.31-1.12 1.31-1.872 0-.58-.26-.98-.9-.98-.894 0-1.29 1.12-1.29 1.86 0 .54.3 1 .88 1v-.008zm46.885-2.114c0-.526-.29-.74-.82-.74-.937 0-1.257 1.12-1.257 1.888 0 .534.224.966.846.966.55 0 .86-.386.996-.826h1.226c-.372 1.112-1.15 1.75-2.304 1.75-1.24 0-1.988-.62-1.988-1.92 0-1.52.92-2.8 2.52-2.8 1.1 0 1.98.48 2.02 1.664h-1.224l-.017.018zm-40.3 2.92h-1.17l.14-.624h-.02c-.397.492-.92.74-1.56.74-.848 0-1.306-.42-1.306-1.196 0-.18.096-.614.13-.768l.56-2.616H68.8l-.54 2.616c-.036.128-.08.42-.08.544 0 .268.3.456.588.456.74 0 1.12-.62 1.25-1.24l.5-2.376h1.226l-.93 4.46-.022.004zm-32.294 0h-1.18l.14-.624h-.02c-.4.492-.92.74-1.56.74-.85 0-1.307-.42-1.307-1.196 0-.18.1-.614.14-.768l.56-2.616h1.22l-.54 2.616c-.04.128-.08.42-.08.544 0 .268.3.456.59.456.74 0 1.12-.62 1.25-1.24l.5-2.376h1.223l-.93 4.46-.015.004zm15.01-4.464h.88l-.19.82h-.88l-.455 2.22c-.02.092-.036.172-.036.204 0 .32.236.328.42.328.143 0 .29-.008.44-.026l-.21.96c-.25.036-.51.04-.767.04-.57 0-1.18-.18-1.164-.9 0-.106.025-.26.06-.42l.5-2.388h-.8l.19-.82h.78l.28-1.36h1.22l-.274 1.36v-.018zm-37.91 0h.88l-.19.82h-.87l-.455 2.22c-.02.092-.036.172-.036.204 0 .32.236.328.416.328.148 0 .294-.008.44-.026l-.206.96c-.25.036-.51.04-.77.04-.57 0-1.18-.18-1.164-.9 0-.106.028-.26.06-.42l.5-2.388h-.8l.187-.82h.79l.274-1.36h1.227l-.26 1.36-.02-.018zm-2.92 0h.88l-.19.82h-.87l-.46 2.22c-.016.092-.03.172-.03.204 0 .32.22.328.4.328.14 0 .286-.008.44-.026l-.214.96c-.25.036-.51.04-.768.04-.57 0-1.18-.18-1.16-.9 0-.106.02-.26.06-.42l.5-2.388h-.8l.18-.82h.785l.274-1.36h1.226l-.27 1.36.015-.018zm60.25 2.484c0 .528.26.986.83.986.88 0 1.302-.94 1.302-1.7 0-.56-.286-.968-.88-.968-.82 0-1.252.96-1.252 1.68v.002zm-71.4.924h1.7c.61 0 1.06-.336 1.06-.992 0-.648-.58-.7-1.07-.7H1.88l-.36 1.692h.008zM98.86 20.3c0-.46-.112-.952-.828-.952-.69 0-1.036.44-1.22.94h2.048v.012zm-8.667 0c0-.46-.112-.952-.828-.952-.7 0-1.04.44-1.22.94h2.04l.008.012zm-80.91 0c0-.46-.115-.952-.83-.952-.69 0-1.035.44-1.22.94h2.05v.012zm10.062 0c0-.46-.114-.952-.83-.952-.69 0-1.036.44-1.216.94h2.05v.012zm81.133-.4c.158-1.12 1.108-1.476 2.116-1.476.794 0 1.872.174 1.856 1.176 0 .188-.043.474-.095.75l-.396 1.796c-.04.156-.06.432-.06.6 0 .08.02.184.04.26h-1.22v-.44c-.34.38-.86.56-1.36.56-.96 0-1.44-.548-1.44-1.172 0-.852.66-1.388 1.72-1.52 1.16-.134 1.7-.074 1.7-.646 0-.44-.468-.56-.778-.56-.44 0-.83.204-.906.652h-1.15l-.02.02zm18.044-3.052c.736 0 1.3.56 1.3 1.3s-.564 1.28-1.3 1.28c-.75 0-1.306-.556-1.306-1.3 0-.74.556-1.3 1.304-1.3l.003.02zM2.08 19.33h1.536c.492 0 .914-.276.914-.81 0-.47-.276-.634-.716-.634H2.38l-.3 1.44v.004zm116.445-.104c.616 0 1.084-.466 1.084-1.084 0-.62-.48-1.096-1.09-1.096-.63 0-1.09.474-1.09 1.094 0 .62.46 1.084 1.08 1.084l.01.002zm-42.765 3.54c-.3 1.356-.984 1.92-2.46 1.92-.906 0-1.906-.384-1.906-1.454h1.224c-.016.46.406.64.804.64.776 0 1-.68 1.24-1.54l-.016-.02c-.32.42-.74.628-1.24.628-1.06 0-1.72-.724-1.72-1.82 0-1.3.82-2.694 2.25-2.694.612 0 1.114.216 1.364.806h.02l.134-.69h1.176l-.89 4.23.02-.006zm37.572-5.92h1.23l-.46 2.214h.02c.19-.26.673-.64 1.475-.64.846 0 1.304.426 1.304 1.2 0 .18-.09.614-.13.77l-.56 2.616h-1.24l.54-2.62c.04-.13.08-.42.08-.54 0-.27-.3-.46-.58-.46-.74 0-1.12.62-1.25 1.24l-.5 2.376h-1.22l1.28-6.16.02.004zm-35.693 0h1.22l-.46 2.214h.02c.19-.26.67-.64 1.472-.64.846 0 1.304.426 1.304 1.2 0 .18-.096.614-.13.77l-.554 2.614H79.3l.54-2.62c.04-.134.08-.42.08-.54 0-.274-.3-.46-.586-.46-.74 0-1.12.62-1.24 1.24l-.5 2.372h-1.22l1.29-6.16-.02.01zm-22.45 0h1.22l-.46 2.214h.02c.19-.26.67-.64 1.473-.64.844 0 1.3.426 1.3 1.2 0 .18-.094.614-.128.77l-.56 2.614h-1.24l.54-2.62c.04-.134.08-.42.08-.54 0-.274-.3-.46-.585-.46-.74 0-1.12.62-1.253 1.24l-.5 2.372h-1.22l1.284-6.16.026.01zm63.57 1.43l.36.57h-.28l-.35-.54h-.23v.54h-.257v-1.4h.614c.24 0 .424.18.424.408v.064c0 .18-.12.312-.3.36l.014-.002zm-.498-.166h.32c.1 0 .22-.06.22-.176v-.07c0-.12-.1-.214-.22-.214h-.34v.452l.02.008zM42.462.048H23.9l-7.2 12.48H.028v2.487h34.196c1.244 0 2.424-.648 3.08-1.78.656-1.132 1.686-2.926 2.128-3.694.44-.77-.026-1.75-.846-2.01 1.22 0 2.44-.7 3.02-1.74.6-1.02 1.54-2.68 2.08-3.62.56-.92-.12-2.12-1.2-2.12h-.023zm51.734 0L85.56 15.013h20.944l1.44-2.484H95.79l2.17-3.76h12.15l1.44-2.49H99.39l2.17-3.76h22.802V.04H94.196zm-28.343 0H49.43c-1.19 0-2.425.64-3.065 1.744-.64 1.1-5.85 10.135-6.415 11.115-.576.98.2 2.1 1.22 2.1h16.45c1.326 0 2.49-.76 3.07-1.76.58-1 5.86-10.153 6.41-11.1.547-.96-.16-2.117-1.24-2.117l-.007.018zm6.96 0c-1.32 0-2.46.76-3.04 1.76-.58 1.006-2.21 3.846-2.8 4.85-.586 1.01.184 2.12 1.22 2.12H77.9l-1.74 3.015c-.28.48-.74.734-1.24.734h-1.507c-.5 0-.712-.56-.532-.88.18-.34.58-1 .58-1h-8.8l-1.27 2.2c-.6 1.028.2 2.148 1.2 2.148h16.45c1.315 0 2.475-.712 3.1-1.8.627-1.092 2.1-3.66 2.736-4.752.64-1.093-.166-2.173-1.18-2.173H75.99l1.793-3.112c.208-.36.676-.654 1.2-.654h1.51c.5 0 .7.54.55.82-.15.28-.602 1.06-.602 1.06h8.79l1.32-2.28c.49-.852-.12-2.08-1.24-2.08H72.83l-.012.024zM32.61 9.658c-.22.385-.967 1.667-1.26 2.175-.29.506-.785.696-1.207.696h-4.66l2.17-3.76h4.453c.46 0 .732.492.514.88h-.01zm24.974-6.242c-.24.404-4.604 7.977-4.846 8.4-.24.427-.72.71-1.226.71h-1.53c-.487 0-.71-.54-.523-.88.19-.32 4.6-7.98 4.87-8.44.26-.476.78-.696 1.2-.696h1.53c.44 0 .746.48.508.886l.006.02zM36.21 3.412c-.22.388-.974 1.668-1.26 2.174-.3.5-.794.68-1.216.68h-4.66L31.24 2.51h4.448c.46 0 .728.5.51.88l.012.022zM126.7 0c.74 0 1.3.56 1.3 1.3s-.56 1.294-1.3 1.294c-.76 0-1.314-.55-1.314-1.292 0-.74.554-1.3 1.3-1.3L126.7 0zm0 2.388c.62 0 1.08-.466 1.08-1.084 0-.62-.474-1.094-1.09-1.094-.628 0-1.096.48-1.096 1.1 0 .62.47 1.08 1.094 1.08l.012-.002zm.24-.954l.36.568h-.28l-.352-.54h-.228v.54h-.24V.606h.616c.24 0 .424.16.424.4v.06c0 .18-.116.3-.3.36v.008zm-.5-.166h.334c.112 0 .22-.06.22-.18V1.02c0-.112-.1-.204-.22-.204h-.33v.452h-.004z"/></svg>