<svg viewBox="0 0 64 64" xmlns="http://www.w3.org/2000/svg" fill-rule="evenodd" clip-rule="evenodd" stroke-linejoin="round" stroke-miterlimit="1.414"><path d="M62.76 38.677c-.34 0-.65-.14-.876-.363-.225-.225-.363-.534-.363-.875v-.01c0-.34.14-.65.37-.878.228-.224.538-.36.878-.363.344 0 .654.14.88.363.222.227.36.536.36.878 0 .344-.14.654-.362.878-.223.224-.532.362-.874.362h-.002zm0-2.26c-.28 0-.536.116-.72.3-.185.183-.3.44-.3.72v.002c0 .28.116.53.3.72.184.18.44.29.72.29h.002c.28 0 .535-.116.72-.3.183-.185.298-.44.298-.72 0-.28-.115-.54-.298-.72-.185-.186-.44-.3-.72-.3h-.003zm-.558.275h.805c.145.006.293.073.334.23.02.064.05.166.02.292-.032.126-.1.17-.193.228.05.034.145.07.16.2.01.06.013.25.015.325 0 .082.024.1.055.12v.052h-.32c-.025-.05-.037-.09-.04-.14-.005-.07-.005-.19 0-.297-.005-.097-.076-.145-.18-.145h-.35v.572h-.3v-1.44zm.3.628h.406c.07 0 .195-.075.177-.218 0-.102-.05-.162-.18-.162H62.5v.38zm-56.71-.823c1.808 0 3.272-1.465 3.272-3.27 0-1.808-1.464-3.273-3.27-3.273-1.81 0-3.273 1.465-3.273 3.272 0 1.806 1.47 3.27 3.28 3.27zm16.193 0c1.808 0 3.272-1.465 3.272-3.27 0-1.808-1.464-3.273-3.272-3.273-1.807 0-3.27 1.465-3.27 3.272 0 1.806 1.463 3.27 3.27 3.27zm32.226-4.513c-.42-1.306-1.65-2.25-3.11-2.25-1.45 0-2.68.944-3.1 2.25h6.22zm2.63 2.19v.042l-8.954.002c.264 1.544 1.607 2.72 3.225 2.72 1.37 0 2.54-.84 3.03-2.03l2.54-.002c-.72 2.397-2.924 4.185-5.535 4.185-3.156 0-5.72-2.6-5.78-5.75l.003 5.55H42.86v-6.43c0-1.37-1.007-2.48-2.247-2.48s-2.236 1.11-2.236 2.48v6.43H35.61v-.85c-.725.616-1.666.978-2.8.978-2.89 0-5.066-2.34-5.066-5.23v-.013c-.27 2.94-2.744 5.24-5.755 5.24-3.2 0-5.78-2.59-5.78-5.78 0-1.213.37-2.34 1.01-3.27-2.078.013-3.11 1.473-3.11 3.27v5.645h-2.64V34.4c-.54 2.64-2.88 4.625-5.678 4.625-3.2 0-5.793-2.592-5.793-5.79v-8.32h2.63v4.077c.897-.8 1.966-1.46 3.166-1.46 2.887 0 5.28 2.036 5.72 4.785.332-3.246 2.477-4.867 5.736-4.867h.247v2.14c1.06-1.307 2.676-2.14 4.487-2.14 3.01 0 5.485 2.3 5.756 5.24v-7.75h2.837v2.726h4.3v2.48h-4.3v3.882c0 1.41 1.07 2.55 2.48 2.55s2.55-1.14 2.55-2.55v-8.98h2.77v3.54c.804-.61 1.45-1.132 2.45-1.132 2.505 0 4.534 2.24 4.534 5.004v.66c.06-3.144 2.624-5.675 5.78-5.675 2.94 0 5.37 2.197 5.733 5.038.273-3.36 2.435-5.036 5.752-5.036h.244v2.53l-.246-.02c-2.095 0-3.14 1.464-3.14 3.27v5.646h-2.65v-4.695z" fill="#fff"/></svg>