<svg viewBox="0 0 128 29" xmlns="http://www.w3.org/2000/svg" fill-rule="evenodd" clip-rule="evenodd" stroke-linejoin="round" stroke-miterlimit="1.414"><path d="M125.523 27.537c-.684 0-1.303-.278-1.753-.727-.45-.448-.725-1.068-.725-1.75v-.003c0-.683.278-1.303.726-1.75.45-.45 1.07-.726 1.75-.728h.01c.687 0 1.306.27 1.757.72.447.45.724 1.07.724 1.75 0 .684-.277 1.303-.726 1.752-.45.45-1.066.724-1.75.724h-.002zm-.002-4.518c-.56 0-1.07.23-1.43.59-.37.37-.596.88-.596 1.44v.002c0 .56.23 1.07.597 1.44.367.37.878.596 1.44.596h.004c.56 0 1.07-.228 1.44-.597.367-.37.596-.88.596-1.44v-.003c0-.56-.23-1.073-.6-1.44-.37-.368-.88-.598-1.44-.598h-.004zm-1.11.54h1.61c.29.01.59.144.67.46.04.13.1.33.03.583-.07.25-.2.34-.393.455.1.07.29.14.323.403.015.12.022.5.027.646 0 .163.048.2.11.24v.105h-.64c-.045-.085-.07-.173-.08-.27-.005-.14-.005-.37 0-.582-.005-.195-.15-.29-.355-.29h-.7v1.144h-.596V23.56zm.6 1.253h.817c.138 0 .39-.148.354-.434 0-.206-.097-.325-.363-.325h-.806v.76zM11.59 23.18c3.613 0 6.542-2.93 6.542-6.543 0-3.614-2.93-6.544-6.543-6.544-3.616 0-6.545 2.93-6.545 6.546 0 3.61 2.93 6.54 6.544 6.54zm32.384 0c3.616 0 6.544-2.93 6.544-6.543 0-3.614-2.928-6.544-6.543-6.544-3.613 0-6.54 2.93-6.54 6.546 0 3.61 2.927 6.54 6.54 6.54zm64.453-9.027c-.858-2.61-3.318-4.5-6.22-4.5-2.9 0-5.36 1.89-6.218 4.504l12.437-.002zm5.254 4.384l-.013.083-17.91.003c.526 3.088 3.213 5.438 6.45 5.438 2.735 0 5.077-1.67 6.055-4.06h5.08c-1.434 4.8-5.846 8.37-11.07 8.37-6.306 0-11.433-5.213-11.556-11.5l.007 11.09h-5.01V15.1c0-2.738-2.01-4.96-4.49-4.96-2.48 0-4.47 2.22-4.47 4.96v12.857h-5.53V26.25c-1.45 1.23-3.33 1.952-5.602 1.952-5.776 0-10.13-4.687-10.13-10.466v-.024c-.54 5.882-5.487 10.484-11.51 10.484-6.384 0-11.56-5.175-11.56-11.56 0-2.427.75-4.683 2.03-6.543-4.15.03-6.22 2.95-6.22 6.546v11.29h-5.29l.002-8.96c-1.08 5.28-5.75 9.25-11.35 9.25-6.4 0-11.586-5.19-11.586-11.59V0h5.25v8.152C7.05 6.555 9.19 5.237 11.59 5.237c5.774 0 10.562 4.072 11.44 9.57.663-6.49 4.953-9.734 11.472-9.734h.495V9.35c2.12-2.61 5.355-4.277 8.977-4.277 6.022 0 10.97 4.604 11.51 10.485V.055h5.675v5.453h8.59v4.958h-8.59v7.765c0 2.82 2.14 5.11 4.95 5.11 2.82 0 5.1-2.28 5.1-5.1V.278h5.53v7.08c1.607-1.22 2.897-2.265 4.902-2.265 5.007 0 9.066 4.48 9.066 10.01v1.32c.115-6.288 5.245-11.35 11.56-11.35 5.88 0 10.736 4.394 11.464 10.077.545-6.723 4.87-10.078 11.503-10.078h.496v5.063l-.495-.045c-4.184 0-6.28 2.93-6.28 6.55v11.29h-5.284l.006-9.39z"/></svg>