<svg viewBox="0 0 64 64" xmlns="http://www.w3.org/2000/svg" fill-rule="evenodd" clip-rule="evenodd" stroke-linejoin="round" stroke-miterlimit="1.414"><path d="M52.79 41.492c-.1-.1-.22-.15-.362-.15-.143 0-.264.05-.364.15-.1.102-.15.222-.15.362 0 .142.05.264.15.365.1.1.22.15.363.15.14 0 .26-.05.36-.15.102-.11.15-.23.15-.37 0-.14-.048-.26-.148-.367zm-.068.67c-.083.084-.18.126-.296.126-.115 0-.215-.042-.297-.127-.09-.08-.13-.18-.13-.3 0-.114.04-.22.12-.3.082-.085.182-.127.3-.127.114 0 .212.04.294.127.082.085.123.187.123.304 0 .12-.043.22-.124.308zm-.148-.27c.074-.032.11-.083.11-.156 0-.052-.02-.094-.055-.128-.04-.032-.1-.05-.17-.05h-.28v.593h.122v-.23h.144l.096.24h.134l-.11-.26zm-.263-.24h.15c.068 0 .1.028.1.082 0 .056-.035.084-.11.084h-.13v-.166zM27.16 34.56c-.026-.037-.037-.087-.037-.145 0-.354.386-1.02 1.15-2.31l2.968-4.865.32.39-.21.35L64 21.63l-7.068 10.927.32.202.173.38c-.213.12-.57.3-1.013.3h-.056l-5.74 8.87-25.086-4.97L0 41.39l6.725-10.36c-.847-.172-1.567-.636-1.66-1.59.047.135.113.26.198.373l.004.005c.373.494 1.114.792 2.22.792 1.15 0 2.05-.343 2.702-.743-.18.246-.36.507-.54.775-.91 1.32-1.91 2.816-2.32 3.486-.24.398-.41.72-.41 1.023 0 .22.082.39.23.52.2.186.51.28.85.28.3 0 .577-.09.852-.27.36-.234.714-.616 1.117-1.127l.25-.332c0 .01-.036.185-.036.344 0 .755.46 1.394 1.905 1.394.984 0 1.933-.257 2.86-.73.925-.47 1.83-1.153 2.72-2.003l.374-.356c-.567.78-.796 1.32-.796 1.65 0 .215.08.39.22.5.13.106.31.16.533.16.717 0 1.49-.56 2.1-1.19l.276-.284.007-.005c-.09.17-.157.326-.203.466-.05.15-.075.28-.075.4 0 .16.044.31.146.42.115.12.297.2.56.2.596 0 1.175-.365 1.704-.83.25-.226.49-.47.713-.71-.07.16-.133.343-.17.52-.02.09-.03.18-.03.255 0 .148.03.277.09.384.127.236.385.37.735.37.5 0 1.007-.21 1.556-.69.17-.148.346-.324.527-.527.1-.11.25-.28.383-.44-.057.12-.12.25-.174.39-.07.188-.12.386-.12.585 0 .284.112.49.336.597.11.05.248.08.412.08 1.07 0 2.032-1.147 2.61-1.785-.06.097-.11.188-.16.275-.186.33-.296.59-.296.846 0 .47.338.667.754.667.58 0 1.134-.323 1.63-.765.303-.274.585-.59.84-.908-.164.316-.33.64-.33.976 0 .16.036.29.11.397.13.19.375.29.705.29.46 0 1.046-.178 1.702-.762.01-.005.02-.014.026-.022.456-.41.826-.85 1.137-1.287.09-.125.176-.25.256-.374l.01-.015c.055.1.124.18.202.254.153.143.343.24.55.304-.018.04-.035.08-.05.122-.045.11-.08.224-.11.336-.037.155-.06.306-.06.444 0 .605.38 1.008 1.197 1.008 1.367 0 2.506-1.162 3.22-1.923l.02-.022c-.35.6-.468.96-.468 1.253 0 .056.006.11.015.158.036.2.144.35.318.442.124.065.28.1.47.1.9 0 1.855-.925 2.68-1.727l.23-.23c.35-.348.91-.927 1.65-1.71l.03-.03-.042.2c-.047.222-.1.485-.137.683l-.03.15c-.07.4-.152.74-.24 1.03-.312 1.013-.72 1.36-1.197 1.36-.1 0-.18-.02-.24-.058-.267-.15-.24-.535-.566-.535-.092 0-.172.047-.22.12-.036.05-.057.11-.057.18 0 .19.135.366.387.474.16.07.37.112.624.112 1.228 0 2.1-.757 2.79-1.376l.416-.378.65-.584c-.23.41-.43.86-.43 1.35 0 .334.135.62.416.79.18.11.414.17.72.17 1.493 0 2.64-1.38 3.263-2.18.313-.405.6-.77.86-1.07.44-.518.792-.845 1.04-.845.052 0 .093.02.12.054.01.02.02.05.02.085 0 .074-.028.156-.07.26-.06.127-.15.287-.28.505-.525.92-1.22 1.987-1.62 2.61-.15.234-.265.405-.31.48l1.23-.045c.433-.7 1.43-2.033 2.222-2.93.257-.29.494-.536.684-.7-.072.106-.134.217-.183.328-.082.187-.127.373-.127.536 0 .27.103.48.31.603.142.087.333.134.574.134.31 0 .55-.07.784-.19l-.1-.24c-.152.082-.284.125-.44.125-.1 0-.177-.028-.23-.07-.092-.076-.123-.198-.123-.33 0-.486.45-1.096.92-1.24-.004-.225-.215-.39-.553-.39-.38 0-.87.24-1.745 1.235-.2.227-.423.494-.667.806.172-.313.306-.556.402-.763.124-.265.187-.474.187-.704 0-.17-.06-.313-.18-.414-.11-.09-.273-.147-.488-.147-.812 0-1.34.703-2.37 2.015l-.122.155c-.7.89-1.62 1.828-2.52 1.828-.11 0-.205-.02-.28-.06-.13-.07-.193-.2-.193-.37 0-.165.04-.346.093-.514.056-.174.13-.334.19-.446.21-.024.437-.073.667-.145.693-.216 1.417-.634 1.823-1.135.202-.25.326-.524.326-.8 0-.228-.08-.38-.23-.48-.135-.085-.32-.124-.55-.124-.595 0-1.333.286-2.114 1.013-.757.71-2.027 1.902-2.66 2.41.064-.094.117-.188.162-.28v-.008c.17-.354.22-.71.22-1.12 0-.244-.015-.46-.028-.676-.012-.227-.026-.453-.026-.707 0-.047.003-.115.007-.17l.01-.045c.038-.01.076-.02.11-.034.12-.044.227-.122.29-.23.04-.066.064-.144.064-.232 0-.2-.13-.357-.38-.357-.102 0-.2.03-.292.08-.18.11-.323.325-.41.668-.374.415-.982 1.048-1.53 1.605l-.206.213c-1.19 1.203-2.013 1.92-2.475 1.92-.128 0-.207-.06-.207-.206 0-.2.215-.63.46-1.054.085-.14.17-.282.254-.414 0 0 .06-.1.213-.344.18-.29.494-.79.98-1.564l.176-.274-1.22.07-.024.037c-.118.18-.41.582-.47.66-.86 1.128-2.444 3.103-3.745 3.103-.4 0-.526-.206-.526-.485 0-.177.05-.365.114-.546.046-.128.1-.25.153-.36.74-.104 1.39-.38 1.878-.73.59-.416.95-.932.95-1.353 0-.406-.246-.602-.77-.602-1.473 0-2.647 1.463-3.123 2.38-.313-.09-.575-.273-.704-.577l.1-.172c.39-.68.61-1.25.61-1.462 0-.12-.143-.214-.333-.214-.114 0-.205.027-.28.067-.04.022-.08.05-.11.08-.04.033-.07.07-.098.11-.14.205-.248.545-.285.945-.012.136-.017.28-.013.43-.294.852-1.54 2.46-2.427 2.46-.17 0-.232-.08-.232-.212 0-.196.175-.584.5-1.154.114-.2.246-.42.396-.665l.09-.15c.213-.35.72-1.186 1.004-1.64l.01-.02-1.215.065c-.29.445-.53.83-.837 1.263-1.285 1.812-2.16 2.515-2.626 2.515-.135 0-.202-.065-.202-.184 0-.09.044-.21.126-.37.02-.04.04-.08.067-.124.393-.74 1.34-2.135 2.027-3.165l-.59.03-.643.03c-.09.14-.292.427-.466.66-.094.13-.18.25-.234.32-1.728 2.173-2.556 2.8-2.978 2.8-.083 0-.136-.028-.167-.07zm-18.593.792c-.066.03-.126.046-.185.046-.123 0-.17-.073-.17-.16 0-.075.024-.178.122-.372.037-.074.085-.16.146-.264.06-.1.304-.47.648-.985.756-1.128 1.996-2.955 2.833-4.183l.86-1.258c.12.053.23.107.35.163.15.07.3.14.446.22-.62.84-1.507 2.24-2.404 3.55-.422.616-.796 1.156-1.13 1.61-.442.606-.815 1.06-1.14 1.35l-.03.03-.02.015c-.124.107-.23.183-.322.227zm18.804-3.878c-.01.044-.03.09-.05.126-.46.796-1.08 1.593-1.62 2.193-.575.643-.973.818-1.22.818-.242 0-.275-.13-.275-.25 0-.3.25-.86.58-1.41.17-.283.367-.565.56-.807.346-.436.644-.734.92-.917.24-.16.465-.233.69-.233.174 0 .303.055.374.16.04.06.06.133.06.222 0 .03-.005.07-.013.107zm10.53 1.504c.41-.75.92-1.493 1.39-1.852.187-.14.36-.22.527-.22.056 0 .1.013.135.038.047.037.07.096.07.17 0 .604-.714 1.316-1.49 1.668-.21.094-.422.163-.63.196zm11.52-.13c-.15.058-.3.1-.444.125.16-.29.317-.552.47-.786.127-.19.25-.36.373-.51.4-.5.77-.772 1.07-.772.14 0 .194.083.194.208 0 .357-.286.783-.693 1.14-.282.247-.624.462-.97.595zm-36.246-1.99c.06-.004.134-.007.215-.007h.47c.99 0 1.217.56 1.217 1.19 0 1.39-1.35 3.49-3.315 3.49-.52 0-.842-.15-1.01-.41-.106-.16-.15-.36-.15-.58 0-.852.593-1.683 1.6-2.02.28-.092.596-.15.938-.152v-.33c-.446 0-1.14.115-1.677.47.37-.54.81-1.208 1.234-1.84.517-.777 1.004-1.5 1.29-1.884.073.04.143.084.21.126.25.154.474.312.675.47l.03.023.172-.23.024-.03-.182-.14c-.186-.136-.422-.3-.726-.483.477-.614 1.22-1.41 2.048-1.41.547 0 .716.342.716.77 0 .215-.07.5-.203.804-.25.566-.73 1.19-1.43 1.52-.272.128-.604.19-.995.218-.3.025-.635.028-1.005.028l-.29.436.035-.007c.03-.008.066-.01.107-.01zm-3.45-1.103c-.55.286-1.267.513-2.17.515-.11 0-.216-.003-.32-.01l1.736-2.673c-.107-.003-.214-.007-.32-.007-1.25 0-2.156.348-2.57.926-.284.397-.313.94-.2 1.245-.21-.21-.317-.48-.316-.8.004-1.07 1.134-1.82 2.99-1.82 1.325 0 2.43.307 3.177.59l-.12.17-.68.94c-.21.237-.604.62-1.205.934zm33.91-.282c.088.08.213.125.376.125.416 0 .74-.392.74-.79 0-.345-.233-.52-.5-.52-.197 0-.36.074-.486.19-.177.16-.276.402-.276.62 0 .155.048.286.146.375zM23.94 32.325c-.448.567-1.77 2.3-2.516 2.3-.123 0-.185-.06-.185-.186 0-.06.01-.13.03-.2.067-.23.3-.64.59-1.12l.11-.18s.225-.356.866-1.345c.15-.234.327-.504.528-.813l-1.297.082s-1.096 1.66-1.4 2.054c-.66.86-1.593 1.694-2.087 1.694-.06 0-.1-.014-.132-.034-.045-.03-.062-.08-.062-.124 0-.117.053-.267.25-.61.148-.253.52-.834.904-1.423.53-.813 1.076-1.642 1.076-1.642l-1.278.08-.118.162c-.126.173-.28.385-.4.54l-.075.09c-.658.807-2.128 2.208-3.194 2.864l-.12.076c.03-.037.064-.07.094-.108.516-.61.94-1.37.94-2.197 0-1.04-.656-1.33-1.015-1.525.12-.026.25-.057.38-.095.247-.07.506-.16.76-.283.32-.154.63-.355.892-.62h.004c.243-.247.466-.58.614-.94.114-.277.184-.567.184-.84 0-.69-.442-1.366-1.625-1.366-.45 0-.855.09-1.24.27-.555.263-1.067.72-1.6 1.4-.05-.03-.105-.056-.16-.084-.17-.09-.34-.176-.514-.26l-.12-.056.175-.246c.205-.286.378-.523.484-.67l-.594.03-.872.037-.07.09-.164.223-.017.02-.04.054c-.315-.12-.666-.236-1.052-.337-.43-.114-.902-.207-1.42-.26L12.3 22.44l.36-.556.616.24 16.073 6.17c-.52.855-1.29 2.13-1.7 2.8-.147-.307-.45-.487-.92-.487-.71 0-1.39.33-1.998.86-.277.238-.538.518-.78.828l-.02.023z" fill="#fff"/></svg>