<svg viewBox="0 0 128 25" xmlns="http://www.w3.org/2000/svg" fill-rule="evenodd" clip-rule="evenodd" stroke-linejoin="round" stroke-miterlimit="1.414"><path d="M18.415 5.833c.336-.256 1.466-1.253 2.05-1.92.43.162.868.342 1.343.59-3.398 4.527-11.082 14.72-14.565 17.44-.168.13-1.388 1.08-1.708.646-.3-.42.203-1.26.772-2.02 2.188-2.93 5.056-5.85 12.108-14.74zm101.665 14.8c0-.573.482-.997 1.05-.997.564 0 1.044.424 1.044.998 0 .58-.48 1.004-1.043 1.004s-1.05-.424-1.05-1.004zm1.05.838c.468 0 .837-.35.837-.83 0-.47-.37-.83-.836-.83-.47 0-.84.36-.84.83 0 .48.37.84.85.84zm-.22-.25h-.18v-1.16h.455c.282 0 .42.1.42.33 0 .21-.133.298-.308.32l.34.508h-.203l-.315-.5h-.21v.5zm.218-.65c.153 0 .29-.01.29-.184 0-.143-.134-.17-.26-.17h-.247v.358h.22zm-75.815-.62c-.19 0-.34-.063-.425-.18-.092-.13-.124-.33-.09-.588.128-1 1.443-3.45 3.205-5.49 1.558-1.773 3.11-2.794 4.258-2.794.32 0 .59.12.74.33.09.124.13.263.11.413v.028c-.15 1.187-1.68 3.728-4.23 6.11-1.45 1.362-2.79 2.175-3.56 2.175zm-10.95-9.902c-2.28 2.563-5.49 5.42-7.04 6.753 1.22-2.552.415-5.273-1.646-6.225 4.742-.81 6.594-4.104 6.792-6.484C32.64 2.01 31.35 0 28.83 0c-1.28 0-3.336.167-6.408 3.728-.473-.26-.92-.462-1.35-.626.736-1.08.932-1.835 1.025-2.495h-3.01l-1.11 1.328C14.634.737 11.76.287 9.36.287c-10.89 0-12.75 10.138-3.093 10.166 1.844.007 3.91-.358 5.79-1.064-2.265 2.95-6.96 8.15-8.04 10.73-1.333 3.18.523 4.69 3.004 3.19 1.08-.66 2.45-1.86 4.07-3.58-.32 1.72.58 4.28 4.45 4.28 5.66 0 9.55-4.027 14.49-8.356-1.36 1.865-1.435 2.715-1.47 3.133-.1 1.196.46 2.434 2.02 2.434 1.09 0 2.763-1.016 4.83-2.93-.615 2.013.768 3.9 2.96 2.375 1.01-.708 4.463-3.838 4.693-4.047-.616 1.955-.327 4.6 1.82 4.6 1.25 0 2.825-.884 4.565-2.537-.245 1.045-.166 2.537 1.467 2.537 1.356 0 2.53-1.03 4.48-2.735 0 0 1.895-1.65 3.068-2.828-.765 1.077-1.394 2.11-1.48 3.13-.11 1.36.605 2.43 2.018 2.43 1.1 0 2.788-1.033 4.876-2.965-.26 1.26.144 2.927 1.873 2.927 1.595 0 3.674-.983 6.02-2.847.865.15 3.05-.073 4.922-1.824-.512 2.093.31 4.71 2.82 4.71 1.627 0 3.305-.868 5.794-3 .786-.69 1.75-1.58 2.87-2.65-.82 1.142-1.468 2.235-1.55 3.22-.12 1.47.67 2.43 1.98 2.43 1.232 0 2.685-1.075 5.11-3.18 1.48-1.285 4.855-4.94 6.71-6.497-.31 5.195-3.81 8.46-4.923 8.46-.346 0-.23-.27.01-.657.27-.427.325-.605.34-.8.045-.52-.343-.976-.94-.975-.83 0-1.455.74-1.524 1.56-.084 1.01.547 2.086 2.47 2.086 2.383 0 4.176-1.524 7.574-4.636-.51 2.2.45 4.637 2.837 4.637 1.96 0 3.935-1.4 5.623-2.858 2.265-1.954 7.07-7.238 8.71-7.47.436-.06.41.223.277.427-.692 1.065-6.007 7.36-7.922 9.78l3.4-.32c1.97-2.073 4.07-4.23 5.704-5.62-1.005 1.61-.577 2.95 1.11 2.952 1.166 0 2.923-1.218 3.38-1.975.417-.69-.22-1.05-.565-.76-.703.59-1.703 1.62-2.775 1.62-.365 0-.61-.185-.57-.63.09-1.112 1.22-2.374 2.157-2.995 1.97-1.26 2.507-1.683 2.833-2.065.755-.874.277-1.64-.662-1.64-1.645 0-2.592 1.177-3.662 3.212-.683.526-1.45 1.205-2.2 1.88.728-1.102 1.367-2.285 1.454-3.323.086-1.058-.553-1.77-1.51-1.77-2.2 0-6.606 5.166-9.728 7.83-2.14 1.83-3.53 2.54-4.742 2.54-1.296 0-1.21-1.1-.744-2.482 5.085-1.144 8.48-3.9 8.65-5.958.09-1.07-.687-1.9-2.088-1.9-1.985 0-4.945 1.648-7.92 4.408 0 0-2.497 2.448-3.598 3.396.297-.85.407-1.863.443-2.3.097-1.17-.015-2.074.117-3.628.06-.72.19-.76.614-.905.004 0 1.29-.28 1.38-1.34.05-.626-.34-.953-.908-.953-.67 0-1.32.54-1.925 1.603-2.61 2.356-4.47 4.304-6.03 5.82-1.147 1.12-3.367 3.197-4.963 4.02-.607.32-1.608.516-1.048-.54.5-.946 7.284-9.473 7.284-9.473l-3.414.223c-2.356 2.005-3.96 3.736-5.616 5.344-1.655 1.61-4.71 4.67-6.993 4.67-.96 0-1.435-.655-.743-2.48 5.09-1.146 8.48-3.917 8.65-5.963.126-1.492-1.282-1.892-2.09-1.893-1.984 0-4.843 1.565-7.92 4.406-.873.802-1.526 1.49-2.093 1.94-1.47 1.123-2.42 1.233-2.75 1.184 2.363-2.487 3.95-4.962 4.053-6.18.136-1.616-1.537-1.816-2.37-.704-.774 1.03-.76 2.344-1.566 4.16-1.43 3.217-4.606 5.262-6.503 5.51-1.08.133-1.09-.426-.75-1.005.8-1.367 3.834-4.92 7.084-9.17l-3.25.186c-4.045 5.406-7.974 9.284-10.025 9.92-.41.123-.64.13-.73.004-.226-.313.254-.96.677-1.53 1.584-2.153 6.054-7.754 6.7-8.58l-3.334.197c-.87.75-7.11 6.728-7.11 6.728-1.995 1.828-3.03 2.613-3.57 2.93-.517.305-.88.296-.608-.48.406-1.154 7.28-10.382 12.035-17.076l-3.137.137s-5.763 8.285-6.24 8.974c-.075-.85-.646-1.55-1.992-1.55-1.75 0-4.816 1.605-7.766 4.185-.952.833-5.425 5.09-6.77 5.98-.665.44-.944.063-.58-.597.197-.36.546-.802.977-1.356l6.3-8.07-3.25.185c-4.014 5.37-7.92 9.232-9.98 9.903-.88.29-.963-.033-.697-.61.4-.867 6.49-8.44 7.302-9.48l-3.402.18zm51.49 1.614c-.625 1.34-2.943 3.72-6.125 4.58 1.734-2.99 4.33-4.997 5.57-5.383.684-.213.876.117.555.803zm20.633 4.58c1.932-3.332 4.94-5.452 5.946-5.452.115 0 .22.05.283.14.045.064.066.144.06.228-.145 1.135-2.65 4.11-6.29 5.086zm-94.143 3.81c.235-2.813 2.857-4.825 5.294-4.945.405-.017.51-.55.085-.784-.43-.237-1.21-.22-2.027.07 1.357-1.7 4.975-6.66 7.17-9.32 1.38.85 1.364 1.09 1.817 1.426.74.54 1.232-.28.64-.886-.4-.406-1.01-.835-1.8-1.28 1.95-2.423 3.77-2.952 4.745-2.953 1.886 0 1.873 1.935 1.812 2.653-.13 1.462-1.39 3.64-4.3 4.96-1.41.63-2.31.56-3.01.4-.51-.21-1.01-.315-1.477-.315-1.755 0-2.03 1.975-.727 1.975.49 0 .71-.31 1.963-.31 2.09 0 2.744 1.57 2.64 2.79-.316 3.792-5.75 8.854-10.496 8.855-1.81 0-2.44-1.148-2.34-2.343zM9.793 1.41c2.183-.006 4.675.5 7.51 1.397-.277.336-3.858 4.76-3.92 4.834-1.876.88-4.406 1.44-6.552 1.41-8.2 0-7-7.63 2.97-7.63zm87.3 5.12c.982 0 1.913-1.026 1.99-1.913.07-.87-.435-1.374-1.113-1.374-.9 0-1.953.963-2.03 1.916-.066.78.398 1.37 1.154 1.37z"/></svg>