<svg viewBox="0 0 128 24" xmlns="http://www.w3.org/2000/svg" fill-rule="evenodd" clip-rule="evenodd" stroke-linejoin="round" stroke-miterlimit="1.414"><path d="M107.997 23.963c.192.03.39.035.587.035h7.71c.162 0 1.015 0 1.174-.004 1.643-.063 3.136-.963 3.962-2.388.193-.336.342-.685.454-1.06.106-.373.2-.75.3-1.125l.607-2.26L125.25 8c.405-1.52.813-3.04 1.22-4.56.116-.437.207-.696.17-1.163-.03-.4-.162-.787-.38-1.126-.44-.67-1.197-1.08-2.005-1.08h-9.477c-1.64 0-3.163.84-4.04 2.22-.213.33-.376.68-.5 1.05-.07.21-.252.91-.31 1.12-.2.757-.4 1.51-.603 2.26-.817 3.06-1.64 6.116-2.46 9.176l-.61 2.277c-.1.38-.2.758-.303 1.135-.103.384-.213.76-.306 1.14-.4 1.64.69 3.27 2.355 3.525zm-52.722.035h6.22l2.436-9.096h7.4l1.78-3.35h-8.27l1.17-4.402.59-2.2c.05-.178.1-.35.187-.514.092-.174.203-.323.34-.46.275-.277.626-.462 1.01-.532.19-.033.37-.03.56-.03h8.55c.374-1.434 1.014-2.59 2.39-3.35H65.242c-.06 0-.116.007-.17.01-.115.006-.23.017-.345.032-.233.032-.465.08-.69.144-.858.25-1.628.73-2.228 1.39-.3.327-.54.68-.74 1.073-.217.43-.29.706-.417 1.17-1.797 6.704-3.59 13.41-5.39 20.115zM0 23.998L6.41.066h12.92c.253 0 .497 0 .747.055.506.12.96.39 1.296.78.335.39.538.875.576 1.386.02.258 0 .504-.07.755-.064.245-.13.486-.197.73-.525 1.958-1.05 3.918-1.573 5.876-.45 1.228-1.6 2.218-2.916 2.39 1.065.28 1.818 1.018 1.6 2.517L17.18 20.6c-.008.032-.016.065-.026.096-.005.018-.008.033-.01.05-.107.387-.252.747-.457 1.093-.312.53-.696.95-1.197 1.31-.783.566-1.69.84-2.653.84H0zm67.913 0h4.014l3.692-5.746h6.97l-.57 5.746H88L90.372.066h-3.29c-.36 0-.722-.01-1.09 0-1.48.046-2.87.71-3.833 1.837-.24.275-.44.58-.63.884l-.6.924c-.395.62-.79 1.24-1.187 1.85l-2.37 3.69L67.91 24zm-24.364 0l2.43-9.096h7.48l1.69-3.35h-8.27L48 7.38c.188-.693.375-1.39.56-2.083.088-.34.157-.677.35-.984.2-.315.485-.566.822-.722.386-.17.643-.17 1.053-.17h7.554c.37-1.433 1.01-2.59 2.39-3.35h-13.4c-.04 0-.074 0-.115.007-.08.003-.16.01-.24.015-.162.016-.324.04-.484.07-.332.064-.65.163-.963.3-.806.344-1.5.9-2.01 1.615-.245.343-.44.705-.585 1.102-.112.3-.254.866-.34 1.175L37.328 24h6.22zm80.3-.225V21.41h-.89v-.317h2.12v.316h-.886v2.36h-.354zm1.59 0v-2.68h.52l.64 1.897.13.396c.03-.097.08-.24.14-.43l.644-1.863h.48v2.68h-.343V21.53l-.78 2.243h-.32l-.775-2.28v2.28h-.34zM112 19.933c.025-.107.055-.21.084-.317.113-.424.225-.846.342-1.27.224-.845.45-1.69.678-2.537.452-1.7.904-3.39 1.358-5.08l1.362-5.08.337-1.265c.03-.103.06-.205.11-.303.05-.1.116-.194.19-.277.16-.18.34-.29.573-.354.217-.06.428-.04.644-.04h1.963c.23 0 .424.163.47.39.02.115-.01.217-.04.324-.028.105-.055.21-.085.316l-.34 1.27-.68 2.537-1.36 5.075-1.36 5.077c-.114.42-.225.843-.34 1.265-.026.105-.053.204-.102.302-.047.103-.11.194-.184.28-.164.18-.34.29-.575.355-.22.06-.43.046-.648.046h-1.96c-.232 0-.428-.17-.472-.395-.02-.117.01-.22.04-.325zm-8.327.716h-5.59c-.142 0-.286 0-.43-.01-.32-.02-.513-.32-.43-.62l1.782-6.657c1.19-4.434 2.377-8.87 3.565-13.306h-2.69c-.923.03-1.817.322-2.575.845-.766.53-1.36 1.27-1.713 2.133-.17.41-.264.835-.377 1.26-.118.432-.233.863-.348 1.296-.94 3.5-1.876 7.005-2.816 10.507l-.7 2.63c-.12.438-.23.877-.35 1.314l-.172.66c-.06.22-.122.433-.143.66-.083.83.27 1.64.94 2.144.33.25.717.41 1.128.464.204.027.404.022.604.022h12.03c-1.107-.82-1.693-1.677-1.703-3.35zm-91.81-3.43c-.152.57-.303 1.14-.458 1.71-.076.28-.146.566-.227.844-.086.29-.277.542-.54.697-.308.184-.526.17-.86.17h-2.66l1.858-6.94h3.106c.073 0 .146-.003.22.016.076.02.138.052.198.105.113.1.174.25.16.4-.005.06-.094.38-.108.43l-.227.86c-.155.57-.31 1.14-.46 1.712zm8.13 1.81l-.507 1.89c-.086.322-.12.634-.077.973.04.34.14.64.32.933.34.575.91.98 1.57 1.114.32.065.65.05.97.05h8.792c.32 0 .63-.01.947-.06.326-.054.642-.14.953-.257.638-.244 1.216-.62 1.697-1.108.487-.49.83-1.026 1.075-1.67.114-.3.186-.616.272-.925l.25-.944 1.017-3.79L41.347.06h-6.222c-.99 3.686-1.976 7.37-2.962 11.055l-1.484 5.53c-.25.916-.49 1.834-.74 2.75-.06.23-.1.457-.227.668-.135.212-.33.38-.558.48-.26.11-.43.1-.7.1h-1.78c-.055 0-.303 0-.358-.01-.25-.046-.42-.28-.39-.528.003-.048.073-.302.085-.347.032-.115.06-.23.093-.344l.746-2.763c.494-1.84.987-3.69 1.48-5.53L31.297.07h-6.22l-4.07 15.18c-.34 1.265-.672 2.527-1.014 3.788zM83.867 5.4l-.94 9.5h-5.16l6.1-9.5zM11.735 3.416h3.102c.074 0 .147-.005.22.015.077.02.14.06.2.11.113.1.173.25.158.4-.005.06-.09.378-.106.43l-.23.858c-.16.57-.31 1.14-.46 1.715-.16.57-.31 1.14-.47 1.713-.075.283-.144.565-.227.848-.084.29-.276.54-.54.694-.307.184-.524.168-.86.168H9.87l1.86-6.936z"/></svg>