<svg viewBox="0 0 64 64" xmlns="http://www.w3.org/2000/svg" fill-rule="evenodd" clip-rule="evenodd" stroke-linejoin="round" stroke-miterlimit="1.414"><path d="M54 37.966c.095.015.193.018.292.018h3.855c.08 0 .508 0 .587-.003.822-.03 1.568-.48 1.98-1.19.098-.17.172-.34.228-.53.053-.18.1-.37.15-.56l.304-1.13 1.227-4.58c.202-.76.407-1.52.61-2.28.058-.22.103-.35.085-.58-.014-.2-.08-.39-.19-.56-.22-.338-.598-.543-1.002-.543h-4.74c-.82 0-1.58.42-2.02 1.11-.106.168-.187.34-.25.528-.034.104-.125.453-.154.56-.1.376-.2.754-.302 1.13-.408 1.53-.82 3.056-1.23 4.585-.1.38-.203.76-.305 1.14l-.15.566c-.053.19-.107.38-.154.57-.2.82.35 1.634 1.18 1.76zm-26.363.018h3.11l1.218-4.55h3.696l.9-1.674h-4.14l.59-2.2.295-1.1c.024-.088.05-.174.093-.256.046-.087.1-.162.17-.23.137-.14.313-.23.505-.267.096-.016.186-.014.28-.014h4.276c.186-.72.506-1.297 1.194-1.676h-7.2c-.03 0-.056.003-.083.005-.056.003-.114.01-.17.016-.118.016-.234.04-.347.072-.43.124-.814.363-1.113.694-.15.164-.27.34-.367.537-.11.22-.144.36-.207.59L27.64 37.99zM0 37.984l3.205-11.967h6.46c.126 0 .25 0 .374.028.25.056.47.19.64.385.17.195.27.438.29.693.01.13 0 .252-.03.377-.03.123-.07.243-.1.365l-.79 2.938c-.224.615-.8 1.11-1.457 1.196.53.13.907.5.8 1.25l-.81 3.025-.015.05-.006.024c-.054.193-.127.373-.23.546-.155.27-.347.48-.6.66-.39.285-.843.42-1.324.42H0zm33.956 0h2.008l1.846-2.874h3.487l-.283 2.874h2.992l1.183-11.967h-1.65c-.188 0-.37-.004-.55 0-.74.024-1.44.356-1.92.92-.12.136-.217.29-.31.44l-.3.463c-.2.308-.396.616-.595.924l-1.18 1.846c-1.58 2.457-3.16 4.916-4.736 7.374zm-12.18 0l1.217-4.55h3.74l.846-1.674h-4.14l.56-2.085.28-1.042c.04-.17.08-.34.17-.492.1-.15.24-.28.41-.36.19-.09.32-.08.524-.08h3.78c.186-.72.505-1.295 1.193-1.674H23.66c-.02 0-.037 0-.06.003-.04 0-.08.004-.12.007-.08.01-.16.02-.24.036-.17.03-.327.08-.483.15-.404.17-.75.45-1.006.807-.123.17-.22.35-.293.55-.058.15-.13.433-.17.587l-2.633 9.827h3.11zm40.15-.113v-1.18h-.443v-.16h1.06v.16h-.44v1.18h-.178zm.794 0v-1.34h.264l.32.95c.03.09.05.16.064.2.015-.05.04-.12.07-.21l.324-.93H64v1.34h-.17v-1.12l-.392 1.12h-.16l-.388-1.14v1.14h-.17zM56 35.95l.042-.158c.057-.212.112-.422.17-.634l.34-1.27c.226-.845.452-1.69.68-2.536l.68-2.54.17-.63c.013-.052.027-.103.05-.152.025-.05.057-.097.093-.14.08-.09.17-.144.287-.177.108-.03.214-.02.322-.02h.98c.116 0 .214.08.236.194.01.058-.005.11-.02.163l-.042.158-.17.634c-.112.422-.226.845-.34 1.268l-.68 2.537-.68 2.538c-.056.21-.112.422-.17.632-.012.053-.026.103-.05.15-.024.053-.055.1-.093.14-.08.092-.168.146-.286.18-.11.03-.22.022-.33.022h-.98c-.12 0-.217-.09-.24-.2-.01-.06.005-.11.02-.16zm-4.163.36h-2.795c-.07 0-.143 0-.216-.003-.16-.008-.256-.158-.215-.31l.9-3.326 1.78-6.65h-1.35c-.46.02-.904.16-1.283.43-.383.264-.68.635-.857 1.066-.086.205-.133.42-.19.63l-.175.65-1.407 5.25c-.118.44-.235.878-.35 1.316l-.18.657c-.027.11-.057.22-.087.33-.03.11-.065.215-.075.33-.04.413.136.82.47 1.07.165.126.36.205.564.233.1.013.2.01.3.01h6.01c-.55-.41-.844-.837-.85-1.674zM5.932 34.595l-.23.86c-.037.14-.072.28-.113.42-.05.146-.14.272-.27.35-.16.09-.27.083-.43.083H3.56l.928-3.473H6.04c.037 0 .074 0 .11.008.04.01.07.026.1.052.057.05.087.125.08.2-.003.03-.047.188-.054.214l-.114.43-.23.85zm4.064.905l-.253.948c-.043.162-.06.318-.04.488.022.17.074.32.162.466.174.288.458.49.787.557.163.03.324.02.487.02h4.39c.16 0 .312-.01.47-.03.162-.03.32-.07.475-.13.32-.12.61-.31.85-.55.24-.25.413-.51.536-.84.058-.15.094-.308.137-.46.04-.16.083-.318.125-.475l.506-1.895 2.034-7.59h-3.11c-.495 1.843-.99 3.685-1.48 5.527-.25.923-.495 1.844-.74 2.767l-.37 1.375c-.03.113-.05.226-.114.33-.066.107-.163.19-.277.24-.13.056-.216.05-.35.05h-.893c-.03 0-.15 0-.18-.005-.125-.023-.21-.14-.196-.265.003-.02.038-.15.044-.17l.045-.17.37-1.38.74-2.768c.496-1.844.99-3.69 1.484-5.53h-3.11l-2.034 7.59c-.17.63-.336 1.262-.507 1.892zm31.938-6.816l-.47 4.75h-2.58l3.05-4.75zm-36.067-.99H7.42c.036 0 .072-.004.11.006.037.01.07.026.1.053.055.05.085.124.078.2-.003.028-.046.186-.054.213-.037.143-.076.285-.114.428-.077.285-.153.57-.228.857l-.232.86c-.037.14-.072.28-.113.43-.042.146-.138.27-.27.347-.154.09-.262.083-.43.083h-1.33l.93-3.468z" fill="#fff"/></svg>