<svg viewBox="0 0 128 27" xmlns="http://www.w3.org/2000/svg" fill-rule="evenodd" clip-rule="evenodd" stroke-linejoin="round" stroke-miterlimit="1.414"><path d="M103.305 18.91c-1.47 4.455-5.665 7.67-10.612 7.67s-9.143-3.215-10.612-7.67c-.36-1.1-.56-2.278-.56-3.5 0-6.17 5.01-11.17 11.18-11.17s11.17 5 11.17 11.17c0 1.222-.194 2.4-.56 3.5zm12.844 7.24h-7.62V8.124h-4.26s5.993-3.743 8.135-3.743c2.03 0 3.532 1.56 3.72 3.55 2.987-1.61 5.95-3.54 7.987-3.54 2.107 0 3.82 1.68 3.88 3.77v18h-7.758V10.25c0-1.17-.95-2.12-2.12-2.12-.9 0-1.667.56-1.975 1.35v16.67zm-44.9-15.907c0-1.17-.95-2.12-2.12-2.12-.9 0-1.67.56-1.98 1.35V26.15h-7.61V8.124H55.1s6.18-3.744 8.32-3.744c2.03 0 3.533 1.56 3.72 3.547 2.99-1.61 5.95-3.546 7.99-3.546 2.107 0 3.82 1.68 3.88 3.77v18h-7.76v-15.9zM54.9 18.91l2.15 7.24h-7.54l-1.482-4.958c-.992 2.856-4.34 4.957-8.32 4.957-4.76 0-8.62-3.01-8.62-6.72 0-.18.01-.35.024-.52.34-3.47 4.058-6.2 8.596-6.2 2.578 0 4.89.88 6.47 2.27l-2.053-6.86h-8.653s1.44-.863 7.824-3.186c6.384-2.322 8.407 3.187 8.407 3.187l3.202 10.79zm36.053 0l1.08 3.568c.02 1.53 1.276 2.752 2.82 2.752 1.575 0 2.853-1.278 2.853-2.855 0-.11-.006-.22-.018-.33l-.918-3.136-3.22-11.02c-.16-1.43-1.37-2.54-2.838-2.54-1.454 0-2.84 1.36-3.018 2.765l3.26 10.784zm-80.87.005c2.05 3.36 5.81 5.615 9.99 5.615 6.18 0 9.584-5.334 9.584-5.334l.44 1.42c-2.86 3.723-7.976 5.965-13.695 5.965-6.586 0-12.265-3.14-14.88-7.67C.55 17.21 0 15.3 0 13.29 0 5.95 7.346 0 16.41 0c6.404 0 11.56 2.744 14.266 6.72L19.93 13.152l6.133-9.417C24.31 2.633 22.157 1.6 19.93 1.6c-6.29 0-11.47 5.25-11.47 11.54 0 2.108.597 4.09 1.63 5.775zm28.77-.003c-.032.21-.05.428-.05.65 0 2.386 1.938 4.323 4.327 4.323 2.387 0 4.324-1.937 4.324-4.324 0-.22-.017-.43-.05-.65-.31-2.08-2.107-3.67-4.274-3.67-2.168 0-3.964 1.6-4.276 3.68z"/></svg>