<svg viewBox="0 0 128 50" xmlns="http://www.w3.org/2000/svg" fill-rule="evenodd" clip-rule="evenodd" stroke-linejoin="round" stroke-miterlimit="1.414"><path d="M33.317 33.66c-3.47 3.468-8.452 5.812-13.744 5.812C8.993 39.472 0 30.768 0 19.512 0 11.907 3.69 5.31 9.322.257 9.49.107 9.724 0 9.972 0h24.423c.216 0 .362.247.194.44l-8.15 10.74c-.12.154-.33.154-.47.022C24.44 9.668 21.85 8.7 19.43 8.7c-6.635 0-11.92 6.63-11.92 13.227 0 7.96 6.7 14.562 14.697 14.562 3.78 0 7.502-1.48 10.08-3.86.846-.78 1.818.23 1.02 1.03zM43.7 19.474c0 1.868-1.485 3.356-3.35 3.356-.886 0-1.613-.76-1.613-1.616 0-.823.442-.84.442-1.394 0-.41-.35-.76-.76-.76-.7 0-1.24.538-1.24 1.236v8.68c0 .157.13.25.25.285l.854.26c.12.04.284.13.284.288v.698c0 .158-.126.285-.284.285h-5.5c-.156 0-.283-.125-.283-.282v-3.92c-1.553 1.61-4.703 4.644-6.343 4.644-1.81 0-1.58-1.962-2.95-1.962-1.19 0-1.266 1.966-4.585 1.966-3.574 0-6.482-3.358-6.482-7.54 0-4.15 2.908-7.54 6.482-7.54 2.92 0 3.584 1.586 4.3 1.586.442 0 .63-.35.727-.857.03-.158.157-.284.346-.284h4.584c.158 0 .284.125.284.283v.697c0 .16-.16.25-.287.284l-.853.255c-.123.034-.25.124-.25.282v7.667c0 .51.474.92.98.92.917 0 2.883-1.626 4.047-2.667V18.9c0-.346-.264-.505-.55-.505-.347 0-.36.318-.81.318-.41 0-.664-.35-.664-.666 0-.602 1.075-1.9 2.75-1.9 2.898 0 2.45 2.154 3.48 2.154.932 0 1.09-2.15 3.636-2.15 1.862 0 3.35 1.46 3.35 3.33zm63.496-3.645c0 2.91-1.834 4.46-3.353 4.46-1.797 0-1.548-1.238-2.718-1.238-.696 0-1.328.537-1.328 1.234v8.68c0 .16.132.25.253.287l.853.253c.12.037.284.128.284.286v.697c0 .156-.125.283-.284.283H95.4c-.157 0-.283-.126-.283-.282V20.42c0-.79-.507-1.14-1.14-1.14-.58 0-1.488.518-2.31 1.086-.06 3.113-2.86 5.47-7.207 5.47 0 .603 1.36 2.82 4.048 2.82 1.58 0 2.766-.57 3.587-1.65.377-.49 1.28-.297.855.684-.41.95-2.292 3.53-6.118 3.53-3.598 0-6.624-2.506-7.356-5.93-.868-.255-1.74-.665-2.384-1.085v2.646c0 2.25-1.55 3.93-3.983 3.93h-2.28c-3.36 0-5.44-1.862-5.44-4.78V8.7c0-.158-.13-.247-.26-.283l-.853-.254c-.12-.038-.28-.127-.28-.286V7.18c0-.157.127-.284.286-.284h5.5c.16 0 .286.127.286.285v19.23c0 1.4 1.36 2 2.34 2 1.074 0 2.34-.41 2.34-1.9v-3.8l-1.9-1.14c-.255-.152-.44-.35-.44-.73v-3.96c0-.16.125-.285.283-.285h4.11c.158 0 .285.13.285.287v5.376c.602.4 1.444.863 2.22 1.193.122-4.07 3.395-7.3 7.52-7.3 2.306 0 3.77 1.08 4.43 2.41 1.365-1.06 3.437-2.41 5.12-2.41 1.883 0 1.89 1.55 2.814 1.55.317 0 .57-.286.57-.6 0-.39-.19-.684-.19-1.05 0-.694.695-1.33 1.454-1.33 1.365 0 2.143 1.428 3.32 1.428.505 0 1.105-.507 1.105-1.268 0-.727-.836-1.866-1.643-2.535-.554-.46.05-1.304.743-.903 1.755 1.016 2.64 2.6 2.64 4.39zM45.15 26.04c0 3.69 2.798 4.736 4.667 4.736h9.606c2.177 0 4.253-1.585 4.253-4.15 0-3.883-5.973-3.533-5.973-5.76 0-.904.878-1.225 1.968-1.225.82 0 1.95.37 2.58.83.22.17.39.01.448-.112l1.473-3.382c.064-.146-.012-.383-.256-.383h-6.9c-1.882 0-3.55 1.63-3.55 3.64 0 3.996 5.188 3.29 5.188 5.997 0 1.05-.834 1.946-1.996 1.946-2.29 0-3.257-1.535-3.36-2.42-.02-.17-.24-.29-.39-.23l-.95.38c-.18.07-.218.322-.12.444.164.203.256.4.256.715 0 .612-.48 1.133-1.137 1.133s-1.122-.56-1.122-1.136V7.18c0-.158-.124-.284-.28-.284h-5.51c-.157 0-.283.126-.283.285v.7c0 .16.164.25.284.29l.86.255c.12.036.255.126.255.285v17.34zM22.8 21.37c0-.953-1.297-1.9-2.5-1.9-2.213 0-3.634 1.74-3.634 4.21 0 2.47 1.42 4.245 3.635 4.245 1.21 0 2.5-.95 2.5-1.9V21.37zm93.787 0c0-.953-1.296-1.9-2.5-1.9-2.212 0-3.635 1.74-3.635 4.21 0 2.47 1.423 4.245 3.636 4.245 1.203 0 2.5-.95 2.5-1.9V21.37zm-27.67-.953c0-.41-.125-1.456-1.454-1.456-1.58 0-3.256 1.9-3.256 5.1 3.066 0 4.71-2.44 4.71-3.64zm35.132-1.853c0-1.094.88-1.98 1.97-1.98 1.09 0 1.972.886 1.972 1.98 0 1.093-.884 1.98-1.976 1.98-1.09 0-1.976-.887-1.976-1.98zm1.97 1.663c.913 0 1.66-.743 1.66-1.662 0-.92-.747-1.664-1.66-1.664-.92 0-1.66.75-1.66 1.67s.74 1.662 1.66 1.662zm.97-2.165c0 .386-.352.644-.576.675l.61 1.027h-.45L126 18.77h-.415v.994h-.416v-2.41h1.02c.48 0 .8.323.8.708zm-.416.033c0-.26-.19-.353-.45-.353h-.543v.705h.546c.256 0 .45-.097.45-.354zm-3.926-1.226v.692c0 .16-.16.25-.285.287l-.855.254c-.123.038-.25.128-.25.286v14.574c0 3.55-2.99 6.4-6.516 6.4-2.404 0-4.524-1.11-5.598-2.946-1.455 2.597-6.166 8.175-19.89 8.175-7.557 0-20.395-3.74-27.066-3.74-9.164 0-15.21 2.488-21.5 8.808-.145.145-.26.188-.454.08l-11.72-6.413c-.15-.083-.216-.313-.062-.444 7.75-6.583 18.972-9.976 26.91-9.976 15.525 0 26.34 7.696 39.082 7.696 10.75 0 13.88-5.38 13.88-7.19 0-.187.16-.28.285-.28h1.077c.127 0 .285.093.285.282 0 1.808 1.487 3.17 3.353 3.17 1.865 0 3.256-1.458 3.256-3.422v-2.79c0-.314-.16-.506-.49-.506-.49 0-.964 1.36-3.683 1.36-3.577 0-6.485-3.356-6.485-7.538 0-4.15 2.91-7.54 6.485-7.54 2.92 0 3.582 1.585 4.3 1.585.44 0 .63-.35.726-.855.03-.16.16-.285.35-.285h4.584c.156 0 .284.127.284.285zM100.83 2.83c-.36 0-.65-.29-.65-.65V.867c0-.48-.385-.866-.863-.866-.2 0-.38.08-.53.2-.56.445-1.32.57-2.01.3-.585-.23-1.27-.01-1.59.557-.327.564-.177 1.266.316 1.66.577.46.847 1.188.746 1.897-.03.187-.006.38.1.555.233.415.763.557 1.18.32l1.14-.66c.31-.18.703-.074.88.236.18.31.074.71-.236.89l-1.14.66c-.414.24-.555.77-.316 1.18.1.175.26.296.43.365.667.267 1.16.864 1.267 1.595.095.624.627 1.103 1.28 1.103.65 0 1.18-.48 1.275-1.106.11-.73.603-1.33 1.267-1.593.173-.07.33-.19.43-.366.24-.413.097-.943-.317-1.183l-1.14-.66c-.31-.18-.416-.575-.236-.887.18-.31.576-.42.886-.24l1.14.66c.412.237.942.095 1.18-.32.1-.174.126-.367.1-.554-.103-.71.168-1.437.744-1.898.493-.4.642-1.1.32-1.664-.328-.563-1.01-.784-1.597-.554-.683.27-1.45.145-2.01-.3-.146-.115-.33-.19-.53-.19-.476 0-.862.39-.862.87v1.32c0 .36-.29.65-.65.65z"/></svg>