<svg viewBox="0 0 64 64" xmlns="http://www.w3.org/2000/svg" fill-rule="evenodd" clip-rule="evenodd" stroke-linejoin="round" stroke-miterlimit="1.414"><path d="M37.766 26.423c1.28.187 2.17 1.105 2.413 2.236.08.33.12.74.13 1.13-.06.05-.1.01-.15.01-1.11.01-2.21.04-3.34.01.01-.42-.08-.755-.48-.93-.823-.095-1.7-.108-2.56-.083-.58.04-1.214 0-1.78.122-.376.146-.485.483-.5.833 0 .27.11.594.39.743l.3.08c1.82.08 3.612.163 5.46.257 1.104.028 2.223.445 2.682 1.36.444.758.47 1.74.404 2.724-.08 1.106-.73 2.023-1.767 2.47-1.21.364-2.493.31-3.76.39-1.535.04-3.06-.013-4.62-.2-1.01-.15-1.86-.824-2.17-1.71-.19-.53-.24-1.08-.24-1.648 1.09-.027 2.382-.04 3.486-.027.03.24.03.47.177.66.23.294.688.323 1.105.323 1.24.024 2.52.09 3.784-.084.352-.107.527-.417.568-.77-.04-.28-.014-.58-.243-.78-.256-.227-.66-.27-.998-.28-.58-.015-1.24-.04-1.835-.07-1.32-.094-2.65-.04-3.947-.27-1.025-.282-1.82-1.036-1.996-1.98-.135-.606-.135-1.065-.107-1.685.025-.983.524-1.967 1.4-2.452.54-.34 1.31-.42 1.983-.46 2.115-.15 4.162-.15 6.2.07zM62.79 37.76c.652 0 1.21-.507 1.21-1.202 0-.687-.558-1.196-1.21-1.196-.66 0-1.218.51-1.218 1.196 0 .695.558 1.2 1.217 1.2zm-39.405-11.4c1.535 3.614 3.194 7.414 4.745 11.107l-.016.042c-1.212 0-2.44.01-3.72.01l-.053-.04c-.21-.66-.45-1.26-.71-1.92l-.06-.04-5.35.025c-.068.03-.08.136-.123.204-.2.592-.443 1.253-.645 1.79-1.227.03-2.546.055-3.733 0 .997-2.44 1.967-4.784 2.964-7.25.055-.095.097-.16.12-.295v.013c.488-1.216 1.01-2.43 1.485-3.616l.093-.026 3.855-.028 1.16.013zm38.428 10.2c0-.568.427-.995.976-.995.54 0 .97.427.97.995 0 .578-.43 1.002-.97 1.002-.55 0-.98-.424-.98-1.002zm.724.094h.24l.364.6h.24l-.39-.608c.205-.025.36-.134.36-.382 0-.272-.16-.39-.487-.39h-.527v1.38h.21v-.6zm0-.177v-.43h.284c.15 0 .31.034.31.206 0 .213-.16.225-.333.225h-.25zM9.597 26.28v.014c1.106.014 2.385.27 3.018 1.13.674.77.862 1.93.824 3.035-1.24.02-2.35-.02-3.58 0-.07-.11-.016-.34-.07-.5-.04-.29-.24-.54-.54-.65-.58-.11-1.186-.1-1.74-.12-1.16.01-2.264-.03-3.382.17-.728.38-.47 1.212-.58 1.9-.04.862.014 1.805.123 2.762.07.31.23.5.525.634 1.254.215 2.78.134 4.06.107.55-.054 1.36.027 1.602-.526.135-.24.08-.66.135-.903l3.53-.026.052.012c.054 1.28-.11 2.79-1.24 3.612-.512.415-1.16.632-1.807.67-2.4.23-4.595.258-6.97.04-1.16-.052-2.275-.606-2.87-1.533-.43-.685-.552-1.28-.62-2.13C.005 32.85-.05 31.8.03 30.71c-.012-1.335.217-2.83 1.444-3.68.78-.62 1.886-.66 2.883-.743 1.686-.134 3.465-.122 5.23-.013zm44.457 2.92c-.796.054-1.605-.016-2.413.188-.39.147-.56.565-.56.93h-.01c-.08 1.334-.11 2.613.12 3.8.096.27.34.526.66.58.77.08 1.525.094 2.307.094.89-.013 1.807-.013 2.656-.148.377-.162.566-.406.606-.796.07-1.038.12-1.778.055-2.87-.08-.39.028-1.052-.28-1.347-.16-.25-.51-.36-.795-.37-.78-.012-1.524-.05-2.333-.05zm-33.486-.332c-.566 1.404-.997 2.748-1.55 4.165-.028.04-.054.123-.013.148 1.307.02 2.453 0 3.76-.01l.013-.04c-.578-1.43-1.065-2.85-1.658-4.28-.174 0-.404-.024-.552.028zm37.11-2.526c1.376.134 2.468.93 2.953 2.02.42 1.106.44 2.455.44 3.83-.025 1.427.08 2.884-.712 3.988-.61.89-1.713 1.402-2.885 1.457-1.792.174-3.6.188-5.46.093l-.026-.04-.053.026c-1.31-.053-2.615-.214-3.48-1.21-.162-.218-.334-.38-.42-.62-.51-.823-.484-1.93-.57-2.9 0-.606-.06-1.31-.01-1.914l-.013.136c.07-1.186-.026-2.21.554-3.155.51-.916 1.56-1.577 2.75-1.67 2.3-.243 4.58-.23 6.94-.04zm-11.987.195c.02.013.03.04.03.027l.02 3.518.028 3.558-.015.418c.068.593.015 1.145.04 1.712l.015 1.793-.07.04h-3.45l-.027-.027c-.053-1.107 0-2.628-.053-3.855.013-.72-.015-1.56-.015-2.22l-.027-3.56c.016-.28.028-.66 0-.91l.016-.46c1.2-.026 2.373-.04 3.518-.026z" fill="#fff"/></svg>