<svg viewBox="0 0 128 24" xmlns="http://www.w3.org/2000/svg" fill-rule="evenodd" clip-rule="evenodd" stroke-linejoin="round" stroke-miterlimit="1.414"><path d="M75.53.45c2.56.377 4.34 2.21 4.827 4.474.162.676.244 1.484.27 2.264-.108.11-.19.027-.3.027-2.207.03-4.42.082-6.684.03.027-.837-.16-1.51-.944-1.86-1.65-.19-3.4-.216-5.13-.165-1.16.08-2.427 0-3.558.244-.755.297-.97.97-.998 1.67 0 .54.216 1.188.78 1.486l.594.16c3.64.162 7.225.325 10.917.513 2.21.054 4.45.887 5.366 2.723.89 1.51.945 3.476.81 5.442-.162 2.21-1.46 4.044-3.532 4.937-2.424.727-4.99.617-7.52.78-3.07.08-6.116-.026-9.243-.405-2.02-.294-3.723-1.644-4.34-3.422-.38-1.052-.484-2.16-.484-3.29 2.18-.053 4.77-.08 6.976-.053.055.485.055.942.35 1.318.463.595 1.38.653 2.212.653 2.48.05 5.04.184 7.575-.165.7-.21 1.05-.83 1.132-1.53-.083-.563-.03-1.16-.485-1.563-.512-.455-1.322-.537-1.995-.563-1.156-.027-2.48-.08-3.67-.134-2.64-.19-5.305-.085-7.894-.543-2.05-.563-3.64-2.072-3.99-3.956-.27-1.213-.27-2.13-.21-3.37.05-1.966 1.046-3.934 2.8-4.904C60.25.56 61.78.4 63.13.318 67.362.02 71.458.02 75.53.45zm50.047 22.675c1.306 0 2.423-1.014 2.423-2.402 0-1.375-1.117-2.394-2.423-2.394-1.318 0-2.435 1.01-2.435 2.39 0 1.39 1.117 2.4 2.435 2.4zM46.77.328c3.07 7.225 6.388 14.826 9.49 22.21l-.033.086c-2.424 0-4.88.026-7.44.026l-.105-.083c-.43-1.318-.914-2.506-1.428-3.825l-.135-.084-10.71.054c-.136.057-.16.272-.245.408-.4 1.185-.89 2.506-1.29 3.58-2.457.058-5.096.11-7.47 0 1.995-4.878 3.936-9.568 5.93-14.5.108-.19.19-.323.243-.59v.027c.97-2.43 2.022-4.854 2.966-7.23l.19-.05L44.45.3l2.32.026zm76.855 20.395c0-1.138.855-1.99 1.952-1.99 1.085 0 1.94.852 1.94 1.99 0 1.154-.855 2.003-1.94 2.003-1.097 0-1.952-.85-1.952-2.003zm1.447.188h.478l.732 1.2h.47l-.786-1.21c.404-.05.712-.27.712-.76 0-.545-.32-.78-.973-.78h-1.054v2.76h.43v-1.2zm0-.35v-.86h.57c.29 0 .602.07.602.41 0 .428-.32.45-.67.45h-.502zM19.192.17v.026c2.212.028 4.772.54 6.037 2.263C26.57 4 26.95 6.31 26.87 8.523c-2.48.05-4.69-.025-7.148 0-.136-.217-.026-.674-.136-.998-.08-.568-.483-1.08-1.077-1.294-1.16-.215-2.37-.19-3.475-.24-2.32.025-4.53-.058-6.77.344-1.455.756-.944 2.43-1.158 3.805-.082 1.726.025 3.61.244 5.525.137.62.46.997 1.05 1.27 2.508.43 5.555.267 8.115.212 1.105-.11 2.724.053 3.21-1.055.272-.48.162-1.32.272-1.805l7.062-.05.105.026c.11 2.56-.215 5.58-2.48 7.225-1.023.833-2.317 1.267-3.61 1.345-4.796.46-9.19.515-13.935.082-2.315-.108-4.553-1.216-5.74-3.07-.863-1.38-1.106-2.57-1.24-4.27C.025 13.313-.08 11.21.08 9.03.05 6.363.51 3.37 2.964 1.67 4.528.437 6.738.357 8.734.192c3.37-.265 6.927-.24 10.46-.024zm88.915 5.84c-1.592.105-3.21-.03-4.826.374-.78.295-1.13 1.13-1.13 1.86h-.02c-.16 2.67-.214 5.227.24 7.603.19.54.67 1.05 1.32 1.158 1.54.16 3.05.188 4.61.188 1.78-.03 3.617-.03 5.315-.3.755-.322 1.13-.81 1.21-1.59.135-2.075.24-3.557.11-5.74-.16-.78.052-2.105-.566-2.695-.326-.512-1.026-.73-1.593-.754-1.56-.03-3.043-.106-4.66-.106zm-66.973-.67c-1.13 2.807-1.993 5.496-3.098 8.33-.056.082-.11.245-.027.296 2.61.03 4.9 0 7.52-.025l.02-.08c-1.16-2.86-2.13-5.71-3.32-8.57-.347 0-.807-.05-1.104.05zM115.357.29c2.75.268 4.934 1.86 5.905 4.04.835 2.212.862 4.91.862 7.66-.053 2.854.16 5.768-1.428 7.976-1.216 1.78-3.426 2.804-5.77 2.914-3.582.35-7.195.376-10.916.185l-.054-.076-.107.04c-2.62-.108-5.23-.43-6.96-2.42-.33-.437-.67-.76-.84-1.24-1.027-1.646-.97-3.858-1.136-5.8 0-1.21-.13-2.618-.026-3.827l-.026.27c.135-2.37-.055-4.42 1.105-6.31C97 1.88 99.103.553 101.475.37c4.61-.485 9.164-.456 13.88-.08zM91.38.68c.028.026.054.08.054.054l.03 7.037.052 7.12-.028.84c.135 1.188.028 2.29.08 3.425l.03 3.587-.134.078H84.56l-.053-.052c-.108-2.212 0-5.256-.108-7.71.02-1.457-.03-3.127-.03-4.447l-.06-7.12c.03-.565.052-1.32 0-1.834l.03-.916c2.4-.06 4.745-.087 7.033-.06z"/></svg>