<svg viewBox="0 0 128 73" xmlns="http://www.w3.org/2000/svg" fill-rule="evenodd" clip-rule="evenodd" stroke-linejoin="round" stroke-miterlimit="1.414"><path d="M58.686 30.135c11.785 0 21.4 9.617 21.4 21.393 0 11.79-9.615 21.407-21.4 21.407-11.782-.015-21.4-9.617-21.4-21.407 0-11.76 9.618-21.377 21.4-21.393zm0 .72c11.386 0 20.68 9.295 20.68 20.673 0 11.393-9.294 20.687-20.68 20.687-11.4-.015-20.68-9.294-20.68-20.687 0-11.378 9.28-20.657 20.68-20.672zm0 25.925c-1.285-1.363-2.112-3.215-2.112-5.252 0-2.006.78-3.83 2.112-5.19 1.333 1.36 2.114 3.184 2.114 5.19 0 2.037-.827 3.89-2.114 5.252zm0 4.395c-1.56.903-3.43 1.44-5.42 1.44-4.073 0-7.64-2.22-9.57-5.514 0-.01-.016-.01-.016-.03 0-.01-.015-.01-.015-.03l1.562-.81 1.562-.79c.01.017.03.03.04.06 1.33 2.16 3.72 3.6 6.43 3.6.87 0 1.713-.152 2.463-.4-1.67-1.91-2.68-4.422-2.68-7.163 0-2.726.995-5.237 2.65-7.166-.75-.26-1.578-.4-2.436-.4-2.68 0-5.16 1.44-6.523 3.753-.015.015-.015.03-.015.046l-3.14-1.623c.015-.03.03-.06.045-.076 1.913-3.35 5.53-5.603 9.63-5.603 1.99 0 3.86.534 5.42 1.453 1.564-.92 3.43-1.456 5.42-1.456 4.106 0 7.72 2.25 9.634 5.603.014.016.03.047.044.078l-3.14 1.624c0-.017 0-.03-.014-.047-1.363-2.313-3.843-3.75-6.524-3.75-.856 0-1.683.136-2.433.4 1.654 1.926 2.65 4.44 2.65 7.163 0 2.74-1.01 5.252-2.68 7.166.75.246 1.592.4 2.464.4 2.71 0 5.1-1.44 6.432-3.6.012-.03.03-.045.043-.06l1.56.796 1.563.81c0 .014-.016.014-.016.03 0 .015-.015.015-.015.03-1.93 3.293-5.496 5.513-9.57 5.513-1.99 0-3.86-.54-5.42-1.44zM49.293 15.85l-1.746 3.888h-4.532L51.682.183h5.297l8.72 19.555h-4.53l-1.76-3.89H49.29zm64.252 3.888V.183h3.828V15.85H128v3.888h-14.455zm-20.41 0V.183h13.673v3.952h-9.862V8.04h9.11v3.904h-9.11v3.905H108.2v3.88H93.135zM18.45 14.73c-.014.03-.046.093-.06.14-1.654 3.123-4.9 5.25-8.607 5.25C4.41 20.12 0 15.62 0 10.06 0 4.534 4.41 0 9.785 0c3.722 0 6.983 2.175 8.62 5.344.047.06.062.092.11.184.014.015-3.125 2.282-3.156 2.236-.02-.06-.04-.107-.07-.14-.904-2.25-3.048-3.75-5.514-3.704-3.29.03-6.003 2.756-6.003 6.14 0 3.415 2.71 6.172 6.003 6.172 2.39 0 4.474-1.47 5.42-3.553.05-.08.064-.14.095-.2l3.155 2.25zM54.346 4.136l-3.34 7.81h6.83l-3.49-7.81zm14.41 15.603V.18h5.313l8.37 11.76V.182h3.793V19.74h-3.03L72.583 4.99v14.746h-3.83zM22.51.18h3.767v7.03h9.892V.182h3.79v19.555h-3.79v-8.59h-9.896v8.59H22.51V.183z"/></svg>