<svg viewBox="0 0 64 64" xmlns="http://www.w3.org/2000/svg" fill-rule="evenodd" clip-rule="evenodd" stroke-linejoin="round" stroke-miterlimit="1.414"><path d="M56.158 35.08l-.007.067c-.06.85.25 1.687.86 2.284.61.6 1.46.88 2.31.8.85-.08 1.614-.53 2.09-1.23.48-.705.62-1.586.39-2.407-.01-.006-.02-.01-.033-.02-.22-.114-.435-.24-.646-.37-.204-.13-.404-.268-.596-.415-.14-.11-.28-.22-.413-.34-.18-.156-.346-.323-.504-.5-.422 1.123-1.417 1.93-2.602 2.116-.28.043-.553.05-.835.023zm-14.384-1.874c2.184-1.586 1.062-5.04-1.637-5.04h-5.31v7.68h2.352v-1.998h1.79c.48 0 .754.16.993.575l.612 1.064c.15.26.32.358.62.358h1.97l-1.4-2.64zm-37.404.67h2.733v1.97H3.84c-2.12 0-3.84-1.72-3.84-3.84s1.72-3.84 3.84-3.84c1.32 0 1.978 0 3.263.002v1.97H4.37c-1.032 0-1.868.837-1.868 1.868 0 1.032.836 1.868 1.868 1.868v.002zm20.1-3.918v-1.792h-7.23v7.68h7.41V34.04h-4.92v-1.16h3.133V31.2H19.73v-1.242h4.737zm8.11 3.248c2.185-1.586 1.063-5.04-1.636-5.04h-5.31v7.68h2.35v-1.998h1.8c.48 0 .756.16.995.575l.61 1.064c.15.26.32.358.62.358h1.97l-1.4-2.64zm27.767-5.414c.5 1.316.977 2.504 1.53 3.798-.078.02-.16-.015-.2-.086-.657-1.222-1.227-2.395-1.765-3.674l-.17-.408-.083-.207-.03-.052c-.01-.022-.01-.046 0-.07l.015-.023.016-.02c.044-.06.078-.12.104-.188.053-.137.07-.284.045-.43-.05-.29-.25-.53-.53-.626-.275-.098-.583-.04-.803.156-.22.195-.318.493-.255.78l.013.056.005.013.006.02c.006.03 0 .06-.02.08l-.02.026c-.028.03-.054.06-.08.093l-.158.19c-.105.13-.204.26-.3.396-.193.27-.37.55-.53.843-.04.073-.08.147-.114.22-.02.037-.038.074-.056.11l-.028.057-.01.014c-.006.01-.01.017-.02.025-.015.02-.042.032-.07.03l-.032-.005c-.15-.02-.303-.028-.46-.02-.32.01-.632.08-.93.192-.652.255-1.19.737-1.51 1.36-.31.6-.4 1.284-.255 1.943.153.698.56 1.313 1.14 1.728.54.384 1.19.57 1.852.53.716-.044 1.39-.353 1.89-.868.456-.47.74-1.082.8-1.735.065-.675-.112-1.354-.5-1.914-.19-.27-.423-.508-.69-.7-.127-.09-.26-.17-.398-.238l-.1-.05c-.014-.004-.026-.01-.036-.02-.02-.02-.03-.05-.03-.077 0-.01.01-.02.01-.03l.018-.03.027-.055c.037-.072.076-.144.116-.215.16-.288.333-.56.527-.827.096-.13.195-.257.3-.382l.078-.09.02-.028.01-.01.007-.01c.02-.02.05-.03.08-.025l.027.005.014.004.03.01.065.01.03.004h.01c.03.006.055.024.068.05.006.01.01.02.015.033.004.01.01.02.013.03.04.085.074.167.112.25.01.02.018.04.027.063l.015.03c.006.016.013.03.016.048 0 .016 0 .03-.008.044-.003.01-.01.02-.012.03l-.02.053-.045.108c-.056.14-.11.284-.153.43-.08.28-.14.563-.173.857.804.79 1.154 1.93.93 3.035.994 1.233 2.56 2.01 3.987 2.49.32-1.378.43-3.015-.087-4.403-.266-.71-.684-1.32-1.282-1.793-.59-.47-1.29-.75-2.01-.927zm-20.785 4.184H37.18V29.93h2.382c.565 0 1.023.458 1.023 1.022 0 .565-.458 1.024-1.023 1.024zm-9.194 0h-2.383V29.93h2.383c.565 0 1.024.458 1.024 1.022 0 .565-.46 1.024-1.024 1.024zm18.483 3.87h-2.7V34.2c0-.207-.044-.385-.15-.564-1.05-1.823-2.102-3.646-3.155-5.468h2.85c.57.99 1.142 1.98 1.714 2.97.057.1.14.1.195 0l1.714-2.97h2.85l-3.157 5.468c-.103.18-.15.357-.15.565v1.65zm-32.72-7.68v7.68h-2.5V33.12h-3.034v2.725H8.1v-7.68h2.492v2.82h3.038v-2.82h2.494z" fill="#fff"/></svg>