<svg viewBox="0 0 128 25" xmlns="http://www.w3.org/2000/svg" fill-rule="evenodd" clip-rule="evenodd" stroke-linejoin="round" stroke-miterlimit="1.414"><path d="M112.316 18.64c-.005.045-.01.09-.013.137-.133 1.7.494 3.374 1.713 4.566 1.22 1.193 2.912 1.76 4.61 1.592 1.697-.17 3.223-1.06 4.182-2.47.958-1.412 1.24-3.176.773-4.817l-.06-.035c-.44-.23-.87-.48-1.29-.746-.41-.257-.81-.533-1.194-.827-.283-.215-.56-.442-.827-.68-.353-.312-.69-.645-1.007-.997-.846 2.244-2.835 3.86-5.205 4.23-.56.087-1.11.103-1.67.047zM83.55 14.894c4.366-3.17 2.122-10.08-3.277-10.08h-10.62v15.36h4.704v-3.996h3.6c.956 0 1.51.32 1.986 1.15l1.225 2.127c.298.518.644.718 1.242.718h3.94c-.935-1.76-1.868-3.52-2.8-5.28zm-74.81 1.34h5.467v3.94H7.68c-4.242 0-7.68-3.44-7.68-7.68 0-4.242 3.438-7.68 7.68-7.68 2.64 0 3.955.003 6.527.003v3.94H8.74c-2.063 0-3.736 1.674-3.736 3.737 0 2.064 1.673 3.737 3.736 3.737v.01zM48.938 8.4V4.813h-14.46v15.36h14.82v-3.61h-9.833V14.24h6.264v-3.36h-6.27V8.4h9.47zm16.224 6.494c4.367-3.17 2.123-10.08-3.275-10.08h-10.62v15.36h4.704v-3.996h3.6c.96 0 1.51.32 1.99 1.15l1.23 2.127c.298.518.644.718 1.24.718h3.94c-.933-1.76-1.87-3.52-2.8-5.28zm55.533-10.828c1 2.63 1.953 5.008 3.06 7.595-.157.05-.323-.02-.402-.17-1.313-2.44-2.453-4.79-3.53-7.35-.114-.27-.225-.54-.337-.81l-.168-.41-.04-.103c-.02-.044-.02-.093 0-.14.007-.016.018-.032.03-.046.01-.014.02-.03.032-.04.087-.12.155-.24.208-.377.107-.272.138-.57.09-.856-.098-.58-.502-1.06-1.056-1.256-.553-.195-1.17-.075-1.608.314-.44.39-.635.987-.508 1.56l.03.11.01.03c.002.01.006.022.007.032.012.056-.003.11-.038.154-.014.01-.03.03-.043.043-.054.06-.107.123-.16.185-.106.126-.21.253-.313.38-.21.26-.41.522-.6.79-.39.546-.74 1.107-1.06 1.692-.08.146-.16.293-.23.443-.04.073-.078.147-.115.223l-.054.11-.013.03c-.01.016-.02.033-.035.05-.04.04-.09.062-.148.06l-.063-.01c-.306-.037-.61-.048-.92-.037-.64.025-1.27.16-1.862.39-1.307.51-2.38 1.474-3.024 2.72-.62 1.196-.8 2.57-.51 3.885.305 1.398 1.117 2.628 2.28 3.458 1.077.768 2.383 1.142 3.704 1.06 1.43-.087 2.78-.706 3.778-1.736.914-.94 1.48-2.163 1.604-3.47.13-1.355-.227-2.713-1.004-3.83-.377-.545-.845-1.018-1.382-1.4-.253-.18-.516-.34-.794-.48l-.2-.092c-.024-.01-.047-.02-.066-.04-.044-.04-.066-.093-.06-.15 0-.026.01-.05.02-.07l.03-.057.055-.11c.073-.144.15-.29.23-.43.32-.573.67-1.12 1.06-1.65.19-.26.39-.514.596-.764.05-.063.104-.125.157-.186.01-.012.026-.03.04-.043.005-.01.01-.017.018-.023.01-.008.01-.014.02-.02.04-.043.1-.063.157-.053.017.003.032.01.05.013l.03.006.06.013c.043.01.084.015.127.02l.064.007c.01 0 .02 0 .025.005.058.007.108.043.134.097l.03.065.027.065.224.49.053.123.03.062c.015.03.03.06.035.094.003.03 0 .058-.01.085l-.03.062c-.017.032-.033.07-.047.104l-.09.216c-.116.283-.218.57-.31.86-.17.563-.29 1.128-.355 1.715 1.61 1.577 2.31 3.86 1.862 6.07 1.986 2.465 5.12 4.017 7.972 4.98.635-2.758.86-6.03-.18-8.808-.53-1.42-1.368-2.635-2.564-3.585-1.184-.94-2.582-1.51-4.025-1.858zm-41.572 8.367h-4.766V8.34h4.766c1.13 0 2.047.917 2.047 2.047 0 1.13-.916 2.046-2.047 2.046zm-18.386 0H55.97V8.34h4.767c1.13 0 2.046.917 2.046 2.047 0 1.13-.916 2.046-2.046 2.046zm36.965 7.74h-5.416v-3.288c0-.417-.095-.772-.304-1.132L85.668 4.817h5.7l3.43 5.943c.115.198.278.198.393 0 1.15-1.98 2.29-3.962 3.43-5.943h5.7l-6.31 10.936c-.202.36-.3.715-.3 1.132v3.288zM32.248 4.813v15.36H27.26V14.72h-6.076v5.453h-4.986V4.813h4.986v5.638h6.077V4.82h4.99z"/></svg>