<svg viewBox="0 0 128 68" xmlns="http://www.w3.org/2000/svg" fill-rule="evenodd" clip-rule="evenodd" stroke-linejoin="round" stroke-miterlimit="1.414"><path d="M116.477 56.48c0 6.363-4.912 11.52-11.752 11.52-6.84 0-11.746-5.157-11.746-11.52 0-6.352 4.9-11.512 11.74-11.512s11.75 5.16 11.75 11.513zM63.1 50.42c-.085-.028-2.448-.68-4.39-.68-2.248 0-3.47.753-3.47 1.823 0 1.354 1.648 1.825 2.573 2.117l1.547.493c3.644 1.158 5.303 3.654 5.303 6.363 0 5.587-4.913 7.464-9.208 7.464-2.987 0-5.782-.55-6.058-.608v-5.118c.495.125 2.848.828 5.3.828 2.792 0 4.077-.82 4.077-2.077 0-1.128-1.11-1.78-2.502-2.216-.34-.12-.852-.28-1.2-.39-3.126-.99-5.73-2.83-5.73-6.51 0-4.16 3.112-6.958 8.286-6.958 2.732 0 5.304.663 5.47.71v4.75zM41.813 67.603H36.2v-22.24h5.614v22.24zm82.973-2.928v.35h-.99v2.578h-.41v-2.58h-.995v-.348h2.4zm.21 0h.637l.875 2.4h.015l.848-2.4h.63v2.928h-.42V65.2h-.01l-.89 2.403h-.39l-.86-2.402h-.02v2.41H125v-2.93zm-37.928-12.94c-.23-.118-2.04-1.19-4.724-1.19-3.627 0-6.144 2.528-6.144 5.935 0 3.306 2.408 5.937 6.144 5.937 2.64 0 4.477-1.048 4.723-1.18v5.97c-.707.2-2.622.793-5.115.793C75.64 68 70.1 63.647 70.1 56.48c0-6.642 5.014-11.512 11.855-11.512 2.632 0 4.583.64 5.114.798v5.97zm-58.584 0c-.226-.118-2.03-1.19-4.715-1.19-3.64 0-6.15 2.528-6.15 5.935 0 3.306 2.41 5.937 6.15 5.937 2.64 0 4.47-1.048 4.71-1.18v5.97c-.7.2-2.61.793-5.12.793-6.31 0-11.844-4.353-11.844-11.52 0-6.642 5.013-11.512 11.843-11.512 2.64 0 4.59.64 5.12.798v5.97zm76.24-1.105c-3.33 0-5.803 2.62-5.803 5.85 0 3.238 2.48 5.856 5.81 5.856 3.328 0 5.807-2.618 5.807-5.855 0-3.23-2.48-5.85-5.805-5.85zm-7.32-47.318c0-1.532-1.244-2.776-2.778-2.776-1.536 0-2.777 1.244-2.777 2.776v29.535c0 1.54 1.24 2.786 2.77 2.786s2.776-1.245 2.776-2.786V3.312zm-61.222 0c0-1.532-1.252-2.776-2.787-2.776-1.534 0-2.786 1.244-2.786 2.776v29.535c0 1.54 1.25 2.786 2.78 2.786 1.533 0 2.785-1.245 2.785-2.786V3.312zM128 21.462c0-1.535-1.247-2.778-2.777-2.778-1.536 0-2.782 1.243-2.782 2.777v5.84c0 1.55 1.25 2.79 2.79 2.79 1.53 0 2.78-1.24 2.78-2.782v-5.84zm-61.222 0c0-1.535-1.244-2.778-2.77-2.778-1.534 0-2.786 1.243-2.786 2.777v5.84c0 1.55 1.252 2.79 2.786 2.79 1.526 0 2.77-1.24 2.77-2.782v-5.84zm-61.206 0c0-1.535-1.25-2.778-2.786-2.778C1.253 18.684 0 19.927 0 21.46v5.84c0 1.543 1.253 2.786 2.786 2.786 1.536 0 2.786-1.243 2.786-2.786v-5.84zm15.306-7.664c0-1.533-1.25-2.78-2.786-2.78-1.535 0-2.787 1.247-2.787 2.78v13.5c0 1.543 1.252 2.786 2.787 2.786s2.786-1.243 2.786-2.786v-13.5zm30.61 0c0-1.533-1.25-2.78-2.786-2.78-1.534 0-2.786 1.247-2.786 2.78v13.5c0 1.543 1.252 2.786 2.786 2.786 1.536 0 2.787-1.243 2.787-2.786v-13.5zm30.602 0c0-1.533-1.244-2.78-2.778-2.78-1.53 0-2.777 1.247-2.777 2.78v13.5c0 1.543 1.246 2.786 2.777 2.786 1.534 0 2.778-1.243 2.778-2.786v-13.5zm30.63 0c0-1.533-1.244-2.78-2.814-2.78-1.535 0-2.778 1.247-2.778 2.78v13.5c0 1.543 1.243 2.786 2.778 2.786 1.57 0 2.813-1.243 2.813-2.786v-13.5z"/></svg>