<svg viewBox="0 0 128 37" xmlns="http://www.w3.org/2000/svg" fill-rule="evenodd" clip-rule="evenodd" stroke-linejoin="round" stroke-miterlimit="1.414"><path d="M46.348 30.96c-1.835-.356-3.982-.552-6.125-.53-1.918-.1-3.84.037-7.265.77-3.423.732-8.342 2.06-11.623 2.82-3.277.758-4.914.947-6.556.98-.82 0-1.63-.065-2.35-.184-.72-.12-1.346-.292-1.897-.496-.55-.208-1.026-.446-1.447-.71-.417-.264-.78-.55-1.094-.863-.317-.31-.59-.647-.82-1.007-.237-.36-.434-.744-.593-1.16-.16-.42-.284-.866-.367-1.353-.082-.487-.124-1.013-.123-1.54.007-.797.106-1.59.368-2.658.26-1.07.682-2.42 1.37-4.05.685-1.64 1.633-3.56 2.746-5.46 1.113-1.91 2.39-3.79 3.605-5.38 1.216-1.59 2.375-2.88 3.404-3.9 1.034-1.02 1.94-1.77 2.726-2.33.79-.57 1.457-.95 2.054-1.237.592-.28 1.12-.46 1.592-.577.475-.116.902-.166 1.33-.166.28.006.495.016.736.188.233.21.26.38.307.686.012.136.02.318.02.5-.617.273-1.29.716-1.794 1.155-.236.202-.405.38-.54.533-.35.41-.554.79-.565 1.195-.045.294.36.83.63.974.83.554 1.768.182 2.64-.82.17-.208.336-.446.48-.705.147-.257.275-.54.377-.823.366-1.13.528-2.296-.274-3.294-.188-.226-.415-.424-.686-.59-.274-.166-.588-.297-.94-.39-.36-.09-.76-.142-1.348-.13-.59.013-1.366.09-2.237.275-.87.19-1.837.485-2.91.944-1.07.454-2.247 1.07-3.54 1.91-1.293.84-2.703 1.902-4.135 3.186-1.43 1.286-2.884 2.79-4.21 4.39-2.7 3.24-4.72 6.714-5.814 9.435-.554 1.39-.914 2.615-1.15 3.7C.104 25.334 0 26.28 0 27.23c-.004 1.247.156 2.498.48 3.544.156.497.34.95.558 1.37.218.42.467.808.75 1.17.284.36.604.693.973 1.006.37.312.79.604 1.27.874.485.27 1.03.515 1.68.73.65.22 1.403.408 2.323.54.92.134 2.01.21 3.1.21 1.71.055 3.42-.073 6.263-.655 2.844-.59 6.82-1.62 9.673-2.2 2.85-.58 4.58-.71 6.31-.65 1.08-.01 2.17.07 3.05.2.88.13 1.555.322 2.187.57.63.243 1.22.542 1.87.995.657.455 1.375 1.065 2.033 1.73 1.79-1.175 3.674-1.87 5.12-2.1.726-.13 1.383-.187 2.038-.184.28 0 .56.023.887.065.326.04.704.108 1.79.424 1.08.317 2.864.887 4.635 1.495-1.82-1.46-3.787-2.745-5.53-3.64-1.748-.9-3.273-1.42-5.107-1.77zm44.62-2.116c-.436.654-.89 1.27-1.334 1.804-.44.534-.87.99-1.245 1.34-.38.352-.7.604-.96.778-.26.175-.47.273-.63.335-.16.06-.28.09-.404.09-.39 0-.78-.16-1.125-.55-.11-.122-.207-.27-.29-.44-.182-.39-.26-.71-.25-1.22.002-.286.032-.656.103-1.046.07-.39.18-.796.34-1.23.544-1.465 1.657-3.024 3.213-4.345.192.345.435.676.8 1.005.17.156.367.306.605.46.238.153.517.308.924.476.404.166.94.348 1.48.495-.38.71-.8 1.404-1.237 2.057zm21.328.84c-.404.67-.868 1.308-1.24 1.78-.373.47-.668.77-.923.987-.254.22-.47.36-.685.45-.44.18-.934.22-1.275-.05-.293-.29-.287-.52-.294-.95 0-.19.02-.45.06-.74.043-.29.112-.61.224-.99.11-.37.262-.78.475-1.27.215-.48.49-1.03.85-1.64.357-.61.8-1.28 1.315-1.98.52-.69 1.115-1.41 1.696-2.04.58-.62 1.15-1.16 1.626-1.57.48-.4.87-.68 1.17-.86.3-.18.516-.272.685-.33.17-.06.3-.082.427-.083.24.003.406.003.594.103.278.213.164.47.11.77-.04.172-.11.392-.23.663-.12.27-.283.59-.47.9l-4.113 6.856zM93.508 23.01c-.03.216-.07.428-.236.88-.166.453-.462 1.145-.785 1.822-.427-.127-.848-.28-1.152-.415-.307-.134-.494-.25-.653-.357-.156-.11-.28-.213-.386-.316-.213-.21-.356-.415-.46-.635-.454-1.15-.38-2.34.98-3.26.406-.25.826-.36 1.214-.35.398.01.7.02 1.046.28.337.315.38.593.446 1.03.02.183.03.423.03.65 0 .23-.016.445-.044.66zm-40.825-1.345c.325-.712.86-1.845 1.41-2.97l4.877-8.988h-3.655l-.612.762c-.51-.27-1.035-.51-1.412-.65-.38-.14-.61-.19-.86-.22-.24-.03-.51-.05-.77-.05-.86.01-1.69.24-2.68.8-.37.213-.79.5-1.317.9-.53.402-1.166.924-2.322 2.25-1.157 1.323-2.833 3.45-4.225 5.176-1.393 1.73-2.502 3.057-3.3 3.915-.8.858-1.29 1.24-1.693 1.528-.402.284-.715.47-1 .606-.28.136-.53.222-.765.277-.61.14-1.263.13-1.76-.18-.3-.216-.383-.404-.474-.64-.187-.64-.11-1.152-.02-1.777.06-.37.155-.78.306-1.26.152-.48.36-1.023.653-1.644.29-.62.664-1.32 1.142-2.077.94-1.517 2.353-3.25 3.48-4.32.556-.536 1.024-.91 1.39-1.16.365-.25.628-.385.83-.464.203-.077.344-.105.488-.106.2.006.374.027.56.15.23.18.27.3.326.586.016.127.03.307.03.487-.343.05-.68.127-.947.206-.265.08-.454.163-.61.244-.157.084-.285.164-.393.244-.76.577-.84 1.3-.766 1.77.07.23.25.468.49.64.69.53 1.5.18 2.27-.75.14-.17.28-.365.41-.575.41-.675.64-1.326.73-1.888.122-.89-.006-1.936-1.22-2.722-.454-.254-.856-.362-1.4-.362-.3 0-.667.033-1.036.11-.37.07-.742.188-1.165.35-.42.165-.887.378-1.736 1.05-.85.675-2.086 1.81-3.065 2.633-.98.824-1.71 1.337-2.34 1.717-.63.38-1.163.63-1.686.83-.523.205-1.033.36-1.552.476.255-.647.48-1.3.645-1.867.165-.564.27-1.037.335-1.395.065-.36.09-.61.088-.866-.003-.51-.12-1.04-.324-1.445-.1-.2-.22-.374-.35-.526-.3-.35-.615-.54-.946-.68-.882-.336-1.626-.28-2.522-.075-.454.11-.967.285-1.55.56-.58.274-1.228.645-1.93 1.143-.703.494-1.458 1.115-2.2 1.84-.744.726-1.477 1.55-2.123 2.396-1.28 1.673-2.21 3.415-2.736 4.867-.262.72-.435 1.375-.545 1.974-.11.6-.16 1.14-.165 1.58-.006.437.03.77.093 1.07.06.3.152.57.27.81.113.24.254.45.42.64.17.19.36.35.582.49.22.138.473.25.758.326.285.076.603.12.954.12.35 0 .73-.04 1.123-.13s.802-.22 1.234-.415c.43-.194.89-.45 1.396-.81.508-.355 1.06-.81 1.698-1.44.64-.627 1.366-1.43 2.255-2.612.89-1.18 1.944-2.74 2.92-4.344l2.745-.61c-.695 1.38-1.333 2.793-1.694 3.696-.36.9-.44 1.293-.5 1.71-.18 1.314-.137 2.65.614 3.688.23.32.51.6.84.833.33.23.715.42 1.15.544.44.13.93.197 1.42.196 1.266-.016 2.366-.27 3.794-1.155.483-.3 1.026-.692 1.76-1.345.73-.654 1.65-1.57 2.52-2.53-.005.837.024 1.677.07 2.22.048.545.11.79.174.99.067.2.13.353.196.486.07.13.14.238.215.33.283.34.55.47.865.574 1.043.25 1.85.12 2.85-.32.356-.16.744-.38 1.248-.74.504-.365 1.12-.87 1.7-1.41 0 .344.02.69.046.94.03.25.07.406.11.535.07.21.134.353.292.54.4.41.79.47 1.29.54.2.02.45.03.7.03.974-.004 1.94-.31 3.054-1.02.583-.374 1.203-.87 1.866-1.535.66-.665 1.363-1.5 2.09-2.54.724-1.04 1.472-2.29 2.133-3.586l-.763-.156c-.92 1.232-1.86 2.444-2.476 3.193-.612.746-.892 1.03-1.105 1.23-.214.2-.36.31-.49.392-.27.18-.55.237-.83.2-.162.008-.43-.187-.42-.424 0-.134-.055-.14.06-.448.063-.173.174-.466.5-1.178zm-30.12.068c-.673.937-.967 1.234-1.212 1.462-.24.23-.44.39-.61.515-.18.123-.34.21-.492.277-.717.29-1.546.34-2.134-.4-.207-.31-.28-.588-.274-.994.01-.235.044-.528.15-.924.1-.4.27-.9.566-1.54.293-.64.714-1.41 1.266-2.268.553-.855 1.243-1.79 1.98-2.683.403.46.834.89 1.173 1.194.34.304.59.474.96.664.37.19.866.403 1.37.58-1.002 1.6-2.056 3.172-2.73 4.11zm25.882-.756c-.287.47-.596.924-.866 1.29-.27.363-.51.638-.71.852-.21.21-.38.36-.53.48-.26.2-.48.32-.7.38-.34.087-.757.017-1.084-.28-.326-.35-.38-.56-.385-.96 0-.17.025-.398.083-.687.062-.29.16-.64.33-1.09.17-.45.413-.998.783-1.68.37-.683.86-1.5 1.457-2.36.597-.86 1.294-1.764 1.937-2.516.643-.75 1.234-1.35 1.704-1.78.468-.43.82-.69 1.09-.863.268-.178.46-.265.61-.32.287-.106.55-.11.82 0 .47.273.32.76.304 1.015-.02.1-.046.19-.22.513-.17.324-.49.882-.82 1.44l-3.81 6.55zm70.735 9.26c-.526.648-.932 1.08-1.262 1.406-.33.325-.586.54-.798.7-.21.16-.378.263-.524.337-.29.142-.5.22-.794.17-.29-.066-.304-.298-.305-.44.03-.114-.05.043.29-.673.253-.53.74-1.53 1.23-2.528l5.79-10.67h-3.35l-1.067.91c-.44-.26-.898-.494-1.23-.636-.33-.14-.537-.19-.747-.226-.205-.035-.41-.054-.64-.054-1.156.014-2.225.35-3.377 1.02-.344.2-.712.44-1.12.757-.406.313-.86.7-1.397 1.206-.54.504-1.18 1.13-2.27 2.535-1.09 1.406-2.634 3.594-3.724 5.094-1.09 1.5-1.727 2.31-2.175 2.82-.445.507-.702.71-.906.852-.204.14-.35.22-.486.27-.195.07-.34.09-.54.06-.313-.004-.724-.432-.798-.728-.17-.554-.13-.796.01-1.643.082-.495.23-1.23.47-2.17.24-.938.57-2.084.94-3.217 2.45-1.533 4.81-3.22 6.6-4.69 1.79-1.47 3.01-2.716 4.25-4.22 1.24-1.505 2.5-3.267 3.623-5.106l-1.523.15c-.87 1.31-1.83 2.56-2.98 3.866-1.148 1.305-2.483 2.663-3.96 3.977-1.478 1.31-3.1 2.576-4.79 3.737.954-1.99 1.982-3.944 3.076-5.85 1.092-1.91 2.25-3.77 3.41-5.48 1.164-1.708 2.33-3.266 3.386-4.556 1.06-1.29 2.006-2.312 2.79-3.073.78-.76 1.4-1.26 1.88-1.598.483-.34.833-.52 1.104-.63.27-.11.46-.147.65-.15.09 0 .187.03.28.085.39.293.34.458.31.782-.01.09-.026.187-.15.553-.12.362-.35 1-.592 1.625l1.37-.15c.223-.37.425-.757.544-1.02.12-.266.156-.41.18-.576.028-.166.04-.35.04-.54-.01-.624-.193-1.23-.86-1.737-.18-.13-.38-.23-.597-.298-.73-.205-1.362-.09-2.165.114-.554.154-1.186.396-1.935.79-.746.392-1.608.94-2.635 1.743-1.025.806-2.213 1.87-3.544 3.28-1.33 1.408-2.806 3.16-4.3 5.2-1.493 2.043-3.01 4.37-4.374 6.753-1.36 2.383-2.58 4.816-3.66 7.31h-1.82c.3-.7.568-1.41.734-1.923.164-.51.227-.83.272-1.134.128-.86.082-1.81-.345-2.568-.127-.234-.28-.44-.45-.61-.664-.634-1.21-.765-1.943-.77-.295.002-.643.04-1.043.133-.4.09-.85.24-1.356.47-.507.235-1.073.55-1.702.988-.635.44-1.33 1-2.058 1.696-.726.694-1.484 1.524-2.187 2.42-1.445 1.84-2.547 3.837-3.13 5.36-.307.78-.5 1.465-.626 2.07-.123.6-.176 1.12-.18 1.57-.002.45.046.83.14 1.175.1.34.23.65.41.922.176.272.39.51.64.704.25.197.537.353.85.455.32.104.66.155 1.01.16.715.003 1.405-.168 2.24-.566.43-.21.904-.493 1.435-.89.53-.398 1.12-.91 1.79-1.605.67-.694 1.42-1.57 2.263-2.736.846-1.163 1.78-2.613 2.64-4.107h1.83c-.47 1.46-.9 2.934-1.14 3.865-.24.93-.293 1.32-.33 1.704-.066.717-.09 1.42.035 2.02.058.28.143.533.257.765.11.23.25.44.414.626.165.188.356.35.573.488.213.14.455.25.72.326.264.074.553.114.85.116 1.01-.01 1.954-.326 3.086-1.094.42-.29.896-.663 1.462-1.2.565-.536 1.225-1.237 1.84-1.972 0 .462.028.923.07 1.3.047.377.106.672.177.92.066.247.14.447.22.62.08.17.163.313.252.435.19.26.375.42.575.542.39.226.7.297 1.2.295.2-.003.454-.02.71-.067.515-.09.992-.262 1.584-.612.3-.18.633-.41 1.09-.807.457-.396 1.035-.962 1.583-1.56 0 .424.02.847.06 1.166.035.32.085.536.14.71.05.177.106.31.166.43.155.354.58.714.907.797 1.04.245 1.85.033 2.93-.466.43-.21.89-.493 1.407-.886.513-.39 1.075-.893 1.694-1.56.62-.668 1.3-1.5 2.008-2.543.71-1.045 1.455-2.296 2.12-3.586l-.914.154c-.62.88-1.272 1.743-1.8 2.393zM26.77 14.082c-.032.226-.08.434-.222.822-.144.388-.383.957-.643 1.513-.413-.124-.82-.275-1.133-.413-.314-.14-.536-.268-.722-.388-.184-.12-.327-.235-.45-.345-.122-.11-.22-.21-.303-.32-.618-.87-.66-1.78.26-2.68.134-.128.29-.25.46-.36.17-.11.36-.21.543-.286.574-.202 1.11-.407 1.66-.013.618.624.568 1.18.6 1.794-.002.217-.018.46-.05.686zM89.586 3.326c-.01.662-.08 1.32-.236 2.097-.157.776-.4 1.67-.687 2.5-.29.83-.626 1.6-.955 2.24-.33.644-.652 1.16-.956 1.58-.777 1.068-1.48 1.652-2.24 1.993-.793.33-1.557.375-2.262-.024-.2-.117-.415-.362-.496-.587-.213-.755-.036-1.4.232-2.23.12-.33.28-.693.504-1.098.224-.402.51-.848.89-1.35.388-.5.87-1.057 1.49-1.666.624-.6 1.384-1.26 2.188-1.86.803-.59 1.648-1.12 2.527-1.59zM62.168 9.728h3.964l-1.83 3.35h-3.808l1.674-3.35zm51.052-3.38c1.87.02 3.742-.19 5.38-.586 1.64-.396 3.04-.975 4.593-1.873 1.55-.9 3.247-2.12 4.807-3.49-.362.97-.86 1.892-1.55 2.833-.693.94-1.578 1.902-2.637 2.79-2.114 1.79-4.914 3.192-7.48 3.81-1.278.32-2.5.47-3.72.47-.66 0-1.172-.016-1.64-.065-.24-.024-.522-.054-.8-.09l3.047-3.81zM81.465 23.682c.14-.76.21-1.493.208-2.224 0-.547-.093-1.095-.285-1.497-.085-.18-.188-.34-.304-.48-.284-.34-.57-.51-.91-.65-.197-.08-.42-.143-.682-.19-.263-.045-.566-.07-.907-.07-.34.006-.72.036-1.1.1-1.525.27-3.083 1.037-4.614 2.766-.39.445-.77.956-1.14 1.54-.37.586-.72 1.245-1.04 1.967-.32.726-.6 1.516-.83 2.343-.23.824-.404 1.69-.52 2.56.81-.674 1.647-1.32 2.25-1.755.602-.433.972-.653 1.473-.912.498-.26 1.126-.56 1.764-.835.146-.97.414-1.958.76-2.77.16-.38.333-.716.505-1.01.173-.285.345-.53.517-.736.486-.592.96-.92 1.44-1.11.713-.225 1.286-.32 1.945.21.295.3.37.548.434.86.11 1.16-.07 2.202-.425 3.396-.165.53-.38 1.08-.66 1.66-.28.576-.627 1.177-1.05 1.796-.845 1.24-2.076 2.587-3.44 3.66-1.31 1.036-2.71 1.77-3.688 2.06-.467.14-.84.2-1.185.202-.35 0-.674-.04-1-.137-.647-.182-1.33-.572-1.89-1.148-.276-.282-.51-.6-.7-.934-.384-.68-.55-1.383-.55-2.05.03-.78.16-1.55.58-2.88.417-1.325 1.122-3.21 2.107-5.324.983-2.113 2.253-4.45 3.5-6.486 1.247-2.03 2.47-3.76 3.587-5.175 1.103-1.42 2.11-2.53 3.02-3.43.913-.9 1.73-1.597 2.47-2.153.74-.556 1.4-.973 2.006-1.304.605-.33 1.154-.572 1.67-.758 1.355-.51 2.628-.547 4.052-.523-1.05.585-2.057 1.25-2.95 1.94-1.79 1.387-3.065 2.834-3.868 4.07-.41.62-.71 1.202-.94 1.744-.226.544-.377 1.05-.476 1.53-.092.477-.133.93-.14 1.283-.005.35.024.6.08.83.055.22.134.42.228.59.1.172.217.322.356.455.133.133.29.245.48.34.18.1.39.174.64.23.243.052.52.08.8.08.58 0 1.16-.135 1.846-.445.356-.166.744-.386 1.165-.682.42-.298.87-.67 1.326-1.126.457-.454.918-.987 1.347-1.57.434-.588.83-1.22 1.166-1.86.644-1.22 1.06-2.46 1.248-3.528.09-.514.134-.988.134-1.458 0-.12-.007-.238-.032-.47-.023-.232-.07-.58-.094-.824-.024-.246-.028-.39-.026-.538 1.263-.018 2.526.12 3.714.41 1.186.287 2.3.722 3.944 1.622 1.644.9 3.82 2.27 5.906 3.76l3.35-3.506c-1.308-.968-2.67-1.86-3.854-2.53-1.183-.676-2.184-1.13-3.07-1.464-.89-.335-1.664-.548-2.37-.686-1.092-.2-1.945-.247-3.12-.13-.394.043-.81.103-1.614.317-.807.215-2.004.584-3.186.993-.694-.395-1.413-.746-1.935-.96-.525-.207-.848-.28-1.18-.33-1.24-.18-2.34-.05-3.81.344-1.062.3-2.33.77-3.793 1.515-1.47.74-3.14 1.76-4.842 3.02-1.705 1.254-3.44 2.75-5.01 4.32-1.574 1.57-2.983 3.213-4.168 4.807-1.18 1.59-2.144 3.13-2.91 4.574-.77 1.445-1.347 2.79-1.78 4.055-.438 1.26-.73 2.44-.92 3.54-.19 1.1-.274 2.125-.278 2.95-.004.823.07 1.446.218 2.047.15.6.37 1.17.666 1.714.294.54.666 1.046 1.11 1.504.444.458.963.866 1.54 1.203.576.334 1.21.6 1.875.78 1.38.35 2.65.375 4.09-.035.745-.21 1.59-.537 2.498-1.015 1.845-.963 3.866-2.58 5.376-4.33 1.556-1.78 2.61-3.63 3.23-5.28.32-.83.535-1.626.68-2.39z"/></svg>