<svg viewBox="0 0 128 18" xmlns="http://www.w3.org/2000/svg" fill-rule="evenodd" clip-rule="evenodd" stroke-linejoin="round" stroke-miterlimit="1.414"><path d="M18.448 14.744c0 1.264-1.024 2.29-2.288 2.29-1.264 0-2.288-1.026-2.288-2.29 0-1.26 1.024-2.288 2.288-2.288 1.264 0 2.288 1.02 2.288 2.28v.008zm39.68 2.254c-3.42 0-5.66-2.648-5.66-6.05 0-3.828 2.728-6.008 5.6-6.008 1.996 0 2.954.98 3.32 1.36V1.56h3.38v15.08h-3.22v-1.22c-.32.46-1.132 1.58-3.392 1.588h-.028v-.01zm-18.94-6.05c0-2.748 1.976-5.986 6.09-5.986 4.1 0 6.08 3.24 6.08 6.008 0 2.77-1.98 6.008-6.1 6.008-4.12 0-6.092-3.24-6.092-6.008v-.02l.022-.002zm85.432-9.39H128v15.074h-3.38V1.558zm-44.556 3.77h3.176v1.26c.326-.608.916-1.648 2.872-1.648v3.42h-.12c-1.732 0-2.548.634-2.548 2.22v6.072h-3.38V5.328zm39.296-3.77h3.38v15.074h-3.38V1.558zM69.98 12.15c.144 1.2 1.284 1.996 2.608 1.996 1.08 0 1.65-.468 2.06-1.06h3.46c-.55 1.264-1.346 2.24-2.3 2.894-.94.68-2.06 1.02-3.22 1.02-3.24 0-5.988-2.62-5.988-5.98 0-3.16 2.484-6.06 5.926-6.06 1.732 0 3.22.674 4.28 1.796 1.424 1.528 1.852 3.34 1.586 5.42H69.98v-.026zm38.46-1.12c0 1.04.776 2.832 2.812 2.832 1.2 0 1.936-.57 2.36-1.264.288-.448.43-.936.47-1.446.06-.508-.06-1.02-.28-1.486-.36-.774-1.14-1.568-2.56-1.568-1.924 0-2.78 1.628-2.78 2.912v.02h-.022zm-52.592-.08c0 1.73 1.24 2.892 2.83 2.892.8 0 1.56-.326 2.08-.856.528-.53.84-1.264.792-2.1 0-.812-.32-1.506-.834-1.994-.51-.51-1.22-.794-2.016-.794-1.96 0-2.874 1.526-2.874 2.83v.02l.022.002zm-17.7 1.384c-.612 2.566-2.872 4.664-5.926 4.664-3.42 0-6.04-2.688-6.04-6.05 0-3.32 2.596-6.008 5.98-6.008 2.994 0 5.42 1.98 5.988 4.76h-3.42c-.368-.768-1.04-1.58-2.446-1.58-.792-.04-1.464.264-1.954.794-.472.532-.736 1.26-.736 2.08 0 1.65 1.08 2.872 2.688 2.872 1.406 0 2.08-.82 2.444-1.508h3.44l-.018-.024zm4.42-1.344c0 1.63 1.24 2.83 2.71 2.83 1.46 0 2.7-1.2 2.7-2.84s-1.24-2.84-2.72-2.84c-1.48 0-2.712 1.2-2.712 2.852v.02l.022-.022zm45.244-5.66h3.504l1.73 7.024L94.9 5.328h2.85l1.916 7.026 1.69-7.026h3.48l-3.46 11.304H98.24L96.306 9.32l-1.896 7.32h-3.136l-3.46-11.3-.002-.01zM18.448 8.514c0 1.264-1.024 2.288-2.288 2.288-1.264 0-2.288-1.024-2.288-2.29 0-1.264 1.024-2.29 2.288-2.29 1.264 0 2.288 1.026 2.288 2.288v.004zm-6.936-.02c0 1.26-1.024 2.286-2.288 2.286-1.264 0-2.288-1.02-2.288-2.28 0-1.26 1.024-2.28 2.288-2.28 1.264 0 2.288 1.02 2.288 2.288v-.014zm63.56 1.086c-.08-.52-.774-1.78-2.526-1.78-1.75 0-2.44 1.26-2.524 1.8h5.06l-.01-.02zm42.392 7.06h-3.38v-1.22c-.612 1.1-2.02 1.612-3.34 1.612-3.586 0-5.68-2.81-5.68-6.048 0-3.708 2.664-6.03 5.68-6.03 1.852 0 2.892.9 3.34 1.592v-1.2h3.38v11.3-.006zM11.512 2.298c0 1.26-1.024 2.284-2.288 2.284-1.264 0-2.288-1.024-2.288-2.288 0-1.264 1.024-2.29 2.288-2.29 1.264 0 2.288 1.028 2.288 2.292v.002zm-6.936 0c0 1.26-1.024 2.284-2.288 2.284C1.024 4.578 0 3.554 0 2.29 0 1.026 1.024 0 2.288 0c1.264 0 2.288 1.04 2.288 2.3v-.002zm13.872 0c0 1.26-1.024 2.284-2.288 2.284-1.264 0-2.288-1.024-2.288-2.288 0-1.264 1.024-2.29 2.288-2.29 1.264 0 2.288 1.028 2.288 2.292v.002z"/></svg>