<svg viewBox="0 0 129 28" xmlns="http://www.w3.org/2000/svg" fill-rule="evenodd" clip-rule="evenodd" stroke-linejoin="round" stroke-miterlimit="1.414"><path d="M55.926 25.342v1.803c0 .34.08.45.45.45h7.21c.347 0 .452-.083.452-.45v-1.803c0-.34-.08-.45-.45-.45h-7.662c.08 0 0 .083 0 .45zm-39.73-6.23c-.243-.78-.378-1.534-.378-2.773 0-1.24.108-1.97.378-2.78.62-1.967 2.317-3.098 4.58-3.098 2.238 0 3.937 1.13 4.556 3.096.244.78.378 1.534.378 2.772 0 1.24-.108 1.963-.378 2.77-.62 1.966-2.318 3.097-4.555 3.097-2.237 0-3.935-1.13-4.58-3.096zm70.48-13.148h-2.13c-.136 0-.243.08-.243.243v10.607c-.027.646-.108 1.077-.217 1.454-.297.942-1.024 1.454-2.075 1.454-1.05 0-1.75-.512-2.04-1.454-.16-.512-.242-1.077-.242-2.1 0-1.023.08-1.59.244-2.1.295-.915.995-1.427 1.994-1.454h.917c.134 0 .24-.08.24-.242v-1.858c0-.135-.08-.243-.242-.243h-1.57c-1.86.03-3.236.92-3.802 2.7-.27.86-.404 1.64-.404 3.18 0 1.51.108 2.316.404 3.178.566 1.804 1.968 2.693 3.855 2.693 1.51 0 2.425-.566 2.965-1.32h.026v.835c0 .136.08.243.243.243h2.13c.134 0 .242-.08.242-.244V6.18c-.06-.136-.17-.216-.3-.216zm27.8 15.976c-.134 0-.242-.08-.242-.243v-6.46c0-1.455-.728-2.45-2.102-2.45-1.348 0-2.13.995-2.13 2.45v6.46c0 .135-.08.243-.242.243h-2.13c-.135 0-.242-.08-.242-.243v-6.46c0-1.455-.728-2.45-2.103-2.45-1.347 0-2.13.995-2.13 2.45v6.46c0 .135-.08.243-.24.243h-2.13c-.135 0-.243-.08-.243-.243V10.955c0-.134.08-.242.243-.242h2.13c.134 0 .242.08.242.242v.808h.027c.485-.7 1.455-1.292 2.938-1.292 1.32 0 2.372.54 3.046 1.49h.027c.862-.94 1.967-1.48 3.557-1.48 2.588 0 4.043 1.777 4.043 4.17v7.08c0 .137-.08.245-.243.245l-2.075-.027zM37.103 5.964h-2.13c-.134 0-.242.08-.242.243v10.58c-.02.646-.1 1.077-.21 1.454-.293.95-1.02 1.43-2.072 1.43-1.024 0-1.752-.51-2.05-1.43-.16-.51-.24-1.07-.24-2.1 0-1.02.08-1.58.242-2.1.297-.91.997-1.42 1.995-1.45h.92c.052 0 .08-.05.08-.102v-2.13c0-.053-.028-.08-.08-.107h-1.59c-1.86.027-3.21.915-3.775 2.69-.27.86-.406 1.64-.406 3.15s.107 2.29.403 3.15c.565 1.805 1.967 2.69 3.854 2.69 1.51 0 2.427-.563 2.94-1.32h.028v.837c0 .136.08.244.24.244h2.13c.135 0 .243-.08.243-.244V6.1c-.026-.055-.135-.135-.27-.135zm-31.3 13.15c-.242-.7-.35-1.59-.35-2.774 0-1.185.108-2.073.35-2.773.647-1.992 2.345-3.096 4.582-3.096 1.67 0 2.966.68 3.855 1.75.08.09.08.25-.027.33l-1.456 1.29c-.108.08-.242.08-.323-.05-.565-.62-1.13-.97-2.048-.97-.996 0-1.75.486-2.075 1.455-.16.565-.21 1.21-.21 2.073 0 .86.058 1.535.247 2.1.325.943 1.08 1.455 2.076 1.455.916 0 1.51-.35 2.05-.97.08-.106.215-.106.32-.025l1.458 1.29c.11.08.08.22.028.327-.89 1.05-2.184 1.723-3.855 1.723-2.24-.028-3.964-1.105-4.61-3.124zm37.384-3.905c-.054 0-.108.02-.108.1v1.75c0 .052.02.11.1.11h5.72c.16 0 .24-.08.24-.24 0-1.81-.11-2.59-.377-3.37-.62-1.91-2.29-3.097-4.582-3.097-2.21 0-3.933 1.13-4.554 3.095-.25.73-.38 1.616-.38 2.774s.16 2.02.4 2.745c.62 1.966 2.29 3.124 4.636 3.124 2.05 0 3.61-.78 4.582-1.91.08-.11.08-.244-.028-.324l-1.34-1.21c-.108-.08-.242-.08-.35.053-.566.617-1.348 1.076-2.615 1.076-1.24 0-2.13-.59-2.48-1.69-.052-.163-.106-.324-.133-.486-.08-.485-.13-.942-.13-1.615.03-.65.056-1.05.137-1.564v-.053c.027-.132.053-.24.08-.347.298-.914 1.133-1.452 2.184-1.452 1.05 0 1.86.537 2.156 1.453.08.27.134.566.134.943 0 .08-.055.134-.136.134H43.19zm12.64 3.9c-.243-.7-.35-1.59-.35-2.78 0-1.185.107-2.073.35-2.773.646-1.99 2.344-3.096 4.58-3.096 1.672 0 2.994.675 3.856 1.75.08.083.08.244-.027.325l-1.456 1.29c-.108.08-.242.08-.323-.054-.565-.62-1.13-.97-2.048-.97-1 0-1.76.485-2.08 1.454-.19.565-.248 1.21-.248 2.073 0 .86.055 1.534.243 2.1.325.942 1.08 1.454 2.076 1.454.916 0 1.51-.35 2.048-.97.082-.105.217-.105.324-.024l1.457 1.29c.11.08.08.216.027.324-.89 1.05-2.185 1.725-3.856 1.725-2.237-.026-3.935-1.103-4.582-3.122zm36.93-3.91c-.053 0-.107.026-.107.107v1.75c0 .054.027.11.108.11h5.715c.16 0 .242-.08.242-.24 0-1.807-.108-2.587-.378-3.37-.62-1.91-2.29-3.095-4.582-3.095-2.21 0-3.934 1.13-4.555 3.096-.242.73-.377 1.616-.377 2.774 0 1.157.162 2.02.404 2.746.62 1.966 2.292 3.124 4.636 3.124 2.048 0 3.612-.782 4.582-1.912.08-.108.08-.243-.027-.324l-1.346-1.21c-.108-.08-.243-.08-.35.052-.567.62-1.348 1.077-2.615 1.077-1.24 0-2.13-.59-2.48-1.694-.054-.16-.108-.322-.135-.484-.08-.483-.134-.94-.134-1.614.027-.646.054-1.05.135-1.56v-.056c.027-.13.053-.24.08-.346.298-.914 1.133-1.452 2.184-1.452 1.05 0 1.86.537 2.156 1.453.08.27.135.565.135.94 0 .08-.055.137-.136.137h-3.154zM22.88 18.41c.19-.592.242-1.13.242-2.073 0-.943-.054-1.454-.242-2.074-.324-.942-1.052-1.453-2.076-1.453s-1.778.538-2.102 1.453c-.19.593-.243 1.105-.243 2.073 0 .94.05 1.48.24 2.072.32.942 1.05 1.455 2.1 1.455 1.02.027 1.75-.512 2.07-1.455zm96.923 7.485c-.136 0-.244-.08-.244-.242v-1.858c0-.135.08-.242.24-.242h.4c.89 0 1.32-.404 1.67-1.32l.322-.94-4.07-10.582c-.053-.13.054-.24.19-.24h2.29c.136 0 .243.08.27.25l2.507 7.323h.054l2.4-7.323c.053-.136.134-.243.27-.243h2.18c.136 0 .244.083.19.244l-4.205 11.71c-.97 2.667-1.887 3.5-3.746 3.5l-.727-.025zM70.476 10.47c3.395 0 4.635 1.186 4.69 3.93v7.297c0 .16-.107.242-.243.242h-1.94c-.162 0-.243-.11-.243-.25v-.81h-.027c-.513.753-1.563 1.292-3.127 1.292-2.048 0-3.746-1.08-3.746-3.42 0-2.424 1.698-3.555 4.447-3.555h.916c.162 0 .243.11.243.243v1.48c0 .16-.108.244-.243.244h-.512c-1.67 0-2.39.457-2.39 1.507 0 .945.675 1.4 1.915 1.4 1.59 0 2.48-.616 2.48-1.91v-3.74c-.055-1.21-.675-1.75-2.48-1.75-1.24 0-1.995.354-2.534.784-.11.08-.243.052-.323-.056l-.862-1.534c-.053-.108-.026-.215.055-.296.89-.674 2.102-1.104 3.935-1.104zM3.2 24.89c0-.106.054-.026 0 0h48.22c-.055-.053 0-.132 0-.45V3.26c0 .108-.055.027 0 0H3.2c.054.027 0 .108 0 0v21.63zM.496 27.596c.027-.08 0-.135 0 0V1.006c0-.314.054-.396 0-.45h53.177c.288 0 .342.027.45 0l-.01.01c-.044.048-.04.067.01-.01v26.59c0 .287-.027.34 0 .45-.108-.028-.162 0-.45 0H.496z"/></svg>