<svg viewBox="0 0 64 64" xmlns="http://www.w3.org/2000/svg" fill-rule="evenodd" clip-rule="evenodd" stroke-linejoin="round" stroke-miterlimit="1.414"><path d="M22.766 33.3c-.543 1.37-1.99 1.912-2.93 1.912-1.516 0-2.252-.68-2.252-2.523 0-1.87.894-5.35 3.587-5.35.97 0 1.72.37 1.72 1.36 0 .54-.2.94-.72.94-.17 0-.38-.048-.59-.27.25-.128.48-.557.48-.94 0-.33-.17-.636-.633-.636-1.13 0-2.14 2.704-2.14 4.797 0 .94.25 1.606 1.235 1.606.804 0 1.528-.385 2.003-1.03l.25.124zm3.722-1.844c.045.023.08.023.113.023.48 0 1.15-.31 1.59-.63l.09.27c-.38.42-1.07.735-1.82.85-.17 1.9-1.2 3.09-2.452 3.09-.95 0-1.64-.45-1.64-1.63 0-1.19.7-3.64 2.816-3.64.883.03 1.313.6 1.313 1.66zm-.872.566c-.214-.057-.27-.226-.27-.43 0-.283.135-.475.316-.554-.023-.43-.125-.6-.385-.6-.735 0-1.357 1.878-1.357 2.896 0 .68.135.826.52.826.475.01 1.007-.905 1.176-2.138zm-.746 4.49c0-.938.803-1.243 1.787-1.537l1.233-5.872c.306-1.47 1.2-1.753 1.867-1.753.464 0 .905.25 1.097.645.408-.52.95-.645 1.403-.645.634 0 1.222.44 1.222 1.11 0 .168-.02.293-.04.417h-.49c.01-.102.022-.192.022-.27 0-.24-.19-.352-.385-.352-.226 0-.543.124-.7.803l-.193.837h1.03l-.09.408h-1.02l-1.166 5.554c-.305 1.47-1.2 1.754-1.866 1.754-.59 0-.94-.26-1.11-.64-.395.52-.938.65-1.39.65-.634.01-1.22-.43-1.22-1.097zm1.03.205c.214 0 .474-.204.61-.803l.125-.6c-.645.226-1.143.498-1.143 1.063 0 .136.192.34.407.34zm2.454 0c.215 0 .475-.204.61-.803l.25-1.177-1.063.204-.2.94c-.05.24-.12.46-.2.64.1.15.34.206.61.206zm-.158-2.036l1.063-.19.87-4.16h-1.02l-.92 4.36zm1.878-6.41c-.227 0-.543.13-.702.808l-.192.838h1.018l.238-1.074c.022-.08.022-.147.022-.226.012-.228-.17-.34-.384-.34zm4.287 6c.81 0 1.32-.452 1.83-1.04h.35c-.59.94-1.46 1.9-2.83 1.9-.96 0-1.603-.474-1.603-1.64 0-1.19.667-3.654 2.783-3.654.915 0 1.13.476 1.13.985 0 1.187-1.13 2.09-2.365 2.17-.01.148-.022.28-.022.408 0 .702.25.872.736.872zm.6-3.89c-.52 0-1.03 1.1-1.23 2.116.79-.057 1.5-.837 1.5-1.697 0-.25-.056-.42-.26-.42zm3.24 3.78c.39 0 .888-.26 1.22-.544-.22 1.176-.95 1.516-1.78 1.516-.95 0-1.596-.475-1.596-1.64 0-1.19.668-3.655 2.783-3.655.918 0 1.133.477 1.133.986 0 1.2-1.133 2.09-2.366 2.17-.01.1-.02.228-.02.307 0 .644.282.86.632.86zm.7-3.78c-.51 0-1.03 1.143-1.24 2.116.804-.045 1.506-.826 1.506-1.697 0-.25-.07-.42-.26-.42zm5.81-.758c-.19 0-.34-.067-.475-.215.27-.17.464-.542.464-.88 0-.35-.205-.69-.77-.69-.566 0-.94.316-.94.927 0 1.505 2.32 1.72 2.32 3.937 0 1.73-1.39 2.567-2.896 2.567-1.177 0-2.184-.51-2.184-1.777 0-1.107.792-1.684 1.505-1.684.35 0 .87.147.904.68-.556 0-1.21.26-1.21.96 0 .51.326.984.983.984.69 0 1.2-.496 1.2-1.356 0-1.764-2.106-2.386-2.106-3.902 0-1.074 1.052-1.843 2.375-1.843.485 0 1.65.1 1.65 1.23.01.62-.317 1.063-.826 1.063zm4.095 1.166c0-.26-.09-.42-.283-.42-.644 0-1.323 1.88-1.323 3.02 0 .7.25.86.745.86.802 0 1.31-.45 1.82-1.04h.35c-.588.94-1.46 1.9-2.828 1.9-.96 0-1.606-.474-1.606-1.64 0-1.2.68-3.653 2.77-3.653.917 0 1.14.475 1.14.94 0 .496-.25.757-.54.757-.113 0-.237-.048-.35-.127.056-.214.1-.406.1-.6zm3.134-.86l-.137.645c.35-.306.76-.645 1.245-.645.466 0 .715.372.715.78 0 .35-.237.757-.746.757-.578 0-.284-.68-.6-.68-.306 0-.5.16-.76.386l-.814 3.915h-1.48l1.085-5.136 1.495-.02zm3.87 0l-.75 3.496c-.034.136-.045.238-.045.33 0 .28.135.372.417.372.398 0 .78-.385.92-.905h.43c-.59 1.675-1.608 1.9-2.16 1.9-.624 0-1.1-.36-1.1-1.232 0-.203.034-.418.08-.667l.7-3.3 1.505.01zm-.466-2.195c.45 0 .814.36.814.815 0 .45-.36.802-.813.802-.454 0-.804-.35-.804-.802-.012-.453.36-.815.803-.815zm3.29 1.81l-.17.78c.294-.26.69-.44 1.21-.44.7 0 1.256.396 1.256 1.63 0 1.38-.53 3.63-2.523 3.63-.508 0-.77-.18-.87-.362l-.532 2.5-1.55.364 1.72-8.09 1.46-.01zm.88 1.923c0-.79-.33-.847-.51-.847-.224 0-.51.18-.71.496L57.684 34c.044.115.157.24.38.24 1.1 0 1.45-1.8 1.45-2.773zm3.146 1.96c-.035.123-.057.247-.057.35 0 .214.08.36.35.36.08 0 .19 0 .27-.033-.283.88-.747 1.004-1.086 1.004-.724 0-1.03-.5-1.03-1.165 0-.18.023-.35.068-.545l.66-3.075h-.34l.08-.405h.34l.303-1.415 1.517-.213s-.16.7-.353 1.63H64l-.08.405h-.62l-.646 3.1zM4.935 26.81c.01.07-.022.124-.135.18-.14-.078-.46-.124-.72-.1-.28.022-.52.112-.48.305.045.192.316.305.803.26 1.188-.102 1.176-.905 2.92-1.064 1.356-.12 2.114.3 2.216.81.08.395-.25.78-1.235.86-.87.078-1.38-.16-1.426-.397-.02-.124.045-.305.463-.35.046.19.284.396.85.34.407-.035.746-.182.7-.41-.044-.24-.474-.373-1.153-.316-1.38.124-1.72.882-2.894.984-.84.08-1.517-.225-1.607-.68-.037-.167-.037-.563.845-.642.45-.03.813.048.86.23zm-4.41 4.73c-.386.485-.555 1.05-.52 1.605.032.554.304 1.007.734 1.358.45.35.94.452 1.492.35.215-.034.453-.147.668-.215-.45 0-.83-.147-1.22-.452-.42-.306-.7-.736-.77-1.256-.1-.487 0-.94.27-1.336.31-.384.71-.6 1.23-.667.52-.034.974.102 1.426.418-.102-.147-.25-.25-.384-.384-.453-.31-.94-.45-1.54-.31-.542.12-.994.4-1.38.89zm6.064-2.62c-1.46 0-2.763-.147-3.7-.35-1.01-.25-1.54-.52-1.54-.87 0-.148.07-.273.27-.42-.632.25-.972.453-.972.77.03.35.6.7 1.75.972 1.08.272 2.472.42 4.15.42 1.71 0 3.062-.148 4.15-.42 1.152-.27 1.71-.633 1.71-.973 0-.25-.25-.49-.7-.67.1.07.18.18.18.3 0 .35-.52.633-1.57.87-.978.215-2.22.362-3.738.362zm4.16.973c-1.085.25-2.477.42-4.15.42-1.71 0-3.1-.182-4.187-.42-.973-.25-1.493-.52-1.674-.803.18 1.222.6 2.376 1.153 3.394.418.633.837 1.188 1.255 1.787.18.35.3.71.38 1.06.27.386.67.635 1.15.77.6.216 1.222.306 1.855.27h.07c.633.036 1.3-.066 1.91-.27.453-.146.838-.384 1.12-.77h.035c.07-.35.18-.7.35-1.05.42-.6.84-1.154 1.257-1.787.555-1.007.94-2.16 1.154-3.394-.225.316-.745.587-1.684.802z" fill="#fff" fill-rule="nonzero"/></svg>