<svg viewBox="0 0 128 129" xmlns="http://www.w3.org/2000/svg" fill-rule="evenodd" clip-rule="evenodd" stroke-linejoin="round" stroke-miterlimit="1.414"><path d="M64 .5c35.323 0 64 28.677 64 64s-28.677 64-64 64-64-28.677-64-64S28.677.5 64 .5zM51.226 123.13A59.87 59.87 0 0 0 64 124.5c4.796 0 9.46-.566 13.93-1.636-9.37-24.278-9.21-74.46-8.896-117.63a60.3 60.3 0 0 0-8.705-.098c.31 43.446.46 93.95-9.11 117.993zm-13.94-4.93c6.2-12.28 18.445-35.505 18.845-52.388.46-19.353-.01-39.352 0-60.273a59.486 59.486 0 0 0-5.24.93c.15 22.99.32 38.03 0 56.19-.27 14.99-10.6 33.85-25.27 47.85a59.826 59.826 0 0 0 11.672 7.69zm54.403-.5a59.91 59.91 0 0 0 11.28-7.675c-14.26-13.917-24.23-32.373-24.5-47.1-.327-18.14-.155-33.177-.006-56.132a59.492 59.492 0 0 0-9.106-1.53l3.864.483c.01 20.94-.46 40.958 0 60.328.39 16.54 12.15 39.166 18.46 51.625zm-71.43-12.267c17.31-13.17 27.04-32.037 26.95-48.015-.09-15.322-.17-44.5-.05-49.984-24.78 7.276-42.9 30.203-42.9 57.328 0 15.706 6.072 30.004 16 40.67zm87.9-.462c9.67-10.61 15.57-24.72 15.57-40.2 0-26.624-17.458-49.204-41.54-56.91.12 5.86.035 34.647-.05 49.83-.09 15.69 9.29 34.16 26.014 47.29zm-3.64-51.75l2.88 8.87h9.32l-7.54 5.48 2.88 8.863-7.54-5.477-7.54 5.477 2.88-8.864-7.54-5.477h9.32l2.88-8.863zm-79.74-.12l2.88 8.87h9.316l-7.536 5.48 2.88 8.863-7.54-5.477-7.537 5.477 2.88-8.865-7.54-5.476h9.32l2.877-8.865zm8.784-26.75l2.88 8.868h9.32l-7.54 5.478 2.88 8.863-7.54-5.48-7.54 5.476 2.88-8.863-7.54-5.477h9.32l2.88-8.864zm62.82 0l2.88 8.868h9.32l-7.54 5.478 2.88 8.863-7.54-5.48-7.54 5.476 2.88-8.863-7.54-5.477h9.32l2.88-8.864z"/></svg>