<svg viewBox="0 0 128 24" xmlns="http://www.w3.org/2000/svg" fill-rule="evenodd" clip-rule="evenodd" stroke-linejoin="round" stroke-miterlimit="1.414"><path d="M39.618 2.68C38.088.694 35.646.574 31.438.49c-2.765-.055-5.893 0-7.602 1.147-.874.59-1.668 1.272-2.506 3.59-.382 1.055-1.867 5.463-2.5 7.653-.594 2.067-.873 3.814-.325 5.4.427 1.238 1.273 2.07 2.785 2.745 1.514.676 7.084.518 9.154.4 2.068-.12 3.315-.718 4.238-1.434 1.23-.95 1.847-2.22 2.447-3.82.49-1.3 1.26-3.72 2.44-7.68.71-2.38 1.225-4.27.04-5.81zM85.4 2.15C84.3 1.135 82.248.86 80.456.86h-9.48L64.53 21.158h5.79l1.86-5.85s3.955.01 5.686-.02c3.575-.07 6.9-1.382 8.52-6.824.923-3.098.245-5.187-.985-6.315zM97.766.87c-2.264 0-2.93.412-3.936 1.045-1.09.686-2.16 2.645-2.806 3.575-.597.863-9.972 15.614-9.972 15.614h5.708l2.63-4.292h6.9l-.238 4.354h5.702L102.578.87h-4.813zm21.873 5.853c-.16.674-1.51 5.192-2.09 6.932-.39 1.162-.74 2.43-1.59 3.2-.75.674-1.6.79-2.58.894-.77.08-1.98-.02-1.98-.02s-1.095-.09-1.57-.95c-.35-.64-.21-1.48-.03-2.14.124-.456 2.133-7.078 2.54-8.03.36-.85.517-1.327 1.17-1.83.68-.524 1.647-.516 2.01-.55.64-.06 1.98-.014 1.98-.014s1.535.015 2.074.57c.495.516.202 1.313.06 1.927zm-85.75.595s-1.63 5.416-2 6.516c-.39 1.194-.836 2.63-1.9 3.375-.77.54-2.03.55-2.03.55s-1.217.05-1.722-.02c-.21-.026-1.36-.043-1.93-.903-.666-1 .2-3.104.2-3.104s2.01-6.17 2.41-7.124c.395-.958.51-1.38 1.11-1.83.65-.49 1.773-.513 2.218-.53.47-.02.924-.03 1.33-.01.14.005 2.15-.07 2.584.802.316.633-.278 2.264-.278 2.264zm88.81 10.41l-.92.017c.71-.524 2.082-4.865 3.1-8.36.823-2.857 1.64-5.264.2-6.893C123.54.754 120.89.574 116.92.49c-3.123-.065-5.78.078-7.442 1.157-1.103.715-1.804 1.487-2.672 3.805-.394 1.05-1.647 4.872-2.244 7.07-.656 2.415-1.07 3.834-.535 5.662.413 1.43 1.425 2.323 2.8 2.83.93.344 2.38.418 4.202.45.003-.012.72-1.075 2.37-2.075.97-.59 2.23-1.04 3.095-1.25.915-.22 2.19-.378 3.224-.4.792-.018 1.31.016 1.31.016-1.21.107-2.654.36-4.06.852-1.58.553-2.993 1.58-3.885 2.843-.837 1.19-1.01 2.538-1.01 2.538s.15-.28.53-.65c.695-.676 1.67-1.27 3.196-1.588.984-.205 2.437-.3 4.075-.296.876.003 7.005 0 7.005 0L128 17.72h-5.3zM16.62 16.515s-9.908 2.168-10.303-.972c-.232-1.835 1.915-7.832 2.66-8.896.834-1.19 2.045-1.676 3.278-1.847 2.56-.358 5.6.26 6.674.537L20.3 1.05S15.773.28 10.807.506c-1.21.057-2.782.36-3.914.838-1.51.634-2.755 1.796-3.814 4.29C2.06 8.018.94 11.79.33 14.082c-.095.367-.834 3.186.24 4.856 1.22 1.9 3.44 2.294 4.298 2.39 3.987.435 10.34-.22 10.34-.22l1.408-4.592zm79.85-3.45l-4.886.023 5.31-8.61-.425 8.585zM81.023 8.382c-.493 1.453-1.034 2.003-1.71 2.445-.734.48-1.36.62-2.333.665-.842.038-3.59.038-3.59.038l2.222-6.97h3.283c.846 0 1.514.09 1.95.448.45.368.896 1.27.18 3.375zM44.578.786l-6.438 20.32h5.373L48.56 5.37l2.133 12.44h1.096l9.39-12.742-5.1 16.038h5.54L68.07.866s-5.524-.003-5.726 0c-.214.006-2.622-.108-4.278 1.997-.77.977-4.22 5.787-4.22 5.787s-.602-3.407-.92-5.067C52.57 1.737 51.286.99 49.444.847c-.897-.07-4.867-.06-4.867-.06z"/></svg>