<svg viewBox="0 0 128 20" xmlns="http://www.w3.org/2000/svg" fill-rule="evenodd" clip-rule="evenodd" stroke-linejoin="round" stroke-miterlimit="1.414"><path d="M5.243 15.083c-2.272.336-3.711.86-3.711 1.451 0 .551 1.291 1.385 3.388 2.003a.432.432 0 0 1 .323.417.448.448 0 0 1-.444.444c-.04 0-.081 0-.108-.014C1.855 18.725 0 17.623 0 16.386c0-1.465 2.527-2.782 6.305-3.374.228-.457.483-.914.793-1.371a.457.457 0 0 1 .376-.201c.148 0 .269.08.323.134.833.86 1.398 1.506 1.855 2.097a.648.648 0 0 1 .054.699c-.471.86-.713 1.667-.78 2.487a.457.457 0 0 1-.457.43H5.7a.435.435 0 0 1-.336-.148.488.488 0 0 1-.121-.336c.026-.497.094-.995.215-1.492v-.04a.184.184 0 0 0-.189-.188h-.026zm10.646 2.191h-2.783a.46.46 0 0 1-.457-.43c-.201-2.649-2.433-4.934-4.812-7.354-1.29-1.317-2.621-2.675-3.643-4.14C3.105 3.791 2.5 2.285 2.352.766a.473.473 0 0 1 .175-.403.448.448 0 0 1 .282-.094c.054 0 .108 0 .162.027.995.376 2.003.685 2.917.9a.59.59 0 0 1 .403.35c.672 1.842 2.379 3.576 4.167 5.404a.43.43 0 0 0 .336.161.47.47 0 0 0 .336-.161c1.788-1.828 3.495-3.576 4.168-5.404a.59.59 0 0 1 .403-.35 20.87 20.87 0 0 0 2.917-.873.646.646 0 0 1 .161-.027c.108 0 .202.027.283.094a.47.47 0 0 1 .174.403c-.148 1.533-.752 3.011-1.841 4.571-1.022 1.465-2.353 2.823-3.643 4.14l-.283.282c-.094.094-.147.282-.026.43.309.377.591.767.86 1.156.376.552.699 1.089.968 1.627 3.777.605 6.304 1.909 6.318 3.361 0 1.25-1.882 2.339-4.705 2.997-.027.014-.054.014-.094.014a.448.448 0 0 1-.444-.444c0-.188.135-.363.323-.417 2.11-.618 3.401-1.451 3.401-2.003-.014-.591-1.452-1.115-3.724-1.451h-.027a.183.183 0 0 0-.188.188v.04c.121.511.188 1.008.215 1.506a.45.45 0 0 1-.121.336.482.482 0 0 1-.336.148zM29.614 3.562c1.008 0 2.393.135 3.71.363a.465.465 0 0 0 .323-.08.481.481 0 0 0 .174-.283l.283-2.204a.429.429 0 0 0-.323-.471A18.609 18.609 0 0 0 29.52.39c-3.966 0-5.982 1.653-5.982 4.906v7.34c0 3.253 2.016 4.907 5.982 4.907 1.425 0 2.93-.175 4.261-.498a.427.427 0 0 0 .323-.47l-.283-2.205a.394.394 0 0 0-.174-.282.471.471 0 0 0-.323-.081c-1.317.229-2.702.363-3.71.363-1.963 0-2.635-.578-2.635-2.285V5.861c0-1.721.672-2.299 2.635-2.299zM76.34 5.001c.242 0 .43.201.43.43v8.092c0 .551.202.766.767.766.766 0 2.029-.47 2.93-.927V5.444c0-.242.202-.43.43-.43h2.501c.242 0 .43.188.416.43V16.87a.43.43 0 0 1-.43.417h-1.855a.431.431 0 0 1-.403-.309l-.188-.618c-1.519.712-3.321 1.169-4.652 1.169-1.908 0-2.876-1.25-2.876-3.71V5.431c0-.242.201-.43.43-.43h2.5zm14.061-.242c3.32 0 4.853 1.586 4.866 4.987v2.299a.43.43 0 0 1-.43.416h-6.21v.43c0 1.237.309 1.829 2.137 1.829 1.102 0 2.205-.162 3.347-.484a.37.37 0 0 1 .336.04.464.464 0 0 1 .189.282l.376 1.788a.42.42 0 0 1-.269.484c-1.25.444-2.796.699-4.248.699-3.562 0-5.215-1.519-5.215-4.785V9.585c0-3.159 1.774-4.826 5.121-4.826zm26.401 9.934l.31 1.976a.43.43 0 0 1-.296.47c-.793.242-1.855.39-2.769.39-3.778 0-5.324-1.384-5.324-4.759V9.517c0-3.374 1.546-4.758 5.324-4.758.672 0 1.787.107 2.755.389a.43.43 0 0 1 .296.471l-.296 1.976a.421.421 0 0 1-.174.282c-.094.068-.215.094-.336.068a10.979 10.979 0 0 0-2.178-.256c-1.586 0-2.043.403-2.043 1.801v3.307c0 1.398.457 1.802 2.043 1.802a10 10 0 0 0 2.178-.256.42.42 0 0 1 .336.067.398.398 0 0 1 .174.283zm4.557-2.232v.43c0 1.237.31 1.829 2.138 1.829a12.24 12.24 0 0 0 3.347-.484.371.371 0 0 1 .336.04.463.463 0 0 1 .188.282l.377 1.788a.422.422 0 0 1-.269.484c-1.25.444-2.796.699-4.248.699-3.562 0-5.216-1.519-5.216-4.785V9.585c0-3.159 1.775-4.826 5.122-4.826 3.32 0 4.853 1.586 4.866 4.987v2.299a.43.43 0 0 1-.43.416h-6.211zM40.287 4.759c-3.508 0-5.363 1.693-5.363 4.879v3.011c0 3.186 1.855 4.88 5.363 4.88 3.509 0 5.364-1.694 5.364-4.88V9.638c0-3.186-1.855-4.879-5.364-4.879zM71.151.323c.229 0 .431.201.431.43V16.87a.43.43 0 0 1-.431.417h-2.5a.422.422 0 0 1-.43-.417V.753c0-.242.202-.43.43-.43h2.5zm33.15 4.436c1.895 0 2.863 1.25 2.89 3.71v8.401a.43.43 0 0 1-.43.417h-2.501a.422.422 0 0 1-.43-.417V8.791c0-.551-.201-.766-.766-.766-.766 0-2.03.471-2.93.928v7.904a.432.432 0 0 1-.431.417h-2.5a.422.422 0 0 1-.43-.417V5.431c0-.242.202-.43.43-.43h1.855a.43.43 0 0 1 .403.309l.189.618c1.519-.712 3.32-1.169 4.651-1.169zm-54.806.242c.189 0 .35.134.404.309l.188.618c1.519-.712 3.32-1.169 4.651-1.169 1.909 0 2.877 1.25 2.89 3.71v8.401a.43.43 0 0 1-.43.417h-2.5a.422.422 0 0 1-.43-.417V8.791c0-.551-.202-.766-.767-.766-.766 0-2.029.471-2.93.928v7.904a.431.431 0 0 1-.43.417H47.64a.422.422 0 0 1-.43-.417V5.431c0-.242.202-.43.43-.43h1.855zm10.983.349V3.871C60.478 1.264 61.782 0 64.457 0c.726 0 1.506.094 2.178.269a.43.43 0 0 1 .309.47l-.255 1.815a.482.482 0 0 1-.175.282.466.466 0 0 1-.323.081c-.443-.067-.901-.121-1.21-.121-.994 0-1.169.323-1.169 1.237V5.35h2.46c.121 0 .228.054.309.135a.446.446 0 0 1 .108.322v1.896a.423.423 0 0 1-.417.389h-2.46v8.765a.42.42 0 0 1-.417.417h-2.5a.42.42 0 0 1-.417-.417V8.092h-1.385a.421.421 0 0 1-.43-.416V5.78c0-.242.202-.43.43-.43h1.385zM38.271 9.544c0-1.317.605-1.868 2.016-1.868 1.412 0 2.017.564 2.017 1.868v3.2c0 1.317-.605 1.868-2.017 1.868-1.411 0-2.016-.565-2.016-1.868v-3.2zm53.784.162v-.404c0-1.062-.269-1.72-1.627-1.72-1.223 0-1.801.537-1.801 1.72v.404h3.428zm32.732 0v-.404c0-1.062-.269-1.72-1.626-1.72-1.224 0-1.802.537-1.802 1.72v.404h3.428zM10.472 4.678c-.982-.954-1.519-2.07-1.6-2.379a.373.373 0 0 1-.04-.175c0-.255.201-.43.416-.43.175 0 .686.054 1.56.054s1.384-.054 1.559-.054a.43.43 0 0 1 .417.43c0 .081-.027.134-.04.175-.121.309-.646 1.425-1.627 2.379a.442.442 0 0 1-.323.121.422.422 0 0 1-.322-.121z"/></svg>