<svg viewBox="0 0 129 22" xmlns="http://www.w3.org/2000/svg" fill-rule="evenodd" clip-rule="evenodd" stroke-linejoin="round" stroke-miterlimit="1.414"><path d="M68.613 7.735h-2.715l-1.744 8.27-.068.323c-.22 1.094.925 2.083 2.036 2.083h1.056l-.633 3s-2.647.01-2.718 0c-2.35-.11-4.224-2.04-4.224-4.4 0-.22.018-.45.05-.66.022-.15 3.097-14.15 3.097-14.15h4.32l-.54 2.547h2.71l-.63 2.996zM51.39 4.755c-2.263.004-4.107 1.827-4.107 4.084 0 .92.222 1.64.828 2.45.22.29.64.675.64.675.334.312 2.73 2.306 4.39 3.856.285.266.826.74.826 1.194 0 .443-.364.8-.81.8h-.16l-6.734-.003-.75 3.6h7.313l.2.004c2.96 0 5.33-1.537 5.504-4.477.097-1.66-.296-2.606-1.74-3.99-1.138-1.085-4.057-3.543-4.374-3.845-.127-.103-.237-.32-.237-.565 0-.443.36-.8.804-.8h.53l4.524.002.63-2.993-6.04-.005h-1.23zm-9.963 5.36L39.03 21.4h4.583c.244-1.16 1.405-6.644 2.334-10.976l.038-.196c.09-.35.138-.715.138-1.093 0-2.436-1.99-4.402-4.438-4.402h-6.883l-.1-.003c-.968 0-1.78.677-1.976 1.582l-.027.135c-.08.327-3.19 14.953-3.19 14.953h4.52l2.74-12.816.05-.242c.08-.352.402-.613.782-.613h1.835c1.11 0 2.304.9 2.062 2-.027.12-.058.26-.08.38m42.4 5.92l2.4-11.28h-4.58c-.244 1.16-1.404 6.64-2.333 10.973l-.04.194c-.088.35-.136.72-.136 1.1 0 2.433 1.99 4.4 4.44 4.4h6.99c.97 0 1.78-.675 1.977-1.58l.027-.135C92.64 19.375 95.75 4.75 95.75 4.75h-4.52l-2.74 12.82-.047.24c-.086.354-.41.615-.79.615H85.9l-.087.002c-1.112 0-2.226-.955-2.035-2.07l.054-.32zm16.328 0l1.634-7.7c.102-.36.41-.6.776-.6h3.22l.635-3-4.687.003c-2.1 0-3.85 1.45-4.316 3.396l-.027.126c-.467 2.193-1.07 5.006-1.595 7.452l-.038.193c-.088.35-.138.72-.138 1.098 0 2.435 1.99 4.4 4.44 4.4h4.805l.63-2.993H102.2l-.08.004c-1.117 0-2.29-.96-2.045-2.046.026-.123.043-.214.065-.333M8.532 4.956c.19-.91.997-1.592 1.968-1.592l.305-.003 4.485-.01.63-2.993h-8.1C5.74.362 4 1.79 3.52 3.71L.926 15.92c-.09.35-.137.72-.137 1.097 0 2.434 1.98 4.407 4.43 4.407h7.18l.63-2.994H8.02h.14c-1.114 0-2.293-.894-2.06-2.028l.082-.39 2.35-11.056zM25.03 9.79c.227-1.154-.93-2.03-2.044-2.03l-.113-.003H21.14c-.38 0-.703.263-.788.615l-.048.24-.925 4.32-.66 3.072-.08.354c-.217 1.097.94 2.068 2.053 2.068h1.837c.38 0 .704-.26.79-.614l.973-4.558.66-3.102.066-.363zm-10.534 4.82l.71-3.34.1-.473c.447-2.1.89-4.164.926-4.32l.027-.136c.19-.9 1-1.58 1.97-1.58l.1.01h6.88c2.45 0 4.44 1.968 4.44 4.4 0 .38-.05.748-.14 1.097l-.038.196-.075.345-.975 4.588c-.45 2.1-.89 4.165-.925 4.32l-.025.138c-.194.904-1.006 1.58-1.973 1.58h-6.98c-2.45 0-4.44-1.968-4.44-4.403 0-.375.05-.74.14-1.092l.04-.194.236-1.12zM77.25 4.738h2.707l-.632 2.995-3.124.002h-.07c-.383 0-.702.27-.78.63l-2.825 13.04h-4.36s2.72-12.943 2.797-13.268c.46-1.947 2.214-3.397 4.314-3.397h1.644l.337-.002zm36.282 13.673h.84l-.634 3s-2.97.01-3.04 0c-2.35-.11-4.224-2.04-4.224-4.4 0-.22.016-.45.05-.66.022-.146 3.094-14.15 3.094-14.15h4.644l-.538 2.548h2.707l-.63 2.996h-2.71l-1.74 8.27-.07.323c-.212 1.094.93 2.083 2.04 2.083h.22zm6.302-4.33l-.4 1.96c-.022.12-.037.23-.055.36-.16 1.086.92 2.016 2.04 2.016h1.01l1.02-4.97h-2.817c-.383 0-.728.286-.808.644m-1.028-6.35l.63-3 4.673.003c.433 0 .733.01 1.106.083 2.404.465 3.954 2.776 3.486 5.166l-.113.537-1.515 7.12-.468 2.185c-.198.9-1.01 1.576-1.974 1.576h-4.654c-2.45 0-4.437-1.973-4.437-4.407 0-.38.048-.746.14-1.096l.743-3.467.02-.09c.176-.926.99-1.623 1.97-1.623l5.65-.003.122-.57.077-.38c.23-1.15-.93-2.03-2.044-2.03l-3.41-.004z" fill-rule="nonzero"/></svg>