<svg viewBox="0 0 128 96" xmlns="http://www.w3.org/2000/svg" fill-rule="evenodd" clip-rule="evenodd" stroke-linejoin="round" stroke-miterlimit="1.414"><path d="M83.036 95.405H38.068c-.226-.042-.452-.11-.68-.123-4.535-.286-8.897-1.319-13.055-3.139C15.28 88.182 8.53 81.762 4.112 72.926A37.798 37.798 0 0 1 .377 60.493C.25 59.441.125 58.389 0 57.338v-4.089c.043-.226.11-.453.123-.68.235-3.929 1.041-7.743 2.46-11.41 3.819-9.865 10.476-17.181 19.937-21.917 4.908-2.457 10.139-3.749 15.611-4.036 2.679-.139 5.356.011 8.02.368.241.033.588-.075.756-.246 3.829-3.912 8.19-7.089 13.107-9.498 4.769-2.335 9.788-3.841 15.071-4.443 1.243-.143 2.489-.259 3.735-.388h3.833c.251.039.503.083.753.113 1.9.221 3.81.36 5.691.675 5.871.985 11.335 3.092 16.392 6.222 7.754 4.8 13.663 11.297 17.7 19.476a45.405 45.405 0 0 1 4.43 15.008c.137 1.202.254 2.404.381 3.604v4.214c-.04.229-.091.453-.117.681-.218 1.833-.359 3.677-.66 5.497-.984 5.913-3.111 11.409-6.272 16.491-4.8 7.716-11.288 13.6-19.442 17.618a45.5 45.5 0 0 1-14.998 4.426c-1.159.133-2.316.254-3.475.381zM56.431 18.829c.077.102.095.149.128.165a51.113 51.113 0 0 1 7.521 4.548c.15.108.52.063.702-.051 6.519-4.131 13.586-5.556 21.177-4.21 7.439 1.319 13.492 5.036 18.117 10.973 5.237 6.718 7.233 14.315 5.788 22.767-.969 5.664-3.238 10.746-7.095 15.004-7.038 7.761-15.85 10.971-26.224 9.612-6.386-.837-11.899-3.592-16.462-8.203-5.856-5.915-11.751-11.792-17.624-17.691-.783-.786-1.654-1.418-2.781-1.556-1.969-.241-3.756.741-4.606 2.51-.759 1.579-.661 3.36.985 4.978 6.548 6.427 13.037 12.914 19.577 19.348a31.718 31.718 0 0 0 3.592 3.056c4.777 3.469 10.164 5.387 15.997 6.16 4.578.604 9.121.475 13.629-.539 8.599-1.931 15.721-6.32 21.331-13.092 4.632-5.596 7.434-12.026 8.41-19.246a37.734 37.734 0 0 0-.349-12.377c-1.302-6.669-4.123-12.636-8.643-17.715-8.625-9.685-19.476-14.008-32.389-13.043-4.967.37-9.666 1.83-14.087 4.144a37.407 37.407 0 0 0-6.694 4.458zm-3.16 67.61c-.178-.165-.355-.33-.531-.496-2.677-2.528-5.368-5.039-8.014-7.599-.512-.495-.983-.737-1.707-.72-2.68.065-5.361.077-8.001-.519-13.126-2.969-20.748-17.241-15.911-29.798 3.816-9.902 14.379-15.932 24.796-14.073 4.67.833 8.768 2.81 12.132 6.279 4.102 4.235 8.326 8.349 12.473 12.541.944.954 2.028 1.389 3.335 1.203 1.69-.242 3.035-1.046 3.646-2.704.599-1.63.309-3.175-.926-4.425-4.352-4.409-8.6-8.929-13.128-13.15-8.782-8.191-19.138-10.627-30.592-7.144C15.438 30.515 6.422 46.423 9.942 62.12c3.208 14.302 15.716 24.34 30.352 24.352 4.087.005 8.174.003 12.261 0 .202 0 .404-.017.716-.033z"/></svg>