<svg viewBox="0 0 128 114" xmlns="http://www.w3.org/2000/svg" fill-rule="evenodd" clip-rule="evenodd" stroke-linejoin="round" stroke-miterlimit="1.414"><path d="M57.74 88.07c-.284-.54-.568-.98-.594-.98-.026 0-.207.645-.414 1.472l-.387 1.448-1.086.542c-.6.285-1.09.543-1.12.57 0 .025.386.387.88.826l.903.75-.05 1.525-.08 1.5 1.01-.983.98-.982 1.113.387c.62.207 1.136.387 1.136.387.027 0-.127-.645-.31-1.42l-.36-1.422.775-1.32c.44-.723.775-1.317.775-1.317s-.57.052-1.216.13c-1.395.18-1.16.335-1.964-1.112zM30.37 75.795c-.156 1.55-.285 2.016-.647 2.145-.285.103-.31.103-.543-.104-.233-.233-.233-.414-.078-1.887.182-1.66.26-1.89.673-2.05.31-.13.594 0 .672.283.025.13 0 .853-.078 1.602zm10.26-.077c-.18 1.37-.233 1.577-.465 1.835-.104.103-.26.155-.465.155-.595 0-.647-.31-.388-2.403.155-1.293.258-1.603.57-1.81.18-.13.49-.18.645-.077.31.207.31.568.103 2.3zm14.01.052c-.027.102-.053.283-.053.386v.207l-1.24.05c-1.01.053-1.242.08-1.242.182 0 .207-.31.7-.49.776-.26.13-.595.13-.776.03-.19-.13-.29-.59-.21-1.14.02-.28.05-.51.08-.51.02-.025.93-.05 2.01-.08l1.96-.05-.052.156zm-3.723-1.76c.052-.386.284-.904.44-1.033.232-.18.697-.18.904-.025.16.13.19.232.19.672 0 .284 0 .516-.05.542-.025.026-.388.078-.8.104l-.75.05.077-.31zm18.997-2.584c.103-.62.18-1.137.18-1.163 0-.026-.387-.026-.852-.026l-.88.052.053-.19c.077-.414.31-2.094.284-2.12-.06-.05-3.42.155-3.47.206 0 0-.05.465-.13 1.01-.18 1.343-.157 1.292-.52 1.292-.156 0-.517.024-.8.05l-.52.05-.05.338c-.026.207-.08.336-.13.31-1.19-.54-2.12-.67-3.54-.54-1.55.154-2.637.57-3.44 1.266l-.412.36-.258-.283c-.285-.363-1.01-.724-1.655-.854-.26-.05-.88-.074-1.37-.074-1.163 0-2.17.207-2.97.595l-.62.31.05-.36.05-.34-.697.055c-.826.05-.75.18-.57-1.138.054-.517.106-.93.08-.956 0 0-.645.025-1.395.08-1.085.074-1.396.1-1.447.204-.028.05-.106.542-.158 1.06l-.105.955h-.39c-.23 0-.54.027-.697.053-.258.026-.284.052-.335.362l-.052.336-.31-.18c-.62-.333-1.215-.44-2.352-.385-.877.026-1.265.103-1.937.31-.153.052-.18.026-.18-.077s-.076-.13-.8-.08c-.49.024-.9.075-1.135.153-.26.13-.335.13-.387.05-.05-.076-.337-.076-1.29-.025l-1.24.05-.03.362c-.026.18-.08.595-.13.88-.026.413-.05.517-.104.36-.18-.62-.697-1.162-1.317-1.342-.236-.08-.7-.13-1.037-.13-.57 0-.803.05-1.32.26-.077.05-.13.025-.13-.053 0-.103-.025-.103-1.68 0l-.697.026-.05.493c-.467 4.497-.828 8.14-.88 8.4l-.026.336h1.19c1.11 0 1.213-.027 1.213-.13 0-.078.05-.62.104-1.19.077-.568.13-1.085.13-1.11 0-.027.13 0 .283.077.23.077.465.104 1.034.077 1.294-.05 1.966-.44 2.69-1.496.078-.13.104-.053.05.386-.023.31-.05.673-.075.8l-.05.26h1.19c.67 0 1.24-.025 1.29-.077.052-.026.207-.88.362-2.378.156-1.398.31-2.458.388-2.64.155-.31.388-.62.62-.746.13-.05.156-.05.104.077-.596 1.42-.75 3.28-.364 4.187.232.517.774 1.034 1.37 1.267.36.156.645.18 1.5.207 1.68.05 2.74-.26 3.62-1.09.8-.75 1.19-1.86 1.24-3.59.024-.853.024-.93.18-.957.08 0 .155.028.155.08 0 .054-.13 1.24-.31 2.64-.18 1.392-.31 2.61-.31 2.683 0 .156.05.156 1.37.13.75-.026 1.396-.052 1.42-.077.028-.027.7-5.12.7-5.404 0-.075.05-.13.18-.13.234 0 .234-.022.105.39-.18.49-.388 1.99-.336 2.56.1 1.293.696 2.017 1.936 2.43.49.13.726.156 1.785.156 1.036 0 1.37-.028 1.863-.183.826-.207 1.343-.465 1.834-.905l.39-.363.26.26c.335.386.775.645 1.37.852.465.18.646.18 2.016.18 1.343 0 1.575 0 2.12-.18 1.55-.44 2.53-1.27 2.996-2.458l.154-.415h-.542c-.286 0-1.165.03-1.94.054l-1.396.053-.104.414c-.18.514-.49.8-.956.8-.412 0-.645-.26-.645-.7 0-.517.388-3.1.517-3.41.158-.44.44-.62.855-.62.49 0 .645.18.645.75v.44l1.033-.05c.57-.03 1.447-.08 1.94-.107l.93-.05-.026-.335c-.025-.31 0-.336.182-.336.204 0 .204.025.152.26-.05.334-.8 5.632-.8 5.71 0 .05.75.08 1.706.08h1.68l.05-.21c.026-.13.206-1.523.44-3.1l.413-2.894h.286c.154 0 .542-.03.852-.054l.595-.052.155-1.137zM34.09 68.66c.13-.025.156-.13.285-1.214.078-.646.44-4.058.828-7.573.853-7.883.878-8.167 1.11-9.15.363-1.654.93-2.74 1.836-3.644.82-.86 1.55-1.19 3.12-1.45l.31-.05-.31.56c-.83 1.5-1.6 3.8-1.91 5.815-.08.414-.237 1.577-.34 2.585-.49 4.496-.155 7.03 1.24 9.15 1.422 2.145 3.826 3.386 7.444 3.85 1.136.156 4.6.13 6.073-.025 5.686-.62 9.796-2.198 13-4.96 1.68-1.42 2.973-3.1 3.98-5.145.492-.955.932-2.014.88-2.066-.026-.028-3.257.334-7.21.8-3.956.464-7.21.852-7.264.852-.05 0-.13.102-.154.206-.363 1.63-.62 2.275-1.293 2.947-.696.67-1.55 1.03-2.53 1.03-1.395 0-2.093-.93-2.093-2.79 0-.955.282-3.566.412-3.695.05-.05 1.11-.206 2.325-.36 1.24-.18 3.54-.466 5.118-.673 1.575-.205 5.297-.696 8.22-1.083 2.944-.39 5.374-.725 5.4-.777.077-.053.672-4.085.775-5.17.13-1.164.05-3.128-.155-4.16-.31-1.604-.854-2.82-1.707-3.88-2.66-3.305-8.32-4.003-16.334-1.99-3.153.804-5.92 1.968-8.09 3.36-.49.31-.904.57-.93.546 0 0 .025-.44.077-.958.052-.517.08-.957.08-.982-.05-.024-2.66.44-3.85.727-1.707.36-3.18.956-4.55 1.835l-.67.415.05-.466c.05-.463.05-.463-.13-.41-.104.026-2.197.465-4.65.98-2.458.52-4.5.96-4.525.985-.025.025-.387 3.54-.826 7.805-.44 4.262-1.036 10.18-1.32 13.13-.31 2.943-.544 5.45-.544 5.554 0 .18.028.206.208.155.13 0 2.067-.155 4.315-.31 2.275-.156 4.187-.285 4.29-.31zm-13.723-8.012c-2.482.285-4.55.543-4.6.543-.053 0-.13.31-.208.81-.31 1.91-.96 2.92-2.02 3.155-1.06.207-1.66-.362-1.84-1.76-.078-.49-.05-1.033.08-2.506.62-7.495.67-7.857 1.16-8.89.104-.26.336-.62.492-.777.54-.593 1.575-.852 2.12-.54.54.335.85 1.394.774 2.66 0 .36 0 .647.024.647.078 0 8.76-1.396 9.434-1.526l.26-.026-.055-.464c-.13-1.396-.36-2.483-.725-3.36-.88-2.094-2.56-3.387-4.963-3.8-1.007-.155-2.894-.103-4.29.13C8.782 46.174 4.7 50.182 3.77 56.93c-.18 1.29-.362 3.824-.362 5.142 0 3.154.855 5.43 2.535 6.773.88.697 2.326 1.266 3.774 1.5.696.102 3.824.025 4.703-.105 2.533-.413 4.497-1.19 6.203-2.455.724-.543 2.042-1.94 2.533-2.688.232-.336.62-1.034.877-1.55.44-.88 1.112-2.767 1.164-3.258.027-.21.027-.24-.155-.21-.103.022-2.222.26-4.678.57zM52.21 48.81c.335-2.92 1.06-4.496 2.48-5.4.853-.518 2.12-.647 2.766-.285.413.232.8.8.904 1.447.13.62.13 1.964-.025 2.895-.052.44-.13.8-.13.826 0 0-1.292.207-2.843.44-1.55.26-2.92.466-3.024.49-.18.053-.18.053-.13-.412zm46.11-9.174c-.105 1.085-2.07 12.328-2.302 13.13-.775 2.74-2.17 4.186-4.42 4.574-2.636.465-3.876-.724-3.72-3.567.05-.904 1.782-11.682 2.067-12.768.723-2.79 2.352-4.523 4.73-5.014.878-.18 1.292-.2 1.886-.05.78.21 1.35.75 1.61 1.53.158.52.236 1.42.158 2.17zm27.68.232c-.206 1.422-1.137 6.022-1.55 7.624-1.396 5.402-3.93 9.95-7.47 13.492-5.402 5.376-12.768 8.27-22.616 8.89-.827.053-1.99.08-2.74.053l-1.292-.052-.05.18c0 .08-.26 1.707-.518 3.62-.285 1.887-.724 4.91-.982 6.694-.26 1.8-.724 4.98-1.034 7.08-.31 2.09-.595 3.82-.62 3.87-.026.025-3.31-.08-7.29-.234-3.954-.155-7.236-.284-7.236-.258-.026 0 .05.645.155 1.42.672 4.963 2.378 17.81 2.378 17.94 0 .075-.026.153-.052.153-.052 0-3.464-2.12-7.6-4.703-4.134-2.56-7.546-4.68-7.624-4.68-.06 0-.86.438-1.74.98-5.817 3.567-10.004 6.075-10.03 6.05 0 0-.05-.363-.1-.803-.028-.41-.21-1.91-.338-3.305-.156-1.398-.596-5.3-.957-8.66-1.215-11.296-1.267-11.994-1.318-12.02-.028-.025-1.5-.05-3.284-.05-2.146 0-3.387-.027-3.723-.105-.36-.075-.49-.075-.592 0-.076.08-.88.08-3.436.054l-3.336-.054-.024.21c-.027.13-.078.62-.13 1.11-.052.49-.13.903-.155.93-.05.08-7.21-.05-7.29-.13-.024-.027.234-2.766.57-6.1.336-3.334.594-6.1.594-6.125 0-.05-.464-.05-1.06-.026l-1.06.077.05-.23c.08-.337.236-2.25.21-2.35-.026-.03-.465.204-1.01.54-2.893 1.887-5.684 2.663-9.354 2.663-2.328-.028-3.878-.337-5.455-1.165-2.842-1.473-4.573-4.445-5.04-8.58-.154-1.474-.025-5.403.234-7.47.93-7.108 4.495-11.864 10.466-13.983 3.386-1.215 6.72-1.55 9.072-.93.852.232 1.32.413 2.583 1.11.62.336 1.162.595 1.162.57.026 0 .104-.854.207-1.887.076-1.01.18-1.86.205-1.888.052-.026 1.344-.36 2.92-.724 4.99-1.163 9.15-2.17 9.176-2.197.026 0-.078-.75-.207-1.68-.13-.906-.773-5.378-1.445-9.95-.647-4.55-1.268-8.92-1.397-9.67-.105-.776-.18-1.422-.157-1.5 0-.052.984.31 2.92 1.137 1.605.7 4.06 1.73 5.508 2.327 1.42.592 2.74 1.16 2.92 1.24l.335.154 1.99-2.25c1.11-1.212 2.12-2.35 2.274-2.53.156-.155 1.81-2.016 3.696-4.11 1.86-2.067 3.775-4.212 4.24-4.73l.853-.955.073.26c.05.23 3.617 26.362 3.617 26.543 0 .054.518.106 1.37.13 2.947.105 4.757.518 6.928 1.55.49.235.904.39.93.364.026-.026.18-1.06.336-2.3.157-1.215.31-2.25.338-2.275.028-.026.08-.026 7.16-1.705 13.8-3.257 14.99-3.54 16.13-3.955 2.66-.956 6.925-1.81 10.34-2.093 1.443-.13 5.062-.053 6.15.103 2.56.386 4.78 1.136 6.614 2.22 3.85 2.327 6.175 6.126 6.744 11.01.156 1.24.053 4.524-.154 6.05zm1.99-4.368c-.025-1.602-.077-2.223-.206-2.973-.982-5.453-3.8-9.407-8.4-11.76-1.887-.982-3.903-1.576-6.462-1.964-1.318-.206-5.996-.206-7.624 0-3.593.44-6.953 1.163-9.693 2.12-.956.31-3.54.956-12.56 3.076-6.256 1.47-11.425 2.71-11.53 2.76-.128.05-.18.23-.36 1.76-.13.93-.233 1.7-.233 1.7-.026 0-.336-.078-.698-.207-1.318-.44-2.946-.75-4.55-.853-.516-.025-.93-.077-.955-.077-.03-.026-.91-6.54-1.99-14.475C61.67 6.68 60.76.115 60.71.04c-.026-.156-.31.128-2.017 2.04l-4.42 4.937c-1.343 1.5-3.773 4.213-5.427 6.048-1.63 1.81-3 3.31-3.05 3.283-.13-.052-11.476-4.86-12.536-5.298-.44-.182-.8-.336-.827-.31-.026 0 .44 3.308 1.034 7.314 1.11 7.78 2.326 16.205 2.403 16.748.026.258.026.336-.103.362-.077.025-2.713.646-5.866 1.396-3.15.75-5.73 1.37-5.76 1.396-.022 0-.073.542-.15 1.188-.053.62-.13 1.164-.156 1.164 0 .025-.233-.053-.517-.156-1.37-.543-2.377-.698-4.315-.698-2.222 0-4.24.336-6.435 1.06-5.735 1.94-9.38 5.583-11.24 11.217C.465 54.29 0 57.81 0 61.69c0 4.678 1.19 8.142 3.593 10.546 1.524 1.52 3.307 2.45 5.607 2.917 3.336.67 7.86.156 10.935-1.24l.49-.234-.05.592-.052.595 1.033-.027 1.034-.052v.233c-.053.49-1.112 11.265-1.164 11.63l-.025.36h.91c.52 0 2.95.025 5.43.076 2.51.05 4.55.077 4.576.05.027-.025.104-.49.156-1.032.05-.544.103-1.06.13-1.112 0-.076.54-.102 3.255-.076 1.81.026 4.317.026 5.61 0l2.325-.025.05.336c.026.18.39 3.438.775 7.21 1.296 11.865 1.99 18.404 2.02 18.508 0 .05 2.97-1.703 6.59-3.9 5.71-3.462 6.617-3.98 6.746-3.93.158.08 2.588 1.58 11.22 6.93.75.466 2.43 1.526 3.75 2.353 1.343.828 2.455 1.5 2.48 1.526.026 0 .026-.13 0-.26 0-.13-.44-3.41-.956-7.26-.518-3.853-1.138-8.506-1.37-10.34-.26-1.81-.44-3.335-.415-3.335.023-.026 3.176.077 7.002.232 3.826.155 6.98.26 7.005.232.026-.03.207-1.218.414-2.64.205-1.42.593-4.006.852-5.763.26-1.736.776-5.406 1.19-8.12l.698-4.934h.75c1.085 0 3.1-.13 4.755-.31 8.76-.956 15.79-4.032 20.91-9.15 2.815-2.817 5.04-6.255 6.614-10.235.88-2.25 1.318-3.825 2.146-7.806.878-4.29 1.03-5.66.98-8.735zm-12.302-7.263c-2.637-1.86-6.746-2.48-11.915-1.81-4.808.595-8.245 1.68-11.32 3.49-.415.258-.776.465-.776.465-.026-.025.025-.31.077-.646s.103-.62.103-.62c-.025-.026-5.065 1.034-13.336 2.79-.9.182-1.65.39-1.68.415-.02.03-.59 3.98-1.26 8.79-.67 4.78-1.78 12.64-2.452 17.45-1.19 8.378-1.525 10.7-2.3 16.23-.18 1.37-.62 4.477-.956 6.9-.363 2.43-.62 4.42-.595 4.45.026.026 2.636.078 5.815.13 7.52.13 7.88.13 7.88.077 0-.05 1.346-9.536 2.51-17.936.206-1.396.44-2.973.516-3.516.053-.54.13-1.007.156-1.007.027-.026.286.026.57.13 2.61.955 6.074 1.033 10.803.232 10.365-1.73 17.085-7.108 19.954-15.947.415-1.32.62-2.17 1.11-4.703.88-4.395 1.06-6.23.83-8.376-.36-3.154-1.604-5.48-3.72-6.98zm-68.83-1.603l-.05 1.526-.053 1.498.983-.956.982-.982 1.085.362c.595.207 1.112.388 1.138.362.026 0-.104-.646-.285-1.396l-.336-1.396.776-1.317c.413-.7.775-1.293.775-1.32 0-.024-.465.027-1.034.105-1.58.232-1.35.336-2.07-.983-.42-.723-.67-1.085-.7-1.034-.05.104-.78 2.74-.78 2.844 0 0-.518.284-1.138.594l-1.137.57.905.78.93.75z"/></svg>