<svg viewBox="0 0 64 64" xmlns="http://www.w3.org/2000/svg" fill-rule="evenodd" clip-rule="evenodd" stroke-linejoin="round" stroke-miterlimit="1.414"><path d="M13.457 58.86L9.33 12.58h45.34l-4.13 46.272L31.973 64l-18.516-5.14zm18.578-5.083l-.027.008-11.626-3.228-.795-8.912h5.697l.404 4.527 6.322 1.707.005-.006 6.33-1.71.662-7.36H25.76l-.115-1.275-.258-2.877-.136-1.523h14.26l.52-5.81H18.31l-.114-1.278-.26-2.877-.134-1.522h28.43l-.135 1.523-1.373 15.402-.02.21-.002.03-.966 10.79-.085.96-11.612 3.22zM25.937 2.465h-4.06V6.17h4.06v2.467H18.99V0h6.947v2.465zm9.415-.096H31.59l3.91 4.243v2.02h-8.06V6.27h3.913L27.44 2.024V0h7.91v2.37zm9.508 0h-3.763l3.914 4.243v2.02h-8.06V6.27h3.916L36.95 2.024V0h7.91v2.37z" fill="#fff"/></svg>