<svg viewBox="0 0 92 128" xmlns="http://www.w3.org/2000/svg" fill-rule="evenodd" clip-rule="evenodd" stroke-linejoin="round" stroke-miterlimit="1.414"><path d="M8.914 117.72L.66 25.16h90.68l-8.26 92.544L45.946 128 8.914 117.72zm37.156-10.166l-.054.016-23.252-6.456-1.59-17.824h11.394l.808 9.054 12.644 3.414.01-.012 12.66-3.42 1.324-14.72H33.52l-.23-2.55-.516-5.754-.272-3.046h28.52l1.04-11.62H18.62l-.228-2.556-.52-5.754-.268-3.044h56.86l-.27 3.046-2.746 30.804-.04.42-.004.06-1.932 21.58-.17 1.92-23.224 6.44-.008.002zM33.874 4.93h-8.12v7.41h8.12v4.934H19.98V0h13.894v4.93zm18.83-.192H45.18L53 13.224v4.04H36.88V12.54h7.826L36.88 4.048V0H52.7v4.74l.004-.002zm19.016 0h-7.526l7.828 8.486v4.04h-16.12V12.54h7.832L55.9 4.048V0h15.82v4.74-.002z"/></svg>