<svg viewBox="0 0 97 128" xmlns="http://www.w3.org/2000/svg" fill-rule="evenodd" clip-rule="evenodd" stroke-linejoin="round" stroke-miterlimit="1.414">
    <path d="M22.399 117.054c0 2.017.083 7.861 6.503 7.861 2.468 0 3.579-.699 4.445-1.235-.248 1.275-.454 2.221-.413 3.703-.74.208-2.1.617-4.897.617-6.296 0-10.04-3.292-10.04-11.645 0-1.974 0-11.276 8.394-11.276 6.09 0 7.036 4.733 7.036 9.548l-.08 2.427H22.399zm12.607 3.828V110.76c0-8.848 0-11.566-1.605-12.224 1.769-.165 3.416-.369 6.09-1.604-.329 3.745-.369 11.069-.369 13.168.617-1.687 1.769-4.979 5.72-4.979 1.974 0 3.826.988 4.977 2.92 1.193 2.059 1.358 5.309 1.358 6.791 0 2.428-.411 5.638-1.605 8.025C47.063 128 42.413 128 40.808 128c-2.512 0-4.609-.369-6.297-1.028.494-1.316.494-3.044.494-6.09h.001zm25.942.288c0 2.593.782 5.184 3.088 6.296 1.028.453 2.056.453 2.387.453 3.786 0 5.061-2.799 5.843-4.527-.042 1.811 0 2.921.124 4.362.74-.042 1.481-.123 2.716-.123.699 0 1.358.081 2.057.123-.453-.699-.699-1.112-.824-2.717-.082-1.563-.082-3.127-.082-5.308l.042-8.395c0-3.128-.824-6.214-6.997-6.214-4.073 0-6.459 1.235-7.653 1.852.495.906.906 1.686 1.276 3.457 1.606-1.399 3.705-2.14 5.843-2.14 3.417 0 3.417 2.264 3.417 5.472-.782-.039-1.441-.121-2.553-.121-5.228.001-8.684 2.014-8.684 7.53zM0 116.316c0 11.603 6.173 11.603 7.078 11.603 2.551 0 4.198-1.399 4.897-3.827l.082 3.662c.783-.042 1.564-.123 2.84-.123.452 0 .822 0 1.152.041.33 0 .658.04 1.029.082-.658-1.316-1.152-4.279-1.152-10.7 0-6.255 0-16.83.534-20.041-1.48.701-2.757 1.154-5.555 1.4 1.111 1.193 1.111 1.811 1.111 7.241-.781-.246-1.769-.534-3.457-.534C1.194 105.121 0 111.54 0 116.316zm95.968 7.364c.042 1.4.042 2.881.617 4.075-.906-.082-1.441-.206-3.127-.206-.988 0-1.523.083-2.305.206.163-.535.248-.741.329-1.441.124-.945.206-4.115.206-5.227v-4.444c0-1.934 0-4.733-.125-5.72-.082-.699-.286-2.591-2.675-2.591-2.345 0-3.127 1.727-3.415 3.127-.328 1.439-.328 3.004-.328 9.094.04 5.268.04 5.76.451 7.201a22.716 22.716 0 0 0-2.797-.163c-.989 0-1.647.04-2.468.163.288-.659.453-.988.534-3.292.084-2.264.248-13.375-.125-16.008-.204-1.606-.617-1.976-1.068-2.387 3.334-.165 4.402-.7 5.432-1.233v4.36c.493-1.277 1.521-4.116 5.638-4.116 5.144 0 5.184 3.745 5.226 6.213v12.389zm-36.88 4.074c-.824-.123-1.401-.206-2.595-.206a22.75 22.75 0 0 0-3.167.206c.411-.782.576-1.154.699-3.827.165-3.663.206-13.458-.082-15.515-.206-1.565-.575-1.811-1.151-2.222 3.373-.33 4.32-.576 5.883-1.316-.328 1.809-.371 2.716-.371 5.472-.081 14.199-.123 15.721.784 17.408zm-12.273-11.358c0 3.827-.699 8.972-5.472 8.972-.659 0-1.482-.125-2.016-.248-.083-1.481-.083-4.033-.083-6.995 0-3.54.369-5.389.659-6.297.863-2.921 2.797-2.961 3.167-2.961 3.128 0 3.745 4.321 3.745 7.529zm25.45-.289h-2.183c-1.562 0-5.019.291-5.019 4.158 0 2.016.533 4.073 3.004 4.073 1.071 0 2.51-.535 3.374-2.388.701-1.439.743-3.25.824-5.843zm-60.332-4.648c-.04.041-.04 6.666-.122 8.395-.082 1.398-.207 4.402-3.169 4.402-3.045 0-3.786-3.498-4.033-5.02-.288-1.687-.288-3.087-.288-3.703 0-1.976.124-7.492 4.774-7.492 1.399 0 2.181.413 2.798.741l.04 2.677zm17.421 2.755c.081-2.922-.164-6.46-3.374-6.46-2.921 0-3.621 3.045-3.663 6.46h7.037zM59.435 99.05l-3.408 3.406-3.407-3.406 3.407-3.407 3.408 3.407zM46.996.634c-.596.325-1.186.594-1.745.986 2.421-.578 2.305.237 4.78-.09-.869.125-1.923.471-1.755.601 2.764.32 3.187-.854 5.746-.001l-.162-.757c3.555 1.282 4.299 1.065 8.162 3.114 1.355.067 1.491-.835 3.538-.001.361.632-.081.75 2.435 2.246.279-.111-.501-.822-1.119-1.388 5.058 2.704 10.554 8.467 12.232 14.635-1.572-2.893-.162 1.476-.703 1.248.701 1.887 1.274 3.838 1.629 5.851-.466-1.651-1.478-5.638-3.252-8.209-.146 1.659-2.289-1.147-1.117 2.507.891 1.295.18-1.313 1.281.988.018 1.093.435 2.179.677 3.602-.376-.061-.841-1.574-1.115-1.152.381 1.791 1.008 2.725 1.247 2.863-.122.3-.44-.28-.462.939.147 2.804.786 1.621 1.089 1.754-.301 1.357-1.499 2.948-.962 5.256l.013.054c-.179-.697-.509-1.396-.759-2.056-.24 2.029.449 2.424-.488 4.881.675-2.215.602-4.215-.034-3.252.282 3.149-2.493 5.566-2.191 7.559l-.807-1.11c-2.184 3.165-.051 1.744-1.536 4.142.545-.942-.286-.388.424-1.455-.472.026-2.103 2.004-3.596 3.167-5.867 4.703-12.87 5.318-19.652 2.786l-.003.003a.618.618 0 0 1-.027.083c.043.344 1.343 1.339 2.328 1.844 2.582.955 5.503.993 7.803.908-4.97 2.079-14.458-2.11-17.561-7.668.7.153 3.106 3.908 4.908 4.516-1.065-.853-1.888-1.938-2.652-3.054 1.439 1.653 3.187 3.002 5.096 3.896-.049-.189.029-.316.078-.442-.004-.034.004-.062.027-.083.036-.158-.025-.334-.48-.641-5.748-4.406-9.146-8.149-7.966-16.817.876-.662 1.11-4.278 3.121-5.543 1.225-2.71 4.899-5.204 8.826-5.268 4.006-.219 7.388 2.141 9.086 4.366-3.091-2.885-8.154-3.761-12.473-1.624-4.415 1.989-7.033 6.851-6.651 11.692.163-.24.31-.091.388-.688-.135 9.41 10.142 16.308 17.539 12.827l.087.196c3.001-.82 2.614-1.495 4.576-2.841-.153.315-1.322 1.123-.625 1.138.954-.254 3.933-3.027 5.4-4.33.672-1.45-.36-.784.579-2.608l1.148-.571c.639-1.844 1.345-2.886 1.265-5.032l-.667 1.413c.986-2.982.418-6.23.557-9.038l-.275-.074c-.241-7.062-6.349-14.569-11.781-17.11-4.685-2.163-11.896-2.535-15.226-.904.458-.406 2.285-.577 1.734-.889-5.215.518-4.049 1.819-8.048 2.839-1.096 1.06 3.2-.849.889.523-2.145.592-3.144-.373-6.322 2.916.283.456 2.017-1.354.571.463-2.988-.369-9.435 6.834-10.805 9.221l.716.123c-1.175 2.945-2.722 4.824-2.931 6.587-.304 4.339-1.819 12.251.284 14.68l-.205 2.03c.288.576.508 1.161.865 1.704l-.467.037c2.212 6.981 2.377.13 5.299 7.38-.424-.143-.852-.299-1.469-1.132-.075.636.899 2.544 2.055 4.033l-.49.559c.644 1.171 1.238 1.428 1.685 1.835-2.405-1.313 2.231 4.325 2.649 5.044l.37-.659c-.055.948.678 2.17 2.051 3.863L34.794 70c.471.933 2.193 2.613 3.239 2.693l-.696.907c2.624.83 1.275 1.101 4.498 2.242l-.651-1.15c1.645 1.428 2.153 2.675 4.474 3.769 3.218 1.122 3.644.677 6.946 1.622-2.799-.078-6.089-.05-8.302-.843-15.099-4.088-28.913-21.801-27.904-40.046-.231-3.693.368-8.309-.247-9.228.863-2.811 1.864-6.238 3.875-10.316-.146-.273.331.799 1.354-.944.619-1.362 1.126-2.862 1.907-4.186l.402-.093c.403-2.339 5.453-5.922 6.956-7.726l.103.69c3.279-3.076 9.124-5.137 12.414-6.606-.864.957 1.936-.094 3.953-.217l-.119.066zM39.66 44.133l-.188.93c.873 1.185 1.566 2.469 2.679 3.393-.801-1.562-1.395-2.208-2.491-4.323zm2.061-.08c-.462-.512-.734-1.126-1.041-1.737.293 1.075.893 2 1.45 2.941l-.409-1.204zm36.486-7.931l-.195.491a23.599 23.599 0 0 1-2.313 7.379 23.274 23.274 0 0 0 2.508-7.87zm-24.062 6.19c-1.327.018.25.682 1.982.95.481-.375.912-.752 1.299-1.119-1.077.263-2.174.27-3.281.169zm7.12-1.775c.793-1.091 1.368-2.285 1.572-3.519-.179.879-.654 1.638-1.105 2.441-2.481 1.562-.235-.927-.002-1.875-2.666 3.36-.368 2.014-.465 2.953zm2.631-6.842c.162-2.389-.47-1.633-.682-.723.247.13.443 1.686.682.723zm-48.142-7.69c.416-1.277.491-2.042.65-2.782-1.149 1.469-.53 1.783-.65 2.782zm2.13-8.746a.504.504 0 0 1-.01-.112c.004.038.008.075.01.112.122.514 1.268-.775.354 1.281-1.767 1.238-.221.549-.354-1.281zM50.525 1.426l-.498.104.464-.042.034-.062zm-1.414-.393c.709.126 1.531.224 1.413.393.778-.171.953-.326-1.413-.393zm.264-.637c.896-.328 2.204-.18 3.158-.396-1.241.104-2.477.166-3.696.321l.538.075z"/>
</svg>
