<svg viewBox="0 0 128 128" xmlns="http://www.w3.org/2000/svg" fill-rule="evenodd" clip-rule="evenodd" stroke-linejoin="round" stroke-miterlimit="1.414"><path d="M63.994 0C99.34 0 128 28.656 128 64c0 35.336-28.66 64-64.006 64C28.654 128 0 99.336 0 64 0 28.656 28.656 0 63.994 0zm0 6.92c-15.76 0-30.026 6.392-40.356 16.72C13.3 33.972 6.906 48.24 6.906 64c0 15.76 6.39 30.03 16.72 40.36 10.332 10.33 24.6 16.72 40.36 16.72 15.764 0 30.034-6.39 40.36-16.72 10.336-10.33 16.72-24.6 16.72-40.36 0-15.76-6.384-30.028-16.72-40.36C94.02 13.312 79.75 6.92 63.986 6.92h.008zm39.226 62.296h9.564v8.052H93.608V49.734h9.61v19.48l.002.002zm-69.5-5.72c0-3.744-2.474-5.856-5.968-5.856h-2.144v11.714h2.088c3.248 0 6.02-1.78 6.02-5.86l.004.002zM71.88 67.7L56.076 80.126 41.63 68.766c-2.084 5.006-7.104 8.496-12.92 8.496H16.37V49.74h12.344c6.488 0 11.154 4.1 12.908 8.5l14.46-11.36 5.36 4.21-13.24 10.41 2.536 1.994 13.24-10.408 5.354 4.208-13.24 10.414 2.54 2 13.252-10.406v-9.56h9.612v19.48h9.566v8.06h-19.18v-9.58l-.002-.002z"/></svg>