<svg viewBox="0 0 128 19" xmlns="http://www.w3.org/2000/svg" fill-rule="evenodd" clip-rule="evenodd" stroke-linejoin="round" stroke-miterlimit="1.414"><path d="M41.27 6.73c-.56.758-1.495 2.074-2.065 2.843-.29.392-.81 1.102.92 1.102h9.115s1.47-2 2.7-3.67C53.617 4.73 52.087 0 46.098 0H22.51l-4.09 5.556h22.29c1.125 0 1.11.428.56 1.174zm-6.696 5.315c-1.73 0-1.21-.71-.92-1.102.57-.77 1.52-2.072 2.08-2.83.55-.746.565-1.174-.56-1.174H24.978L16.765 18.1h20.03c6.615 0 10.298-4.498 11.433-6.054H34.573zm13.03 6.056h11.75l4.454-6.054h-11.75c-.002 0-4.455 6.056-4.455 6.056zM77.92 0l-4.507 6.12H68.17L72.673 0H60.927L53.07 10.675h28.738L89.664 0H77.92zM64.597 18.1h11.746l4.456-6.054H69.052c-.005 0-4.457 6.055-4.457 6.055zM0 14.435v1.286h16.364l.945-1.285H0zm19.068-2.39H0v1.286h18.12l.948-1.284zM0 18.102h14.61l.942-1.278H0v1.28zm110.756-2.38H128v-1.287h-16.297l-.947 1.287zm-1.75 2.38H128v-1.278h-18.055l-.94 1.28zm4.453-6.055l-.946 1.287H128v-1.287h-14.54zm-15.387-1.37L105.933 0h-12.44c-.006 0-7.865 10.675-7.865 10.675h12.446zm-13.453 1.37s-.858 1.174-1.275 1.74c-1.475 1.992-.17 4.316 4.644 4.316h18.862l4.456-6.054H84.62z" fill-rule="nonzero"/></svg>