<svg viewBox="0 0 128 72" xmlns="http://www.w3.org/2000/svg" fill-rule="evenodd" clip-rule="evenodd" stroke-linejoin="round" stroke-miterlimit="1.414"><path d="M128 71.383V0H0v71.383h128zM17.233 62.08c-1.268 0-2.338-.822-2.333-2.125-.015-1.388 1.075-2.035 2.333-2.035 1.267 0 2.266.798 2.27 2.045.007 1.283-1.003 2.116-2.27 2.116zm49.752-2.958c0 .1.136.167.237.182.374.055.39.046.863.116.61.086 1.086.354 1.343.904.137.288.116.697-.09 1.025-.4.62-1.278.71-1.642.72-.525.022-1.767-.04-2.292-.886l.646-.496c.09.076.233.202.324.263.464.354 1.146.338 1.474.24.09-.023.197-.09.222-.14.07-.11.03-.276-.12-.302-.284-.06-.445-.044-1.092-.256-.393-.116-.904-.31-1.156-.83-.15-.302-.147-.726.02-1.03.247-.473.96-.645 1.263-.69.742-.096 1.6.025 2.332.69l-.666.507c-.45-.33-1.12-.36-1.5-.216-.09.045-.16.09-.16.19zm-35.33 0c0 .1.136.167.236.182.38.055.39.046.87.116.61.086 1.09.354 1.347.904.137.288.116.697-.09 1.025-.4.62-1.28.71-1.642.72-.524.022-1.766-.04-2.29-.886l.645-.496c.09.076.234.202.325.263.465.354 1.147.338 1.475.24.09-.023.195-.09.22-.14.07-.11.03-.276-.12-.302-.284-.06-.446-.044-1.09-.256-.395-.116-.906-.31-1.158-.83-.15-.302-.146-.726.02-1.03.248-.473.96-.645 1.264-.69.743-.096 1.6.025 2.333.69l-.67.507c-.45-.33-1.124-.36-1.5-.216-.097.045-.16.09-.16.19zm29.577 0c0 .1.136.167.237.182.37.055.38.046.86.116.61.086 1.08.354 1.34.904.133.288.113.697-.09 1.025-.4.62-1.28.71-1.64.72-.53.022-1.77-.04-2.29-.886l.64-.496c.09.076.233.202.324.263.464.354 1.145.338 1.473.24.09-.023.2-.09.223-.14.07-.11.03-.276-.12-.302-.284-.06-.445-.044-1.092-.256-.39-.116-.9-.31-1.153-.83-.153-.302-.148-.726.02-1.03.246-.473.96-.645 1.26-.69.743-.096 1.6.025 2.333.69l-.666.507c-.454-.33-1.125-.36-1.504-.216-.095.045-.16.09-.16.19zm31.016-1.146v3.16h1.945v.89H90.9v-4.05h1.348zm-34.264 4.05h-3.757v-4.05h3.59v.888H55.57v.763h1.45v.853h-1.45v.702h2.414v.843zm-44.498-3.162H11.24v.763h1.453v.853H11.24v1.545H9.9v-4.05h3.586v.89zm9.22 1.642v1.52h-1.344v-4.05h2.894c.853 0 1.282.51 1.307 1.207.02.565-.323 1.08-.828 1.257l.783 1.585h-1.46l-.656-1.52h-.696zm52.272-1.642h-2.246v.763h1.454v.853h-1.454v1.545h-1.34v-4.05h3.586v.89zm9.21-.888v3.16h1.942v.89h-3.29v-4.05h1.347zm13.246 0v4.05H96.09v-4.05h1.344zm9.466 0v4.05h-1.343v-4.05h1.343zm-60.65 2.676c-.112.656-.707 1.172-1.314 1.338-.176.05-.544.09-.853.09-1.16 0-2.17-.933-2.166-2.13 0-1.156 1.01-2.03 2.156-2.03.384 0 .672.056.863.106.607.152 1.127.607 1.237 1.263l-1.135.12c-.015-.53-.49-.7-.828-.67-.47.01-.823.4-.823 1.23v.09c0 .825.353 1.194.808 1.23.52.03.848-.097.938-.79l1.116.143zm6.122 0c-.112.656-.707 1.172-1.313 1.338-.18.05-.55.09-.86.09-1.16 0-2.17-.933-2.17-2.13 0-1.156 1.01-2.03 2.156-2.03.383 0 .67.056.863.106.605.152 1.125.607 1.236 1.263l-1.136.12c-.013-.53-.49-.7-.826-.67-.47.01-.823.4-.823 1.23v.09c0 .825.354 1.194.81 1.23.52.03.85-.097.94-.79l1.117.143zM17.91 59.475c-.027-.348-.324-.736-.713-.736-.404 0-.666.38-.707.73-.02.21-.065.76-.005 1.1.066.4.34.72.712.72.37 0 .626-.318.686-.73.046-.285.04-.85.026-1.09zm99.168 1.207v-.777h2.095v2.13h-.48l-.332-.434c-.38.37-1.07.48-1.56.48-1.14 0-1.99-1-1.99-2.15 0-1.16 1-2.01 2.16-2.01.31 0 .68.04.86.08.61.17 1.152.61 1.262 1.27l-1.14.12c0-.39-.43-.67-.85-.67-.463 0-.822.26-.822.876v.878c0 .567.415.8.874.8.36 0 .744-.294.744-.546 0-.025-.01-.036-.04-.036h-.767zm-38.023.42c.525 0 .778-.197.778-.536v-2.59h1.04v2.752c0 .873-.475 1.353-1.833 1.353h-.263c-1.358 0-1.832-.48-1.832-1.35v-2.75h1.348v2.6c0 .32.232.53.762.53zm-40.85 0c.525 0 .777-.197.777-.536v-2.59h1.04v2.752c0 .873-.475 1.353-1.833 1.353h-.27c-1.36 0-1.83-.48-1.83-1.35v-2.75h1.35v2.6c0 .32.23.53.76.53zm62.324-3.126l1.01 2.606 1.02-2.606h1.17l-1.6 4.05h-1.39l-1.57-4.066 1.36.016zm11.37 2.19v-2.19h1.04v4.05h-1.12l-1.94-2.323v2.322h-1.035v-4.05h1.216l1.83 2.192zm-89.2-.513h.96c.237 0 .423-.193.423-.425 0-.232-.19-.424-.424-.424h-.96v.85zm46.54-19.085c0 2.177 0 5.985 3.044 5.985 2.34 0 3.157-2.176 3.157-3.754 0-6.91-12.84-8.49-12.84-19.97 0-5.83 3.155-10.56 9.14-10.56 6.366 0 8.815 4.84 8.978 11.802h-6.31c0-2.176 0-5.82-2.83-5.82-1.687 0-2.666 1.413-2.666 3.535 0 6.584 12.842 8.815 12.842 20.08 0 5.93-3.376 10.664-9.74 10.664-7.565 0-9.09-6.64-9.09-11.972h6.313zm15.72-27.533h15.993v5.986h-8.92v9.91h6.583v6.31h-6.58V45.8h9.303v5.985H84.966v-38.75zm-40.14 0h16v5.986H51.9v9.91h6.583v6.31H51.9V45.8h9.304v5.985H44.826v-38.75zm-35.13 0h6.143c11.862 0 13.004 7.618 13.004 19.37 0 11.21-.925 19.372-11.86 19.372H9.69V13.035zm23.33 0h7.08v38.742H33.02V13.035zm71.514 0h7.075v32.757h7.71v5.985h-14.78V13.035zM16.77 45.792c4.462-.055 4.68-1.687 4.68-13.44 0-11.7-.218-13.277-4.68-13.33v26.77zm98.82-30.962c0-.994.84-1.808 1.875-1.808 1.03 0 1.864.814 1.864 1.808 0 1.016-.84 1.83-1.87 1.83-1.04 0-1.88-.814-1.88-1.83zm.355 0c0 .83.675 1.474 1.52 1.474.835 0 1.51-.644 1.51-1.474 0-.803-.675-1.452-1.51-1.452-.845 0-1.52.65-1.52 1.452zm2.452 1.026h-.355l-.598-.938h-.366v.938h-.31V13.82h.913c.18 0 .35.01.51.1.16.086.24.267.24.437 0 .402-.29.55-.66.56l.636.94zm-.98-1.19c.295 0 .697.05.697-.315 0-.26-.232-.29-.495-.29h-.55v.614h.34z"/></svg>