<svg viewBox="0 0 128 54" xmlns="http://www.w3.org/2000/svg" fill-rule="evenodd" clip-rule="evenodd" stroke-linejoin="round" stroke-miterlimit="1.414"><path d="M56.298 19.612c.818-.024 2 1.946 2.036 3.18.037 1.23.333 7.67.415 9.527.08 1.85.02 3.63-.1 4.45-.12.82-.42 1.23-1.83 1.27-1.42.04-2.07-.8-2.19-2.048-.126-1.24-.228-4.77-.167-6.535.062-1.77.144-5.15.374-7.265.23-2.116.8-2.57 1.452-2.587zm14.903-.33c3.37-.1 7.58.335 7.62 1.41.018.63-.31 1.944-2.104 2.125-2.12.215-12.797.67-12.756 1.988.02.696 3.23.852 6.172 1.03 3.023.183 7.88.296 8.028 5.19.112 3.866-1.348 4.68-2.006 4.99-.834.39-3.643 1.456-5.793 1.52-6.484.193-9.16-3.536-9.215-5.43-.05-1.68 1.678-3.172 4.59-3.26 2.907-.085 7.414.965 7.45 2.16.03.97-1.957 1.47-2.837 1.495-3.97.118-3.773-1.496-6.063-1.427-1.306.04-3.13 2.808 3.4 2.615 5.82-.173 7.58-2.09 7.55-3.122-.04-1.364-4.216-2.027-6.634-2.154-2.414-.125-6.037-.108-7.275-.89-1.24-.782-1.064-2.552-.632-4.016.896-3.06 7.155-4.126 10.52-4.225zm11.49 1.265c2.28-.067 7.04 10.24 7.85 10.217.8-.024.207-2.41-.303-5.042-1.147-5.956-2.936-9.027-1.254-9.076 1.24-.038 5.317 3.906 5.547 11.542.103 3.546-.394 8.186-3.606 8.282-3.045.09-6.516-9.528-7.305-9.504-.425.012-.458 5.957-.57 7.75-.118 1.794-.74 2.753-1.738 2.782-1.517.047-2.183-1.406-2.265-4.27-.088-2.863.85-12.598 3.655-12.68zM20.26 24.46c-4.77.354-10.875 1.24-10.825 2.914.05 1.75 4.55 5.107 10.46 7.297.275-3.57.345-7.37.365-10.21zm97.868 8.517c2.874-5.628 5.843-8.833 6.884-8.864 1.81-.055.28 8.127-6.884 8.864zm-6.374 1.444c-2.36 4.65-3.944 9.58-3.833 13.29.13 4.18 2.69 5.737 3.47 5.714.78-.023.82-1.26.96-2.18.8-5.22 2.16-9.84 3.72-13.725.62.156 1.23.23 1.8.21 4.78-.14 10.314-5.85 10.13-11.928-.092-3.21-1.32-5.484-3.374-5.422-3.01.088-7.336 4.635-10.807 10.343-.313-2.316 1.516-5.88 3.07-8.374 1.094-1.75.905-3.833.448-3.82-.633.02-6.797 5.237-6.588 12.392.04 1.392.4 2.56 1.006 3.51zm-5.947-8.29c1.074-.03 2.024-.21 1.93 1.19-.095 1.4-.153 1.96-1.276 1.994l-5.75.17c-.19.64-.68 2.29-.9 2.986-.275.872.6.68 1.728.36 1.127-.324 4.19-.9 5.444-.94 1.26-.037 2.2 1.967 1.477 2.658-.724.69-4.614 3.97-8.673 4.09-1.743.057-4.11-1.466-4.19-4.195-.04-1.446.535-3.384 1.09-4.886-.135-.085-.24-.284-.316-.717-.18-.983-.62-2.06 1.008-2.246.136-.015.296-.03.49-.046l1.348-2.777c-.547-.08-1.02-.2-1.385-.38-.99-.47-1.765-1.69-1.78-2.232-.034-1.198 8.74-1.914 10.773-1.974 2.18-.062 2.8.358 3.495 1.353.7.996.962 1.7.97 1.974.004.27-.247.945-2.883 1.024-1.35.04-3.527.27-5.62.346l-.913 2.425c2.04-.1 3.945-.178 3.945-.178zm-50.01-12.42c.71-1 4.373-5.91 8.156-6.02 1.11-.033 1.403.652 1.428 1.41.04 1.182-2.1 4.634-6.92 4.777-1.053.03-1.94-.047-2.653-.164zm-2.988-1.63c-.09-.143-.17-.373-.18-.73-.03-.79 1.33-3.813 4.76-4.06-.87.6-1.76 1.364-2.63 2.35-.82.92-1.47 1.733-1.958 2.44zM2.78 6.44C1.212 6.48.03 5.793 0 4.833c-.017-.7 1.518-2.892 2.455-3.246C3.095 1.34 6.213.157 11.41 0c1.927-.055 5.2.18 7.96.59 16.084 2.39 32.96 14.65 33.286 25.524.222 7.4-6.173 14.34-18.654 14.71-3.284.1-6.34-.303-9.124-1.035-.06 1.81.074 2.77-2.5 2.85-1.575.044-2.192-2.508-2.422-4.586-7.533-3.34-12.072-8.77-12.136-10.91-.093-3.195 5.708-5.856 12.494-6.91.094-2.64.543-9.37 1.94-9.41.56-.017 1.72 1.283 2.156 3.273.4 1.807.44 5.1.443 5.69l.514-.02c9.524-.28 15.227 2.696 15.334 6.222.08 2.732-2.34 4.13-3.61 4.17-1.26.037-2.75-.684-2.76-1.076-.02-.755 2.71-.93 2.674-2.146-.053-1.835-7.624-2.64-12.287-2.67-.01 1.582-.03 3.49.008 4.774.038 1.23.116 4.413.153 7.07 2.112.446 4.295.69 6.43.626 5.03-.15 16.515-1.984 16.26-10.614C47.2 14.074 23.363 3 10.6 3.38c-5.03.147-8.048.687-8.035 1.18.01.33 2.45.456 2.47 1.107.017.652-1.387.742-2.247.767zm61.69-1.3c-.235-.584-1.02-1.766-3.825-1.682-6.11.18-10.815 4.71-10.71 8.28.034 1.157.594 2.173 1.416 3.006-.21.58-.23.97-.23 1.194.02.62.96 2.255 1.67 2.233.61-.014 1.02-.58 1.6-1.5 1 .385 2 .58 2.78.556 5.75-.17 10.96-5.555 10.86-9-.04-1.584-1.07-3.12-3.552-3.08z"/></svg>