<svg viewBox="0 0 128 58" xmlns="http://www.w3.org/2000/svg" fill-rule="evenodd" clip-rule="evenodd" stroke-linejoin="round" stroke-miterlimit="1.414"><path d="M0 58h128V.548H0V58zm42.493-8.965V19.042l5.993.052v29.94h-5.993zm-15.724 0V43.15s.14.018.43.045c.29.036.54.055.75.055 2.062 0 3.09-1.064 3.09-3.19V18.99l5.885.052v19.88c0 6.742-2.29 10.113-6.868 10.113h-3.29zm-10.96-.002l-.22.002H6.96V10.86h8.37c.165 0 .326.002.484.007h.036c6.008.188 9.01 3.682 9.01 10.473v17.052c0 3.506-.66 6.1-1.983 7.795-1.44 1.853-3.78 2.8-7.023 2.846h-.04zm0-32.37c-.5-.12-1.06-.18-1.68-.18h-1.34v26.93h2.98l.04-.002c2.02-.01 3.024-1.35 3.024-4.01V21.03c0-2.418-1-3.87-3-4.358l-.025-.006zm63.13 32.372V10.86h5.27l7.47 22.81c.307.9.686 2.252 1.146 4.064-.44-2.514-.658-4.227-.658-5.146V10.86h5.514v38.175H92.17l-7.18-21.097c0-.018-.008-.045-.026-.08l-.11-.317c-.503-1.51-.872-2.75-1.107-3.74.442 2.786.658 4.544.658 5.28v19.96h-5.462zm-24.658 0V10.86h5.272l7.47 22.81c.307.9.685 2.252 1.146 4.064-.442-2.514-.657-4.227-.657-5.146V10.86h5.514v38.175h-5.51l-7.185-21.097c0-.018-.01-.045-.027-.08l-.11-.317c-.51-1.51-.878-2.75-1.11-3.74.44 2.786.66 4.544.66 5.28v19.96H54.28zM31.05 17.55h5.885v-6.693H31.05v6.694zm11.46-.05h5.884v-6.695H42.51V17.5zm63.587-5.52c1.516-1.172 3.31-1.76 5.388-1.76 2.64 0 4.758.937 6.335 2.803 1.45 1.703 2.27 3.92 2.488 6.65l-5.76.82c-.19-3.19-1.27-4.785-3.217-4.785-2.1 0-3.14 1.18-3.14 3.542 0 2.217 1.85 5.11 5.54 8.688l.35.342c2.27 2.2 3.83 3.992 4.677 5.362 1.29 2.046 1.93 4.29 1.93 6.732 0 2.73-.847 5.002-2.532 6.814-1.694 1.81-3.893 2.72-6.606 2.72-3.063 0-5.45-1.008-7.18-3.036-1.57-1.866-2.417-4.37-2.56-7.525l5.622-.847c.207 3.785 1.514 5.677 3.91 5.677 1.09 0 1.966-.342 2.624-1.027.66-.685.99-1.577.99-2.667 0-1.992-1.584-4.56-4.756-7.706l-.55-.558c-2.426-2.44-4.084-4.29-4.958-5.55-1.55-2.256-2.327-4.55-2.327-6.897 0-1.67.348-3.188 1.044-4.55h-2.476v-5.07h5.174v1.817z"/></svg>