<svg viewBox="0 0 128 55" xmlns="http://www.w3.org/2000/svg" fill-rule="evenodd" clip-rule="evenodd" stroke-linejoin="round" stroke-miterlimit="1.414"><path d="M66.944 25.297c3.092.008 5.706 1.24 7.52 3.48 2.14 2.892 2.784 6.96 1.66 11.35-2.14 7.975-9.584 14.507-16.596 14.507-3.052 0-5.728-1.232-7.496-3.534-2.193-2.8-2.78-6.96-1.66-11.26 2.14-8.02 9.514-14.547 16.572-14.56h-.028.04-.02l.008.017zm-9.88 27.035c-.856-.376-1.444-1.18-1.766-2.3-1.07-3.16-.16-8.3 2.248-12.96 3.266-6.635 8.994-11.025 11.992-9.473.804.42 1.34 1.12 1.714 2.25 1.016 3.16.106 8.29-2.3 13-3.428 6.69-8.836 11.08-11.886 9.473h-.002zm61.032-26.713c-4.23.16-12.42 3-16.54 13.27-2.2 5.51-1.18 9.1.053 11.183 1.82 2.892 4.76 4.23 6.96 4.5 8.24.91 14.71-9.37 14.93-9.745.21-.32.11-.91-.43-1.23-.59-.32-1.127-.054-1.287.266 0 .054-5.62 8.833-12.15 8.727-2.627-.06-3.857-1.72-4.073-5.3v-.44c0-2.14.696-4.34 1.02-5.14 2.19.16 13.327.54 17.18-7.396.966-2.087.966-4.23-.16-5.94-1.12-1.767-3.21-2.785-5.51-2.785v.02zm7.976 20.55c-1.124 0-1.98.91-1.98 2.14 0 1.18.856 2.09 1.98 2.09 1.072 0 1.928-.9 1.928-2.08 0-1.22-.856-2.14-1.928-2.14v-.01zm0 .212c.91 0 1.714.855 1.714 1.925 0 1.02-.804 1.874-1.714 1.874-.964 0-1.712-.856-1.712-1.874 0-1.07.748-1.925 1.712-1.925zm-.75 3.16h.27V48.42h.428l.8 1.14h.324l-.804-1.12c.214-.05.59-.265.59-.693 0-.38-.108-.48-.32-.64-.16-.11-.376-.11-.752-.11h-.54v2.57l.004-.02zm.27-2.305h.268c.426 0 .8 0 .8.48 0 .27-.266.484-.588.484h-.48v-.964zm-8.995-19.483c1.287-.487 2.36-.38 3.267.26.54.32.912.86 1.02 1.5.16 1.07-.16 3-2.73 6.265-3.44 4.333-9 4.17-10.76 4.065 2.72-7.55 6.58-11.24 9.2-12.1l.003.005zM11.512 12.927c-3.106 1.605-5.408 3.265-7.12 5.03C1.606 20.904 0 24.284 0 27.33c0 .537.106 1.127.16 1.607.64 3.16 1.714 4.766 3.106 5.996 2.784 2.57 5.996 2.785 6.156 2.785.38 0 .76-.268.76-.696 0-.487-.204-.7-.58-.753-.104-.06-2.032-.38-3.8-3-.8-.96-1.55-2.36-1.872-5.41-.64-4.92 3.052-10.72 8.672-13.66 4.065-2.25 9.633-3 14.88-2.2 5.3.91 7.923 2.19 11.14 5.402 3.1 3.16 5.187 8.62 5.187 13.76 0 .265 0 .53-.06.693-.11 2.787-.75 8.033-4.18 12.53-4.068 5.41-10.81 8.14-19.91 8.14-3.85 0-7.44.055-9.85.11C16.88 49 21.372 38.61 24.802 30.85c.967-2.25 1.82-4.23 2.627-5.675 3.69-7.014 7.92-7.28 8.02-7.28.32 0 .59-.32.59-.59 0-.43-.32-.7-.59-.7-.374 0-5.62-.534-11.188 4.714-2.035 1.92-3.8 4.82-5.353 8.503-2.62 6.48-4.82 11.507-6.584 14.94-1.395 2.78-3.107 5.68-5.25 6.74C4.73 52.793 2 52.633 2 52.633c-.055 0-.43 0-.7.27-.16.16-.267.32-.267.64 0 .423.114.69.274.8.268.213.536.213.644.213.05 0 5.14.1 18.09.1 10.98 0 19.12-2.57 24.15-7.6 4.71-4.553 5.67-10.28 5.67-14.24 0-5.78-2.3-11.565-6.26-15.527-4.55-4.61-8.78-6.43-16-7.23-5.402-.54-11.4.53-16.06 2.84l-.03.02zM94.857 26.2c-.16.32-.32.752-.32 1.074 0 .374.16.748.32 1.07.326.374.86.428 1.288.428.054 0 .268 0 .376.108 1.56.536 2.04 2.68 2.15 4.766.05 1.12-.48 4.98-1.07 6.31-3.584 7.82-9.152 13.18-13.17 12.6-.8-.16-1.225-.48-1.493-1.02-.964-1.76.268-5.883 3.105-11.29.8-1.444 4.55-8.83 2.3-12.74-.75-1.39-2.14-2.14-4.12-2.248-5.675-.32-7.87 3.746-7.98 3.96-.103.32-.103.804.27 1.124.537.375.965.107 1.18-.053.053-.11 2.94-3.537 5.62-2.95.266.053.428.16.48.43.91 2.14-2.57 9.37-3.693 11.67-1.07 2.245-3.853 8.88-1.5 12.52 1.073 1.716 3 2.57 5.73 2.62 9.76.27 16.06-14.94 16.92-19.06 0-.16 1.3-5.72-.7-8.56-.64-1.02-1.54-1.55-2.66-1.71-1.926-.265-2.73.54-3 .965l-.02-.02zM59.154 14s4.872 1.82 10.548 4.924c9.156 5.192 16.76 5.14 21.093-.964 2.82-3.96 5.08-8.62 8.88-10.12 0 0-.6-.48-.92-.853-.8-.8-1.93-1.66-3.1-1.715-3.7-.32-6.696 4.552-7.714 3.96-1.5-.8 3-4.656-1.82-8.24-5.51-4.23-17.18 6.476-24.09 4.924 0 0 3.16 3.853 10.71 4.44 3.75.27 3.7 1.125 3.7 1.447.06 3.747-17.29 2.192-17.29 2.192l.01.002z"/></svg>