<svg viewBox="0 0 64 64" xmlns="http://www.w3.org/2000/svg" fill-rule="evenodd" clip-rule="evenodd" stroke-linejoin="round" stroke-miterlimit="1.414"><path d="M33.473 30.977c1.546.004 2.853.62 3.76 1.74 1.07 1.446 1.392 3.48.83 5.675-1.07 3.988-4.792 7.254-8.298 7.254-1.526 0-2.864-.616-3.748-1.767-1.097-1.4-1.39-3.48-.83-5.63 1.07-4.01 4.757-7.274 8.286-7.28h-.014.02-.01zm-4.94 13.518c-.428-.188-.722-.59-.883-1.15-.535-1.58-.08-4.15 1.124-6.48 1.633-3.318 4.497-5.513 5.996-4.737.402.214.67.562.857 1.125.508 1.58.053 4.148-1.15 6.504-1.714 3.346-4.418 5.54-5.943 4.738zM59.05 31.138c-2.115.08-6.21 1.5-8.27 6.638-1.1 2.757-.59 4.55.026 5.594.91 1.446 2.382 2.115 3.48 2.25 4.122.454 7.36-4.685 7.467-4.873.108-.16.055-.455-.213-.615-.294-.16-.562-.027-.642.133 0 .027-2.81 4.417-6.076 4.364-1.313-.03-1.928-.86-2.036-2.65v-.22c0-1.07.348-2.17.51-2.57 1.096.08 6.664.27 8.59-3.698.483-1.044.483-2.115-.08-2.97-.56-.884-1.605-1.393-2.756-1.393zm3.988 10.278c-.562 0-.99.456-.99 1.07 0 .59.428 1.045.99 1.045.536 0 .964-.45.964-1.04 0-.61-.428-1.07-.964-1.07zm0 .108c.455 0 .857.428.857.963 0 .51-.402.937-.857.937-.482 0-.856-.428-.856-.937 0-.535.374-.963.856-.963zm-.375 1.58h.135v-.563h.214l.4.57h.162l-.402-.56c.107-.026.295-.133.295-.347 0-.19-.054-.24-.16-.32-.08-.055-.188-.055-.376-.055h-.27v1.286zm.135-1.152h.134c.213 0 .4 0 .4.24 0 .135-.133.242-.294.242h-.24v-.482zM58.3 32.21c.644-.243 1.18-.19 1.634.13.27.16.456.43.51.75.08.536-.08 1.5-1.365 3.133-1.72 2.168-4.5 2.087-5.38 2.034 1.36-3.774 3.29-5.62 4.6-6.05zM5.756 24.792c-1.553.803-2.704 1.633-3.56 2.516C.803 28.78 0 30.47 0 31.993c0 .268.053.563.08.803.32 1.58.857 2.383 1.553 2.998 1.392 1.285 2.998 1.392 3.078 1.392.19 0 .38-.134.38-.348 0-.243-.102-.35-.29-.376-.052-.027-1.016-.188-1.9-1.5-.4-.48-.775-1.177-.936-2.703-.32-2.46 1.526-5.36 4.336-6.83 2.033-1.127 4.817-1.5 7.44-1.1 2.65.454 3.962 1.097 5.57 2.703 1.55 1.58 2.594 4.31 2.594 6.88 0 .133 0 .266-.026.347-.054 1.393-.375 4.016-2.09 6.264-2.033 2.706-5.405 4.07-9.956 4.07-1.926 0-3.72.028-4.924.054 3.534-1.82 5.78-7.013 7.495-10.894.483-1.124.91-2.114 1.313-2.837 1.844-3.507 3.96-3.64 4.012-3.64.16 0 .295-.16.295-.295 0-.215-.16-.35-.295-.35-.187 0-2.81-.267-5.594 2.357-1.017.96-1.9 2.41-2.676 4.254-1.31 3.24-2.41 5.754-3.292 7.47-.698 1.39-1.554 2.84-2.625 3.37-1.176.644-2.54.563-2.54.563-.028 0-.216 0-.35.135-.08.08-.134.16-.134.32 0 .212.057.346.137.4.134.107.268.107.322.107.025 0 2.57.05 9.046.05 5.49 0 9.56-1.285 12.075-3.8 2.353-2.277 2.835-5.14 2.835-7.12 0-2.89-1.15-5.783-3.13-7.764-2.275-2.303-4.39-3.213-8.003-3.614-2.702-.267-5.7.268-8.03 1.42zM47.43 31.43c-.08.16-.16.376-.16.537 0 .187.08.374.16.535.163.187.43.214.644.214.027 0 .134 0 .188.054.777.268 1.018 1.34 1.072 2.383.026.562-.24 2.49-.536 3.158-1.793 3.91-4.577 6.59-6.585 6.3-.4-.08-.614-.24-.748-.51-.482-.88.134-2.942 1.553-5.646.4-.722 2.275-4.416 1.15-6.37-.374-.696-1.07-1.07-2.06-1.124-2.838-.16-3.935 1.873-3.99 1.98-.052.16-.052.402.135.562.268.188.482.054.59-.026.026-.054 1.47-1.767 2.81-1.473.133.026.214.08.24.214.455 1.07-1.285 4.685-1.847 5.836-.535 1.122-1.927 4.44-.75 6.26.536.858 1.5 1.286 2.865 1.31 4.88.136 8.03-7.47 8.46-9.53 0-.08.65-2.86-.35-4.28-.32-.51-.77-.776-1.33-.856-.963-.132-1.364.27-1.5.483zm-17.852-6.1s2.436.91 5.274 2.462c4.578 2.596 8.38 2.57 10.547-.482 1.41-1.98 2.54-4.31 4.44-5.06 0 0-.3-.24-.46-.427-.4-.4-.965-.83-1.55-.857-1.85-.16-3.348 2.276-3.857 1.98-.75-.4 1.5-2.328-.91-4.12-2.758-2.115-8.593 3.238-12.046 2.462 0 0 1.58 1.927 5.353 2.22 1.875.135 1.848.563 1.848.724.03 1.874-8.643 1.097-8.643 1.097z" fill="#fff"/></svg>