<svg viewBox="0 0 128 35" xmlns="http://www.w3.org/2000/svg" fill-rule="evenodd" clip-rule="evenodd" stroke-linejoin="round" stroke-miterlimit="1.414"><path d="M79.312 12.288v19.228h3.94v-5.914c.44.466 1.168 1.252 2.744 1.252 4.58 0 4.876-5.536 4.876-7.574 0-2.42-.468-4.66-1.87-6.09-.7-.68-1.78-1.1-2.74-1.1-1.94 0-2.74 1.44-3.24 2.36v-2.16h-3.7l-.01-.002zm-7.026-.32c-4.29 0-5.866 3-5.866 7.486 0 4.634 1.692 7.488 5.84 7.488 4.2 0 5.866-2.884 5.866-7.488 0-4.486-1.576-7.488-5.84-7.488v.002zm38.24 0c-4.294 0-5.87 3-5.87 7.486 0 4.634 1.694 7.488 5.84 7.488 4.2 0 5.866-2.884 5.866-7.488 0-4.486-1.56-7.488-5.82-7.488l-.016.002zm-67.34 14.68h5.108c1.49 0 3.59 0 5.314-1.34 2.1-1.6 3.18-4.86 3.18-8.504 0-9.56-6.04-9.586-9.02-9.586h-4.58V26.65l-.002-.002zm15.072-14.36v14.36h3.98v-6.2c0-1.11 0-4.432 2.946-4.432.146 0 .32 0 .67.06v-3.904c-.2-.06-.406-.088-.7-.088-2.334 0-3.034 2.446-3.386 3.67v-3.466h-3.52.01zM96 17.358c0-.73 0-1.46.468-2.012.29-.38.76-.62 1.28-.62 1.14 0 1.754.96 1.754 4.74 0 3.7-.54 4.688-1.8 4.688-1.684 0-1.684-1.86-1.684-3.496v-3.32l-.018.02zm-23.72-2.594c1.23 0 1.696.99 1.696 4.69 0 3.846-.526 4.692-1.694 4.692-1.18 0-1.72-.88-1.72-4.7 0-3.52.42-4.7 1.7-4.7h.036l-.018.018zm38.24 0c1.226 0 1.692.99 1.692 4.69 0 3.846-.524 4.692-1.692 4.692-1.2 0-1.724-.88-1.724-4.7 0-3.52.41-4.7 1.694-4.7h.03v.018zm-27.272 3.292c0-1.28 0-3.32 1.81-3.32 1.54 0 1.66 2.008 1.66 4.544 0 3.03-.16 4.808-1.78 4.808-1.7 0-1.7-1.224-1.7-3.294v-2.74l.01.002zm-35.8-7.488h.73c1.72 0 4.08.204 4.08 6.176 0 6.352-2.4 6.556-4.1 6.556h-.732V10.568h.022zm68.76 1.72l3.706 7.02-4.26 7.34h3.472l2.42-4.308 2.104 4.31H128l-4.292-8.04 3.708-6.32h-3.476l-1.836 3.32-1.548-3.32h-4.35l.002-.002zM92.06 7.218V26.65h2.366c.32-1 .468-1.3.76-1.86.35.74 1.02 2.16 3.328 2.16.76 0 1.548-.14 2.336-.54 2.626-1.368 2.8-5.68 2.8-7.02 0-3.468-1.108-7.28-4.64-7.28-1.72 0-2.51.928-3.006 1.54V7.23h-3.94l-.004-.012zM18.8 21.598l-7.75 6.434-3.32-2.166v2.42l11.07 6.642 11.08-6.64v-2.42l-3.32 2.16-7.76-6.43zm-.02-1.388l7.732 6.46 11.048-7.202-7.64-6.116-11.14 6.88v-.022zM7.64 13.35l11.14 6.88-7.73 6.44L0 19.448l7.64-6.116L0 7.212 11.05 0l7.73 6.452-11.14 6.88v.018zm29.92-6.12L26.512.022 18.78 6.468l11.14 6.88 7.64-6.12v.002z"/></svg>