<svg viewBox="0 0 64 64" xmlns="http://www.w3.org/2000/svg" fill-rule="evenodd" clip-rule="evenodd" stroke-linejoin="round" stroke-miterlimit="1.414"><path d="M39.656 29.41v9.614h1.97v-2.957c.22.233.584.626 1.372.626 2.29 0 2.438-2.768 2.438-3.787 0-1.21-.234-2.33-.935-3.045-.35-.34-.89-.55-1.37-.55-.97 0-1.37.72-1.62 1.18v-1.08h-1.85zm-3.513-.16c-2.145 0-2.933 1.5-2.933 3.743 0 2.317.846 3.744 2.92 3.744 2.1 0 2.933-1.442 2.933-3.744 0-2.243-.788-3.744-2.92-3.744zm19.12 0c-2.147 0-2.935 1.5-2.935 3.743 0 2.317.847 3.744 2.92 3.744 2.1 0 2.933-1.442 2.933-3.744 0-2.243-.78-3.744-2.91-3.744zm-33.67 7.34h2.554c.745 0 1.795 0 2.657-.67 1.05-.8 1.59-2.43 1.59-4.252 0-4.78-3.02-4.793-4.51-4.793h-2.29v9.716zm7.536-7.18v7.18h1.99v-3.1c0-.555 0-2.216 1.473-2.216.073 0 .16 0 .335.03v-1.952c-.1-.03-.203-.044-.35-.044-1.167 0-1.517 1.223-1.693 1.835V29.41h-1.76zM48 31.945c0-.365 0-.73.234-1.006.145-.19.38-.31.64-.31.57 0 .877.48.877 2.37 0 1.85-.27 2.344-.9 2.344-.842 0-.842-.93-.842-1.748v-1.66zm-11.86-1.297c.615 0 .848.495.848 2.345 0 1.923-.263 2.346-.847 2.346-.59 0-.86-.44-.86-2.35 0-1.76.21-2.35.85-2.35h.018zm19.12 0c.613 0 .846.495.846 2.345 0 1.923-.262 2.346-.846 2.346-.6 0-.862-.44-.862-2.35 0-1.76.205-2.35.847-2.35h.015zm-13.636 1.646c0-.64 0-1.66.905-1.66.77 0 .83 1.004.83 2.272 0 1.515-.08 2.404-.89 2.404-.85 0-.85-.612-.85-1.647v-1.37zm-17.9-3.744h.365c.86 0 2.04.102 2.04 3.088 0 3.176-1.2 3.278-2.05 3.278h-.366V28.55zm34.38.86l1.853 3.51-2.13 3.67h1.736l1.21-2.154 1.052 2.155H64l-2.146-4.02 1.854-3.16H61.97l-.918 1.66-.774-1.66h-2.175zM46.03 26.875v9.716h1.183c.16-.5.234-.65.38-.93.175.37.51 1.08 1.664 1.08.38 0 .774-.07 1.168-.27 1.313-.684 1.4-2.84 1.4-3.51 0-1.734-.554-3.64-2.32-3.64-.86 0-1.255.464-1.503.77v-3.21h-1.97zM9.4 34.065l-3.875 3.217-1.66-1.083v1.21L9.4 40.73l5.54-3.32V36.2l-1.66 1.08-3.88-3.215zm-.01-.694l3.866 3.23L18.78 33l-3.82-3.058-5.57 3.44zm-5.57-3.43l5.57 3.44-3.865 3.22L0 32.99l3.82-3.058L0 26.872l5.525-3.606 3.865 3.226-5.57 3.44zm14.96-3.06l-5.524-3.604L9.39 26.5l5.57 3.44 3.82-3.06z" fill="#fff"/></svg>