<svg viewBox="0 0 128 128" xmlns="http://www.w3.org/2000/svg" fill-rule="evenodd" clip-rule="evenodd" stroke-linejoin="round" stroke-miterlimit="1.414"><path d="M128 123.594c0 2.434-1.98 4.406-4.42 4.406H4.416C1.976 128 0 126.028 0 123.594V4.404C0 1.972 1.976 0 4.416 0H123.58c2.44 0 4.42 1.97 4.42 4.4v119.194zM9.008 104.784V23.916h16.856c4.626.03 8.344 3.756 8.344 8.384v64.1c0 4.646-3.746 8.384-8.4 8.384h-16.8zm75.6 0c-4.66 0-8.4-3.74-8.4-8.384V65.484c0-4.646 3.74-8.386 8.4-8.386h8.4v-8.72H78.02V40H93c4.66 0 8.4 3.74 8.4 8.386v56.404H84.604l.004-.006zm25.2 0V23.24h.052c2.246.126 4.272 1.03 5.848 2.492 1.592 1.472 2.5 3.624 2.5 5.886v73.16h-8.4v.006zm-25.2-39.3V96.4h8.4V65.484h-8.4zm-32.88 39.3c-4.652 0-8.4-3.74-8.4-8.384V39.996h8.4V96.4h7.68V39.996h8.404V96.4c0 4.646-3.754 8.384-8.404 8.384h-7.68zM17.408 32.3v64.1h8.4V32.3h-8.4z"/></svg>