<svg viewBox="0 0 64 64" xmlns="http://www.w3.org/2000/svg" fill-rule="evenodd" clip-rule="evenodd" stroke-linejoin="round" stroke-miterlimit="1.414"><path d="M64 61.797C64 63.014 63.01 64 61.79 64H2.208C.988 64 0 63.014 0 61.797V2.202C0 .986.988 0 2.208 0H61.79C63.01 0 64 .985 64 2.2v59.595zM4.504 52.392V11.958h8.428c2.313.015 4.172 1.878 4.172 4.192V48.2c0 2.323-1.873 4.192-4.2 4.192h-8.4zm37.8 0c-2.33 0-4.2-1.87-4.2-4.192V32.742c0-2.323 1.87-4.193 4.2-4.193h4.2v-4.36H39.01V20h7.49c2.33 0 4.2 1.87 4.2 4.193v28.202h-8.398zm12.6 0V11.62h.026c1.123.063 2.136.515 2.924 1.246.796.736 1.25 1.812 1.25 2.943v36.58h-4.2zm-12.6-19.65V48.2h4.2V32.742h-4.2zm-16.44 19.65c-2.326 0-4.2-1.87-4.2-4.192V19.998h4.2V48.2h3.84V19.998h4.202V48.2c0 2.323-1.877 4.192-4.202 4.192h-3.84zM8.704 16.15V48.2h4.2V16.15h-4.2z" fill="#fff"/></svg>