<svg viewBox="0 0 128 14" xmlns="http://www.w3.org/2000/svg" fill-rule="evenodd" clip-rule="evenodd" stroke-linejoin="round" stroke-miterlimit="1.414"><path d="M54.89 5.977l-.29-.07-.02-.006c-.66-.16-1.1-.28-1.1-.57 0-.1.03-.17.09-.23.12-.12.365-.19.695-.19.06 0 .114.02.172.02h.056c.61.06 1.34.32 2.08.82l-.113-2.08-.14-.044-.02-.01c-.01 0-.09-.03-.32-.08-.14-.03-.86-.186-1.29-.216-.14-.01-.28-.02-.41-.02-1.58 0-2.5.75-2.6 2.11-.052.68.28 1.34.85 1.69.508.3 1.26.54 1.81.7l.126.04c.34.11.74.32.68.735-.024.22-.11.45-.76.45-.09 0-.192 0-.306-.015-.45-.04-.974-.3-1.55-.76-.02-.02-.04-.04-.06-.04l-.36-.28-.36-.28.14 2.653.14.04.024.01.32.08c.24.056 1.02.19 1.42.22.128.01.26.016.39.016 1.72 0 2.86-.86 2.892-2.187.034-1.28-.7-2.12-2.17-2.49l-.016-.013zm66.512 0l-.28-.07-.02-.006c-.666-.16-1.12-.28-1.12-.57 0-.1.04-.17.096-.23.12-.12.368-.182.7-.182.054 0 .112.02.168.02h.052c.614.06 1.34.32 2.086.82l-.12-2.086-.14-.046-.02-.007c-.012 0-.092-.03-.324-.08-.14-.03-.86-.19-1.292-.22-.14-.012-.28-.02-.406-.02-1.58 0-2.5.75-2.6 2.11-.05.68.286 1.34.85 1.69.508.3 1.26.54 1.814.7l.12.04c.346.11.74.32.688.735-.028.22-.112.45-.76.45-.094 0-.196 0-.31-.012-.448-.04-.97-.3-1.548-.76-.026-.02-.044-.04-.06-.04l-.354-.28-.374-.28.148 2.657.13.043.028.008.32.08c.24.057 1.02.19 1.42.22.126.01.26.017.39.017 1.726 0 2.86-.86 2.896-2.185.032-1.28-.7-2.12-2.174-2.49l-.004-.013zm-10.94.99c0 2.092-1.66 3.67-3.86 3.67-2.22 0-3.84-1.524-3.84-3.62 0-2.134 1.6-3.68 3.82-3.68 2.22 0 3.896 1.56 3.896 3.63h-.016zm-66.5-.006c0 2.1-1.66 3.67-3.88 3.67-2.22 0-3.84-1.52-3.84-3.62 0-2.13 1.615-3.68 3.82-3.68 2.22 0 3.9 1.56 3.9 3.63zm-36.182 0c0 .83-.264 1.64-.74 2.22-.2.26-.46.5-.76.7-.7.47-1.344.647-2.384.647H.178l.16-.09c0-.02.46-.28.672-.4.206-.14.29-.26.29-.68v-4.1c0-.46-.12-.58-.3-.7C.1 3.87.02 3.11.02 3.077L0 2.99l.088.05c.004 0 .308.193.644.27.392.09.926.105 2.054.105h1.44v.004c.71.02 1.23.16 1.74.42 1.146.6 1.83 1.76 1.83 3.1l-.016.01zm74.56 0c0 .83-.267 1.64-.74 2.22-.205.26-.46.5-.76.7-.7.47-1.35.647-2.387.647h-3.7l.156-.09c0-.02.46-.28.67-.4.2-.14.29-.26.29-.68v-4.1c0-.46-.12-.58-.3-.7-.92-.68-.99-1.44-.99-1.477l-.02-.1.08.054s.3.2.64.277c.39.09.922.107 2.05.107h1.42v.003c.71.024 1.23.16 1.74.42 1.144.6 1.83 1.76 1.83 3.1l.012.026zm13.58 3.09l.6.47H92.8s.313-.3.455-.45c.12-.12.188-.25.096-.47l-.11-.312h-2.56l-.12.314c-.1.255-.08.327.06.465.16.15.54.46.54.46h-3.88l-1.78-2.15-.002-.02h-.004c-.192-.273-.34-.42-.474-.497-.02-.01-.05-.02-.11-.037v1.51c0 .446.1.526.3.686.22.163.84.485.84.485H81.9s.64-.353.84-.487c.18-.12.293-.234.293-.68V4.61c0-.44-.094-.577-.294-.7l-.63-.395-.15-.092h3.374c.652.01.912.03 1.272.14.863.247 1.4.97 1.4 1.88 0 .425-.12.82-.34 1.14-.17.25-.397.455-.655.6.74.99 1.33 1.73 1.69 2.125.02-.04 2.144-5.168 2.144-5.168.01-.04.012-.074.012-.1 0-.04 0-.08-.108-.18l-.5-.46h2.79l2.34 5.936c.065.146.08.18.15.28.1.15.134.2.396.406l-.02.027zm-22.8.79c0 1.01-1.01 1.8-2.147 1.64.29.27.994.46 1.37.29-.212.39-1.24.94-2.22.68-.908-.242-1.306-1.112-1.33-1.664-.43.43-.314 1.13-.008 1.408-.352-.09-.888-.46-.98-1.12-.08-.57.24-1.22-.352-1.743-.354-.312-.894-.76-1.244-1.034-.73-.58-.45-1-.62-1.3-.12-.24-.43-.38-.62-.58-.18-.22-.17-.54-.07-.72-.04.26.15.44.39.52.27.082.5.01.73.142.28.16.14.593.35.747.18.14.63-.047 1.02.263S68.64 9.39 69.01 9.7c.67.553 1.36-.08 1.13-.707.68.4.75 1.527.186 1.92.536.12 1.496-.12 1.496-.89 0-.47-.432-.803-.744-.86 1.09-.1 2.05.67 2.05 1.66l-.01.017zm-43.54-.73c0-.02-.11-.16-.17-.24-.054-.1-.086-.16-.086-.46V7.49c0-.29.026-.34.08-.43.06-.097.16-.237.16-.24l.04-.04-.048-.03c-.006 0-.14-.075-.286-.09h-3.02l.154.1.64.387c.194.12.294.26.294.68v1.04c-.236.076-.46.108-.74.108-1.216 0-1.834-.66-1.834-1.952 0-1.24.68-1.94 1.86-1.94.74 0 1.51.166 2.46.88V5.91l-.22-2.05-.02-.15-.148-.035-.15-.034c-.63-.14-.88-.18-1.252-.23-.22-.02-.34-.04-.616-.04h-.12c-2.22 0-3.832 1.56-3.832 3.7 0 2.11 1.62 3.64 3.846 3.64.384 0 1.14-.07 1.61-.17.1-.02.14-.032.22-.05l.046-.013c.266-.066.54-.134.812-.22l.344-.106-.04-.06.016.02zm78.842-3.14c0-1.16-.74-1.92-1.88-1.92-1.086 0-1.766.74-1.766 1.96 0 1.16.72 1.92 1.83 1.92 1.068 0 1.82-.82 1.82-1.97l-.004.014zm-6.24 2.84c-.06-.1-.088-.16-.088-.46V7.43c0-.29.026-.347.08-.433.06-.094.164-.234.166-.236l.03-.04-.054-.03c-.008-.008-.14-.08-.288-.09h-3l.15.092.64.4c.194.12.294.26.294.68v1.04c-.225.074-.457.106-.73.106-1.22 0-1.83-.66-1.83-1.947 0-1.23.673-1.94 1.85-1.94.742 0 1.516.17 2.458.88v-.05l-.22-2.05-.02-.15-.14-.035-.146-.032c-.63-.14-.88-.18-1.252-.226-.22-.03-.34-.04-.62-.04h-.12c-2.215 0-3.827 1.55-3.827 3.69 0 2.104 1.62 3.634 3.85 3.634.388 0 1.14-.07 1.613-.17l.212-.05c.02 0 .034-.01.05-.013.264-.065.54-.133.81-.22l.34-.103-.04-.06s-.11-.14-.17-.233l.002.013zM41.9 6.95c0-1.16-.737-1.91-1.875-1.91-1.092 0-1.77.75-1.77 1.96 0 1.165.72 1.92 1.828 1.92 1.07 0 1.82-.81 1.82-1.97H41.9zm-36.194.017c0-1.16-.6-1.826-1.64-1.826h-.8v3.647h.8c1.04 0 1.64-.66 1.64-1.82zm74.553 0c0-1.16-.6-1.826-1.64-1.826h-.8v3.647h.8c1.04 0 1.64-.66 1.64-1.82zm-14.16 2.7c-.4.664-1.22 1.52-2.05 1.52-1.54 0-2.32-2.174-.6-3.96-.1-.03-.2-.034-.22-.034-.16 0-.3.04-.397.1l-.76.66.22-1.06c.01-.04.023-.07.04-.11-.38.196-.753.46-.895.618l-.69.75.065-1.06.05-.23c.04-.162.08-.37.052-.434-.01-.02-.025-.034-.045-.05-.32.25-1.18 1.018-1.286 2.156 0 0 .17-.24.32-.297.095-.036.18.012.087.3-.04.108-.88 2.392.78 3.972 0 0-.18-.465-.073-.607.052-.07.12-.075.22.047.07.094.142.184.224.274.134.156.286.304.45.43.5.35 1.18.63 1.94.63 2.04 0 3.133-1.4 3.737-2.583-.025-.032-.045-.07-.083-.1-.31-.272-.76-.644-1.1-.92l.01-.014zm61.9-4.19c0 1.176-.773 2.166-2.147 2.166-1.368 0-2.14-.994-2.14-2.17 0-1.172.772-2.16 2.14-2.16 1.374 0 2.146.988 2.146 2.16v.004zm-35.354 2.12l-.64-1.744-.694 1.74h1.334v.004zm33.207-.396c1.04 0 1.624-.76 1.624-1.72s-.6-1.72-1.64-1.72c-1.036 0-1.62.76-1.62 1.72 0 .97.584 1.73 1.62 1.73h.016zm.52-1.42c.804-.18.64-1.4-.334-1.4h-1.053v2.2h.584V5.9h.205l.524.684h.625v-.13l-.55-.673h-.002zm-40.317-.32c0-.36-.24-.603-.92-.605h-.24v1.64h.22c.448 0 .92-.1.92-1.05l.02.016zm-62.84-2.02h-4l.147.095c.004 0 .388.22.624.38.214.14.296.24.296.7v1.72l-2.966-2.9h-4.66c-.14 0-.284.08-.292.085l-.048.027.036.045s.1.14.16.235c.04.08.06.136.08.32V7.8c-.02.76-.36 1.15-1.08 1.15-.728 0-1.1-.4-1.1-1.187V4.15c.008-.192.034-.24.08-.314.06-.092.16-.232.164-.234l.032-.045-.05-.026c-.01 0-.16-.08-.295-.08H7.378l.15.1c.004 0 .388.24.626.4.216.14.3.24.3.7v2.92c0 .646.08 1.16.22 1.5.106.24.27.468.5.7.614.6 1.38.89 2.35.89 1.346 0 2.4-.61 2.824-1.623.16-.392.216-.746.216-1.406V4.65c0-.46.08-.56.296-.7l.44-.27c.12.08.276.185.38.267.2.154.3.3.3.76v4.66c0 .46-.08.558-.286.68-.226.14-.666.398-.668.4l-.16.094h4.028l-.16-.093c-.008 0-.454-.26-.67-.396-.2-.12-.29-.22-.29-.68V6.54l4.304 4.207v-6.13c0-.456.076-.55.294-.7.24-.16.676-.388.68-.392l.18-.1-.016.008zm28.724 0h-4l.15.095c.01 0 .39.22.62.38.22.14.3.24.3.7v1.72l-2.96-2.9h-2.36l.14.085c.007 0 .37.234.575.386.2.148.3.3.3.76v4.68c0 .46-.08.55-.296.68-.23.14-.67.39-.67.39l-.16.095h4.03l-.16-.093c-.01 0-.455-.26-.67-.394-.2-.12-.295-.22-.295-.68V6.52l4.32 4.23V4.62c0-.455.08-.55.3-.7.237-.16.675-.387.68-.39l.18-.1-.02.007zm66.52 0h-4l.148.095c.007 0 .39.22.627.38.214.14.296.24.296.7v1.72l-2.963-2.9h-2.34l.14.087c.005 0 .367.24.575.39.2.15.3.3.3.76v4.68c0 .46-.08.554-.286.68-.226.14-.666.394-.672.4l-.16.1h4.03l-.16-.1s-.45-.26-.665-.392c-.208-.12-.296-.225-.296-.68V6.53l4.297 4.217v-6.13c0-.456.08-.55.295-.7.24-.16.677-.388.68-.392l.185-.1-.025.008zM65.82 6.26l-.07-.22c-.007-.02-.175-.552-.74-.76l-.31-.116.093.32c.08.27.22.774.8.774h.226v.003zM34.253 8.8h-1.608V7.76h1.51c.2 0 .41-.007.53.053.14.068.24.214.24.214l.07.1V5.86l-.06.035s-.1.06-.18.094c-.07.04-.12.06-.44.06h-1.66v-.9h1.68c.425 0 .52.04.76.21l.415.31-.22-2.247h-5.67l.147.1c.004 0 .39.24.62.4.216.14.3.24.3.7v4.72c0 .46-.072.544-.29.68-.22.134-.68.392-.68.394l-.16.092h5.88l.52-2.366s-.475.34-.61.426c-.26.16-.467.22-1.1.22h.007zm27.365-3.84c.07-.265-.45-.71-.64-.795.71-.04 1.065.1 1.065.1-.186-.276-.246-.696-.14-1.02.388.92 1.776 1.08 2.12 1.846-.05-.33-.364-.71-.73-.92-.2-.51-.052-1.44.188-1.7-.08 1.346 1.84 2.11 2.24 3.09-.224-.835-1.12-1.363-1.54-1.865-.14-.33-.034-.894.12-1.086-.05.9.924 1.6 1.444 2.1.614.6.79 1.12.706 1.55.135.035.32.165.29.385.193-.05.393-.274.44-.41.095.67-.297 1.38-.737 1.59 0 0 .12-.32-.08-.56-.2-.248-.76-.25-.96-.236 0 0 .23-.34.14-.52-.118-.214-1.216-.12-1.708.06.165-.02.56.024.7.08-.08.12-.28.6-.133.746.13.14.31-.1.31-.1s-.18.538-.056.66c.12.12.395.04.395.04-.17.41-.81.7-1.253.7.16-.05.42-.34.46-.5-.12.056-.42.088-.54.068.15-.06.44-.427.34-.843-.12-.61-.98-.686-1.4-.392.14-.41.55-.793.88-.92-.192-.065-.42-.12-.654-.163.278-.225.96-.407 1.31-.387-.53-.14-1.504.03-1.95.56.14 0 .51.067.654.11-.61.115-1.44.68-1.69.953.074-.36.17-.654.08-.87-.11-.3-.48-.422-1.2-.274.49-.49 1.49-.792 1.56-1.06l-.024-.006zm64.408-.06c.34 0 .34.5 0 .5h-.47v-.5h.47zm-55.287.727c-1.53.068-2.84 1.36-3.51 2.28.12.04.24.1.36.19.14.114.36.28.58.468.18-.4.59-1.22 1.213-1.94.572-.654 1.57-.72 2.09-.32.34-.3 1.5-.59 2.112-.416-.373-.41-1.16-.95-2.037-.95-.72 0-1.127.35-1.23.19-.13-.2.49-.5.49-.5-.85.04-1.47 1.03-1.727.91-.15-.078.235-.56.235-.56-.78.45-1.428 1.41-1.56 1.99.72-.88 2.106-1.507 3.01-1.375l-.03.022zm-9.24-1.82c-.03-.23-.01-.466.06-.68l.3-.928.37.9c.1.26.34.45.6.63-.03-.42.048-.9.204-1.24-.034-.7.45-1.22 1.024-1.22.983 0 1.25 1.2.79 2.05.21.32.533.62.82.872.1.1.2.18.283.266.03.026.04.05.07.08.42-.58.74-1.39.74-2 0-1.27-.82-2.448-2.54-2.54-1.09-.06-1.82.28-2.37.834-.246.258-.796.896-.69 2.05.04.436.19.74.32.938l.01-.02z"/></svg>