<svg viewBox="0 0 64 64" xmlns="http://www.w3.org/2000/svg" fill-rule="evenodd" clip-rule="evenodd" stroke-linejoin="round" stroke-miterlimit="1.414"><path d="M27.445 31.615l-.144-.035-.01-.003c-.33-.08-.55-.143-.55-.287 0-.05.014-.087.044-.115.06-.06.183-.094.348-.094.03 0 .057.01.086.01h.028c.305.03.67.16 1.04.41l-.056-1.043-.07-.023-.01-.004c-.006 0-.046-.014-.16-.04-.07-.015-.43-.093-.648-.108-.07-.005-.14-.01-.204-.01-.79 0-1.25.376-1.3 1.056-.027.34.14.67.424.845.254.15.63.27.906.35l.063.02c.17.055.37.16.34.367-.012.11-.055.225-.38.225-.045 0-.096 0-.153-.006-.225-.02-.486-.15-.775-.38-.01-.01-.02-.02-.03-.02l-.18-.14-.18-.14.07 1.327.07.022.013.004.16.04c.12.027.51.095.71.11.064.004.13.007.195.007.86 0 1.43-.43 1.446-1.092.017-.64-.35-1.06-1.085-1.246zm33.256 0l-.14-.035-.01-.003c-.333-.08-.56-.143-.56-.287 0-.05.02-.087.048-.116.06-.06.184-.093.35-.093.027 0 .056.01.084.01h.026c.307.03.67.16 1.043.41l-.06-1.043-.07-.023-.01-.004c-.006 0-.046-.014-.162-.04-.07-.015-.43-.093-.646-.108-.07-.006-.14-.01-.203-.01-.79 0-1.25.376-1.3 1.056-.025.34.143.67.425.845.254.15.63.27.907.35l.06.02c.173.055.37.16.344.367-.014.11-.056.225-.38.225-.047 0-.098 0-.155-.006-.224-.02-.485-.15-.774-.38-.013-.01-.022-.02-.03-.02l-.177-.14-.187-.14.074 1.327.065.022.014.004.16.04c.12.027.51.095.71.11.063.004.13.007.195.007.863 0 1.43-.43 1.448-1.092.016-.64-.35-1.06-1.087-1.246zm-5.47.495c0 1.046-.83 1.835-1.93 1.835-1.11 0-1.92-.762-1.92-1.81 0-1.067.8-1.84 1.91-1.84 1.11 0 1.948.78 1.948 1.815zm-33.25-.003c0 1.046-.83 1.835-1.94 1.835-1.11 0-1.92-.76-1.92-1.81 0-1.067.808-1.84 1.91-1.84 1.11 0 1.95.78 1.95 1.815zm-18.09-.002c0 .412-.132.818-.37 1.11-.1.13-.23.248-.38.348-.35.235-.672.322-1.192.322H.09l.08-.046c0-.01.23-.14.336-.2.103-.07.145-.13.145-.34v-2.05c0-.23-.06-.29-.15-.35-.45-.34-.49-.72-.49-.738l-.01-.04.044.026c.002 0 .154.096.322.135.196.045.463.052 1.027.052h.72v.002c.355.014.615.08.87.212.573.3.915.88.915 1.55zm37.28 0c0 .412-.134.818-.37 1.11-.103.13-.23.248-.38.348-.35.235-.675.322-1.194.322h-1.85l.078-.046c0-.01.23-.14.336-.2.102-.07.144-.13.144-.34v-2.05c0-.23-.06-.29-.15-.35-.456-.34-.494-.72-.495-.738l-.007-.05.04.028s.152.1.32.138c.195.045.463.052 1.026.052h.71v.002c.354.013.615.08.87.21.573.3.915.88.915 1.55zm6.79 1.545l.3.235H46.4s.157-.15.228-.225c.06-.064.094-.128.048-.238l-.057-.157h-1.28l-.06.157c-.05.127-.04.163.03.232.08.076.27.23.27.23h-1.94l-.893-1.075-.002-.01h-.002c-.096-.136-.17-.21-.237-.248-.01-.005-.026-.01-.055-.018v.755c0 .222.05.262.15.342.11.082.42.243.42.243h-2.07s.32-.176.42-.243c.09-.06.147-.116.147-.34v-2.36c0-.22-.047-.288-.147-.35l-.313-.197-.073-.046h1.688c.326.004.456.014.636.07.432.123.7.484.7.94 0 .212-.06.41-.17.57-.085.124-.198.227-.327.3.37.495.664.864.844 1.062.01-.02 1.073-2.584 1.073-2.584.004-.02.006-.037.006-.05 0-.02 0-.04-.054-.09l-.25-.23h1.396l1.17 2.968c.033.073.04.09.076.14.05.075.067.1.198.203zm-11.4.395c0 .505-.505.9-1.074.82.145.135.497.227.685.142-.106.194-.62.47-1.11.34-.454-.122-.653-.557-.665-.833-.215.215-.157.566-.004.704-.176-.046-.444-.23-.49-.56-.04-.286.12-.61-.176-.872-.177-.156-.447-.38-.622-.517-.363-.29-.224-.5-.31-.65-.06-.12-.214-.19-.31-.29-.09-.11-.085-.27-.033-.36-.017.13.074.22.196.26.135.042.25.005.364.072.14.08.073.297.174.374.09.07.317-.023.51.132.192.154.624.513.81.667.335.277.68-.04.565-.353.34.2.375.764.093.96.268.06.748-.06.748-.444 0-.235-.216-.402-.372-.43.546-.05 1.025.334 1.025.83zm-21.77-.366c0-.01-.055-.08-.085-.12-.027-.05-.043-.08-.043-.23v-.958c0-.145.013-.17.04-.215.03-.048.08-.118.08-.12l.02-.02-.024-.015c-.003 0-.07-.037-.143-.045h-1.51l.077.05.32.194c.097.06.147.13.147.34v.52c-.118.038-.23.054-.37.054-.608 0-.917-.33-.917-.976 0-.62.34-.97.93-.97.37 0 .755.083 1.23.44v-.027l-.11-1.024-.01-.076-.074-.017-.075-.017c-.315-.07-.44-.09-.626-.115-.11-.01-.17-.02-.308-.02h-.06c-1.11 0-1.916.778-1.916 1.847 0 1.054.81 1.82 1.923 1.82.192 0 .57-.037.805-.086.05-.01.07-.017.11-.024l.023-.008c.133-.033.27-.067.406-.11l.172-.053-.02-.03zm39.42-1.57c0-.58-.37-.96-.94-.96-.543 0-.883.37-.883.98 0 .58.36.96.915.96.534 0 .91-.41.91-.988zm-3.12 1.42c-.03-.05-.044-.08-.044-.23v-.96c0-.145.013-.173.04-.216.03-.047.082-.117.083-.118l.015-.024-.027-.014c-.004-.004-.07-.04-.144-.046h-1.5l.075.047.32.2c.097.06.147.13.147.34v.52c-.112.037-.228.053-.365.053-.61 0-.915-.33-.915-.973 0-.615.337-.97.926-.97.37 0 .757.085 1.228.44v-.024l-.11-1.025-.01-.074-.07-.018-.073-.017c-.315-.07-.44-.09-.626-.114-.11-.014-.17-.02-.31-.02h-.06c-1.107 0-1.913.775-1.913 1.845 0 1.053.81 1.818 1.925 1.818.194 0 .57-.036.806-.086l.106-.025c.01 0 .017-.004.025-.006.132-.033.27-.067.405-.11l.17-.052-.02-.03s-.055-.07-.085-.117zM20.95 32.1c0-.58-.368-.955-.937-.955-.546 0-.885.375-.885.98 0 .582.36.96.914.96.535 0 .91-.406.91-.985zm-18.096.008c0-.58-.3-.913-.82-.913h-.4v1.823h.4c.52 0 .82-.33.82-.91zm37.276 0c0-.58-.3-.913-.82-.913h-.4v1.823h.4c.52 0 .82-.33.82-.91zm-7.078 1.35c-.196.332-.607.76-1.025.76-.77 0-1.156-1.087-.298-1.98-.05-.015-.1-.017-.11-.017-.08 0-.15.02-.197.05l-.38.33.11-.53c.005-.02.012-.034.02-.052-.19.097-.376.23-.447.308l-.345.375.033-.53.024-.115c.02-.082.04-.185.026-.218-.004-.01-.012-.018-.022-.025-.16.125-.59.508-.643 1.077 0 0 .086-.12.16-.148.048-.018.09.006.044.15-.02.054-.44 1.196.39 1.986 0 0-.09-.232-.037-.303.027-.034.06-.037.11.024.035.047.072.092.113.137.066.078.142.152.224.216.25.176.59.316.97.316 1.02 0 1.566-.7 1.868-1.293-.013-.017-.023-.035-.042-.05-.155-.137-.38-.323-.55-.46zM64 31.365c0 .588-.386 1.083-1.073 1.083-.684 0-1.07-.497-1.07-1.085 0-.586.386-1.08 1.07-1.08.687 0 1.073.494 1.073 1.08zm-17.676 1.06l-.32-.872-.347.87h.667zm16.603-.198c.52 0 .812-.38.812-.862 0-.48-.3-.86-.82-.86-.518 0-.81.38-.81.86 0 .482.292.862.81.862zm.26-.71c.402-.09.32-.703-.167-.703h-.526v1.102h.292v-.342h.102l.262.342h.313v-.063l-.275-.336zm-20.158-.164c0-.18-.12-.303-.46-.304h-.12v.82h.11c.224 0 .46-.05.46-.524zm-31.42-1.01h-2l.074.046c.002 0 .194.11.312.19.107.07.148.12.148.35v.86L8.66 30.34H6.33c-.07 0-.142.04-.146.043l-.024.014.018.022s.05.07.08.117c.02.04.03.068.04.16v1.827c-.01.38-.18.575-.54.575-.364 0-.55-.2-.55-.593V30.7c.004-.096.017-.12.04-.157.03-.046.08-.116.082-.117l.016-.022-.024-.013c-.005 0-.08-.04-.148-.04H3.69l.075.05c.002 0 .194.118.313.197.108.07.15.12.15.35v1.46c0 .323.04.58.11.75.053.12.135.234.25.35.307.3.69.446 1.175.446.673 0 1.2-.305 1.412-.812.08-.197.108-.374.108-.704v-1.49c0-.23.04-.28.148-.35l.22-.135c.06.04.138.093.19.134.1.076.15.15.15.38v2.33c0 .23-.04.278-.143.34-.113.07-.333.198-.334.2l-.08.046h2.014l-.08-.048c-.004 0-.227-.13-.335-.198-.1-.06-.145-.11-.145-.34v-1.41L11.04 34v-3.065c0-.228.038-.275.147-.35.12-.08.338-.194.34-.196l.09-.05zm14.362 0H23.97l.075.046c.002 0 .194.11.31.19.11.07.15.12.15.35v.86l-1.483-1.45h-1.18l.07.043c.003 0 .184.117.287.193.1.074.15.15.15.38v2.34c0 .23-.04.275-.148.34-.115.07-.334.195-.336.196l-.08.047H23.8l-.08-.047c-.003 0-.226-.13-.334-.197-.1-.06-.147-.11-.147-.34v-1.41L25.4 34v-3.065c0-.228.04-.275.15-.35.118-.08.337-.194.34-.196l.09-.05zm33.256 0h-2l.073.046c.003 0 .195.11.313.19.107.07.148.12.148.35v.86l-1.482-1.45h-1.17l.07.044c.002 0 .183.12.287.195.1.076.15.15.15.38v2.34c0 .23-.04.277-.143.34-.113.07-.333.197-.336.2l-.08.05h2.015l-.08-.05c-.002 0-.226-.13-.334-.196-.103-.06-.147-.113-.147-.34v-1.41L58.66 34v-3.065c0-.228.04-.275.147-.35.12-.08.338-.194.34-.196l.092-.05zm-26.32 1.41l-.034-.11c-.004-.01-.088-.276-.37-.38l-.156-.058.047.16c.04.135.11.387.4.387h.113zm-15.78 1.273h-.803v-.52h.754c.1 0 .205-.003.266.027.07.034.12.107.12.107l.035.05v-1.134l-.03.018s-.05.03-.09.047c-.035.02-.06.03-.22.03h-.83v-.45h.84c.212 0 .26.02.38.107l.207.158-.11-1.123H14.81l.074.05c.002 0 .195.12.31.2.108.07.15.12.15.35v2.36c0 .23-.036.272-.145.34-.11.067-.34.196-.34.197l-.08.046h2.94l.26-1.182s-.238.17-.306.213c-.13.08-.233.11-.55.11zm13.683-1.92c.035-.132-.225-.355-.32-.397.356-.02.533.05.533.05-.093-.138-.123-.348-.07-.51.194.46.888.54 1.06.923-.025-.168-.182-.355-.365-.464-.1-.254-.026-.72.094-.85-.042.672.917 1.056 1.116 1.544-.112-.418-.56-.682-.77-.933-.07-.165-.017-.447.06-.543-.024.45.462.8.722 1.05.307.3.395.56.353.775.068.018.16.083.145.193.097-.024.197-.136.22-.205.048.336-.148.69-.368.795 0 0 .06-.16-.04-.28-.1-.123-.38-.124-.48-.117 0 0 .116-.17.07-.26-.058-.107-.607-.06-.853.03.082-.01.28.012.35.04-.04.06-.14.3-.067.373.067.07.155-.05.155-.05s-.088.268-.027.33c.06.06.197.02.197.02-.083.206-.403.35-.626.35.08-.025.21-.17.23-.25-.06.027-.21.043-.27.033.075-.03.22-.214.17-.422-.06-.304-.49-.343-.7-.196.07-.205.275-.397.44-.46-.097-.033-.21-.06-.328-.082.138-.112.48-.203.654-.193-.265-.07-.752.014-.975.28.07 0 .256.033.327.055-.305.057-.72.34-.844.476.036-.18.085-.327.04-.434-.055-.15-.24-.212-.6-.138.245-.244.745-.396.78-.53zm32.204-.03c.17 0 .17.25 0 .25h-.235v-.25h.234zm-27.643.364c-.763.034-1.417.68-1.756 1.14.063.02.124.05.184.095.07.057.18.14.29.234.09-.2.295-.61.607-.97.286-.327.784-.36 1.045-.16.17-.15.75-.295 1.056-.208-.186-.203-.58-.474-1.018-.474-.36 0-.563.177-.615.097-.064-.1.245-.25.245-.25-.425.02-.734.516-.863.455-.076-.037.116-.28.116-.28-.39.227-.714.705-.78.997.36-.44 1.053-.753 1.505-.687zm-4.62-.91c-.012-.115-.004-.233.03-.34l.15-.464.187.45c.05.132.17.227.302.315-.014-.21.024-.45.102-.62-.017-.35.224-.61.512-.61.492 0 .624.6.395 1.028.105.16.267.31.41.438.05.05.1.09.142.133.014.013.02.025.034.04.212-.29.37-.696.37-1 0-.636-.41-1.224-1.27-1.27-.543-.03-.91.14-1.184.417-.123.128-.398.447-.346 1.025.02.217.095.37.16.468z" fill="#fff"/></svg>