<svg viewBox="0 0 64 64" xmlns="http://www.w3.org/2000/svg" fill-rule="evenodd" clip-rule="evenodd" stroke-linejoin="round" stroke-miterlimit="1.414"><path d="M42.18 34.34h-1.585c-.696 0-1.202-.026-1.762-.606-.38-.386-.676-.953-.68-1.843-.002-.64.185-1.27.6-1.76.44-.51.96-.654 1.706-.654h1.73l-.01-2.086H39.8c-.582 0-1.466.07-2.413.57-1.465.8-2.12 2.306-2.11 3.917.006 1.548.632 2.653 1.22 3.287 1.18 1.285 2.74 1.325 3.446 1.325h2.24l-.008-2.146zm14.208 2.143h-5.685l-.015-9.102h2.848l.004 6.9h3.455l-.607 2.21zM.008 27.38h4.24c2.037 0 4.44 1.025 4.456 4.46.013 2.855-1.96 4.643-4.85 4.643H0l.007-9.102zm63.373 9.103H57.7V27.38h2.834l.004 6.898h3.455l-.61 2.205zm-13.97-.003h-6.22v-9.11h6.25v2.065h-3.45v1.322h2.694l-.003 1.86h-2.69V34.3H50l-.59 2.18zm-22.6 0v.004h-2.94l-1.98-4.124s.608-.722 1.136-1.336c.305-.357.51-.63.508-.943 0-.42-.34-.7-.87-.7h-1.22v7.11h-2.75l-.002-9.13h4.71c1.88 0 3.01.918 3.015 2.24.004.55-.26 1.207-.705 1.695l-.98 1.07 1.66 3.297 2.79-8.272h3.39l3.16 9.103H32.77l-.377-1.263H29.27l-.36 1.264h-2.104zm-9.08-9.11v5.39c.01 2.562-1.6 3.943-4.19 3.943-2.52 0-4.11-1.283-4.12-3.633l.002-5.7h2.764l.008 5.705c.007.85.427 1.567 1.4 1.567.957 0 1.37-.76 1.364-1.568V27.37h2.77zM2.75 34.432h.72c1.808-.014 2.472-.99 2.465-2.566-.01-1.727-.906-2.433-2.488-2.433h-.69l-.006 5zm27.038-1.047l1.006-3.532 1.05 3.532h-2.056zm32.033-5.003c0-.59.48-1.083 1.09-1.083.607 0 1.1.49 1.1 1.08 0 .6-.49 1.09-1.095 1.09-.606 0-1.084-.493-1.084-1.098zm1.17-.9h-.03c-.08-.028-.21 0-.29.028-.35.098-.59.408-.643.76-.057.393.14.73.436.914.337.183.66.155.984-.056.31-.24.45-.62.35-.986-.098-.336-.42-.618-.73-.645-.03-.015-.07-.015-.07-.015zm-.26 1.082v.352h-.25v-1.04h.476c.183 0 .324.015.42.17.044.11.058.224-.012.336-.013.085-.097.14-.154.17.013.027.027.04.04.07.06.097.086.14.157.294h-.253c-.07-.112-.11-.225-.17-.352h-.25zm0-.504v.337c.253 0 .296 0 .34-.015.04-.028.083-.07.097-.112 0-.057 0-.128-.056-.17-.013-.028-.1-.04-.127-.04h-.252z" fill="#fff"/></svg>