<svg viewBox="0 0 128 19" xmlns="http://www.w3.org/2000/svg" fill-rule="evenodd" clip-rule="evenodd" stroke-linejoin="round" stroke-miterlimit="1.414"><path d="M84.358 14.276H81.19c-1.393 0-2.404-.05-3.523-1.21-.763-.773-1.353-1.907-1.36-3.686-.005-1.29.37-2.553 1.2-3.535.88-1.027 1.916-1.312 3.41-1.312h3.475L84.374.36h-4.767c-1.165 0-2.933.137-4.827 1.142-2.928 1.598-4.237 4.612-4.22 7.835.014 3.095 1.267 5.305 2.44 6.572 2.363 2.57 5.477 2.65 6.894 2.65h4.482l-.018-4.29zm28.417 4.288h-11.37L101.375.36h5.697l.008 13.794h6.91l-1.215 4.41zM.015.36h8.482c4.072 0 8.88 2.048 8.91 8.92.027 5.708-3.918 9.284-9.697 9.284H0L.014.36zM126.76 18.564h-11.37V.36h5.67l.006 13.794h6.91l-1.216 4.41zm-27.95-.004H86.38V.332h12.484v4.13h-6.9v2.643h5.388l-.007 3.718h-5.38V14.2h8.025l-1.18 4.36zm-45.21 0l.003.004h-5.87l-3.953-8.25s1.208-1.44 2.263-2.668c.61-.714 1.018-1.263 1.017-1.886 0-.844-.693-1.404-1.75-1.404h-2.444v14.208h-5.483l-.01-18.26H46.8c3.752 0 6.01 1.832 6.025 4.48.004 1.095-.525 2.41-1.413 3.385l-1.96 2.14 3.318 6.59L58.353.36h6.782l6.316 18.204h-5.92l-.75-2.528h-6.25l-.72 2.528-4.202-.004zM35.437.334v10.778c.02 5.126-3.2 7.888-8.38 7.888-5.04 0-8.218-2.567-8.24-7.268L18.82.334h5.528l.017 11.408c.01 1.7.85 3.134 2.794 3.134 1.91 0 2.73-1.517 2.73-3.134V.334h5.54zM5.5 14.462h1.44c3.615-.028 4.943-1.98 4.93-5.132-.017-3.454-1.812-4.866-4.976-4.866h-1.38L5.5 14.462zm54.075-2.094l2.013-7.064 2.1 7.064h-4.113zM123.64 2.36c0-1.18.958-2.164 2.17-2.164 1.206 0 2.19.985 2.19 2.165 0 1.22-.984 2.2-2.19 2.2-1.212 0-2.17-.98-2.17-2.19zm2.336-1.8h-.056c-.168-.054-.422 0-.594.06-.7.194-1.177.815-1.29 1.52-.114.784.28 1.46.872 1.825.673.367 1.32.31 1.968-.11.62-.48.9-1.24.703-1.973-.2-.673-.85-1.236-1.46-1.29-.06-.03-.15-.03-.15-.03zm-.535 2.167v.704h-.5V1.35h.96c.367 0 .65.03.845.338.084.223.11.45-.03.673-.03.18-.195.29-.31.34.028.06.056.09.085.14.113.2.17.29.31.59h-.508c-.14-.22-.223-.45-.34-.7h-.503zm0-1.01v.675c.51 0 .6 0 .68-.03.08-.055.17-.14.2-.223 0-.12 0-.26-.11-.35-.026-.056-.196-.08-.254-.08h-.505z"/></svg>