<svg viewBox="0 0 64 64" xmlns="http://www.w3.org/2000/svg" fill-rule="evenodd" clip-rule="evenodd" stroke-linejoin="round" stroke-miterlimit="1.414"><path d="M18.7 36.985c.002-.006.072-.16.178-.47l.002-.01c.006-.016.01-.032.017-.048.155-.47.385-1.28.627-2.523v-.01l.003-.01c.018-.106.035-.214.05-.324v-.01c.163-1.636-.852-3.218-1.81-4.32-.25-.28-.476-.52-.676-.717-.5-.494-.87-.784-.87-.784v-.01h4.258s3.26 3.29 2.83 6.15c-.222 1.475-.726 3.075-.726 3.075H18.7zM0 36.973l3.104-9.227H8.28c.23-.002.455 0 .67.002 3.52.03 7.91.384 7.91 3.946 0 4.187-5.132 5.277-8.937 5.28H0zm4.407-1.838l3.673-.002c1 0 1.833-.156 2.51-.422 1.1-.43 1.786-1.15 2.1-1.95.13-.34.194-.693.194-1.05 0-.08-.003-.17-.01-.26-.027-.27-.1-.51-.222-.72-.117-.194-.33-.454-.698-.654-.23-.125-.51-.235-.88-.32-.16-.035-.332-.065-.514-.09-.35-.045-.763-.07-1.255-.07l-3.03-.002-1.868 5.55zm49.87 2.033c-.448.002-.867-.014-1.256-.045-2.57-.19-4.51-.99-5.38-2.352l.01.01-.045-.08c-.3-.5-.46-1.07-.46-1.71 0-.16.01-.327.028-.503.063-.572.23-1.1.495-1.575.17-.303.374-.586.61-.85 1.49-1.64 4.307-2.5 7.58-2.5h.036c4.174.006 7.04 1.294 7.21 3.897.01.15.014.315 0 .51-.014.26-.05.51-.105.75l-.017.07c-.136.54-.378 1.04-.715 1.49-1.43 1.92-4.517 2.894-7.97 2.896h-.014zm-30.4-3.11c-.014.02-.006-.01-.006-.01s.02-.03.04-.348c.01-.09.02-.16.02-.214v-.14c-.03-.674-.18-1.71-.79-2.8l-.14-.24s.708-.754 1.59-1.493l.14-.113.004-.002c.44-.358 1.26-.953 1.26-.953h4.5l-.01.003s-.923.628-2.08 1.552c-.823.658-1.766 1.47-2.584 2.315-.177.183-.347.368-.508.553-.08.09-.16.186-.24.282-.496.6-1.02 1.314-1.162 1.57l.03-.045c.042-.07.108-.177-.032.05l-.02.032zm14.152 2.918h-3.52v-.003h-.007l-.55-7.273-.004.007h.002l-.775 2.42-1.54 4.846h-3.42l2.962-9.227h5.634l.457 6.06V33.8l4.298-6.057h5.993v.002l-.49 1.567-2.407 7.66h-3.71l.117-.35 2.323-6.916-5.374 7.268zm16.1-1.686c.38.006.83-.025 1.36-.114.07-.012.14-.026.212-.04.592-.138 1.11-.358 1.54-.64.473-.31.87-.707 1.15-1.167.296-.5.45-1.04.45-1.6v-.01c-.006-.207-.03-.396-.068-.568-.096-.38-.3-.76-.665-1.065l.01.01-.087-.07c-.144-.11-.31-.21-.504-.294-.355-.152-.808-.262-1.354-.3-.13-.007-.267-.012-.41-.012-2.005 0-3.428 1.028-4.033 2.307-.213.454-.323.936-.323 1.416.01.263.046.5.1.712.128.402.38.77.846 1.032.18.097.544.27 1.147.352.19.024.398.04.623.044zM43.4 29.705h.003V29.7l-.002.005zm19.722-2.873c.49 0 .878.398.878.894 0 .504-.39.898-.882.898-.49 0-.886-.394-.886-.898 0-.496.397-.894.886-.894h.004zm-.004.14c-.393 0-.715.337-.715.754 0 .425.322.76.72.76.396.002.714-.335.714-.756 0-.42-.318-.76-.715-.76h-.004zm-.167 1.274h-.15v-.997c.086-.02.165-.03.285-.03.15 0 .25.03.31.072s.09.11.09.207c0 .13-.087.21-.194.242v.007c.088.016.148.095.168.242.025.154.05.213.065.245h-.168c-.022-.03-.046-.123-.066-.254-.026-.126-.09-.174-.216-.174h-.112v.43zm0-.552h.12c.13 0 .248-.048.248-.17 0-.088-.064-.175-.243-.175h-.115v.335z" fill="#fff"/></svg>