<svg viewBox="0 0 128 21" xmlns="http://www.w3.org/2000/svg" fill-rule="evenodd" clip-rule="evenodd" stroke-linejoin="round" stroke-miterlimit="1.414"><path d="M37.4 20.306c.004-.012.144-.32.356-.94l.004-.02c.012-.032.02-.064.034-.096.31-.94.77-2.56 1.254-5.046v-.02l.006-.02c.036-.212.07-.428.1-.648v-.02c.326-3.272-1.704-6.436-3.62-8.64-.5-.56-.952-1.04-1.352-1.434-1-.988-1.74-1.568-1.74-1.568v-.02h8.516s6.52 6.58 5.66 12.3c-.444 2.95-1.452 6.15-1.452 6.15H37.4v.022zM0 20.282L6.208 1.828H16.56c.46-.004.91 0 1.34.004 7.04.06 15.82.768 15.82 7.892 0 8.374-10.264 10.554-17.874 10.56H0v-.002zm8.814-3.676l7.346-.004c2 0 3.666-.312 5.02-.844 2.2-.86 3.572-2.3 4.2-3.9.26-.68.388-1.386.388-2.1 0-.16-.006-.34-.02-.52-.054-.54-.2-1.02-.444-1.44-.234-.388-.66-.908-1.396-1.308-.46-.25-1.02-.47-1.76-.64-.32-.07-.664-.13-1.028-.18-.7-.09-1.526-.14-2.51-.14l-6.06-.004-3.736 11.1v-.02zm99.74 4.066c-.896.004-1.734-.028-2.512-.09-5.14-.38-9.02-1.98-10.76-4.704l.02.02-.09-.16c-.6-1-.92-2.14-.92-3.42 0-.32.02-.654.056-1.006.126-1.144.46-2.2.99-3.15.34-.606.748-1.172 1.22-1.7 2.98-3.28 8.614-5 15.16-5h.072c8.348.012 14.08 2.588 14.42 7.794.02.3.028.63 0 1.02-.028.52-.1 1.02-.21 1.5l-.034.14c-.272 1.08-.756 2.08-1.43 2.98-2.86 3.84-9.034 5.788-15.94 5.792h-.028l-.014-.016zm-60.8-6.22c-.028.04-.012-.02-.012-.02s.04-.06.08-.696c.02-.18.04-.32.04-.428v-.28c-.06-1.348-.36-3.42-1.58-5.6l-.28-.48s1.416-1.508 3.18-2.986l.28-.226.008-.004c.88-.716 2.52-1.906 2.52-1.906h9l-.02.006s-1.846 1.256-4.16 3.104c-1.646 1.316-3.532 2.94-5.168 4.63-.354.366-.694.736-1.016 1.106-.16.18-.32.372-.48.564-.992 1.2-2.04 2.628-2.324 3.14l.06-.09c.084-.14.216-.354-.064.1l-.04.064-.024.002zm28.304 5.836h-7.04v-.006h-.014l-1.1-14.546-.008.014h.004l-1.55 4.84-3.08 9.692h-6.84l5.924-18.454h11.268l.914 12.12v-.012l8.596-12.114h11.986v.004l-.98 3.134-4.814 15.32h-7.42l.234-.7 4.646-13.832-10.748 14.536.022.004zm32.2-3.372c.76.012 1.66-.05 2.72-.228.14-.024.28-.052.424-.08 1.184-.276 2.22-.716 3.08-1.28.946-.62 1.74-1.414 2.3-2.334.592-1 .9-2.08.9-3.2v-.02c-.012-.414-.06-.792-.136-1.136-.192-.76-.6-1.52-1.33-2.13l.02.02-.174-.14c-.288-.22-.62-.42-1.008-.588-.71-.304-1.616-.524-2.708-.6-.26-.014-.534-.024-.82-.024-4.01 0-6.856 2.056-8.066 4.614-.426.908-.646 1.872-.646 2.832.02.526.092 1 .2 1.424.256.804.76 1.54 1.692 2.064.36.194 1.088.54 2.294.704.38.048.796.08 1.246.088l.012.014zM86.8 5.746h.006v-.01l-.004.01H86.8zM126.244 0c.98 0 1.756.796 1.756 1.788 0 1.008-.78 1.796-1.764 1.796-.98 0-1.772-.788-1.772-1.796 0-.992.794-1.788 1.772-1.788h.008zm-.008.28c-.786 0-1.43.674-1.43 1.508 0 .85.644 1.52 1.44 1.52.792.004 1.428-.67 1.428-1.512 0-.84-.636-1.52-1.43-1.52h-.008V.28zm-.334 2.548h-.3V.834c.172-.04.33-.06.57-.06.3 0 .5.06.62.144.12.084.18.22.18.414 0 .26-.174.42-.388.484v.014c.176.032.296.19.336.484.05.308.1.426.13.49h-.336c-.044-.06-.092-.246-.132-.508-.052-.252-.18-.348-.432-.348h-.224v.86l-.024.02zm0-1.104h.24c.26 0 .496-.096.496-.34 0-.176-.128-.35-.486-.35h-.23v.67l-.02.02z"/></svg>