<svg viewBox="0 0 128 50" xmlns="http://www.w3.org/2000/svg" fill-rule="evenodd" clip-rule="evenodd" stroke-linejoin="round" stroke-miterlimit="1.414"><path d="M84.175 26.324v1.768c0 2.32-1.42 8.04-9.8 8.04-4.586 0-6.552-2.28-6.552-4.94 0-4.82 6.62-4.86 16.34-4.86l.012-.008zm-38.008-10.76c5.82 0 9.52 4.312 9.52 10.1 0 6.2-4.26 10.26-9.46 10.26-6.2 0-9.54-4.84-9.54-10.208 0-5 3-10.152 9.5-10.152h-.02zm-30.7-.18c5.12 0 8.62 3.14 8.62 7.848H6.407c0-4.98 4.56-7.84 9.06-7.84v-.008zm73.28.43l-1.82-3.41h7.22l10.34 20.726 10.32-20.72h6.535l-18.818 36.9h-6.86l5.428-10.284-11.52-21.62c.505 1.24.79 2.714.79 4.468v13.32c0 1.54.22 3.954.22 3.954h-5.7s-.15-1.96-.15-3.92c0 0-2.89 4.96-11.865 4.96-6.58 0-11.44-3.18-11.44-9 0-.34.02-.66.06-.96-1.708 5.98-6.834 9.88-13.754 9.88-8.12 0-11.108-4.68-11.108-4.68 0 1.76-.22 3.7-.22 3.7h-6.06s.14-2.7.14-4.62v-7.2H6.25c0 5.1 3.872 8.732 9.256 8.732 6.62 0 7.98-4.64 7.98-4.64h6.34s-.84 8.612-13.92 8.612C4.786 40.012 0 34.552 0 25.872c0-10.96 7.134-14.588 15.692-14.588 11.332 0 14.65 7.412 14.8 12.46V.69h6.187v15.248s2.62-4.56 11.06-4.56c9.01 0 14.35 6.368 14.35 14.284 0 .97-.08 1.906-.22 2.804 1.452-4.096 6.5-6.12 14.804-6.12h7.51V21.02c0-3.724-3.28-5.66-7.514-5.66-6.52 0-6.853 4.114-6.853 4.114h-6.4c0-1.126.824-8.18 13.7-8.18 4.38 0 9.18.92 11.624 4.52h.008zm35.94-6.044c0-.256 0-.474-.02-.666h.5l.02.33h.015c.11-.174.314-.38.69-.38.294 0 .52.164.62.412h.01c.08-.124.17-.216.276-.28.126-.086.268-.132.452-.132.372 0 .75.252.75.97v1.32h-.55v-1.24c0-.37-.132-.59-.4-.59-.194 0-.34.14-.4.3-.012.054-.024.12-.024.186v1.344h-.552v-1.3c0-.31-.12-.53-.38-.53-.214 0-.356.166-.408.32-.02.056-.02.12-.02.186v1.324h-.546V9.77h-.034zm-.96-1.306v.64h.54v.424h-.54v.98c0 .26.08.4.293.4.1 0 .18-.02.24-.036l.006.432c-.08.032-.232.06-.41.06-.208 0-.38-.074-.488-.188-.12-.132-.17-.334-.17-.628V9.494h-.32v-.42h.32v-.51l.552-.132-.024.032z"/></svg>