<svg viewBox="0 0 64 64" xmlns="http://www.w3.org/2000/svg" fill-rule="evenodd" clip-rule="evenodd" stroke-linejoin="round" stroke-miterlimit="1.414"><path d="M42.095 32.817v.884c0 1.16-.71 4.02-4.9 4.02-2.293 0-3.276-1.14-3.276-2.47 0-2.41 3.31-2.43 8.17-2.43zm-19.004-5.38c2.91 0 4.76 2.156 4.76 5.05 0 3.1-2.13 5.13-4.73 5.13-3.1 0-4.77-2.42-4.77-5.104 0-2.5 1.5-5.076 4.75-5.076zm-15.35-.09c2.56 0 4.31 1.57 4.31 3.924H3.21c0-2.49 2.28-3.92 4.53-3.92zm36.64.215l-.91-1.705h3.61l5.17 10.363 5.16-10.36h3.268L51.27 44.31h-3.43l2.714-5.142-5.76-10.81c.252.62.394 1.357.394 2.234v6.66c0 .77.11 1.977.11 1.977h-2.85s-.075-.98-.075-1.96c0 0-1.445 2.48-5.932 2.48-3.29 0-5.72-1.59-5.72-4.5 0-.17.01-.33.03-.48-.854 2.99-3.417 4.94-6.877 4.94-4.06 0-5.554-2.34-5.554-2.34 0 .88-.11 1.85-.11 1.85h-3.03s.07-1.35.07-2.31v-3.6H3.132c0 2.55 1.936 4.366 4.628 4.366 3.31 0 3.99-2.32 3.99-2.32h3.17s-.42 4.306-6.96 4.306c-5.56 0-7.953-2.73-7.953-7.07 0-5.48 3.567-7.294 7.846-7.294 5.666 0 7.325 3.706 7.4 6.23V20h3.094v7.624s1.31-2.28 5.53-2.28c4.506 0 7.175 3.184 7.175 7.142 0 .485-.04.953-.11 1.402.727-2.048 3.25-3.06 7.403-3.06H42.1v-.663c0-1.862-1.64-2.83-3.757-2.83-3.26 0-3.427 2.057-3.427 2.057h-3.2c0-.563.412-4.09 6.85-4.09 2.19 0 4.59.46 5.812 2.26zm17.97-3.022c0-.128 0-.237-.01-.333h.25l.01.165h.008c.055-.087.157-.19.345-.19.147 0 .26.082.31.206h.005c.04-.062.085-.108.138-.14.063-.043.134-.066.226-.066.186 0 .375.126.375.485v.66h-.275v-.62c0-.185-.066-.295-.2-.295-.097 0-.17.07-.2.15-.006.027-.012.06-.012.093v.672h-.276v-.65c0-.155-.06-.265-.19-.265-.107 0-.178.083-.204.16-.01.028-.01.06-.01.093v.662h-.273v-.787zm-.48-.653v.32h.27v.212h-.27v.49c0 .13.04.2.147.2.05 0 .09-.01.12-.018l.003.216c-.04.016-.116.03-.205.03-.104 0-.19-.037-.244-.094-.06-.066-.085-.167-.085-.314v-.527h-.16v-.21h.16v-.255l.276-.066z" fill="#fff"/></svg>