<svg viewBox="0 0 129 18" xmlns="http://www.w3.org/2000/svg" fill-rule="evenodd" clip-rule="evenodd" stroke-linejoin="round" stroke-miterlimit="1.414"><path d="M89.424 5.95c2.56-.04 6.053.607 6.08 5.423 0 3.758-1.406 5.807-6.032 5.807-3.215 0-5.83-.72-5.83-5.56-.025-4.92 3.568-5.64 5.778-5.668h.004zm17.75 11.2c-1.738.003-3.29-1.092-3.29-3.018l-.003-5c0-1.143-.56-1.888-1.27-1.943-.16-.02-.23-.11-.23-.21v-.21l4.62-.61v6.5c0 2.903 2.867 2.59 3.97 1.772l.003-5.31c0-1.145-.57-1.887-1.277-1.942-.155-.012-.23-.11-.226-.21v-.2l4.616-.61v8.297c0 .895.174 1.82.88 1.967.124.024.207.075.207.24v.18h-2.984c-.936 0-1.216-.59-1.216-1.083-1.2.93-2.084 1.33-3.664 1.39h-.124zM.39 1.297v15.55h15.552V1.297H.392zm78.677 4.867V8.51c.474-.865 1.402-2.547 3.39-2.547.36 0 .66.08.868.156l-.84 2.89h-1.278c-1.286 0-2.09.83-2.09 1.86v3.6c0 1.14.565 1.892 1.27 1.95.16.01.234.104.23.21l-.006.2h-5.96v-.204c0-.1.07-.195.23-.207.71-.055 1.28-.807 1.28-1.95V9.12c0-1.142-.485-1.83-1.27-1.94-.11-.015-.23-.143-.23-.255V6.77l4.417-.61zM42.443 16.838l.002-.204c.005-.1-.07-.196-.228-.208-.706-.055-1.273-.807-1.273-1.95V.692l-4.522.61v.205c-.004.103.07.198.23.21.706.054 1.274.8 1.274 1.945l.005 10.818c0 1.144-.56 1.893-1.27 1.948-.16.012-.23.107-.23.208l.01.204h6.01zm59.812 0l.002-.204c.004-.1-.07-.196-.23-.208-.706-.055-1.272-.807-1.272-1.95V.692l-4.52.61v.205c-.006.103.07.198.227.21.707.054 1.276.8 1.276 1.945l.005 10.818c0 1.144-.566 1.893-1.272 1.948-.15.012-.23.107-.22.208l.004.204h6.01zm-92.723-.96c-.438.09-.9.135-1.368.135-3.668 0-6.684-2.863-6.925-6.474h1.47c3.51 0 6.82 2.82 6.82 6.33zm80.065-8.46c-1.98 0-2.538 1.548-2.538 3.983 0 1.97.02 4.43 2.56 4.43 2.44-.05 2.41-2.1 2.41-4.34 0-2.61-.648-4.05-2.437-4.064h-.005zM10.462 2.52c2.703.947 4.64 3.526 4.64 6.547 0 3.025-1.936 5.604-4.64 6.55V2.523zM73.59 6.83v-.477h-3.37l-.008-3.12L65.76 7.85h1.422v6.122c0 1.042.327 3.242 3.267 3.27 1.3 0 2.23-.465 2.94-1.096.27-.216.27-.353.28-.565.01-.18.003-.39.003-.75-1.87 1.05-3.46.39-3.46-1.64V7.85H72.6c.463-.077.98-.333.98-1.018zm-8.647 2.622v-2.73S63.363 6 60.798 6c-3.315 0-5.63 1.687-5.653 5.78-.026 3.235 1.866 5.398 5.528 5.398 2.42 0 3.82-1.195 4.346-1.676.3-.24.31-.458.31-.73 0-.276.02-.758.02-.758-.997.712-2.32 1.203-3.62 1.203-2.64 0-3.43-1.88-3.43-3.962 0-.86.276-3.79 2.764-3.818 1.6 0 2.51.482 3.444 2.045.16.238.26.29.43.255l-.004-.286zM48.737 6.007c3.273 0 4.953 1.54 5.07 4.9l.003.3h-7.316c-.15 3.318 1.664 3.98 3.398 4.01 1.494 0 2.614-.508 3.586-1.187v.84c0 .172-.085.31-.143.39-.66.89-2.332 1.92-4.65 1.92-3.166 0-5.38-1.63-5.38-5.365 0-4.1 2.266-5.79 5.432-5.808h-.002.003zm-.04 1.22c-1.002.057-1.924.504-2.203 2.68h4.328c.026-2.232-1.097-2.624-2.124-2.68l.012-.002h-.025.013zm74.782-.88h4.09v.198c0 .125-.04.192-.18.22-.74.153-1.986.908-2.97 2.014l-1.502 1.86 3.342 4.41c.573.74 1.185 1.09 1.88 1.32.046.012.094.023.13.04.08.024.113.11.11.18v.25h-6.83v-.227c0-.105.083-.17.22-.21.593-.176.957-.984.397-1.546l-1.256-1.788c-.67.802-1.45 1.855-1.45 1.87-.64.75-.42 1.22-.144 1.406.04.026.066.036.112.06.076.04.115.11.11.18v.25h-3.96l.004-.227c0-.107.074-.18.217-.21.676-.15 1.512-.978 2.484-2.07l1.88-2.266-2.9-3.94c-.57-.73-1.176-1.085-1.866-1.316-.15-.04-.26-.12-.26-.28 0-.09.005-.2.005-.2h6.677v.2c0 .123-.036.19-.176.22-.622.14-1.023.983-.444 1.56l.966 1.31v.01c.673-.81 1.144-1.39 1.142-1.405.656-.77.41-1.242.124-1.42l-.064-.044c-.085-.05-.138-.12-.138-.234 0-.09.003-.197.003-.197l.226-.004zM9.53 2.264c0 3.52-3.304 6.34-6.82 6.34H1.24C1.48 4.99 4.495 2.13 8.163 2.13c.47 0 .93.046 1.368.133zm25.146 1.834c-.342-.843-1.26-1.202-2.228-1.202h-3.92v5.26l3.09.006c1.053 0 2.01-.194 2.19-.99.02-.092.09-.162.178-.163h.184v3.7h-.185c-.092 0-.142-.08-.18-.186-.253-.686-1.192-1.014-2.187-1.014h-3.09v4.216c0 1.26.45 1.6 1.708 1.6h2.218c1.03 0 2.193-.51 2.59-1.503.028-.076.096-.114.17-.114h.152v3.122H23.683v-.204c-.004-.1.07-.197.23-.21.707-.056 1.274-.8 1.274-1.946V3.664c0-1.145-.567-1.893-1.275-1.95-.158-.01-.233-.104-.228-.21v-.2h11.313v2.91h-.147c-.07-.003-.147-.05-.172-.114z"/></svg>