<svg viewBox="0 0 128 34" xmlns="http://www.w3.org/2000/svg" fill-rule="evenodd" clip-rule="evenodd" stroke-linejoin="round" stroke-miterlimit="1.414"><path d="M113.725 22.84h5.073c3.68 0 6.658-2.975 6.658-6.646 0-3.67-2.98-6.645-6.638-6.645-3.668 0-6.643 2.974-6.643 6.643l-.03 17.09h-2.44l-.03-17.796c.358-4.74 4.318-8.47 9.147-8.47 5.07 0 9.178 4.11 9.178 9.178 0 5.065-4.11 9.174-9.178 9.174h-5.08v-2.53h-.017zM76.928 7.02c5.067 0 9.178 4.11 9.178 9.178 0 5.065-4.11 9.174-9.178 9.174-5.067 0-9.178-4.11-9.178-9.178 0-5.065 4.11-9.174 9.178-9.174zm20.77 0c5.06 0 9.158 4.11 9.158 9.178 0 5.065-4.11 9.174-9.178 9.174-5.067 0-9.178-4.11-9.178-9.178 0-5.065 4.11-9.174 9.178-9.174h.02zM61.988.72h2.8v24.518h-2.79V.715l-.01.004zm-32.65 6.018c3.6 0 6.685 2.074 7.944 5.003.686 1.598.49 3.28.49 4.955v8.458h-2.66V13.95c0-.125-.005-.2-.027-.317-.5-2.664-2.866-4.68-5.71-4.68-2.758 0-5.098 1.926-5.658 4.5-.04.226-.08.34-.08.563v11.138h-2.68V16.22c-.063-1.804-.043-3.743.88-5.34 1.46-2.468 4.28-4.144 7.52-4.144l-.02.002zm-20.212 18.6C4.086 25.338 0 21.253 0 16.214c0-5.04 4.087-9.126 9.126-9.126 4.427 0 8.118 3.15 8.95 7.332l.024.13.02.09.02.14.012.08c.008.054.016.106.02.16l.01.06.02.18.004.04.02.196v.028l.014.212v.014l.01.226v.504l-.008.152v.006H2.44c.22 3.5 3.13 6.28 6.686 6.28 2.54 0 4.75-1.42 5.887-3.5l2.23.96c-1.512 2.93-4.57 4.938-8.097 4.946h-.02v.014zm40.662 0c-5.04 0-9.138-4.085-9.138-9.124 0-5.04 4.08-9.126 9.118-9.126 4.423 0 8.118 3.15 8.948 7.332l.024.13.014.09.028.14.012.08c.008.054.02.106.02.16l.01.06.02.18.004.04.02.196v.028l.014.212v.014l.01.226v.504l-.014.152v.006H43.08c.22 3.5 3.127 6.28 6.684 6.28 2.54 0 4.747-1.42 5.883-3.5l2.227.96c-1.512 2.93-4.57 4.938-8.094 4.946h-.02l.028.014zm27.134-15.79c3.66 0 6.64 2.977 6.64 6.646 0 3.67-2.98 6.647-6.654 6.647-3.673 0-6.646-2.96-6.646-6.637 0-3.66 2.98-6.64 6.646-6.64l.014-.013zm20.756 0c3.667 0 6.645 2.977 6.645 6.646 0 3.67-2.98 6.647-6.647 6.647-3.67 0-6.65-2.96-6.65-6.637 0-3.66 2.98-6.64 6.648-6.64l.004-.013zm-95 4.78h12.857c-.814-2.78-3.385-4.815-6.43-4.815-3.04 0-5.616 2.034-6.43 4.815h.002zm40.66 0h12.856c-.813-2.78-3.38-4.815-6.428-4.815-3.05 0-5.62 2.034-6.43 4.815z"/></svg>