<svg viewBox="0 0 128 113" xmlns="http://www.w3.org/2000/svg" fill-rule="evenodd" clip-rule="evenodd" stroke-linejoin="round" stroke-miterlimit="1.414"><path d="M99.7 93.862c5.157.003 9.09 3.02 9.09 9.606 0 6.294-3.953 9.532-9.09 9.532-5.127.002-9.056-3.163-9.056-9.532 0-6.586 3.91-9.606 9.056-9.606zm-26.385.743l-.337 3.8c-2.502-1.377-7.25-1.413-7.25.75 0 3.204 8.465.89 8.465 7.75 0 6.748-8.057 6.823-13.285 5.258l.37-4.023c3.274 1.526 7.915 1.86 7.915-.787 0-2.905-8.503-1.268-8.503-7.79-.003-5.35 6.624-6.784 12.625-4.958zm14.975 0l-.33 3.8c-2.504-1.377-7.25-1.413-7.25.75 0 3.204 8.465.89 8.465 7.75 0 6.748-8.062 6.823-13.287 5.258l.37-4.023c3.274 1.526 7.912 1.86 7.912-.787 0-2.905-8.5-1.268-8.5-7.79-.003-5.35 6.62-6.784 12.62-4.958zM35.63 94.3h4.965v18.256H35.63V94.3zM0 94.3h13.95v3.793H4.927v3.295h8.655v3.934H4.927v3.404h9.17v3.82H0V94.3zm95.724 9.167c0 2.782 1.194 5.93 3.974 5.927 2.785-.004 3.956-3.145 3.974-5.927.02-2.516-1.19-5.92-3.974-5.925-2.78 0-3.974 3.144-3.974 5.925zm-37.022-8.58l-.333 3.907c-4.01-2.32-10.16-1.58-10.27 4.505-.118 6.08 6.33 6.97 10.41 4.9l.255 3.99c-7.21 2.24-15.827-.04-15.788-8.89.035-8.68 8.72-11.07 15.715-8.42zm52.445-.586h6.288l6 11.78V94.3H128v18.256h-5.924l-6.33-11.997v11.99h-4.6V94.3zm-93.59 0H26.5c2.43 0 5.814 1.07 5.814 4.86 0 2.43-1.1 3.79-3.192 4.42.1-.01 1.194.47 1.647 1.84.01.05 2.55 7.13 2.58 7.14h-5.27l-1.88-5.48c-.287-.842-.913-1.4-1.802-1.4-.773 0-1.99-.05-1.99 0v6.886H17.55V94.3zm4.746 7.7h2.724c1.225.02 2.33-.714 2.32-2.06-.01-1.19-.988-2.04-2.248-2.02h-2.8V102zm23.492-26.4c-3.9 1.43-8.22-.57-9.652-4.473-1.43-3.9.572-8.222 4.474-9.65l41.588-15.25c3.9-1.43 8.22.573 9.652 4.475 1.43 3.894-.573 8.22-4.475 9.65L45.795 75.6zm0-22.51c-3.9 1.43-8.22-.572-9.652-4.474-1.43-3.9.572-8.22 4.474-9.65l41.588-15.248c3.9-1.43 8.22.573 9.652 4.474 1.43 3.894-.573 8.22-4.475 9.65L45.795 53.09zm0-22.51c-3.9 1.43-8.22-.573-9.652-4.474-1.43-3.9.572-8.22 4.474-9.65l41.588-15.25c3.9-1.43 8.22.573 9.652 4.474 1.43 3.9-.573 8.22-4.475 9.65L45.795 30.58z"/></svg>