<svg viewBox="0 0 64 64" xmlns="http://www.w3.org/2000/svg" fill-rule="evenodd" clip-rule="evenodd" stroke-linejoin="round" stroke-miterlimit="1.414"><path d="M63.216 36.724c.436 0 .784.355.784.8 0 .45-.348.8-.788.8-.436 0-.79-.35-.79-.8 0-.445.354-.8.79-.8h.004zm-50.474 1.493h-2.16l-.092-.545c-.987.545-1.867.634-2.447.634-1.585 0-2.428-1.056-2.428-2.518 0-1.724.984-2.34 2.744-2.34h1.79v-.372c0-.88-.1-1.138-1.46-1.138H6.48l.217-2.16H9.12c2.972 0 3.624.94 3.624 3.316v5.123zm32.18-3.387c0 1.76-.727 3.467-3.77 3.467-3.046 0-3.787-1.707-3.787-3.467v-1.7c0-1.76.74-3.467 3.786-3.467 3.05 0 3.78 1.707 3.78 3.468v1.7zm8.298 0c0 1.76-.728 3.467-3.77 3.467-3.047 0-3.788-1.707-3.788-3.467v-1.7c0-1.76.74-3.467 3.787-3.467 3.04 0 3.77 1.707 3.77 3.468v1.7zm9.992 2.02c-.35 0-.64.3-.64.673 0 .38.29.678.644.678.355.01.64-.29.64-.67 0-.37-.285-.672-.64-.672h-.004zM3.886 38.2h-2.59v-6.26H0v-2.16h1.295v-1.295c0-1.76.73-2.808 2.808-2.808h1.73v2.16h-1.08c-.81 0-.864.3-.864.864l-.01 1.08h1.96l-.23 2.16H3.88v6.26zm59.177-.21h-.142v-.893c.08-.01.15-.02.26-.02.137 0 .226.027.28.066.054.04.08.1.08.185 0 .117-.076.188-.17.217v.007c.076.014.13.084.15.216.02.138.04.192.054.22h-.15c-.02-.028-.043-.11-.06-.226-.02-.115-.08-.157-.192-.157h-.1v.384zm0-.495h.103c.117 0 .216-.043.216-.153 0-.078-.056-.156-.216-.156-.046 0-.08.003-.103.007v.302zm-54.857-1.74c0 .472.224.717.716.717.53 0 .842-.172 1.228-.35v-.945H8.994c-.548 0-.788.1-.788.577zm24.742-3.936c-.53 0-.91.17-1.296.35v3.98c.37.035.582.035.934.035 1.27 0 1.442-.58 1.442-1.39V32.89c0-.596-.2-1.077-1.08-1.077zm8.195 0c-.882 0-1.187.48-1.187 1.07v2.18c0 .6.305 1.08 1.187 1.08.88 0 1.186-.48 1.186-1.08v-2.18c0-.596-.31-1.077-1.19-1.077zm-21.057.27c-1.344-.23-1.73-.28-2.376-.28-1.162 0-1.513.253-1.513 1.24v1.86c0 .985.35 1.24 1.513 1.24.647 0 1.032-.05 2.376-.28v2.104c-1.177.265-1.944.334-2.592.334-2.782 0-3.888-1.46-3.888-3.57v-1.51c0-2.114 1.106-3.577 3.888-3.577.648 0 1.415.07 2.592.335v2.1zm8.11 2.65h-4.752v.17c0 .985.35 1.24 1.512 1.24 1.045 0 1.68-.05 3.022-.28v2.104c-1.293.265-1.967.334-3.237.334-2.78 0-3.88-1.46-3.88-3.57v-1.73c0-1.847.82-3.36 3.67-3.36 2.855 0 3.67 1.495 3.67 3.36v1.73zm21.244-2.92c-.88 0-1.185.48-1.185 1.073v2.183c0 .6.305 1.08 1.185 1.08.88 0 1.19-.48 1.19-1.08v-2.184c0-.597-.31-1.078-1.19-1.078zm12.297 6.38H58.93l-2.376-3.96v3.96h-2.59V26.322l2.59-.43v7.645l2.375-3.76h2.8l-2.595 4.1 2.593 4.32zm-37.213-6.6c-.88 0-1.08.48-1.08 1.08v.333h2.16v-.336c0-.59-.2-1.074-1.08-1.074zm12.096 3.18c0 2.04-.59 3.53-4.13 3.53-1.276 0-2.026-.114-3.436-.33V26.32l2.59-.43v4.077c.56-.208 1.285-.313 1.945-.313 2.59 0 3.02 1.16 3.02 3.023v2.11z" fill="#fff"/></svg>