<svg viewBox="0 0 128 26" xmlns="http://www.w3.org/2000/svg" fill-rule="evenodd" clip-rule="evenodd" stroke-linejoin="round" stroke-miterlimit="1.414"><path d="M126.432 22.8c.872 0 1.568.71 1.568 1.6 0 .9-.696 1.6-1.576 1.6-.872 0-1.58-.7-1.58-1.6 0-.89.708-1.6 1.58-1.6h.008zM25.484 25.786h-4.32l-.184-1.09c-1.974 1.09-3.734 1.268-4.894 1.268-3.17 0-4.856-2.112-4.856-5.036 0-3.448 1.968-4.68 5.488-4.68h3.58v-.744c0-1.76-.2-2.276-2.92-2.276H12.96l.434-4.32h4.846c5.944 0 7.248 1.88 7.248 6.632v10.246h-.004zm64.36-6.774c0 3.52-1.454 6.934-7.54 6.934-6.092 0-7.574-3.414-7.574-6.934v-3.4c0-3.52 1.48-6.934 7.572-6.934 6.1 0 7.56 3.414 7.56 6.936v3.4l-.018-.002zm16.596 0c0 3.52-1.456 6.934-7.54 6.934-6.094 0-7.576-3.414-7.576-6.934v-3.4c0-3.52 1.48-6.934 7.574-6.934 6.08 0 7.54 3.414 7.54 6.936v3.4l.002-.002zm19.984 4.04c-.7 0-1.28.6-1.28 1.346 0 .76.58 1.356 1.288 1.356.71.02 1.28-.58 1.28-1.34 0-.74-.57-1.344-1.28-1.344h-.008v-.018zm-118.652 2.7h-5.18v-12.52H0v-4.32h2.59v-2.59c0-3.52 1.46-5.616 5.616-5.616h3.46v4.32h-2.16c-1.62 0-1.728.6-1.728 1.728l-.02 2.16h3.92l-.46 4.32H7.76v12.52l.012-.002zm118.354-.42h-.284v-1.786c.16-.02.3-.04.52-.04.274 0 .452.054.56.132.108.08.16.2.16.37 0 .234-.152.376-.34.434v.014c.152.028.26.168.3.432.04.276.08.384.108.44h-.3c-.04-.056-.086-.22-.12-.452-.04-.23-.16-.314-.384-.314h-.2v.768l-.02.002zm0-.99h.206c.234 0 .432-.086.432-.306 0-.156-.112-.312-.432-.312-.092 0-.16.006-.206.014v.604zm-109.714-3.48c0 .944.448 1.434 1.432 1.434 1.06 0 1.684-.344 2.456-.7v-1.89h-2.312c-1.096 0-1.576.2-1.576 1.154v.002zm49.484-7.872c-1.06 0-1.82.34-2.592.7v7.96c.74.07 1.164.07 1.868.07 2.54 0 2.884-1.16 2.884-2.78v-3.808c0-1.192-.4-2.154-2.16-2.154v.012zm16.39 0c-1.764 0-2.374.96-2.374 2.14v4.36c0 1.2.61 2.16 2.374 2.16 1.76 0 2.372-.96 2.372-2.16v-4.36c0-1.192-.62-2.154-2.38-2.154l.008.014zm-42.114.54c-2.688-.46-3.46-.56-4.752-.56-2.324 0-3.026.506-3.026 2.48v3.72c0 1.97.7 2.48 3.026 2.48 1.294 0 2.064-.1 4.752-.56v4.208c-2.354.53-3.888.668-5.184.668-5.564 0-7.776-2.92-7.776-7.14v-3.02c0-4.228 2.212-7.154 7.776-7.154 1.296 0 2.83.14 5.184.67v4.208zm16.22 5.3h-9.504v.34c0 1.97.7 2.48 3.024 2.48 2.09 0 3.36-.1 6.044-.56v4.208c-2.586.53-3.934.668-6.474.668-5.56 0-7.76-2.92-7.76-7.14v-3.46c0-3.694 1.64-6.72 7.34-6.72 5.71 0 7.34 2.99 7.34 6.72v3.46l-.01.004zm42.488-5.84c-1.76 0-2.37.96-2.37 2.146v4.366c0 1.2.61 2.16 2.37 2.16 1.76 0 2.38-.96 2.38-2.16v-4.368c0-1.194-.62-2.156-2.38-2.156v.012zm24.594 12.76h-5.614l-4.752-7.92v7.92h-5.18V1.996l5.18-.86v15.29l4.75-7.52h5.6l-5.19 8.2 5.186 8.64.02.004zm-74.426-13.2c-1.76 0-2.16.96-2.16 2.16v.666h4.32v-.672c0-1.18-.4-2.148-2.16-2.148v-.006zm24.192 6.36c0 4.08-1.18 7.06-8.26 7.06-2.552 0-4.052-.228-6.872-.66V1.992l5.18-.86v8.154c1.12-.416 2.57-.626 3.89-.626 5.18 0 6.04 2.32 6.04 6.046v4.22l.022-.016z"/></svg>