<svg viewBox="0 0 128 56" xmlns="http://www.w3.org/2000/svg" fill-rule="evenodd" clip-rule="evenodd" stroke-linejoin="round" stroke-miterlimit="1.414"><path d="M76.66 56v-.592c.886-.035 1.182-.37 1.182-.923v-9.25c0-.8-.22-.926-1.183-.963v-.595l2.66-.11v1.74h.04c.27-.89 1.03-1.74 2.21-1.74 2.11 0 3.164 2.76 3.164 4.644 0 2.56-1.314 4.65-3.33 4.65-.96 0-1.573-.52-1.94-1.2h-.04v2.83c0 .557.297.89 1.37.926V56h-4.14zM21.15 39.904l2.796-.11v10.86c0 1 .333 1.295 1.073 1.277v.6l-2.6.11v-1.3h-.04c-.405.87-1.017 1.52-2.145 1.52-1.664 0-3.2-1.7-3.2-4.61 0-2.68 1.46-4.68 3.403-4.68.87 0 1.5.52 1.87 1.24l.04-.02v-3.33c0-.8-.244-.93-1.206-.965V39.9zm12.513 12.73v-.59c.778-.038 1.073-.372 1.073-.926v-5.035c0-1.258-.22-1.665-1.145-1.702v-.59l2.56-.11v2.15h.04c.243-.96.91-2.253 2.017-2.253.685 0 1.35.574 1.35 1.61 0 .796-.386 1.204-.87 1.204-.406 0-.833-.26-.833-1.092 0-.444.26-.91.798-.91-.094-.143-.277-.22-.482-.22-1.256.02-1.83 2.72-1.83 4.33v2.63c0 .554.298.888 1.555.925v.59h-4.22zm14.677 0v-.59c.89-.038 1.186-.372 1.186-.926v-9.62c0-.632-.316-.964-1.223-1v-.594l2.814-.11v11.324c0 .554.295.888 1.183.925v.59h-3.96zm37.175 0v-.59c.777-.038 1.073-.372 1.073-.926v-5.035c0-1.258-.22-1.665-1.146-1.702v-.59l2.552-.11v2.15h.038c.24-.96.907-2.253 2.017-2.253.68 0 1.35.574 1.35 1.61 0 .796-.39 1.204-.87 1.204-.41 0-.84-.26-.84-1.092 0-.444.26-.91.794-.91-.093-.143-.277-.22-.48-.22-1.258.02-1.83 2.72-1.83 4.33v2.63c0 .554.294.888 1.552.925v.59h-4.22zm-4.232-.37c.982 0 1.646-1.184 1.646-3.996 0-2.85-.67-3.996-1.61-3.996-.97 0-1.89 1.146-1.89 4.29 0 2.852 1.09 3.702 1.85 3.702zm-60.89 0c.98 0 1.963-.813 1.963-3.996 0-2.628-.686-3.996-1.814-3.996-1.017 0-1.684 1.146-1.684 3.996s.61 3.996 1.534 3.996zm73.552-4.108c0 2.59.944 4 2.183 4 1.61 0 2.185-1.41 2.368-2.668l.592.112c-.166 1.647-1.07 3.257-3.143 3.257-2.296 0-3.813-2.332-3.813-4.646 0-2.71 1.478-4.64 3.57-4.64 2.055 0 3.35 1.93 3.35 4.59h-5.107zm-49.26-.258c-1.482.518-2.813 1.222-2.813 2.794 0 .98.445 1.463 1.017 1.463.94 0 1.79-1.112 1.79-3.202v-1.055zm-17.304.258c0 2.59.95 4 2.19 4 1.61 0 2.18-1.41 2.37-2.668l.59.112c-.163 1.647-1.07 3.257-3.144 3.257-2.293 0-3.81-2.332-3.81-4.646 0-2.71 1.48-4.64 3.57-4.64 2.054 0 3.35 1.93 3.35 4.59h-5.11zm-16.63 0c0 2.59.945 4 2.18 4 1.61 0 2.187-1.41 2.37-2.668l.595.112c-.17 1.647-1.073 3.257-3.147 3.257-2.292 0-3.81-2.332-3.81-4.646 0-2.71 1.48-4.64 3.57-4.64 2.053 0 3.35 1.93 3.35 4.59H10.75zm86.5-.704c0-2.367-.557-3.292-1.538-3.292-1.055 0-1.757.925-1.757 3.292h3.295zm-66.564 0c0-2.367-.557-3.292-1.537-3.292-1.057 0-1.76.925-1.76 3.292h3.295zm-16.64 0c0-2.367-.555-3.292-1.535-3.292-1.054 0-1.76.925-1.76 3.292h3.294zm53.806 5.18v-.59c.83-.11 1.314-.37 1.867-1.223l1.536-2.37-2.37-3.59c-.24-.37-.408-.45-.998-.488v-.59h3.664v.59c-.578 0-.835.055-.835.39 0 .257.204.426 1.5 2.424 1.15-1.816 1.33-2.017 1.33-2.406 0-.26-.202-.41-.886-.41v-.59h3.33v.59c-.724 0-1.24.297-1.665.91l-1.702 2.495 2.274 3.48c.37.573.667.682 1.353.776v.59h-3.89v-.59c.704 0 .853-.164.853-.406 0-.26-.168-.463-1.555-2.554-1.167 1.85-1.37 2.2-1.37 2.44 0 .32.295.483.85.52v.59h-3.29zm-20.05-2.55c0 1.942-.387 2.775-1.536 2.775-.89 0-1.387-.445-1.498-1.443h-.037c-.445.83-1 1.443-2.294 1.443-1.423 0-2.26-.87-2.26-2.09 0-2.11 2.927-2.982 4.517-3.572v-1.517c0-1.055-.48-1.518-1.46-1.518-.647 0-1.182.202-1.572.665.594.057.78.502.78 1.037 0 .666-.41 1.073-.926 1.073-.517 0-.89-.37-.89-1.11 0-1.257 1.187-2.257 2.797-2.257 2.07 0 2.867.944 2.867 2.33v5.145c0 .536.13.78.386.78.35 0 .5-.41.537-1.74h.59zm9.88 2.55v-.59c1.15-.074 1.37-.297 1.37-1.256v-9.03c0-.963-.22-1.185-1.37-1.26v-.592h8.735v4.848h-.592c-.443-2.515-1.11-4.255-3.272-4.255-1.312 0-1.682.408-1.682 1.258v3.85h.555c1.316 0 1.65-.686 1.854-2.224h.59v5.11h-.593c-.26-1.55-.74-2.18-1.89-2.18h-.515v4.48c0 .74.275 1.26 1.384 1.26 2.39 0 3.684-1.59 3.83-4.44h.593v5.03h-9zm-57.68 0v-.59c1.15-.073 1.37-.296 1.37-1.255v-9.03c0-.963-.22-1.185-1.37-1.26v-.592H8.72v4.848h-.59c-.28-2.425-1.04-4.146-3.203-4.146-1.37 0-1.74.3-1.74 1.15v3.848H3.7c1.15 0 1.63-.74 1.89-2.33h.59v5.363h-.59c-.26-1.59-.74-2.33-1.89-2.33h-.515v4.48c0 .958.22 1.18 1.702 1.256v.59H0zm107.828 0v-3.327h.593c.18 1.167.79 2.96 2.29 2.96.924 0 1.63-.554 1.63-1.61 0-2.386-4.44-1.332-4.44-4.59 0-1.145.83-2.496 2.46-2.496 1.014 0 1.42.55 1.76.55.18 0 .22-.208.29-.338h.59v2.924h-.59c-.203-1.037-.7-2.555-1.98-2.555-.814 0-1.35.535-1.35 1.333 0 2.22 4.587 1.22 4.587 4.624 0 1.147-.905 2.74-2.866 2.74-1.24 0-1.612-.667-2.052-.667-.206 0-.297.28-.335.445h-.594zm-7.21 0v-3.327h.593c.18 1.167.79 2.96 2.29 2.96.924 0 1.626-.554 1.626-1.61 0-2.386-4.44-1.332-4.44-4.59 0-1.145.832-2.496 2.46-2.496 1.016 0 1.425.55 1.757.55.184 0 .22-.208.295-.338h.59v2.924h-.59c-.2-1.037-.7-2.555-1.98-2.555-.813 0-1.35.535-1.35 1.333 0 2.22 4.59 1.22 4.59 4.624 0 1.147-.906 2.74-2.867 2.74-1.24 0-1.61-.667-2.053-.667-.206 0-.296.28-.33.445h-.6zm17.745-23.126c0-2.65 2.16-4.804 4.837-4.804 2.664 0 4.81 2.154 4.81 4.805 0 2.682-2.146 4.835-4.81 4.835-2.68 0-4.83-2.153-4.83-4.835zm8.797 0c0-2.18-1.768-3.96-3.96-3.96-2.208 0-3.988 1.78-3.988 3.96 0 2.206 1.78 3.99 3.986 3.99 2.193 0 3.96-1.784 3.96-3.99zm-4.986.322v2.45h-.886V26.61h1.833c1.04 0 2.12.28 2.12 1.565 0 .654-.4 1.166-1.157 1.32v.026c.784.16.875.5.963 1.12.074.54.14 1.13.332 1.647h-1.13c-.065-.322-.154-.682-.194-1.014-.06-.49-.06-.936-.317-1.207-.22-.23-.515-.203-.82-.23h-.744zm.936-.884c.833-.027 1.025-.373 1.025-.808 0-.422-.192-.64-.9-.64h-1.06v1.448h.935zm-69.32-.39c-2.892 0-4.69-2.696-4.69-5.508 0-3.01 1.563-5.9 4.69-5.9 3.245 0 4.534 2.89 4.534 5.9 0 2.852-1.37 5.51-4.536 5.51zM25.9 19.67c.494-2.13 2.145-3.52 4.206-3.52 2.27 0 3.837 1.35 4.25 3.52H25.9zm78.028 13.987l-4.646-5.21-4.602 5.21H85l9.463-10.636L85 12.38h9.987l4.69 5.167 4.514-5.168h9.64l-9.42 10.59 9.55 10.68h-10.03zm-45.38 0v-2.17h-.09c-1.43 2.128-3.777 3.387-6.338 3.387-5.933 0-10.213-4.794-10.89-10.342H25.65c0 2.477 2.064 4.562 4.456 4.562 2.063 0 2.848-.435 3.88-1.91h7.628c-1.998 4.905-5.775 7.596-11.508 7.596-6.817 0-12.156-4.906-12.156-11.896 0-1.18.188-2.27.457-3.314H9.484v14.087H.58V.142h19.803v7.47H9.485v4.77h9.985v4.5c1.98-3.58 5.77-5.81 10.638-5.81 5.994 0 9.997 3.196 11.53 8.373 1.33-4.695 5.196-8.28 10.397-8.28 2.52 0 4.69.695 6.426 2.692h.09V.142H85v7.47H74.275v4.77H85v7.186H74.275v6.596H85v7.49H58.55z"/></svg>