<svg viewBox="0 0 129 67" xmlns="http://www.w3.org/2000/svg" fill-rule="evenodd" clip-rule="evenodd" stroke-linejoin="round" stroke-miterlimit="1.414">
    <path d="M27.061 58.96c2.162 0 3.837 1.663 3.837 3.817 0 2.204-1.675 3.921-3.837 3.921h-.014a3.85 3.85 0 0 1-3.832-3.921c0-2.154 1.683-3.817 3.846-3.817zm8.429.126h1.05v4.833c0 1.146.742 1.817 1.887 1.817 1.155 0 1.909-.671 1.909-1.834v-4.816h1.046v4.833c0 1.667-1.196 2.779-2.946 2.779-1.746 0-2.946-1.112-2.946-2.779v-4.833zm61.596-.126c2.162 0 3.833 1.663 3.833 3.817 0 2.204-1.671 3.921-3.833 3.921h-.014a3.855 3.855 0 0 1-3.837-3.837l.001-.084c0-2.154 1.687-3.817 3.85-3.817zm-22.879 7.609h-1.088l-.754-2.15h-2.821l-.742 2.15h-1.083l2.696-7.484h1.1l2.692 7.484zm14.329 0h-1.05v-7.483h1.05v7.483zm-72.459 0h-1.05v-7.483h4.121v.912h-3.071v2.458h2.617v.913h-2.617v3.2zm90.592 0h-1.046v-7.483h1.034l3.329 4.866c.275.404.625 1.079.625 1.079h.021s-.071-.666-.071-1.079v-4.866h1.046v7.483h-1.025l-3.342-4.854c-.275-.413-.625-1.092-.625-1.092h-.021s.075.671.075 1.092v4.854zm-59.133 0h-1.05v-7.483h1.037l3.329 4.866c.275.404.625 1.079.625 1.079h.021s-.075-.666-.075-1.079v-4.866h1.05v7.483h-1.029l-3.337-4.854c-.275-.413-.625-1.092-.625-1.092h-.021s.075.671.075 1.092v4.854zm33.141 0h-1.05v-6.571h-2.562v-.912h6.175v.912h-2.563v6.571zm-20.516 0h-2.479v-7.483h2.479c2.291 0 3.796 1.366 3.796 3.733 0 2.371-1.505 3.75-3.796 3.75zm-33.1-.833c1.525 0 2.754-1.275 2.754-2.959 0-1.633-1.229-2.862-2.754-2.862a2.796 2.796 0 0 0-2.767 2.862c0 1.684 1.242 2.959 2.767 2.959zm70.025 0c1.525 0 2.754-1.275 2.754-2.959 0-1.633-1.229-2.862-2.754-2.862a2.796 2.796 0 0 0-2.767 2.862c0 1.684 1.238 2.959 2.767 2.959zm-37-.075c1.687 0 2.787-.996 2.787-2.842 0-1.833-1.112-2.821-2.787-2.821h-1.354v5.662h1.354zm10.866-5.545s-.166.679-.295 1.062l-.838 2.371h2.271l-.829-2.371a15.384 15.384 0 0 1-.288-1.062h-.021zm31.88-23.338H99.69V35.12c0-1.383-2.133-2.129-4.096-2.129-2.333 0-4.192 1.083-4.192 3.279 0 2.537 2.4 3.383 5.071 4.4 3.517 1.317 7.005 2.671 7.005 7.1 0 4.571-3.725 6.933-8.155 6.933-3.72 0-7.883-1.654-7.883-5.071v-2.504h3.117v1.759c0 1.758 2.266 2.808 4.766 2.808 2.742 0 4.738-1.283 4.738-3.654 0-2.771-2.808-3.684-5.754-4.834-3.142-1.187-6.354-2.537-6.354-6.766 0-4.5 3.616-6.425 7.641-6.425 3.588 0 7.238 1.35 7.238 3.954v2.808zm-46.105 0c4.871 0 7.409 3.588 7.409 8.017 0 .442-.104 1.25-.104 1.25H51.519c.2 3.792 2.875 5.821 5.917 5.821 2.979 0 5.108-1.929 5.108-1.929l1.354 2.404s-2.571 2.362-6.662 2.362c-5.379 0-9.067-3.887-9.067-8.962 0-5.446 3.688-8.963 8.558-8.963zm-17.42 0c4.87 0 7.408 3.588 7.408 8.017 0 .442-.104 1.25-.104 1.25H34.098c.2 3.792 2.875 5.821 5.917 5.821 2.979 0 5.108-1.929 5.108-1.929l1.354 2.404s-2.57 2.362-6.666 2.362c-5.375 0-9.063-3.887-9.063-8.962 0-5.446 3.688-8.963 8.559-8.963zM26.486 54.299h-8.388v-2.533h2.571v-11.3c0-.509-.271-.742-.746-.742h-2.129v-2.537h3.854c1.488 0 2.196.608 2.196 1.995v1.08c0 .679-.062 1.183-.062 1.183h.062c.783-2.5 2.775-4.463 5.417-4.463.437 0 .846.067.846.067v3.246s-.409-.1-.95-.1c-3.65 0-5.209 3.687-5.209 7.033v4.538h2.538v2.533zm89.371 0h-10.213v-2.637h2.975V33.024h-2.975V30.42h10.179c1.996 0 3.484.1 5.075.575 4.563 1.421 7.542 5.546 7.542 11.362 0 5.788-2.875 9.813-7.542 11.3-1.558.509-3.145.642-5.041.642zM16.982 36.07h-2.946v-2.742H6.798v7.917h8.254v2.771H6.798v7.646h3.246v2.637H.44v-2.637h2.975V33.024H.44V30.42h16.542v5.65zM77.09 54.299H65.794v-2.637h2.975V33.024h-2.975V30.42h10.858c1.725 0 3.009.171 4.192.708 1.896.85 3.283 2.809 3.283 5.379 0 2.334-1.15 4.196-3.012 5.142v.067c2.571.746 3.958 3.079 3.958 5.783 0 3.146-1.929 5.517-4.396 6.358-1.15.375-2.266.442-3.587.442zm.137-2.771c.675 0 1.488-.066 2.13-.341 1.387-.575 2.266-2.063 2.266-3.855 0-2.47-1.621-4.091-4.125-4.091h-5.346v8.287h5.075zm38.425 0c1.559 0 2.842-.137 4.063-.612 3.212-1.113 5.208-4.192 5.208-8.559 0-4.391-1.996-7.475-5.175-8.621-1.321-.475-2.537-.541-4.096-.541h-3.65v18.333h3.65zm-72.32-7.579c-.1-3.008-1.93-4.567-4.092-4.567-2.504 0-4.533 1.692-5.008 4.567h9.1zm17.42 0c-.1-3.008-1.929-4.567-4.091-4.567-2.504 0-4.534 1.692-5.009 4.567h9.1zm16.405-3.483c2.166 0 3.521-1.488 3.521-3.654 0-1.388-.542-2.571-1.559-3.142-.675-.342-1.45-.475-2.467-.475h-4.5v7.271h5.005zM58.078 7.557l-6.346-3.666-6.342 3.666 6.342 3.663.004 6.312-12.696 7.329v7.33l19.038-10.992v-6.313l-.005-.004.005.004V7.557zM45.39.224L26.348 11.22v13.642l6.346 3.662 6.346-3.662-6.346-3.667v-6.313L45.39 7.553V.224zm15.4 8.583h-.187V7.562h.287l.346.991h.008l.354-.991h.288v1.245h-.196v-.616l.004-.242.009-.183h-.005l-.375 1.041h-.179l-.362-1.041h-.009c.013.154.017.3.017.433v.608zm-.742 0h-.204v-1.07h-.366v-.175h.937v.175h-.367v1.07z" fill="#231f20" fill-rule="nonzero"/>
</svg>
