<svg viewBox="0 0 129 110" xmlns="http://www.w3.org/2000/svg" fill-rule="evenodd" clip-rule="evenodd" stroke-linejoin="round" stroke-miterlimit="1.414">
    <path d="M81.857 83.513l.042.002a6.757 6.757 0 0 1 4.367 11.616 7.464 7.464 0 0 1 5.181 7.107 7.461 7.461 0 0 1-7.443 7.461v-.075H73.941c-.168 0-.329-.028-.477-.079-.574-.082-1.018-.634-1.018-1.305V90.516c0-.033.001-.066.003-.098h-.038a7.127 7.127 0 0 1 6.313-6.867.472.472 0 0 1 .186-.038h2.684v-.006c.087.001.174.002.26.006h.003zM13.922 97.388h-.028a7.104 7.104 0 0 1 12.63-4.016.612.612 0 0 0-.037.035 1.145 1.145 0 0 1-1.455 1.764l-.027.044a6.637 6.637 0 0 0-.119-.173 1.11 1.11 0 0 1-.157-.209 4.78 4.78 0 0 0-3.744-1.804 4.775 4.775 0 0 0-3.447 1.464 4.772 4.772 0 0 0-1.249 3.493v10.459a1.183 1.183 0 0 1-2.367 0V97.388zm16.88 5.265a7.107 7.107 0 0 0 11.07 3.152l.013.013a1.145 1.145 0 0 1 1.633 1.605l.006.006-.063.052c-.04.037-.081.071-.126.102a9.405 9.405 0 0 1-15.261-7.36 9.406 9.406 0 1 1 18.809-.217 1.155 1.155 0 0 1-1.139 1.35H31.606a1.146 1.146 0 0 0-.735 1.297h-.069zm21.573 0a7.108 7.108 0 0 0 11.07 3.152l.013.013a1.145 1.145 0 0 1 1.632 1.605l.006.006-.063.052c-.039.037-.081.07-.125.101a9.405 9.405 0 0 1-15.261-7.359c0-5.194 4.211-9.406 9.405-9.406 5.121 0 9.286 4.093 9.403 9.186a1.155 1.155 0 0 1-1.138 1.353H53.178a1.145 1.145 0 0 0-.735 1.297h-.068zm48.703 6.882c3.439-.394 6.637-3.714 6.08-7.253-.236-1.498-1.217-3.042-2.841-4.117-1.27-.839-7.47-3.771-8.558-4.524-.668-.511-1.976-1.911-2.073-2.813-.261-2.432 1.067-3.472 2.411-4.094.554-.261 1.271-.357 1.565-.392 2.51-.292 3.324.163 5.62 1.253.237.112.472.117.725.077.773-.121 1.306-.46 1.185-1.231-.091-.573-.409-.836-1.008-1.132-1.6-.792-4.601-1.74-7.129-1.343-.043.006-.084.015-.126.022l-.006-.035c-3.507.583-6.287 3.755-5.733 7.274.298 1.892 1.753 3.477 3.24 4.445.997.836 4.597 2.283 8.16 4.259 1.264.7 1.774 1.393 1.959 2.96.193 1.627-1.692 3.474-3.164 4.033-2.29.672-4.981-.281-6.774-1.229-.536-.349-.782-.533-1.274-.456a1.417 1.417 0 0 0-1.178 1.618c.082.513.377.873.88 1.095 3.189 1.403 5.339 1.892 8.039 1.583zm-98.109-9.328v8.374c0 .495-.553.895-1.236.895-.681 0-1.235-.4-1.235-.895V89.859c0-.166.062-.452.171-.76a7.42 7.42 0 0 1 6.672-5.609h5.672a1.235 1.235 0 0 1 0 2.471H8a4.982 4.982 0 0 0-2.361.449 4.917 4.917 0 0 0-2.67 3.565v3.56h.143v.35a1.762 1.762 0 0 0 1.765 1.766h.583v.011h4.766a1.214 1.214 0 1 1 0 2.427H5.46v.002h-.583a1.764 1.764 0 0 0-1.765 1.765v.351h-.143zm112.951 9.122h-5.292a.817.817 0 0 1-.131-.011c-.573-.083-1.016-.636-1.016-1.306V87.724a4.057 4.057 0 0 1 4.041-3.68l.059.001-.001-.014h2.34c.061 0 .152.008.266.022 6.846.269 12.312 5.824 12.312 12.638 0 6.887-5.584 12.489-12.531 12.646v-.009l-.047.001zM74.779 98.786v8.505h9.225v-.008a5.113 5.113 0 0 0 0-10.224v-.048a1.19 1.19 0 0 1-.159.011h-2.15l-.101.001v-.001h-6.008a1.728 1.728 0 0 0-.752 1.422v.342h-.055zm42.258-12.596h-3.873a1.725 1.725 0 0 0-1.351 1.667v17.289h.011v.343a1.717 1.717 0 0 0 1.35 1.68h4.031c5.202-.736 9.2-5.147 9.2-10.478 0-5.388-4.084-9.836-9.368-10.501zM30.865 97.721a1.146 1.146 0 0 0 1.13 1.321l.013-.001v.005h10.948v-.01c.029.003.057.006.086.006.633 0 1.145-.514 1.145-1.147v-.015a7.106 7.106 0 0 0-13.359-.159h.037zm21.573 0a1.144 1.144 0 0 0 1.129 1.321l.013-.001v.005h10.949v-.01a.81.81 0 0 0 .086.006c.632 0 1.145-.514 1.145-1.147v-.018a7.107 7.107 0 0 0-13.359-.156h.037zm29.32-11.875h-2.741v.03a4.786 4.786 0 0 0-4.255 4.416c.011.073.017.148.017.224v2.167h.055v.341a1.728 1.728 0 0 0 1.171 1.632h5.957c2.164-.338 3.818-2.175 3.818-4.391 0-2.286-1.759-4.167-4.022-4.419zm7.108-61.808c.567 1.923.464 3.511-.454 4.428-2.148 2.149-7.947-.138-13.176-5.114a27.14 27.14 0 0 1-1.083-1.023c-1.89-1.891-3.362-3.905-4.302-5.759-1.831-3.285-2.29-6.186-.905-7.571.754-.753 1.961-.959 3.433-.694a70.63 70.63 0 0 1 3.336-1.976 36.432 36.432 0 0 0-16.894-4.124c-20.214 0-36.601 16.385-36.601 36.6 0 20.213 16.387 36.6 36.601 36.6s36.602-16.386 36.602-36.6a36.426 36.426 0 0 0-4.707-17.957 70.341 70.341 0 0 1-1.85 3.19zm6.15-22.247c4.031 4.031-7.147 21.747-9.036 23.637-1.889 1.887-6.689.151-10.72-3.88-4.032-4.03-5.769-8.832-3.879-10.721C73.27 8.937 90.984-2.24 95.016 1.791zM38.473 6.057c-6.155-3.493-14.914-7.378-17.701-4.592-2.823 2.822 1.205 11.779 4.733 17.945A37.86 37.86 0 0 1 38.473 6.057z" fill-rule="nonzero"/>
</svg>
