<svg viewBox="0 0 128 128" xmlns="http://www.w3.org/2000/svg" fill-rule="evenodd" clip-rule="evenodd" stroke-linejoin="round" stroke-miterlimit="1.414"><path d="M52.512 109.67h.024v.08h-.024v-.08zm69.584-31.992c-.56-.216-1.2-.032-1.728.112.544.016 1.168-.032 1.728-.112zm4.232-1.56c-.216-.168-.576-.272-.496-.664.472-.76 1.4-.616 2.168-.72l-.552-.064c-.208-.112-.312-.336-.376-.56-.144-.624.552-.88.864-1.256-.384-.048-75.856 0-75.856 0-.096.624.168 1.104.264 1.632.216.456.496.88.872 1.192.008.272-.12.48-.264.688-.152.192-.416.144-.608.152v.096c.568.752.376 1.872 1.072 2.568.472 1.504-.928 2.368-1.768 3.184.304-.008.456.368.72.408.544.128 1.112-.128 1.592.064.6.408.768 1.136.696 1.84-.888.664-1.336 1.856-2.368 2.376-2.736 3.456-6.32 6.28-9.64 8.824l-7.6 5.712c-.832.392-5.68 4.096-7.448 5.096-.76.472-1.552.872-2.456 1-.36-.104-.52-.384-.688-.712-.432-.728.168-1.488.256-2.16.736-2.296 1.56-4.64 2.576-6.856.384-.792.704-1.536 1.12-2.304.216-.576.608-.992.576-1.696 1.192-1.712 1.576-3.632 2.864-5.336.456-.04.488-.64.8-.872.68-2.648 2.112-4.688 3.504-6.984.144-.456.52-.816.544-1.344 1.08-1.232 1.872-2.768 2.72-4.216.512-.784 1.464-2.352 1.464-2.352H27.368s-2.152 3.224-3.056 4.92c-.312.848-.744 1.744-1.192 2.56-.872 2.256-2.376 4.376-3.176 6.632-.248.76-.752 1.488-1.008 2.28-.888 1.992-1.808 3.832-2.656 5.808.024.272-.112.56-.232.824-.352.96-.912 1.832-1.24 2.808-.168.096-2.176 6.112-2.192 6.408-.336 1.048-.672 2.088-.984 3.152-.08.616-.456 2.44-.64 2.656-.24 1.816-.792 3.912-.08 5.72.168.912 1.656 4.648 2.08 5.6l-.032.032c.416.896.912 1.744 1.416 2.592.64.84 1.416 1.896 2.512 1.936.8.704 1.912.12 2.856.248.976-.08 1.68-.912 2.576-1.096 1.968-1.688 8.216-4.552 9.008-5.152.336-.176 11.896-8.088 11.896-8.088 4.336-3.104 8.64-6.568 12.648-10.408 1.808-2.008 3.92-3.544 5.568-5.6.896-.168.92-1.592 1.96-1.408.376.312.448.92.328 1.376-.024.408-.376.664-.408 1.056 0 0 .64-.144.784.04.168.824-.496 3.064-.496 3.064.456-.848 1-1.928 1.736-2.656.128-.12.288-.016.432 0 .08.232.32.4.224.712-.72 1.672-.312 4.016-1.896 5.224-.096.12-.208.744-.208.96l-.784 1.632c-.584.888-.648 2.16-1.216 3.128-.216.464-.576 1.016-.68 1.472l.392-.448c.208-.176.544-.208.728.04.312.248.128.704.176.992-.296 1.032-.864 1.848-1.36 2.76.024.2-.168.352-.12.52.096-.184.112-.32.24-.496.216-.176.424-.672.776-.464.288.536-.016 1.272-.088 1.784 1.168-1.328 1.736-3.008 2.6-4.576 3.8-5.672 7.016-11.768 11.296-17.216.592-.64.808-1.552 1.528-2.032 2-.472 31.544-6.888 34.592-7.592 1.44-1.432 3.392-1.56 5.136-2.192l-.72-.032c-.208-.248-.704-.368-.52-.808l1.816-.872c-.936-.032-1.696.032-2.656.064l-.088.048c-1.888.04-3.752-.024-5.568-.184-1.072-1.144-2.696-.28-4.016-.496-.144-.032-.4-.136-.336-.376.08-.232.312-.36.512-.44 3.624-.144 6.976-.432 10.568-.688-.584-.248-1.568.208-2.112-.432-.032-.272-.104-.624.208-.784.832-.184 7.528-.352 7.528-.352 1.504-.064 2.984-.632 4.456-.336.36-.392.864.104 1.264-.184.104 0 .296.016.264-.152-.448-.264-.952.104-1.384-.224zm-76.296-7.976v-.056h-.024l.024.056zm36.232-17.568l-2.64-2.696H72.392l-2.624 2.672v14.88l2.64 2.656h11.2l2.656-2.688V50.574zm-11.576 2.32h6.64V63.07h-6.64V52.894zm31.528 8.728v3.776l-2.664 2.688H92.36l-2.64-2.656V50.55l2.624-2.672h11.232l2.64 2.696v3.712h-4.936v-1.392h-6.64V63.07h6.64v-1.448h4.936zm-89.72 3.776l-2.656 2.688H2.64L0 65.43V50.55l2.624-2.672h11.232l2.64 2.696v3.744H11.56v-1.424H4.92V63.07h6.64v-2.648H8.736V55.67h7.76v9.728zm2.984-9.776h7.456v4.616H19.48v-4.616zm100.64-7.744h5.752l-7.264 10.136 7.288 10.072h-5.848l-5.728-7.96v7.96h-4.92l-.024-20.208h4.944v8.056l5.8-8.056zm-53.616 0h-4.912v7.792h-6.64v-7.792h-4.944l.024 20.208h4.92v-7.664h6.64v7.664h4.936l-.024-20.208zm-34.136 12.52l8.952.024v2.648h-6.632v-1.448H29.76v3.808l2.64 2.656h11.2l2.656-2.688v-7.104l-2.616-2.64h-8.944l-.008-2.76h6.632v1.424h4.936v-3.744l-2.64-2.696H32.384L29.76 50.55v7.184l2.608 2.664zm39.888-31.6l6.264-5.872c1.928-1.712 9.744-8.176 11.984-8.992 1.272-.744 2.968-1.896 4.272-.512 1.352 2.352-.416 4.688-1.264 6.696-.568 1.488-1.184 3.056-1.752 4.592-.616 1.08-3.072 6.104-3.328 6.672-1.424 3.248-3.776 5.776-4.968 9.192-.032.28-.184.624-.016.872.232.184.4-.104.592-.216.864-1.224 1.616-2.544 2.52-3.6.408.16.68-.296.976-.664.216-.096.344.312.6.232.408-.408.704-1.04 1.064-1.56.736-.992 1.312-2.04 2.096-2.944l.064.072c-.192.688-.656 1.36-.976 2.04.088.592-.472.824-.384 1.368h.024c.192-.264.488-.464.784-.512 1.08-1.432 2.024-3.016 3.072-4.392.144-.24.248.096.32.224.344.224.744-.248 1.056-.576.168-.536.56-.896.792-1.392 1.104-2.392 3-4.024 4.16-6.416 1.784-4.4 3.688-4.88 4.08-10.144.232-1.288.064-2.736-.096-3.928-.656-2.48-1.576-5.8-3.8-6.304-.744-.664-1.304-1.52-2.232-1.632-3.84-.944-7.392 1.096-10.848 2.824-.376.16-.624.472-1.024.528-1.232.256-2.2 1.576-3.488 1.592-3.144 2.504-6.472 4.472-9.568 7.176-.576.688-1.208 1.368-1.896 1.696-2.768 2.272-5.472 4.944-8.128 7.472l-.032.12c-3.2 3.24-6.472 6.72-9.544 10.224v.08l-9.28 10.736h13.456c2.736-3.08 11.496-11.904 14.448-14.752z"/></svg>