<svg viewBox="0 0 64 64" xmlns="http://www.w3.org/2000/svg" fill-rule="evenodd" clip-rule="evenodd" stroke-linejoin="round" stroke-miterlimit="1.414"><path d="M26.256 54.836h.012v.04h-.012v-.04zM61.048 38.84c-.28-.108-.6-.016-.864.056.272.008.584-.016.864-.056zm2.116-.78c-.108-.084-.288-.136-.248-.332.236-.38.7-.308 1.084-.36l-.276-.032c-.104-.056-.156-.168-.188-.28-.072-.312.276-.44.432-.628-.192-.024-37.928 0-37.928 0-.048.312.084.552.132.816.108.228.248.44.436.596.004.136-.06.24-.132.344-.076.096-.208.072-.304.076v.048c.284.376.188.936.536 1.284.236.752-.464 1.184-.884 1.592.152-.004.228.184.36.204.272.064.556-.064.796.032.3.204.384.568.348.92-.444.332-.668.928-1.184 1.188-1.368 1.728-3.16 3.14-4.82 4.412l-3.8 2.856c-.416.196-2.84 2.048-3.724 2.548-.38.236-.776.436-1.228.5-.18-.052-.26-.192-.344-.356-.216-.364.084-.744.128-1.08.368-1.148.78-2.32 1.288-3.428.192-.396.352-.768.56-1.152.108-.288.304-.496.288-.848.596-.856.788-1.816 1.432-2.668.228-.02.244-.32.4-.436.34-1.324 1.056-2.344 1.752-3.492.072-.228.26-.408.272-.672.54-.616.936-1.384 1.36-2.108.256-.392.732-1.176.732-1.176h-6.756s-1.076 1.612-1.528 2.46c-.156.424-.372.872-.596 1.28-.436 1.128-1.188 2.188-1.588 3.316-.124.38-.376.744-.504 1.14-.444.996-.904 1.916-1.328 2.904.012.136-.056.28-.116.412-.176.48-.456.916-.62 1.404-.084.048-1.088 3.056-1.096 3.204-.168.524-.336 1.044-.492 1.576-.04.308-.228 1.22-.32 1.328-.12.908-.396 1.956-.04 2.86.084.456.828 2.324 1.04 2.8l-.016.016c.208.448.456.872.708 1.296.32.42.708.948 1.256.968.4.352.956.06 1.428.124.488-.04.84-.456 1.288-.548.984-.844 4.108-2.276 4.504-2.576.168-.088 5.948-4.044 5.948-4.044 2.168-1.552 4.32-3.284 6.324-5.204.904-1.004 1.96-1.772 2.784-2.8.448-.084.46-.796.98-.704.188.156.224.46.164.688-.012.204-.188.332-.204.528 0 0 .32-.072.392.02.084.412-.248 1.532-.248 1.532.228-.424.5-.964.868-1.328.064-.06.144-.008.216 0 .04.116.16.2.112.356-.36.836-.156 2.008-.948 2.612-.048.06-.104.372-.104.48l-.392.816c-.292.444-.324 1.08-.608 1.564-.108.232-.288.508-.34.736l.196-.224c.104-.088.272-.104.364.02.156.124.064.352.088.496-.148.516-.432.924-.68 1.38.012.1-.084.176-.06.26.048-.092.056-.16.12-.248.108-.088.212-.336.388-.232.144.268-.008.636-.044.892.584-.664.868-1.504 1.3-2.288 1.9-2.836 3.508-5.884 5.648-8.608.296-.32.404-.776.764-1.016 1-.236 15.772-3.444 17.296-3.796.72-.716 1.696-.78 2.568-1.096l-.36-.016c-.104-.124-.352-.184-.26-.404l.908-.436c-.468-.016-.848.016-1.328.032l-.044.024c-.944.02-1.876-.012-2.784-.092-.536-.572-1.348-.14-2.008-.248-.072-.016-.2-.068-.168-.188.04-.116.156-.18.256-.22 1.812-.072 3.488-.216 5.284-.344-.292-.124-.784.104-1.056-.216-.016-.136-.052-.312.104-.392.416-.092 3.764-.176 3.764-.176.752-.032 1.492-.316 2.228-.168.18-.196.432.052.632-.092.052 0 .148.008.132-.076-.224-.132-.476.052-.692-.112zm-38.148-3.988v-.028h-.012l.012.028zm18.116-8.784l-1.32-1.348h-5.616l-1.312 1.336v7.44l1.32 1.328h5.6l1.328-1.344v-7.412zm-5.788 1.16h3.32v5.088h-3.32v-5.088zm15.764 4.364V32.7l-1.332 1.344H46.18l-1.32-1.328v-7.44l1.312-1.336h5.616l1.32 1.348v1.856H50.64v-.696h-3.32v5.088h3.32v-.724h2.468zM8.248 32.7L6.92 34.044h-5.6L0 32.716v-7.44l1.312-1.336h5.616l1.32 1.348v1.872H5.78v-.712H2.46v5.088h3.32v-1.324H4.368v-2.376h3.88V32.7zm1.492-4.888h3.728v2.308H9.74v-2.308zm50.32-3.872h2.876l-3.632 5.068 3.644 5.036h-2.924l-2.864-3.98v3.98H54.7l-.012-10.104h2.472v4.028l2.9-4.028zm-26.808 0h-2.456v3.896h-3.32V23.94h-2.472l.012 10.104h2.46v-3.832h3.32v3.832h2.468l-.012-10.104zM16.184 30.2l4.476.012v1.324h-3.316v-.724H14.88v1.904l1.32 1.328h5.6l1.328-1.344v-3.552l-1.308-1.32h-4.472l-.004-1.38h3.316v.712h2.468v-1.872l-1.32-1.348h-5.616l-1.312 1.336v3.592l1.304 1.332zm19.944-15.8l3.132-2.936c.964-.856 4.872-4.088 5.992-4.496.636-.372 1.484-.948 2.136-.256.676 1.176-.208 2.344-.632 3.348-.284.744-.592 1.528-.876 2.296-.308.54-1.536 3.052-1.664 3.336-.712 1.624-1.888 2.888-2.484 4.596-.016.14-.092.312-.008.436.116.092.2-.052.296-.108.432-.612.808-1.272 1.26-1.8.204.08.34-.148.488-.332.108-.048.172.156.3.116.204-.204.352-.52.532-.78.368-.496.656-1.02 1.048-1.472l.032.036c-.096.344-.328.68-.488 1.02.044.296-.236.412-.192.684h.012c.096-.132.244-.232.392-.256.54-.716 1.012-1.508 1.536-2.196.072-.12.124.048.16.112.172.112.372-.124.528-.288.084-.268.28-.448.396-.696.552-1.196 1.5-2.012 2.08-3.208.892-2.2 1.844-2.44 2.04-5.072.116-.644.032-1.368-.048-1.964-.328-1.24-.788-2.9-1.9-3.152-.372-.332-.652-.76-1.116-.816-1.92-.472-3.696.548-5.424 1.412-.188.08-.312.236-.512.264-.616.128-1.1.788-1.744.796-1.572 1.252-3.236 2.236-4.784 3.588-.288.344-.604.684-.948.848-1.384 1.136-2.736 2.472-4.064 3.736l-.016.06c-1.6 1.62-3.236 3.36-4.772 5.112v.04l-4.64 5.368h6.728c1.368-1.54 5.748-5.952 7.224-7.376z" fill="#fff"/></svg>