<svg viewBox="0 0 128 20" xmlns="http://www.w3.org/2000/svg" fill-rule="evenodd" clip-rule="evenodd" stroke-linejoin="round" stroke-miterlimit="1.414"><path d="M111.735 1.184l4.646-.015.03 10.61s-.11 3.032 3.667 3.04c3.663.006 3.32-3.22 3.32-3.22l-.01-10.426 4.62-.015s-.003 8.314 0 9.947c.006 3.112-.68 8-7.953 8.082-6.845.075-8.37-5.123-8.306-7.86.017-.725-.004-10.16-.004-10.16zm-15.31 17.738l-10.83-8.105v8.235h-4.832V1.315L91.75 9.34V1.156l4.936-.002.002 14.246 7.86-14.673 9.63 18.212h-5.53l-1.183-2.73-5.955.01-1.37 2.71-3.713-.016h-.002zm-66.824.086l-1.18-2.723-5.95.01-1.37 2.713h-5.4L25.5.796l9.63 18.212H29.6zM68.9 19V1.132h11.095v4.302H73.73v2.533h5.785v3.854h-5.838v2.59h6.37V19h-11.15zm-18.616-6.197c-1.095 3.64-4.662 6.414-9.077 6.51-5.19.115-9.195-4.8-9.195-9.38 0-4.582 4.187-9.21 9.3-9.21 6.84 0 8.754 5.908 8.754 5.908H44.95s-1.532-1.58-3.63-1.5c-2.06.08-4.808 1.82-4.808 4.707 0 2.774 2.29 5.146 4.617 5.12 3.73-.035 4.67-2.88 4.67-2.88h-5.43v-3.8h9.582c.85-3.972 4.63-7.546 9.12-7.546 6.84 0 8.754 5.91 8.754 5.91h-5.11S61.19 5.05 59.09 5.13c-2.06.075-4.808 1.82-4.808 4.703 0 2.772 2.29 5.144 4.617 5.12 3.74-.037 4.68-2.88 4.68-2.88h-5.43v-3.8h10.12s.11.487.13 2.042c.08 4.79-4.04 8.884-9.42 9.002-4.1.09-7.467-2.964-8.695-6.51zm-32.23-6.21S16.14.683 9.3.683C4.187.683 0 5.313 0 9.896c0 4.58 4.006 9.494 9.195 9.38 5.38-.117 9.5-4.21 9.424-9-.03-1.556-.14-2.043-.14-2.043H8.36v3.8h5.43s-.94 2.843-4.68 2.88c-2.32.024-4.61-2.348-4.61-5.122 0-2.88 2.747-4.63 4.807-4.7 2.09-.08 3.63 1.51 3.63 1.51h5.11zm5.78 6.74h3.227L25.5 9.815l-1.67 3.518zm79.048-.07h3.227l-1.56-3.517-1.67 3.518z"/></svg>