<svg viewBox="0 0 129 18" xmlns="http://www.w3.org/2000/svg" fill-rule="evenodd" clip-rule="evenodd" stroke-linejoin="round" stroke-miterlimit="1.414"><path d="M9.349 1.781c.592.002 1.187.036 1.786.102.609.067 1.217.142 1.824.224l.805.122c.265.041.533.075.804.102.055 0 .082.028.082.082-.027.481-.074.96-.143 1.436l-.203 1.417-.041.275-.041.254c0 .041-.024.065-.071.072-.048.007-.079-.01-.092-.051-.109-.584-.306-1.087-.591-1.508a3.85 3.85 0 0 0-1.049-1.049 4.385 4.385 0 0 0-1.396-.612 6.622 6.622 0 0 0-1.61-.194c-.937 0-1.81.157-2.618.469a6.392 6.392 0 0 0-2.109 1.315A6.118 6.118 0 0 0 3.27 6.274c-.346.795-.519 1.668-.519 2.619 0 1.032.189 2.007.57 2.924.38.917.9 1.718 1.559 2.404a7.328 7.328 0 0 0 2.343 1.63 7.123 7.123 0 0 0 2.924.601c.448 0 .903-.051 1.365-.153a2.276 2.276 0 0 0 1.182-.662v-4.584c0-.326-.102-.547-.305-.663a3.611 3.611 0 0 0-.693-.295 3.007 3.007 0 0 1-.326-.102 1.804 1.804 0 0 1-.326-.163c-.041-.027-.055-.058-.041-.092.013-.033.041-.05.081-.05.815 0 1.62.007 2.415.02.795.014 1.6.041 2.415.081l.02.163a3.144 3.144 0 0 0-.921.322l-.026.015c-.279.156-.418.431-.418.825v5.155c0 .014-.014.034-.041.061a4.438 4.438 0 0 1-1.07.591 6.58 6.58 0 0 1-1.202.337 9.977 9.977 0 0 1-1.243.142c-.414.02-.818.03-1.212.03-.598 0-1.203-.02-1.814-.061-1.073-.081-2.041-.353-2.903-.815a7.173 7.173 0 0 1-2.201-1.803 8.166 8.166 0 0 1-1.396-2.527 9.08 9.08 0 0 1-.489-2.985c0-1.209.217-2.279.652-3.209a6.728 6.728 0 0 1 1.783-2.344A7.695 7.695 0 0 1 6.072 2.26a10.58 10.58 0 0 1 3.219-.479h.058zm114.345 1.041c-.014.478-.078.91-.192 1.296-.015.042-.043.064-.086.064s-.071-.022-.086-.064c-.071-.357-.182-.646-.332-.868a1.667 1.667 0 0 0-.567-.525 2.427 2.427 0 0 0-.771-.267 5.231 5.231 0 0 0-.9-.075H66.421v12.508c0 .572.183 1.057.546 1.457.365.4.818.642 1.36.728.043.014.061.047.054.096-.007.05-.032.075-.075.075a54.425 54.425 0 0 0-1.51-.107 27.775 27.775 0 0 0-1.531-.043c-.372 0-.739.011-1.103.032a74.97 74.97 0 0 0-1.104.075c-.042 0-.067-.024-.074-.075-.008-.049.01-.082.053-.096.343-.071.61-.15.803-.235a.957.957 0 0 0 .429-.343c.093-.143.15-.325.171-.546.022-.222.033-.504.033-.846V2.404h-3.535c-.457 0-.86.161-1.21.482-.35.321-.61.682-.782 1.082-.028.042-.061.06-.096.053-.036-.007-.053-.032-.053-.075a1.951 1.951 0 0 1-.043-.385c0-.286.035-.564.107-.836.111-.42.233-.838.364-1.253.043-.135.078-.268.107-.396.029-.086.071-.1.129-.043.3.186.592.304.878.354.285.05.614.074.985.074h61.043c.114 0 .239-.017.375-.053.135-.036.26-.068.375-.096a6.3 6.3 0 0 1 .246-.043l.289-.043c.043 0 .064.029.064.086v.171c-.001.446-.008.893-.022 1.339zm-40.728 8.353c-.096 0-.197.014-.306.041v2.893c0 .394.119.73.357 1.009.237.278.553.438.947.478v.163c-.309-.026-.618-.05-.927-.071-.308-.02-.618-.03-.927-.03-.313 0-.615.013-.907.041-.292.027-.594.061-.907.101-.041.014-.071-.003-.091-.051-.02-.047-.01-.085.03-.112.285-.135.523-.339.713-.611.19-.272.286-.564.286-.876V6.02a1.17 1.17 0 0 0-.337-.826 1.672 1.672 0 0 0-.804-.479c-.041-.013-.058-.043-.051-.091.006-.048.03-.072.071-.072h4.014c.421 0 .836.051 1.243.153.408.102.767.262 1.08.479.312.217.563.503.754.856.19.353.285.774.285 1.263 0 .652-.18 1.271-.54 1.854a7.309 7.309 0 0 1-1.212 1.508c.149.163.312.371.489.622.186.264.376.526.57.784.31.423.626.84.948 1.253.332.428.682.816 1.049 1.162.367.346.747.618 1.141.815.394.197.795.268 1.202.214l.062.163a3.797 3.797 0 0 1-.724.255c-.243.06-.493.091-.743.091-.408 0-.775-.074-1.101-.224a3.46 3.46 0 0 1-.876-.57 5.44 5.44 0 0 1-.723-.795 16.721 16.721 0 0 1-.642-.917 17.721 17.721 0 0 0-.601-.845 5.256 5.256 0 0 0-.693-.754 3.308 3.308 0 0 0-.815-.54 2.312 2.312 0 0 0-.988-.204h-.326zm17.857 1.518a5.627 5.627 0 0 1-1.273 1.742c-.53.489-1.145.87-1.844 1.141a6.05 6.05 0 0 1-2.211.408c-.639 0-1.301-.156-1.987-.469a7.616 7.616 0 0 1-1.885-1.223 6.961 6.961 0 0 1-1.416-1.711c-.373-.639-.56-1.284-.56-1.936 0-.991.092-1.844.275-2.557.183-.713.479-1.318.886-1.814.408-.496.944-.903 1.61-1.222.666-.319 1.481-.581 2.445-.785l.265-.02a5.076 5.076 0 0 1 2.425.377 5.923 5.923 0 0 1 1.956 1.344c.557.578.995 1.26 1.315 2.048.319.788.478 1.617.478 2.486 0 .788-.16 1.518-.479 2.191zm27.798 1.396a3.66 3.66 0 0 1-.958 1.008 4.708 4.708 0 0 1-1.284.652 4.206 4.206 0 0 1-1.334.235c-.204 0-.418-.024-.642-.072a1.995 1.995 0 0 1-.612-.234 1.392 1.392 0 0 1-.448-.418c-.115-.17-.173-.383-.173-.642 0-.163.017-.326.051-.489.034-.163.064-.319.092-.469l.101-.488c0-.041.028-.062.082-.062.054 0 .082.021.082.062v.305c0 .285.061.537.183.754.119.215.279.405.469.56.19.157.41.272.662.347a2.51 2.51 0 0 0 2.221-.367c.209-.154.385-.348.52-.57.135-.224.203-.472.203-.744 0-.258-.061-.513-.183-.764a4.206 4.206 0 0 0-.489-.764 8.922 8.922 0 0 0-.693-.774 44.66 44.66 0 0 0-.795-.775 94.948 94.948 0 0 1-.856-.825 7.294 7.294 0 0 1-.754-.856 4.808 4.808 0 0 1-.529-.886 2.191 2.191 0 0 1-.204-.917c0-.462.129-.859.387-1.192.258-.333.577-.605.958-.815a4.68 4.68 0 0 1 1.243-.469 5.624 5.624 0 0 1 1.243-.153c.543 0 1.039.068 1.487.204.041.027.062.054.062.081a29.013 29.013 0 0 1-.245 2.058c-.013.041-.041.062-.081.062-.041 0-.069-.021-.082-.062a2.693 2.693 0 0 0-.621-1.222c-.306-.34-.71-.51-1.213-.51-.516 0-.947.167-1.293.5-.347.333-.52.757-.52 1.273 0 .272.058.523.173.754.115.231.265.455.448.672.184.218.398.432.642.642.25.216.502.43.754.642.288.234.57.475.846.723.27.243.519.509.743.795.214.272.392.57.53.887.136.312.204.652.204 1.018 0 .476-.126.911-.377 1.305zM113.39 4.787c-.007-.007-.024-.003-.051.01a7.08 7.08 0 0 0-.601.204c-.211.081-.316.224-.316.428l.02 4.911v.835a64.79 64.79 0 0 1-.04 2.333 45.85 45.85 0 0 1-.143 2.313c0 .027-.017.051-.051.071-.034.02-.064.017-.092-.01a36.844 36.844 0 0 1-1.956-1.803 73.245 73.245 0 0 1-1.925-1.977c-.631-.671-1.252-1.35-1.865-2.037a128.315 128.315 0 0 1-1.752-2.007 12.244 12.244 0 0 1-.51-.581 11.684 11.684 0 0 0-.509-.581 9.63 9.63 0 0 0-.061 1.06 61.462 61.462 0 0 0 .081 3.097c.055 1.038.082 2.078.082 3.118 0 .231.02.417.061.56.041.143.092.255.153.336.061.082.135.14.224.173.088.034.18.058.275.072.109.027.217.057.326.091.109.034.238.106.387.214a.1.1 0 0 1 .031.092c-.007.034-.031.051-.072.051l-.397-.041-.398-.041a8.085 8.085 0 0 0-1.161-.081c-.252 0-.504.017-.754.051a29.43 29.43 0 0 0-.774.112c-.041.014-.072 0-.092-.041-.02-.041-.017-.075.01-.102.109-.095.207-.17.296-.224.083-.051.168-.099.254-.143.163-.081.309-.193.439-.336.128-.142.193-.37.193-.683V4.696l.163-.327a.138.138 0 0 1 .061-.061c.027-.013.048-.007.061.02a341.026 341.026 0 0 1 8.518 9.149v-.061a188.76 188.76 0 0 0-.041-3.728c-.014-.584-.027-1.206-.041-1.865a94.9 94.9 0 0 1-.02-1.864c0-.231-.024-.418-.071-.561a.773.773 0 0 0-.194-.326.667.667 0 0 0-.265-.152 2.162 2.162 0 0 0-.285-.062 2.952 2.952 0 0 1-.296-.051.47.47 0 0 1-.234-.132c-.027-.027-.03-.061-.01-.102.02-.041.044-.054.071-.041.313.041.604.061.876.061h.856c.177 0 .357-.003.54-.01.187-.006.374-.003.561.01.068 0 .142.004.224.011.074.006.149.01.224.01l.041.163c-.027.013-.044.017-.051.01zM69.623 15.8h-.509a7.2 7.2 0 0 1-.53-.02c-.054 0-.119-.003-.193-.01a2.102 2.102 0 0 0-.194-.011c-.041 0-.065-.023-.071-.071-.008-.047.01-.078.051-.092.216-.04.393-.084.529-.132a.631.631 0 0 0 .306-.204.708.708 0 0 0 .132-.336c.021-.136.031-.312.031-.53v-8.68c0-.299-.119-.523-.357-.672a1.57 1.57 0 0 0-.764-.245v-.163a23.575 23.575 0 0 0 2.384.051c.231-.006.462-.01.693-.01h.428c.041 0 .061.028.061.082 0 .054-.02.081-.061.081-.245 0-.466.075-.662.224-.198.15-.296.36-.296.632V9.24h6.236V5.776c0-.327-.086-.534-.255-.622a3.254 3.254 0 0 0-.622-.234l-.153-.041a3.415 3.415 0 0 0-.153-.041c-.04-.014-.057-.044-.05-.092.006-.047.03-.071.071-.071a30.85 30.85 0 0 0 3.546.02c.04 0 .064.024.071.072.007.047-.01.078-.051.091a2.28 2.28 0 0 0-.713.234c-.177.102-.265.323-.265.663v8.354c0 .462.102.808.305 1.039.204.232.537.387.999.469l-.021.163a37.26 37.26 0 0 0-2.904-.051c-.251.007-.513.017-.784.03-.041 0-.065-.023-.072-.071-.007-.048.011-.078.052-.092.42-.122.692-.285.815-.489.122-.203.183-.523.183-.957V9.912h-6.255v4.278c0 .856.441 1.325 1.324 1.406.041 0 .061.028.061.082 0 .055-.02.081-.061.081h-.632c-.19 0-.394.008-.611.021-.149 0-.323.003-.519.01-.197.007-.371.01-.52.01zm-43.908-.102l-.54-.04a5.446 5.446 0 0 0-.693-.041c-.313 0-.625.014-.937.041l-.938.081c-.041 0-.068-.02-.081-.061-.014-.041 0-.074.04-.102l.795-.387a53.012 53.012 0 0 0-.723-1.885 42.844 42.844 0 0 1-.723-1.905h-3.159c-.1.261-.198.523-.295.785a30.809 30.809 0 0 0-.703 2.139c-.095.333-.143.574-.143.723 0 .204.088.337.265.398.177.061.347.105.509.132v.163a26.053 26.053 0 0 0-.794-.071 10.816 10.816 0 0 0-1.63 0c-.272.02-.544.044-.815.071-.041.014-.065-.006-.072-.061-.007-.054.011-.088.051-.102.747-.095 1.271-.489 1.569-1.182v.021c.394-.992.775-1.984 1.141-2.975.369-.996.729-1.994 1.08-2.996.245-.679.483-1.355.714-2.027.233-.68.478-1.356.733-2.028.014-.04.041-.061.081-.061.041 0 .068.021.082.061.067.189.139.376.214.561.075.185.147.372.214.56a202.71 202.71 0 0 0 1.742 4.585 44.864 44.864 0 0 0 2.068 4.503c.163.313.37.536.622.672.251.136.54.217.866.245v.163a2.429 2.429 0 0 1-.54.02zm95.358-.782l-.091.68c0 .041-.027.062-.081.062l-.021.02a.788.788 0 0 1-.264.061c-.313 0-.629-.003-.948-.01-.316-.007-.632-.01-.947-.01-.272 0-.537-.003-.795-.01-.265-.007-.53-.011-.794-.01a59.242 59.242 0 0 0-2.222.04v-.163c.204 0 .37-.044.5-.132a.889.889 0 0 0 .295-.337c.068-.135.112-.288.132-.458a4.23 4.23 0 0 0 .031-.519V5.653c0-.272-.065-.448-.194-.53a2.125 2.125 0 0 0-.418-.203l-.275-.092a1.487 1.487 0 0 1-.315-.153.095.095 0 0 1-.031-.092c.007-.033.031-.051.071-.051h5.808c.054-.027.112-.051.173-.071.059-.02.117-.043.173-.071.068-.027.102 0 .102.081a12.67 12.67 0 0 1-.153.988c-.061.306-.126.615-.194.927-.013.041-.044.058-.091.051-.048-.006-.072-.03-.072-.071-.027-.475-.19-.787-.489-.937-.299-.15-.666-.224-1.1-.224h-1.61v4.177h2.364c.068 0 .156-.02.265-.061l.326-.123c.142-.078.292-.14.448-.183.068-.027.102 0 .102.081-.014.163-.031.34-.051.53a9.497 9.497 0 0 1-.072.53 5.473 5.473 0 0 0-.06.509 6.225 6.225 0 0 1-.062.51c0 .04-.017.068-.051.081-.034.014-.065.007-.092-.02a.493.493 0 0 1-.132-.204 14.661 14.661 0 0 0-.153-.469.571.571 0 0 0-.142-.224c-.069-.067-.194-.118-.377-.153a7.36 7.36 0 0 0-.591-.081 6.459 6.459 0 0 0-.622-.03h-1.08v4.197c.204.299.492.527.866.683.374.156.737.234 1.09.234.475 0 .88-.125 1.212-.377.333-.251.554-.608.663-1.07l.163.041c-.065.3-.119.603-.162.907l-.032.226zM47.298 4.38c.035.002.053.032.053.091a12.67 12.67 0 0 1-.153.988c-.061.306-.126.615-.194.927-.013.041-.044.058-.091.051-.048-.006-.072-.03-.072-.071-.027-.475-.19-.787-.489-.937-.299-.15-.666-.224-1.1-.224h-1.61v4.177h2.364c.068 0 .156-.02.265-.061l.326-.123c.142-.078.292-.14.448-.183.068-.027.102 0 .102.081-.014.163-.03.34-.051.53a9.491 9.491 0 0 1-.071.53 5.841 5.841 0 0 0-.062.509 5.815 5.815 0 0 1-.061.51c0 .04-.017.068-.051.081-.034.014-.064.007-.091-.02a.506.506 0 0 1-.133-.204 5.822 5.822 0 0 0-.071-.224l-.082-.245a.571.571 0 0 0-.142-.224c-.068-.067-.194-.118-.377-.153a7.36 7.36 0 0 0-.591-.081 6.459 6.459 0 0 0-.622-.03h-1.08v4.197c.204.299.492.527.866.683.374.156.737.234 1.09.234.476 0 .88-.125 1.213-.377.332-.251.553-.608.662-1.07l.163.041c-.065.3-.12.603-.162.907l-.032.226-.091.68c0 .041-.027.062-.081.062l-.02.02a.798.798 0 0 1-.265.061c-.313 0-.629-.003-.948-.01-.316-.007-.631-.01-.947-.01-.272 0-.537-.003-.795-.01-.265-.007-.53-.011-.795-.01a59.212 59.212 0 0 0-2.221.04v-.163c.204 0 .37-.044.499-.132a.883.883 0 0 0 .296-.337c.068-.135.112-.288.132-.458a4.23 4.23 0 0 0 .031-.519V5.653c0-.272-.065-.448-.194-.53a2.144 2.144 0 0 0-.417-.203l-.276-.092a1.487 1.487 0 0 1-.315-.153.095.095 0 0 1-.031-.092c.007-.033.031-.051.072-.051h5.807c.056-.028.114-.051.173-.071.061-.02.118-.044.173-.071a.122.122 0 0 1 .045-.011l.004.001zm-6.339 11.339h-1.65c-.543 0-1.08-.014-1.61-.041-.081 0-.109-.034-.081-.102a.443.443 0 0 0 .03-.081.407.407 0 0 1 .031-.082l.122-.366c.041-.123.061-.238.061-.347 0-.774-.038-1.538-.112-2.292a86.695 86.695 0 0 0-.255-2.272 86.42 86.42 0 0 0-.153-1.233 16.763 16.763 0 0 1-.112-1.253 99.344 99.344 0 0 0-1.487 2.975c-.476.992-.951 1.997-1.427 3.016-.161.335-.32.671-.479 1.008-.158.337-.317.673-.478 1.009-.014.027-.034.041-.061.041-.028 0-.055-.014-.082-.041a19.931 19.931 0 0 1-1.62-2.659 66.938 66.938 0 0 1-1.294-2.72c-.197-.43-.39-.862-.581-1.294-.189-.43-.39-.854-.6-1.274-.04.33-.081.659-.123.988l-.122.948a81.022 81.022 0 0 0-.285 2.506c-.083.84-.123 1.683-.123 2.527 0 .244.061.411.184.499.122.088.271.167.448.234.054.028.129.058.224.092.095.034.156.058.183.071.041.027.055.061.041.102-.013.041-.041.061-.081.061a14.678 14.678 0 0 1-1.121-.041 18.126 18.126 0 0 0-1.141-.04h-.408c-.122 0-.258.014-.407.041-.041.013-.068-.007-.082-.061-.013-.055 0-.089.041-.102a1.13 1.13 0 0 1 .245-.041c.13-.023.26-.053.387-.092.108-.034.21-.125.305-.275.027-.041.064-.217.112-.53.048-.312.102-.709.163-1.192.062-.482.129-1.029.204-1.64.076-.624.147-1.249.214-1.874.068-.639.136-1.267.204-1.885a312.2 312.2 0 0 0 .183-1.702c.054-.448.095-.845.123-1.192.027-.346.054-.594.081-.743 0-.041.017-.065.051-.072a.1.1 0 0 1 .092.031c.163.176.394.526.693 1.049.298.523.621 1.131.968 1.824.365.731.725 1.464 1.079 2.2.347.719.69 1.439 1.029 2.16.231.476.421.883.571 1.223.149.34.285.625.408.856.232-.467.452-.939.662-1.417.224-.509.445-1.015.662-1.518.485-1.121.988-2.235 1.508-3.341a22.14 22.14 0 0 1 1.691-3.016c.027-.027.054-.037.082-.031.027.008.04.031.04.072.027.163.051.39.072.682.02.293.051.629.091 1.009.041.503.092 1.053.153 1.651a274.888 274.888 0 0 0 .398 3.657c.061.541.132 1.082.213 1.62.075.489.146.9.214 1.233.068.333.136.54.204.621.15.218.292.357.428.418s.299.106.489.133c.095.027.194.044.296.051a.84.84 0 0 1 .316.091l-.021.163zM96.153 4.983a4.314 4.314 0 0 0-.508-.057v10.405h.033c.163 0 .321-.007.475-.021V4.983zm-.861-.063a5.057 5.057 0 0 0-.507.034v10.287c.164.035.333.06.507.075V4.92zm1.215 10.342h-.001.001a3.633 3.633 0 0 0 1.006-.328 4.013 4.013 0 0 0 1.334-1.059c.36-.442.632-.954.815-1.539a6.165 6.165 0 0 0 .275-1.854c0-.665-.099-1.331-.295-1.997a5.814 5.814 0 0 0-.876-1.793 4.624 4.624 0 0 0-1.427-1.284 3.484 3.484 0 0 0-.832-.346v10.2zM94.434 5.009a3.887 3.887 0 0 0-2.24 1.327 4.777 4.777 0 0 0-.846 1.528 5.67 5.67 0 0 0-.295 1.844c0 .679.102 1.352.305 2.017.204.666.506 1.267.907 1.803a4.85 4.85 0 0 0 1.457 1.304c.225.132.464.238.713.316l-.001-10.139zM55.97 12.181a3.182 3.182 0 0 1-.724.99c-.301.278-.65.494-1.048.649a3.447 3.447 0 0 1-1.256.231c-.363 0-.74-.088-1.129-.266a4.297 4.297 0 0 1-1.072-.695 3.93 3.93 0 0 1-.804-.973 2.148 2.148 0 0 1-.319-1.1c0-.563.052-1.048.157-1.453.104-.406.272-.749.503-1.031.232-.282.537-.513.915-.695.378-.181.842-.33 1.39-.446l.151-.011c.494-.039.953.033 1.378.214.418.177.796.437 1.111.764.317.329.566.717.747 1.164.182.448.273.919.273 1.413 0 .448-.091.863-.273 1.245zm2.697 1.712h-.082c-.086 0-.167-.003-.245-.011l-.245-.024a6.773 6.773 0 0 0-.48-.023c-.077 0-.156.004-.233.012l-.234.023a6.434 6.434 0 0 1-.538.023h-.07c-.023 0-.037-.013-.041-.041-.004-.027.006-.044.029-.052.141-.024.25-.053.328-.088a.368.368 0 0 0 .169-.14.465.465 0 0 0 .059-.222c.003-.09.005-.205.005-.345V8.119c0-.18-.035-.291-.105-.334a.9.9 0 0 0-.245-.099 2.533 2.533 0 0 0-.146-.052.842.842 0 0 1-.181-.088c-.024-.016-.032-.033-.024-.053.008-.019.024-.029.047-.029.491.023.986.035 1.485.035h.83c.038 0 .079.002.122.006s.088.006.135.006c.179.008.364.008.555 0a1.1 1.1 0 0 0 .496-.129c.016-.015.033-.015.053 0a.052.052 0 0 1 .018.059l-.211 1.133c-.008.024-.025.034-.052.03-.027-.004-.041-.018-.041-.041 0-.258-.07-.439-.21-.544-.141-.105-.336-.158-.585-.158-.109 0-.212.006-.31.018-.097.012-.201.025-.31.041a3.021 3.021 0 0 1-.514.047v2.291h1.578a.349.349 0 0 0 .187-.07.798.798 0 0 0 .164-.14c.015-.016.033-.02.052-.012.019.008.029.023.029.047-.029.419-.084.837-.163 1.25-.008.024-.026.034-.053.03-.027-.004-.041-.018-.041-.041.008-.258-.057-.435-.193-.532-.136-.098-.329-.146-.578-.146h-.982v2.338a.868.868 0 0 0 .222.561c.07.078.152.14.245.187.094.047.195.07.304.07v.093zm-5.351-6.094a2.539 2.539 0 0 0-.288-.033v5.915h.018c.093 0 .183-.004.27-.013V7.799zm-.563-.033a2.495 2.495 0 0 0-.215.017v5.846c.094.02.19.034.289.043V7.763l-.037.001-.037.002zm.764 5.875c.198-.034.391-.097.572-.186.301-.151.553-.351.758-.602.205-.251.359-.543.464-.875.104-.332.156-.683.156-1.054 0-.378-.056-.756-.168-1.134a3.295 3.295 0 0 0-.498-1.02 2.609 2.609 0 0 0-.811-.729 1.963 1.963 0 0 0-.473-.197v5.797zm-1.178-5.827a2.197 2.197 0 0 0-1.273.754 2.71 2.71 0 0 0-.481.868 3.224 3.224 0 0 0-.168 1.048c0 .387.058.769.174 1.147.116.378.288.72.516 1.025.222.3.504.552.828.741.128.074.263.135.405.179l-.001-5.762zM20.346 6.488c-.226.702-.446 1.405-.663 2.109a54.68 54.68 0 0 1-.703 2.13h2.629l-1.263-4.239zm65.543.51a3.097 3.097 0 0 0-.458-.958 2.568 2.568 0 0 0-.754-.703 1.95 1.95 0 0 0-1.039-.275c-.163 0-.326.01-.489.03-.162.021-.32.065-.469.133v5.074c.231.04.455.068.672.081.224.014.448.021.672.02.761 0 1.287-.206 1.58-.621.292-.414.438-.988.438-1.722 0-.353-.05-.706-.153-1.059z"/></svg>