<svg viewBox="0 0 128 128" xmlns="http://www.w3.org/2000/svg" fill-rule="evenodd" clip-rule="evenodd" stroke-linejoin="round" stroke-miterlimit="1.414"><path d="M78.36 47.332c0-7.268 4.92-14.332 7.612-12.988 3.06 1.524-2.294 8.384-7.61 12.988m-33.5 2.66c0-5.846 5.78-16.974 9.32-15.796 4.16 1.38-3.46 12.596-9.32 15.794m-5.86 41.84c-2.648.132-4.42-1.58-4.42-4.41 0-7.62 10.57-14.9 18.55-18.8-1.42 10.634-5 22.79-14.12 23.212M87.76 67.02c-6.024 0-10.64 4.428-10.64 9.744 0 4.436 2.67 7.98 6.21 7.98 1.248 0 2.486-.712 2.486-2.31 0-2.3-3.054-2.864-2.82-6.316.156-2.28 2.29-3.8 4.416-3.8 4.26 0 6.248 4.12 6.248 8.38-.186 6.56-5.006 11.12-10.676 11.12-7.454 0-12.234-7.092-12.234-14.714 0-11.35 7.444-15.786 11.34-16.852.04 0 10.196 1.814 9.88-2.66-.14-1.97-3.066-2.72-5.188-2.806-2.36-.1-4.72.75-4.72.75-1.24-.628-2.1-1.836-2.626-3.254 7.274-5.506 12.412-10.82 12.412-16.84 0-3.2-2.132-6.04-6.21-6.04-7.26 0-12.76 9.226-12.76 17.554 0 1.434 0 2.846.356 4.08-4.608 3.38-8.04 5.46-14.24 9.194 0-.788.16-2.78.68-5.38 2.132-2.31 5.052-5.76 5.052-8.42 0-1.24-.714-2.3-2.13-2.3-3.54 0-6.2 5.31-6.908 9.028-1.6 1.96-4.792 4.45-7.454 4.45-2.132 0-2.84-1.96-3.016-2.668 6.74-2.3 15.07-11.52 15.07-19.854 0-1.78-.72-5.68-6.036-5.68-7.98 0-14.714 11.892-14.714 21.1-2.84 0-3.9-3.006-3.9-5.312 0-2.306.888-4.606.888-5.32 0-.71-.36-1.596-1.42-1.596-2.66 0-4.256 3.54-4.256 7.62.176 5.672 3.9 9.22 8.86 9.58.714 3.36 3.732 6.546 7.45 6.546 2.3 0 5.14-.7 7.088-2.47-.174 1.232-.36 2.292-.536 3.36-7.8 4.08-13.474 6.92-18.614 11.52-4.08 3.72-6.38 8.692-6.38 12.58 0 5.32 3.372 10.28 10.28 10.28 8.154 0 14.36-6.548 17.374-15.6 1.42-4.25 1.992-10.44 2.344-16.12 8.16-4.6 12.02-7.264 16.26-10.288.528.888 1.068 1.608 1.78 2.134-3.726 1.954-12.594 7.45-12.594 20.394 0 9.21 6.21 19.49 18.44 19.49 10.1 0 17.02-8.326 17.02-16.306 0-7.274-4.07-13.996-11.88-13.996m30.48 15.22c-.02.054-.13.128-.332.06-.152-.04-.2-.13-.18-.22 0-.1 2.14-6.41 2.12-13.646-.02-7.806-3.192-12.58-7.26-12.58-2.492 0-4.272 1.77-4.272 4.42 0 4.786 5.86 5.144 5.86 15.61 0 4.25-.884 8.32-2.3 12.764-6.56 22.15-27.48 32.436-47.872 32.436-9.396 0-16.072-1.94-18.06-2.82-.08-.046-.146-.2-.08-.35.04-.126.18-.212.252-.188.806.324 6.54 2.12 13.628 2.12 7.8 0 12.41-3.184 12.41-7.094 0-2.48-1.952-4.434-4.44-4.434-4.786 0-5.14 6.02-15.424 6.02-4.436 0-8.33-.88-12.94-2.3C17.372 105.306 6.892 84.56 6.908 64c.01-10.02 2.81-17.988 2.86-18.08.04-.044.166-.1.32-.044.16.044.2.192.18.228-.252.84-2.114 6.55-2.114 13.646 0 7.794 3.184 12.404 7.266 12.404 2.3 0 4.26-1.766 4.26-4.252 0-4.78-5.84-5.32-5.84-15.6 0-4.42.888-8.32 2.31-12.94 6.72-21.98 27.46-32.28 47.846-32.44 9.48-.066 17.772 2.766 18.086 3.008.06.04.12.18.06.328-.06.16-.18.186-.24.18-.1-.02-5.48-2.274-13.64-2.274-7.62-.004-12.404 3.186-12.404 7.276 0 2.3 1.768 4.25 4.432 4.25 4.78 0 5.14-5.86 15.42-5.86 4.428 0 8.328.888 12.94 2.3 22.15 6.73 32.242 27.664 32.43 47.87.1 10.354-2.814 18.186-2.848 18.24M63.996 3.01C30.316 3.01 3.01 30.316 3.01 64c0 33.68 27.304 60.98 60.986 60.98 33.69 0 60.992-27.3 60.992-60.98 0-33.516-27.3-60.99-60.992-60.99m0 124.99C28.72 128 0 99.454 0 64 0 28.724 28.72 0 63.996 0 99.28 0 128 28.724 128 64c0 35.454-28.72 64-64.004 64" fill-rule="nonzero"/></svg>