<svg viewBox="0 0 64 64" xmlns="http://www.w3.org/2000/svg" fill-rule="evenodd" clip-rule="evenodd" stroke-linejoin="round" stroke-miterlimit="1.414"><path d="M39.18 23.666c0-3.634 2.46-7.166 3.806-6.494 1.53.762-1.147 4.192-3.805 6.494m-16.75 1.33c0-2.923 2.89-8.487 4.66-7.898 2.08.69-1.73 6.298-4.66 7.897m-2.93 20.92c-1.324.066-2.21-.79-2.21-2.205 0-3.81 5.285-7.45 9.275-9.4-.71 5.317-2.5 11.395-7.06 11.606M43.88 33.51c-3.012 0-5.32 2.214-5.32 4.872 0 2.218 1.335 3.99 3.105 3.99.624 0 1.243-.356 1.243-1.155 0-1.15-1.527-1.432-1.41-3.158.078-1.14 1.145-1.9 2.208-1.9 2.13 0 3.124 2.06 3.124 4.19-.093 3.28-2.503 5.56-5.338 5.56-3.727 0-6.117-3.546-6.117-7.357 0-5.675 3.722-7.893 5.67-8.426.02 0 5.098.907 4.94-1.33-.07-.985-1.533-1.36-2.594-1.403-1.18-.05-2.36.375-2.36.375-.62-.314-1.05-.918-1.313-1.627 3.637-2.753 6.206-5.41 6.206-8.42 0-1.6-1.066-3.02-3.105-3.02-3.63 0-6.38 4.613-6.38 8.777 0 .717 0 1.423.178 2.04-2.304 1.69-4.02 2.73-7.12 4.597 0-.394.08-1.39.34-2.69 1.066-1.155 2.526-2.88 2.526-4.21 0-.62-.357-1.15-1.065-1.15-1.77 0-3.1 2.655-3.454 4.514-.8.98-2.396 2.225-3.727 2.225-1.066 0-1.42-.98-1.508-1.334 3.37-1.15 7.535-5.76 7.535-9.927 0-.89-.36-2.84-3.018-2.84-3.99 0-7.357 5.946-7.357 10.55-1.42 0-1.95-1.503-1.95-2.656 0-1.153.444-2.303.444-2.66 0-.355-.18-.798-.71-.798-1.33 0-2.128 1.77-2.128 3.81.088 2.836 1.95 4.61 4.43 4.79.357 1.68 1.866 3.273 3.725 3.273 1.15 0 2.57-.35 3.544-1.235-.087.616-.18 1.146-.268 1.68-3.9 2.04-6.737 3.46-9.307 5.76-2.04 1.86-3.19 4.346-3.19 6.29 0 2.66 1.686 5.14 5.14 5.14 4.077 0 7.18-3.274 8.687-7.8.71-2.125.996-5.22 1.172-8.06 4.08-2.3 6.01-3.632 8.13-5.144.264.444.534.804.89 1.067-1.863.977-6.297 3.725-6.297 10.197 0 4.605 3.105 9.745 9.22 9.745 5.05 0 8.51-4.163 8.51-8.153 0-3.637-2.035-6.998-5.94-6.998m15.24 7.61c-.01.027-.065.064-.166.03-.076-.02-.1-.065-.09-.11 0-.05 1.07-3.205 1.06-6.823-.01-3.903-1.596-6.29-3.63-6.29-1.246 0-2.136.885-2.136 2.21 0 2.393 2.93 2.572 2.93 7.805 0 2.125-.442 4.16-1.15 6.382-3.28 11.075-13.74 16.218-23.936 16.218-4.698 0-8.036-.97-9.03-1.41-.04-.023-.073-.1-.04-.175.02-.063.09-.106.126-.094.403.162 3.27 1.06 6.814 1.06 3.9 0 6.205-1.592 6.205-3.547 0-1.24-.976-2.217-2.22-2.217-2.393 0-2.57 3.01-7.712 3.01-2.218 0-4.165-.44-6.47-1.15C8.686 52.653 3.446 42.28 3.454 32c.005-5.01 1.405-8.994 1.43-9.04.02-.022.083-.05.16-.022.08.022.1.096.09.114-.126.42-1.057 3.275-1.057 6.823 0 3.897 1.592 6.202 3.633 6.202 1.15 0 2.13-.883 2.13-2.126 0-2.39-2.92-2.66-2.92-7.8 0-2.21.444-4.16 1.155-6.47 3.36-10.99 13.73-16.14 23.923-16.22 4.74-.033 8.886 1.383 9.043 1.504.03.02.06.09.03.164-.03.08-.09.093-.12.09-.05-.01-2.74-1.137-6.82-1.137-3.81-.002-6.202 1.593-6.202 3.638 0 1.15.884 2.125 2.216 2.125 2.39 0 2.57-2.93 7.71-2.93 2.214 0 4.164.444 6.47 1.15C55.4 11.43 60.446 21.897 60.54 32c.05 5.177-1.407 9.093-1.424 9.12M31.998 1.505C15.158 1.505 1.505 15.158 1.505 32c0 16.84 13.652 30.49 30.493 30.49 16.845 0 30.496-13.65 30.496-30.49 0-16.758-13.65-30.495-30.496-30.495m0 62.495C14.36 64 0 49.727 0 32 0 14.362 14.36 0 31.998 0 49.64 0 64 14.362 64 32c0 17.727-14.36 32-32.002 32" fill="#fff" fill-rule="nonzero"/></svg>