<svg viewBox="0 0 128 112" xmlns="http://www.w3.org/2000/svg" fill-rule="evenodd" clip-rule="evenodd" stroke-linejoin="round" stroke-miterlimit="1.414"><path d="M47.123 86.58v-.02.02zm-.108-.12h-.004.01zm-.1-.1h-.006zm-.096-.1h-.01zm-.06-.06l-.12-.12.12.12zm-.22-.233l-.04-.037.032.033v.004zm-.12-.12l-.028-.03h.004l.02.027v.002zm-.088-.097l-.014-.02.014.02zM23.812 76l-.04-.04.01.007.035.032zm-.05-.05l-.03-.03.04.04-.01-.01zm-.11-.103l-.03-.028.02.02h.01zm-.083-.08l-.14-.13.08.08.04.04.012.01zm-.16-.146l-.18-.16-.17-.16.34.34.01-.02zm-.6-.6l-.2-.2.16.18.022.02h.01zm95.31-4.58h-.02.01l.01.01zm-.117-.02l-.02-.005h.02v.006zm-.113-.03l-.02-.003.02.006v-.002zm-.115-.03l-.02-.006.02.008zm-.726-.25h-.01.013-.005zm-.06-.026l-.015-.004h.013l.01.004h-.006zm-.065-.026l-.007-.006h.01v.007zm-.045-.05l-.01-.007.013.003zm-.31-.15h-.003.005zm-.05-.03h-.02l.02.02v-.02zm-.06-.02l-.02-.01v.01h.02zm-.06-.04l-.04-.006h.006l.012.015.02-.004zm-.06-.04l-.04-.004.006.006.012.005.02-.01zm-.08-.04l-.02-.004.01.006.012.007v-.01zm-.06-.04l-.028-.02.014.02.01.014.002-.01zm-.06-.04l-.03-.02.02.02.006.01.002-.01zm-.06-.04l-.03-.02.02.02h.01zm-.06-.04l-.02-.02.024.02h.006-.01zm-.06-.04l-.034-.02.03.02h.002zm-.06-.04l-.056-.044.06.044h-.004zm2.94-3.84l-.01-.013.007.006.005.01zm-.1-.09l-.015-.02.003.01.01.003v.007zm-.1-.093l-.02-.02.007.006.017.017-.002-.003zm-.1-.096l-.02-.02h.003l.014.02h.005zm-.11-.1l-.02-.027v.005l.02.02v.005zm-.115-.117l-.02-.013.01.02.007-.01zm-.224-.227l-.04-.035.03.025v.01h.01zm-.1-.11l-.04-.04.034.03.005.01v-.003zm-.1-.11l-.08-.087.08.087zm-.09-.1l-.082-.097.086.095h-.003zm-.102-.12l-.024-.033.02.005.02.024h-.017zm-.044-.057l-.02-.035v.004l.02.03v-.003zm-.02-.04l-.04-.05-.035-.04.034.04.04.047v.005zm-.08-.105l-.03-.038.027.03v.008h.006zm-.047-.06l-.027-.034.02.027.007.01zm-.045-.058l-.02-.03.02.02v.013zm-.04-.06l-.02-.03.014.02.01.014h-.005zm-.04-.06l-.02-.03.01.02.01.013zm-.04-.054l-.02-.033.01.013.014.02-.005-.002zm-.04-.06l-.02-.03.014.01.01.02h-.005zm-.032-.057l-.02-.03v.01l.014.02h.004zm-.04-.06l-.02-.03h.005l.013.02v.01zm-.035-.06l-.02-.025v.02l.02.02v-.013zm-.04-.06l-.01-.023v.003l.013.02h-.003zm-67.12 25.41c2.467 1.853 6.08 4.018 10.65 5.238 10.46 2.797 21.097.59 28.13-4.372 10.966-7.72 13.65-16.902 14.553-22.483l-.095.02c-2 .28-3.68-.46-3.68-.46-.54.315-3.92 1.806-4.34 1.94-.41.136-2.215 1.08-4.153.27-1.94-.81-1.44-3.47-.765-4.82.675-1.355 2.12-2.48 2.3-2.84.18-.36-.093-.72-.093-.72-2.205-1.174-2.95-2.34-2.95-2.34l.85-.58c.16.4 2.82 2.42 3.05 2.332.228-.09.314-.404.314-.68 0-.266.634-1.12.68-.266.044.86-.54 1.94-.54 1.94-.815.678-2.48 2.84-2.933 4.06-.45 1.216-.27 3.023 1.85 3.063 2.12.045 4.193-.99 6.31-2.21 2.118-1.22 3.2-1.08 3.606-1.08.4 0 .67.76-.097.806-.763.046-1.58.54-1.58.54 2.44.992 6.09-.954 6.09-.954 2.57-1.04 5.55.64 6.315 1.22s2.792 2.256 4.372 2.842c1.575.58 2.52.314 2.745.09.22-.22.403-1.034-.09-1.62-.5-.59-1.807-1.713-2.576-2.12-.76-.405-1.67-2.12-1.67-2.12-.63.09-.54-.27-.54-.27 1.58-1.53 3.11-1.35 4.194-1.305 1.08.044 3.92.764 4.82.676.907-.09 2.44-.404 2.575-1.31.125-.9-.86-1.54-1.9-2.21-1.04-.673-6.4-1.62-7.445-1.89-1.03-.28-2.207-.773-2.207-.773-.58 1.535.544 2.3.544 2.3-.9.137-2.34-1.123-.68-4.19 1.668-3.066 5.18-5.547 5.86-6.04.68-.5 1.76-1.31 1.53-2.3-.227-.99-1.715-.99-3.97-.226-2.252.767-6.58 3.29-8.337 4.33-1.76 1.03-3.7 1.58-3.7 1.58-1.17.36-2.75.392-2.75.392.14-.228.816-.36 1.312-.54.493-.18 1.26-.41 1.26-.41l-.093-.22c-1.04-.14-2.754.132-3.34.36-.58.22-1.396.314-1.396.314-.54.047-.565-.38-.565-.38-.063-.273.813-.54.813-.54l-.053-.8-.01.005v-.04l.72-.45L55.61 79.77l-.06.032 1.225-.78.015.012v.006c9.644 5.418 15.24 5 16.5 5.088 1.265.09 0 .632 0 .632-7.12.626-14.96-3.43-14.96-3.43-.68 1.8-2.66 4.147-3.2 4.69-.54.55-1.67 1.18-2.57 1.76-.873.572-1.86 1.68-1.93 1.76-.21-.154-.42-.304-.62-.454l.026-.012zm69.18-31.94l-.1-.02.06.014h.04v.007zm-.232-.05l-.08-.02.044.01.038.01zm-.256-.06l-.067-.01.04.006.032.008zm-.274-.06l-.105-.03.07.02.04.008-.004.005zm-.23-.06l-.162-.04.06.016.1.024zm-1.182-.336h-.01.014zm-.15-.053l-.02-.004h.01l.014.01zm-.15-.046l-.02-.01h.004l.02.01h-.003zm-.15-.05l-.03-.01h.008l.02.015v-.005zm-.15-.05l-.03-.01h.004l.02.017.007-.005zm-.15-.05l-.03-.01.026.02.004-.008zm-.15-.05l-.024-.01.028.008-.003.005zm-6.5-6.02l.127-.07-.013.007-.113.076v-.01zm.333-.19l.11-.06-.02.01-.092.05h.005zm.332-.185l.1-.054-.02.014-.08.04zm.334-.186l.09-.047-.028.014-.06.036-.004-.002zm.332-.18l.084-.05-.033.02-.055.03h.006zm.334-.186l.08-.05-.04.02-.04.025v.003zm.34-.19l.075-.04-.04.02-.04.02h.007zm.34-.183l.07-.04-.04.026-.03.012.002.002zm.34-.18l.068-.04-.046.028-.03.01.01.002zm.334-.18l.07-.034-.05.024-.015.004-.004.004zm.335-.174l.076-.04-.06.032-.005.012-.008-.006zm.332-.176l.088-.05-.08.04-.012.002.005.008zm.32-.174l.268-.13-.26.132-.008-.003zm.32-.16l.34-.168-.334.17-.005-.003zm.76-.386l.44-.22-.28.14-.16.08zm.576-.29l.52-.26-.37.18-.15.08h.004zm-61.91-3.63c.093.27 1.31 1.62 2.615 1.53 1.308-.08 2.03-1.16 2.21-1.88.18-.72-.495-.226-.495-.226-1.984 1.62-3.56.767-3.876.446-.226-.23-.54-.137-.452.134v-.006zm2.255-4.24c.9-.09 1.804-1.26 1.76-2.705-.048-1.44-.86-3.02-2.03-3.02-1.26 0-1.892 1.4-1.848 2.976.04 1.58 1.213 2.84 2.12 2.75h-.005zm1.985-12.216c-1 1.48-2.58.4-2.58.4-.236-.14-.58.14-.416.4.18.274 1.08 1.4 2.074 1.22.99-.18 1.44-1.17 1.44-1.8 0-.632-.54-.226-.54-.226l.02.006zm1.98-8.342c-.14 2.07.4 2.204.9 2.244 0 0 1.04.06 1.04-1.66 0-1.713.22-1.49.4-1.49.18 0 .18 1.037.5 1.037.18 0 .18-.36.14-.586 0 0-.24-1.62-1.36-1.62 0 0-1.5-.004-1.62 2.068v.01zm-6.58-2.68s-1.4.24-1.26 2c.12 1.764.66 2.164 1.34 2.03.68-.134.94-.9.68-2.025 0 0-.416-1.08-.056-1.22.36-.134.494 1.04.766.86.17-.114.048-.408.048-.408s-.315-1.457-1.53-1.23l.015-.007zm17.543-.98l-.02-.02v.023h.02zm-.04-.08l-.04-.14.04.14zm-.06-.165l-.04-.14.04.14zm-.05-.166l-.04-.14.04.14zm-17.27-2.82c-.983.3-1.984 1.72-1.984 2.212 0 .493.58.81.895.27 0 0 .33-1.04 1.68-2.302.14-.22 0-.36-.58-.18l-.01-.002zm9.87 2.528s.46.27.64.09c.18-.18-.05-.54-.05-.54s-1.08-1.54-1.94-2.167l-.406-.09-.768.44.046.27s1.62.99 2.48 1.98v.02zm7.37.15l-.032-.132.014.06.02.08v-.008zm-.04-.16l-.03-.12.03.11v.01zm-.06-.244l-.01-.04v.03l.01.01zm-.112-.545l-.004-.02v.01l.004.003zm-.03-.16v-.02.02zm-.026-.17v-.01.005l.008.01-.006-.006zM43.66 20.09c.18-.286.388-.746.544-1.12l.064-.153c-.16.388-.406.94-.61 1.27l.002.003zm48.382 17.74l-.78.5c-9.06-5.78-15.902-4.03-15.902-4.03-1.08 7.3-5.682 9.646-5.682 9.646.63-.45 3.9-4.65 4.42-8.926.495-4.1-1.715-7.53-2.26-8.385-.72-1.14-1.69-3.333-1.69-3.333-1.352-3.064-.522-4.053-.562-7.3-.04-3.476-2.792-6.402-2.792-6.402.72.088 2.3 2.026 2.3 2.026 0-.45.22-1.308 1.525-1.62.91-.22 2.62-.508 3.79-.868s2.11-.98 2.38-2.06-.72-1.16-1.17-.9c-.45.28-1.26.46-1.26.46-.77.09-.45.36-.45.36l.63.752c-1.76.132-3.717-1.653-4.6-3.907-.81-2.067-2.7-1.98-2.7-1.98-3.34-.087-7.48 2.9-7.937 3.16-.86.5-.267.717-.267.717 1.264.092 2.254.452 2.254.452-4.414.18-8.11 1.26-10.547 3.06-2.43 1.8-4.32 7.577-4.32 7.577-.546 1.26-1.743 3.67-1.743 3.67-.63.99-1.685 2.36-2.95 3.71-1.26 1.353-4.684 5.68-4.684 9.74 0 4.06 4.51 9.195 4.96 9.83.45.63.54 1.44.54 1.44-1.35-1.53-2.68-2.67-2.68-2.67s-1.874.82-3.54 2.56c-1.24 1.29-2.34 3.26-3.337 4.612-.998 1.35-3.79 3.66-3.79 3.66-.99.9-2.975 2.65-3.7 3.46-.72.81-2.16 1.98-2.16 1.98l1.8.72c-.72.9-5.32-.806-8.65-2.7-3.334-1.895-7.3-3.97-7.3-3.97-3.523-1.532-6.184-1.67-7.484-1.26-.98.3-.99 1.44 0 1.8.99.36 3.787 1.35 4.777 2.255.99.9 1.713 2.34 1.983 2.88s-.18.36-.18.36c-.9-1.17-1.533-1.62-1.533-1.62-1.987 1.26-5.14 3.96-5.14 3.96C.263 63.33 2.7 62.79 2.7 62.79c5.32-1.08 7.752 2.074 7.752 2.074s.18.808-.27.36c-.452-.452-2.075-1.174-2.075-1.174-.18 1.62-1.625 2.166-2.615 3.883-.992 1.71.99 1.8 1.62 1.44.634-.36 1.714-.723 2.527-.99.802-.27.082-.81.082-.81.995-.446 5.41 2.62 7.216 3.253 1.8.632.9-.72.9-.72 2.066.272 6.22 5.32 7.3 5.95 1.08.625 1.98.267 1.98.267.722-1.264-.18-2.885-.18-2.885-1.67-3.104.722-3.88.722-3.88-.36.55-.635 1.9-.635 1.9 2.8-.72 5.233-2.068 6.582-3.24 1.355-1.177 2.98-2.26 2.98-2.26 4.326-2.48 7.3-2.16 7.66-2.16.36 0 .136.493.136.493l-1.1.12 1.42 3.367 49.08-31.028-1.734 1.09-.013-.004zm26.985 32.762c-.188 1.016-.408 2.02-.66 3.012l-.14.53c0 .013-.006.025-.008.035-.11.38-.23.79-.35 1.22l-.18.58c-.02.04-.03.1-.047.14-6.04 19.36-23.577 33.643-44.62 34.88-5.348.2-10.895-.49-16.856-1.96 0 0-1.84-.43-4.648-1.52C37.48 101.87 26.6 90.023 22.28 75.38c-.2-.77-.278-1.2-.278-1.2l.466.48-.14-.21c-1.535-1.805-3.473-3.065-3.473-3.065-.5.63-2.57.314-4.015-.54-1.44-.86-4.24-2.346-4.24-2.346-2.24 1.22-3.82 1.626-3.82 1.626-2.52.312-2.384-.95-2.43-1.94-.04-.995 1.896-2.527 2.44-3.02.54-.497.584-1.355.584-1.355-1.214-.72-2.61-.32-4.867-.14-2.255.18-2.84-1.8-1.353-3.33 1.49-1.53 5.096-3.786 5.096-3.786-2.21-1.71-2.84-1.348-5.14-2.52-2.148-1.1-.54-2.98-.54-2.98 3.33-1.26 6.02-.56 11.22 2.28 4.38 2.4 7.71 3.9 8.6 4.293.3-3.66.926-7.076 1.834-10.293 3.49-12.02 11.39-22.17 21.835-28.585l.12-.07.185-.115.27-.16-.004.02s.745-1.13 1.108-1.895c.36-.763.27-2.25 2.34-5.54 2.08-3.292 3.927-3.652 5.595-4.42 1.66-.765 4.1-.81 4.1-.81-.05-.18.085-.72.085-.72 1.17-1.265 5.18-3.38 6.808-3.833 1.62-.447 3.516-.15 3.516-.15 1.72.142 2.21 1.87 2.753 3.09.54 1.212 1.8 2.024 1.8 2.024.99.135 2.7-.993 2.84-1.04.132-.04.9.09 1.58.5.67.4.22 1.89-.55 3.108-.764 1.22-3.83 1.717-4.865 1.94-.92.2-1.445.577-1.553.66-.14.01-.214.02-.214.02v.08l.1-.005c22.234 0 41.065 14.563 47.48 34.666-.2.1-.86.42-1.758.867 1.08-.545 1.82-.9 1.82-.9l-.034-.08c2.16-.98 3.017-1.205 3.82-1.29.86-.093 1.557.4 2.095 1.033.55.634.32 2.114-.94 3.194-1.11.953-3.11 2.555-3.57 2.925l-.016-.06.01.042c.02.083.076.29.14.59.28 1.58.49 3.18.62 4.8-.06-.006-.22-.04-.46-.09l.48.1v-.054c5.757 1.11 6.03 1.68 6.7 1.95.675.27 1.62 1.574 1.533 2.48-.093.9-1.13 1.54-1.807 1.807-.673.27-2.656.1-4.28-.22-.98-.19-1.68-.27-2.08-.3l-.004-.03s.02.24.027.6c-.04.925-.105 1.843-.195 2.753l.035.028v-.006c2.165 2.05 2.03 2.64 1.673 3.706-.21.62-1.37.704-2.32.664l.01-.038-.03-.013v.02z"/></svg>