<svg viewBox="0 0 128 26" xmlns="http://www.w3.org/2000/svg" fill-rule="evenodd" clip-rule="evenodd" stroke-linejoin="round" stroke-miterlimit="1.414"><path d="M36.086 25.575h8.04L47.952.303h-8.04l-3.827 25.272zm-10.728 0h8.04l2.506-16.547h-8.04L25.36 25.575zm21.178 0h8.04L58.406.303h-8.04l-3.83 25.272zm30.413-6.92c1.34-6.2-2.73-10-8.62-10-5.27 0-10.025 3.426-10.857 8.91-.864 5.703 3.5 8.382 8.7 8.382 3.803 0 8.54-1.84 10.202-5.827h-7.82c-.273.78-.986 1.37-1.826 1.37-1.684 0-1.675-1.496-1.47-2.834h11.69zm46.67 0c1.342-6.2-2.72-10-8.61-10-5.27 0-10.02 3.426-10.85 8.91-.87 5.703 3.49 8.382 8.7 8.382 3.8 0 8.53-1.84 10.2-5.827h-7.82c-.28.78-.99 1.37-1.83 1.37-1.69 0-1.67-1.496-1.47-2.834h11.68zM13.09 11.74l-.842 5.547h3.865c-.623 1.432-2.432 2.056-3.77 2.056-2.774 0-4.026-2.43-3.635-5.014.43-2.84 2.51-5.46 5.562-5.46 1.372 0 2.492.62 2.968 1.81l8.42-2.93C24.428 3.73 19.128 1.7 15.045 1.7 7.66 1.702 1.32 6.312.16 13.98c-1.143 7.54 3.983 11.965 11.15 11.965 3.644 0 7.7-1.466 10.603-4.176 3.227-2.99 3.713-6.2 4.356-10.03H13.09zm52.693 3.49c.176-1.153.918-2.15 2.132-2.15 1.154 0 1.81 1.028 1.638 2.15h-3.77zm46.677 0c.177-1.153.92-2.15 2.135-2.15 1.153 0 1.807 1.028 1.636 2.15h-3.77zM103.303 3.7h-8.1l-.84 5.546-1.945-.126-.958 6.325 1.986-.156-1.56 10.28h8.1l1.56-10.29 2.657.155.958-6.325-2.69.127.84-5.546zm-13.547 0h-8.102l-.84 5.546-1.944-.126-.958 6.325 1.987-.156-1.56 10.28h8.1L88 15.29l2.658.155.958-6.325-2.7.126.84-5.546zm35.898 4.254c1.304 0 2.348-1.05 2.348-2.35 0-1.312-1.044-2.362-2.348-2.362-1.31 0-2.35 1.05-2.35 2.36 0 1.3 1.04 2.352 2.35 2.352zm-92.41-7.9c-2.524 0-4.648 1.464-5.01 3.863-.412 2.71 1.528 3.895 3.834 3.895 2.307 0 4.604-1.185 5.015-3.895.364-2.4-1.316-3.863-3.84-3.863zm92.41 7.34c-1.028 0-1.793-.746-1.793-1.79 0-1.057.77-1.804 1.8-1.804 1.01 0 1.79.747 1.79 1.803 0 1.045-.78 1.792-1.79 1.792zm.533-1.63c.432-.03.664-.214.664-.665 0-.65-.38-.75-.95-.75h-1.18v2.44h.548V5.76h.38l.548 1.03h.59l-.59-1.03zm-.928-.368V4.78h.53c.23 0 .55 0 .55.248 0 .31-.16.368-.43.368h-.66z"/></svg>