<svg viewBox="0 0 128 14" xmlns="http://www.w3.org/2000/svg" fill-rule="evenodd" clip-rule="evenodd" stroke-linejoin="round" stroke-miterlimit="1.414"><path d="M16.693 11.817l.084.21h.422v.15h-1.56v-.15h.56l-.088-.21h-2.64l-.085.21h.375v.15h-.983v-.15h.372l.082-.21h-.64v.425s-.176-.484-.827-.173c-.19.13-.42.2-.675.2-.37 0-.805-.15-1.16-.46h-.4c-.007.06-.01.12-.01.175 0 .68.376 1.265.927 1.557h6.11c.55-.29.93-.88.93-1.557 0-.06-.005-.116-.01-.175h-.798zm-4.924 0h-1.35c.22.18.48.248.77.248.23 0 .42-.09.57-.248zM9.85 10c0 .556.073.975.197 1.284H12v-.754h-.336v-.15h1.304v.15h-.366v.754h.853l.696-1.733H9.88c-.017.15-.025.29-.025.45zm3.844 1.284h2.214l-.184-.46h-1.846l-.184.46zm2.785 0l-.7-1.734h3.56v.427c0 .58-.34 1.078-.832 1.308h-2.03zM9.21 9.55H7.68v.426c0 .58.343 1.078.836 1.308H9.5c-.19-.335-.31-.76-.31-1.285 0-.16.01-.31.027-.45zm34.93-6.61c-2.025.36-3.456 2.206-3.095 4.677.3 2.06 2.058 3.674 4.44 3.27 2-.34 3.404-2.208 3.093-4.618-.268-2.08-2.034-3.76-4.438-3.33zm29.39-.01c-2.036.317-3.46 2.177-3.164 4.572.26 2.1 1.958 3.755 4.394 3.393 2.038-.302 3.455-2.182 3.154-4.608-.258-2.07-1.985-3.734-4.384-3.358zm23.61 7.803c0-.37-.016-.302.13-.363.14-.058.653-.026.935-.35.236-.27.247-.807.247-1.234V4.733c0-.63-.177-1.03-.728-1.2-.106-.032-.18-.04-.285-.06L97.2 3.4v-.35h2.532c.235 0 .176.02.243.152L101.9 8.1c.076.188.19.57.314.7.25-.99 2.055-4.67 2.173-5.75.53-.005 2.21-.04 2.592.024v.346c-.74.188-1.09-.016-1.09.916v5.14c0 .85.36.76 1.09.91l.004.375h-3.51l.014-.38c.727-.053 1.222-.02 1.222-.85V4.09c-.15.04-.048-.05-.15.14l-1.986 4.83-.345.84-.17.422c-.066.17-.073.304-.253.32-.224.02-.228-.156-.287-.33-.052-.15-.105-.274-.164-.426l-.99-2.57c-.225-.566-.437-1.14-.66-1.713-.123-.32-.526-1.475-.665-1.66-.02.038-.02.016-.04.11l-.01.337c.014 1.142-.1 4.616.135 5.306.186.546.656.536 1.23.7l.006.36c-.837.045-2.283.01-3.22.012v-.03zm27.28-7.304c.623.14 1.193.08 1.193.81v5.33c0 .874-.498.66-1.185.813l-.01.352c.362.043 3.096.033 3.58.01l-.006-.366c-.704-.133-1.187-.05-1.187-.86V4.23c0-.764.51-.73 1.193-.802v-.37l-3.577-.012v.377zm-58.567-.01c.634.17 1.193.062 1.193.81v5.39c0 .75-.498.713-1.18.745l-.014.39c1.152 0 2.457.023 3.58-.003l-.005-.376c-.707-.1-1.188-.07-1.188-.855V4.23c0-.35.05-.54.34-.654.212-.084.59-.126.843-.14v-.383L65.85 3.05v.37zm-16.237.02c.245.012.58.07.784.153.29.12.28.35.28.735v5.24c0 .775-.37.735-1.052.8l-.01.385 3.356-.003-.006-.375c-.754-.114-1.096.02-1.096-.858 0-.578-.023-1.754.014-2.264h.794c.503.65 2.134 2.746 2.516 3.496h2.15l-.082-.378-.25-.05c-.392-.07-.598-.196-.882-.454-.263-.236-.524-.62-.78-.95-.126-.164-1.408-1.826-1.484-1.98 1.08-.24 2.015-.95 1.908-2.256-.096-1.193-1.313-1.645-2.6-1.645h-3.56v.393zm31.32 7.02v.293h2.99l-.003-.39c-.82-.07-1.25-.15-1.096-.8.125-.533.36-.993.504-1.475h2.8c.15.412.69 1.68.69 2.01-.25.242-.6.202-1 .28l-.01.364 3.31.013c0-.587.015-.307-.502-.49-.563-.2-.64-.61-.887-1.24L86.93 7.01c-.265-.668-1.51-3.69-1.61-4.075l-.47-.003c-.085.366-1.36 3.45-1.61 4.07-.23.583-.95 2.563-1.334 2.966-.45.47-.84.253-.963.49zm-44.42-7.02c.278.02.57.08.817.17.304.115.377.25.377.62v5.39c0 .794-.472.68-1.18.754l-.012.382h3.578c0-.662-.07-.254-.815-.537-.31-.12-.37-.29-.37-.7V4.33c0-.817.38-.872 1.19-.89v-.39h-3.58v.398zm60.624 7.32h-2.16c-.187-.41-1.786-2.588-2.15-3.03-.3-.37-.284-.6-1.166-.45-.04.66-.006 1.423-.007 2.095-.003 1.03.226.847 1.095 1.007l.007.374H89.4l.013-.39c.703-.06 1.05-.024 1.05-.8V4.28c0-.613-.134-.785-1.062-.84v-.39h3.03c1.13 0 2.815.054 3.107 1.44.274 1.31-.61 2.128-1.876 2.46.117.255 2.17 2.864 2.26 2.943.627.545.908.363 1.227.523l.003.316v.03zm-83.2-.09h1.722l-.45-1.124h-.822l-.45 1.12zM73.8 3.38c-1.663.25-2.204 2.055-2.11 3.92.09 1.737.94 3.467 2.85 3.126 1.603-.287 2.15-2.068 2.05-3.91-.094-1.743-.904-3.415-2.79-3.135zm-29.237-.01c-1.696.17-2.268 1.94-2.215 3.783.05 1.796.81 3.482 2.71 3.295 1.684-.166 2.263-1.99 2.203-3.79-.06-1.774-.81-3.476-2.7-3.288zm62.717 7.095v.296h2.986l-.004-.39c-.832-.06-1.244-.15-1.09-.8.123-.52.34-.99.503-1.47h2.718c.167.043.768 1.78.767 2.005-.245.24-.588.225-1 .28l-.01.377c1.53.053 4.912.005 6.57.005l-.002-.39c-1.26-.143-1.412-.51-1.412-1.88l.005-3.927 1.25 1.613c.41.56.84 1.106 1.27 1.655.434.557.82 1.09 1.26 1.656.22.284.4.528.62.816.097.126.198.28.32.42.144.16.28.14.566.105.125-1.112-.11-5.243.06-6.46.118-.82.477-.78 1.24-.935v-.36c-.36-.044-2.76-.033-3.23-.01v.373c1.395.235 1.398.52 1.396 1.99V8.86l-.18-.168c-.64-.787-1.484-1.97-2.13-2.81-.54-.705-1.46-1.88-1.96-2.587-.135-.19-.136-.24-.45-.243-.497 0-1.57-.02-2.01.014v.363c.887.23 1.435.39 1.435 1.45v3.9c0 .55-.01 1.1-.403 1.34-.375.237-1 .3-1.43.13-.478-.192-.56-.506-.756-.977-.67-1.614-1.364-3.414-2.014-5.055-.143-.36-.414-.943-.497-1.287l-.475-.002c-.113.438-2.11 5.31-2.44 6.108-.283.683-.436 1.133-1.19 1.283-.27.056-.234.06-.275.14zM14.61 9h.382l-.19-.474L14.61 9zm-3.413-1.067c-.53 0-.99.368-1.21 1.068h2.237c-.064-.68-.282-1.06-1.027-1.06zm-5.425-.665v.558C5.772 8.476 6.3 9 6.948 9h2.394c.315-.91 1.07-1.244 1.755-1.244.154 0 .293.023.42.065.838.17.883-.04.884-.08v1.27h1.97l.6-1.483.6 1.48h4.52c.65 0 1.177-.524 1.177-1.173v-.56H5.777zm77.773.318l2.36.028c-.088-.335-1.06-2.758-1.194-2.927l-1.16 2.9zm26.343.002l2.36.025-1.17-2.936-1.19 2.91zm-18.23-1.076l.002.266c2.71.465 3.092-2.316 1.873-3.054-.38-.23-1.352-.317-1.876-.202v2.99zm-39.784.283c1.07.01 2.422-.045 2.52-1.616.045-.69-.196-1.17-.618-1.45-.484-.315-1.254-.24-1.904-.24l.002 3.296zM16.73 5.072l-.58.688c-.155-.15-.43-.433-.603-.688h-4.44c-.028.293-.067.57-.118.812l-.69-.812H3.81c-.21 1.12.88 1.56.88 1.56h17.65s1.088-.44.88-1.56h-6.49zM8.41 2.815H1.92c-.21 1.12.878 1.56.878 1.56h6.93L8.41 2.815zm10.213 0l-1.318 1.56h6.93s1.087-.44.878-1.56h-6.49zm-3.365 1.56l-.526-1.56H11.16c.007.244.02.478.02.697 0 .28-.007.572-.02.862h4.098zm49.07 5.918c-.104-2.266-.2-2.472.996-2.606l.014-.396h-3.48l.008.4c1.363.11 1.323.22 1.314 1.55 0 .16-.007.534-.038.68-.032.15 0 .166-.4.33-1.822.757-3.61-.41-3.817-2.855-.398-4.737 4.212-5.41 4.906-1.64h.48l-.05-2.694h-.46l-.193.35c-.625-.16-.89-.56-2.22-.51-2.25.087-3.982 1.86-3.82 4.41.16 2.53 2.226 3.888 4.597 3.59 1.16-.147 1.525-.455 2.173-.6zm-29.335-.012c-.038-.72-.226-2.17.28-2.44.19-.1.47-.1.56-.13.158-.05.174.06.165-.41H32.52l.01.39c1.34.124 1.32.18 1.32 1.5 0 .736.045.83-.392 1.035-1.647.775-3.612-.206-3.856-2.764-.173-1.823.413-3.475 1.726-3.963 1.19-.44 2.307.106 2.816 1.2.15.322.22.76.405 1.05l.42.008-.044-2.682c-.633-.025-.38-.026-.68.335-.245-.053-.63-.28-.96-.374-2.406-.69-5.284 1.01-5.06 4.323.165 2.47 2.236 3.855 4.613 3.54.904-.12 1.415-.392 2.153-.61zM16.65 1.76S16.485.805 15.39.45h-3.74c-.37.6-.475 1.207-.494 1.776h3.9c.05-.38.105-.467 1.595-.467zM6.518.557H.028c-.21 1.12.877 1.56.877 1.56h6.93L6.517.557zm20.49 0h-6.492l-1.318 1.56h6.93s1.088-.44.88-1.56z"/></svg>