<svg viewBox="0 0 64 64" xmlns="http://www.w3.org/2000/svg" fill-rule="evenodd" clip-rule="evenodd" stroke-linejoin="round" stroke-miterlimit="1.414"><path d="M14.733 40.322c-.248 0-.44-.09-.44-.4v-10.48c0-.137.124-.28.262-.28h3.02c.137 0 .25.113.25.252v10.504c0 .258-.074.404-.372.404h-2.72zM51.55 29.186h-3.004c-.137 0-.25.113-.25.253v7.77s-.763.55-1.847.55-1.38-.49-1.38-1.55v-6.77c0-.14-.11-.258-.25-.258h-3.05c-.138 0-.25.113-.25.253v7.283c0 3.15 1.756 3.922 4.172 3.922 1.982 0 3.58-1.096 3.58-1.096s.076.577.11.645c.035.067.125.136.22.136l1.94-.007c.14 0 .25-.114.25-.253V29.44c0-.14-.11-.254-.25-.254zm7.03 8.572c-1.043-.032-1.75-.505-1.75-.505v-5.018s.697-.428 1.553-.504c1.082-.09 2.125.23 2.125 2.82 0 2.72-.47 3.26-1.93 3.217zM26.527 29.16h-2.272l-.003-3c0-.114-.06-.17-.19-.17h-3.096c-.12 0-.185.052-.185.168v3.1s-1.55.375-1.65.405c-.1.03-.18.127-.18.242v1.95c0 .14.11.252.25.252h1.59v4.688c0 3.482 2.443 3.824 4.09 3.824.754 0 1.655-.25 1.804-.3.09-.04.14-.13.14-.23v-2.14c0-.14-.12-.258-.25-.258s-.47.054-.82.054c-1.114 0-1.492-.52-1.492-1.19v-4.45h2.273c.136 0 .25-.114.25-.254v-2.44c0-.14-.114-.254-.25-.254zm-14.2 1.594h-5.38c-.138 0-.25.112-.25.25v2.63c0 .14.112.252.25.252h2.098v3.267s-.47.16-1.773.16c-1.537 0-3.683-.56-3.683-5.28 0-4.722 2.23-5.343 4.33-5.343 1.81 0 2.6.32 3.09.474.157.048.3-.108.3-.247l.6-2.54c0-.065-.02-.144-.095-.197-.2-.144-1.435-.834-4.55-.834-3.59 0-7.275 1.527-7.275 8.87 0 7.343 4.216 8.438 7.77 8.438 2.94 0 4.726-1.258 4.726-1.258.076-.04.084-.143.084-.19v-8.2c0-.14-.112-.252-.25-.252zm27.715-6.528c0-.14-.11-.253-.25-.253h-3.028c-.138 0-.25.113-.25.253v5.852h-4.72v-5.852c0-.14-.11-.253-.25-.253h-3.028c-.138 0-.25.113-.25.253V40.07c0 .14.112.255.25.255h3.028c.14 0 .25-.114.25-.254V33.3h4.72l-.008 6.778c0 .14.112.255.25.255h3.036c.14 0 .25-.114.25-.254V24.23zm19.72 4.604c-1.705 0-2.866.76-2.866.76v-5.364c0-.14-.112-.253-.25-.253H53.61c-.138 0-.25.113-.25.253V40.07c0 .14.112.255.25.255h2.108c.095 0 .166-.05.22-.135.052-.085.127-.73.127-.73s1.242 1.176 3.593 1.176c2.76 0 4.342-1.4 4.342-6.284s-2.528-5.522-4.236-5.522zM18.04 26.305c0-1.09-.873-1.972-1.952-1.972-1.077 0-1.952.88-1.952 1.972 0 1.09.875 1.973 1.952 1.973 1.08 0 1.953-.884 1.953-1.973z" fill="#fff"/></svg>