<svg viewBox="0 0 64 64" xmlns="http://www.w3.org/2000/svg" fill-rule="evenodd" clip-rule="evenodd" stroke-linejoin="round" stroke-miterlimit="1.414"><path d="M31.997.79C14.33.79 0 15.117 0 32.793c0 14.136 9.168 26.13 21.884 30.363 1.6.293 2.185-.696 2.185-1.542 0-.76-.03-2.772-.046-5.444-8.9 1.935-10.78-4.288-10.78-4.288C11.79 48.185 9.692 47.2 9.692 47.2c-2.906-1.986.22-1.944.22-1.944 3.212.226 4.9 3.296 4.9 3.296 2.856 4.892 7.492 3.48 9.315 2.66.29-2.07 1.117-3.48 2.03-4.28-7.105-.806-14.575-3.552-14.575-15.815 0-3.492 1.247-6.35 3.294-8.586-.33-.81-1.428-4.06.314-8.466 0 0 2.687-.86 8.8 3.28 2.552-.71 5.29-1.064 8.01-1.076 2.72.012 5.457.367 8.012 1.077 6.11-4.14 8.79-3.28 8.79-3.28 1.748 4.405.65 7.658.32 8.468 2.052 2.238 3.29 5.095 3.29 8.587 0 12.293-7.483 15-14.61 15.79 1.148.99 2.17 2.94 2.17 5.927 0 4.278-.038 7.73-.038 8.78 0 .853.577 1.85 2.2 1.537C54.84 58.912 64 46.924 64 32.792 64 15.118 49.672.79 31.997.79z" fill="#fff"/></svg>