<svg viewBox="0 0 128 35" xmlns="http://www.w3.org/2000/svg" fill-rule="evenodd" clip-rule="evenodd" stroke-linejoin="round" stroke-miterlimit="1.414"><path d="M29.483 34.336c-.496 0-.88-.18-.88-.8V12.58c0-.274.248-.56.524-.56h6.04c.273 0 .5.226.5.504v21.004c0 .516-.15.808-.745.808h-5.44zm73.62-22.268h-6.006c-.273 0-.5.226-.5.506V28.11s-1.525 1.1-3.693 1.1c-2.167 0-2.76-.98-2.76-3.098V12.574c0-.28-.22-.516-.5-.516h-6.098c-.276 0-.5.226-.5.506v14.564c0 6.298 3.51 7.842 8.342 7.842 3.964 0 7.16-2.19 7.16-2.19s.15 1.152.22 1.288c.07.134.25.272.44.272l3.878-.014c.28 0 .5-.228.5-.506V12.576c0-.28-.22-.508-.5-.508h.018zm14.06 17.14c-2.087-.063-3.5-1.01-3.5-1.01V18.166s1.393-.856 3.105-1.008c2.164-.18 4.25.46 4.25 5.64 0 5.438-.94 6.518-3.86 6.432l.004-.02zm-64.097-17.19h-4.543l-.006-6c0-.228-.12-.34-.38-.34h-6.19c-.24 0-.37.104-.37.336v6.2s-3.1.75-3.3.81c-.2.06-.36.253-.36.483v3.9c0 .28.22.503.5.503h3.18v9.373c0 6.963 4.884 7.647 8.178 7.647 1.507 0 3.31-.5 3.607-.6.18-.08.28-.26.28-.46v-4.28c0-.28-.24-.515-.5-.515s-.94.108-1.64.108c-2.227 0-2.983-1.04-2.983-2.38v-8.898h4.54c.27 0 .5-.228.5-.508v-4.88c0-.28-.23-.507-.5-.507l-.02.006zM24.67 15.204H13.915c-.276 0-.5.224-.5.5v5.26c0 .28.224.502.5.502h4.195V28s-.94.32-3.547.32C11.49 28.32 7.2 27.2 7.2 17.76c0-9.44 4.458-10.683 8.657-10.683 3.62 0 5.2.64 6.18.948.313.096.6-.216.6-.494l1.2-5.07c0-.13-.04-.29-.19-.394-.4-.29-2.87-1.67-9.1-1.67C7.37.39 0 3.446 0 18.13 0 32.81 8.43 35 15.537 35c5.88 0 9.45-2.515 9.45-2.515.153-.08.17-.286.17-.38V15.707c0-.28-.225-.503-.5-.503h.015zM80.093 2.15c0-.28-.22-.506-.5-.506H73.54c-.277 0-.5.226-.5.506v11.702H63.6V2.15c0-.28-.22-.506-.5-.506h-6.055c-.276 0-.5.226-.5.506v31.682c0 .28.224.51.5.51H63.1c.28 0 .5-.228.5-.508v-13.54h9.438l-.016 13.554c0 .28.224.51.5.51h6.07c.28 0 .5-.228.5-.508V2.15zm39.434 9.206c-3.41 0-5.73 1.52-5.73 1.52V2.15c0-.28-.225-.506-.5-.506h-6.072c-.276 0-.5.226-.5.506v31.682c0 .28.224.51.5.51h4.215c.19 0 .33-.1.44-.27.102-.17.252-1.46.252-1.46s2.484 2.352 7.185 2.352c5.52 0 8.682-2.8 8.682-12.566 0-9.766-5.06-11.042-8.47-11.042h-.01zm-83.43-5.05c0-2.18-1.746-3.942-3.903-3.942-2.154 0-3.904 1.76-3.904 3.943 0 2.18 1.75 3.945 3.902 3.945 2.16 0 3.905-1.767 3.905-3.945h-.002z"/></svg>