<svg viewBox="0 0 128 42" xmlns="http://www.w3.org/2000/svg" fill-rule="evenodd" clip-rule="evenodd" stroke-linejoin="round" stroke-miterlimit="1.414"><path d="M43.713 11.595c-6.127 0-10.52 4.79-10.52 10.38 0 5.668 4.26 10.548 10.592 10.548 5.734 0 10.43-4.38 10.43-10.44 0-6.938-5.464-10.498-10.5-10.498l-.002.01zm22.878 0c-6.12 0-10.51 4.79-10.51 10.38 0 5.668 4.26 10.548 10.593 10.548 5.72 0 10.42-4.38 10.42-10.44 0-6.938-5.46-10.498-10.5-10.498l.006.01zm35.53 20.318h4.61V1.063h-4.61v30.85zM89.44 15.71c2.76 0 5.59 2.358 5.59 6.378 0 4.1-2.826 6.34-5.652 6.34-3 0-5.787-2.42-5.787-6.3 0-4.02 2.9-6.42 5.85-6.42zm-45.665 0c3.014 0 5.87 2.438 5.87 6.358 0 3.86-2.844 6.36-5.884 6.36-3.33 0-5.97-2.667-5.97-6.38 0-3.62 2.6-6.323 5.99-6.323v-.016zm22.878 0c3.013 0 5.87 2.438 5.87 6.358 0 3.86-2.845 6.36-5.884 6.36-3.34 0-5.98-2.667-5.98-6.38 0-3.62 2.6-6.323 5.98-6.323l.01-.016zm51.914-4.12c-5.303 0-9.76 4.22-9.76 10.458 0 6.595 4.966 10.5 10.272 10.5 4.41 0 7.13-2.42 8.75-4.59l-3.62-2.407c-.94 1.46-2.52 2.88-5.14 2.88-2.94 0-4.293-1.61-5.13-3.17L128 19.42l-.728-1.706c-1.356-3.34-4.52-6.133-8.703-6.133l-.01.01zm-87.084 3.22h-14.94v4.438h10.594c-.52 6.22-5.693 8.87-10.573 8.87-6.243 0-11.693-4.914-11.693-11.8 0-6.707 5.18-11.872 11.7-11.872 5.02 0 7.98 3.207 7.98 3.207l3.1-3.213S23.67 0 16.4 0C7.158-.008 0 7.8 0 16.23c0 8.26 6.73 16.32 16.638 16.32 8.72 0 15.1-5.97 15.1-14.8 0-1.86-.273-2.94-.273-2.94h.018zm87.27.8c1.914 0 3.29 1.018 3.874 2.238l-9.37 3.92c-.405-3.026 2.468-6.145 5.498-6.145l-.002-.014zm-29.717-4c-5.625 0-10.047 4.938-10.047 10.458 0 6.3 5.12 10.48 9.95 10.48 2.98 0 4.56-1.18 5.74-2.54v2.06c0 3.618-2.2 5.778-5.5 5.778-3.2 0-4.8-2.38-5.36-3.725L79.8 35.8c1.427 3.02 4.3 6.168 9.412 6.168 5.592 0 9.855-3.524 9.855-10.91v-18.81H94.68v1.773c-1.35-1.44-3.194-2.4-5.644-2.4v-.01z"/></svg>