<svg viewBox="0 0 129 34" xmlns="http://www.w3.org/2000/svg" fill-rule="evenodd" clip-rule="evenodd" stroke-linejoin="round" stroke-miterlimit="1.414"><path d="M91.157 22.077v11.27h15.354v-11.27H91.16zm-22.16 11.27v-11.27H53.644v11.27h15.353zm3.573-11.27v11.27h15.354v-11.27H72.57zm37.513 0v11.27h15.354v-11.27h-15.354zm16.904-2.867h.053l.153-.007.147-.026.14-.04.132-.047.127-.066.12-.074.11-.086.1-.093.092-.1.08-.11.073-.12.06-.132.047-.132.04-.14.02-.145.008-.153-.005-.153-.02-.153-.04-.145-.047-.146-.067-.135-.072-.128-.08-.12-.1-.113-.1-.1-.12-.087-.12-.08-.126-.066-.14-.053-.146-.04-.145-.028-.154-.008-.153.01-.15.027-.147.04-.144.05-.133.067-.128.08-.12.084-.113.1-.1.113-.088.12-.08.128-.067.134-.053.147-.04.15-.027.153-.006.154.005.152.027.145.033.14.053.133.07.133.07.12.095.115.1.107.105.093.12.086.12.07.132.07.14.043.147.04.15.027.153.006zm-1.29-1.484l.006-.133.02-.133.033-.12.047-.12.053-.12.067-.105.08-.1.086-.093.09-.087.1-.08.1-.066.12-.06.12-.05.12-.034.132-.02.133-.007.133.006.126.02.126.033.12.045.11.053.108.063.1.08.09.084.09.094.073.1.07.106.054.12.05.12.03.12.02.133.01.13-.008.133-.02.126-.032.125-.046.12-.054.114-.067.104-.07.1-.087.096-.092.086-.1.075-.105.07-.113.052-.12.044-.127.035-.126.02-.134.01-.133-.006-.13-.02-.12-.035-.12-.047-.12-.055-.106-.066-.1-.074-.093-.086-.09-.094-.08-.1-.064-.103-.056-.112-.05-.12-.034-.126-.02-.128-.008-.135zm.71.772h.3v-.652h.367l.232.652h.36l-.3-.712.06-.046.08-.074.04-.053.033-.066.02-.087v-.1l-.01-.073-.008-.066-.047-.1-.067-.083-.094-.06-.1-.04-.114-.027-.114-.006-.115-.006h-.54v1.61zm.3-1.377h.367l.04.01.046.02.073.054.053.08.014.04.006.046-.006.046-.014.04-.053.08-.073.053-.047.01-.04.008h-.365v-.48zM77.447.31l.4.006.392.015.39.037.38.034.38.054.36.06.36.067.35.08.345.086.333.1.326.105.32.114.306.128.293.13.28.14.27.147.26.153.248.16.223.167.22.174.2.18.192.18.166.19.16.195.14.2.12.21.11.204.085.21.068.22.053.22.028.22.013.228v2.33l-.014.227-.027.22-.053.22-.067.216-.084.214-.108.206-.12.2-.14.2-.16.198-.167.187-.19.187-.2.18-.22.173-.225.167-.247.16-.26.152-.274.144-.28.132-.29.133-.306.13-.32.112-.326.107-.335.093-.345.092-.35.08-.36.068-.366.06-.38.047-.38.04-.39.033-.393.014-.4.005H62.094v4.95l-.006.12-.02.11-.028.11-.04.116-.053.1-.054.1-.073.086-.073.086-.086.072-.092.073-.093.052-.108.053-.106.04-.11.026-.12.02-.12.007h-1.57l-.12-.006-.113-.02L59 17.52l-.114-.04-.1-.052-.1-.054-.087-.07-.09-.072-.07-.086-.073-.084-.053-.1-.05-.1-.04-.113-.027-.113-.02-.11-.006-.12V1.51l.01-.12.02-.115.028-.113.04-.112.054-.1.053-.1.074-.086.07-.09.084-.076.087-.074.1-.053.1-.05.11-.04.11-.037.112-.02.12-.005H77.45zM31.064 8.37v4.73l.007.227.04.22.05.22.066.22.087.212.1.2.12.208.14.2.145.192.174.19.18.18.2.18.206.173.224.166.24.16.25.15.26.15.28.14.286.124.295.127.308.114.32.106.327.1.333.087.344.08.35.065.353.06.365.055.372.033.38.035.382.014.388.003h8.136l.386-.007.387-.014.38-.034.37-.037.362-.052.354-.06.35-.07.345-.08.332-.083.325-.1.32-.106.306-.11.29-.128.286-.123.28-.14.26-.15.252-.15.24-.16.223-.17.21-.173.2-.18.18-.178.17-.195.146-.196.14-.2.12-.208.1-.207.085-.213.07-.22.046-.218.03-.22.008-.227V8.36l-.008-.227-.033-.22-.047-.22-.067-.22-.09-.21-.1-.208-.12-.206-.14-.2-.147-.2-.174-.192-.18-.18-.197-.177-.207-.172-.225-.166-.24-.16-.25-.152-.26-.146-.28-.14-.287-.126-.293-.126-.307-.11-.32-.108-.325-.1-.335-.085-.347-.08-.35-.06-.353-.06-.365-.054-.374-.033-.38-.033-.385-.014-.386-.007H38.24l-.385.012-.38.032-.372.032-.366.053-.354.06-.352.063-.34.08-.337.086-.326.1-.32.11-.306.11-.292.127-.286.127-.28.14-.26.147-.25.153-.24.16-.227.164-.206.173-.2.18-.18.18-.174.195-.145.19-.14.2-.12.207-.1.208-.085.21-.066.22-.05.22-.033.22-.008.224zm71.308 0v4.73l.007.227.03.22.04.22.066.22.086.212.1.2.12.208.14.2.145.192.173.19.18.18.2.18.206.173.227.166.24.16.252.15.26.15.28.14.284.124.29.127.306.114.32.106.327.1.332.087.345.08.355.065.35.06.367.055.373.033.38.035.388.014.387.003h8.137l.388-.007.383-.014.38-.034.37-.037.367-.052.354-.06.35-.07.347-.08.33-.083.325-.1.32-.106.305-.11.295-.128.285-.123.28-.14.26-.15.252-.15.24-.16.224-.17.206-.173.2-.18.18-.178.17-.195.15-.196.14-.2.12-.208.1-.207.09-.213.064-.22.047-.218.038-.22.007-.227V8.36l-.006-.227-.035-.22-.046-.22-.067-.22-.085-.21-.1-.208-.12-.206-.14-.2-.146-.2-.17-.192-.18-.18-.2-.177-.21-.172-.225-.166-.24-.16-.252-.152-.26-.146-.28-.14-.284-.126-.294-.126-.306-.11-.32-.108-.325-.1-.333-.085-.345-.08-.352-.064-.352-.06-.365-.054-.372-.03-.38-.03-.385-.016-.386-.006h-8.137l-.386.004-.383.013-.38.032-.373.03-.368.057-.35.06-.354.066-.345.08-.33.087-.326.1-.32.108-.305.113-.292.127-.286.126-.28.14-.26.146-.254.15-.24.16-.226.167-.205.172-.2.18-.18.18-.172.19-.147.193-.14.2-.12.203-.1.207-.085.21-.065.22-.05.22-.032.22-.007.227zm-12.68 9.12l-.12-.005-.112-.02-.113-.025-.113-.04-.2-.107-.086-.072-.086-.07-.073-.083-.08-.087-.057-.1-.053-.1-.04-.114-.027-.113-.02-.112-.007-.12V8.37l.005-.227.035-.22.045-.22.066-.22.085-.21.1-.21.12-.205.14-.2.15-.192.17-.193.18-.18.2-.18.207-.175.225-.17.24-.16.25-.15.26-.148.28-.14.287-.127.29-.125.31-.112.32-.107.32-.1.333-.088.346-.08.352-.063.35-.06.366-.056.374-.032.378-.032.387-.013.382-.005h2.51l.12.007.12.02.11.025.112.04.106.053.095.06.094.064.086.073.08.086.067.096.06.1.055.1.04.114.027.112.02.12.005.12-.01.125-.02.113-.025.12-.04.106-.05.105-.06.1-.068.094-.08.085-.086.073-.094.063-.093.06-.107.054-.112.04-.11.026-.12.02-.12.007h-2.71l-.38.013-.364.028-.35.054-.348.068-.32.086-.306.1-.284.12-.265.13-.24.14-.213.16-.187.167-.155.18-.125.182-.092.193-.05.207-.02.207v7.916l-.007.12-.02.113-.027.11-.04.113-.053.1-.053.1-.073.087-.075.088-.088.074-.094.074-.094.053-.107.053-.108.04-.115.026-.12.02-.12.01h-1.29zm-54.975-4.42V8.392l.02-.206.054-.207.1-.2.13-.188.153-.18.186-.166.21-.16.24-.14.267-.13.287-.12.306-.1.32-.088.344-.068.354-.054.367-.026.38-.012h8.54l.38.014.367.026.352.05.345.068.32.086.305.1.29.12.265.132.24.14.21.16.188.164.16.18.127.185.093.19.053.207.02.206v4.677l-.02.208-.053.207-.092.194-.126.186-.16.18-.188.164-.212.16-.24.14-.266.13-.286.12-.307.1-.32.088-.344.066-.353.05-.366.027-.38.015h-8.54l-.38-.013-.366-.028-.35-.054-.344-.068-.32-.088-.306-.1-.29-.12-.266-.134-.24-.14-.213-.16-.184-.164-.15-.18-.126-.184-.093-.193-.054-.207-.02-.207zm71.308 0V8.392l.02-.206.053-.207.093-.2.13-.188.16-.18.187-.166.213-.16.24-.14.265-.13.286-.12.307-.1.32-.088.346-.068.355-.054.365-.026.38-.012h8.54l.38.014.366.026.353.05.345.068.32.086.303.1.288.12.267.132.24.14.212.16.186.164.16.18.126.185.092.19.05.207.02.206v4.677l-.02.208-.053.207-.093.194-.126.186-.16.18-.187.164-.21.16-.24.14-.267.13-.284.12-.304.1-.32.088-.344.066-.353.05-.367.027-.377.015h-8.54l-.38-.013-.367-.028-.354-.054-.346-.068-.32-.088-.307-.1-.285-.12-.267-.134-.24-.14-.21-.16-.187-.164-.15-.18-.13-.184-.092-.193-.053-.207-.02-.207zM7.09 17.4l-.34-.006-.332-.014-.326-.026-.326-.04-.32-.047-.312-.06-.306-.066-.3-.07-.292-.08-.28-.092-.28-.1-.265-.112-.26-.12-.24-.125-.24-.133-.23-.14-.22-.146-.204-.152-.193-.16-.186-.165-.173-.165-.16-.18-.145-.18-.134-.193-.12-.186-.1-.2-.09-.2-.074-.205-.06-.206-.04-.206-.024-.216-.006-.22V4.56l.007-.22.027-.213.04-.213.06-.206.077-.2.09-.206.1-.193.12-.2.13-.186.148-.18.16-.18.17-.17.185-.17.192-.16.206-.15.22-.148.232-.14.24-.134.245-.128.26-.114.27-.113.28-.1.28-.093.29-.087.3-.074.3-.064.314-.06.32-.048.324-.04.327-.025.333-.014.34-.006h6.46l.134.008.128.02.126.033.113.04.114.054.11.067.1.074.09.08.08.093.073.1.065.104.052.11.04.114.033.126.02.128.006.135-.008.134-.02.124-.032.13-.04.115-.054.115-.067.105-.074.1-.08.093-.093.086-.1.07-.107.068-.112.052-.11.04-.126.033-.13.02-.135.005H7.49l-.327.012-.313.025-.306.05-.292.063-.28.087-.266.1-.24.12-.226.133-.206.14-.186.16-.16.166-.133.17-.106.188-.08.2-.06.2-.017.203v8.058l.014.21.053.2.08.2.106.184.13.174.16.17.187.16.206.147.226.128.24.12.266.1.28.087.29.066.307.052.313.025.328.014H20.1l.326-.016.313-.024.3-.055.29-.066.272-.09.265-.1.246-.12.227-.125.207-.148.18-.16.16-.167.132-.172.104-.184.08-.2.05-.2.013-.206v-1.42H17.9l-.14-.006-.14-.02-.14-.04-.125-.046-.12-.06-.12-.07-.106-.08-.1-.094-.1-.1-.08-.114-.07-.113-.06-.13-.047-.124-.04-.13-.02-.14-.007-.147.007-.145.02-.14.04-.133.048-.135.06-.12.067-.12.08-.108.093-.1.1-.095.106-.078.12-.075.12-.06.126-.045.14-.04.14-.02.14-.008h8.24l.1.005.1.012.1.027.092.032.17.1.147.124.13.15.095.18.034.093.026.094.014.1.007.106v3.407l-.005.22-.027.214-.04.207-.06.207-.075.21-.092.2-.1.2-.12.183-.13.2-.146.18-.16.18-.172.164-.185.168-.194.16-.204.153-.22.148-.233.14-.24.132-.245.124-.26.12-.267.11-.28.1-.28.094-.29.088-.3.074-.305.067-.313.06-.32.046-.323.04-.328.025-.335.014-.34.005H7.09zm55.002-8.64h15.966l.34-.008.332-.033.32-.05.305-.06.293-.08.273-.1.26-.11.24-.12.22-.14.195-.15.165-.15.14-.166.112-.172.086-.18.048-.186.02-.193V4.58l-.02-.192-.046-.186-.085-.18-.112-.173-.14-.17-.165-.16-.193-.146-.213-.134-.24-.126-.26-.107-.273-.1-.29-.08-.31-.06-.32-.047-.33-.032-.34-.005H62.1v6.07z"/></svg>