<svg viewBox="0 0 125 128" xmlns="http://www.w3.org/2000/svg" fill-rule="evenodd" clip-rule="evenodd" stroke-linejoin="round" stroke-miterlimit="1.414"><path d="M117.782 90.587c0 20.662-16.75 37.413-37.412 37.413-5.96 0-11.595-1.394-16.596-3.873-4.99 2.465-10.647 3.873-16.59 3.873-20.662 0-37.412-16.75-37.412-37.413 0-20.663 16.75-37.413 37.413-37.413 5.963 0 11.58 1.388 16.583 3.86 5.002-2.472 10.638-3.86 16.602-3.86 20.662 0 37.412 16.75 37.412 37.413zm-7.384 0c0-16.584-13.444-30.03-30.028-30.03-3.158 0-6.203.49-9.062 1.393 5.735 4.797 9.912 11.212 11.954 18.634l-7.75.018c-2.187-6.207-6.355-11.462-11.748-15.04-5.38 3.578-9.54 8.843-11.723 15.04l-7.74-.018c2.038-7.402 6.29-13.874 12-18.667-2.852-.9-5.955-1.36-9.11-1.36-16.58 0-30.03 13.446-30.03 30.03 0 16.584 13.448 30.028 30.03 30.028 3.13 0 6.15-.48 8.99-1.37-7.44-6.257-12.28-15.373-13.1-25.647h17.8v7.34l-8.66.12c2.23 5.995 6.327 11.087 11.578 14.57 5.272-3.484 9.31-8.56 11.548-14.57l-8.66-.12v-7.34h17.8c-.817 10.276-5.777 19.35-13.222 25.61 2.876.914 5.94 1.407 9.117 1.407 16.584 0 30.028-13.444 30.028-30.028zm13.53-65.35c-.986 0-1.972-.58-1.972-2.205V3.712c0-1.623.986-2.203 1.972-2.203.93 0 .93-.87 0-.87H115.4c-.928 0-.928.87 0 .87.987 0 1.973.58 1.973 2.2v19.32c0 1.62-.986 2.2-1.972 2.2-.92 0-.92 1.16 0 1.16h8.53c.93 0 .93-1.16 0-1.16zM29.848 1.51c.987 0 1.974.58 1.974 2.205V16.39c0 6.073 4.748 10.53 10.82 10.53s10.994-4.457 10.994-10.53l.115-12.675c0-1.624.99-2.205 1.98-2.205.93 0 .93-.87 0-.87h-5.92c-.924 0-.924.87 0 .87.99 0 1.976.58 1.976 2.205L51.99 17c0 4.282-3.47 8.624-7.753 8.624-4.282 0-7.782-3.47-7.782-7.754l.008-14.155c0-1.624.986-2.205 1.972-2.205.93 0 .93-.87 0-.87H29.85c-.93 0-.93.87 0 .87zm70.714 25.235c3.713 0 8.528-1.973 11.08-3.83V18.16c0-.638-.406-.754-.638.06-.232.81-3.19 6.96-9.398 7.134-6.208.174-10.27-5.57-10.27-12.067 0-6.498 4.237-11.593 10.502-11.72 5.8-.115 8.122 5.28 8.18 6.15 0 .58.638.64.638 0V2.612C108.22.987 104.216 0 100.272 0 96.327 0 86.58 2.61 86.58 13.518c0 10.906 10.27 13.227 13.982 13.227zm-28.79 0c3.714 0 8.53-1.973 11.082-3.83V18.16c0-.638-.406-.754-.638.06-.232.81-3.19 6.96-9.4 7.134-6.206.174-10.268-5.57-10.268-12.067 0-6.498 4.236-11.593 10.5-11.72 5.803-.115 8.124 5.28 8.182 6.15 0 .58.637.64.637 0V2.612C79.43.987 75.427 0 71.483 0 67.538 0 57.79 2.61 57.79 13.518c0 10.906 10.27 13.227 13.983 13.227zm-57.79 0C10.267 26.745 0 24.425 0 13.518S9.775.262 13.72.262c3.945 0 8.15.725 10.588 2.35v5.105c0 .638-.87.58-.87 0-.06-.87-2.38-6.092-8.18-5.976-6.266.13-10.5 5.05-10.5 11.55s4.118 12.07 10.325 11.89c2.016-.05 4.12-.69 5.14-1.54l.024-5.65c0-1.623-.986-2.203-1.973-2.203-.638 0-.638-.927 0-.927h8.47c.638 0 .638.986 0 .93-.986 0-1.972.58-1.972 2.202v5.8c-2.088 1.86-7.078 2.96-10.79 2.96z"/></svg>