<svg viewBox="0 0 59 129" xmlns="http://www.w3.org/2000/svg" fill-rule="evenodd" clip-rule="evenodd" stroke-linejoin="round" stroke-miterlimit="1.414"><path d="M45.238 124.299c0 2.131-7.029 3.859-15.699 3.859s-15.699-1.728-15.699-3.859l-1.344-19.879-3.8-6.315s7.601 3.099 20.522 3.099 20.639-3.157 20.639-3.157l-3.391 5.788-1.228 20.464zm-.687-49.984c-.338-3.255 7.12-7.969 5.206-8.12-4.121.235-6.171 4.828-8.244 9.639-.76 1.763-3.359 9.281-5.064 8.355-1.705-.925 2.209-7.107 3.307-10.778-1.266.928-5.909 4.535-7.105 1.157-1.924 1.634-6.034 2.519-5.57-1.772-1.023 1.812-3.32 4.343-6.077 3.291-3.62-1.38 2.098-12.912 3.52-12.331 1.422.582-.287 3.209-.735 4.229-.984 2.245-2.121 5.067-1.361 5.645 1.301.99 4.842-3.744 4.921-3.848.662-.875 2.55-6.6 4.07-5.943 1.521.657-3.793 8.216-1.806 9.716.401.303 2.04-.186 3.038-1.266.645-.698.423-2.244 2.575-7.374 2.151-5.131 4.068-11.52 5.544-11.033 1.475.486.259 3.766-.27 4.988-2.484 5.737-6.779 15.216-4.753 14.499 2.025-.718 3.08-.76 5.063-3.081 1.984-2.321 1.892-6.144 3.214-6.063 1.323.081 1.101 1.307.78 2.241 1.301-1.489 6.168-4.625 7.343-1.519 1.391 3.677-6.963 8.988-4.88 8.717 2.031-.264 5.321-2.348 6.726-4.243l3.867-34.764s-3.891 3.22-28.646 3.22C4.459 37.877.97 34.724.97 34.724l3.292 31.732C6.01 61.489 10.159 51.444 16.7 51.781c2.975.153 6.947 5.882 3.545 6.076-1.44.082-1.586-2.859-3.292-3.291-1.23-.312-2.943.688-4.051 1.772-2.208 2.161-6.957 10.688-6.33 14.939.8 5.419 7.479-1.883 8.609-4.052.796-1.527 1.334-6.052 3.074-5.577 1.741.475-.152 5.145-1.413 9.273-1.418 4.636-2.163 9.527-3.94 8.964-1.777-.562 1.118-6.547 1.013-7.596-1.67 1.541-4.747 5.442-8.683 3.511l2.045 19.705s5.434 4.294 21.803 4.294 22.004-4.227 22.004-4.227l2.539-22.823c-2.077 2.023-8.651 5.614-9.072 1.566zM54.456.321c.362-.41 1.486-.022 2.516.869 1.005.871 1.548 1.901 1.241 2.336l.003.002-.027.029-.001.001-.027.029-14.22 14.962-2.577 10.188c10.045.633 17.043 2.051 17.043 3.699 0 2.237-12.903 4.051-28.819 4.051-15.916 0-28.819-1.814-28.819-4.051s12.903-4.051 28.819-4.051c2.254-.001 4.508.037 6.76.112l2.993-12.173 15.113-16 .002-.003z"/></svg>