<svg viewBox="0 0 128 110" xmlns="http://www.w3.org/2000/svg" fill-rule="evenodd" clip-rule="evenodd" stroke-linejoin="round" stroke-miterlimit="1.414"><path d="M128 17.85c0 1.428-.18 2.77-.534 4.036-.354 1.28-.788 2.62-1.3 4.06l-20.134 47.278c-1.832 5.4-4.45 10.332-7.852 14.8-3.41 4.48-7.352 8.344-11.828 11.6-4.48 3.25-9.412 5.796-14.8 7.632-5.39 1.826-10.98 2.744-16.78 2.744-7.53 0-14.626-1.426-21.288-4.27-6.66-2.856-12.46-6.766-17.388-11.76-4.934-4.98-8.852-10.776-11.752-17.38C1.444 69.97 0 62.91 0 55.384c0-7.54 1.446-14.6 4.344-21.208 2.9-6.62 6.82-12.416 11.752-17.394 4.93-5 10.728-8.92 17.39-11.76 6.66-2.84 13.754-4.26 21.286-4.26h56.144c2.336 0 4.55.42 6.636 1.284 2.08.87 3.886 2.06 5.414 3.588 1.526 1.526 2.75 3.326 3.66 5.412.92 2.086 1.374 4.346 1.374 6.792v.012zM99.016 55.384c0-6.11-1.144-11.88-3.434-17.32-2.28-5.44-5.44-10.194-9.46-14.266-4-4.072-8.72-7.276-14.1-9.61-5.386-2.336-11.14-3.514-17.24-3.514-6.1 0-11.866 1.18-17.32 3.514-5.44 2.334-10.184 5.536-14.26 9.61-4.08 4.072-7.28 8.826-9.62 14.266-2.34 5.436-3.5 11.21-3.5 17.32 0 6.094 1.172 11.844 3.512 17.232s5.546 10.094 9.62 14.116c4.064 4.024 8.82 7.164 14.26 9.46 5.44 2.286 11.22 3.428 17.32 3.428s11.844-1.14 17.24-3.426c5.386-2.3 10.092-5.44 14.108-9.46 4.02-4.024 7.17-8.73 9.46-14.12 2.28-5.384 3.42-11.13 3.42-17.23h-.006zm-16.63 12.664l3.2 9.3-18.61 5.486-11.136-29.29-17.09 27.16H26.086L50.65 39.358l-3.05-7.474h-7.78V23.04h15.564l18.612 47.59 8.394-2.58-.004-.002zm32.496-39.98h-9.6c.72-.806 1.6-1.8 2.68-2.98 1.072-1.168 2.108-2.408 3.12-3.736 1.02-1.316 1.86-2.696 2.52-4.11.66-1.44 1-2.86 1-4.28 0-2.36-.664-3.98-1.986-4.9-1.32-.91-3-1.37-5.04-1.37-2.34 0-4.17.584-5.492 1.752-1.32 1.166-1.88 2.93-1.674 5.26h5.34c0-.804.074-1.572.228-2.28.156-.72.79-1.068 1.906-1.068.61 0 1.064.22 1.368.68.308.46.46 1 .46 1.604 0 .706-.132 1.4-.38 2.06-.256.66-.74 1.5-1.454 2.52s-1.7 2.31-2.974 3.886c-1.272 1.58-2.874 3.688-4.804 6.332v4.42h14.8v-3.8l-.018.01z" fill-rule="nonzero"/></svg>