<svg viewBox="0 0 129 64" xmlns="http://www.w3.org/2000/svg" fill-rule="evenodd" clip-rule="evenodd" stroke-linejoin="round" stroke-miterlimit="1.414"><path d="M108.409 58.236c.595-.63 2.431.588 1.778 1.614-1.645 2.665-5.489 4.25-8.758 3.473-3.537-.837-6.316-3.533-6.316-8.146 0-3.724 2.589-6.981 6.207-7.671 4.551-.865 7.288 1.983 8.499 4.703.377.857.25 1.654-.612 2.22-.48.321-2.02 1.111-3.743 1.755-1.901.712-3.7 1.241-4.398 1.449-.468.139-.619.298-.436.817.853 2.391 3.749 2.138 4.764 1.811 1.078-.342 2.175-1.18 3.015-2.025zm-32.294 0c.595-.63 2.432.588 1.78 1.614-1.645 2.665-5.49 4.25-8.76 3.473-3.537-.837-6.316-3.533-6.316-8.146 0-3.724 2.591-6.981 6.207-7.671 4.553-.865 7.289 1.983 8.499 4.703.379.857.252 1.654-.612 2.22-.48.321-2.019 1.111-3.743 1.755-1.899.712-3.7 1.241-4.398 1.449-.468.139-.619.298-.434.817.851 2.391 3.747 2.138 4.764 1.811 1.076-.342 2.172-1.18 3.013-2.025zm-42.36 0c.593-.63 2.43.588 1.777 1.614-1.645 2.665-5.488 4.25-8.759 3.473-3.536-.837-6.316-3.533-6.316-8.146 0-3.724 2.59-6.981 6.207-7.671 4.551-.865 7.29 1.983 8.499 4.703.378.857.251 1.654-.611 2.22-.483.321-2.02 1.111-3.744 1.755-1.899.712-3.7 1.241-4.398 1.449-.47.139-.619.298-.435.817.853 2.391 3.748 2.138 4.764 1.811 1.078-.342 2.173-1.18 3.016-2.025zm82.929-10.197c.388 0 .528.174.789.788 0 0 .384-.198.795-.387 1.013-.469 2.988-1.325 4.623-.805 1.417.453 2.64 1.483 2.64 4.183v8.176c0 .351.017.494.178.582.217.12.596-.238.959-.423.364-.187.567.033.79.281.197.217.431.522.241.922-.606 1.267-1.957 1.994-3.541 1.994-1.496 0-3.402-.86-3.402-3.101v-7.874c0-1.202-.872-1.621-1.551-1.536-1.023.126-1.767.984-1.767 2.511l-.003 5.844c0 .582.18 1.223.616 1.47.28.158.561.314.844.468.211.118.227.266.199.597-.022.236-.087.85-.111 1.097-.029.277-.216.384-.648.384h-6.719c-.383 0-.621-.067-.653-.384l-.118-1.141c-.034-.296.019-.446.214-.556.281-.16.564-.318.847-.474.332-.185.602-.679.602-1.491l-.001-7.353c-.002-.987-.292-1.449-.611-1.628-.191-.106-.457-.261-.583-.332-.198-.113-.231-.304-.193-.554.034-.234.085-.628.119-.876.044-.314.271-.382.654-.382h4.791zm-65.25 0c.388 0 .527.174.789.788.262-.134.527-.264.795-.387 1.013-.469 2.988-1.325 4.624-.805 1.416.453 2.64 1.483 2.64 4.183h-.001v8.176c0 .351.016.494.178.582.218.12.597-.238.958-.423.365-.187.568.033.792.281.196.217.431.522.239.922-.605 1.267-1.956 1.994-3.54 1.994-1.496 0-3.402-.86-3.402-3.101v-7.874c0-1.202-.872-1.621-1.551-1.536-1.023.126-1.767.984-1.767 2.511l-.003 5.844c0 .582.182 1.223.616 1.47.28.158.561.314.844.468.211.118.227.266.198.597-.021.236-.086.85-.11 1.097-.029.277-.217.384-.647.384h-6.72c-.383 0-.622-.067-.653-.384-.026-.247-.092-.907-.118-1.141-.034-.296.02-.446.214-.556.282-.16.565-.318.849-.474.33-.185.6-.679.6-1.491l-.001-7.353c-.003-.987-.292-1.449-.612-1.628-.188-.106-.456-.261-.58-.332-.2-.113-.231-.304-.195-.554.034-.234.086-.628.121-.876.043-.314.27-.382.652-.382h4.791zm-7.777 15.172h-6.722c-.382 0-.62-.068-.652-.384-.038-.381-.078-.762-.118-1.143-.033-.295.021-.445.214-.556l.848-.473c.331-.184.601-.678.601-1.491l-.001-7.353c-.002-.987-.292-1.449-.611-1.629-.19-.106-.456-.259-.582-.331-.198-.113-.23-.303-.194-.554.033-.233.085-.627.12-.875.043-.314.27-.383.653-.383h5.093c.247 0 .45.203.45.45v.002l.002 10.723c.006.777.264 1.256.615 1.45.28.157.561.314.843.469.21.116.227.266.197.596-.02.236-.084.85-.109 1.098-.029.276-.217.384-.647.384zm-34.308 0H1.787c-.383 0-.62-.068-.653-.384-.026-.248-.096-.959-.122-1.195-.033-.3.028-.454.213-.54.253-.118.804-.363 1.043-.474.47-.218.67-.854.67-1.522l-.002-12.917c-.001-.722-.203-1.304-.729-1.548-.238-.11-.737-.336-.979-.451-.201-.096-.256-.282-.217-.545.034-.236.09-.64.123-.887.043-.314.27-.383.653-.383h7.21c.384 0 .604.069.648.383.033.247.089.651.123.887.039.263-.013.445-.209.55-.257.139-.617.341-.848.467-.312.17-.516.522-.521 1.354l-.001 3.765v.001c0 .253.208.461.461.461h4.037c.253 0 .46-.208.46-.46v-.002l-.001-3.765c-.005-.832-.209-1.184-.519-1.354-.232-.126-.592-.328-.848-.467-.196-.105-.25-.287-.211-.55l.124-.887c.044-.314.264-.383.647-.383h7.21c.383 0 .61.069.654.383.034.247.088.651.123.887.038.263-.015.449-.216.545-.244.115-.743.341-.981.451-.524.244-.727.826-.728 1.548L18.4 59.096c0 .668.198 1.304.668 1.522.238.111.791.356 1.044.474.186.086.245.24.213.54-.026.236-.097.947-.122 1.195-.033.316-.271.384-.654.384h-7.561c-.409 0-.619-.115-.646-.384-.026-.248-.095-.921-.121-1.157-.029-.265-.022-.471.181-.563.294-.133.814-.373 1.054-.479.441-.196.685-.738.69-1.549l.001-5.224v-.001a.462.462 0 0 0-.46-.46H8.65a.463.463 0 0 0-.461.461l.001 5.224c.006.811.25 1.353.692 1.549.239.106.759.346 1.053.479.203.092.21.298.18.563l-.12 1.157c-.027.269-.237.384-.646.384zm76.63-.001h-6.72c-.384 0-.624-.066-.656-.383-.026-.249-.09-.908-.115-1.143-.033-.296.019-.446.214-.555.282-.16.565-.318.849-.475.331-.183.6-.678.6-1.489v-13.12c-.003-.909-.347-1.321-.614-1.47-.188-.107-.733-.409-.857-.48-.188-.107-.225-.312-.188-.564l.11-.784c.045-.33.26-.383.652-.383h4.853c.413 0 .873.305.873.881l.002 10.025 3.125-2.814c.287-.258.205-.533.044-.608-.279-.13-.59-.267-.765-.346-.194-.089-.292-.192-.26-.511.033-.303.086-.791.108-1.023.029-.301.131-.424.627-.424h5.931c.372 0 .498.129.523.372.025.278.093.854.119 1.132.021.221-.134.35-.461.469-.858.314-1.231.536-2.39 1.657-.724.699-1.881 1.798-1.887 1.803 0 0 2.739 4.954 3.486 6.315.568 1.034 1.206 1.321 2.072 1.814.223.126.29.209.25.628-.03.323-.081.817-.105 1.074-.035.358-.289.402-.645.402h-4.037c-.511 0-.711-.106-.893-.436l-3.57-6.494-1.272 1.215v1.695c.006.777.364 1.28.713 1.475l.843.468c.212.117.227.265.199.597-.021.235-.086.848-.11 1.097-.029.275-.216.383-.648.383zm-60.416-8.604c.3.814.909.727 2.186.292l1.298-.429c.495-.167 1.043-.389 1.351-.763.211-.256.254-.94.061-1.589-.518-1.749-1.584-2.642-3.319-2.047-1.649.564-1.931 3.557-1.577 4.536zm74.656 0c.3.814.899.701 2.185.299a39.53 39.53 0 0 0 1.298-.436c.564-.203 1.043-.389 1.351-.763.212-.256.252-.941.062-1.589-.278-.933-.71-1.624-1.317-1.973-.531-.306-1.209-.393-2.002-.074-.704.281-1.104.847-1.375 1.57-.398 1.075-.415 2.38-.202 2.966zm-32.294 0c.3.814.902.701 2.186.299.435-.138.867-.283 1.297-.436.563-.203 1.042-.389 1.352-.763.211-.256.253-.941.061-1.589-.276-.933-.71-1.624-1.317-1.973-.53-.306-1.209-.393-2.002-.074-.704.281-1.104.847-1.375 1.57-.398 1.075-.412 2.38-.202 2.966zM39.898 41.942c-1.49 0-2.697 1.165-2.697 2.603 0 1.437 1.207 2.602 2.697 2.602 1.488 0 2.696-1.165 2.696-2.602 0-1.438-1.208-2.603-2.696-2.603zm89.101 1.546a2.972 2.972 0 0 1-2.969 2.971 2.977 2.977 0 0 1-2.981-2.971 2.972 2.972 0 0 1 2.981-2.972 2.967 2.967 0 0 1 2.969 2.972zm-.605 0a2.366 2.366 0 0 0-2.364-2.371 2.375 2.375 0 0 0-2.382 2.371 2.378 2.378 0 0 0 2.382 2.373 2.37 2.37 0 0 0 2.364-2.373zm-2.861 1.489h-.733v-3.202h1.532c.357 0 .973.211.973.892 0 .428-.237.724-.477.815.264.174.381.372.434.716.052.348.208.598.293.781l-.796-.001c-.152-.341-.185-.571-.262-.807-.104-.344-.318-.445-.689-.445h-.275v1.251zm.523-2.617h-.518v.735h.589c.252 0 .423-.166.423-.386 0-.258-.27-.349-.494-.349zm-72.307-8.19a.257.257 0 0 1-.301 0 .24.24 0 0 1-.098-.275l4.063-12.51-10.632-7.724a.252.252 0 0 1-.091-.284.252.252 0 0 1 .24-.178h13.143L64.134.703a.255.255 0 0 1 .487 0l4.059 12.496h13.145a.256.256 0 0 1 .15.462L71.34 21.385l4.063 12.505a.25.25 0 0 1-.096.28.257.257 0 0 1-.301 0l-10.629-7.726-10.628 7.726zm-16.35-1.33h-.882v-3.26h.851c.766 0 1.318.224 1.318 1.084 0 .359-.154.678-.504.819l.656 1.357h-.955l-.489-1.357-.009.007c.005.16.014.321.014.48v.87zm51.431 0h-.882v-3.26h.851c.767 0 1.319.224 1.319 1.084 0 .359-.156.678-.506.819l.657 1.357h-.955l-.489-1.357-.008.007c.004.16.013.321.013.48v.87zm-42.81-3.261h1.639v.77h-.757v.454h.679v.769h-.679v.497h.757v.771H46.02v-3.261zm46.026 3.261h-.882v-3.261h.882v1.388h.005l.483-1.388h.93l-.705 1.574.787 1.687H92.6l-.549-1.498h-.005v1.498zm-57.038-.001h-.882v-2.464h-.484v-.796h1.872v.796h-.506v2.464zm46.558 0h-.948l.381-3.26h1.098l.252 1.733h.008c.026-.202.048-.402.085-.604l.213-1.129h1.085l.316 3.26h-.917l-.082-2.049h-.009c-.039.237-.068.476-.111.713l-.251 1.336h-.718l-.308-2.049h-.008c-.005.242 0 .48-.012.722l-.074 1.327zm5.616 0h-.912l-.065-.419h-.592l-.074.419h-.908l.784-3.26h1.075l.692 3.26zm-45.21 0h-.912l-.065-.419h-.591l-.074.419h-.908l.782-3.26h1.077l.691 3.26zm1.579 0h-.769V29.58h.71c1.002 0 1.542.63 1.542 1.616 0 1.505-.945 1.643-1.483 1.643zm.113-.786c.402-.004.471-.506.471-.814 0-.354-.069-.847-.471-.847v1.661zm42.437-.324l-.095-.757c-.026-.203-.043-.411-.065-.615h-.009c-.026.204-.046.412-.081.615l-.121.757h.371zm-45.209 0l-.095-.757c-.026-.203-.043-.411-.064-.615h-.01c-.025.204-.047.412-.082.615l-.12.757h.371zm47.994-.641c.233 0 .359-.203.359-.415 0-.285-.174-.407-.415-.393v.804l.056.004zm-51.431 0c.232 0 .358-.203.358-.415 0-.285-.173-.407-.414-.393v.804l.056.004z"/></svg>