<svg viewBox="0 0 64 64" xmlns="http://www.w3.org/2000/svg" fill-rule="evenodd" clip-rule="evenodd" stroke-linejoin="round" stroke-miterlimit="1.414"><path d="M61.13 57.525c0 .514-.71.304-1.225.304h-4.588c-1.635 0-3.27-.11-4.997 0-3.164.1-9.293-.11-13.473 0 0 .19.198.4.105.6-.198.51-1.12.102-1.53-.108-.198.817-.817.105-1.33-.105-.304-.105-.713-.304-1.12-.2-.41.106-.713.924-.41 1.332.2.303.923.513 1.12-.106-.197-.106-.408.303-.71.104-.41-.303 0-.71.197-.71.3-.107.81.103.81.41.3 1.012-1.228 1.222-1.637.71-.514-.515-.105-1.53.41-1.94h-1.33c.104.407.512.606.512 1.014.104.82-.608 1.33-1.33 1.226-.515-.105-.714-.817-.41-1.226.303-.304 1.226-.304 1.12.303-.104.514-.606.198-.922.304.2.515 1.12.2 1.12-.3.106-.41-.3-.92-.606-1.02-.818-.196-1.33 1.018-2.044.61-.105-.106-.2-.2-.2-.41-.3.41-1.83.41-1.225-.513H4.485c-.305 0-1.33.104-1.426-.106-.11-.304.71-.2 1.01-.2 3.06-.197 6.22 0 9.19 0h46.75c.5-.092.91-.185 1.12.013zM40.41 51.5c.303 1.425.607 2.756.922 4.087h-1.12c-.106-.198-.106-.514-.106-.712-.105-.105-.408 0-.607 0-.11.198-.11.514-.2.817-.2 0-.82 0-1.02-.105.3-1.424.51-2.755.92-4.086.384 0 .99-.09 1.2 0zm-13.285 4.182c-.432 0-.884-.057-1.216-.095 0-1.22 0-2.64.1-3.965v-.016c.51.105 1.33-.105 1.74 0 1.12.41.51 2.043.71 3.467-.118.482-.7.607-1.33.61h-.013zm-8.36-4.076v.817h-.608c-.198 1.12 0 2.043-.105 3.164h-1.016c-.105-.922 0-2.148 0-3.164-.198-.105-.408 0-.817-.105-.11-.198 0-.514 0-.712h2.54zm29.2 0c-.2.712-.608 1.226-.924 1.833.31.92.93 1.33 1.33 2.14-.51 0-.92.103-1.42 0-.2-.305-.51-.71-.71-1.018-.102.304 0 .82-.102 1.016H45.12c-.106-1.226-.106-2.755 0-4.086h1.015c.103.305 0 .714 0 1.018.196-.41.406-.713.71-1.12.41.21.817.21 1.12.21zm-26.54 1.833c.608.3.2 1.52.608 2.04-.302.1-.92.1-1.225 0-.303-.41.2-1.74-.513-1.74-.105.51 0 1.22-.105 1.74-.2 0-.608.1-.923 0-.105-1.23 0-2.76 0-3.88.712 0 1.938-.307 2.242.41.32.404.22 1.22-.09 1.42zm22.557 0c.608.3.2 1.52.608 2.04-.304.1-.923.1-1.226 0-.304-.41.198-1.74-.514-1.74-.105.51 0 1.22-.105 1.74-.2 0-.607.1-.922 0-.105-1.23 0-2.76 0-3.88.713 0 1.94-.307 2.242.41.327.404.222 1.22-.082 1.42zM24.38 51.6c.303.514.303 1.226.514 1.938.105.713.408 1.33.513 1.94-.198.105-.607 0-1.015 0-.105-.304-.2-.607-.304-.92-.105-.107-.303 0-.514 0-.105.3-.198.605-.105.92h-1.12c.19-1.226.51-2.65.92-3.876.29.105.7 0 1.11 0zm2.452.817v2.452c.105 0 .513 0 .607-.11.19-.608.19-1.834 0-2.348h-.61zm12.866 1.635h.198c0-.2 0-.514-.105-.607 0 .2-.09.302-.09.606zm-15.933-.61c-.004.133-.028.27-.097.4h.198c-.07-.13-.093-.267-.1-.4.002-.07 0-.14-.005-.208 0 .067 0 .136.01.206zm13.89-1.842c0 1.33.105 2.965 0 4.086-.304 0-.608 0-.818-.105-.105-.602 0-1.22 0-1.83-.198.61-.408 1.33-.607 1.835-.198.106-.514 0-.817 0-.303-.513-.408-1.12-.513-1.633-.105.514 0 1.226-.105 1.53-.198.105-.607.105-.817 0 0-1.226-.105-2.86 0-3.98.303-.105.817 0 1.12 0 .304.607.41 1.53.713 2.15.31-.61.41-1.426.72-2.15.316 0 .725 0 1.134.105zm-6.328 0c.105.198.105.712 0 .922-.2 0-.607.105-1.016 0v.607c.31 0 .71-.11 1.02 0 .11.2.11.602 0 .813-.3.107-.603.107-1.012.107-.105.2 0 .514 0 .713h1.016c.105.195.105.604 0 .814-.514.104-1.33 0-1.94.104-.104-1.225-.104-2.86 0-4.085.61-.105 1.426-.105 1.94 0zm-11.033 1.53c.198 0 .303 0 .408-.106 0-.2 0-.41-.105-.608-.105-.106-.303 0-.408-.106.1.304.1.514.1.817zm22.568 0c.198 0 .303 0 .408-.106 0-.2 0-.41-.105-.608-.105-.106-.303 0-.408-.106.105.304.105.514.105.817zm-7.87-6.632c.2-.513-.303-.71-.606-.92-2.65-.304-2.15 3.06-.2 3.163.818 0 1.74-.403 2.558-.71.198-.1.607-.194.817 0 .2.308-.2.61-.1.716.61.2 1.33-.712 1.94-.607.305 0 .71.41.41.817h20.2c.306 0 1.12-.105 1.228.105.105.41-1.016.2-1.33.2H4.68c-.304 0-1.424.103-1.33-.2 0-.2.92-.105 1.12-.105h20.01c0-.2-.303-.41-.104-.713 1.016-.3 1.634.516 2.452.516.198-.303-.514-.408-.304-.817.2-.41 1.226.41 1.53.513.607.2 1.53.41 2.24.2.924-.198 1.53-1.33 1.122-2.24-.105-.305-.514-.714-1.016-.82-.607 0-1.33.305-1.226 1.017.514 0 .514-.52 1.016-.52.922 0 .922 1.33.105 1.635-1.016.302-1.74-.713-1.53-1.53.2-.608 1.227-1.12 2.044-.818.41.104.71.513.81.816.513 1.12-.304 2.043-1.017 2.86.713-.104 1.53 0 2.347 0-.41-.71-1.226-1.937-.607-2.965.2-.406.71-.71 1.33-.815.41 0 1.12 0 1.424.305.82.818 0 2.347-1.015 2.15-.82-.106-1.017-1.636 0-1.636.396.105.594.304.9.41zm4.015-3.42c-.304 0-.67-.047-.944-.047-.103-1.43-.104-2.95 0-4.37v-.012h.818c.41 0 .61.105.72.513.108.3.108.71.108 1.12 0 .103-.104.3-.2.51.2.106.107.41.2.818 0 .513.2 1.225-.303 1.423-.1.034-.233.046-.382.046h-.004zm7.73-4.24v2.15c0 .71.106 1.53-.104 2.043-.104 0-.408 0-.606-.1-.106-.71-.41-1.53-.608-2.24-.11.71.1 1.53 0 2.344-.2.106-.52 0-.61-.104-.11-1.226 0-2.86 0-4.086h.6c.304.608.61 1.33.713 2.15.104-.608-.106-1.53.104-2.15.093-.104.2-.104.502 0zM18.974 39.96c-.105 0-.408.106-.408 0-.105-.2.105-.606-.105-.71-.6-.304-.6.513-.3.922.308.41.92.922.92 1.634 0 .513-.1 1.225-.812 1.225-.816 0-.816-.92-.71-1.53.104 0 .303-.1.513 0 .105.31-.105.928.303.928.2-.106.2-.514.2-.713 0-.104-.106-.302-.2-.41-.2-.406-.712-.815-.817-1.12-.104-.407 0-1.014.2-1.224.2-.2.817-.304 1.225-.2.106.083.106.795 0 1.204zm5.558 3.045c-.102 0-.205-.027-.257-.08-.105-1.226-.105-2.86 0-4.086.198 0 1.226-.2 1.424 0 .1.1.2.41.2.41.1.403.1 1.42-.2 1.63-.2.2-.51.104-.81.104-.05.293-.057.615-.057.937v.064c0 .325-.003.646-.053.94-.05.054-.15.08-.25.08h-.005zm22.918-.08c-.105-.303-.105-.71-.105-1.015 0-1.016 0-2.242.105-3.164.514-.106 1.226-.106 1.424.2.105.102.105.41.105.51v3.06c-.11.607-1.02.513-1.53.408zm-11.02-.817c0 .306.104.714-.106.82-.21.105-.41 0-.514-.105v-.817c.21-.107.408 0 .62.103zm5.614-1.224c.304.2 0 1.53.304 2.043-.2.104-.514 0-.712.104-.2-.51.105-1.42-.105-1.933h-.3c-.1.514 0 1.226 0 1.833h-.71c0-1.33-.103-2.86.107-4.087.607-.104 1.635-.197 1.74.41-.012.408-.117 1.33-.316 1.634zm1.635-2.148c.1 0 .1.606.1.71 0 .305.1.713.2 1.017.1.303.2.607.2.922.1.303.1.606.1.816 0 .2.2.52.104.718-.2 0-.41 0-.515-.106 0-.305-.105-.61-.105-.82-.102-.104-.405 0-.604 0 0 .305 0 .713-.197.924h-.514c.106-1.33.305-2.86.61-4.18 0 0 0-.106.104-.106.2.105.304.105.514.105zm-21.04 4.18c-.11 0-.41 0-.52-.106-.094-1.31-.095-2.617.01-4.04v-.034c.514.104.923-.2 1.33.104.2.105.41 1.74.2 2.043-.2.304-.61.2-.924.2-.104.51 0 1.323-.103 1.826l-.003.002zm5.61-4.18c.2.41.302.92.512 1.33.197-.41.407-.817.512-1.33.106 0 .41-.106.514 0 0 .302-.198.71-.303 1.015-.105.308-.41.717-.41 1.02-.104.714.2 1.426 0 2.15h-.513v-2.15c0-.197-.2-.407-.2-.512-.104-.2-.104-.41-.198-.607-.106-.304-.304-.514-.2-.92-.13-.08.083.01.28.01zm6.33-.2c.51-.105.71.304.814.713.104.61 0 1.223 0 1.74v.51c0 .303.104.607-.106.922-.198.198-.514.408-.817.408-.2 0-.606-.104-.71-.2-.304-.3-.2-2.344-.2-3.056.21-.526.41-.934 1.017-1.04zm.312.713c0-.108-.106-.108-.106-.108-.198-.107-.303 0-.408.197-.107.304 0 1.12 0 1.635v.606c0 .303 0 .513.104.817 0 .105.104.105.197.105.304 0 .304-.197.304-.408.104-.198.104-.513.104-.817v-1.74c-.2-.184-.2-.29-.2-.29zm-14.806-.51c.105.41 0 .92 0 1.53 0 .6-.105 1.22 0 1.63 0 .302.2.71.607.513.2-.514.104-1.12.104-1.833v-1.83c.105-.102.41-.102.514 0v2.24c0 .518.105 1.125-.105 1.64-.2.513-1.12.607-1.53.2-.106-.2-.2-.61-.304-1.018v-1.637c0-.514-.103-1.33.2-1.424.21-.104.41-.104.514-.01zm19.09 2.342s0-.105-.106-.105-.41-.2-.41 0v1.33c.106.106.41 0 .515 0v-.71c0-.106.104-.304 0-.514zm-6.13-.806c-.2 0-.41 0-.514-.105-.106-.104-.106-.303-.106-.41 0-.196.107-.51-.2-.605-.3-.106-.405.303-.405.513v1.53c0 .41-.104 1.015.2 1.12.607.2.304-.71.514-1.12h.512c.102.513.102 1.33-.2 1.53-.41.407-1.33.197-1.53-.2-.106-.105-.106-.303-.106-.513-.105-.92.106-2.24.106-2.963.197-.514.71-.607 1.225-.514.11 0 .2.107.307.2.105.105.2.198.2.303v.41c.104.01 0 .83 0 .83zm-6.305-1.55c.017.01.198.01.293.01.104 1.015 0 2.346.104 3.466.2 0 .712-.105.922.106v.606c-.41 0-1.12.104-1.426-.106 0-1.33-.106-2.855.104-4.08zm16.52 2.67h.41c0-.41-.105-.817-.2-1.226-.115.41-.115.818-.21 1.227zm-2.146-2.15v1.33c.103 0 .41 0 .41-.103v-1.32c0-.01-.307.094-.41.094zm-2.454-.104v1.33h.305c.106 0 .2-.107.2-.305 0-.304.104-.71-.106-.92-.19 0-.294-.107-.4-.107zm-16.02 1.223c.2 0 .41 0 .515-.106 0-.304 0-.608-.104-.923-.105-.104-.304-.104-.514-.104.107.42.107.83.107 1.132zm2.65-1.016h-.512v1.014c.303 0 .41 0 .607-.106.01-.306.106-.715-.093-.91zm22.663-.106v3.06h.512c-.105-.925.105-2.15-.105-2.968 0-.093-.302.012-.407-.093zM1.55 42.58c-.032.035-.07.057-.125.057.05-.02.09-.04.124-.06.05-.06.08-.158.11-.24-.05-.07-.13-.114-.13-.114-.11-.105-.11-.304-.11-.41-.11-.302-.11-.606 0-.92 0-.515.1-.924.2-1.426 0-.14.02-.263.05-.383l.01-.046c.02-.12.04-.24.04-.383.2-1.228.2-2.454.515-3.574-.303.11-.816.307-1.225.2-.197-.1-.606-.41-.71-.71-.105-.2-.2-.512-.2-.815 0-.05-.02-.12-.046-.19l-.01-.03c-.025-.07-.048-.14-.048-.19 0-.104.103-.104.2-.104.195.106.3 0 .51-.104.094 0 .19-.023.285-.048l.04-.01c.096-.025.19-.048.285-.048.405-.108.92-.307 1.33-.517.103-.304.103-.713.2-1.12.195-.82.3-1.53.51-2.348.105-.304.105-.713.2-1.016v-.608c0-.05.023-.12.05-.19l.01-.03c.022-.07.045-.14.045-.19.104-.303.2-.607.2-.817.103-.71.196-1.53.406-2.346.2-.71.514-1.42.608-2.146 0-.305 0-.608.107-.923 0-.2.2-.3.2-.41v-.51c.147-.643.343-1.285.54-1.927l.04-.122c.198-.64.394-1.283.54-1.93 0-.196.106-.41.106-.512 0-.2 0-.41.106-.516.106-.2.2-.41.2-.515.105-.41.198-.82.198-1.228.103-.197.103-.41.196-.606.108-.2.516 0 .61 0 .093 0 .198.106.303.106.2.107.303.107.41.2l.3.304c.2.2.41.41.514.71.105.2.105.41.105.607 0 .098-.046.197-.094.296l-.01.02c-.044.1-.09.197-.09.293-.2.51-.304 1.013-.41 1.53-.513 1.33-.92 2.86-1.423 4.282-.104.198-.198.513-.198.712-.2.604-.2 1.33-.41 1.935-.107.303-.2.514-.305.922-.105.303-.2.606-.2.922-.3 1.528-.606 2.964-1.014 4.494.095.43-.313 1.144-.41 1.96 1.02 0 2.245-.513 3.47-.408.2-.512.2-1.014.41-1.53.2-.605.513-1.224.71-1.83.106-.2.106-.514.2-.71.104-.2.104-.306.197-.516 0-.105.105-.198.105-.304v-.3c0-.104.11-.198.11-.303.104-.2.104-.513.197-.712.05-.19.12-.36.19-.525l.03-.067c.07-.164.14-.332.19-.524.046-.18.09-.338.133-.494l.038-.13c.044-.16.087-.318.133-.496.05-.197.122-.346.195-.493l.015-.03c.076-.146.15-.294.2-.492.2-.41.2-.924.41-1.33.2-.516.303-.925.41-1.427.197-.814.605-1.63 1.014-2.45.2-.512.517-1.014.61-1.633 0-.094.023-.19.048-.285l.01-.04c.025-.094.048-.19.048-.283.105-.2.198-.607.41-.607.3-.103.816.61 1.014.82.05.05.097.12.144.19l.02.03c.046.07.093.14.142.19.106.103.2.3.2.406v.513c-.05.143-.097.31-.143.475l-.02.065c-.045.17-.092.335-.14.477-.106.194-.106.3-.2.51-.198.61-.408 1.12-.607 1.635-.302.817-.606 1.53-.92 2.347-.2.514-.305 1.12-.515 1.634-.197.604-.407 1.223-.606 1.935-.106.513-.3.922-.515 1.424-.21.502-.302.922-.512 1.424-.2.817-.607 1.635-.818 2.452 0 .196-.105.3-.105.512 0 .05-.022.12-.046.19l-.01.03c-.026.07-.05.14-.05.19.515.104 1.12.104 1.636.104.2-.406.305-.71.516-1.12.303-.512.607-1.224 1.12-1.83.105-.106.2-.106.304-.2.407-.513.815-.92 1.527-1.225.106-.105.515-.2.608-.2.41 0 .607.515.922.714.198.105.408.198.607.408.198.108.408.306.607.516.11.198.31.513.31.71 0 .305-.107.608-.2 1.017-.105.607-.105 1.016-.41 1.424-.2.2-.513.304-.712.514-.105.106-.198.2-.408.2-.2.105-.306.2-.516.2-.2.103-.41.103-.606.2-.19.046-.383.116-.575.19l-.076.025c-.19.07-.384.14-.575.19-.104 0-.71.103-.71.103-.2.92 0 2.04.512 2.65.304.102.818-.11 1.12-.307.41-.196.818-.605 1.122-.92.816-.713 1.423-1.53 2.042-2.452.104-.2.2-.512.41-.71.103-.104.103-.104.103-.2.11-.406.307-.71.518-1.013.198-.302.408-.816.408-1.12.105-.513-.2-1.12 0-1.634.105-.2.2-.304.304-.515.105-.103.105-.196.105-.3 0-.305.407-.305.606-.2.2.106.305.514.515.61l.513.51c.104.305 0 .608.2.82.512-.107.815-.41 1.224-.305.2 0 .41.2.715.305.2.105.516.105.714.303.105.105.2.304.304.514.103.304.196.713.196 1.12 0 .41-.303.61-.41.82-1.014.92-1.83 1.937-2.24 3.373 0 .05-.023.143-.048.24l-.01.04c-.027.094-.05.186-.05.236.105.11.41-.195.514-.3l.2-.2c.197-.2.41-.41.71-.61.41-.41.923-.815 1.227-1.33-.303-.71.106-1.33.713-.82.41-.404.608-.92 1.017-1.42.103-.2.302-.305.41-.515.102-.21.195-.407.3-.606.105-.198.304-.408.41-.712.104-.2.302-.41.407-.71.105-.105.105-.2.2-.41 0-.104.104-.197.104-.302v-1.23c0-.103.2-.103.306-.103v-.2l.104-.105c.104-.106.197-.106.302-.106.2 0 .41.103.607.302.103.105.103.303.103.408.303.307.71.715.71 1.23 0 .2-.105.41-.2.513-.103.712 0 1.634.2 2.346s.304 1.633.304 2.45c.2-.106.304-.304.41-.514.092-.194.21-.386.33-.577l.05-.08c.12-.19.238-.38.33-.574.2-.512.41-.92.713-1.33.105-.2.304-.41.514-.606.306-.517.61-.926.925-1.33.2-.2.513-.518.816-.717.104-.104.303-.197.408-.302.104-.104.197-.303.41-.303.103-.105.3-.105.406-.105.106 0 .305-.106.41-.106.303 0 .607-.106.817.104.2.103.515.302.713.512.105.198.304.514.514.607h.2c.106 0 .304-.106.41 0 .104.104.2.2.2.41 0 .3 0 .605-.108.815 0 .104-.104.197-.104.303 0 .105-.108.198-.2.303-.106.105-.2.2-.2.41-.105.197-.105.302-.198.512-.106.2-.2.303-.305.513-.106.304-.2.514-.713.304-.103-.1-.3-.2-.406-.3-.104-.108-.2-.108-.303-.306-.302.198-.302.105-.302-.106 0-.2-.106-.305-.106-.41 0-.2.106-.304.106-.41 0-.104.105-.197 0-.3-.106-.107-.304 0-.41 0-.303.103-.408.406-.606.605-.304.302-.607.606-.817 1.014-.105.2-.2.41-.303.606-.106.198-.305.408-.305.607-.197.71-.3 1.227.2 1.74.105.105.2.105.303.105.106 0 .106.107.2.107.197.105.408.2.606.2.606-.107 1.53-.516 2.042-.82.2-.104.41-.41.712-.513.2-.2.512-.41.605-.608 0-.104.106-.2.106-.303.2-.41.41-.817.513-1.33.106-.304.2-.61.305-.82.107-.104.107-.302.107-.41.105-.3.303-.51.41-.815.197-.305.302-.714.512-1.018.103-.2.2-.41.302-.61.196-.407.3-.71.406-1.12.104-.2.104-.41.2-.513.103-.2.196-.304.196-.514 0-.2.105-.304.105-.515.107-.2.2-.304.2-.514.2-.41.41-.92.608-1.33.105-.303.198-.606.41-.922.197-.408.407-.922.606-1.424.2-.303.305-.514.41-.922.105-.302.304-.512.514-.816.2-.305.2-.71.41-1.12.196-.306.3-.61.51-1.018.106-.303.2-.606.41-1.015.105-.196.304-.71.514-.815.513-.2 1.015.61 1.226 1.018.104.104.197.3.197.51 0 .306 0 .61-.104.925-.197.926-.606 1.638-.92 2.35-.818 1.425-1.635 2.86-2.45 4.285-.107.2-.306.41-.41.606-.106.2-.106.41-.2.515-.104.198-.2.304-.303.514-.105.2-.105.305-.198.515 0 .05-.023.12-.048.19l-.01.03c-.027.07-.05.14-.05.19-.105.104-.105.303-.2.41.305-.107.515-.2.713-.41.106-.106.2-.2.305-.2.2-.104.515-.2.713-.302.2-.106.515-.106.818-.106.303.105.607.303.817.514.198.108.408.306.513.41.107.2.306.41.41.608.106.512-.104.816-.2 1.224v.607c0 .197-.103.302-.196.512-.198.304-.41.607-.514.922-.106.2-.106.41-.2.513-.104.196-.303.406-.41.604-.103.2-.196.41-.196.606-.105.2-.2.514-.304.71-.106.2-.304.714 0 .82.2.105.71-.2.922-.41.198-.197.408-.3.607-.513.194-.197.404-.302.603-.512.2-.2.41-.41.61-.71.103-.41.103-1.015.196-1.424.095-.41.305-.82.515-1.228.514-1.015 1.12-1.74 2.043-2.45.2-.2.304-.305.514-.41.515-.2 1.227 0 1.53.303.2.2.514.41.71.61.306.303.82.513.925 1.015.107.2 0 .41 0 .71-.103.303-.103.513-.2.817-.102.305-.195.61-.3.82l-.41.41c-.197.197-.513.407-.816.71-.304.304-.607.514-1.016.82-.197.103-.513.512-.92.41-.147-.054-.27-.15-.397-.25l-.026-.02c-.126-.1-.25-.196-.398-.247-.2.607.195 1.226.51 1.74.104.105.2.2.303.2.408.103.712-.107 1.016-.306.51-.305.71-.714 1.12-1.017.2-.2.512-.304.605-.514.104-.107.302-.306.41-.516.2-.3.51-.71.814-.92.106-.104.305-.2.515-.41.104-.103.303-.3.408-.51.408-.514.513-.818.607-1.53.108-.408.108-.92.108-1.33.105-.41.105-.818.2-1.227.103-.302.103-.512.103-.816.2-1.224.71-2.345 1.12-3.57.106-.303.106-.607.2-.922.105-.3.3-.512.3-.815.108-.198.108-.513.2-.71.107-.2.305-.41.41-.713.105-.2.2-.41.304-.71.41-.923.818-1.834 1.33-2.756.2-.41.516-.923.714-1.332.2-.303.2-.817.607-.92.305-.106.924.2 1.227.41.41.3.105 1.12 0 1.632-.105.408-.2.71-.2 1.12 0 .198 0 .303-.103.513-.048.18-.09.357-.136.536l-.037.152-.135.535c-.106.408-.106.92-.2 1.33 0 .2-.198.41-.198.71 0 .306 0 .61-.106.82-.2.408-.306.71-.41 1.12-.106.41-.2.713-.41 1.12-.2.305-.303.608-.41.924-.103.3-.3.606-.407 1.014-.2.514-.41 1.016-.714 1.53-.41.817-.924 1.634-1.426 2.45-.105.2-.2.305-.304.515-.104.2-.302.302-.302.512-.106.41-.106 1.12 0 1.74.104.408.104.817.104 1.226 0 .2 0 .41.104.515 0 .105.104.304.197.41.2.104.513 0 .712 0 .2 0 .41-.106.608-.2.2-.105.305-.2.515-.303.2-.104.304-.2.514-.303.41-.106.712-.514 1.016-.818.197-.197.513-.71.816-.816.41-.105.607.408.41.817-.106.305-.305.515-.41.818-.2.305-.41.608-.607.924-.305.305-.61.515-1.017.82-.107.104-.107.197-.2.197-.105.106-.2.106-.304.2-.2.105-.41.198-.607.408-.2.105-.41.2-.713.303-.3.106-.71.106-1.013.106-.197 0-.512 0-.71-.102-.094-.05-.19-.12-.285-.19l-.04-.03c-.094-.07-.19-.14-.283-.19-.305-.106-.515-.514-.515-.818-.104-.41-.197-.818-.197-1.227v-.713c-1.12.82-2.557 2.454-3.77 3.27-.305.2-.924.2-1.332.106-.3-.108-.603-.306-.92-.41-.2-.107-.41-.2-.606-.41-.196-.2-.406-.514-.605-.817-.105-.106-.198-.305-.408-.41l-.305.2-.306.302c-.105.105-.2.2-.303.2-.2.2-.41.302-.606.41-.41.3-1.015.51-1.53.51h-.52c-.303 0-.606-.105-.922-.304-.197-.102-.512-.195-.71-.51-.105-.106-.105-.304-.105-.514 0-.21.106-.606.2-.816.105-.304.105-.607.2-.818.09-.19.19-.41.282-.625l.04-.084c.093-.216.19-.43.282-.623.102-.306.3-.61.406-.925.104-.315.104-.607.197-.922 0-.2.107-.605-.103-.71-.3-.304-1.014-.106-1.33.105-.197.11-.407.2-.513.307-.105.106-.303.106-.41.305-.104.103-.104.196-.2.3l-.406.41c-.104.105-.104.303-.2.41 0 .104-.104.197-.104.407-.05.09-.1.21-.145.33l-.02.047c-.044.12-.09.24-.14.333-.105.303-.304.606-.41 1.12-.197.607-.513 1.33-.606 2.043-.106.305-.106.71-.2 1.017 0 .104-.198.408-.303.408-.104 0-.41-.106-.606-.2-.41-.198-.817-.198-.923-.71-.302.103-.606.302-.816.407-.105.105-.2.198-.303.198-.102.105-.3.105-.41.105-.1 0-.1 0-.194.104-.108.103-.2.103-.41.103H35.8c-.143 0-.308-.024-.475-.05l-.066-.01c-.17-.024-.34-.05-.48-.05-.2 0-.41 0-.517-.102-.2-.104-.305-.2-.41-.302-.303-.2-.607-.512-.817-.816-.198-.303-.303-.712-.408-1.12-.304.198-.41.408-.608.71-.2.2-.304.515-.515.82-.404.514-.71 1.016-1.22 1.424-.41.304-1.227.514-1.834.514-1.226-.198-1.94-1.12-2.557-2.043-.41.41-.924.92-1.53 1.424-.41.304-.514.514-1.016.71-.303.108-.607.2-.92.2-.2 0-.305 0-.516-.104-.103 0-.3 0-.406-.104-.104-.105-.2-.2-.303-.41-.105-.302-.2-.71-.303-1.015v-.61c0-.195 0-.51.107-.71.104-.196.2-.512.2-.71.102-.303.2-.606.41-.92.1-.2.51-.714.405-.82 0-.41-.713-.302-.923-.512-.302.305-.512.714-.71 1.017-.105.2-.198.306-.303.516-.105.2-.2.41-.303.608-.105.2-.304.304-.41.514-.045.087-.09.176-.132.265l-.034.078c-.045.09-.088.18-.134.267-.303.41-.41.816-.71 1.12-.2.303-.515.712-.82 1.016-.302.3-.71.71-1.12.92-.2.105-.513.105-.712.105-.302 0-.606.106-.816.106-.305.106-.61.106-.924.106-.2 0-.41-.2-.713-.2-.2-.102-.304-.102-.514-.196-.2-.105-.3-.303-.41-.408-.1-.107-.194-.2-.3-.305-.41-.71-.513-1.74-.513-2.753-.608-.104-1.33-.104-1.94-.2-.104 0-.513 1.427-.513 1.637-.198.61-.303 1.125-.408 1.74 0 .2-.106.517-.106.715 0 .107-.105.2-.105.305-.3.922-.606 1.74-.92 2.65 0 .2-.106.304-.2.41-.104.197-.303.104-.513.197-.105 0-.105.106-.2.106-.092 0-.197-.105-.197-.2-.104-.196 0-.512 0-.71 0-.304-.104-.712-.104-1.12 0-.305.108-.61.108-.82 0-.41.106-.816.2-1.224.105-.606.105-1.33.303-1.937.105-.607.304-1.226.41-1.74-1.227.105-2.453.41-3.47.817-.104.107-.104.305-.197.515-.104.2-.2.512-.303.71-.104.712-.3 1.424-.408 2.15 0 .406-.105.71-.198 1.12-.2.92-.41 1.83-.608 2.86 0 .104 0 .2-.108.302-.105.104-.2.104-.304.2-.03.025-.05.067-.068.113.04.064.04.15-.114.236zm26.202-8.127c.2.105.41.304.514.304.105 0 .408-.31.513-.41.3-.308.6-.717.6-1.02 0-1.016-.306-2.24-.306-3.27h-.105c-.92 1.016-1.33 2.35-2.148 3.47.197.196.302.512.512.71.2.012.303.105.41.21zm-13.17-3.164c1.224-.196 2.04-1.11 1.94-2.337v-.007c-.61.605-1.122 1.223-1.636 1.83-.105.105-.302.3-.303.51v.004zm36.65-.92c.407-.1 2.042-1.63 1.937-2.65-.73-.2-1.74 2.253-1.94 2.65zm11.02-12.75c-.41.923-.817 1.74-1.12 2.86-.106.11-.106.31-.106.41 0 .41-1.226 3.374-1.12 3.77.303-.41 1.33-3.467 1.53-3.87v-.11c.407-.923.71-1.94.816-3.06zm-28.277 1.94v4.284c-.105.105-.41 0-.607 0-.105-.514 0-1.33 0-1.94-.105-.104-.304 0-.41 0 0 .61.106 1.426 0 1.94-.197 0-.513.105-.606-.106-.105-1.33 0-2.86.105-4.18.2-.104.41 0 .607 0v1.635c.105.105.304 0 .41 0 0-.513-.106-1.226 0-1.74.092.106.302.106.5.106zm-3.77-.106h1.832c0 .198.105.408 0 .607-.105.107-.41 0-.607 0v3.68c-.105.107-.514.107-.607 0v-3.77h-.713c-.01 0-.116-.41.094-.513zm5.918.198c0 .106.105.41 0 .515-.198.104-.514 0-.712 0-.1.302 0 .816 0 1.12h.72c0 .105.107.41 0 .513-.103.106-.41 0-.605.106-.105.41 0 .816 0 1.224h.71c0 .106.106.305 0 .515-.513.102-.92.102-1.423 0 0-.925-.105-1.836-.105-2.758 0-.41-.104-.925.106-1.333.188 0 .91 0 1.32.096zm13.99-6.523c-.244 0-.34-.43-.435-.53-.304-.3-.712-.41-1.016-.606-.408-.198-.817-.303-1.226-.513-.922-.303-1.833-.513-2.755-.712-1.52-.2-3.16-.2-4.49-.608-.602-.2-1.33-.306-1.63-.925-.105-.107-.105-.2-.2-.306 0-.103 0-.196-.103-.196h-.2c-.104 0-.104-.106-.197-.106-.304-.2-.514-.517-.514-.82-.107-.608.2-1.74.302-2.347.106-.513.106-1.015.41-1.225.198-.2.922-.2 1.12-.105.2.094.41.515.41.713 0 .304-.106.712-.106 1.12-.105.608-.2 1.122-.304 1.635-.292.62-.397.936-.607 1.135.05.05.097.12.144.19l.02.027c.046.07.092.14.142.19l.304.304c.2.105.41.105.515.2.41.104.816.3 1.225.3.2.106.514.106.712.106.922.105 1.833.105 2.755.2.818.104 1.635.302 2.452.512 1.012.304 2.24.713 3.055 1.425.105.103.712.71.304.92-.03.01-.054.013-.08.013zm-31.77-2.337c-.2 0-.305-.304-.305-.514-.105-.41-.408-.92-.513-1.424-.2-.514-.304-1.016-.41-1.53 0-.105-.197-.408-.104-.513.11-.303.41.2.41.304.11.104.11.303.11.41.11.3.307.605.307.92.304 0 .607-.198.923-.304-.106-.41-.2-.607-.304-1.12-.107-.304-.306-.82 0-.82.196 0 .302.41.302.516.106.2.106.512.2.71.048.143.095.31.14.475l.02.067c.047.164.093.33.143.472.106.2.106.304.2.514-.07.38-.07.49.035.59.104.108.104.307.2.41.103.2.196.516-.11.516-.302.103-.302-.41-.41-.715-.102-.3-.406-.816-.406-1.12-.304.106-.514.2-.818.2l.304.92c.106.2.106.305.2.515 0 .2.195.51-.104.514h-.006zm30.937-3.8c-.104.713-.513 1.33-.71 1.938-.106.305-.106.61-.2.924-.105.198-.198.817-.408.817-.41 0-.105-.71 0-.92.303-1.01.712-1.933 1.015-2.86 0 0-.408-.194-.513-.194-.105 0-.105-.105-.2-.105 0 0-.104-.303 0-.303.305 0 .608.104 1.122.303.304.106.712.2.712.41.105.512-.607.103-.817 0zm-1.727-.91c.198.105.105.408 0 .513-.198.922-.41 1.832-.712 2.755-.1.304-.19 1.12-.6.923-.2-.304.108-.607.2-1.016.2-.607.41-1.424.608-2.148.105-.42.21-.83.514-1.028zm-1.938-.514c-.105 1.336-.607 2.56-.817 3.776.198.2 1.12.2 1.015.607 0 .41-.607 0-.712 0-.3-.105-.71-.105-.81-.303-.102-.2.108-.71.2-1.014.2-.92.61-2.24.82-2.965.105.01.21-.2.315-.092zm-1.987 3.98c-.33 0-.056-.93-.056-1.22-.087-.046-.176-.09-.265-.133l-.077-.038-.265-.135c-.105.198-.2.408-.41.712-.104.105-.104.198-.197.303 0 .11-.105.11-.105.11-.304.105-.304-.2-.2-.41.106-.21.2-.41.305-.606.513-.924.817-2.044 1.33-2.967.304-.198.2.304.2.607 0 .196 0 .406.104.71 0 .817-.105 1.74-.105 2.346 0 .303 0 .606-.198.712-.03.006-.05.01-.06.01h-.01zm-17.63-.58c-.29 0-.3-.674-.394-.955-.2-.816-.2-1.528-.41-2.346 0-.094-.022-.19-.046-.285l-.01-.038c-.025-.096-.048-.192-.048-.285 0-.105-.105-.41.105-.513.2-.2.304.3.304.406 0 .105 0 .304.1.41.1.513.2.816.2 1.33.01.922.42 1.74.31 2.24-.044.022-.08.032-.117.032zm2.57-.23c-.407.302-.606-.106-.816-.515-.304-.606-.712-1.528-.922-2.042 0 .608.105 1.33.198 1.94 0 .2.2.71-.198.71-.304 0-.304-1.014-.41-1.33-.104-.817-.104-1.53-.302-2.346v-.41c0-.2.105-.41.303-.2.2.106.31.304.41.514.31.82.61 1.637 1.02 2.454 0-.515-.1-1.017-.1-1.74 0-.41-.303-1.53.2-1.425.197.105.197.304.197.607.118 1.133.433 2.452.433 3.783zM50.51 7.1c.104.2 0 .514.104.608 0 .408 0 .712.105 1.12.19-.198.6-.408.92-.607.1-.1.2-.3.3-.4.1-.103.3-.2.41-.103.102.198-.2.513-.3.607-.41.408-1.02.817-1.43 1.33-.107.41-.305 1.016-.515 1.53-.104.2-.104.607-.513.41 0-.515.304-1.122.514-1.636.106-.41.2-.712.2-1.424 0-.095-.024-.214-.048-.334l-.01-.05c-.025-.12-.048-.24-.048-.332 0-.2 0-.514.105-.608.107-.21.2-.21.2-.11zm-10.1-2.545c.105 0 .105.2.198.304 0 .19 0 .4-.105.51-.104.61-.197 1.33-.302 2.04 0 .3-.1.604-.1.814.11.303.41.514.71.514.52-.105.52-.818.61-1.425.107-.607.2-1.015.305-1.74 0-.303.105-.71.303-.71.197 0 .104.512.104.92-.105.713-.2 1.227-.303 1.834-.106.712-.2 1.33-.818 1.53-.714.2-1.426-.304-1.33-1.12 0-.41.196-.924.3-1.33.103-.516.103-.925.196-1.427.024-.223.13-.63.234-.725zm-7.66-.21c-.197-.303-.71-.105-.816.2-.105.197-.105.512 0 .71.105.304.513.608.712 1.016.41.52.712 1.13.41 1.94-.305.41-1.122.61-1.53 0-.106-.2-.41-1.42.104-1.42.41 0 0 1.33.607 1.33.304 0 .607-.193.607-.602-.105-1.016-1.225-1.424-1.33-2.557 0-.2 0-.41.198-.607.41-.712 1.424-.514 1.424.41 0 .104 0 .407-.198.407-.105 0-.105-.2-.105-.305.024-.21.024-.306-.08-.516zm5.462 3.998c.365 0 .365-.364.365-.73.105-.606.303-1.225.303-1.937 0-.198.105-.41.105-.607 0-.2-.198-.52-.408-.52-.2-.11-.514-.11-.607.2-.105.193 0 .403-.105.602 0 .093-.023.21-.048.332l-.01.047c-.024.12-.047.24-.047.335 0 .315-.105.514-.105.83-.106.606-.106 1.423.408 1.423.055.01.104.017.147.017h.003zm-22.51-.623c.305.71.714 1.832 1.12 2.755.107.303.516.922.107 1.015-.31.105-.41-.513-.52-.817-.41-.923-.71-1.833-1.017-2.755-.305.105-.515.303-.818.198-.107-.303.407-.408.71-.607.304-.11.713-.41.923-.41.106 0 .305 0 .305.2-.104.21-.607.21-.817.42zm27.356 0c.2.104.304.198.514.198.105-.41.105-1.12 0-1.635-.105.41-.304.922-.514 1.436zM19.79 6.177c.105.514.303 1.016.408 1.53l.607-.2c.105 0 .2-.104.304-.104.19 0 .3.198.1.41-.2.104-.41.197-.61.197l-.306.106c.105.514.41 1.016.514 1.53.514-.105.922-.41 1.424-.304.2.304-.304.41-.608.514-.408.105-.922.408-1.12 0-.106-.2-.2-.607-.304-.923-.305-.922-.713-2.043-.818-3.058.303-.106 1.015-.514 1.33-.41.106 0 .2.106.2.106.093.52-.935.52-1.133.61zm3.572-.712c.2.514.304 1.016.41 1.53.197 0 1.015-.514 1.225-.106.105.41-.818.41-1.016.51 0 .41.11.71.31 1.12.11.3.307.92-.102.92-.303 0-.41-.82-.513-1.12 0-.2 0-.41-.105-.516-.198-.818-.606-1.938-.606-2.756.3 0 .815-.303 1.223-.303.198 0 .408 0 .303.303-.106.306-.923.21-1.12.41zM29.48 4.45c0 .514.198 1.016.198 1.635.304 0 1.016-.304.923.198 0 .304-.6.2-.92.304 0 .607.11 1.226.2 1.833.3 0 1.12-.304 1.23 0 .107.408-1.423.408-1.633.303-.2-1.33-.303-3.06-.303-4.495.198-.105.71-.105 1.015-.198.2 0 .41-.105.41.105.117.315-.794.21-1.11.315zm5.195.016c-.017.098-.608-.004-.712-.004-.105 0-.303-.105-.198-.2 0-.104.303-.104.408-.104h.818c.32-.116.93-.116.82.292-.2.2-.6 0-.81 0 0 1.12 0 2.242-.104 3.374v.41c0 .197 0 .408-.304.408-.2-.2-.105-.514-.105-.713.105-1.12.105-2.35.198-3.47z" fill="#fff"/></svg>