<svg viewBox="0 0 128 41" xmlns="http://www.w3.org/2000/svg" fill-rule="evenodd" clip-rule="evenodd" stroke-linejoin="round" stroke-miterlimit="1.414"><path d="M128 41V.607H0V41h128zm-23.13-4.37c1.667 0 3.02-1.353 3.02-3.02 0-1.67-1.353-3.02-3.02-3.02-1.67 0-3.02 1.35-3.02 3.02 0 1.667 1.35 3.02 3.02 3.02zm-2.638-3.02c0-1.458 1.18-2.64 2.637-2.64 1.45 0 2.63 1.182 2.63 2.64 0 1.456-1.18 2.637-2.64 2.637s-2.638-1.18-2.638-2.638zM79.604 6.49h10.662v3.947h-5.862v7.24h5.138v4.04h-5.138V31.96h6.108v4.285H79.604V6.49zM33.828 36.245h4.986V21.718h.888c1.6 0 1.704.76 1.704 2.464v6.435c0 1.985.13 4.66.666 5.628h4.94c-.55-.97-.49-3.643-.49-5.628V25.36c0-2.94.104-5.183-2.734-5.697 2.15-.327 2.943-1.285 2.943-5.967 0-6.272-1.06-7.206-6.38-7.206h-6.52v29.755zM20.97 6.49h10.686v3.947h-5.874v7.24h5.138v4.04h-5.138V31.96h6.095v4.285H20.97V6.49zm36.586 20.798v3.258c0 2.09-.887 1.94-1.634 1.94-.91 0-1.693 0-1.693-1.905l-.02-4.64h-4.48v5.596c0 5.22 2.8 4.695 6.12 4.695 2.64 0 6.443.525 6.443-4.812v-5.78c0-1.634-.864-2.837-2.196-4.18 0 0-1.494-1.272-4.05-3.82-1.73-1.692-2.08-2.94-2.08-4.097V11.1c0-2.08.887-1.917 1.635-1.917.91 0 1.693 0 1.693 1.9l.02 3.737H61.8v-4.11c0-5.22-2.815-4.684-6.13-4.684-2.64 0-6.436-.537-6.436 4.788v4.38c0 1.625 1.17 3.376 3.96 6.004 0 0 4.354 2.86 4.354 6.095zm60.072 0v3.258c0 2.09-.9 1.94-1.647 1.94-.92 0-1.68 0-1.68-1.905l-.03-4.64h-4.47v5.596c0 5.22 2.817 4.695 6.11 4.695 2.65 0 6.446.525 6.446-4.812v-5.78c0-1.634-.853-2.837-2.195-4.18 0 0-1.494-1.272-4.04-3.82-1.715-1.692-2.09-2.94-2.09-4.097V11.1c0-2.08.89-1.917 1.636-1.917.91 0 1.69 0 1.69 1.9l.023 3.737h4.484v-4.11c0-5.22-2.815-4.684-6.12-4.684-2.64 0-6.434-.537-6.434 4.788v4.38c0 1.625 1.17 3.376 3.947 6.004 0 0 4.38 2.86 4.38 6.095zm-11.2 5.56c0-.667-.48-.9-1.203-.9h-1.46v3.363h.397v-1.55h.772l.956 1.56h.492l-1.028-1.55c.595-.024 1.074-.27 1.074-.91zm-2.266-.61h.958c.432 0 .888.072.888.586 0 .572-.48.606-.934.606h-.912v-1.19zM91.212 6.49h4.94l2.195 12.682 2.405-12.682h3.072l-3.912 17.74v12.015h-4.8V24.23l-3.9-17.74zM38.814 9.55h1.028c1.774 0 1.576 2.043 1.576 4.122 0 0 .198 4.064-1.576 4.064h-1.028V9.55zm25.703-3.06h4.81v11.14h2.77V6.49h4.798v29.755h-4.8V21.718H69.33v14.527h-4.81V6.49zm-58.027 0h4.788v11.14h2.767V6.49h4.8v29.755h-4.8V21.718h-2.767v14.527H6.49V6.49zm99.074 0h3.07l-1.61 6.668h-3.118l1.658-6.668z"/></svg>