<svg viewBox="0 0 128 113" xmlns="http://www.w3.org/2000/svg" fill-rule="evenodd" clip-rule="evenodd" stroke-linejoin="round" stroke-miterlimit="1.414"><path d="M122.224 107.16c0 1.026-1.42.607-2.45.607h-9.17c-3.27 0-6.54-.22-9.992 0-6.325.2-18.58-.22-26.936 0 0 .38.396.8.21 1.2-.396 1.02-2.24.203-3.06-.217-.394 1.634-1.632.21-2.658-.21-.607-.21-1.425-.607-2.24-.4-.818.212-1.424 1.848-.818 2.663.4.606 1.845 1.026 2.24-.21-.395-.213-.817.604-1.42.206-.82-.61 0-1.42.393-1.42.6-.22 1.62.2 1.62.82.6 2.02-2.456 2.44-3.273 1.42-1.028-1.03-.21-3.06.82-3.88h-2.66c.208.81 1.024 1.21 1.024 2.02.208 1.64-1.215 2.66-2.66 2.45-1.03-.21-1.426-1.63-.82-2.45.607-.61 2.452-.61 2.24.605-.207 1.027-1.21.396-1.843.607.4 1.03 2.24.4 2.24-.6.22-.82-.6-1.84-1.21-2.04-1.63-.39-2.66 2.037-4.08 1.22-.21-.21-.4-.4-.4-.82-.6.82-3.66.82-2.45-1.024H8.98c-.61 0-2.66.21-2.85-.21-.22-.61 1.42-.4 2.02-.4 6.116-.395 12.433 0 18.37 0h93.46c1-.185 1.82-.37 2.24.025v.03zM80.8 95.112c.605 2.85 1.213 5.51 1.843 8.17h-2.24c-.21-.395-.21-1.026-.21-1.422-.21-.21-.817 0-1.215 0-.22.397-.22 1.028-.4 1.634-.4 0-1.64 0-2.04-.21.6-2.847 1.02-5.508 1.84-8.17.768 0 1.98-.18 2.4 0h.022zm-26.56 8.36c-.864 0-1.768-.113-2.43-.19 0-2.438 0-5.277.198-7.926v-.032c1.02.21 2.66-.21 3.48 0 2.238.82 1.02 4.085 1.42 6.932-.237.963-1.4 1.213-2.66 1.22h-.026l.018-.003zm-16.714-8.148v1.634H36.31c-.395 2.238 0 4.083-.21 6.324h-2.03c-.21-1.843 0-4.294 0-6.325-.397-.21-.816 0-1.634-.21-.22-.397 0-1.03 0-1.425h5.09zm58.378 0c-.4 1.424-1.216 2.45-1.847 3.665.62 1.84 1.86 2.66 2.66 4.27-1.02 0-1.84.205-2.84 0-.4-.61-1.02-1.42-1.42-2.036-.204.61 0 1.64-.204 2.03h-2.037c-.212-2.45-.212-5.507 0-8.168h2.03c.205.61 0 1.427 0 2.035.39-.82.81-1.426 1.42-2.24.82.42 1.632.42 2.238.42v.014zm-53.06 3.665c1.215.6.4 3.04 1.215 4.07-.61.2-1.84.2-2.45 0-.61-.82.4-3.48-1.03-3.48-.21 1.02 0 2.44-.21 3.478-.4 0-1.22.2-1.85 0-.21-2.46 0-5.518 0-7.757 1.423 0 3.874-.61 4.48.82.64.81.44 2.44-.18 2.84l.014.02zm45.097 0c1.22.6.4 3.04 1.22 4.07-.61.2-1.84.2-2.45 0-.603-.82.4-3.48-1.023-3.48-.21 1.02 0 2.44-.21 3.478-.4 0-1.214.2-1.843 0-.21-2.46 0-5.518 0-7.757 1.425 0 3.878-.61 4.48.82.655.81.445 2.44-.163 2.84l-.002.02zm-39.18-3.68c.607 1.022.607 2.45 1.03 3.87.21 1.424.815 2.66 1.025 3.88-.396.21-1.214 0-2.03 0-.21-.61-.4-1.215-.607-1.84-.21-.215-.606 0-1.03 0-.21.6-.394 1.21-.21 1.84h-2.24c.38-2.45 1.02-5.3 1.84-7.75.58.21 1.4 0 2.22 0l.004-.005zm4.904 1.63v4.9c.21 0 1.024 0 1.212-.22.38-1.217.38-3.668 0-4.695h-1.22l.007.012zm25.72 3.27h.396c0-.4 0-1.03-.21-1.216 0 .4-.18.604-.18 1.21l-.007.003zM47.53 98.99c-.01.265-.057.54-.195.8h.397c-.14-.26-.187-.535-.2-.8.003-.14 0-.28-.01-.417 0 .133 0 .27.02.41l-.013.005zm27.77-3.68c0 2.66.21 5.924 0 8.17-.61 0-1.217 0-1.637-.21-.21-1.208 0-2.44 0-3.66-.397 1.22-.817 2.66-1.215 3.67-.396.21-1.028 0-1.634 0-.602-1.03-.812-2.24-1.022-3.27-.21 1.028 0 2.45-.21 3.06-.395.21-1.213.21-1.632 0 0-2.45-.21-5.717 0-7.957.607-.21 1.635 0 2.24 0 .608 1.213.82 3.058 1.426 4.298.62-1.22.82-2.85 1.44-4.3.63 0 1.45 0 2.267.21l-.02-.013zm-12.65 0c.207.392.207 1.42 0 1.84-.4 0-1.216.21-2.034 0v1.213c.62 0 1.42-.22 2.04 0 .22.4.22 1.203 0 1.625-.6.213-1.206.213-2.024.213-.21.4 0 1.03 0 1.427h2.03c.21.39.21 1.205 0 1.625-1.027.21-2.66 0-3.88.21-.21-2.45-.21-5.718 0-8.167 1.22-.21 2.85-.21 3.88 0l-.014.01zm-22.06 3.06c.396 0 .606 0 .815-.217 0-.4 0-.82-.21-1.216-.21-.21-.604 0-.814-.21.2.606.2 1.025.2 1.63l.01.007zm45.12 0c.395 0 .605 0 .815-.217 0-.4 0-.82-.21-1.216-.21-.21-.605 0-.815-.21.21.606.21 1.025.21 1.63v.007zM69.97 85.11c.4-1.025-.607-1.42-1.213-1.84-5.298-.607-4.298 6.12-.4 6.324 1.636 0 3.48-.805 5.114-1.42.4-.2 1.22-.387 1.64 0 .4.617-.4 1.22-.2 1.432 1.22.4 2.66-1.424 3.88-1.214.61 0 1.42.82.82 1.633h40.386c.61 0 2.24-.21 2.455.21.21.82-2.03.4-2.66.4H9.368c-.608 0-2.847.205-2.66-.4 0-.4 1.84-.21 2.24-.21h40.005c0-.4-.606-.82-.208-1.426 2.03-.6 3.266 1.03 4.902 1.03.396-.6-1.028-.81-.608-1.63.4-.82 2.45.82 3.06 1.02 1.21.4 3.05.82 4.47.4 1.85-.395 3.06-2.66 2.243-4.48-.21-.61-1.026-1.425-2.03-1.637-1.213 0-2.66.61-2.45 2.032 1.03 0 1.03-1.04 2.03-1.04 1.845 0 1.845 2.66.21 3.27-2.03.603-3.477-1.426-3.058-3.06.4-1.215 2.454-2.24 4.087-1.635.82.21 1.42 1.027 1.62 1.63 1.023 2.24-.61 4.087-2.036 5.72 1.426-.21 3.06 0 4.692 0-.82-1.42-2.45-3.872-1.215-5.93.4-.81 1.42-1.417 2.66-1.627.817 0 2.237 0 2.845.61 1.64 1.635 0 4.692-2.03 4.298-1.64-.21-2.032-3.27 0-3.27.793.21 1.19.61 1.8.82l.023-.013zm8.026-6.837c-.608 0-1.34-.094-1.888-.094-.205-2.86-.207-5.9 0-8.74v-.024h1.636c.82 0 1.22.21 1.44 1.03.215.6.215 1.42.215 2.24 0 .203-.21.6-.4 1.016.4.212.21.82.4 1.636 0 1.026.4 2.45-.61 2.846-.2.067-.47.09-.768.09h-.036zM93.45 69.8v4.297c0 1.42.21 3.06-.21 4.085-.207 0-.815 0-1.21-.2-.212-1.42-.82-3.06-1.216-4.48-.22 1.42.2 3.06 0 4.688-.4.212-1.04 0-1.22-.208-.22-2.45 0-5.718 0-8.17h1.2c.608 1.216 1.22 2.66 1.425 4.3.2-1.216-.22-3.06.2-4.3.184-.207.4-.207 1.002 0l.02-.013zm-55.507 2.24c-.21 0-.816.212-.816 0-.21-.4.21-1.212-.21-1.42-1.2-.607-1.2 1.026-.6 1.844.616.82 1.84 1.843 1.84 3.267 0 1.03-.2 2.45-1.624 2.45-1.63 0-1.63-1.84-1.42-3.06.21 0 .607-.2 1.026 0 .21.62-.21 1.86.6 1.86.4-.21.4-1.023.4-1.42 0-.208-.21-.604-.4-.82-.4-.81-1.426-1.63-1.636-2.24-.208-.813 0-2.026.4-2.446.4-.4 1.633-.61 2.45-.4.21.166.21 1.59 0 2.407l-.02-.012zm11.112 6.088c-.204 0-.41-.054-.514-.16-.21-2.45-.21-5.718 0-8.17.4 0 2.45-.4 2.85 0 .2.2.4.82.4.82.2.806.2 2.84-.4 3.26-.4.4-1.02.207-1.62.207-.1.586-.11 1.23-.11 1.874v.13c0 .64-.005 1.29-.105 1.87-.1.11-.3.16-.5.16h-.01.016zm45.818-.16c-.21-.606-.21-1.42-.21-2.03 0-2.03 0-4.482.21-6.325 1.028-.212 2.45-.212 2.847.4.21.204.21.82.21 1.02v6.117c-.22 1.214-2.038 1.026-3.058.816l.002.002zm-22.03-1.634c0 .612.207 1.428-.213 1.64-.42.21-.82 0-1.027-.21V76.13c.42-.213.816 0 1.24.206v-.002zm11.222-2.447c.608.4 0 3.058.608 4.084-.4.21-1.027 0-1.423.21-.4-1.02.21-2.84-.21-3.86h-.6c-.2 1.03 0 2.45 0 3.667h-1.418c0-2.66-.206-5.72.214-8.17 1.213-.21 3.268-.395 3.478.82-.024.814-.234 2.658-.632 3.265l-.016-.01zm3.27-4.295c.2 0 .2 1.21.2 1.42 0 .61.2 1.425.4 2.033.2.605.4 1.213.4 1.843.2.607.2 1.213.2 1.632 0 .4.4 1.04.207 1.436-.4 0-.82 0-1.03-.212 0-.61-.21-1.22-.21-1.64-.204-.207-.81 0-1.207 0 0 .61 0 1.426-.394 1.848h-1.02c.214-2.66.61-5.718 1.22-8.357 0 0 0-.212.21-.212.4.21.608.21 1.028.21h.006zm-42.065 8.36c-.22 0-.82 0-1.04-.212-.187-2.62-.19-5.232.02-8.077v-.068c1.03.208 1.847-.4 2.66.208.4.21.82 3.48.4 4.084-.4.608-1.22.4-1.847.4-.208 1.02 0 2.645-.206 3.65l-.006.005.02.01zm11.217-8.357c.4.82.604 1.84 1.023 2.66.394-.82.814-1.634 1.024-2.66.212 0 .82-.212 1.028 0 0 .604-.396 1.42-.606 2.03-.21.615-.82 1.433-.82 2.038-.208 1.428.4 2.85 0 4.3H57.11v-4.3c0-.393-.4-.813-.4-1.023-.207-.4-.207-.82-.395-1.214-.212-.608-.608-1.027-.4-1.84-.26-.16.166.02.56.02l.012-.01zm12.655-.4c1.02-.21 1.42.608 1.627 1.426.2 1.22 0 2.45 0 3.48v1.02c0 .61.2 1.22-.22 1.85-.397.397-1.03.817-1.635.817-.4 0-1.21-.21-1.42-.4-.607-.6-.4-4.686-.4-6.11.42-1.05.82-1.867 2.034-2.08l.004.007zm.624 1.426c0-.21-.212-.21-.212-.21-.396-.21-.606 0-.816.397-.214.608 0 2.24 0 3.27v1.21c0 .607 0 1.026.208 1.634 0 .21.208.21.394.21.608 0 .608-.394.608-.816.208-.394.208-1.024.208-1.632V71.2c-.4-.367-.4-.578-.4-.578l.01.005zm-29.6-1.02c.21.82 0 1.84 0 3.06 0 1.2-.21 2.44 0 3.26 0 .61.4 1.42 1.212 1.03.4-1.024.208-2.24.208-3.66v-3.66c.21-.203.82-.203 1.028 0v4.48c0 1.035.21 2.25-.21 3.28-.4 1.024-2.24 1.212-3.06.4-.21-.4-.4-1.22-.607-2.037v-3.28c0-1.027-.205-2.66.4-2.846.42-.208.82-.208 1.028-.02V69.6zm38.164 4.69s0-.21-.21-.21-.82-.4-.82 0v2.66c.21.21.82 0 1.03 0v-1.42c0-.21.21-.605 0-1.025v-.003zm-12.25-1.61c-.4 0-.82 0-1.027-.21-.212-.21-.212-.604-.212-.82 0-.39.22-1.02-.4-1.21-.6-.21-.81.608-.81 1.028v3.06c0 .82-.203 2.028.4 2.238 1.22.4.61-1.42 1.03-2.24h1.026c.204 1.028.204 2.66-.4 3.06-.82.815-2.66.395-3.06-.4-.21-.21-.21-.605-.21-1.025-.21-1.84.21-4.476.21-5.92.39-1.03 1.417-1.215 2.447-1.03.22 0 .4.214.613.4.21.21.4.396.4.606v.82c.21.02 0 1.66 0 1.66l-.007-.012zm-12.605-3.1c.035.02.397.02.587.02.208 2.03 0 4.69.208 6.93.4 0 1.423-.21 1.843.21v1.216c-.82 0-2.24.208-2.85-.212 0-2.66-.212-5.707.208-8.156l.01-.004zm33.03 5.34h.82c0-.82-.21-1.63-.4-2.45-.23.82-.23 1.636-.42 2.454v-.002zm-4.29-4.296v2.66c.204 0 .82 0 .82-.207v-2.64c0-.02-.616.19-.82.19v-.003zm-4.908-.21v2.66h.61c.213 0 .4-.214.4-.61 0-.61.21-1.42-.21-1.84-.38 0-.59-.213-.8-.213v.005zm-32.03 2.44c.4 0 .82 0 1.03-.21 0-.61 0-1.215-.208-1.845-.21-.208-.61-.208-1.03-.208.21.84.21 1.66.21 2.264h-.007zm5.298-2.03H49.55v2.03c.605 0 .82 0 1.213-.213.02-.612.213-1.43-.185-1.82l-.004.004zm45.31-.21v6.117h1.024c-.21-1.85.21-4.3-.21-5.934 0-.183-.61.026-.82-.183zM3.11 77.28c-.065.07-.14.114-.25.114.1-.04.18-.08.247-.12.1-.12.16-.316.22-.48-.1-.14-.26-.228-.26-.228-.22-.21-.22-.607-.22-.82-.22-.603-.22-1.21 0-1.84 0-1.028.2-1.846.4-2.85 0-.28.04-.525.1-.765l.02-.09c.04-.24.08-.48.08-.76.4-2.453.4-4.904 1.03-7.143-.606.22-1.632.613-2.45.4-.394-.2-1.21-.82-1.42-1.42-.21-.4-.4-1.024-.4-1.63 0-.1-.04-.24-.09-.38l-.02-.06c-.05-.14-.097-.28-.097-.38 0-.207.206-.207.4-.207.39.212.6 0 1.02-.208.187 0 .38-.046.57-.096l.08-.02c.19-.05.38-.098.57-.098.81-.215 1.838-.613 2.658-1.032.206-.607.206-1.425.4-2.24.39-1.64.6-3.057 1.02-4.693.21-.61.21-1.425.4-2.03v-1.22c0-.1.045-.24.1-.38l.02-.06c.043-.14.09-.28.09-.38.207-.604.4-1.212.4-1.632.205-1.42.39-3.056.81-4.69.4-1.42 1.028-2.84 1.216-4.29 0-.61 0-1.214.214-1.844 0-.4.4-.6.4-.82v-1.02c.294-1.28.686-2.562 1.08-3.85l.08-.24c.396-1.28.787-2.564 1.08-3.86 0-.39.21-.82.21-1.022 0-.4 0-.82.213-1.03.22-.4.4-.82.4-1.03.21-.82.4-1.64.4-2.456.21-.394.21-.82.39-1.21.22-.4 1.03 0 1.22 0 .19 0 .4.21.61.21.4.214.608.214.82.4l.6.608c.4.4.82.82 1.03 1.42.21.4.21.82.21 1.213 0 .195-.09.393-.187.59l-.02.04c-.09.2-.18.395-.18.587-.4 1.02-.61 2.026-.82 3.06-1.025 2.66-1.84 5.717-2.844 8.56-.21.396-.398 1.026-.398 1.424-.4 1.208-.4 2.66-.82 3.87-.214.605-.4 1.027-.61 1.843-.21.61-.4 1.21-.4 1.846-.6 3.054-1.21 5.925-2.027 8.984.19.86-.625 2.29-.82 3.92 2.04 0 4.49-1.025 6.94-.816.4-1.022.4-2.026.82-3.057.4-1.21 1.024-2.446 1.42-3.66.21-.4.21-1.026.4-1.417.206-.4.206-.614.392-1.034 0-.21.21-.398.21-.61v-.6c0-.21.22-.398.22-.607.207-.4.207-1.025.393-1.423.1-.38.24-.72.38-1.05l.06-.133c.14-.327.28-.663.38-1.047.092-.36.18-.678.266-.99l.076-.26c.087-.32.173-.635.265-.99.1-.395.245-.693.39-.987l.03-.06c.153-.29.3-.586.4-.98.4-.82.4-1.846.82-2.66.4-1.03.606-1.85.82-2.85.394-1.63 1.21-3.26 2.027-4.9.4-1.02 1.033-2.026 1.22-3.263 0-.19.045-.38.095-.57l.02-.08c.05-.19.095-.38.095-.567.21-.4.395-1.212.82-1.212.6-.204 1.63 1.22 2.027 1.64.1.1.193.24.287.38l.04.06c.09.14.185.28.283.38.214.207.4.6.4.81v1.01c-.1.286-.192.62-.284.95l-.04.13c-.09.34-.184.67-.28.953-.21.387-.21.6-.4 1.02-.395 1.218-.815 2.238-1.213 3.268-.604 1.634-1.212 3.06-1.84 4.693-.4 1.027-.61 2.24-1.03 3.267-.393 1.2-.813 2.44-1.21 3.86-.212 1.026-.6 1.843-1.03 2.847-.42 1.004-.604 1.843-1.024 2.847-.4 1.632-1.21 3.27-1.634 4.9 0 .393-.21.6-.21 1.025 0 .1-.044.24-.09.38l-.02.06c-.054.14-.1.28-.1.38 1.03.205 2.24.205 3.27.205.4-.81.61-1.42 1.03-2.24.606-1.023 1.214-2.447 2.24-3.658.21-.213.4-.213.607-.4.815-1.027 1.63-1.84 3.054-2.45.214-.21 1.03-.4 1.218-.4.82 0 1.214 1.03 1.844 1.427.39.21.81.398 1.21.818.393.214.813.61 1.21 1.03.22.395.62 1.025.62 1.42 0 .61-.213 1.215-.4 2.032-.21 1.213-.21 2.03-.82 2.846-.4.4-1.024.608-1.422 1.028-.21.212-.398.4-.818.4-.4.21-.612.4-1.03.4-.4.206-.82.206-1.213.4-.38.09-.768.23-1.15.38l-.15.05c-.38.14-.77.28-1.15.38-.21 0-1.42.205-1.42.205-.4 1.84 0 4.08 1.02 5.298.608.21 1.636-.22 2.24-.61.82-.39 1.635-1.21 2.24-1.84 1.63-1.423 2.846-3.06 4.084-4.9.208-.4.4-1.024.82-1.42.206-.21.206-.21.206-.4.22-.81.612-1.42 1.034-2.025.39-.606.81-1.63.81-2.24.21-1.027-.4-2.24 0-3.268.21-.4.4-.607.61-1.03.21-.205.21-.39.21-.6 0-.61.814-.61 1.21-.4.4.213.61 1.03 1.03 1.22l1.027 1.02c.208.61 0 1.216.4 1.64 1.024-.214 1.63-.82 2.447-.61.4 0 .82.4 1.43.61.4.21 1.03.21 1.426.605.21.21.4.608.607 1.028.205.61.39 1.427.39 2.24 0 .82-.602 1.22-.82 1.64-2.023 1.84-3.66 3.87-4.474 6.744 0 .1-.046.286-.096.48l-.02.08c-.056.19-.1.372-.1.472.21.22.82-.39 1.025-.6l.4-.4c.393-.4.82-.82 1.42-1.22.82-.82 1.844-1.63 2.452-2.66-.608-1.418.21-2.658 1.423-1.638.82-.808 1.218-1.84 2.036-2.84.207-.4.604-.61.82-1.028.204-.42.39-.815.6-1.213.21-.395.608-.815.82-1.422.208-.4.604-.82.813-1.42.21-.21.21-.4.4-.82 0-.206.205-.39.205-.6v-2.46c0-.205.4-.205.612-.205v-.4l.207-.21c.207-.212.393-.212.603-.212.4 0 .82.208 1.214.606.21.21.21.606.21.816.608.614 1.42 1.43 1.42 2.46 0 .4-.21.82-.4 1.025-.204 1.422 0 3.265.4 4.69.4 1.422.61 3.263.61 4.896.4-.21.607-.606.82-1.026.183-.388.42-.77.66-1.154l.1-.16c.24-.38.475-.76.66-1.148.4-1.027.82-1.84 1.424-2.66.21-.4.61-.82 1.03-1.21.61-1.037 1.22-1.855 1.85-2.66.4-.4 1.025-1.038 1.63-1.436.21-.21.606-.395.816-.605.208-.203.394-.6.82-.6.206-.21.6-.21.81-.21.21 0 .61-.214.82-.214.607 0 1.215-.212 1.634.208.4.207 1.03.605 1.425 1.025.21.395.604 1.027 1.024 1.212h.4c.21 0 .608-.21.82 0 .208.21.4.4.4.82 0 .6 0 1.21-.216 1.63 0 .21-.21.395-.21.607 0 .21-.217.394-.4.604-.213.21-.4.4-.4.82-.21.395-.21.605-.396 1.024-.21.4-.4.605-.61 1.025-.21.608-.4 1.028-1.426.608-.208-.2-.6-.4-.813-.6-.207-.216-.4-.216-.605-.612-.603.396-.603.21-.603-.21 0-.4-.212-.61-.212-.82 0-.4.213-.61.213-.82 0-.21.21-.395 0-.6-.212-.215-.608 0-.82 0-.605.205-.815.81-1.21 1.21-.61.602-1.215 1.21-1.635 2.026-.21.4-.4.82-.602 1.21-.214.397-.61.817-.61 1.215-.396 1.42-.6 2.45.4 3.48.21.21.4.21.604.21.21 0 .21.21.4.21.39.21.813.4 1.21.4 1.21-.214 3.06-1.032 4.08-1.64.4-.21.82-.82 1.425-1.026.4-.4 1.022-.82 1.21-1.216 0-.21.21-.4.21-.607.4-.82.82-1.632 1.026-2.66.21-.606.4-1.217.61-1.637.213-.21.213-.605.213-.82.21-.6.605-1.02.82-1.63.393-.61.603-1.428 1.023-2.036.204-.4.4-.82.602-1.22.39-.814.6-1.42.81-2.24.21-.4.21-.82.4-1.026.207-.4.393-.607.393-1.027 0-.4.21-.607.21-1.03.214-.4.4-.607.4-1.027.4-.82.82-1.84 1.215-2.66.21-.608.396-1.21.82-1.845.394-.814.814-1.84 1.212-2.845.4-.608.608-1.03.818-1.845.21-.604.608-1.024 1.028-1.632.4-.61.4-1.42.82-2.24.392-.61.6-1.218 1.02-2.034.21-.605.4-1.21.82-2.03.21-.39.607-1.42 1.027-1.63 1.025-.4 2.03 1.22 2.45 2.038.21.204.395.6.395 1.02 0 .61 0 1.22-.208 1.845-.394 1.852-1.212 3.275-1.84 4.7-1.635 2.848-3.268 5.717-4.898 8.565-.217.4-.615.82-.82 1.213-.21.4-.21.82-.4 1.03-.21.398-.4.61-.608 1.03-.21.4-.21.61-.397 1.03 0 .1-.046.24-.096.38l-.02.06c-.053.14-.1.28-.1.38-.21.208-.21.606-.4.82.61-.214 1.03-.4 1.427-.82.213-.21.4-.4.61-.4.4-.207 1.03-.4 1.426-.603.4-.21 1.03-.21 1.636-.21.608.21 1.216.606 1.636 1.03.396.214.815.61 1.025.817.214.4.612.82.82 1.216.212 1.02-.208 1.63-.4 2.444v1.215c0 .392-.206.602-.39 1.022-.398.61-.82 1.217-1.03 1.846-.21.4-.21.82-.4 1.027-.206.392-.604.812-.82 1.21-.204.4-.39.82-.39 1.21-.21.4-.4 1.03-.607 1.42-.21.4-.607 1.43 0 1.64.4.21 1.42-.4 1.844-.82.396-.395.816-.6 1.213-1.026.386-.394.806-.604 1.204-1.024.4-.4.82-.82 1.22-1.42.206-.82.206-2.03.39-2.845.19-.82.61-1.64 1.03-2.455 1.03-2.03 2.24-3.48 4.086-4.9.4-.397.605-.607 1.025-.817 1.03-.4 2.454 0 3.06.605.4.4 1.027.82 1.42 1.22.61.605 1.64 1.025 1.85 2.03.213.4 0 .82 0 1.42-.207.603-.207 1.023-.4 1.63-.205.61-.39 1.22-.6 1.64l-.82.82c-.395.394-1.026.814-1.63 1.42-.61.607-1.216 1.027-2.033 1.64-.393.205-1.025 1.023-1.84.82-.293-.11-.54-.3-.792-.5l-.05-.04c-.254-.2-.5-.393-.798-.495-.4 1.214.39 2.45 1.02 3.48.208.21.4.4.605.4.816.205 1.424-.215 2.032-.613 1.015-.61 1.415-1.428 2.235-2.033.4-.4 1.023-.61 1.21-1.03.207-.213.603-.61.82-1.03.4-.6 1.02-1.42 1.626-1.84.21-.21.61-.4 1.03-.82.208-.205.606-.6.816-1.02.81-1.027 1.02-1.635 1.21-3.06.215-.814.215-1.837.215-2.657.21-.82.21-1.635.4-2.453.205-.605.205-1.025.205-1.633.4-2.447 1.42-4.688 2.24-7.137.21-.61.21-1.214.4-1.844.21-.6.6-1.026.6-1.63.217-.397.217-1.027.4-1.42.215-.4.61-.82.82-1.426.21-.4.4-.82.61-1.42.82-1.842 1.635-3.664 2.66-5.51.4-.82 1.03-1.842 1.427-2.66.4-.607.4-1.634 1.214-1.84.61-.21 1.848.4 2.454.82.82.6.21 2.24 0 3.26-.21.818-.4 1.42-.4 2.24 0 .397 0 .607-.206 1.027-.097.36-.18.717-.273 1.075l-.072.303-.27 1.07c-.21.814-.21 1.837-.4 2.657 0 .4-.394.82-.394 1.42 0 .61 0 1.22-.213 1.64-.4.816-.61 1.42-.82 2.24-.21.82-.4 1.425-.82 2.24-.4.61-.604 1.214-.82 1.846-.204.6-.6 1.213-.812 2.03-.4 1.026-.82 2.03-1.425 3.06-.82 1.63-1.847 3.264-2.85 4.896-.21.4-.4.61-.61 1.03-.206.4-.602.603-.602 1.023-.21.82-.21 2.24 0 3.48.21.815.21 1.632.21 2.45 0 .4 0 .82.207 1.03 0 .21.207.607.393.82.4.207 1.027 0 1.424 0 .4 0 .82-.213 1.215-.4.4-.21.61-.4 1.03-.606.4-.21.61-.4 1.03-.608.82-.21 1.424-1.027 2.03-1.635.395-.393 1.027-1.42 1.633-1.63.82-.21 1.215.815.82 1.632-.21.61-.61 1.03-.82 1.634-.4.61-.82 1.216-1.212 1.85-.61.61-1.22 1.03-2.034 1.64-.216.205-.216.39-.4.39-.21.214-.4.214-.61.4-.4.21-.82.398-1.213.818-.4.21-.82.4-1.425.607-.6.21-1.42.21-2.027.21-.394 0-1.023 0-1.42-.206-.187-.1-.38-.24-.57-.38l-.08-.06c-.187-.14-.38-.28-.565-.38-.61-.21-1.03-1.026-1.03-1.633-.21-.82-.394-1.636-.394-2.453v-1.42c-2.24 1.64-5.113 4.907-7.538 6.54-.61.4-1.85.4-2.664.21-.6-.215-1.207-.61-1.84-.82-.4-.213-.82-.4-1.21-.82-.394-.4-.814-1.026-1.21-1.632-.21-.21-.398-.61-.818-.82l-.61.4-.61.606c-.21.21-.4.4-.61.4-.4.4-.82.604-1.21.82-.82.6-2.03 1.02-3.06 1.02h-1.04c-.606 0-1.21-.21-1.843-.61-.395-.202-1.025-.39-1.42-1.02-.21-.21-.21-.605-.21-1.025 0-.42.21-1.213.4-1.633.21-.606.21-1.212.4-1.634.18-.38.38-.82.563-1.25l.08-.167c.186-.432.38-.86.564-1.246.203-.614.6-1.22.81-1.85.21-.63.21-1.215.394-1.845 0-.4.212-1.21-.208-1.42-.6-.608-2.027-.21-2.66.21-.393.22-.81.4-1.024.614-.21.213-.607.213-.82.61-.21.206-.21.392-.4.6l-.813.82c-.208.21-.208.606-.4.82 0 .208-.207.393-.207.813-.1.18-.2.42-.29.66l-.04.094c-.087.24-.18.48-.28.667-.21.606-.607 1.21-.82 2.24-.393 1.212-1.024 2.658-1.21 4.083-.212.61-.212 1.42-.4 2.033 0 .208-.396.815-.606.815-.207 0-.82-.212-1.21-.4-.82-.395-1.633-.395-1.845-1.42-.603.207-1.21.605-1.63.815-.21.21-.4.396-.606.396-.205.21-.6.21-.82.21-.2 0-.2 0-.39.205-.214.206-.4.206-.82.206h-1.03c-.284 0-.614-.05-.947-.1l-.133-.02c-.34-.05-.68-.1-.96-.1-.4 0-.82 0-1.033-.205-.4-.207-.61-.4-.82-.603-.607-.4-1.215-1.023-1.635-1.63-.398-.606-.608-1.424-.817-2.24-.61.396-.82.816-1.217 1.42-.4.4-.61 1.03-1.03 1.64-.808 1.027-1.42 2.03-2.44 2.846-.82.607-2.453 1.027-3.666 1.027-2.453-.39-3.88-2.24-5.114-4.08-.82.82-1.848 1.84-3.06 2.847-.82.608-1.027 1.028-2.03 1.42-.606.215-1.214.4-1.84.4-.4 0-.61 0-1.03-.21-.207 0-.6 0-.813-.207-.206-.21-.4-.4-.604-.82-.21-.605-.4-1.42-.605-2.03v-1.22c0-.39 0-1.02.215-1.42.206-.39.4-1.023.4-1.42.202-.605.4-1.21.82-1.838.2-.4 1.02-1.43.81-1.64 0-.82-1.428-.604-1.848-1.024-.606.61-1.025 1.426-1.42 2.032-.21.4-.397.61-.607 1.03-.21.4-.4.82-.605 1.217-.21.4-.61.61-.82 1.03-.09.173-.18.35-.264.53l-.066.155c-.09.18-.176.36-.268.533-.608.82-.82 1.63-1.42 2.24-.4.603-1.03 1.42-1.64 2.03-.605.6-1.42 1.42-2.24 1.84-.4.21-1.026.21-1.424.21-.604 0-1.21.21-1.63.21-.61.212-1.22.212-1.848.212-.4 0-.82-.4-1.427-.4-.4-.205-.61-.205-1.03-.393-.4-.21-.6-.607-.82-.817-.2-.21-.385-.4-.6-.61-.82-1.42-1.023-3.474-1.023-5.5-1.216-.206-2.66-.206-3.88-.4-.207 0-1.025 2.855-1.025 3.275-.397 1.22-.607 2.25-.816 3.48 0 .4-.21 1.034-.21 1.43 0 .214-.21.4-.21.61-.6 1.843-1.215 3.48-1.84 5.3 0 .4-.215.605-.4.82-.21.39-.608.205-1.028.39-.21 0-.21.214-.4.214-.183 0-.393-.21-.393-.4-.207-.392 0-1.023 0-1.42 0-.607-.207-1.423-.207-2.24 0-.61.216-1.22.216-1.64 0-.82.21-1.63.4-2.45.21-1.21.21-2.66.603-3.87.21-1.214.61-2.452.82-3.48-2.453.21-4.904.82-6.937 1.634-.208.214-.208.61-.394 1.03-.21.4-.4 1.023-.608 1.42-.207 1.423-.6 2.846-.815 4.298 0 .81-.21 1.42-.396 2.24-.4 1.84-.82 3.658-1.217 5.718 0 .207 0 .4-.217.602-.21.207-.4.207-.607.4-.06.05-.1.133-.136.225.08.13.08.3-.23.472l-.013-.05zm52.383-16.248c.4.21.82.608 1.028.608.21 0 .82-.62 1.03-.82.6-.616 1.2-1.433 1.2-2.04 0-2.03-.61-4.477-.61-6.537h-.21c-1.84 2.032-2.66 4.7-4.29 6.938.394.4.604 1.03 1.024 1.42.4.03.605.21.82.42l.02.02zm-26.33-6.325c2.447-.392 4.08-2.22 3.88-4.673v-.014c-1.22 1.21-2.245 2.445-3.272 3.66-.21.21-.6.6-.6 1.02v.007zm73.273-1.84c.813-.2 4.082-3.26 3.872-5.298-1.46-.4-3.48 4.5-3.878 5.29h.006zm22.03-25.49c-.818 1.845-1.632 3.478-2.238 5.718-.212.22-.212.62-.212.82 0 .82-2.45 6.745-2.24 7.537.607-.82 2.66-6.932 3.06-7.738v-.22c.814-1.845 1.42-3.878 1.63-6.117zm-56.53 3.878v8.565c-.21.21-.82 0-1.215 0-.21-1.027 0-2.66 0-3.878-.21-.208-.6 0-.82 0 0 1.22.22 2.85 0 3.878-.39 0-1.02.21-1.21-.212-.21-2.66 0-5.718.21-8.357.4-.2.82 0 1.22 0v3.27c.21.21.61 0 .82 0 0-1.02-.21-2.45 0-3.48.186.22.606.22 1 .22zm-7.54-.212h3.664c0 .396.21.816 0 1.214-.21.214-.82 0-1.214 0v7.357c-.21.214-1.027.214-1.213 0v-7.537h-1.426c-.02 0-.23-.82.188-1.026h.002zm11.833.396c0 .21.21.82 0 1.03-.4.2-1.03 0-1.43 0-.2.6 0 1.63 0 2.23h1.44c0 .21.21.82 0 1.025-.21.212-.82 0-1.21.212-.21.82 0 1.63 0 2.446h1.42c0 .212.21.61 0 1.03-1.03.203-1.84.203-2.85 0 0-1.85-.21-3.67-.21-5.515 0-.82-.21-1.85.21-2.665.378 0 1.82 0 2.64.195l-.02.005zm27.96-13.05c-.49 0-.68-.86-.87-1.06-.61-.6-1.425-.82-2.03-1.21-.818-.4-1.636-.61-2.454-1.03-1.842-.604-3.663-1.024-5.507-1.422-3.038-.4-6.317-.4-8.976-1.217-1.204-.4-2.66-.61-3.26-1.85-.21-.212-.21-.4-.4-.61 0-.206 0-.392-.205-.392h-.4c-.208 0-.208-.212-.394-.212-.61-.4-1.03-1.033-1.03-1.64-.214-1.214.4-3.48.604-4.69.21-1.027.21-2.03.82-2.45.395-.4 1.84-.4 2.24-.21.398.19.818 1.03.818 1.425 0 .61-.21 1.425-.21 2.24-.21 1.216-.4 2.244-.608 3.27-.586 1.24-.796 1.87-1.216 2.27.1.1.194.24.288.38l.04.05c.093.14.185.28.285.38l.61.61c.4.21.82.21 1.03.4.82.21 1.63.6 2.45.6.4.21 1.03.21 1.424.21 1.846.21 3.667.21 5.51.4 1.636.21 3.27.606 4.9 1.026 2.026.61 4.48 1.426 6.11 2.85.21.206 1.424 1.42.608 1.84-.06.02-.11.026-.16.026l-.016.017zM36.67 13.72c-.4 0-.61-.61-.61-1.03-.21-.82-.815-1.84-1.025-2.848-.4-1.027-.608-2.03-.82-3.058 0-.21-.394-.817-.208-1.027.22-.606.82.4.82.61.22.21.22.604.22.82.22.6.612 1.21.612 1.84.61 0 1.215-.398 1.847-.61-.213-.82-.4-1.214-.61-2.24-.215-.607-.613-1.64 0-1.64.39 0 .603.82.603 1.033.21.4.21 1.02.4 1.417.095.286.19.62.28.95l.04.134c.093.33.185.66.285.947.21.4.21.607.4 1.027-.14.76-.14.98.07 1.18.206.216.206.614.4.82.204.4.39 1.03-.22 1.03-.605.207-.605-.82-.82-1.428-.205-.6-.813-1.633-.813-2.24-.61.21-1.03.4-1.636.4l.61 1.84c.21.4.21.61.4 1.03 0 .4.39 1.02-.21 1.026h-.01l-.01.016zm61.85-7.6c-.2 1.43-1.02 2.663-1.413 3.88-.213.61-.213 1.22-.4 1.85-.21.395-.397 1.633-.817 1.633-.82 0-.21-1.42 0-1.84.606-2.02 1.423-3.864 2.03-5.717 0 0-.816-.388-1.026-.388-.21 0-.21-.21-.4-.21 0 0-.206-.61 0-.61.61 0 1.217.21 2.245.603.608.21 1.423.4 1.423.82.21 1.02-1.213.205-1.633 0l-.002-.02zM95.08 4.31c.396.21.21.815 0 1.025-.396 1.843-.82 3.663-1.423 5.508-.2.608-.38 2.24-1.2 1.845-.4-.607.216-1.213.4-2.03.4-1.214.82-2.848 1.216-4.295.21-.84.42-1.66 1.027-2.056l-.02.002zm-3.874-1.03c-.21 2.67-1.214 5.118-1.634 7.55.396.4 2.24.4 2.03 1.213 0 .82-1.214 0-1.424 0-.6-.21-1.42-.21-1.62-.606-.203-.4.217-1.42.4-2.028.4-1.84 1.22-4.48 1.64-5.93.21.02.42-.4.63-.19l-.022-.02zm-3.973 7.957c-.66 0-.112-1.86-.112-2.44-.17-.092-.35-.18-.52-.266l-.153-.07-.53-.27c-.21.4-.4.82-.82 1.426-.21.21-.21.397-.394.607 0 .22-.21.22-.21.22-.607.21-.607-.4-.4-.82.21-.42.4-.82.61-1.21 1.026-1.85 1.634-4.09 2.66-5.933.607-.397.4.607.4 1.213 0 .393 0 .81.207 1.42 0 1.634-.21 3.48-.21 4.69 0 .606 0 1.21-.396 1.424-.06.013-.1.02-.12.02h-.02.02zm-35.246-1.16c-.58 0-.6-1.348-.788-1.91-.4-1.63-.4-3.055-.82-4.69 0-.188-.05-.38-.1-.57l-.02-.076c-.05-.19-.098-.38-.098-.57 0-.21-.21-.82.21-1.02.4-.4.61.6.61.81 0 .21 0 .61.2.82.2 1.03.4 1.63.4 2.66.02 1.84.837 3.48.617 4.48-.088.045-.16.065-.233.065l.012.01zm5.138-.46c-.814.603-1.212-.212-1.632-1.03-.608-1.212-1.423-3.055-1.843-4.083 0 1.216.21 2.66.396 3.88 0 .4.4 1.418-.396 1.418-.608 0-.608-2.027-.82-2.66-.208-1.632-.208-3.057-.604-4.69v-.82c0-.398.21-.818.606-.398.4.212.62.607.82 1.027.62 1.64 1.22 3.28 2.04 4.91 0-1.03-.2-2.03-.2-3.48 0-.82-.607-3.06.4-2.85.393.21.393.61.393 1.22.236 2.265.866 4.9.866 7.563h-.02zm43.867-3.273c.208.4 0 1.027.208 1.215 0 .81 0 1.42.21 2.24.38-.4 1.2-.82 1.84-1.22.2-.2.4-.6.6-.8.2-.21.6-.4.82-.21.203.396-.4 1.026-.6 1.214-.82.815-2.04 1.633-2.86 2.66-.214.82-.61 2.03-1.03 3.06-.208.4-.208 1.212-1.025.82 0-1.03.608-2.245 1.027-3.27.212-.82.4-1.426.4-2.85 0-.19-.048-.427-.096-.667l-.02-.1c-.05-.24-.096-.48-.096-.664 0-.4 0-1.027.21-1.215.214-.42.4-.42.4-.22l.012-.003zM80.8 1.26c.21 0 .21.398.396.606 0 .38 0 .8-.21 1.02-.208 1.22-.394 2.66-.604 4.078 0 .6-.2 1.208-.2 1.628.22.606.82 1.027 1.42 1.027 1.04-.21 1.04-1.64 1.22-2.85.213-1.22.4-2.03.61-3.48 0-.61.21-1.42.604-1.42s.208 1.02.208 1.84c-.21 1.42-.4 2.45-.605 3.66-.22 1.423-.4 2.66-1.64 3.06-1.43.4-2.85-.61-2.66-2.24 0-.82.39-1.848.6-2.66.2-1.03.2-1.85.39-2.85.05-.448.26-1.26.47-1.45l-.008.02zM65.485.84c-.393-.607-1.42-.21-1.63.4-.21.392-.21 1.022 0 1.418.21.608 1.025 1.216 1.423 2.03.82 1.04 1.423 2.26.82 3.88-.61.82-2.244 1.22-3.06 0-.212-.4-.82-2.84.208-2.84.82 0 0 2.66 1.214 2.66.608 0 1.213-.386 1.213-1.204-.21-2.03-2.45-2.847-2.66-5.112 0-.4 0-.82.397-1.213.82-1.43 2.847-1.03 2.847.81 0 .21 0 .813-.396.813-.21 0-.21-.4-.21-.61.05-.42.05-.61-.16-1.03V.84zm10.92 7.992c.73 0 .73-.728.73-1.46.21-1.21.606-2.45.606-3.872 0-.396.21-.82.21-1.214 0-.4-.39-1.04-.81-1.04-.4-.22-1.03-.22-1.21.4-.21.386 0 .806-.21 1.204 0 .186-.045.42-.095.664l-.02.094c-.05.24-.094.48-.094.67 0 .63-.21 1.027-.21 1.66-.212 1.21-.212 2.844.815 2.844.11.02.208.034.294.034h.006l-.002.016zM31.402 7.586c.61 1.42 1.428 3.663 2.24 5.508.213.606 1.03 1.843.213 2.03-.62.21-.82-1.026-1.04-1.634-.82-1.845-1.42-3.665-2.033-5.508-.61.21-1.03.606-1.635.396-.214-.606.814-.816 1.42-1.214.607-.22 1.425-.82 1.845-.82.212 0 .61 0 .61.4-.208.42-1.214.42-1.634.84l.014.002zm54.692 0c.4.208.607.396 1.027.396.21-.82.21-2.24 0-3.27-.21.82-.6 1.845-1.02 2.872v.002zM39.574 4.5c.21 1.03.607 2.033.817 3.06l1.22-.4c.21 0 .4-.208.61-.208.38 0 .6.396.2.82-.4.208-.82.394-1.22.394l-.61.212c.21 1.028.82 2.03 1.027 3.06 1.028-.21 1.844-.82 2.847-.61.4.61-.607.82-1.215 1.03-.815.21-1.843.814-2.24 0-.21-.4-.4-1.215-.606-1.847-.61-1.84-1.428-4.08-1.638-6.11.606-.21 2.03-1.03 2.66-.82.21 0 .4.21.4.21.185 1.04-1.87 1.04-2.266 1.22l.024-.01zm7.142-1.422c.4 1.028.608 2.03.82 3.06.394 0 2.03-1.03 2.45-.213.21.82-1.636.82-2.032 1.02 0 .82.22 1.42.62 2.24.22.598.614 1.838-.204 1.838-.606 0-.82-1.64-1.026-2.24 0-.4 0-.82-.21-1.03-.396-1.636-1.21-3.875-1.21-5.51.6 0 1.628-.607 2.444-.607.396 0 .816 0 .606.606-.212.612-1.846.42-2.24.82l-.018.016zm12.232-2.03c0 1.028.396 2.032.396 3.27.608 0 2.03-.608 1.845.395 0 .608-1.2.4-1.84.608 0 1.22.22 2.46.4 3.67.6 0 2.24-.61 2.46 0 .21.82-2.85.82-3.27.61-.4-2.66-.61-6.116-.61-8.985.395-.21 1.42-.21 2.03-.396.4 0 .82-.21.82.21.232.63-1.59.42-2.22.63h-.02zm10.386.033c-.034.2-1.216 0-1.423 0-.21 0-.6-.21-.39-.4 0-.21.61-.21.82-.21h1.636c.64-.23 1.86-.23 1.64.587-.4.4-1.2 0-1.62 0 0 2.24 0 4.48-.21 6.745v.82c0 .394 0 .816-.61.816-.4-.4-.21-1.027-.21-1.425.21-2.24.21-4.7.4-6.94l-.023.017z"/></svg>