<svg viewBox="0 0 128 37" xmlns="http://www.w3.org/2000/svg" fill-rule="evenodd" clip-rule="evenodd" stroke-linejoin="round" stroke-miterlimit="1.414"><path d="M122.244 27.154v-.894h1.414v-2.307h2.035v2.295H128v.906h-2.294v5.11c0 .533.644.683 2.046.683v.893s-.46.198-1.513.198c-1.06 0-2.68-.136-2.68-1.588v-5.296h-1.32zm-61.46 0v-.894H62.2v-2.307h2.033v2.295h2.307v.906h-2.294v5.11c0 .533.644.683 2.046.683v.893s-.46.198-1.513.198c-1.06 0-2.68-.136-2.68-1.588v-5.296h-1.32zm-38.14.843v-1.66s-1.473-.24-2.32-.24c-.848 0-2.816.385-2.816 2.21 0 2.383 3.903 2.414 3.903 3.806 0 1.183-2.2 1.216-3.66.16-.09-.065-.24 0-.24 0v1.488s1.19.25 2.38.25c1.185 0 3.34-.39 3.34-2.31 0-2.3-4-2.85-4-3.9 0-1.12 2.35-.87 3.423.206zM6.56 27.18l-.075-.555s3.02-.39 3.375-.495v1.568s1.056-1.568 2.912-1.568c1.856 0 2.272 1.503 2.272 1.983v5.663H12.98V28.24c0-.27-.255-.863-1.056-.863-.8 0-2 1.376-2 2v4.383H7.796v-5.743c0-.464.092-.836-1.235-.836zm34.91 6.56l-.017-5.616c0-.464-.09-.912-1.417-.912v-.65s3.09-.287 3.376-.463v1.36h.193s.632-1.37 2.046-1.37c.63.005 1.02.062 1.02.062v1.884s-.56-.323-1.06-.323c-.51 0-2.083.52-2.083 1.786v4.243l-2.05-.013zM36 28.028c0-.464-.05-.836-1.376-.836l.01-.556s3.02-.39 3.376-.496v7.603h-2.006L36 28.028zM4.173 33.683H1.797V25.21c0-.545.192-1.33-1.332-1.33H0v-.622s3.303-.148 4.196-.434l-.024 10.86zm23.542-3.404c0 2.05.844 2.63 1.613 2.63.77 0 1.675-.5 1.675-3.03s-1.253-2.64-1.687-2.64c-.856 0-1.6.98-1.6 3.04zm81-4.23c-1.29 0-3.807.19-3.807 3.74 0 3.544 2.73 4.28 4.54 4.28s2.593-.5 2.593-.5v-1.11s-.78.434-1.8.434c-2.91 0-3.07-3.523-3.07-3.523h5.09c0-3.026-2.245-3.324-3.535-3.324zm-57.357 0c-1.29 0-3.808.19-3.808 3.74 0 3.544 2.728 4.28 4.54 4.28 1.81 0 2.592-.5 2.592-.5v-1.11s-.78.434-1.8.434c-2.914 0-3.075-3.523-3.075-3.523h5.086c0-3.026-2.246-3.324-3.536-3.324zm30.465 0c-1.29 0-3.808.19-3.808 3.74 0 3.544 2.73 4.28 4.54 4.28s2.593-.5 2.593-.5v-1.11s-.782.434-1.8.434c-2.914 0-3.075-3.523-3.075-3.523h5.086c0-3.026-2.25-3.324-3.54-3.324zm12.752 7.7h-2.208v-8.47c0-.55.192-1.57-1.332-1.57h-.463v-.62s3.945.01 4.855.01l5.35 8v-7.98h2.205v10.654h-2.716l-5.697-8.35v8.324zm22.988-5.1l1.788-2.4h2.26l-2.1 2.393h-1.94zm-7.32-.17h-3.04s.124-1.56 1.556-1.56 1.48 1.553 1.48 1.553zm-57.36 0h-3.038s.124-1.56 1.557-1.56c1.434 0 1.483 1.553 1.483 1.553zm30.466 0h-3.04s.12-1.56 1.55-1.56 1.48 1.553 1.48 1.553zm-12.48 5.27H68.8v-8.74c0-.385.186-1.334-.875-1.334h-.465v-.712s2.522-.137 3.416-.423v5.126s.914-1.6 2.848-1.6c1.935 0 2.345 1.464 2.345 2.42v5.26h-1.96V28.45s-.11-.968-1.18-.968c-1.07 0-2.04 1.09-2.04 1.97 0 .88-.028 4.294-.028 4.294zM25.7 28.14c0-.464-.09-.912-1.417-.912v-.65s3.09-.286 3.375-.462v.99h.314s.416-.96 1.983-.96c1.568 0 3.2.91 3.2 3.79s-1.295 4.016-3.2 4.016c-1.904 0-2.016-.768-2.016-.768h-.32V37h-1.91l-.02-8.854zm86.777-1.91v.65s.974-.02 1.354.36c.38.38 1.97 2.502 1.97 2.502l-2.1 2.457h2.33l.905-.904 2 2.56h2.41l-5.716-7.6-3.144-.02zm-74.194-2.22c0 .602-.56 1.09-1.253 1.09-.69 0-1.252-.488-1.252-1.09 0-.604.56-1.092 1.252-1.092s1.253.49 1.253 1.09zm85.74-3.213h2.356l-2.73 3.15h-2.34l2.703-3.15zm-3.277-2.77h-4.372V.71h4.372v17.325zm-69.572 0L59.194.71h5.656l8.103 17.325h-4.988l-1.6-3.67h-8.592l-1.465 3.67h-5.134zm-16.544 0h-4.372V.71h4.372v17.325zM36.313.71H55.07v2.88h-6.997v14.445h-4.568V3.588h-7.192V.708zm50.66 5.81c.028-1.823-1.06-3.53-4.7-3.547-4.708-.02-5.135 4.15-5.15 6.4-.038 4.84 2.032 6.278 5.41 6.34 3.314.065 4.468-2.05 4.44-3.872h4.873c-.215 4.346-3.17 6.51-9.312 6.56-7.336.068-10.485-3.955-10.483-9.02 0-5.06 3.09-9.2 10.29-9.215 5.1-.01 9.1 2.022 9.31 6.365h-4.67zm-21.608 4.964l-3.24-7.78-3.32 7.78h6.56zm-57.272 6.55V.71h4.372v6.84h9.367V.707h4.628v17.325h-4.567v-7.607h-9.428v7.607H8.093zm86.116 0V.71h4.56v6.84h9.364V.707h4.435v17.325h-4.37v-7.607h-9.43v7.607H94.2z"/></svg>