<svg viewBox="0 0 128 85" xmlns="http://www.w3.org/2000/svg" fill-rule="evenodd" clip-rule="evenodd" stroke-linejoin="round" stroke-miterlimit="1.414"><path d="M89.935 2.576C94.545.27 96.91.626 96.97 2.93c.058 3.015-.415 7.034-.71 9.93-1.774 15.723-4.61 28.55-4.847 44.744 7.624-19.742 13.95-33.336 22.166-50.18 2.6-5.38 4.31-4.376 6.44-5.38 8.33-3.724 8.63-1.42 7.5 3.192-4.02 16.727-14.306 69.626-15.9 77.725-.474 2.37-3.074 1.42-3.666.48-3.073-4.08-6.384-4.14-6.03-6.913 1.892-13.476 8.63-47.58 10.344-55.62-8.92 18.202-18.14 41.076-22.87 53.96-1.005 2.72-2.836 2.544-3.96.534-1.655-2.9-4.73-4.316-5.2-7.626-1.657-10.58 1.83-30.79 2.304-43.62C77.76 38.1 69.6 65.29 66.054 77.527c-1.48 5.083-6.38 4.196-5.08-.65 5.436-20.63 17.08-56.98 22.106-70.047 1.18-3.133 4.313-2.956 6.855-4.256zM51.21 61.996c.308.964.637 1.978.966 2.95-.412.343-.83.69-1.252.933-1.466.84-2.54-.06-.65-2.61.31-.44.626-.865.937-1.284zm5.132 5.207c.615-.78 1.173-1.585 1.675-2.328 2.24-3.313.06-5.262-2.246-3.31-.32.302-.67.632-1.01.974-.37-1.18-.77-2.42-1.12-3.55 1.06-1.3 2.08-2.63 2.96-3.99 3.71-5.75-3.54-9.05-6.68-5.32-1.65 1.95-1.24 3.9-.762 5.61.138.514.35 1.25.616 2.144-.89.924-1.944 2.064-3.335 3.703-3.606 4.14-2.604 9.467 1.18 10.64 2.28.707 4.435-.324 6.3-1.97.09.236.177.457.26.67 1.006 2.48 4.14 1.714 2.898-1.3-.2-.507-.45-1.19-.73-1.987zm-3.948-12.445c-.11-.275-.17-.545-.23-.76-1.06-3.96 3.48-2.902 1.183-.295-.325.37-.62.735-.953 1.055zM60.5.034c-1.597-.354-6.207 2.128-9.044 2.542-.886.237-1.713 1.123-2.01 1.832-4.49 10.343-8.51 20.156-11.938 29.02-4.493.83-9.694 1.834-15.487 3.075 4.2-10.64 8.4-21.218 12.48-31.326 2.01-5.084-3.31-5.556-5.38-.473-2.66 6.56-7.683 18.913-13.24 33.277-4.08 1.01-8.51 2.13-13 3.49-3.31.89-3.43 1.77-2.01 3.79.83 1.066 2.364.947 3.132 1.774 1.95 2.01 3.13 4.434 6.62 4.788-3.2 8.27-6.27 16.725-8.99 24.82-1.77 5.143 3.25 6.21 5.14.77C9.85 68.72 13.1 59.916 16.47 50.99c2.778-.59 9.457-2.008 15.664-3.427-4.91 13.594-8.1 23.82-9.4 28.845-.236.948.235 1.42.41 1.895 1.6 2.362 3.25 2.48 5.38 5.494.535.83 2.485 1.24 3.195-.77 4.55-13.83 9.16-26.716 13.533-38.3 1.83-.473 5.14-1.242 7.15-4.196 3.547-5.32 4.553-4.255 5.5-5.85 1.06-2.066.293-3.9-3.49-3.485 0 0-1.42.12-4.14.414 4.256-10.82 8.04-19.98 10.64-27.014.89-2.43 1.01-4.2-.41-4.553z"/></svg>