<svg viewBox="0 0 92 128" xmlns="http://www.w3.org/2000/svg" fill-rule="evenodd" clip-rule="evenodd" stroke-linejoin="round" stroke-miterlimit="1.414"><path d="M46 128L9.056 117.526l-8.52-92.44h90.93l-8.534 92.44L46 128zm28.6-84.04H17.386l3.2 34.612.07-.216h39.09l-1.276 14.64L46 96.59l-12.66-3.648-.76-8.86H21.09l1.64 17.72L46 108.396l23.27-6.608 3.2-34.748H30.994l-1.07-11.59h43.62l1.06-11.492-.004.002zm.313-32.508V0H69.12v17.26H83v-5.808h-8.087zm-46.54-5.644h5.05V17.26h5.82V5.808h5.048V0h-15.9v5.808h-.016zM66.165 0v17.26H60.55V8.468l-4.1 6.392-.017.012-.014-.014-4-6.22v8.62H46.8V0h6.025l3.592 5.9L60.02 0h6.145zm-46.12 5.726h-5.25V0H8.99v17.26h5.805v-5.726h5.252v5.726h5.792V0h-5.8v5.726h.004z"/></svg>