<svg viewBox="0 0 128 84" xmlns="http://www.w3.org/2000/svg" fill-rule="evenodd" clip-rule="evenodd" stroke-linejoin="round" stroke-miterlimit="1.414"><path d="M74.17 66.56c.235-2.174 1.767-4.325 3.87-5.076.545-.18 1.033-.328 1.633-.37l12.52.068c2.335.192 4.52 2.15 5.145 4.368.15.548.257 1.203.244 1.725V79.95c-.11 1.162-.964 2.435-2.077 2.735-1.168.438-2.442.247-3.38-.59-.707-.67-1.087-1.518-1.13-2.516l-.025-11.49c-.028-.347-.202-.7-.53-.88-.215-.113-.49-.113-.706 0-.83.615-.422 1.67-.528 2.56v10.27c-.15 1.04-.83 2.12-1.848 2.56-1.346.563-2.812.33-3.858-.686-.652-.642-.897-1.465-.95-2.353V68.15c-.095-.07 0-.22-.067-.315-.15-.34-.395-.614-.776-.67-.297-.015-.556.19-.733.422-.188.194-.164.467-.188.74l.024 10.02c.124 1.217-.08 2.833-1.137 3.75-.64.493-1.374.835-2.258.78-.187.068-.42 0-.62-.042-1.306-.245-2.31-1.422-2.57-2.695-.108-.19 0-.48-.096-.686l.04-12.893zM128 55.023V80.18c0 3.6-6.776 3.505-6.776 0l-.028-25.158c.014-1.918 1.704-2.88 3.396-2.885h.033c1.692.006 3.375.967 3.375 2.885zM48.994 66.478c.233-2.175 1.766-4.324 3.87-5.075.546-.18 1.035-.33 1.63-.37l12.522.068c2.336.2 4.52 2.15 5.146 4.37.148.55.257 1.21.243 1.73v12.67c-.108 1.163-.964 2.437-2.077 2.74-1.17.433-2.444.244-3.382-.59-.707-.673-1.087-1.52-1.126-2.52l-.026-11.485c-.03-.34-.204-.695-.53-.873-.218-.11-.49-.11-.706 0-.83.616-.422 1.67-.53 2.56v10.26c-.15 1.04-.83 2.124-1.847 2.563-1.34.56-2.81.328-3.85-.684-.65-.65-.892-1.47-.95-2.35V68.07c-.092-.068 0-.22-.065-.313-.147-.344-.394-.616-.772-.67-.3-.015-.557.19-.734.423-.19.19-.164.464-.19.74l.026 10.02c.12 1.214-.08 2.83-1.14 3.746-.64.494-1.374.837-2.26.783-.19.066-.418 0-.623-.04-1.306-.25-2.31-1.426-2.57-2.7-.11-.19 0-.48-.096-.684l.04-12.896zm50.098-.066c.282-2.218 1.778-4.38 4.007-5.12.45-.22 1.02-.22 1.52-.288h9.2c.19.057.39.057.58.097 2.05.31 4.06 2.07 4.7 4.04.473 1.22.3 2.63.3 4-.107 2.04-1.59 3.96-3.408 4.738-.722.276-1.508.52-2.27.48H106.2c-.272.096-.54.083-.76.275-.19.166-.26.397-.3.617.04.382.354.67.68.806l1.44.03 8.896.065c1.25.074 2.51.81 3.012 2.057.473 1.04.282 2.326-.46 3.19-.67.725-1.55 1.164-2.516 1.164l-11.354-.027c-2.133.03-4.167-1.423-5.144-3.34-.46-.873-.652-1.89-.68-2.93l.07-9.84zm-72.515-5.12c1.288-.56 2.743-.328 3.748.672.65.657.882 1.532.923 2.366l-.015 7.05v4.34c.027.476.298.914.747 1.107l.475.056 7.224-.03c.43-.12.82-.52.89-1l.04-1.27V64.29c.04-1.22.853-2.41 1.93-2.94.28-.058.5-.25.81-.236l.054-.053c1.305-.13 2.486.29 3.272 1.37.365.54.557 1.14.57 1.81l.027 13.81c-.01 2.95-3.08 4.69-5.67 4.65l-11.568.016c-2.556-.013-5.393-1.71-5.393-4.667V64.02c.147-1.1.883-2.234 1.93-2.726zM106 68.465h6.168c.446 0 .812-.37.812-.82 0-.455-.366-.824-.812-.824H106c-.447 0-.814.37-.814.83 0 .45.362.818.805.82h.01zM0 55.05c0-3.876 6.585-3.876 6.56-.013l.013 5.914h3.816l5.88.06c.39.1.86 0 1.26.06 2.32.314 4.3 2.106 4.95 4.365.122.466.23.93.26 1.424v13.4c-.1 1.025-.75 1.954-1.645 2.45-1.168.656-2.596.466-3.668-.275-.73-.63-1.223-1.426-1.304-2.37v-11.16c.027-.345 0-.71-.244-.957-.34-.342-.83-.385-1.28-.427H6.65l-.037.04c-.016.97.038 1.93-.056 2.83v9.756c-.11 1.18-1.046 2.343-2.173 2.684-1.156.423-2.448.165-3.37-.575C.354 81.78.107 81.08 0 80.315V55.05zm116.808-1.8c1.14 0 2.06.91 2.06 2.04 0 1.137-.92 2.045-2.066 2.045-1.145 0-2.066-.908-2.066-2.044 0-1.13.92-2.04 2.066-2.04h.006zm-.012.185c-1.026 0-1.855.83-1.855 1.856 0 1.03.83 1.86 1.87 1.86s1.86-.83 1.86-1.86c0-1.02-.83-1.85-1.86-1.85h-.005zm-.756 3.092v-2.51h.604c.428 0 .685.076.848.2.166.12.24.29.24.494 0 .5-.43.65-.662.69l.89 1.13h-.29l-.864-1.1h-.51v1.106h-.256zm.256-1.277h.512c.424 0 .66-.213.66-.52 0-.427-.364-.528-.826-.528h-.346v1.048zM0 55.05zm63.995-4.732c6.246 0 12.15-6 12.15-13.28 0-1.71-.247-1.72-.51-3.542l-11.6 11.388-.1-.128-.13.128L52.23 33.496c-.28 1.82-.548 1.83-.548 3.54 0 7.283 5.924 13.282 12.16 13.282h.155zM53.837 29.952L64.064 40l9.976-9.86.47 1.284L64.065 41.71l-10.69-10.483.46-1.276zm1.797-2.336l8.43-11.405 8.368 11.41-8.37 8.36-8.428-8.36zm14.692-13.108c2.877-2.766 6.377-8.483 13.257-8.483 6.692 0 8.676 5.674 8.967 8.388l.017.41h3.602c0-3.012-2.27-12.15-12.03-12.15s-14.335 8.95-18.32 12.235c.88 1.412 7.65 11.87 15.204 11.87 8.095 0 11.345-5.716 11.415-11.955H70.41l-.09-.315zm-12.68 0c-2.868-2.766-6.36-8.483-13.214-8.483-6.7 0-8.676 5.674-8.984 8.388l-.044.41H31.82c0-3.012 2.267-12.15 12.03-12.15 9.756 0 14.326 8.95 18.304 12.235-.873 1.412-7.63 11.87-15.196 11.87-8.078 0-11.338-5.716-11.408-11.955h22.034l.06-.315zm11.157-8.883c0 2.61-2.173 4.74-4.79 4.74-2.637 0-4.8-2.13-4.8-4.74 0-2.586 2.163-4.725 4.8-4.725 2.616 0 4.79 2.14 4.79 4.725z"/></svg>