<svg viewBox="0 0 128 96" xmlns="http://www.w3.org/2000/svg" fill-rule="evenodd" clip-rule="evenodd" stroke-linejoin="round" stroke-miterlimit="1.414"><path d="M103.563 96h1.507v-2.584h.108c.324.54.97.862 1.616.862 1.613 0 2.475-1.4 2.475-2.908 0-1.506-.76-2.906-2.59-2.906-.65 0-1.29.215-1.62.754v-.646h-1.507V96zm-16.58-4.63c0 1.723 1.186 2.908 2.908 2.908 1.73 0 2.91-1.185 2.91-2.908 0-1.83-1.18-2.906-2.9-2.906s-2.906 1.077-2.906 2.906zm-56.517 2.69h1.4v-7.64H30.36v2.8c-.432-.54-1.078-.754-1.724-.754-1.615 0-2.476 1.292-2.476 2.8 0 1.506.86 3.014 2.584 3.014.646 0 1.292-.323 1.615-.862h.1v.645zm27.13-5.596c1.72 0 2.906 1.077 2.906 2.906 0 1.723-1.185 2.908-2.907 2.908-1.723 0-2.906-1.185-2.906-2.908 0-1.83 1.18-2.906 2.9-2.906zm7.535 2.906c0 1.723 1.08 2.908 2.91 2.908 1.72 0 2.91-1.185 2.91-2.908 0-1.83-1.18-2.906-2.903-2.906-1.83 0-2.907 1.077-2.907 2.906zm51.25-2.798h1.51v.752c.433-.645 1.078-.86 1.723-.86 1.615 0 2.046.86 2.046 2.26v3.337h-1.507v-3.12c0-.86-.326-1.29-.97-1.29-.86 0-1.186.43-1.186 1.51v2.91h-1.616v-5.49zm-44.46 0h1.51v.97c.216-.647.97-1.078 1.723-1.078h.324v1.4h-.54c-1.076 0-1.506.754-1.506 1.723v2.474h-1.51v-5.48zm-51.89 0h1.4v.752h.11c.324-.645 1.078-.86 1.724-.86 1.614 0 2.045.86 2.045 2.26v3.337h-1.62v-3.12c0-.86-.217-1.29-.97-1.29-.86 0-1.184.43-1.184 1.51v2.91H20.03v-5.49zm19.27 0h1.5v5.49H39.3v-5.49zm54.477 0h1.506v.752c.43-.537.97-.86 1.72-.86.756 0 1.294.215 1.617.86.322-.43.97-.86 1.722-.86 1.183 0 2.045.538 2.045 1.938v3.66h-1.51V90.94c0-.753-.107-1.29-.967-1.29-.863 0-1.078.644-1.078 1.398v3.013h-1.51v-3.12c0-.64.107-1.29-.97-1.29-.213 0-.97.11-.97 1.19v3.23h-1.61v-5.49zm-57.28 2.798c-.214.217-.753.217-1.29.323-.43.108-.863.216-.863.862 0 .538.437.646.97.646 1.19 0 1.19-.96 1.19-1.29v-.54zm77.188 0c-.213.217-.75.217-1.29.323-.43.108-.86.216-.86.862 0 .538.43.646.86.646 1.29 0 1.29-.96 1.29-1.29v-.54zm-7.32 1.723c-.97 0-1.29-.86-1.29-1.723 0-.968.323-1.83 1.29-1.83.97 0 1.4.97 1.4 1.83 0 .863-.32 1.723-1.4 1.723zM88.49 91.37c0-.968.323-1.83 1.4-1.83s1.4.862 1.4 1.83c0 .863-.323 1.723-1.4 1.723s-1.4-.86-1.4-1.723zm-58.132-.106c0 .97-.218 1.83-1.294 1.83-.97 0-1.292-.86-1.292-1.83 0-.862.323-1.723 1.292-1.723.97 0 1.292.87 1.292 1.73zm27.234 1.83c1.077 0 1.4-.86 1.4-1.724 0-.968-.323-1.83-1.4-1.83-1.076 0-1.4.862-1.4 1.83 0 .863.324 1.723 1.4 1.723zm9.043-1.724c0-.968.323-1.83 1.4-1.83s1.398.862 1.398 1.83c0 .863-.32 1.723-1.398 1.723-1.077 0-1.4-.86-1.4-1.723zm-3.23-2.798h1.185v.97h-1.18v2.798c0 .43.214.646.644.646.217 0 .324 0 .54-.108v1.183c-.323.11-.646.11-.97.11-.862 0-1.723-.21-1.723-1.29v-3.34h-.96v-.96h.97v-1.62h1.508v1.616zm-44.568 5.49h-1.51v-.753c-.43.64-1.075.96-1.72.96-1.616 0-2.046-.97-2.046-2.37v-3.33h1.62v3.12c0 .862.217 1.293.97 1.293.75 0 1.18-.43 1.18-1.508V88.57h1.51v5.49zM84.51 89c-.216-.753-.863-1.292-1.723-1.292-1.508 0-2.153 1.292-2.153 2.584 0 1.293.645 2.584 2.153 2.584.968 0 1.613-.754 1.722-1.723h1.61c-.11 1.938-1.51 3.123-3.34 3.123-2.37 0-3.77-1.83-3.77-3.984 0-2.26 1.4-3.982 3.77-3.982 1.72 0 3.12.97 3.335 2.69h-1.61zm-73.744 5.814c-.43.86-.862 1.184-1.938 1.184h-.97v-1.29c.325 0 .647.106.862.106.54-.107.754-.646.54-1.077L7.32 88.57h1.616l1.292 3.768 1.292-3.768h1.506l-2.26 6.244zM122.726 96v-1.29c.15 0 .278.022.404.047l.05.01c.128.025.256.05.406.05.54-.108.754-.647.54-1.078l-1.938-5.17h1.615l1.29 3.77 1.293-3.77h1.507l-2.26 6.24c-.323.86-.862 1.18-1.938 1.18h-.97zm-77.51-9.582h2.367l1.83 5.275 1.722-5.275h2.368v7.643h-1.506v-5.38h-.107l-1.83 5.38h-1.293l-1.938-5.38v5.38h-1.62v-7.64zM32.94 90.294c.108-1.507 1.4-1.83 2.692-1.83 1.076 0 2.476.215 2.476 1.508v2.906c0 .43 0 .968.108 1.183H36.71c-.108-.1-.108-.32-.108-.53-.537.54-1.183.757-1.937.757-.97 0-1.83-.54-1.83-1.723 0-1.185.97-1.507 1.83-1.615.97-.215 1.83-.106 1.83-.75s-.43-.756-.97-.756c-.537 0-.968.214-.968.86h-1.615zm77.188 0c.107-1.507 1.4-1.83 2.584-1.83 1.183 0 2.475.215 2.475 1.508v2.906c0 .43.107.968.216 1.183h-1.51c-.105-.1-.105-.32-.105-.53-.538.54-1.185.757-1.938.757-1.077 0-1.937-.54-1.937-1.723 0-1.185.97-1.507 1.937-1.615.968-.215 1.83-.106 1.83-.75s-.43-.756-.968-.756c-.645 0-.968.214-1.077.86h-1.507zM.108 86.418H1.83v3.015h3.122v-3.015h1.723v7.643H4.952v-3.22h-3.12v3.23H.107v-7.65zm39.186 0H40.8v1.292h-1.506v-1.292zM82.14 77.59h13.24c3.553 0 3.876-3.66 3.876-3.66V62.737s-.323-3.66-3.875-3.66H82.14V77.59zm-7.86 0h4.2V63.165c0-3.874-3.552-4.09-3.552-4.09H61.47V77.59h4.2V62.628h7.32c1.076 0 1.29.323 1.29 1.508V77.59zm49.63 0h4.092V59.076h-4.092V77.59zm-3.552-18.514V77.59h-4.2v-5.382H106.9v5.382h-4.09V63.813c0-4.953 4.522-4.737 4.522-4.737h13.026zm-25.3 13.456s0 1.506-1.29 1.506H86.23v-11.41h7.538c1.29 0 1.29 1.508 1.29 1.508v8.396zm-41.446 0c0 1.184-.215 1.506-1.292 1.506h-7.428V59.076h-4.09V77.59H54.26s3.443-.214 3.443-4.09V59.077H53.61v13.456zm62.547-3.768v-6.136h-7.86s-1.4 0-1.4 1.722v4.414h9.26zm-76.98-9.688h-5.16l-4.957 7.858-4.953-7.858h-5.06l8.076 11.95v6.564h4.09v-6.674l7.96-11.84zm-21.858 0V77.59h-4.09v-7.643H4.2v7.643H0V59.076h4.2v7.32h9.042v-7.32h4.09zm94.197-34.343c0 13.134-21.316 23.9-47.476 23.9-26.268 0-47.475-10.766-47.475-23.9C16.58 11.493 37.785.726 64.052.726c26.16 0 47.476 10.766 47.476 24.007zm-45.32 3.23c-4.09.754-8.074 2.153-11.198 3.337-10.118 3.553-14.855 7.32-15.824 8.182-1.29 1.077-.326 1.615.86 1.937 6.89 2.04 17.33 3.55 24.01 3.33 4.84-.217 7.533-5.49 8.72-7.75 4.95-10.66-4.09-9.476-6.57-9.046zm41.34-3.23c0-4.52-3.123-8.612-8.615-11.95-.75-.537-1.396-.214-1.72.216-.214.32-8.18 18.94-17.547 29.06-1.08 1.18.11 1.4 1.613 1.08 15.5-3.128 26.266-10.23 26.266-18.41zM30.78 36.468c.217-.43 8.184-19.055 17.55-29.175 1.184-1.075-.11-1.29-1.615-.968-15.503 3.014-26.268 10.12-26.268 18.3 0 4.522 3.23 8.72 8.61 12.058.754.43 1.508.108 1.723-.215zm31.01-15.072c4.092-.753 8.076-2.153 11.198-3.337 10.12-3.56 14.856-7.22 15.824-8.08 1.292-1.19.323-1.618-.86-2.05-6.89-2.045-17.332-3.55-24.006-3.23-4.846.11-7.538 5.384-8.613 7.644-5.06 10.66 3.982 9.582 6.457 9.043z"/></svg>