<svg viewBox="0 0 128 43" xmlns="http://www.w3.org/2000/svg" fill-rule="evenodd" clip-rule="evenodd" stroke-linejoin="round" stroke-miterlimit="1.414"><path d="M0 .52h120.998v42.356H0V.52zm1.633 21.177c0-10.793 26.355-19.542 58.866-19.542 32.51 0 58.86 8.75 58.86 19.542 0 10.796-26.36 19.543-58.87 19.543S1.63 32.5 1.63 21.7zm85.408-8.002h15.17s-.105.778.07 1.17l6.58 14.655.445.474H97.29s.473-.2.13-.99l-1.09-2.512h-4.632L90.636 29c-.277.654.147.994.147.994h-9.758l.59-.842 5.39-14.215c.178-.463.036-1.242.036-1.242zm-58.74 0s-.44.68-.44 1.31V28.66c0 .598.45 1.335.45 1.335h-11.5s.445-.703.445-1.333V15.007c0-.6-.443-1.31-.443-1.31H28.3zm65.36 6.69l1.2 2.978h-2.19l.994-2.98zm-32.86 9.61s.45-.678.45-1.334V14.94c0-.667-.442-1.242-.442-1.242h18.74v4.938s-.64-.442-1.14-.442h-7.01v1.33h5.697c.77 0 1.09-.443 1.09-.443v4.58s-.39-.44-1.09-.44h-5.7v1.19h6.958c.507 0 1.19-.442 1.19-.442V30H60.8zM42.94 23.21v5.45c0 .63.444 1.334.444 1.334h-11.01s.442-.737.442-1.333V14.94c0-.632-.443-1.242-.443-1.242h11.01s-.442.61-.442 1.242v3.85l3.29-3.922c.45-.53.11-1.17.11-1.17h10.99l-4.83 5.988 6.15 9.837.447.475h-13.02s.67-.574.398-1.015l-3.53-5.77zm79.474-20.463c0-1.58 1.285-2.747 2.8-2.747C126.718 0 128 1.166 128 2.747c0 1.598-1.282 2.765-2.786 2.765-1.515 0-2.8-1.167-2.8-2.765zm2.8 2.305c1.247 0 2.232-.977 2.232-2.305 0-1.304-.985-2.29-2.232-2.29-1.26 0-2.245.986-2.245 2.29 0 1.328.98 2.305 2.24 2.305zm-.584-.707h-.48v-3.18h1.21c.752 0 1.123.278 1.123.905 0 .57-.357.817-.823.874l.904 1.4h-.54l-.838-1.378h-.556v1.38zm.577-1.785c.41 0 .774-.03.774-.52 0-.393-.35-.465-.69-.465h-.66v.985h.58z"/></svg>