<svg viewBox="0 0 128 98" xmlns="http://www.w3.org/2000/svg" fill-rule="evenodd" clip-rule="evenodd" stroke-linejoin="round" stroke-miterlimit="1.414"><path d="M74.528 83.143c.024 2.888.416 9.256-1.168 11.608-.584.88-1.968 1.71-2.816.5-1.968-2.81 1.496-10.86 3.984-12.1zM13.505 73.047c.2 2.264-1.328 4.544-2.376 5.48-1.44 1.28-3.53 2.096-6.11 1.488-2.72-.64-3.42-3.216-2.51-4.608.53-.824 1.32-1.232 1.73-2.248C5.8 69.39.063 69.86 0 75.32c-.063 5.56 4.113 6.992 8.897 6.704 8.656-.528 8.2-8.47 8.2-15.35 0-2.61-.008-5.226 0-7.834.016-4.88.144-3.592-3.448-4.048-1.52-.194-2.2.11-2.97.894-4.56 4.67-5.71 17.703 2.82 17.35zm43.91-7.224c2.28-.544 2.673 2.544 2.56 3.456-.15 1.18-.487-.51-.8 2.92-.15 1.74-.4 4.64-1.223 6.18-.648 1.21-2.912 3.2-3.552-1.03-.472-3.113-.192-10.777 3.016-11.537zm39.17.016c2.063-.58 2.663 2 2.6 3.32-.05.85-.025.35-.4.89-.817 1.19-.05 8.08-2.8 9.56-2.92 1.572-2.65-4.99-2.497-6.9.184-2.21.696-6.2 3.096-6.88zm-24.4-.32c1.55-.53 2.247.93 2.44 2.29.263 1.79-.497 2.57-.57 4.24-.295 6.52-4.2 10.092-4.935 4.96-.456-3.17-.104-10.41 3.064-11.5zm-39.77 11.59c.49-1.39.76-2.07.817-3.79.912 1.04 4.432 3.16 4.848 4.42.545 1.69-1.72 1.71-2.79 1.13-.505-.27-.96-.66-1.353-.99-.752-.607-.824-.4-1.52-.775zm14.737-20.96c-.744-.59-2.224-.95-3.416-.93-.384 1.75-.272 3.79-.392 5.68-.088 1.46-.456 1.04-1.904 1.05-.967.015-1.95-.025-2.567.487-.08 1.712 3.08 1.504 4.224 1.984.088 4.64-.992 10.05.584 14.29.6 1.59 2.26 3.808 4.62 2.784 1.82-.784 2.46-3.136 3.11-4.496 1.24 4.13 1.24 4.056 4.53 4.704 2.43.472 3.66-2.736 4.37-4.704.36.865.26 1.265.85 2.09.35.503.89 1.087 1.737 1.295 1.99.49 2.888-1.014 3.688-1.926l.16-.154c.665 2.953 2.345 2.977 4.073 3.36 2.454.545 2.92-2.175 3.862-3.36-.273 5.033.167 2.593-1.785 4.713-.496.553-1.01.945-1.472 1.553-2.327 3-5.623 10.583-1.367 12.543 1.102.51 4.12.984 5.334.48 1.255-.52 1.847-2.13 2.15-3.744.696-3.745.064-7.85.344-11.625.913-.2 1.505.33 2.057-.585-.093-1.026-1.12-1.026-2.07-1.08-.05-1.786-.063-3.594 0-5.378.13-3.935.68-3.375.76-4.4-.343-.31-.29-.207-.81-.383-.613-.2-.44-.05-.685-.48-.467-1.09.773-3.185-.45-4.84-1.04-1.39-2.36-1.105-4.017-1.89-3.528-1.68-5.08 1.976-5.72 4.944-1.064 4.887.088 8.047-1.672 10.007-1.583 1.778-2.207-1.28-2.27-2.68-.23-4.966 1.664-4.92-.656-5.806-.353-2.365.375-4.06-1.273-5.59-.486-.454-1.64-.646-2.39-1.04-.83-.43-1.823-.686-2.943-.462-3.537.705-4.017 6.593-4.337 9.297-.142 1.23-.246-.32-.886 2.52-1.046 4.663-3.27 6.24-3.96 2.967-.342-1.64-.27-11.68.186-13.046.327-.426 3.83-.634 4.59-.62.824.018.992.29 1.216.066 1.408-1.88-4.863-1.55-5.807-1.863l.415-5.738zm32.48 8.29c-.065 2.06.23 4.2.167 6.36-.04 1.05-.07 2.12-.21 3.15-.11.77-.51 2.01-.34 2.69 1.493.53 1.76-2.2 1.97-3.417.23-1.36.37-3.655.71-4.775.24-.056.52-.136.84-.11 1.52.095.36 2.53.53 5.89.13 2.615 1.11 8.39 4.83 7.01 1.432-.54 1.952-1.995 2.616-3.435.503.92.79 3.32 2.91 3.64 2.24.334 3.48.934 5.21-2.794.137-.288.185-.48.305-.784.057-.16.113-.28.193-.41.16-.247.064-.12.24-.295.264 1.63 1.312 3.23 3.08 3.31 1.832.09 2.8-1.64 3.52-2.775.16 1.05-.032 2.744.808 3.184.777.4 2.56.61 3.36.21.4-.51.28-1.91.36-2.64.09-.87.21-1.71.353-2.56.144-.817.536-3.97 1.368-4.43.4 2.973-.663 7.72 1.313 8.58.44.2.92.25 1.424.24 1.69-.03 1.145-.65 1.753-3.063.425-1.658 1.56-5.69 2.505-6.714.04 2.417-.436 4.13.06 6.69.857 4.415 4.737 5.76 7.105 1.455.416-.76 1.944-4.458 1.168-5.338-1.24-1.28-1.143 2.967-2.367 4.687-.494.71-1.686 1.495-2.286.367-.393-.73-.505-2.09-.53-3.05-.216-7.416 2.336-6.97-.192-8.592-1-.64-1.6-.768-2.97-.568-.64.35-3.2 8.495-3.64 9.24-.135.223-.08.127-.2.263-.05-1.84-.015-3.72-.015-5.56 0-.95.23-1.79-.473-2.26-.567-.376-1.47-.496-2.255-.344-1.147.216-1.68 2.112-2.067 3.296-.246.742-1.102 3.502-1.174 4.054l-.01-9.55c-.43-.665-2.328-.905-3.15-.625-.17.44-.186 5.72-.21 6.664-.04 1.44.112 2.23-.288 3.135-.315.686-.467 1.726-.787 2.52-.943 2.342-2.535 2.262-2.895-.578-.12-.984-.137-2.216-.057-3.224.08-.92.578-2.155.458-2.82-.457-.53-.53-.36-1.137-.775-.273-1.432.11-3.04-.433-4.368-.67-1.64-1.32-1.32-2.83-1.985-1.23-.534-2.263-1.19-3.92-.51-1.21.498-1.735 1.33-2.31 2.498-.537 1.08-.89 2.4-1.113 3.703-.2 1.156-.248 3.38-.528 4.276-.57 1.816-1.12 6.64-3.24 6.384-1.218-1.145-1.04-4.217-.874-6.065.096-1.087.24-2.103.472-3.127.207-.89.76-2.04.71-2.905-1.09-1.592-3.616-.64-5.08-1.392-.08-.91.08-1.51-.136-2.38-1.073-.41-1.873.087-2.633.71zm-56.288 15.7c.528-1.49 1.112-7.29 2.592-8.518.192 3.137-1.024 8.273 3.008 8.113 1.328-.056 1.944-.744 2.608-1.248.656.88.848 1.167 2.112 1.583 2.776.926 8.496.526 7.888-2.52-.536-2.674-8.28-4.96-5.608-8.554.416-.55 1.816-1.168 2.672-.608.112.08 1.256 1.56 2.328-.017.456-.68.992-2.2.32-2.9-1.288-1.37-6.44-.04-8.36 1.862-1.816 1.8-1.264 3.657-.024 5.537-1.43.39-.447.27-1.367 2.822-.4 1.134-.904 2.206-2.224 1.99-1.12-1.76-.31-5.264-.45-7.728-.08-1.448-.64-3.184-2.33-2.712-1.38.393-2.87 4.68-3.56 6.4-.13-1.76.12-7.223-.04-8.07-.17-.945-2.48-1.385-2.81-.88-.2.295-.56 10.735-.6 11.59-.04.985 0 2.905.5 3.577.575.77 2.39.52 3.335.273zm-9.8-9.77c-2.84.572-3.504-1.71-3.808-4.25-.808-6.79 2.688-9.43 3.84-7.57.4.647-.024 2.583-.024 3.583.008 2.737.048 5.505-.008 8.233zM44.35.18h38.26c3.634 0 6.606 2.97 6.606 6.608V45.05c0 3.635-2.972 6.606-6.606 6.606H44.35c-3.633 0-6.607-2.977-6.607-6.61V6.79c0-3.636 2.974-6.61 6.608-6.61zM83.4 21.95h-4.53c.426 1.4.658 2.882.658 4.418 0 8.562-7.164 15.502-16 15.502-8.838 0-16-6.94-16-15.502 0-1.536.233-3.018.66-4.418h-4.725v21.744c0 1.128.92 2.048 2.046 2.048h35.84c1.12 0 2.04-.92 2.04-2.048V21.952zm-19.872-6.158c-5.708 0-10.338 4.484-10.338 10.016 0 5.534 4.63 10.018 10.338 10.018 5.71 0 10.338-4.484 10.338-10.018 0-5.532-4.628-10.016-10.338-10.016zm11.712-9.89c-1.276 0-2.318 1.042-2.318 2.318v5.546c0 1.274 1.042 2.318 2.318 2.318h5.818c1.276 0 2.316-1.044 2.316-2.318V8.222c0-1.276-1.04-2.318-2.316-2.318H75.24z"/></svg>