<svg viewBox="0 0 129 119" xmlns="http://www.w3.org/2000/svg" fill-rule="evenodd" clip-rule="evenodd" stroke-linejoin="round" stroke-miterlimit="1.414">
    <path d="M109.223 18.371c-4.076-3.64-12.815-5.315-15.073-5.679-20.824-2.913-36.262 1.384-58.762 12.815C20.316 33.298 11.724 46.55 8.52 54.05c-.874 1.821-2.038 5.316-2.475 6.772-.801 4.441-3.641 17.113 9.611 32.839C31.748 112.376 59.49 111.21 62.33 111.21c40.412-1.893 54.246-26.941 56.942-31.673 6.697-13.4 5.897-25.268-3.714-37.5-9.975-12.67-27.742-13.034-27.742-13.034V17.352c30.218 3.277 38.154 27.961 38.154 27.961s7.356 16.893-1.819 36.918c-10.632 23.664-35.315 30.8-41.213 32.839-19.951 6.48-42.233 3.421-55.267-3.278C14.638 105.093 2.405 91.403.948 71.817-.654 52.448 8.302 37.959 16.239 30.022c8.156-8.009 27.16-23.082 52.427-27.524C94.151-2.235 111.262 4.1 111.262 4.1l-2.039 14.271zM44.418 78.953h.146v.437c0 .363-.146 19.151-.146 19.151s0 1.238-.874 1.456c-.801.145-2.839.365-3.64-.218v-.218c-.218 0-.218-.218-.437-.218-.146-.218-.365-.583-.365-.801l-.436-20.607h3.277l2.475 1.018zm9.178-1.018h-.003l.146.218c.218.218.437 0 .655-.218h.218v-.583c0-.437.146-.874.365-1.238.437-1.02 1.019-2.039 2.257-2.476 0 0 3.495-1.02 4.733 1.676 0 0 .146.145.146.582.218.582.655 1.456.874 2.621.364 2.694 1.019 7.791.582 15.947 0 0 0 1.602-1.019 2.257h-.218a.873.873 0 0 1-.583.218c-.437 0-1.019-.218-1.82-.655h-.218c0-.218-.218-.218-.218-.218-.218-.147-.582-.583-.582-1.239 0 0-1.457-12.596-1.675-13.834 0-.8-.365-1.239-.802-1.455-.218-.147-.582-.147-1.019.437 0 0-.656 1.018-1.457 2.62-.582 1.456-1.382 3.495-1.382 5.534.145 4.078.364 6.554.364 6.554v.363c0 .218-.219.655-.364.874-.656.365-2.476 1.02-3.714.365 0-.218 0-.218-.218-.218 0 0-.146 0-.146-.147-.218-.218-.437-.437-.437-1.092l-.801-22.209h6.336v5.316zM75 68.323c0 .437 0 .655-.437 1.019 0 0-.364.437-.801 1.02-.436.437-.802 1.018-1.237 1.892-1.02 1.165-2.039 2.403-2.622 3.059-.218 0-.218.145-.218.145 0 .219-.218.437-.218.874 0 .364.218.801.655 1.019 1.02.365 3.859 2.402 5.243 5.098v.364c.218.218.218.655.437 1.237 0 .802 0 2.257-.802 3.496-.655 1.165-1.819 2.839-2.84 4.223a62.378 62.378 0 0 1-1.674 2.257c-.218.218-2.039 1.674-3.423.655l-.437-.437c-.218 0-.583-.437-.802-.583-.436-.655-.8-1.455-.218-2.257l4.515-6.552s.147-.218.365-.583c.218-.437.218-1.019-.365-1.675-1.018-.8-5.534-5.461-5.534-5.898 0-.218-.218-.218-.218-.364-.218-.218-.218-.437-.364-.874-.218-.801-.437-1.602.145-2.622 1.02-1.237 2.04-2.839 3.059-4.295 1.239-1.383 2.694-2.841 4.077-3.278 0 0 .218-.145.655-.145.364-.218 1.019-.218 1.239 0 .801.146 1.383 1.603 1.82 2.84v.365zm7.938-1.384v.218c.218.145.218.145.218.364 0 .436-.437 19.369-.437 19.369s0 1.237-.583 1.455c-.801.219-3.059.219-3.714-.436-.145 0-.145-.219-.363-.219 0-.145-.218-.582-.218-.8l-.583-20.972h3.204l2.476 1.021zm10.411-15.291v-.437c.218-.218.583-.582 1.239-.801 1.384-.218 2.84-.437 4.66.801h.218c0 .002.001.218.218.218.218.218.218.582 0 1.238 0 1.165-.8 33.421-.8 33.421v.218c-.218.218-.437.218-.876.365-.582.218-2.402-.147-2.839-.365l-.218-.218c-.146-.218-.364-.437-.364-.582v-4.951c-.218-.145-.655-.145-1.02.437 0 0-.437.802-1.018 1.602-.655 1.019-1.237 2.04-1.676 2.477 0 0-1.601 1.455-3.203.582l-.437-.145c-.218 0-.437-.437-.802-.874-.655-.802-1.455-2.184-1.674-4.66-.583-4.88.218-12.016 3.058-14.71 0 0 .218-.145.437-.363s.583-.655 1.239-1.019c.8-.802 2.257-1.676 4.076-1.894 0 0 .218 0 .218-.145l-.437-10.049.001-.146zm.218 15.51c-.218-.218-.437-.218-.8.363-.218 0-2.912 2.695-3.058 9.612v1.239c0 .582 0 1.381.146 1.602.218 0 .874 0 1.894-1.02.145-.437.582-.582.8-.801.218-.436.363-.655.582-1.02.437-.655.655-1.455.655-2.476v-7.135c0-.001 0-.219-.219-.364zm13.472 1.383c-.437.218-.655.437-.655.801v1.894c0 .8 0 1.6.218 2.039v.145l.437.437c.365.218.802.437 1.602 0l.218-.218c.218-.218.583-.363.801-.582.583-.439 1.239-1.239 1.602-2.04 0-.218 1.239-1.82 3.278-.436l.218.218c.218 0 .218.218.437.437.145.363.363 1.018 0 2.183-.218.437-.437.655-.655.874-.218.364-.218.582-.365.8-.437.802-1.018 1.384-1.674 2.04-1.239 1.02-3.059 1.82-5.899 1.383-.218 0-.437 0-1.018-.145-.437-.218-1.239-.655-1.821-1.457-1.457-1.456-2.841-3.858-2.694-8.592 0 0 .874-8.956 4.515-11.578 0-.218.218-.218.437-.655.363-.218.8-.364 1.383-.801 1.237-.437 2.84-.583 4.733.218 3.64 1.602 2.184 6.117 1.601 7.718-.582 1.676-2.476 4.951-5.315 5.317h-1.384zm-64.295 7.937h-.8c-.583-.364-2.841-2.184-2.841-2.184h-.218s0-.218-.218-.218c0-.218-.218-.655.218-1.019.582-.801 1.821-2.694 2.039-2.841.218-.218.437-.437.802 0 .655.147 3.494 2.04 3.494 2.04s0 .146.218.363v.657c-.437.582-2.475 3.057-2.475 3.057l-.219.145zM25.414 53.25v.219c.218 0 .218.218.218.218 0 .364-.437 18.568-.437 18.568s0 .147-.146.582c0 .22-.218.583-.437.583-.801.218-3.058.437-3.713-.145l-.146-.218h-.218c0-.22-.218-.439-.218-.802l-.583-19.806 3.204-.218 2.476 1.019zm8.956-4.879v.218c.218 0 .218 0 .656-.218v-.655c.218-.364.363-.801.582-1.164.437-1.019 1.019-2.039 2.476-2.476 0 0 .218 0 .364-.218h1.456c1.02 0 1.821.437 2.477 1.456.145 0 .364.801.8 1.383.582 1.893 1.602 6.554 1.238 17.768 0 0 0 .436-.218 1.018-.215.645-.43 1.008-.992 1.436l-.027.021h-.218s-.219.218-.583.218c-.437 0-1.238 0-2.039-.655 0 0-.874-.365-1.019-1.383 0 0-1.237-12.451-1.674-13.689-.219-1.238-1.02-1.821-1.384-1.02 0 0-.874 1.02-1.456 2.622-.8 1.456-1.601 3.494-1.456 5.534.219 4.077.219 6.334.219 6.334s.218.219 0 .364c0 .218 0 .655-.364.874-.656.365-2.476 1.02-3.933.365 0 0 0-.218-.146-.218 0 0-.218 0-.218-.147-.218-.218-.655-.655-.437-1.019l-.582-22.063 6.335-.218.143 5.532zm76.529 12.598c.218-.583.218-1.383-.437-1.821 0 0-1.239-.364-2.621 2.476-1.457 3.058-.802 4.66-.802 4.66h.147s2.474-.802 3.494-3.859c0 0 .219-.583.219-1.456zm-31.457-2.84h.437c.218-.218.437-.218.801.218.218 0 .436.218.655.437.145.145.582.364.801.582.583.437 1.238.8 1.601 1.456v.147s.218 0 .218.218c0 0 0 .218-.218.437-.218 0-.8.801-1.382 1.601-.438.656-1.02 1.239-1.02 1.239 0 .218-.655.437-1.018 0-.437-.364-2.912-2.258-3.059-2.476-.218 0-.218-.146-.218-.364 0 0 0-.218.218-.437.147 0 .802-.802 1.165-1.602.655-.656 1.019-1.238 1.019-1.456zm-32.62-30v-.364c.218-.219.436-.437 1.019-.219l4.295-.218s1.238 0 1.238 1.457v3.64c.219.218.365.218.802 0 .582-.146 3.276-1.165 3.276-1.165h.219c.218 0 .218-.218.364-.218.218 0 .655 0 1.019.364.655.655.437 1.893.437 1.893s0 .582-.582 1.019c-.437.146-5.534 2.185-5.534 2.185-.218 0-.218 0-.218.218l-.438 25.922v.436c0 .145 0 .365-.364.365 0 0-.219.218-.437.218-.218.218-.582.437-1.019.582-.8.218-1.82.218-2.621-.582 0 0-.801-.583-.801-1.457L47.04 39.56c0-.146-.218-.146-.218-.146l-5.315 2.185c-.365-.364-3.423-2.185-3.423-3.86v-.363s0-.218.218-.218c.145 0 2.403-.655 4.442-1.238a77.851 77.851 0 0 1 4.078-1.456s.218 0 .218-.146l-.218-6.189zm22.062 21.262c.218.218.363.365.363.583.437.437.437 1.019 0 2.039-.145.436-.363.655-.363 1.019-.218.218-.437.437-.655.801-.365.655-.802 1.238-1.603 1.893-1.238 1.019-3.059 1.821-5.898 1.602 0 0-.436-.218-1.019-.437-.437-.146-1.238-.582-1.82-1.384-1.456-1.237-2.912-3.858-2.475-8.373 0 0 .582-9.174 4.295-11.796 0 0 .218-.219.583-.437.218-.219.8-.582 1.238-.801 1.237-.655 2.839-.801 4.66 0 3.712 1.821 2.257 6.335 1.674 7.937-.655 1.602-2.476 4.66-5.315 5.097l-1.019.219c-.218-.22-.218-.22-.437-.001-.146 0-.365.218-.365.582 0 .655-.218 1.239-.218 2.04 0 .655 0 1.456.218 1.82 0 0 0 .219.219.219 0 .218.145.436.145.436a2.498 2.498 0 0 0 1.675.219c.567-.124.219-.219.364-.437.218 0 .436-.218.655-.437.582-.582 1.238-1.165 1.602-2.185 0 0 1.238-1.893 3.278-.218h.218zm.583-29.199c0-.801 0-1.238 1.02-1.384.8-.437 3.712-.437 5.752.146 0 0 .582.437.582 1.675 0 1.383-.218 33.64-.218 33.64s-.364 1.456-1.019 1.602c-.365.437-2.257.655-2.839.218 0 0-1.02-.218-1.02-1.602-.001-1.236-2.257-34.273-2.258-34.295zM22.574 49.974c0 .218 0 .218-.218.218s-.437 0-.582-.218c-.437-.365-2.695-2.841-3.059-3.278v-.145c0-.218 0-.437.146-.437.218-.219 2.694-2.476 2.694-2.476h.218s0-.145.145-.145c.219 0 .437 0 .874.145.145.437.582.874 1.165 1.238.437.437 1.092 1.019 1.456 1.675 0 .145 0 .145.218.364 0 0 0 .218-.218.437-.218 0-.801.801-1.456 1.384-.8.655-1.383 1.238-1.383 1.238zM65.17 39.779c0-.582 0-1.602-.364-2.039-.219 0-1.456-.364-2.694 2.476-1.384 3.059-.801 4.66-.801 4.66s0 .218.219 0c0 0 2.257-.801 3.276-3.859.001 0 .219-.583.364-1.238zM89.491 24.27c0 2.257 1.821 4.077 3.858 4.077h.007c2.233 0 4.071-1.838 4.071-4.071v-.006c0-2.039-1.82-3.859-4.078-3.859-2.037 0-3.858 1.82-3.858 3.859zm3.858-2.039c.802 0 1.603.219 1.603 1.238 0 .801-.583 1.019-1.166 1.238l1.384 1.601h-.801l-1.02-1.601h-.8v1.601h-.437v-4.077h1.237zm.001 2.039c.583 0 1.02-.218 1.02-.801 0-.583-.437-.801-1.239-.801h-.582v1.602h.801z"/>
</svg>
