<svg viewBox="0 0 128 85" xmlns="http://www.w3.org/2000/svg" fill-rule="evenodd" clip-rule="evenodd" stroke-linejoin="round" stroke-miterlimit="1.414"><path d="M60.802 75.836c-25.294 2.333-51.657-1.342-55.35-21.11-1.805-9.743 2.64-20.076 8.528-26.5V24.8C3.372 34.1-2.377 45.873.935 59.778c4.23 17.837 26.85 27.938 61.386 24.584 13.67-1.325 31.55-5.72 43.988-12.552v-9.698c-11.288 6.726-29.954 12.28-45.503 13.724zm-35.507-44.75H18.65V50.38c0 3.474 1.678 6.48 6.647 6.953v-26.25zm17.855 5.31c1.928 0 2.73.952 2.73 2.498v18.173h6.575v-18.21c0-3.69-1.967-7.765-7.74-7.765l-13.583-.007v25.982h6.577V36.395h5.44zM65.01 57.03c-5.366 0-7.638-3.733-7.638-7.408V24h6.574v7.085h4.95v5.31h-4.95v12.822c0 1.498.71 2.333 2.274 2.333h2.677v5.48H65.01zm39.25-36.73h-6.632v29.536c0 3.462 1.674 6.472 6.632 6.953V20.3zM77.108 46.113c0 3.364 2.104 5.836 5.826 5.836 2.917 0 4.354-.81 6.038-2.475l4.063 3.87c-2.604 2.573-5.334 4.137-10.15 4.137-6.29 0-12.318-3.434-12.318-13.444 0-8.56 5.267-13.396 12.173-13.396 7.02 0 11.055 5.663 11.055 13.096v2.374H77.108zm5.344-10.03c-2.25 0-3.98 1.158-4.712 2.72-.427.94-.583 1.673-.632 2.827H87.24c-.13-2.825-1.41-5.547-4.788-5.547zm-63.8-8.598h6.622V21.2H18.65v6.285zm92.743-1.907c-1.462 0-2.628-1.18-2.628-2.64 0-1.453 1.166-2.64 2.628-2.64 1.455 0 2.65 1.187 2.65 2.64 0 1.46-1.195 2.64-2.65 2.64zm0-4.838c-1.205 0-2.173.996-2.173 2.2 0 1.21.968 2.188 2.173 2.188s2.205-.98 2.205-2.19c0-1.202-1-2.197-2.205-2.197zm-1.045 3.78c-.066 0-.11-.065-.11-.12v-2.85c0-.168.054-.236.2-.257.16-.018.577-.038.81-.038.822 0 1.305.242 1.305 1.005v.055c0 .472-.233.728-.594.843l.698 1.182c.01.018.018.06.018.084 0 .045-.024.097-.108.097h-.493c-.045 0-.083-.025-.1-.063l-.667-1.134c-.02-.023-.076-.05-.094-.05h-.304v1.13c0 .055-.04.12-.113.12h-.444zm.955-1.76c.424 0 .62-.143.62-.445v-.055c0-.32-.196-.42-.62-.42h-.42v.905c.062 0 .328.012.407.014h.013zm16.128 1.806c-6-29.29-62.873-31.148-99.534-8.832V18.2C64.514-.628 116.46-.514 121.19 26.47c1.587 8.926-3.44 18.225-12.423 23.58v7c10.805-3.963 21.888-16.782 18.666-32.484z"/></svg>