<svg viewBox="0 0 128 18" xmlns="http://www.w3.org/2000/svg" fill-rule="evenodd" clip-rule="evenodd" stroke-linejoin="round" stroke-miterlimit="1.414"><path d="M94.304 5.678v7.4h4.928l-4.928-7.4zm9.734 6.88l-3.04 4.88-10.92.004V.982l6.22-.02 7.72 11.572.02.024zm-10.44-9.2v10.42h6.94c-2.32-3.472-4.64-6.94-6.94-10.42zm9.6 9.216l-2.58 4.164-9.84.008V1.706l5.146.01 7.26 10.88.014-.022zm-23.64-.924V7.58l-1.62 2.194 1.62 1.876zm-4.314 1.784l-2.92 3.95-2.82-3.51 2.84-3.832-1.952-2.28 2.804-3.5 1.826 2.126 4-5.42h4.94v16.46H78.68l-3.42-4.014-.016.02zm5.006.1v-8.08l-3.214 4.354 3.214 3.724v.002zm-5.04-1.224l-2.912 3.926-1.91-2.38 2.848-3.844-1.936-2.26 1.908-2.38 1.85 2.16 4.316-5.84h3.884v15.054H79l-3.784-4.42-.006-.016zm-56.15 5.114l-2.984-4.254 8.48-11.412.644-.892 8.974 12.34-2.886 4.24H19.06v-.022zm2.388-4.512h7.23l-3.54-4.914-3.7 4.914h.01zm-2.024 3.812l-2.484-3.54L25.2 2.056l8.12 11.15-2.4 3.52h-11.5l.004-.002zm.63-3.112h9.99L25.14 6.796l-5.086 6.816zM84.694.972h4.552v16.432h-4.554V.97l.002.002zm.7.7h3.152v15.032h-3.154V1.67l.002.002zM42.222.992h4.44v16.446h-4.44v-5.08l-3.1-3.38v8.468h-4.44V4.426l-3.23-3.4h3.228v-.022h3.24l4.3 4.76v-4.76l.002-.012zm.7.7h3.04v15.036h-3.04v-4.64l-4.5-4.904v9.56h-3.04V4.132l-2.3-2.48 4.54.04 5.308 5.88v-5.88h-.008zm16.82 6.29v9.46h-4.26V4.022l-2.68-3.04h6.688l2.776 3.12 2.476-3.28 4.352 4.746v11.848H64.48l.04-9.306-2.36 2.814-2.428-2.96.01.018zm-.7-1.96v10.72h-2.86V3.762l-1.828-2.08h4.82l3.134 3.54 2.48-3.3 3.62 3.92v10.864h-3.22l.04-10.52-3.054 3.64-3.134-3.82.002.016zM10.14 13.904v3.54H5.7V.984h4.43v1.93l2.174-2.36 6.234 8.1-3.38 4.48 3.2 4.3h-5.534l-2.7-3.53h.016zm-.7-2.04v4.88H6.4V1.684h3.03V4.71l2.826-3.08 5.404 7.02-3.366 4.464 2.674 3.596H13.2l-3.76-4.86h-.01l.01.014zm2.552-5.22l-2.548 2.8h4.78l-2.24-2.8h.008zm-.028 1.068l-.932 1.02h1.746l-.82-1.02h.006zM4.58.984V17.44H0V.984h4.58zm-3.88.7h3.18V16.74H.7V1.684zm112.48-.326V5.25h-4.792v1.694h4.776v3.984h-4.74v2.12h4.74v4.37h-6.134l-2.712-3.6-.038-12.814h8.574l-.04-.04h6.48l4.28 4.756V.968H128v16.468h-4.43v-5.1l-3.12-3.38v8.468h-4.43V4.404l-2.84-3.04v-.006zm11.09.304h3.032v15.06h-3.02v-4.66l-4.508-4.9v9.56h-3.04v-12.6l-2.3-2.48 4.56.02 5.288 5.88v-5.88h-.012zm-11.786.04H105l.016 11.88 2.36 3.12h5.086v-2.96h-4.72l.02-3.52h4.72v-2.58h-4.8V4.55h4.816V1.704l-.014-.002z"/></svg>