<svg viewBox="0 0 129 58" xmlns="http://www.w3.org/2000/svg" fill-rule="evenodd" clip-rule="evenodd" stroke-linejoin="round" stroke-miterlimit="1.414"><path d="M33.683 55.473h-11.22l-1.86 2.167H18.41l8.822-10.17h3.73l8.833 10.17H35.55l-1.867-2.167zm66.234 0h-11.22l-1.86 2.167h-2.194l8.823-10.17h3.732l8.832 10.17h-4.247l-1.866-2.167zM16.68 47.47v4.958c0 1.604-.368 2.577-1.13 3.358-1.33 1.362-3.884 1.854-7.495 1.854H.44v-1.366h7.01c2.15 0 3.605-.357 4.48-1.222.665-.656.963-1.57.963-2.927V47.47h3.787zm105.8 6.576c1.422-.045 2.63-.263 3.56-.762.964-.52 1.422-1.5 1.422-2.516 0-1.36-.607-2.23-1.712-2.717-.984-.43-2.2-.58-4.62-.58h-11.74v10.17h3.788v-3.52h4.974l5.675 3.53h4.613l-5.96-3.593zM82.974 47.47v5.066c0 1.312-.144 2.35-.806 3.216-1.076 1.412-3.05 2.223-8.55 2.223h-.058c-5.473 0-7.457-.81-8.532-2.222-.66-.868-.803-1.904-.803-3.216V47.47h3.786v4.923c0 1.32.17 2.096.66 2.78.82 1.153 2.234 1.57 4.778 1.57h.32c2.66 0 3.958-.418 4.777-1.572.485-.68.65-1.49.65-2.77v-4.93h3.788zm-26.696 8.81v-3.312h3.768v4.67h-10.96c-2.052 0-3.672-.24-4.894-.732-2.035-.82-2.968-2.322-2.968-4.37 0-1.94 1.015-3.282 2.306-4.005 1.372-.76 2.918-1.06 5.49-1.06h10.64v1.36H50.2c-2.027 0-3.13.31-3.972.99-.75.61-1.147 1.52-1.147 2.74 0 1.26.42 2.19 1.22 2.8.85.64 1.98.928 3.93.928h6.05zm-32.686-2.122h8.958l-4.486-5.207-4.472 5.21zm66.234 0h8.96L94.3 48.95l-4.474 5.208zm30.812-5.407c1.42 0 2.05.14 2.48.46.41.31.558.78.558 1.51v.19c0 .66-.157 1.196-.642 1.53-.475.33-1.14.4-2.35.4h-7.506v-4.09h7.46zm3.012-16.96c-.606-1.35-2.275-.91-2.275-.91-.788.17-1.688 1.07-3.026 1.47-2.88.85-5.17-.138-5.17-.138-4.42-1.916-18.64-10.053-25.86-13.606 0 0-8.4-3.89-20.59-8.714 0 0-23.94-10.22-39.93-9.38 0 0-8.52.223-11.2 3.982 0 0-.458.514-.2 1.075 0 0 .05.16-.055.266 0 0-1.43 1.286-2.163 2.428-.257.42-.502 1.084-.015 1.605 0 0 .237.183.337.343.208.34.4.85.66 1.15.37.44 1.126 1.21 2.187 1.03.475-.084.477-.22.477-.22.53.53 1.396.516 1.396.516-.11-.34-.48-1-.53-1.403-.058-.44.07-.86.07-.86.15-.5.447-1.128.776-1.447.29-.284 1.024-.61 1.616-.202.473.337 1.04 1.43.57 2.988-.02.117-.54 1.22-1.096 1.39 0 0-.05.018-.155.018-.377 0-1.07-.39-1.07-.39s-.02.1.08.502c.06.23.142.485.21.68 0 0-.137.24-.225.384-.115.15-.245.7.04.91 0 0 1.233.836 2.428.91.824.05 1.136-.507 1.136-.507.603-.834 1.06-1.546 1.7-2.128 1.745-1.6 4.2-2.03 4.2-2.03.16-.02 2.84-.768 7.39 2.874-1.3.105-2.85.415-4.03.624-3.37.6-5.535 3.78-6.165 5.076-1.64 3.38 1.71 4.543 1.71 4.543.03-.03 3.195-.28 4.722-3.644 0 0 .56-1.49 2.043-1.006.97.315 9.55 3.314 11.483 3.82 0 0 5.74 1.498 7.904-1.143 3.46 1.136 6.705 1.686 15.205.588 1.473-.192 2.633-.15 2.633-.15 1.986.15 3.8 1.487 4.35 2.364 2.233 3.577 5.07 10.686 14.915 9.82l4.453-.403c2.717-.16 4.93-.27 7.174.912.98.516 1.52.704 3.177 2.286 2.27 2.16 4.36 4.493 7.133 3.22.984-.454 2.092-2.214 2.092-2.214-.11-.804-.466-1.577-1.35-2.236 2.522.6 8.212.988 10.413-2.86.567-.9.63-1.697.414-2.18zm-.9 1.82c-.213.746-1.278 1.744-2.574 2.317-1.36.61-4.197.768-5.835.5 0 0-3.17-.322-5.95-3.226-.88-.917-1.953-1.957-2.95-2.983-.44-.46-1.516-1.537-3.31-1.777-1.87-.254-6.425-.377-8.14-.947-1.145-.38-2.528-1.157-4.367-3.88-.885-1.304-1.514-1.662-2.717-2.426 0 0 .924.735 1.446 1.66.756 1.347 1.136 2.326 1.546 3.043.41.72.878 1.357 1.58 1.92.87.7 1.415.833 2.36.99.903.15 3.955.123 6.574.083 2.574-.04 3.724.792 4.57 1.505.784.66 2.127 2.547 2.952 3.374.986.98 1.705 1.98 3.65 2.96.677.345 1.78 1.187 1.727 1.998-.874.877-1.96 1.106-4.565.41.183.18 1.548 1.613 3.88.936-.703.588-1.39.84-2.113.8-2.44-.136-4.832-3.145-6.173-4.254-1.02-.84-1.136-1.054-2.868-2.25-2.63-1.82-8.53-1.308-8.53-1.308l-4.33.226c-8.43.638-11.97-6.83-12.9-8.388-.326-.54-.618-.978-.898-1.333-.43-.577-2.73-3.56-5.06-4.546 0 0 2.29 1.97 2.155 3.274 0 0-.95-.445-3.53-.075-11.107 1.582-14.885-1.198-14.885-1.198.516-2.224-1.04-4.508-1.04-4.508.858.27 6.32 2.114 11.5 1.06 0 0-8.434.047-14.35-4.673 0 0 3.68 4.613 2.807 7.634 0 0-.605 3.22-7.024 1.923-.683-.134-1.49-.364-11.095-3.03-2.26-.675-3.04.404-3.443 1.05-.017.95-1.136 2.06-1.7 2.407-2.973-.537-1.79-3.296-1.79-3.296-1.87 2.678.09 3.86.71 3.945-.37.18-.722.31-1.02.42 0 0-2.43-1.448-1.072-3.82 1.897-3.306 3.824-4.367 7.36-4.69 1.547-.15 2.837-.256 3.818-.122 2.563.354 4.17 1.803 8.012 2.176-8.152-2.4-8.17-7.124-8.2-7.214l-.002-.01c-.45 1.56-.204 2.87.195 3.98-.113-.04-1.896-1.21-2.575-1.624-2.927-1.79-5.24-2.1-5.24-2.1-.97-.125-1.42-1.304-1.42-1.304l-.103-.17c-1.355-2.31-2.69-2.355-2.69-2.355.75 1.022.766 2.48.766 2.48.4 2.865-2.843 3.748-2.843 3.748-1.987 2.523-1.883 2.576-2.325 2.64-.443.064-1.412-.43-1.412-.43-.16-.235.066-.47.066-.47.37-.296.672-.59.672-.59 2.1-2.15 2.353-3.198 2.093-4.59-.53-2.796-2.53-2.47-2.53-2.47-.94.054-1.364.894-1.364.894-.332.515-1.04 2.09-1.04 2.09-.434.94-.876 1.152-1.106 1.193-.1.02-.284.015-.345.014-.674-.024-1.19-.647-1.19-.647-.03-.032-.06-.066-.082-.093-.62-.663-.17-1.528-.17-1.528.83-1.94 2.45-2.225 2.67-2.25.225-.03.97-.14.97-.14 2.052-.345 3.02-2.485 3.02-2.485-1.384-.018-2.06.073-2.06.073-1.36.237-1.825 1.84-1.825 1.84-1.158.263-1.127-.73-.925-1.03.18-.28.86-1.47 5.29-2.495 0 0 2.183-.658 6.853-.448l-.193.356c-.412.78-2.05 2.39-4.756 1.794 0 0 .023 1.204 2.96 1.634 0 0 2.653.476 7.155 4.094 0 0-2.15-4.278-5.81-5.385 0 0-.455-.098-.23-.385 0 0 2.255-2.1 5.16-2.18 0 0 9.842-.95 15.304 6.57 0 0-1.646-3.19-2.893-4.585 0 0 5.714 1.614 14.5 4.67 0 0 5.997 2.126 9.834 3.64C74.51 14.26 87.46 19.3 95.72 23.8c1.474.804 16.417 8.595 16.417 8.595 4.135 1.857 7 .727 7 .727.93-.354 2.62-1.65 3.36-.917.38.38.43.89.247 1.392zM17.534 5.94s.088-.26.112-.32c.025-.06.27-.737.88-.8 0 0 .353-.02.897-.02 0 0-.266.853-1.314 1.04 0 0-.41.09-.58.097zM24.57 3.31c.11.004.233.007.377.01.59.01 1.257-.234 1.7-.442.316-.146.52-.276.494-.276-.41-.004-1.06-.01-1.31-.01-1.06 0-1.62.603-1.63.66 0 .034.15.048.37.058z"/></svg>