<svg viewBox="0 0 129 59" xmlns="http://www.w3.org/2000/svg" fill-rule="evenodd" clip-rule="evenodd" stroke-linejoin="round" stroke-miterlimit="1.414"><path d="M83.02 47.945v5.07c0 1.31-.144 2.348-.805 3.214-1.076 1.41-3.048 2.22-8.552 2.22h-.057c-5.473 0-7.456-.81-8.53-2.22-.662-.87-.805-1.91-.805-3.22v-5.07h3.79v4.92c0 1.32.17 2.097.65 2.78.82 1.153 2.24 1.57 4.78 1.57h.32c2.66 0 3.96-.417 4.78-1.57.485-.685.65-1.495.65-2.777v-4.93h3.79zm39.506 6.58c1.423-.048 2.63-.263 3.56-.764.964-.51 1.423-1.5 1.423-2.51 0-1.36-.61-2.23-1.72-2.713-.987-.433-2.2-.58-4.62-.58h-11.74v10.17h3.79v-3.53h4.97l5.674 3.526h4.613l-5.96-3.593zM33.73 55.95H22.51l-1.86 2.166h-2.196l8.824-10.17h3.73l8.832 10.17h-4.245L33.73 55.95zm66.233 0h-11.22l-1.858 2.166H84.69l8.822-10.17h3.733l8.83 10.17h-4.246l-1.87-2.166zm-83.237-8.005v4.96c0 1.605-.368 2.578-1.13 3.358-1.33 1.36-3.884 1.853-7.495 1.853H.49V56.75H7.5c2.15 0 3.605-.355 4.48-1.22.665-.656.963-1.57.963-2.928v-4.657h3.787zm39.598 8.812v-3.31h3.768v4.67H49.134c-2.055 0-3.674-.24-4.896-.733-2.036-.82-2.967-2.32-2.967-4.373 0-1.93 1.02-3.28 2.31-4 1.377-.77 2.92-1.06 5.497-1.06H59.71v1.36h-9.46c-2.026 0-3.13.31-3.973.99-.748.61-1.146 1.52-1.146 2.74 0 1.26.42 2.19 1.22 2.8.847.642 1.98.927 3.936.927h6.045zm-32.686-2.12h8.96l-4.488-5.21-4.472 5.21zm66.234 0h8.96l-4.487-5.21-4.473 5.21zm30.812-5.41c1.42 0 2.05.133 2.48.456.41.307.558.777.558 1.507v.19c0 .66-.158 1.194-.64 1.53-.476.328-1.142.4-2.352.4h-7.506v-4.082h7.46zm3.004-16.682c-.606-1.348-2.274-.91-2.274-.91-.79.164-1.688 1.068-3.026 1.464-2.87.85-5.164-.14-5.164-.14-4.42-1.91-18.632-10.05-25.858-13.6 0 0-8.29-4.16-20.474-8.98 0 0-23.57-10.36-40.026-9.39 0 0-8.53.38-11.2 4.254 0 0-.455.517-.196 1.077 0 0 .05.16-.056.268 0 0-1.434 1.286-2.164 2.43-.257.413-.542 1.11-.015 1.6 0 0 .236.183.336.344.21.34.41.846.66 1.15.38.443 1.13 1.21 2.19 1.03.39-.07.48-.22.48-.22.53.53 1.395.51 1.395.51-.11-.336-.48-1-.53-1.4-.06-.44.07-.86.07-.86.15-.5.448-1.13.776-1.448.287-.285 1.023-.61 1.616-.2.47.334 1.038 1.426.568 2.984-.02.12-.54 1.225-1.094 1.39 0 0-.05.02-.16.02-.372 0-1.07-.39-1.07-.39s-.016.098.08.5c.06.23.146.485.21.68 0 0-.133.24-.22.384-.135.24-.248.7.04.91 0 0 1.23.834 2.425.91.824.05 1.135-.508 1.135-.508.605-.835 1.063-1.547 1.7-2.128 1.747-1.6 4.2-2.03 4.2-2.03.16-.02 2.84-.764 7.39 2.876-1.3.105-2.847.415-4.03.625-3.37.6-5.534 3.78-6.163 5.075-1.64 3.376 1.71 4.54 1.71 4.54.03-.03 3.195-.28 4.72-3.64 0 0 .56-1.49 2.046-1.007.97.314 9.548 3.312 11.48 3.82 0 0 5.743 1.495 7.906-1.146 3.454 1.13 6.7 1.68 15.2.584 1.473-.193 2.634-.15 2.634-.15 1.986.15 3.798 1.485 4.347 2.362 2.235 3.576 5.07 10.682 14.914 9.817l4.453-.403c2.714-.163 4.926-.27 7.17.912.977.51 1.52.7 3.176 2.28 2.268 2.16 4.356 4.493 7.13 3.22.985-.454 2.092-2.213 2.092-2.213-.11-.806-.467-1.578-1.35-2.237 2.52.6 8.21.987 10.41-2.86.57-.9.63-1.696.416-2.177zm-.898 1.814c-.215.74-1.28 1.74-2.575 2.31-1.36.61-4.195.77-5.834.5 0 0-3.17-.32-5.95-3.23-.872-.916-1.95-1.956-2.95-2.983-.44-.46-1.513-1.537-3.31-1.776-1.862-.25-6.42-.373-8.14-.942-1.14-.38-2.523-1.158-4.36-3.88-.885-1.305-1.513-1.663-2.717-2.427 0 0 .923.735 1.446 1.66.753 1.347 1.134 2.326 1.545 3.043.41.72.877 1.356 1.577 1.92.87.7 1.416.83 2.36.987.904.15 3.955.123 6.573.085 2.575-.04 3.723.79 4.57 1.5.783.66 2.125 2.546 2.95 3.375.985.977 1.704 1.98 3.65 2.96.674.343 1.78 1.183 1.723 1.994-.874.876-1.96 1.106-4.564.41.183.18 1.546 1.612 3.88.935-.705.587-1.394.837-2.114.8-2.44-.137-4.833-3.144-6.173-4.255-1.02-.84-1.137-1.052-2.867-2.25-2.628-1.82-8.525-1.307-8.525-1.307l-4.325.222c-8.426.636-11.966-6.83-12.9-8.388-.324-.54-.616-.977-.896-1.33-.43-.574-2.734-3.56-5.06-4.542 0 0 2.286 1.97 2.15 3.273 0 0-.95-.44-3.53-.074-11.1 1.584-14.88-1.195-14.88-1.195.515-2.223-1.04-4.506-1.04-4.506.86.27 6.316 2.115 11.5 1.062 0 0-8.436.044-14.35-4.674 0 0 3.68 4.61 2.807 7.63 0 0-.605 3.22-7.02 1.92-.686-.135-1.492-.364-11.097-3.028-2.26-.677-3.04.4-3.447 1.05-.017.95-1.136 2.056-1.7 2.403-2.972-.536-1.788-3.294-1.788-3.294-1.87 2.674.09 3.856.708 3.94-.37.18-.72.31-1.02.42 0 0-2.428-1.446-1.07-3.816 1.893-3.305 3.82-4.364 7.356-4.687 1.545-.15 2.834-.26 3.815-.124 2.565.353 4.172 1.8 8.012 2.174-8.15-2.4-8.17-7.12-8.2-7.21l-.004-.01c-.452 1.558-.203 2.87.194 3.98-.114-.04-1.896-1.213-2.575-1.626-2.927-1.786-5.237-2.1-5.237-2.1-.973-.12-1.425-1.3-1.425-1.3-.03-.06-.066-.116-.1-.173-1.35-2.305-2.683-2.35-2.683-2.35.475.648.655 1.473.723 1.987.04.3.074.84.073 1-.027 2.465-2.88 3.24-2.88 3.24-1.987 2.524-1.883 2.576-2.325 2.64-.444.06-1.413-.43-1.413-.43-.076-.04-.096-.15-.083-.223.026-.152.15-.25.15-.25.37-.293.677-.59.677-.59 2.1-2.146 2.353-3.195 2.094-4.587-.53-2.795-2.528-2.47-2.528-2.47-.972.093-1.363.895-1.363.895-.337.515-1.04 2.09-1.04 2.09-.437.94-.88 1.15-1.11 1.193-.1.017-.284.014-.345.01-.676-.024-1.19-.65-1.19-.65-.032-.03-.062-.063-.085-.09-.617-.663-.17-1.53-.17-1.53.834-1.94 2.45-2.22 2.67-2.25.225-.03.97-.136.97-.136 2.053-.344 3.022-2.482 3.022-2.482-1.385-.02-2.06.074-2.06.074-1.363.24-1.827 1.843-1.827 1.84-1.155.264-1.126-.727-.92-1.03.18-.28.855-1.468 5.284-2.493 0 0 2.183-.654 6.85-.443l-.194.358c-.412.78-2.05 2.39-4.755 1.795 0 0 .024 1.2 2.96 1.63 0 0 2.654.473 7.155 4.09 0 0-2.15-4.275-5.804-5.382 0 0-.46-.096-.235-.382 0 0 2.16-2.028 5.157-2.027 0 0 9.36.2 15.3 6.42 0 0-.26-1.08-1.194-2.613L46.35 6s.357.04 1.334.2c0 0 3.57.444 11.962 3.342 0 0 6.282 2.063 9.723 3.43 5.17 2.057 18.12 7.076 26.38 11.58 1.475.8 16.412 8.59 16.412 8.59 4.137 1.857 7 .73 7 .73.93-.356 2.62-1.654 3.36-.92.38.378.43.89.25 1.39zm-109.232-25c.945-1.4 2.176-2.45 2.19-2.46.016-.016.034-.03.046-.045.017-.02.032-.038.052-.056.073.087.17.175.3.25-.718.303-2.588 2.302-2.588 2.302zm7.07-.42c-.43-.31-.914-.37-1.35-.3.192-.144.5-.16.5-.16.2-.026 1.158-.06 1.602 1.44-.19-.43-.448-.776-.75-.988zm6.895-2.99c.87.26 1.648.73 2.33 1.282-2.076-1.16-3.27-1.395-3.346-1.408l-.023-.003c-.325-.046-.595-.104-.84-.166.402-.082.774-.207 1.114-.362v.02c.16.432.578.583.765.634zm-9.93.74s.09-.26.113-.32c.025-.063.27-.734.88-.8 0 0 .353-.02.897-.02 0 0-.266.856-1.313 1.04 0 0-.41.094-.576.1zm7.037-2.62c.11.005.232.008.378.01.59.01 1.256-.233 1.7-.44.315-.15.52-.276.492-.276-.41-.005-1.065-.01-1.31-.01-1.066 0-1.626.603-1.63.66-.004.033.142.048.37.057zm2.28-2.354c16.09-.95 39.457 9.22 39.685 9.323h.016l.02.002c1.96.776 3.82 1.536 5.56 2.264-.41-.16-2.53-1.005-2.533-1.005-3.416-1.356-9.696-3.422-9.75-3.44-8.234-2.84-11.834-3.342-12.09-3.375-.976-.158-1.347-.2-1.362-.2l-1.483-.17.82 1.324c-5.82-4.107-12.78-4.31-13.12-4.32h-.015c-1.4 0-2.626.4-3.575.856l.47-.883-1.15-.05c-2.06-.093-3.65-.02-4.81.092 1.84-.34 3.275-.416 3.314-.416z"/></svg>