<svg viewBox="0 0 64 64" xmlns="http://www.w3.org/2000/svg" fill-rule="evenodd" clip-rule="evenodd" stroke-linejoin="round" stroke-miterlimit="1.414"><path d="M64 0H0v64h64V0zM38.095 52.838l4.897-2.835c1.29 2.105 2.965 3.652 5.93 3.652 2.49 0 4.08-1.246 4.08-2.965 0-2.062-1.632-2.792-4.382-3.995l-1.503-.644c-4.34-1.84-7.218-4.16-7.218-9.06 0-4.51 3.43-7.95 8.8-7.95 3.824 0 6.573 1.33 8.55 4.81l-4.684 3.01c-1.03-1.843-2.147-2.573-3.866-2.573-1.76 0-2.877 1.118-2.877 2.578 0 1.806 1.117 2.536 3.694 3.653l1.506.643c5.112 2.19 7.99 4.425 7.99 9.45 0 5.415-4.252 8.38-9.966 8.38-5.586 0-9.195-2.664-10.956-6.145zm-21.267.645l4.898-2.964c.945 1.67 1.804 3.09 3.866 3.09 1.976 0 3.222-.778 3.222-3.78V29.38h6.014v20.535c0 6.23-3.65 9.064-8.978 9.064-4.812 0-7.604-2.49-9.022-5.5zm0 0z" fill="#fff"/></svg>