<svg viewBox="0 0 128 128" xmlns="http://www.w3.org/2000/svg" fill-rule="evenodd" clip-rule="evenodd" stroke-linejoin="round" stroke-miterlimit="1.414"><path d="M128 0H0v128h128V0zM76.19 105.676l9.794-5.67c2.58 4.21 5.93 7.304 11.86 7.304 4.98 0 8.16-2.492 8.16-5.93 0-4.124-3.264-5.584-8.764-7.99l-3.006-1.288c-8.68-3.68-14.436-8.32-14.436-18.12 0-9.02 6.86-15.9 17.6-15.9 7.648 0 13.146 2.66 17.1 9.62l-9.368 6.02c-2.06-3.686-4.294-5.146-7.732-5.146-3.52 0-5.754 2.236-5.754 5.156 0 3.612 2.234 5.072 7.388 7.306l3.012 1.286c10.224 4.38 15.98 8.85 15.98 18.9 0 10.83-8.504 16.76-19.932 16.76-11.172 0-18.39-5.328-21.912-12.29l.01-.018zm-42.534 1.29l9.796-5.928c1.89 3.34 3.608 6.18 7.732 6.18 3.952 0 6.444-1.556 6.444-7.56V58.76h12.028v41.07c0 12.46-7.3 18.128-17.956 18.128-9.624 0-15.208-4.98-18.044-11v.008z"/></svg>