<svg viewBox="0 0 128 51" xmlns="http://www.w3.org/2000/svg" fill-rule="evenodd" clip-rule="evenodd" stroke-linejoin="round" stroke-miterlimit="1.414"><path d="M50.975 12.946a.86.86 0 0 1 .856.857v27.041c0 5.624-4.437 9.82-9.781 9.82-.634 0-1.024-.233-1.135-.594l-1.358-4.418a.855.855 0 0 1 .756-1.104c1.702-.087 4.218-1.172 4.218-4.474V13.803a.865.865 0 0 1 .859-.857h5.585zM77.02 48.319h-5.518a.904.904 0 0 1-.899-.899V13.845c0-.493.406-.898.899-.899H85.17c7.884 0 11.4 3.003 11.4 9.737v4.52c0 4.301-1.677 7.177-4.985 8.549l5.975 8.62 9.71-30.797a.9.9 0 0 1 .857-.629h8.391a.9.9 0 0 1 .857.629l10.586 33.574a.903.903 0 0 1-.858 1.17h-5.779a.9.9 0 0 1-.858-.632l-2.037-6.537h-7.842a.897.897 0 0 1-.865-1.143l1.304-4.635a.901.901 0 0 1 .865-.656h4.647l-3.382-11.709c0-.001-.164-.642-.835-.642-.66 0-.851.617-.851.617l-7.29 24.692a.9.9 0 0 1-.862.645H91.985a.901.901 0 0 1-.738-.386L83.566 36.89h-5.647v10.53a.904.904 0 0 1-.899.899zm-13.122 0H58.38a.904.904 0 0 1-.899-.899V13.845c0-.493.406-.898.899-.899h5.519c.493 0 .899.406.899.899V47.42a.904.904 0 0 1-.9.899zm-35.15-.001h-5.919a.978.978 0 0 1-.971-.901c-.418-5.628-5.177-10.481-10.215-15.62-2.734-2.789-5.562-5.672-7.73-8.788-2.307-3.313-3.585-6.475-3.907-9.71a.973.973 0 0 1 .378-.859.96.96 0 0 1 .934-.133 48.001 48.001 0 0 0 6.192 1.887c.396.093.717.388.851.743 1.42 3.89 5.046 7.581 8.85 11.46.155.151.367.336.715.336s.562-.191.714-.336c3.804-3.879 7.43-7.583 8.85-11.473.134-.354.455-.65.852-.742 1.949-.454 4.085-1.065 6.187-1.869a.969.969 0 0 1 .938.135c.262.2.41.545.378.87-.323 3.234-1.6 6.378-3.906 9.691-2.169 3.116-4.997 5.999-7.731 8.788l-.593.605c-.199.204-.308.606-.048.931.64.796 1.252 1.609 1.824 2.445 2.726 3.988 4.143 7.756 4.329 11.518l.001.048a.979.979 0 0 1-.973.974zm-15.736 0H7.103a.987.987 0 0 1-.708-.304.982.982 0 0 1-.268-.721c.178-3.593 1.463-7.169 3.953-10.958.099-.151.361-.456.803-.456a.9.9 0 0 1 .691.296c1.775 1.851 2.968 3.202 3.941 4.469.196.253.461.846.12 1.477-.982 1.824-1.521 3.56-1.649 5.292a.986.986 0 0 1-.974.905zm71.899-28.835h-6.992v10.97h6.992c3.247 0 4.342-.964 4.342-3.822v-3.429c0-2.296-.726-3.719-4.342-3.719zM17.926 21.82h-.002a.95.95 0 0 1-.682-.27c-2.087-2.03-3.209-4.396-3.454-5.054a.904.904 0 0 1 .824-1.26c.378 0 1.453.112 3.307.112h.012c1.855 0 2.931-.112 3.309-.112a.903.903 0 0 1 .823 1.26c-.246.658-1.367 3.024-3.455 5.054a.949.949 0 0 1-.682.27zM7.723 3.787a3.104 3.104 0 0 0-3.106 3.108 3.106 3.106 0 0 0 6.211 0 3.103 3.103 0 0 0-3.105-3.108zm20.403 0a3.103 3.103 0 0 0-3.105 3.108 3.106 3.106 0 0 0 3.105 3.109 3.11 3.11 0 0 0 0-6.217zM17.924.951a3.103 3.103 0 0 1 3.105 3.108 3.106 3.106 0 1 1-6.21 0A3.104 3.104 0 0 1 17.924.951z"/></svg>