<svg viewBox="0 0 128 25" xmlns="http://www.w3.org/2000/svg" fill-rule="evenodd" clip-rule="evenodd" stroke-linejoin="round" stroke-miterlimit="1.414"><path d="M4.824 20.815c-.292.936-1.054 2.34-1.755 2.34-.82 0-1-1.872-1-1.872.054-2.047 1.282-5.32 2.22-6.372.59-.46.702-.29.702.41.174 1.06.23 4.21-.177 5.5zm68.212-.233c-.292.934-1.053 2.34-1.753 2.34-.82 0-.996-1.874-.996-1.874.06-2.045 1.287-5.32 2.222-6.37.58-.47.7-.294.7.407.17 1.054.23 4.21-.18 5.497zm-34.473-6.198c-.408.03-.73-.292.03-1.46.294-.453.498 1.46-.03 1.46zM4.473 13.04c-.293.642-.527 1.754-1.17.934C1.96 12.162 1.61 8.07 1.61 7.894c0-3.684 1.402-6.08 3.918-7.076C3.77 4.794 3.83 10.468 4.474 13.04zm102.304 1.11c-.41.03-.732-.292.03-1.46.293-.452.497 1.46-.03 1.46zM70.083 7.544c0-3.685 1.403-6.083 3.92-7.076-1.755 3.976-1.697 9.648-1.055 12.22-.292.644-.525 1.755-1.17.936-1.343-1.813-1.695-5.906-1.695-6.08zm-5.03 5.555c-1.197 0-2.427-.56-2.427-1.2 0-.65.323-.82.967-.62 1.696.844 1.46 1.253 1.46 1.81zm-16.05-.66v.01c-.264 1.46-1.374 2.98-3.305 2.98-1.778 0-3.172-1.27-3.534-3.01-.06-.29-.09-.596-.09-.908 0-.878.41-2.165.936-2.69-1.054.057-2.81 1.58-3.1 2.22 0 .82.29.585.29 1.755 0 1.696-1.11 2.514-1.694 2.514-.584 0-1.11-.234-1.11-1.404 0-1.344.876-1.754.7-2.338-.31-.91-.3-1.083-.525-1.346-.46.562-.86 1.374-1.27 2.19-.764 1.513-1.56 3.04-2.812 3.04-.557 0-.995-.642-.995-1.694v-1.34l-.004-2.133c0-1.05-.347-1.433-.815-.175-.384.986-1.023 2.23-1.003 2.31h.015c-.725 1.466-1.674 3.01-2.313 3.01-.554 0-.79-.76-.79-1.43v-3.978c0-.788-.2-.76-.67.03-.35.57-.793 1.468-1.27 2.367-.8 1.51-1.706 3.017-2.473 3.017-.73 0-1.17-.438-1.17-1.432V10.06c0-.73-.38-.76-.85.086-.186.377-.536 1.305-.946 2.28-.61 1.453-1.36 3.013-1.92 3.013-.73 0-.76-.618-.76-1.2v-3.6c0-.938-.145-.968-.524-.587-.314.19-.918.386-1.6.49.03.295.047.616.047.972 0 .313-.02.616-.064.904-.27 1.767-1.36 3.017-3.444 3.017-1.728 0-2.72-1.228-3.088-3.012-.07-.63-.04-1.37.102-2.22-.684.027-2.34 1.25-2.55 2.22-.015.07-.023.135-.023.2.17 1.52.144 5.152-.32 7.022C5.35 22.16 3.6 24.5 2.55 24.5c-1.406 0-1.52-1.52-1.52-2.868 0-1.225 1.283-5.2 2.16-6.136.265-.583.175-.7-.467-1.05C2.19 14.15 0 11.694 0 7.806 0 3.886 3.304 0 6.286 0c-.79 4.62-.673 8.947 0 11.286.818-1.112 3.1-2.924 5.467-3.597-1.116 1-1.89 3.23-1.336 4.73.254 1.022.957 1.43 2.184 1.49.71 0 1.51-.65 1.72-1.49.15-.56.15-1.21.07-1.808-1.22-.01-2.364-.416-2.364-1.704 0-.555.38-1.14 1.17-1.14.795 0 1.637.4 2.027 1.81 1.37-.118 1.905-.27 2.24-1.166l.118-3.156c0-3.04 1.17-4.914 2.69-4.914.994 0 1.23 1.23 1.23 1.99 0 1.93-1.11 4.443-2.34 5.555v4.27c.732 0 2.164-4.85 3.57-4.85 1.05 0 1.11 1.286 1.11 1.87v3.8c.03.53.26.53.7-.174l.22-.38 2.354-4.065c.76-1.286 2.28-1.46 2.28.47v2.81c.03.584.295.73.733-.147 0 0 .816-1.55 1.46-2.92.7-1.55 2.542-1.754 2.542.03l-.005 3.83v.73c.004.644.18 1.14.823.176.198-.3.38-.604.55-.907 1.48-2.64 1.93-5.203 2.637-5.203.493 0 .82 2.836 1.722 2.836.44 0 2.665-2.835 5.09-2.835.73 0 .878.38.06 1.225-.996.994-.88 2.106-.88 2.778 0 .71.31 1.23.33 1.26.002.01-.01-.01-.045-.06.288.834.896 1.346 1.91 1.346.65 0 1.436-.547 1.756-1.344.096-.24.15-.51.143-.79v-1.35c-1.11 0-2.63-.23-2.63-1.692 0-1.17.98-1.242 1.637-.993.658.277.95.512 1.228.994l-.1-.1c.22.276.423.467.715.41.336-.074 1.273-1.45 2.78-1.45.7 0 1.27.44 1.27 1.49l.02 2.02c0 .79.2.934.58.116.292-.613 1.756-4.122 3.01-4.122 1.054 0 1.29 1.346 1.29 2.75 0 1.025-.11 1.988-.174 2.718-.07.82-.08 1.347.2 1.347.542 0 .934-.455 1.36-1.347h.383c-.02.18-.1.45-.287.85-.585 1.17-1.464 2.164-2.31 2.164-.82 0-1.288-.707-1.288-2.576V9.83c0-.76-.26-.85-.673.03-.536.904-.94 1.786-1.28 2.57-.76 1.76-1.176 3.04-1.88 3.04-.646 0-.85-.495-.85-1.606v-3.83c0-1.08-.23-1.857-.965-1.11-.25.262-.79.64-1.2.73.145 1.097.09 1.883-.054 2.776v.01zm21.754 11.82c-1.404 0-1.523-1.978-1.523-3.32 0-1.23 1.053-4.23 2.106-5.92.278-.48.117-.67-.262-1.11-.878-1.11-1.053-.85-2.485-.85-1.316.144-1.727-.03-1.974 1.606-.08.44-.58.525-.58.525-.118-.086-.146-.233-.118-.73.09-.584-.205-.73-.585-.73-3.01 0-4.384-.586-4.384-1.99 0-.963 1.14-1.285 1.722-1.285 1.2.056 2.135.437 2.78 1.2.06-.705-.147-1.67-.44-2.254.35-.41.613-.672 1.14-.437.554 1.02.82 2.395.73 3.536.496-.233 2.05-.35 2.34-.205.47-.205.175-.73.09-.964-.324-.76-.82-2.16-.82-3.74C68.5 3.68 71.892 0 74.873 0c-.643 4.824-.7 8.74-.38 11.05.82-1.11 3.1-2.922 5.468-3.594-1.112 1.006-1.692 3.246-1.332 4.74.253 1.02.954 1.43 2.183 1.49.705 0 1.507-.647 1.72-1.49.145-.56.148-1.21.065-1.808-1.217-.01-2.366-.414-2.366-1.702 0-.556.38-1.14 1.17-1.14.792 0 1.632.398 2.03 1.808 1.37-.115 1.9-.27 2.24-1.166l.11-3.157c0-3.04 1.17-4.91 2.69-4.91.996 0 1.23 1.23 1.23 1.99 0 1.93-1.11 4.446-2.34 5.557v4.268c.733 0 2.163-4.852 3.57-4.852 1.052 0 1.11 1.288 1.11 1.873v3.8c.03.524.263.524.702-.176l.22-.38 2.356-4.064c.76-1.286 2.28-1.46 2.28.47v2.8c.03.586.292.73.73-.146 0 0 .82-1.548 1.464-2.922.7-1.55 2.545-1.754 2.545.03l-.004 3.83v.73c.006.642.18 1.14.825.176.197-.302.382-.606.55-.907 1.48-2.64 1.928-5.205 2.636-5.205.498 0 .82 2.836 1.726 2.836.438 0 2.66-2.832 5.087-2.832.735 0 .88.38.06 1.228-.992.994-1.023 1.958-.904 2.952.055.555.114.702.31 1.025.29.83.896 1.345 1.908 1.345.65 0 1.436-.547 1.757-1.342.095-.242.15-.51.143-.79v-1.35c-1.11 0-2.63-.235-2.63-1.697 0-1.17.98-1.243 1.635-.995.66.28.955.513 1.23.996l-.1-.1c.22.276.424.467.717.41.335-.075 1.27-1.45 2.776-1.45.703 0 1.273.44 1.273 1.49l.02 2.02c0 .79.2.935.58.115.29-.612 1.754-4.12 3.01-4.12 1.05 0 1.286 1.345 1.286 2.748 0 1.023-.11 1.99-.173 2.72-.065.817-.072 1.343.206 1.343.54 0 .933-.453 1.36-1.342.03-.063.066-.133.1-.206.08-.14.322-.19.28.203-.02.177-.1.45-.285.847-.582 1.17-1.46 2.16-2.31 2.16-.817 0-1.284-.7-1.284-2.57V9.59c0-.76-.26-.85-.67.028-.536.905-.94 1.787-1.283 2.575-.753 1.756-1.17 3.04-1.875 3.04-.642 0-.846-.5-.846-1.61V9.796c0-1.082-.232-1.857-.963-1.11-.25.262-.79.642-1.2.73.143 1.097.09 1.883-.056 2.778l-.006.028c-.26 1.462-1.372 2.982-3.304 2.982-1.78 0-3.17-1.267-3.533-3.01-.06-.288-.09-.593-.09-.906 0-.877.41-2.164.935-2.69-1.054.058-2.808 1.578-3.1 2.22 0 .82.292.586.292 1.756 0 1.695-1.11 2.513-1.697 2.513-.58 0-1.11-.233-1.11-1.403 0-1.345.88-1.754.705-2.338-.312-.908-.3-1.08-.527-1.345-.46.57-.864 1.38-1.276 2.2-.764 1.51-1.56 3.04-2.815 3.04-.556 0-.995-.642-.995-1.695V12.2l-.01-2.136c0-1.052-.345-1.43-.813-.175-.386.983-1.02 2.23-1.004 2.31h.012c-.727 1.46-1.676 3.01-2.313 3.01-.555 0-.79-.76-.79-1.436v-3.98c0-.79-.202-.76-.672.03-.35.568-.79 1.467-1.27 2.368-.8 1.502-1.704 3.01-2.47 3.01-.73 0-1.17-.438-1.17-1.433V9.825c0-.73-.38-.76-.848.087-.19.38-.538 1.308-.948 2.285-.613 1.45-1.36 3.01-1.92 3.01-.73 0-.76-.614-.76-1.198v-3.6c0-.94-.146-.97-.526-.59-.31.192-.916.39-1.6.49.032.296.05.617.05.972 0 .314-.02.618-.065.907-.27 1.76-1.36 3.01-3.445 3.01-1.723 0-2.81-.82-3.086-3.01-.07-.63-.04-1.37.102-2.225-.685.026-2.34 1.25-2.552 2.222-.013.065-.02.13-.02.194.174 1.523.145 5.153-.32 7.026-.705 2.512-2.457 4.85-3.51 4.85zM13.215 8.68c.344-.14.69.28.925.94-1.374-.077-1.48-.697-.925-.94zm68.213-.233c.343-.147.688.28.925.93-1.375-.074-1.482-.695-.925-.936zm-33.8.9c-1.32 0-1.433-.82-.934-.82.996 0 1.4.82.935.82zm68.213-.233c-1.31 0-1.43-.82-.93-.82 1 0 1.408.82.94.82zM20.15 1.05c.526 0 .76 3.276-.994 5.615-.148-.556-.178-1.677-.18-2.213-.027-.094-.07-3.402 1.175-3.402zM88.36.818c.525 0 .76 3.275-.993 5.614-.15-.556-.18-1.677-.183-2.213-.022-.08-.07-3.4 1.18-3.4zM18.97 4.453c.005.01.008-.02.008-.126 0-.3-.01-.183-.006.126zm68.214-.235c.007.01.01-.02.01-.125 0-.3-.01-.182-.007.125z"/></svg>