<svg viewBox="0 0 128 120" xmlns="http://www.w3.org/2000/svg" fill-rule="evenodd" clip-rule="evenodd" stroke-linejoin="round" stroke-miterlimit="1.414"><path d="M69.533 8.676c-.05-.26-.082-.53-.1-.803C69.17 4.093 72.013.817 75.79.55c3.782-.263 7.057 2.585 7.32 6.365.264 3.78-2.58 7.057-6.358 7.323-.24.018-.475.022-.707.012-.153.04-.245.06-.377.175-.388.606.99.493.053 3.143 0 0 0 .29-.11.58-.07 1.018-.46 4.032-.52 5.637.2.232.26.346.24.91-.09.762-.262 2.63-.543 3.83-.24 1.025-.657 1.22-.995 1.472-.475 2.126-.6 3.886-1.817 6.468-.11 1.958-.247 2.49-.66 3.447-.044 2.882.155 3.31-1.79 7.874-.5 2.135-.023 3.61.507 5.83.54 2.278 2.043 3.23 2.265 5.564.527 5.497.395 9.24-.783 13.55l1.03 2.437c1.276.585 4.445 2.188 2.688 4.723 2.475 1.3 6.21 2.682 9.294 5.32 1.24 1.033 2.55 2.16 3.727 3.483 2.24.348 2 .526 3.66 1.546 4.88 2.99 12.7 8.92 17.234 13.13.78.45 1.1.78 1.73 1.11.098.19.125.23.103.28-.215.55-.207.564-.403 1 .248.27.705.524.977.76.253.08.253-.042.69-.15.57.533 1.274.963 1.527.938.774-.196.64-.037 1.294-.766.232-.24.625.003.625.003.242-.288.77-.86 1.47-1.275.56-.33 1.63-.368 1.63-.368.356.004.29.37.258.49-.406.21-1.26.438-1.744.793-1.045 1.086-1.866 2.548-1.866 2.548 2.11-.288 3.403.236 5.16.034.96-.055 1.666.006 2.673-.72 0 0 .97-.69 1.836-1.056.84-.37 1.64-.172 2.38.367.524.59.84.597.043 1.43-.286.325-.703.686-1.23 1.21-.93.92-2.185 2.146-3.48 3.16-1.316 1.027-2.807 1.95-3.737 2.37-2.35 1.69-1.797 1.248-3.64 2.92-.236.21-.85.58-1.15.78-.73.48-.96.08-1.43-.795 0 0-.22-.328-.58-1.027-.392-.76-.686-1.637-.567-1.62-.438-.057-2.407-2.367-2.41-2.86-.42-.098-2.195-1.82-2.258-2.147l-1.576-1.26c-1.8.375-2.213-.743-6.967-4.12-.543-.01-1.38-.3-2.583-1.192-2.143-1.72-7.29-5.61-8.16-6.053-.94-.477-2.06-.927-2.745-1.495-1.03-.19-1.59-.3-2.106-.44-.525-.146-1.003-.33-2.335-.51-2.167-.27-4.415-1.168-6.554-2.24-1.01-.48-1.893-.725-2.766-1.1-1.956-.826-3.634-1.57-4.933-1.87-.495-.05-2.852-.757-4.09-1.48-.427-.22-.676-.43-.96-.496-.646-.15-1.063.106-1.356.204-1.59.827-3.07 1.54-4.445 2.28-1.278.683-2.454 1.393-3.7 2.11-1.123.65-2.42 1.26-3.756 1.9 0 0-3.807 1.907-5.884 2.648-1.807 1.472-5.49 4.02-7.74 5.282-1.116.53-3.28 1.902-4.28 2.21-.57.458-2.6 1.907-4.19 3.1-1.23.92-2.153 1.695-2.153 1.695-.714.64-.665.945-2.02.37-.378.31-.67.5-.91.68-.98.71-1.063.54-1.42.52-.684.59-.77.286-1.366.966-.39.607.01.463-.82.757-.17.067-.25.277-.39.395-.66.546-.662 2.094-2.26 2.204-.92.658-.68 1.453-1.39 1.418.05.683-1.24 1.68-1.472 1.676-2.03.7-2.17-.793-4.608.322-.317.144-.78.543-1.388.66-1.07.2-2.366-.01-3.155-.624-1.245-.956-2.39-2.806-2.39-2.806-.394-.934-.165-1.525 1.07-2.408.513-.328.61-.573 1.472-.63.426-.164.31.084 1.076-.19.444-.16.444-.047 1.338-.123.204-.14.492-.188.878-.314.71-.233 1.4-.492 1.4-.492s.18-.18.86-.117c.574-.236 1.165-.586 1.47-.693-.08-.91.02-.87.442-1.235.526-.454.62-.38 1.013-.098.166-.098.246-.13.227-.27-.066-.476-.47-.7-.35-1.746-.18-.42-.447-.94-.388-1.25.085-.34.167-.5.372-.606.217-.116.287.04.403.17.21.244.38.96.38.96.07.81.32 1.856 1.12 1.265.474-.476.566-1.75 1.527-1.478l.686.597c.58-.55.607-.55.956-.77 0 0-.545-.55-.067-.98.328-.29.72-.5 1.424-1.278 1.925-2.13 2.914-3.07 4.996-4.786 4.154-3.42 8.88-5.82 11.884-7.01.98-1.246 1.932-2.07 4.105-2.28 2.583-4.366 7.53-8.264 8.666-8.886.927-1.678 1.328-1.5 2.538-1.837.957-.767 1.174-.767 1.603-1.57.416-1.656-.96-6.083 2.556-6.306.746-1.054.56-.8 1.393-1.8-.57-1.39-.8-2.553-.95-3.555-.03-.116-1.4-1.08-1.01-2.34-.58-.69-1.67-2.307-2.01-3.064-.156.004-.285-.055-.456-.08-.176-.026-.397-.02-.645-.04-.55 1.416-1.146 1.52-2.12 1.83-1.74 3.71-2.35 5.28-7.27 8.345-1.954 2.188-2.58 4.626-2.57 4.59-.336.72-.217 1.733-.04 2.275-.257.803-.19.883-.19.883.108.306.387.707.73.79.59.16 1.183.13 1.15.79-.08.826-1.16.69-1.67.6-1.97-.31-1.35-1.594-2.608-1.166-.962.63-1.323 2.496-2.897 2.254-.206-.14-.142-.547-.002-.84.22-.46.613-.84.38-1.01-1.022.32-3.073 1-3.073 1-.966.263-2.02-.22-1.07-.85.44-.173 1.07-.388 1.847-.887 0 0 .4-.544-.367-.27-.84.3-2.077.487-2.964.39 0 0-1.84-.24-2.077-.387-.24-.146-.46-.715.12-.71.725.005 2.55-.21 3.964-.587.682-.267 1.98-1.035 2.71-1.397 0 0 .79-1.15 1.223-1.38.725-.837 1.337-1.33 1.98-2.185.628-1.296 1.277-3.347 3.355-6.523.962-1.463 2.156-3.17 3.66-4.694 0 0 .388-2.44 2.343-4.18.434-1.017 1.09-2.214 1.735-3.323.25-.428.49-.798.728-1.2.606-.955 1.24-2.728 3.605-3.007 0 0 1.01-.75 1.4-1.28.607-.516.47-1.322.96-1.89-.752-.734-2.677-2.116-2.864-4.036-.2-2.036.524-3.712 1.755-4.952 1.365-1.365 2.805-2.05 4.552-1.944 2.18.325 2.594 1.047 3.29 1.764.666.68.915.243 1.196 1.04 1.83.487 1.73.272 1.715 1.62.28.38.75.73.745 1.52.615-1.278.736-1.514 2.38-2.92.39-1.14.653-2.266.995-3.41.32-1.055.72-2.142 1.03-2.96-.33-2.31.343-2.692 1.24-4.717-.16-.28-.124-.357-.057-.814.35-1.336.894-3.106 1.218-4.26 0 0 .11-.46.584-.493.41-1.46 1.026-4.18 1.13-4.735.422-1.53.15-2.02-.174-2.88-.107-.283-.058-.684-.238-.997-.513-.89-1.063-2.05-1.436-2.875-.245-.527-.627-2.51-.627-2.51-.325-1.016-.04-.002-.04-.002z"/></svg>