<svg viewBox="0 0 128 138" xmlns="http://www.w3.org/2000/svg" fill-rule="evenodd" clip-rule="evenodd" stroke-linejoin="round" stroke-miterlimit="1.414"><path d="M88.3 131.993c-1.456 0-3.004 1.082-3.004 3.083 0 1.374 1.058 2.836 3.017 2.836 1.48 0 2.976-1.037 2.976-3.018 0-1.68-1.26-2.9-2.99-2.9zm17.172.668l.083.02c.71.058.685.058.685.87v2.82c0 .81.012.817-.685.87l-.083.01v.503h2.816v-.502l-.08-.01c-.7-.053-.688-.056-.688-.87v-2.82c0-.813-.027-.813.688-.87l.08-.01v-.537h-2.816v.534zm-102.7-.53H.002v.54l.106.01c.665.058.662.058.662.874v2.818c0 .814.013.817-.687.87l-.082.01v.503h2.82v-.504l-.03-.01c-.804-.056-.73-.057-.73-.87v-.847l.53.13c.112 0 .24 0 .457-.023 1.177-.144 1.9-.84 1.9-1.81 0-1.09-.774-1.69-2.164-1.69v-.004zm47.018 4.398l-1.843-4.547-.472.114-1.813 4.285c-.328.79-.503.81-.993.865l-.13.013v.498h2.3v-.5l-.355-.035c-.168-.013-.2-.047-.217-.073-.017-.023-.024-.02.05-.23.115-.335.294-.95.386-.95h1.506l.377.814c.135.328.13.39.11.42-.017.03-.1.03-.223.044l-.355.017v.5h2.814v-.503l-.17-.01c-.47-.03-.71-.042-.982-.712zm-36.254 0l-1.84-4.547-.474.114-1.81 4.285c-.33.79-.558.81-1.045.865l-.174.013v.498h2.56v-.5l-.432-.035c-.16-.014-.24-.047-.25-.073-.02-.023-.04-.02.03-.23.11-.308.27-.95.37-.95h1.5l.38.814c.14.328.13.39.11.42-.015.03-.15.03-.27.044l-.404.017v.5H14.6v-.503l-.12-.01c-.47-.03-.663-.042-.938-.712zm87.2.494c-.194-.177-.404-.43-.696-.842-.166-.236-.522-.75-.705-1.055.74-.303 1.115-.793 1.115-1.46 0-.53-.232-.97-.657-1.23-.342-.2-.8-.3-1.44-.3H95.49v.536l.22.01c.687.06.803.06.803.875v2.82c0 .813-.114.816-.82.87l-.204.01v.502h3.07v-.5l-.21-.01c-.7-.055-.82-.058-.82-.87v-.918h.32c.298 0 .336.025.478.264l.102.175c.204.347.49.904.74 1.232.313.42.753.885 1.826.885h.34l.072-.54-.108-.074c-.234-.075-.44-.23-.578-.372zm-76.938 0c-.19-.177-.4-.43-.693-.842-.396-.566-.598-.88-.705-1.052.74-.306 1.116-.796 1.116-1.465 0-.53-.233-.97-.657-1.23-.35-.2-.8-.3-1.45-.3h-2.72v.537l.09.01c.69.06.674.06.674.876v2.82c0 .812.03.813-.693.87l-.074.01v.5h2.81v-.502l-.08-.01c-.716-.055-.69-.056-.69-.87v-.916h.186c.3 0 .34.026.48.267l.116.197c.203.34.482.89.723 1.21.317.416.75.882 1.815.882h.36l.066-.54-.106-.074c-.236-.076-.44-.232-.58-.373zm64.612.28c-1.09 0-1.764-.962-1.764-2.51 0-1.34.592-2.17 1.542-2.17 1.153 0 1.755 1.267 1.755 2.52 0 1.413-.53 2.16-1.533 2.16zm-30.298-4.63l.07.008c.622.043.684.167.712.34.03.223-.014.626-.014 1.536v.54c0 1.4-.45 2.076-1.45 2.076-.93 0-1.366-.667-1.366-1.976v-1.63c0-.826-.017-.826.68-.884l.088-.01v-.535h-2.816v.537l.076.01c.723.055.693.056.693.885v1.863c0 .997.288 1.637.776 2.02.4.314.98.47 1.67.47.71 0 1.33-.232 1.74-.64.6-.596.68-1.5.68-1.98v-.746c0-.926.07-1.32.09-1.535.03-.15.19-.31.75-.34l.19-.006v-.54h-2.56v.536zM46.946 135.2l.505-1.364.52 1.365h-1.02zm-36.253 0h1.026l-.53-1.364-.506 1.365zm-8.123-.186c-.228 0-.52-.05-.52-.085v-1.894c0-.293-.04-.293.447-.293.534 0 1.172.188 1.172 1.09 0 1.065-.78 1.18-1.1 1.18zm19.29-.28c-.19.118-.434.21-.743.21h-.38v-1.98c0-.045-.023-.17-.008-.19.03-.03.25-.03.4-.03.54 0 1.106.29 1.106 1.05 0 .33-.124.767-.386.94zm76.93 0c-.186.118-.43.21-.738.21h-.516v-1.98c0-.22.044-.22.484-.22.26 0 1.132.094 1.132 1.05 0 .333-.097.767-.36.94zm-66.347-2c-.026-.002-.062-.015-.164-.03l-.28-.04v-.53h2.3v.534l-.067.015c-.5.06-.687.104-1.234.52-.3.233-.94.793-1.55 1.353.793.917 1.646 1.8 2.007 2.15.45.435.643.5.987.543l.11.01v.5h-1.71l-.054-.03c-.14-.152-.44-.453-.772-.82-.515-.563-1.047-1.242-1.56-1.653v1.12c0 .813.1.814.82.87l.205.01v.502H28.41v-.5l.23-.01c.654-.057.793-.06.793-.874v-2.82c0-.816-.107-.816-.82-.873l-.206-.01v-.537h2.818v.535l-.1.01c-.675.06-.667.06-.667.875v1.054c.514-.443 1.35-1.275 1.698-1.62l.165-.13c.05-.057.1-.1.12-.13zm45.637-.06l.064.01c.747.055.705.055.705.87v.88h-2.56v-.88c0-.816-.03-.816.68-.874l.08-.01v-.535h-2.81v.54l.063.01c.745.056.704.056.704.87v2.82c0 .814.02.815-.7.87l-.076.01v.503h2.817v-.5l-.097-.01c-.666-.055-.67-.057-.67-.87V135.2h2.56v1.173c0 .813.04.814-.706.87l-.063.01v.502h2.82v-.503l-.08-.01c-.698-.052-.688-.055-.688-.87v-2.82c0-.812-.026-.812.685-.87l.083-.01v-.536h-2.81v.538zm39.856-.638l-.005-.156h-.34l-.04.07c-.12.14-.13.183-.31.183h-3.74c-.2 0-.25-.04-.35-.18l-.04-.075h-.345l-.004.158c-.007.236-.03.54-.054.86-.02.248-.04.566-.054.843l-.005.184h.53l.02-.14c.09-.37.185-.57.294-.69.107-.11.31-.19.995-.19h.212v3.474c0 .814.057.815-.715.87l-.05.01v.503h2.815v-.504l-.034-.01c-.805-.053-.734-.054-.734-.87v-3.47h.366c.464 0 .74-.005.872.12.116.118.19.296.28.75l.02.094.546-.053-.01-.15c-.045-.51-.095-1.28-.107-1.626zm7.504.1v.53l.505.067c.097.01.165.02.185.02.006 0 .02 0 .02-.003 0 .02-.007.07-.076.215l-.107.23c-.185.376-.448.928-.72 1.416-.344-.57-.955-1.62-1-1.714-.047-.1-.058-.135-.068-.135.01-.004.1-.02.19-.03l.55-.064v-.53h-2.816v.53l.124.014c.52.06.566.064.85.544l.154.25c.463.768.77 1.258 1 1.664.147.25.175.3.175.5v.737c0 .806-.054.813-.86.87l-.164.01v.5h3.072v-.502l-.026-.01c-.828-.055-.747-.056-.747-.87v-.867c0-.146-.05-.206.127-.525.39-.676.726-1.26 1.07-1.753.304-.44.37-.487.953-.54l.154-.014v-.535h-2.56zm-92.997.598h.002zm37.498-.698v-.16h-.34l-.032.07c-.12.14-.136.184-.312.184h-3.74c-.203 0-.255-.038-.357-.18l-.04-.075h-.35l-.003.155c-.005.244-.027.557-.054.886l-.055.818-.006.185h.53l.025-.14c.09-.38.184-.57.295-.693.102-.11.304-.19.99-.19h.336v3.475c0 .813-.088.816-.845.87l-.174.01v.502h3.072v-.503l-.164-.01c-.8-.055-.86-.056-.86-.87v-3.47h.498c.466 0 .743-.007.877.12.115.12.19.297.28.747l.02.095.546-.052-.01-.15c-.05-.53-.1-1.31-.11-1.624zm-6.7-35.372l-1.944 2H57.92l-1.85-2v-1.58h2.304v1.02h2.305v-4.6h-2.76l-1.85-2.076V83.65l1.85-1.857h3.37l1.944 1.856v13zM89 94.692L64.107 69.86 39.22 94.697l-1.015-1.012L63.1 68.85 38.205 44.01l1.015-1.004 24.888 24.838L89 43.006l1 1.003-24.883 24.84L90 93.68l-1.002 1.01zm-30.63-10.35h2.304v4.6H58.37v-4.6zm13.823 5.08l-.73.726.73.727v5.774l-1.897 2h-3.413l-1.858-2v-1.58h2.304v1.03h2.56v-4.6h-1.8v-2.555h1.79v-4.6h-2.56v1.023h-2.3v-1.72l1.86-1.858h3.412l1.897 1.856v5.77zm-34.343-8.91h-5.367l-.65-3.32h1.704v-16.61h-1.705l.65-3.32h5.368l.69 3.32h-1.675v7.724l4.665-7.723h-1.687l.69-3.32h5.29l.728 3.32h-1.68l-4.02 7.29 4.026 9.317h1.686l-.73 3.32h-5.29l-.69-3.32h1.687l-2.526-6.01-2.14 3.287v2.724h1.675l-.69 3.32zm55.542-3.32h1.688l-.69 3.32h-4.984l-.65-3.32h1.302l-1.688-4.17-1.686 4.17h1.38l-.69 3.32h-5.02l-.69-3.32h1.686l3.334-8.285-3.334-8.324h-1.687l.69-3.32h5.022l.69 3.32h-1.38l1.685 4.207 1.688-4.206h-1.303l.65-3.32h4.984l.69 3.32h-1.69l-3.34 8.322 3.333 8.284zM60.39 58.8h7.32l.69-3.323h-2.608v-20.18h-3.41L60.16 38.66v2.51h2.304v14.307h-2.766l.69 3.322zm43.62 27.22c-2.3-.458-3.258-1.3-3.258-1.3-.535-.458-.727-.917-.727-1.414.306-2.334 2.3-2.755 5.288-3.443 4.83-1.11 3.144-4.55 3.144-4.55s6.133-4.82 7.054-6.04c1-1.262.73-1.262-.38-1.8-1.11-.572-2.53-2.064-2.53-2.064 1-1.377 2.92-9.793 3.22-11.744.27-1.913 1.77-2.755 1.77-3.56 0-.842-8.663.536-8.663.536s6.44-12.435 5.905-13.39c-.536-.957-4.41 2.18-4.41 2.18s-4.56.42-6.093 1.952c-1.496 1.49-4.6 1.644-5.828 1.644-1.266 0-1.84 3.1-3.834 3.1-2.03 0-.766-7.307-.766-7.307s-.764-2.716-2.144-1.072c-1.228 1.11-4.754 1.53-6.326 2.756-1.268.994-1.92 2.295-3.108 3.137-2.797 1.837-4.867 3.1-6.055 2.448-2.3-1.337 2.836-8.032 3.22-9.295l.765-4.21c-.23-3.825 2.685-11.055 2.685-11.055-4.6 1.914-6.134 5.396-8.818 4.59-2.682-.763-2.068-5.09-2.068-5.09-.116-7.15-4.83-10.976-4.83-10.976S64.756.404 63.914.366c-.884-.035-1.074 4.17-1.994 6.47-.994 2.293-3.68 7.19-3.68 7.19s-2.335-.154-2.452 7c0 0-.038 4.095-1.187 4.477-1.11.387-6.17-1.144-8.7-4.014 0 0-1.53 5.93 2.61 11.286 0 0-1.34.69-.92 1.913.388 1.262 6.29 10.06 3.95 11.4-1.19.65-2.8-1.148-5.56-2.984-1.222-.843-1.91-2.144-3.14-3.14-1.57-1.223-4.6-1.528-5.787-2.638-1.38-1.645-1.304 1.033-1.304 1.033s.192 8.073-1.57 8.11c-1.84.077-2.684-3.442-3.948-3.442-1.226 0-5.253-.152-6.75-1.644-1.494-1.493-6.093-1.95-6.093-1.95s-3.833-3.138-4.37-2.22c-.575.994 5.865 13.428 5.865 13.428s-8.623-1.373-8.623-.53c0 .8 1.457 1.643 1.763 3.556.27 1.95 2.224 10.33 3.144 11.743 0 0-1.38 1.494-2.454 2.068-1.113.575-1.38.575-.423 1.8.96 1.224 7.017 6.044 7.017 6.044s-1.61 3.444 3.22 4.554c2.99.69 4.986 1.11 5.25 3.404.388 4.48-7.47 4.134-9.39 5.358.616 1.3 5.6 5.89 9.815 4.056 0 0 .384-.154.958-.31 0 0 4.22-1.53 3.414 2.53 0 0-1 3.67-1.61 4.704-.384.575-.193.88.036 1.035.573.307 1.954.69 4.254-.382 1.19-.573 2.146-.955 2.913-1.223l.154-.08c.15 0 .46-.114.84-.23.23-.075.518-.075.82-.152 2.15-.496 10.72-2.37 8.415 3.367v.076c-.77 1.684-.82 2.6-.287 2.83.036.078.124.18.24.217l.163-.013h.04s.114-.05.19-.126c.038 0 .077-.13.153-.13h.04c.114 0 .27-.16.383-.237 0 0 2.72-1.69 8.47-1.84 1.802 0 2.953-.31 3.45-.005.077.15.154.302.19.53.04.116.04.268.04.46.077.84.154 2.22.154 3.9 0 1.76-.04 3.674-.116 5.28-.04.765-.115 1.49-.154 2.22-.078.612-.19 1.223-.27 1.76-.076.46-.076.84-.114 1.222-.04.153-.04.305-.117.497-.113 1.644-.305 2.716.154 3.02.345.23 1.497.344 2.606.344 1.075 0 2.07-.115 2.533-.27 0 0 .11-.04.15-.075.31-.23.31-.804.23-1.722 0 0 .334-1.375.18-3.02-.383-2.028-.657-4.476-.657-6.885v-2.524c0-1.683.046-3.06.083-3.9 0-.154.022-.307.06-.46.04-.19.07-.38.146-.498.534-.304 1.68-.037 3.483 0 5.75.117 8.43 1.76 8.43 1.76.153.074.305.187.38.187h.078c.08.255.08.127.154.165.08.04.12.09.156.09h.08c.037 0 .113.068.19.068.115 0 .21-.082.287-.12.498-.27.3-1.19-.212-2.875v-.074c0-.533-1.82-3.556.98-4.283 1.99-.496 8.422 2.26 8.536 2.296 0 0 1.798.536 3.945 1.07 2.452.534 3.68.15 4.214-.23.227-.155.15-1.035-.31-1.57-.23-.267-.46-.69-.653-1.15-.035-.114-2.72-6.045 1.037-5.36 6.745 1.267 9.66-.76 10.5-1.564.08-.077.193-.154.307-.268 1.072-1.186 1.84-2.45 1.762-3.06-.077-.995-3.144-1.15-5.675-1.646z"/></svg>