<svg viewBox="0 0 128 48" xmlns="http://www.w3.org/2000/svg" fill-rule="evenodd" clip-rule="evenodd" stroke-linejoin="round" stroke-miterlimit="1.414"><path d="M41.234 22.717s2.192-5.782 5.455-8.715c3.05-2.934 3.51-2.067 1.86.58-1.53 2.518-5 7.394-7.32 8.135zm-37.76.084c2.766 0 4.295-2.39 5.328-3.59.58-.62 2.438-3.01 3.307-3.8.86-.74 1.81-.33.99.79-.62 1.24-2.36 4.627-6.74 8.387C-.37 30.03.17 31.52 0 33.047c0 .498-.123 2.975 2.894 2.975 3.842 0 6.487-4.996 8.264-7.683.082-.46 7.105-13.43 7.682-14.178.54-.782 4.382-6.402 4.382-6.9 0-.37.247-1.362-1.488-1.362-1.9 0-3.183 1.53-5 2.85-1.9 1.16-3.346 2.066-7.064 3.927C3.637 15.69.746 17.8.746 20.403c0 2.644 2.727 2.395 2.727 2.395zm12.516-2.06c.87 1.98-.248 4.75-.867 5.87-.66.87-2.147 3.64-2.147 7.6 0 4.22 2.147 5.62 5.287 5.62 3.47 0 3.265-2.15 3.265-2.15-2.355-.163-2.273-4.54-.87-8.51 1.78-5.58.168-9.05.168-9.05 6.072-2.44 17.89-11.45 17.89-16.53 0-1.94-1.448-3.1-2.604-3.1-1.446 0-2.767.54-4.708 3.226C21.28 17.68 17.396 18.05 17.396 18.05l-1.406 2.687zm7.356 9.09c-2.067.42-2.688.83-2.688 2.44.168 1.94 3.678.62 3.678.62 0 .91 1.158 2.23 4.007 2.23 3.885 0 7.85-3.304 7.85-3.304 0 1.076 2.19 3.308 4.63 3.308 4.047 0 8.303-3.306 8.303-3.306 0 1.986 1.942 3.968 3.968 3.968 5.743 0 5.123-5.95 5.123-5.95-4.587 1.45-3.76-2.352-3.76-2.352 8.387-6.9 14.832-17.02 14.832-21.277 0-1.817-1.49-3.47-3.93-2.065-13.76 7.68-16.24 22.47-16.24 22.47-1.57 1.737-4.09 3.018-5.87 3.018-1.734 0-1.734-1.86-1.734-1.86C49.12 21.82 54.74 12.193 54.74 8.97c0-1.94-1.61-3.057-3.965-1.94-11.984 4.792-14.958 20.45-14.958 20.45-5.495 4.794-6.694 2.77-6.694 2.77 4.13-2.108 6.403-6.2 6.403-9.298 0-1.9-1.324-3.35-3.18-3.018-8.595 1.98-9.008 11.898-9.008 11.898zm31.564-8.02s2.438-6.24 5.785-9.62c2.81-3.017 3.428-2.026 1.818.62-1.53 2.602-5.454 8.303-7.603 9.007zm-26.896 5.66s.33-2.89 1.404-4c1.986-2.357 2.81-1.82 1.49.783-.416.786-.787 1.86-2.894 3.223zm41.358-8.43c-6.528.87-10.287 7.568-10.287 11.618 0 3.016 1.734 5.122 5.164 5.122 7.89 0 10.65-12.643 10.65-12.643 1.073.578 4.34.578 4.34.578-2.19 1.78-4.17 4.628-4.17 6.737 0 2.23 1.484 3.593 3.47 3.593 2.104 0 4.42-1.615 4.42-1.615-.33 1.117-1.325 2.23-1.325 2.23-11.858 2.85-13.345 8.925-13.345 10 0 1.447 1.488 2.603 3.43 2.603 6.487 0 13.47-10.33 13.47-10.33 4.876-1.156 6.695-5.906 6.695-5.99 0-.7-.664-1.115-1.49-.29-1.86 1.49-2.52 1.49-2.52 1.49 3.635-4.384 6.032-9.878 6.032-10.747 0-.824-.29-1.94-1.696-1.94-2.19 0-4.13 3.595-5.245 5.413-1.488 2.393-3.14 4.625-4.338 4.625-.994 0-1.16 0-1.16-1.445 0-2.024 4.34-5.25 5.99-6.074 1.78-.87 1.78-1.158 1.78-1.737 0-1.2-.54-1.447-1.78-1.447-1.072 0-3.14.91-3.14.91-5.987 2.894-10.324.21-10.324.21-1.53.33-2.604 1.776-2.604 1.776-.127 4.914-3.97 8.343-4.837 8.22-.702-.083-1.197.332-1.197-1.57 0-3.884 4.625-6.36 5-6.65.534-.293.907.29 1.03-1.117 0-1.65-2.023-1.53-2.023-1.53zm9.047 20s-.58 2.23-3.52 3.93c-1.364.702-2.026-.248-.994-1.158.662-.784 2.852-2.767 4.504-2.767zm24.62-3.1c1.4-.37 7.6-5 7.6-5-.085 1.74-.37 5.75 4.5 5.75 7.974 0 9.75-9.545 9.13-12.106-.247-2.147.62-3.183 1.985-3.183 1.487 0 1.735-.824 1.735-2.19 0-1.53-2.07-2.602-4.214-1.61-4.79 1.982-17.52 12.435-17.52 12.435 3.43-4.87 3.804-5.78 3.804-6.564 0-.87-.247-1.82-1.527-1.82-2.357 0-3.06 1.158-4.215 3.06-1.363 2.436-3.056 4.215-4.006 4.215-1.157 0-1.24 0-1.24-1.45.205-2.89 4.42-4.873 6.982-5.823 1.9-.7 1.693-1.07 1.693-1.815 0-1.033-.58-1.24-1.82-1.118-3.635.086-13.22 5.166-13.51 11.53 0 2.19 1.57 3.635 3.595 3.635 2.19 0 4.298-1.61 4.298-1.61-.167.99-1.24 2.313-1.24 2.313-11.115 2.563-12.19 8.223-12.19 10 .084 2.107.786 2.933 2.812 2.933 7.146 0 13.26-11.487 13.26-11.487l.084-.082zm-6.2 2.73s-1.78 2.85-4.01 4.3c-1.323.827-2.15-.165-.95-1.158.62-.784 3.18-3.14 4.956-3.14zm17.144-10.08l6.032-4.88s.123 4.71-1.984 6.53c-.908.87-1.817 1.28-1.86.54-.163-.743-.163-2.19-2.19-2.19zm2.026-17.77c-2.357 0-3.47 1.99-3.39 2.98.206 1.076.206 1.61.868 2.024.743.374.743 1.777.165 1.984-.167.126-.37.785-.29.993 0 .66.123.783 1.156.66 1.65 0 4.626-3.51 4.626-5.743 0-2.894-3.14-2.894-3.14-2.894z" fill-rule="nonzero"/></svg>