<svg viewBox="0 0 128 11" xmlns="http://www.w3.org/2000/svg" fill-rule="evenodd" clip-rule="evenodd" stroke-linejoin="round" stroke-miterlimit="1.414"><path d="M120.195.982v3.53c-.645-.307-2.15-.583-3.1-.583-1.504 0-4.758.52-4.758 3.31 0 3.01 3.193 3.44 4.45 3.44 1.26 0 2.702-.19 3.408-.59v.583h4.91V.983h-4.91zM74.492 4.358v6.323h5.28V7.49c0-.738.614-1.168 1.166-1.168 1.013 0 1.105.062 1.105 1.29v3.07h4.91V6.628c0-1.228-.552-2.685-3.192-2.64-1.81.03-3.43.614-3.99.92v-.552H74.5zm-51.6 6.323V4.36h-5.155v6.323h5.156zm87.73 0V4.36h-5.157v6.323h5.157zM99.078 0h-6.69c.305.06.827.89.674 1.227l-5.157 9.454h2.886l1.2-2.39h4.45l1.17 2.4h6.66L99.08 0zm-30.69 9.024c-.767 0-1.78-.154-2.18-1.32h7.06c0-1.443-.614-4.113-5.83-4.144-3.132 0-6.263 1.044-6.293 3.622-.03 2.578 3.376 3.5 6.537 3.5 3.16 0 4.574-.492 5.003-.8l.277-1.472c-.615.276-2.24.674-4.574.614zM45.61 4.91c-1.166-.705-2.547-.98-4.604-.98-2.056 0-5.77.89-5.77 3.467 0 2.578 3.254 3.498 5.34 3.498 2.088 0 4.543-.46 5.034-.797v-1.78c-.614.368-5.034 1.227-5.034-.83 0-1.104 1.78-1.35 2.303-1.35.52 0 2.27.246 2.73.583V4.91zm-20.687-.552v2.087h1.72V8.47c0 .922.736 2.21 3.068 2.21 2.34 0 3.2-.49 3.99-.797V8.348c-.36.123-2.14.86-2.14-.613v-1.29h2.14V4.358h-2.144V2.332h-4.91v2.026h-1.72zm95.272 3.223c0 .25-.522.62-1.075.62-.525 0-1.75.127-1.75-1.04 0-.86 1.29-1.196 1.69-1.196.398 0 1.135.09 1.135.706v.92zm-27.24-1.22l1.395-2.8 1.168 2.796h-2.563zm-25.55-1.08c.707 0 .983.34.983.98H66.24c.03-.52.43-.98 1.166-.98zM47.33.98v9.7h5.278V7.488c0-.738.614-1.045 1.167-1.045.552 0 1.105-.184 1.105 1.166v3.07h4.91V6.63c0-1.044-.43-2.537-3.07-2.58-1.933-.03-3.467.523-4.112.86V.982h-5.28zM0 0v10.68h5.586V7.428c.43 0 1.258-.276 1.934.768l1.565 2.486h6.875l-3.07-4.85c-.428-.612-.582-1.226-2.178-1.38L14.642 0h-3.96L7.67 3.775c-.336.4-.183.767-2.086.767V0H0zm107.983 3.75c1.438 0 2.603-.66 2.603-1.476 0-.815-1.165-1.476-2.603-1.476-1.44 0-2.605.66-2.605 1.476 0 .815 1.166 1.475 2.605 1.475zm-87.73 0c1.44 0 2.605-.66 2.605-1.476 0-.815-1.166-1.476-2.604-1.476-1.44 0-2.605.66-2.605 1.476 0 .815 1.16 1.475 2.6 1.475zm107.445-2.28c-.203-.2-.447-.302-.733-.302-.285 0-.528.1-.73.302-.2.202-.302.445-.302.73 0 .288.1.533.3.734.2.204.445.305.732.305.286 0 .53-.1.733-.31.202-.206.303-.45.303-.737s-.1-.53-.3-.73zm-.103 1.365c-.173.174-.383.262-.63.262s-.457-.09-.63-.263c-.172-.176-.26-.387-.26-.635s.088-.46.26-.63c.175-.18.385-.27.63-.27.246 0 .456.086.63.26.173.174.26.384.26.63s-.087.46-.26.635zm-.17-.084c-.004-.01-.008-.03-.01-.06l-.002-.08v-.08c0-.055-.02-.114-.062-.174-.04-.06-.1-.097-.19-.11.07-.012.13-.03.168-.056.074-.048.11-.123.11-.225 0-.146-.06-.24-.175-.29-.066-.027-.17-.04-.31-.04h-.4V2.77h.2v-.45h.16c.106 0 .18.01.22.036.074.042.11.13.11.26v.09l.004.038v.012l.003.01h.187l-.005-.013zm-.307-.6c-.042.02-.106.03-.19.03h-.18v-.41h.17c.11 0 .192.02.242.047.05.027.074.083.074.166 0 .087-.04.146-.117.177z"/></svg>