<svg viewBox="0 0 128 47" xmlns="http://www.w3.org/2000/svg" fill-rule="evenodd" clip-rule="evenodd" stroke-linejoin="round" stroke-miterlimit="1.414"><path d="M127.746 41.293h-1.933v1.322h1.73v.713h-1.73v1.78h2.19v.712h-3.258v-5.34h3v.813zm-9.664-.458l-.254.56c-.46-.102-.71-.306-.916-.306-.407 0-.66.2-.66.66 0 .05.253.51.965.96.763.61 1.07 1.22 1.07 1.78 0 .354-.205.61-.46.863-.458.357-.915.46-1.322.46-.713 0-1.17-.1-1.627-.46l.458-.51c.456.053.71.256.966.256.61 0 .915-.203.915-.61 0-.306-.1-.56-.457-.71l-.713-.66c-.61-.51-.863-.97-.863-1.376 0-.458.152-.814.405-.916.3-.356.71-.46 1.17-.46.61 0 1.06.104 1.32.46zm-8.392-.355v5.34h-1.17v-5.34h1.17zm-3.358.813v4.527h-1.17v-4.527h-1.677v-.813h4.424v.813h-1.58zm7.68-.458l-.457.56-.864-.306c-.45 0-.61.2-.61.66 0 .05.26.51.87.96.717.61 1.17 1.22 1.17 1.78 0 .354-.1.61-.56.863-.35.357-.76.46-1.32.46-.61 0-1.07-.1-1.473-.46l.253-.51 1.222.256c.458 0 .71-.203.71-.61l-.252-.71-.813-.66c-.713-.51-.966-.97-.966-1.376 0-.458.1-.814.46-.916l1.324-.46c.46 0 .867.104 1.325.46zm-24.11-1.068h-1.728v5.34h1.73c.915 0 1.626-.254 2.236-.71.458-.46.714-1.273.714-2.138 0-1.58-.967-2.5-2.95-2.5zm-11.24 0l-2.187 5.34h1.068l.406-1.525h1.98l.4 1.526h1.374l-2.136-5.34h-.916zm-8.495 2.492c.71-.11 1.17-.51 1.17-1.33 0-.71-.61-1.17-1.577-1.17h-1.983v5.34h1.78c.713 0 1.17-.2 1.526-.46.407-.254.508-.61.508-1.07 0-.456-.1-.71-.45-.965-.253-.153-.51-.356-.964-.356zm2.29-2.5v5.34h1.27v-2.03h.51l1.07 2.185 1.168-.356-1.323-2.188c.61-.255.865-.713.865-1.424 0-1.07-.508-1.528-1.576-1.528h-1.98zm51.12 4.02c0 .71-.153 1.12-.61 1.573-.46.357-.917.46-1.426.46-1.52 0-2.23-.714-2.23-2.036v-3.3h1.018v3c0 1.016.408 1.627 1.22 1.627.715 0 1.17-.458 1.17-1.526v-3.1h.867v3.305zm-53.157-.2c0 .61-.255.912-1.017.912h-.56v-1.78h.56c.762 0 1.017.356 1.017.865zm21.262-1.326c0 1.322-.612 2.136-1.78 2.136h-.663v-3.91h.86c.963 0 1.58.61 1.58 1.78zm-4.68-2.493v5.34h-.866c-1.372-1.626-2.237-2.847-3.05-3.813V45.1h-.866v-5.34h.813l3.103 3.815v-3.82H87zm-8.75 3.307l.763-2.24.713 2.24h-1.475zm-4.527-2.594h.458c.51 0 .866.355.866.914 0 .61-.36.87-.87.87h-.46v-1.78zm-3.457.61c0 .304-.103.66-.255.71-.203.204-.458.204-.713.204h-.457v-1.52h.56c.61 0 .865.208.865.61zm3.915-22.84c-1.068 1.375-1.984 3.41-2.695 5.597l.458-6.002c.1-1.98-.458-3.05-1.933-2.85-.713 0-1.526.26-1.984.87-.41.46-.66 1.32-1.12 2.647-1.17 4.018-2.24 6.918-3.31 8.902-1.58 2.9-3.107 4.424-4.22 4.22-.46-.104-1.07-.46-1.53-.97 3.306-3.97 5.035-8.34 5.24-13.02.1-.866 0-1.78-.458-2.494-.358-.763-.765-1.322-1.476-1.78-.664-.408-1.324-.61-2.038-.763-.915 0-1.78.356-2.696.764-1.32.712-2.647 2.34-3.867 4.527-1.17 2.24-1.78 4.63-1.88 6.82-.153 2.7 0 5.09.71 6.92-.61.46-1.118.915-1.575 1.07-1.27.456-2.237.61-3.305.456-1.12-.203-2.034-.61-2.644-1.524l-.152-.254c1.22-1.17 2.188-2.645 3.257-4.274 1.07-1.93 1.574-3.71 2.032-5.49 1.066-4.68.202-7.325-2.647-7.782-1.425-.357-2.95 0-4.426.966-1.32.915-2.492 2.237-3.203 4.017-.76 1.68-1.22 3.51-1.473 6.105-.202 2.188-.202 4.223 0 5.85v.153c-.71.257-1.525.46-2.237.257-1.324-.05-2.393-.713-2.85-1.578l-.05-.254c2.186-3.106 3.763-6.666 5.136-10.634 1.475-4.627 1.932-8.594 1.322-11.952-.46-3.306-1.63-5.34-3.56-6.358-.712-.452-1.58-.452-2.392-.3-.71.102-1.422.458-2.034.915-1.32 1.12-2.646 2.9-3.816 5.29-1.32 2.744-2.184 5.592-2.54 8.492-.1 2.238-.1 5.087 0 8.342.357 3.356.764 5.747 1.22 7.07l-.15.1c-1.527.865-2.85 1.22-4.17 1.068-.97-.255-2.036-.916-3.105-1.933-1.32-1.425-2.29-3.206-2.745-5.44-.46-2.19-.36-4.12.45-5.904.408-1.067 1.375-2.49 3.053-4.63 1.627-1.83 2.747-3.1 3.408-3.507.867-.715 1.477-1.02 1.935-1.17.253 0 .51-.205.71-.61.154-.46.154-.97-.253-1.427-.813-.91-1.27-1.522-1.68-1.78-.71-.81-1.78-1.07-2.745-.86-1.27 0-2.236.407-3.1 1.323-.662.51-1.272 1.424-1.984 2.645l-6 9.767c-.356.408-.61.51-.864.51-.46 0-.817-.458-.817-1.323 0-2.95.15-5.39.61-7.374l.455-1.58c.152-.81.152-1.32.152-1.523 0-1.578-1.476-2.39-4.426-2.39-.762 0-1.68.354-2.644.913C.48 5.84-.13 6.756.022 7.72l.458 4.323c.207 1.883.207 3.56.207 4.883L.48 30.764v3.967c.205 1.68.46 2.6 1.07 2.85.966.41 2.187.72 3.56.87 1.577.206 2.29-.15 2.442-.71.204-.41 0-1.22-.153-2.19l-.46-3v-3.82c.2-1.32.81-2.032 1.68-2.032.71-.203 1.42.254 2.23 1.323l1.423 2.645c.407.712 1.22 1.577 2.086 2.645.712.913 1.63 1.625 2.34 2.236.762.713 1.932.967 3.51 1.12 1.525.203 2.85.203 3.916-.255 1.78-.81 2.9-1.32 3.61-1.93l.357-.256h.1c.817.712 1.53 1.323 2.39 1.73 1.07.458 2.038.712 2.85.712 2.75 0 4.68-.406 6.004-1.475l.204.15c1.578 1.625 3.51 2.39 5.393 2.39 1.78 0 3.254-.155 4.322-.41 1.17-.456 2.49-1.066 3.814-2.135l.253-.256.614.61c1.068.713 2.237 1.12 3.814 1.12 1.323.203 2.644-.15 3.917-.71.71-.41 1.575-1.22 2.643-2.19.868-1.07 1.58-1.932 2.037-2.85 0 2.95.203 4.68.255 5.495.456 1.424 1.525 2.034 3.05 1.578.66-.154 1.323-.612 1.576-1.02.255-.456.458-1.016.612-1.88.71-3.714 1.423-6.105 1.88-7.427 0 1.475.153 2.797.613 4.172.406 1.115.866 2.03 1.577 2.64.813.71 1.526 1.323 2.594 1.577.97.358 2.037.358 2.9 0l1.323-.456 1.17-.66.864 1.02c.92 1.016 1.78 1.626 2.648 1.88l2.24.155c.86-.154 1.676-.255 2.235-.612 1.478-.712 3.004-2.034 4.58-3.967 1.068-1.325 2.39-3.36 3.814-6.21.154 1.22.458 2.39.866 3.46l-2.19 3.814-1.63 3.104c-.66 1.117-1.12 2.186-1.58 2.9-1.066 2.236-1.22 4.016-.456 5.034.71 1.067 1.78 1.17 2.746.456 1.07-.714 1.78-1.78 2.137-2.9.1-.46.46-1.32 1.17-2.697.71-1.68 1.78-3.256 2.795-5.036 2.238 2.39 4.885 3.56 8.24 3.56 2.85 0 5.34-1.07 7.53-3.102 1.374-1.326 2.493-3.26 3.816-5.75.357-.61.458-1.17.357-1.628-.152-.408-.355-.764-.762-.866l-1.17-.153c-.457.154-.864.256-1.17.664-1.07 1.37-1.933 2.388-2.645 3.05-1.527 1.322-3 1.83-4.426 1.83-1.677 0-3-.253-3.915-.966-.715-.457-1.376-1.526-2.038-3 3.306-4.883 5.596-8.09 7.274-9.767l1.78-1.73 1.425-1.016c.408-.355.61-.61.765-.863.1-.356.302-.61.1-1.07-.1-.456-.51-.863-.968-1.32-.458-.46-.865-.713-1.678-1.07-1.326-.51-2.29-.457-3.105.357-.713.862-1.577 1.88-2.495 3.1l-1.78 2.746-2.9 4.324c-.454-1.68-.61-3.1-.61-4.32 0-2.24 0-3.358-.2-3.61-.05-.917-.862-1.375-1.83-1.375-1.07 0-1.982.306-2.643.713-.66.457-1.067 1.373-1.525 2.696-2.494 6.613-4.273 10.428-5.14 11.65L93.31 30.2l-1.423 1.424c-1.273 1.067-2.24.913-3-.256l-.104-.203c2.494-2.44 4.07-5.29 4.885-8.393 2.035-8.392.712-12.207-4.02-11.495-1.932.356-3.51 1.78-5.034 4.324-1.324 2.24-2.035 4.53-2.24 7.07l-.253 4.02c0 1.73.11 3.16.46 4.48-1.07.667-1.93.667-2.59 0-.66-.71-1.12-2.183-1.12-4.42 0-1.577.15-3.153.46-4.933.408-1.68.408-2.85.256-3.713-.103-1.17-.713-1.984-1.883-2.034-1.22-.205-2.39.507-3.51 2.186zM89.29 21.81c-.51 1.83-1.322 3.51-2.29 4.88-.457-2.236-.15-4.424.51-6.662.66-1.932 1.27-3 1.78-3.102.356-.152.46 0 .61.254l.204 1.07c-.203.965-.355 2.237-.813 3.56zm-31.84 1.426c-.304 1.07-.71 2.187-1.424 3.255v.21h-.203l-.152-1.68c0-1.42.36-3.1.77-4.73.46-1.78 1.02-2.44 1.63-2.39.41.2.714.46.612 1.27-.204.41-.46 1.73-1.222 4.07zm-12.97-1.78c-.356 1.067-.61 1.932-.865 2.39-.61 1.068-1.22 1.933-1.678 2.645h-.102c-.152-1.32.102-2.84.712-4.42l.713-2.182c.457-.713.864-.916 1.322-.662.458.205.356.917-.102 2.24zm78.383-.46c.713 0 1.323.358 1.78.816.46.457.51.864.51 1.576 0 .713-.05 1.17-.51 1.628-.457.407-1.067.763-1.78.763-.61 0-1.22-.36-1.68-.77-.456-.46-.71-.918-.71-1.63 0-.71.254-1.12.71-1.577.46-.458 1.07-.815 1.68-.815zm-1.322.917c-.45.407-.61.864-.61 1.475 0 .61.16 1.07.61 1.526.46.407.87.51 1.33.51.56 0 .97-.103 1.426-.51.458-.457.61-.915.61-1.526 0-.61-.153-1.068-.61-1.475-.457-.458-.864-.56-1.425-.56-.457 0-.864.102-1.322.56zm2.65.864c0 .46-.35.61-.86.815l.71 1.12h-.254l-.812-1.12h-.56v1.12H122v-2.646h1.118c.713 0 1.068.254 1.068.71zM34.31 9.502c-.154.814-.357 2.136-.61 3.866-.205.915-.61 2.238-1.17 4.018-.764 2.493-1.68 4.883-2.544 6.715l-.102-.5c-.152-.66-.152-2.24 0-5.086 0-2.187.255-4.68.865-7.223.71-3.103 1.42-4.527 2.34-4.527.86 0 1.32.863 1.22 2.745zm88.1 13.734h1.016c.152-.102.354-.306.354-.46 0-.253-.202-.456-.66-.456h-.712v.916z"/></svg>