<svg viewBox="0 0 128 54" xmlns="http://www.w3.org/2000/svg" fill-rule="evenodd" clip-rule="evenodd" stroke-linejoin="round" stroke-miterlimit="1.414"><path d="M107.588 18.38H96.996v6.364h10.284v3.74H96.996V37.3h10.592v3.736h-14.56V14.64h14.56v3.74zm-18.12 22.656H85.5V14.64h3.968v26.396zM81.54 16.688c-2.84-2.374-6.014-2.86-9.052-2.86-3.348 0-6.168 1.2-8.46 3.608-2.308 2.392-3.46 5.32-3.46 8.786 0 3.42 1.152 6.308 3.46 8.66 2.306 2.35 5.134 3.526 8.48 3.526 1.73 0 3.436-.046 4.646-.608.674-.28 1.374-.664 2.1-1.14.72-.476 1.486-.82 2.288-1.5v5.7c-2.81 1.6-6 2.16-9.092 2.16-4.66 0-8.632-1.62-11.92-4.874-3.28-3.276-4.924-7.232-4.924-11.86 0-4.152 1.376-7.854 4.12-11.104 3.38-3.98 7.748-5.972 13.104-5.972 2.928 0 5.988.324 8.72 1.904v5.57l-.01.004zM52.86 41.036l-2.774-6.424h-11.31l-2.944 6.424H21.228V14.64H25.2V37.3h8.08l11.33-24.352 12.61 28.088h-4.36zM64 .032C28.652.032 0 12.116 0 27.016 0 41.924 28.654 54 64 54c35.346 0 64-12.076 64-26.98S99.346.03 64 .03v.002zM40.432 30.876h8.024l-3.92-8.98-4.106 8.98h.002z" fill-rule="nonzero"/></svg>