<svg viewBox="0 0 64 64" xmlns="http://www.w3.org/2000/svg" fill-rule="evenodd" clip-rule="evenodd" stroke-linejoin="round" stroke-miterlimit="1.414"><path d="M53.794 27.682h-5.296v3.182h5.142v1.87h-5.142v4.408h5.296v1.868h-7.28V25.812h7.28v1.87zm-9.06 11.328H42.75V25.812h1.984V39.01zM40.77 26.836c-1.42-1.187-3.007-1.43-4.526-1.43-1.674 0-3.084.6-4.23 1.804-1.154 1.196-1.73 2.66-1.73 4.393 0 1.71.576 3.154 1.73 4.33 1.153 1.175 2.567 1.763 4.24 1.763.865 0 1.718-.023 2.323-.304.337-.14.687-.332 1.05-.57.36-.238.743-.41 1.144-.75v2.85c-1.405.8-3 1.08-4.546 1.08-2.33 0-4.316-.81-5.96-2.437-1.64-1.638-2.462-3.616-2.462-5.93 0-2.076.688-3.927 2.06-5.552 1.69-1.99 3.874-2.986 6.552-2.986 1.464 0 2.994.162 4.36.952v2.785zM26.43 39.01l-1.387-3.212h-5.655l-1.472 3.212h-7.302V25.812H12.6v11.33h4.04l5.665-12.176L28.61 39.01h-2.18zM32 18.508C14.326 18.508 0 24.55 0 32c0 7.454 14.327 13.492 32 13.492 17.673 0 32-6.038 32-13.49S49.673 18.507 32 18.507zM20.216 33.93h4.012l-1.96-4.49-2.053 4.49z" fill="#fff" fill-rule="nonzero"/></svg>