<svg viewBox="0 0 128 62" xmlns="http://www.w3.org/2000/svg" fill-rule="evenodd" clip-rule="evenodd" stroke-linejoin="round" stroke-miterlimit="1.414"><path d="M63.736 61.81c-5.615 0-9.843-4.35-9.843-10.118 0-5.886 4.136-10.167 9.84-10.175h.003c5.61 0 10.01 4.47 10.01 10.175 0 5.655-4.364 10.084-9.945 10.12h-.06zM29.04 42.856c-.307-.815-.89-1.166-1.96-1.183-.096-.003-5.04.005-5.04.005l-7.32 19.928h3.563c.306.023.592-.026.85-.14.692-.317 1.032-1.12 1.13-1.395 0 .01.996-2.77 1.065-2.95l7.363-.002 1.5 4.487h4.82l-3.06-9.7-2.91-9.043zm17.322 3.08c1.21-.08 2.226 0 3.186.263.515.17.98.2 1.374.09l.398-.18c.558-.345.957-2.096 1.145-3.105l.044-.236-.21-.146c-.05-.04-.21-.15-2.02-.637-1.645-.443-3.11-.497-3.83-.49h-.08c-4.126 0-10.342 2.724-10.52 10.225v.04C36.04 59.275 42.253 62 46.383 62l.077.002c.72.003 2.18-.055 3.83-.498 1.8-.483 1.96-.595 2.01-.633l.2-.14-.045-.24c-.188-1.01-.587-2.76-1.145-3.1v-.003l-.396-.173c-.398-.11-.86-.073-1.386.1-.956.258-1.97.34-3.194.26-3.126-.305-5.003-2.433-5.145-5.832.14-3.367 2.02-5.494 5.16-5.797zm17.517 11.43c-2.91 0-5.19-2.514-5.19-5.726 0-3.184 2.23-5.58 5.18-5.58 2.93 0 5.053 2.344 5.053 5.58 0 3.265-2.173 5.725-5.053 5.725zM27.55 53.02h-4.96c.536-1.465 1.87-5.172 2.437-6.672.49 1.513 2.512 6.622 2.525 6.67zm59.094-3.115l-.188-.055c.004.003-1.855-.563-1.86-.568l-.278-.1c-1.52-.548-2.598-1.008-2.598-1.892v-.065c.15-1.468 2.876-1.484 2.903-1.484 1.503 0 2.658.23 4.122.82l.03.01.063.02c.338.07.634.08.873.03l.408-.15c.58-.32 1.16-2.014 1.38-2.728l.073-.23-.18-.164c-.07-.068-.497-.42-2.047-.998-1.574-.59-3.81-.683-3.81-.683l-1.1-.005c-5.753 0-7.95 3.55-8.02 5.933-.05 2.375 1.306 3.597 3.35 4.71.855.472 2.417.907 3.55 1.224-.006-.006 1.17.343 1.17.343 2.145.676 2.964 1.42 2.81 2.58-.066.387-.79 1.02-2.436 1.02-1.25 0-2.383-.19-3.56-.6-.566-.227-1.15-.517-1.77-.884l-.03-.02-.063-.026c-.34-.127-.65-.18-.91-.16l-.454.1c-.66.246-1.58 1.923-1.948 2.632l-.147.28.25.2c.045.03 1.067.844 1.935 1.35 1.024.57 2.17.98 3.527 1.25.547.1 1.415.23 2.775.23 4.46 0 7.7-2.258 8.07-5.62.16-3.05-1.71-5.04-5.89-6.29zm39.272 11.69c.77-.016 2.077-.47 2.077-2l-.014-2.5-8.78.005s.01-2.864.01-3.34h7.247l-.013-4.607-7.224.008V46.3l6.657-.007c.18 0 1.175.003 1.713-.533.376-.377.393-1.063.393-1.42v-2.63h-13.81v19.906l11.74-.016zM96.18 41.702c-.186-.003-1.16.016-1.718.533-.257.236-.392.552-.392.91l-.003 3.152 6.082-.005v15.32l4.98-.003V46.29h3.91c.185 0 1.156-.022 1.717-.537.254-.242.393-.55.393-.912V41.7H96.18zm-85.475 15.4h-5.59L5.097 43.52c0-.565-.168-1.012-.508-1.325-.55-.51-1.35-.506-1.65-.5L0 41.69l.008 19.915h12.47l.01-3.165c0-.405-.173-1.337-1.78-1.337zm31.86-32.76L41.1 23.56s1.364-.743 1.658-.525c.29.218.02 1.485-.19 1.305zm3.26-.297l-1.468-.788s1.367-.735 1.66-.522c.294.217.016 1.496-.19 1.31zm3.236-.46l-1.47-.782s1.37-.74 1.667-.525c.29.223.01 1.496-.19 1.308zm-9.11-.395l-1.47-.78s1.37-.742 1.66-.527c.29.214.01 1.496-.19 1.307zm12.33-.638l-1.47-.776s1.37-.74 1.66-.526c.3.216.02 1.488-.182 1.302zm12.04-.13l-1.47-.792s1.37-.733 1.66-.515c.295.212.02 1.488-.19 1.306zm-2.88-.37l-1.47-.786s1.367-.74 1.66-.518c.29.214.02 1.487-.19 1.304zm-3.064 0l-1.47-.782s1.37-.744 1.66-.522c.29.214.016 1.487-.19 1.304zm-2.923-.045l-1.47-.784s1.366-.74 1.66-.524c.294.21.017 1.48-.19 1.3zm-12.173-.122l-1.47-.782s1.37-.736 1.66-.52c.29.215.02 1.49-.19 1.302zm3.19-.286L45 20.81s1.37-.743 1.66-.523c.287.21.01 1.487-.19 1.305zm-8.62-.12l-1.47-.79s1.37-.74 1.66-.525c.29.22.013 1.49-.19 1.31zm11.712-.52l-1.47-.787s1.37-.74 1.66-.524c.29.22.015 1.487-.19 1.31zm18.133-.405l-1.47-.774s1.37-.742 1.665-.53c.29.22.012 1.49-.194 1.305zm-27.08-.04l-1.47-.787s1.37-.736 1.66-.525c.294.216.018 1.49-.19 1.31zm24.227-.47l-1.47-.78s1.37-.74 1.66-.523c.294.22.01 1.49-.19 1.303zm-12.153-.08l-1.475-.78s1.37-.74 1.66-.524c.3.22.02 1.497-.185 1.306zm9.22-.362l-1.47-.787s1.367-.733 1.658-.524c.29.22.016 1.496-.19 1.31zm-6.06-.01l-1.472-.784s1.37-.746 1.66-.523c.29.21.015 1.49-.19 1.304zm-12.09-.04l-1.47-.785s1.37-.737 1.664-.52c.29.22.014 1.486-.19 1.303zm15.098-.095l-1.476-.78s1.374-.746 1.666-.525c.288.22.012 1.49-.19 1.306zm-23.64-.864l1.472.786c.202.183.48-1.09.19-1.308-.29-.217-1.655.515-1.66.52zm11.78.402l-1.47-.785s1.37-.734 1.663-.52c.29.217.018 1.488-.19 1.304zm-7.474-.664l-1.47-.785s1.37-.737 1.66-.52c.293.217.018 1.49-.19 1.306zm10.545-.06l-1.47-.78s1.37-.738 1.66-.524c.29.223.013 1.492-.19 1.307zm28.99-1.55c-.01.006-.46.41-.13 1.015 0 0 1.705-.21 2.12-.37.03-.01.055-.02.074-.03 0 0 .014-.284-.56-.65-.5-.32-.875-.305-1.125-.214-.25.086-.38.247-.38.25zm-13.666.904l-1.475-.78s1.37-.74 1.665-.527c.29.214.01 1.486-.19 1.307zm-23.07 0l-1.47-.782s1.366-.74 1.66-.522c.29.214.017 1.486-.19 1.307zm10.865-.187l-1.47-.78s1.37-.744 1.66-.53c.29.22.015 1.497-.188 1.31zm43.65 9.763c-.255-.337-.67-.47-.955-.6-.28-.13-.24-.404-.474-.483-.24-.08-.656.41-.982.31-.326-.11-.3-.717-.574-.806-.277-.09-.76.367-1.013.287-.253-.072-.303-.71-.55-.79-.24-.075-.757.38-1.01.3-.25-.085-.267-.707-.55-.8-.277-.084-.77.38-1.01.296-.25-.075-.277-.695-.544-.785-.27-.087-.768.37-1.018.286-.257-.084-.327-.72-.56-.797-.24-.076-.71.3-1.09.28-2.636-.247-3.645-1.906-3.825-1.416-.18.48.55 1.65 1.46 2.046.73.32 8.583 2.494 8.79 2.59.2.1.696.32.52.607-.274.368-1.04.005-1.236-.156-.2-.16-.154-.22-.34-.27-.42-.1-.654.67-1.1.567-.405-.09-.376-.905-.79-1-.452-.11-.657.662-1.09.56-.36-.08-.41-.91-.792-1.002-.44-.107-.64.667-1.1.56-.397-.094-.375-.902-.79-1.002-.413-.096-.7.654-1.092.566-.39-.09-.446-.92-.794-1-.357-.08-.638.34-1.116.402 0 0-1.375.374-3.547-1.896-2.18-2.265-3.07-2.705-4.31-1.782-2.024 1.508-3.28.51-3.646.064-.44-.514.02-.986.02-.986s.64.992 1.45 1.01c1.3.04 2.283-1.74 4.517-1.77 2.83-.102 3.567.903 4.34.983.717.07.956-.045 1.452-.333h-.006c.4-.14.75.632 1.17.476.446-.168.12-.95.6-1.13.447-.16.74.626 1.168.466.45-.166.164-.97.596-1.126.446-.16.706.63 1.167.462.464-.167.164-.96.587-1.12.435-.16.75.62 1.18.47.404-.147.172-.978.594-1.13.44-.157.72.626 1.19.454.384-.136.17-.968.57-1.12.397-.147.767.624 1.18.47.39-.144.16-.97.574-1.125.438-.16.775.61 1.19.464.408-.147.098-.813.63-1.08 0 0 .74-.242.693-.784-.008-.09-.16-1.25-1.377-1.494-1.17-.234-10.41 2.32-10.53 2.174-.85-1.68-1.94-1.214-2.107-1.176-.17.043-1.203.48-2.345.043-2.246-1.016-4.037 1.567-5.266 1.227-1.13-.32-1.997-.136-2.47.025-.436.15-1.14.715-2.633.202-11.533-3.94-20.55-.493-20.55-.493-5.083 1.696-5.734 0-5.734 0s-1.675-2.275 10.105-4.986C70.61 7.532 71.12 1.094 70.92.69c-.28-.59-.385.106-.943.745-.468.532-1.012.27-1.012.27-.532-.256-.873.352-.873.352s-.685 1.064-1.29.46c-.584-.584-1.357.73-1.646.783-.346.06-.514-.108-.98-.32-.694-.31-1.44.958-1.823 1.048-.585.134-.996-.69-1.5-.342-1.504 1.04-1.74 1.183-2.146.78-.3-.307-.343-.638-1.348.324-.86.82-1.27.974-1.61.452-.36-.525-.27-1.24-1.74.17-.7.673-1.06.686-1.464.383-.3-.227-.3-1.312-1.354-.33-.956.884-1.65 1.27-1.92.486-.3-.88-1.426.17-1.686.41-.27.25-.85.9-1.252.23-.404-.672-1.375.336-1.953.976-.444.497-.804.113-1.274-.202-.535-.365-2.134 1.867-2.28 2-.146.128-.257 0-.623-.31-.564-.477-2.082 2.175-2.328 2.35 0 0-.107.227-.52-.168-.59-.56-3.72 3.558-4.9 8.217-1.508 5.974.9 10.554.9 10.554s.722.023 1.03-.466l.47-1.054c.38-.88 1-.604 1-.604l-1.467 4.39c-.236.58-.096 1.397.42 2.17.486.778.82 1.303 1.21 1.665 1.197 1.13 1.075-.204 1.106-.37.14-.714.93-.165 1.552.176 1.125.634 1-.762 1.25-1.217.17-.326.723-.34 1.323.163.47.39.935-.935.935-.935.58-2.822-.79-3.15-1.53-3.19l-1.506-.07s.096-.43.253-.83l.067-.286c1.64-4.085-1.1-4.87-1.92-4.808-.9.08-.84-.495-.84-.495s4.95-.974 4.028 4.274c0 0-.182.914-.29 1.39l1.36.16c1.17.145 1.376 1.53 1.376 1.53s4.304 1.137 6.745.683c0 0 1.09-.26 1.394-.94 0 0 1.58-3.726 6.196-3.884 0 0 .16.482-.575.733-.882.3-3.83.532-4.44 3.917v.013c-.067.556.08 1.74 1.286 2.286 1.03.46 1.39 2.33 1.6 2.834.6 1.43 1.497.063 1.497.063s.567-1.155 1.053-.514c.82 1.08 1.203.537 1.39-.152.204-.743.502-1.066 1.363-.163.367.392 1.09.09 1.16-.583.153-1.48 1.15-.304 1.295-.247.17.067 1.215-.17.63-1.836 0 0-.79-1.587-4.354-2.273-.84-.16-.707-.765-.707-.765l.784.11c.237.04 2.31.27 2.53.304 8.694.858 15.29-2.09 15.488-2.302 6.753 1.294 15.936.853 17.66.232 1.73-.61 1.86-1.624 1.66-1.894zm-34.38-10.09l-1.468-.783s1.37-.735 1.66-.522c.288.217.013 1.49-.193 1.307zm-6.13-.08l-1.475-.784s1.37-.747 1.665-.524c.29.218.02 1.488-.19 1.306zm3.074-.14l-1.475-.78s1.37-.745 1.662-.524c.292.216.014 1.49-.19 1.305zm-22.257-1.33c.29.215.018 1.495-.192 1.307l-1.47-.78s1.37-.73 1.663-.52zm41.91 1.166zm3.838-.295c.143-.227.276-.356.398-.418.523-.3.858.63.794.664l-.02.008v.003c-.084.04-1.095.328-1.194.26-.2-.14.022-.523.022-.523zm-44.504-1.28s1.374-.744 1.66-.524c.294.217.018 1.49-.187 1.306l-1.473-.78zm4.21-.04l-1.473-.782s1.37-.743 1.66-.524c.295.22.014 1.5-.187 1.31zm-4.13-2.12c.29.213.018 1.488-.19 1.304l-1.465-.78s1.364-.74 1.658-.52zm2.547-.883c.29.217.016 1.487-.188 1.307l-1.47-.78s1.367-.743 1.657-.523zm2.986-.338c.29.217.017 1.495-.19 1.31l-1.473-.79s1.37-.736 1.67-.52zm.828-2.49c.29.217.02 1.493-.186 1.303l-1.47-.786s1.366-.74 1.657-.52zm-2.535.888c.292.217.017 1.487-.19 1.307l-1.473-.78s1.37-.74 1.662-.52zm4.933-1.7c.28.22.01 1.494-.2 1.306L45.57 9s1.37-.74 1.665-.526z"/></svg>