<svg viewBox="0 0 128 33" xmlns="http://www.w3.org/2000/svg" fill-rule="evenodd" clip-rule="evenodd" stroke-linejoin="round" stroke-miterlimit="1.414"><path d="M68.927 26.32l.046 2.144h-.18c-.09-.52-.34-.994-.677-1.286-.338-.34-.745-.52-1.15-.52-.295 0-.566.09-.746.27-.18.182-.294.385-.294.61 0 .113.046.272.113.384.06.113.24.294.42.43.135.088.496.29 1.015.563.723.338 1.24.723 1.49 1.038.247.317.405.7.405 1.107 0 .518-.25 1.015-.654 1.376-.403.36-.945.564-1.556.564h-.29c-.09 0-.204-.023-.294-.023-.18-.02-.408-.112-.68-.18-.134-.046-.29-.09-.382-.09-.048 0-.16.044-.227.067-.09.068-.18.16-.223.226h-.183v-2.437h.16c.138.7.43 1.218.814 1.58.362.34.813.52 1.242.52.338 0 .632-.092.836-.272.206-.15.34-.42.34-.65 0-.16-.066-.34-.16-.45-.064-.132-.2-.29-.335-.402-.16-.113-.476-.316-.883-.474-.562-.294-.99-.564-1.215-.744-.226-.18-.474-.428-.587-.654-.113-.25-.203-.542-.203-.835 0-.52.205-.946.566-1.284.34-.36.836-.563 1.424-.563.202 0 .43.023.61.09.112.02.314.113.52.225.112.023.203.09.27.09.046.024.136.068.18.068.07 0 .16-.044.18-.067.068-.068.114-.203.16-.406h.134zM44.08 29.976v1.805c0 .37.02.59.044.66.045.09.113.16.203.23.113.024.316.046.61.046v.18h-3.183v-.18c.27 0 .474-.022.564-.045.09-.07.18-.135.204-.203.067-.09.09-.314.09-.68V27.59c0-.36-.023-.587-.09-.655-.023-.09-.113-.18-.204-.227-.112-.068-.316-.09-.564-.09v-.18h2.754c.902 0 1.557.18 1.963.496.41.36.64.79.64 1.24 0 .406-.16.79-.382 1.082-.27.296-.654.52-1.105.634-.294.068-.836.09-1.535.09zm6.657 1.06h-2.302l-.27.633c-.023.11-.09.22-.09.29-.024.09-.046.2-.046.27 0 .16.09.31.22.36.07.07.29.11.63.11v.18h-2.14v-.18c.25 0 .43-.115.562-.25.136-.16.34-.498.542-.994l2.302-5.146h.09l2.32 5.305c.202.473.404.834.54.946.09.09.27.138.45.138v.18h-3.09v-.18h.11c.25 0 .43-.022.52-.068.07-.07.137-.16.137-.25 0-.045-.044-.11-.044-.158 0 0-.09-.16-.137-.36l-.316-.837zm5.484-1.06v1.805c0 .37.03.59.07.66.03.09.12.16.21.208.115.046.317.068.61.068v.18h-3.28v-.18c.295 0 .52-.02.587-.044.09-.07.182-.135.204-.203.06-.094.09-.318.09-.68v-4.2c0-.36-.03-.587-.09-.655-.03-.09-.12-.18-.21-.227-.11-.067-.316-.09-.587-.09v-.18h2.956c.79 0 1.352.07 1.714.18.34.114.632.317.857.61.227.294.364.655.364 1.017 0 .47-.18.9-.52 1.194-.202.18-.542.34-.9.45l1.532 2.17c.16.246.34.472.43.516.067.07.134.116.2.116.07 0 .18.02.27.02v.18H58.7l-2.076-2.91h-.406zm8.04 2.73v.18h-3.43v-.18h.208c.18 0 .34-.02.45-.067.07-.05.16-.12.204-.25.046-.05.07-.3.07-.57v-4.28c0-.32-.024-.546-.07-.61-.022-.05-.112-.14-.225-.207-.113-.068-.25-.113-.43-.113h-.202v-.18h3.43v.18h-.224c-.18 0-.36.046-.473.114-.068.023-.158.113-.204.226 0 .07-.02.293-.02.588v4.28c0 .318.022.54.022.61.023.046.113.135.226.203.115.048.27.07.45.07h.228zm-13.7-2.01l-.99-2.187-.97 2.18h1.966zm38.24-.97c-2.572.16-5.124-1.375-6.32-3.34-.157-.766 0-1.533.61-2.3 2.37.7 6.05 3.768 5.71 5.64zm-44.71-2.933v2.845h.225c.338 0 .676-.114.88-.362.225-.225.338-.587.338-1.06 0-.474-.112-.858-.315-1.084-.202-.226-.563-.34-.97-.34h-.16zm12.14 0v2.845h.27c.407 0 .745-.068.95-.114.202-.068.383-.248.496-.43.11-.225.2-.517.2-.855 0-.48-.11-.84-.34-1.07-.222-.25-.63-.386-1.08-.386h-.497zm56.766-3.882c1.286.59 2.12 1.27 3.227 1.95.61.77 1.037 1.717 1.625 1.535.25 0-1.623-1.94-.586-2.21.68-.587 2.12-.34 3.138-.09.95 1.534 3.34 3.158 2.146 5.303-2.82 1.107-5.552 2.123-8.26 3.047-2.236-3.41-4.876-7.65-8.962-9.187-.336-.27-.155-.61 0-.947 2.214-.857 5.464-.25 7.677.61zm-8.194-1.1c-6.3.16-12.1 1.11-18.22 1.45 2.8.496 4.18 3.136 4.856 5.53.07.43-.09.858-.43.947-2.3-1.873-4.692-4.175-6.657-6.32-4.513 0-9.186-.676-13.97-.766-.34.677-1.196 1.106-1.536.27C46 22.218 22.66 21.45 0 20.773v-.677c12.775-.18 24.963 1.287 38.257.587.587-.25 1.196-.25 1.693-.16l.763.43 45.592 1.104c1.624-.428 3.498-.61 5.37-.677.34-.52.858-.43 1.29-.09 3.744-.18 7.65-.43 10.99-2.64.677.855.925 2.12.834 3.16zm8.44.41c-1.6-1.534-5.19-.496-7.154-1.173-.52-.18-.584-.95-.765-1.806 2.64.858 6.05.09 8.014-2.55 1.286.248 2.55.52 3.926.677 1.194-.09 2.64-.496 3.23.768 1.28 1.017 2.21 1.626 3.312 2.73.36.77 1.536 1.108 1.13 2.055-.61.16-1.287.41-2.054 0-3.59-.856-6.657 1.785-9.636-.698zM68.5 7.3c-1.13-2.62-4.177-4.2-6.952-4.02-2.37.16-4.83 1.78-5.778 3.925-.813 1.94-.813 4.446.338 6.274 1.174 1.896 2.98 3.025 5.08 3.295 2.324.34 4.918-.653 6.477-2.503 1.443-1.875 1.827-4.696.834-6.976zm-47.285 9.12l4.266.02c-.42-.18-.79-.41-.97-.77L19.71 3.59l-5.44 10.9c-.248.768-.812 1.65-1.24 1.942h2.324c-.586-.18-.655-.812-.586-1.196l1.65-3.567h4.333l1.4 3.902c0 .452-.247.61-.924.836zm16.95-4.29c.204-.07.362-.23.362-.41V4.742c-.136-.497-.678-.858-1.31-1.106h3.453c-.428.045-.992.632-1.173.993l-.18 1.31-.045 10.514-10.067-10.63c-.18 0-.294.226-.27.474v8.76c.203.81.925 1.15 1.173 1.375l-3.295-.022c.564-.113 1.173-.767 1.286-1.354l.06-9.82c0-.77-.296-1.088-1.38-1.58h3.79l7.585 8.46zm14.897-7.54c.406.16.61-.206.767-.45v3.63c-.7-1.76-2.22-3.77-4.38-3.725-1.49-.135-2.96.7-3.86 2.01-1.42 2.21-1.4 5.032-.36 7.47.67 1.715 2.32 2.55 4.06 2.708 1.65.03 3.11-.9 4.24-2.09-.97 2.03-3.457 2.89-5.51 2.777-2.44-.16-4.854-1.94-5.78-4.244-.947-2.257-.496-5.146 1.152-6.93 1.63-1.74 4.205-2.668 6.62-2.193 1.06.2 2.053.652 3.046 1.036zm12.685 8.89c-.724 1.286-1.762 2.775-3.386 2.71-1.69.11-2.84-.815-3.65-2.146-1.24-2.71-1.04-6.635.726-9.073.586-.813 2.346-1.33 3.655-.926.768.18 1.49.407 1.94 1.15 1.695 2.506 1.49 5.554.725 8.284zM7.9 3.68c-.972.384-1.65.88-1.784 1.67v10.34c1.964.09 4.943.315 5.823-2.145l-.57 2.89H1.96c.858-.34 1.76-.88 2.01-1.536V5.33c-.09-.993-1.04-1.4-1.74-1.648H7.9zm113.955 11.985c-.52-.34-1.467-.34-1.467-1.197l.27-.856c.768.248 1.356 1.105 1.197 2.054zM114.09 5.352c-.18 3.07.52 6.388-.585 9.118 1.172-1.106 4.174-.52 5.71.587l1.444 1.196c-1.81.09-4.86.86-6.57-.586-.09-.52-.18-.858-.59-1.197-.7 2.032-3 4.086-5.127 4.424-1.783-.248-4.085-.586-4.176-2.21 2.302-4.086 5.19-9.12 9.885-11.332zm5.712 8.26v.25c-.86.338-1.445-.34-1.197-1.017.948-.247.948.18 1.197.768zM117.16 5.94c2.732 4.016 6.906 5.89 10.563 8.26 1.196 2.483-1.783 4.108-3.407 5.642-.926-.338-2.12-.948-2.46-2.054 0-1.195 2.46-2.053.767-3.318l-3.003-2.91c-1.444.7-2.798 2.234-4.333 1.285-1.286-1.963 0-4.266 0-6.297.586-.27 1.197-.857 1.873-.61zM75.136 3.68l4.13 9.39L83.6 3.68h3.046c-.428.203-1.354 1.04-1.264 1.602l1.195 10c.204.698.994 1.105 1.603 1.15h-4.468c.767-.43.902-.97.72-2.053l-1.126-8.19-4.876 10.33L73.58 6l-.925 9.276c-.023.68.677.994 1.15 1.15h-3.07c.656-.247.95-.65 1.153-1.67l.925-9.997c-.022-.407-.383-.79-.993-1.084h3.32zm-58.367 7.2l2-4.063 1.51 4.062h-3.52zm83.91-7.223l.07 2.573c-.21-.678-.91-1.783-1.81-1.783h-5.68l-.026 4.58h4.876c.497-.18 1.015-.676 1.173-1.172v3.09c-.317-.698-.7-1.15-1.332-1.217h-4.714v5.937l5.033-.023c1.22.068 1.94-.406 2.3-1.738l-.16 2.506H89.78c.678-.136 1.218-.768 1.31-1.423V5.464c.02-.857.067-1.4-1.153-1.806h10.743zm-33.34-.362L62.2 1.76l-5.147 1.4 3.93-2.434 2.37-.023 3.995 2.595z"/></svg>