<svg viewBox="0 0 128 35" xmlns="http://www.w3.org/2000/svg" fill-rule="evenodd" clip-rule="evenodd" stroke-linejoin="round" stroke-miterlimit="1.414"><path d="M23.687 34.7h8.743l-4.372-17.466-4.37 17.465zm14.593-5.63c-.23-.39-.53-.588-1.002-.588-.497 0-1.044.34-1.044.886 0 .49.48.746.87.896l.45.174c.885.348 1.548.837 1.548 1.882 0 1.134-.88 1.946-1.998 1.946-1.01 0-1.8-.746-1.93-1.748l.787-.165c0 .688.54 1.186 1.21 1.186.67 0 1.16-.57 1.16-1.22 0-.67-.54-.96-1.08-1.19l-.43-.18c-.71-.31-1.36-.71-1.36-1.588 0-1.01.898-1.616 1.84-1.616.7 0 1.27.34 1.61.945l-.62.373zm59.043 0c-.23-.39-.53-.588-1-.588-.5 0-1.046.34-1.046.886 0 .49.48.746.87.896l.448.174c.886.348 1.55.837 1.55 1.882 0 1.134-.88 1.946-2 1.946-1.01 0-1.797-.746-1.93-1.748l.788-.165c-.008.688.54 1.186 1.21 1.186.672 0 1.152-.57 1.152-1.22 0-.67-.538-.96-1.077-1.19l-.432-.18c-.71-.31-1.358-.71-1.358-1.588 0-1.01.895-1.616 1.84-1.616.696 0 1.268.34 1.606.945l-.62.373zm-5.046 5.065h-.946l-1.84-2.645h-.32v2.645h-.78v-6.25h.95c.56 0 1.15.008 1.65.29.525.307.82.895.82 1.493 0 .894-.595 1.64-1.5 1.748l1.975 2.72zm-28.988 0h-.78v-6.25h.89c1.92 0 2.52.663 2.52 1.807 0 1.317-1.008 1.824-2.19 1.824h-.45v2.62zM49.75 32.57l-.714 1.567H48.2l2.984-6.516 2.984 6.52h-.836l-.713-1.56h-2.87zm10.485 1.567h-.946l-1.84-2.645h-.33v2.645h-.778v-6.25h.944c.555 0 1.15.008 1.65.29.52.307.82.895.82 1.493 0 .894-.597 1.64-1.5 1.748l1.972 2.72zm8.03-6.25h3.358v.713h-2.58v1.748h2.505v.714h-2.5v2.362h2.578v.713H68.27v-6.25zm14.143 0h3.357v.713h-2.58v1.748h2.505v.714h-2.5v2.362h2.58v.713h-3.357v-6.25zm-8.24-.3l4.69 4.917v-4.617h.78v6.507l-4.69-4.916v4.66h-.78v-6.55zm-22.98 1.743l-1.11 2.528h2.22l-1.11-2.53zm37.98 1.516h.25c.794 0 1.656-.15 1.656-1.144 0-.978-.93-1.12-1.7-1.12h-.206v2.264zm-32.038 0h.25c.794 0 1.657-.15 1.657-1.144 0-.978-.93-1.12-1.7-1.12h-.208v2.264zm6.16-.025h.25c.793 0 1.655-.14 1.655-1.14 0-.98-.93-1.09-1.7-1.09h-.207v2.24zm-17.99-.41v-2.52h.78v6.25h-.78v-3h-2.976v3h-.778v-6.25h.778v2.52H45.3zm22.576-15.14l.43.34c1.51 1.17 3.326 2.13 5.265 2.13.83 0 2.16-.34 2.16-1.385 0-1.046-1.11-1.14-1.88-1.293l-1.69-.306c-3.293-.584-6.063-2.523-6.063-6.155 0-5.52 5.014-8.6 10.064-8.6 2.648 0 5.08.648 7.358 2.03L81.24 7.973c-1.448-.985-3.08-1.755-4.895-1.755-.738 0-1.817.278-1.817 1.232 0 .86 1.048.98 1.693 1.13l1.91.43c3.57.8 6.16 2.71 6.16 6.65 0 5.54-5.05 8.28-10.065 8.28-2.927 0-6.31-.8-8.93-2.126l2.587-6.556zM122.138 22c0-1.08.862-1.94 1.952-1.94 1.09 0 1.952.86 1.952 1.94s-.86 1.943-1.952 1.943c-1.09 0-1.952-.86-1.952-1.942zM16.06 23.66L24.69.776h6.86l8.63 22.882h-8.453l-2.956-10.41c-.32-1.122-.56-2.245-.56-3.398h-.18c0 1.153-.23 2.276-.56 3.4l-2.95 10.408h-8.46zm109.685-1.668c0-.916-.763-1.642-1.653-1.642s-1.653.726-1.653 1.642c0 .917.76 1.644 1.65 1.644.89 0 1.65-.727 1.65-1.644zM0 .37h8.434v15.76h7.08v7.447H0V.37zm125.018 22.67h-.36l-.636-.98h-.36v.98h-.298v-2.125h.927c.39 0 .76.105.76.563 0 .418-.29.573-.67.582l.647.98zm-.996-1.278c.264 0 .728.05.728-.29 0-.22-.29-.258-.52-.258h-.567v.548h.36zM40.93.37h8.095l7.573 12.866h.246c-.34-1.94-.708-3.94-.708-5.91V.368H64.2v23.207h-8.064l-7.42-12.188h-.245c.28 1.6.53 3.108.53 4.647v7.54h-8.07V.37zm44.632 23.207V.37h8.218l-.184 10.064h.184c.184-.954.708-1.784 1.17-2.616l4.063-7.45h14.244l2.584 6.065h.25c.25-.74.46-1.477.77-2.186L118.52.37H128l-7.942 13.203v10.003h-8.25V13.574l-5.897-9.62-4.95 7.712 8.034 11.91H99.2l-4-7.017c-.494-.9-1.234-1.76-1.418-2.71H93.6l.183 9.72h-8.217z"/></svg>