<svg viewBox="0 0 128 20" xmlns="http://www.w3.org/2000/svg" fill-rule="evenodd" clip-rule="evenodd" stroke-linejoin="round" stroke-miterlimit="1.414"><path d="M16.155 11.226c-.74 2.93-3.4 5.1-6.564 5.1-3.74 0-6.77-3.026-6.77-6.757 0-3.74 3.03-6.76 6.77-6.76 3.24 0 5.94 2.26 6.61 5.29h2.87C18.37 3.51 14.39 0 9.59 0 4.294 0 0 4.284 0 9.57c0 5.283 4.293 9.568 9.59 9.568 4.73 0 8.658-3.417 9.444-7.912h-2.88zM9.59 3.453c-3.385 0-6.13 2.738-6.13 6.116 0 3.37 2.745 6.11 6.13 6.11 3.386 0 6.13-2.74 6.13-6.12s-2.744-6.117-6.13-6.117zm88.09 7.853c.336.763 1.048.84 2.186.84.503 0 1.266-.29 1.266-.767 0-.53-.988-.63-1.565-.7-2.407-.32-5.263-.76-5.263-2.79 0-.84.615-1.66 1.642-2.15 1.046-.49 2.408-.65 3.676-.65 3.54 0 4.66 1.21 5.1 2.75h-3.638c-.372-.64-.642-.85-1.63-.85-.522 0-1.27.1-1.27.55 0 .45.935.63 1.42.71 1.213.16 2.5.35 3.618.73 1.25.45 1.904 1.102 1.904 2.04 0 2.063-3.06 2.89-5.71 2.89-2.685 0-4.586-.75-5.276-2.614h3.54zm-29.664 2.486l-1.866-3.275h-1.784v3.275h-3.16V5.216h5.89c1.12 0 2.352-.03 3.304.395 1.063.45 1.528 1.35 1.567 2.18.065 1.42-.55 2.42-2.16 2.69l2.086 3.32h-3.877zm47.422 0h-9.608V5.216h9.25V7.19h-5.796v1.25h4.596v1.914h-4.596v1.387h6.154v2.06zm-70.133 0h-9.61V5.216h9.25V7.19H39.15v1.25h4.6v1.914h-4.6v1.387h6.157v2.06zm-10.394 0h-8.97V5.216h3.11v6.475h5.87v2.11zm47.6 0H72.9V5.216h9.25V7.19h-5.8v1.25h4.6v1.914h-4.6v1.387h6.157v2.06zm39.998 0h-3.146V7.28h-3.077V5.215h9.244V7.28h-3.02v6.512zM9.59 5.546c-2.227 0-4.03 1.8-4.03 4.024 0 2.22 1.803 4.022 4.03 4.022 2.228 0 4.032-1.802 4.032-4.022 0-2.223-1.804-4.024-4.032-4.024zm0 .714c-1.832 0-3.316 1.482-3.316 3.31 0 1.827 1.484 3.31 3.316 3.31 1.83 0 3.317-1.483 3.317-3.31 0-1.828-1.486-3.31-3.317-3.31zm50.383 4.406c-.242 1.976-2.388 3.25-5.336 3.25-3.844 0-5.858-1.862-5.858-4.3 0-2.475 1.77-4.526 5.8-4.526 3.26 0 5.13 1.3 5.39 3.44l-3.66.123c.04-.725-.37-1.637-1.7-1.637-1.735 0-2.07 1.787-2.07 2.6 0 .862.335 2.326 2.11 2.326 1.21 0 1.68-.713 1.732-1.425l3.582.15zm33.364.063c0 1-.16 1.79-1.32 2.46-1.04.57-2.31.72-3.578.72-1.11 0-2.56-.176-3.49-.61-1.29-.6-1.54-1.417-1.54-2.44V5.21h2.99v4.96c0 .29-.02 1.066.23 1.328.28.277 1.235.44 1.71.44.424 0 1.34-.138 1.658-.338.477-.287.424-1.128.424-1.527v-4.86h2.907v5.513zM66.615 8.67c.858 0 1.886-.087 1.886-.825 0-.287-.22-.56-.61-.7-.333-.11-.742-.11-1.12-.11h-2.4v1.64h2.25zm60.31-3.47c.594 0 1.075.482 1.075 1.072 0 .59-.48 1.072-1.074 1.072-.59 0-1.074-.483-1.074-1.074 0-.59.483-1.07 1.074-1.07zm.742 1.073c0-.49-.304-.793-.74-.793-.435 0-.74.302-.74.793 0 .49.305.795.74.795.436 0 .74-.303.74-.792zm-1.175-.57h.43c.306 0 .492.077.492.35 0 .217-.126.297-.312.303l.297.5h-.29l-.266-.484h-.1v.484h-.26V5.714zm.262.47h.224c.108 0 .157-.035.157-.147 0-.114-.062-.125-.157-.125h-.224v.27z" fill="#231F20"/></svg>