<svg viewBox="0 0 64 64" xmlns="http://www.w3.org/2000/svg" fill-rule="evenodd" clip-rule="evenodd" stroke-linejoin="round" stroke-miterlimit="1.414"><path d="M0 42.667h64V21.334H0v21.333zm36.506-5.657c-2.466 0-4.398-1.837-4.398-4.243 0-2.38 1.945-4.244 4.428-4.244 2.466 0 4.398 1.837 4.398 4.244 0 2.38-1.945 4.243-4.428 4.243zm17.358 0c-2.466 0-4.397-1.837-4.397-4.243 0-2.38 1.945-4.244 4.428-4.244 2.465 0 4.397 1.837 4.397 4.244 0 2.38-1.945 4.243-4.428 4.243zM13.35 34.802H8.224v-8.596H5.94v10.666h7.41v-2.07zm14.532-6.28c-.945 0-2.02.44-2.677 1.317v-1.18H22.95v8.21h2.255V32.2c0-.84.65-1.735 1.858-1.735.933 0 1.9.65 1.9 1.735v4.672h2.253v-5.09c0-1.888-1.35-3.26-3.334-3.26zM58.6 35.898h-.364v-.207h.955v.21h-.36v.98h-.23v-.98zm.844-.207h.242l.357.56.357-.56h.234v1.19h-.218v-.84l-.365.57h-.02l-.36-.57v.842h-.22v-1.19zM20.55 34.35c-.948.702-1.49.87-2.356.87-.778 0-1.388-.242-1.818-.666l5.764-2.392c-.126-.89-.464-1.687-.984-2.292-.757-.88-1.88-1.345-3.243-1.345-2.48 0-4.35 1.83-4.35 4.245 0 2.478 1.875 4.244 4.598 4.244 1.53 0 3.09-.724 3.82-1.568l-1.42-1.096zm15.956-3.893c-1.26 0-2.173.954-2.173 2.312 0 1.29.968 2.31 2.203 2.31 1.26 0 2.174-.98 2.174-2.31 0-1.3-.97-2.32-2.204-2.32zm17.358 0c-1.26 0-2.173.954-2.173 2.312 0 1.29.97 2.31 2.21 2.31 1.26 0 2.177-.98 2.177-2.31 0-1.3-.97-2.32-2.204-2.32zm-6.623-1.793l-2.03 5.593-2.04-5.593h-2.58l3.38 8.207h2.47l3.38-8.21h-2.58zm-31.02 2.473c.39-.515 1-.818 1.74-.818.81 0 1.43.46 1.75 1.15l-3.94 1.63c-.107-.84.108-1.5.458-1.97z" fill="#fff"/></svg>