<svg viewBox="0 0 128 43" xmlns="http://www.w3.org/2000/svg" fill-rule="evenodd" clip-rule="evenodd" stroke-linejoin="round" stroke-miterlimit="1.414"><path d="M0 42.667h128V0H0v42.667zm73.01-11.313c-4.93 0-8.793-3.674-8.793-8.487 0-4.76 3.89-8.488 8.856-8.488 4.93 0 8.794 3.67 8.794 8.483 0 4.758-3.89 8.487-8.856 8.487zm34.72 0c-4.933 0-8.796-3.674-8.796-8.487 0-4.76 3.89-8.488 8.856-8.488 4.93 0 8.794 3.67 8.794 8.483 0 4.758-3.89 8.487-8.855 8.487zM26.7 26.936H16.45V9.746h-4.57v21.33H26.7v-4.14zM55.763 14.38c-1.89 0-4.04.876-5.355 2.63v-2.355H45.9v16.422h4.51v-9.344c0-1.682 1.303-3.47 3.717-3.47 1.866 0 3.796 1.298 3.796 3.47v9.344h4.51v-10.18c0-3.776-2.702-6.517-6.67-6.517zM117.2 29.127h-.73v-.414h1.912v.414h-.73v1.95h-.452v-1.95zm1.69-.414h.482l.714 1.12.714-1.12h.47v2.364h-.44v-1.68l-.728 1.135h-.047l-.73-1.136v1.68h-.436v-2.363zM41.1 26.028c-1.898 1.404-2.983 1.74-4.713 1.74-1.56 0-2.778-.483-3.638-1.332l11.524-4.782c-.25-1.783-.927-3.374-1.97-4.585-1.513-1.76-3.755-2.69-6.484-2.69-4.96 0-8.697 3.653-8.697 8.484 0 4.956 3.748 8.488 9.194 8.488 3.05 0 6.17-1.446 7.63-3.136l-2.85-2.193zm31.91-7.785c-2.52 0-4.346 1.91-4.346 4.624 0 2.592 1.936 4.623 4.407 4.623 2.52 0 4.35-1.96 4.35-4.623 0-2.593-1.937-4.624-4.41-4.624zm34.717 0c-2.52 0-4.348 1.91-4.348 4.624 0 2.592 1.933 4.623 4.404 4.623 2.518 0 4.346-1.96 4.346-4.623 0-2.593-1.935-4.624-4.406-4.624zM94.48 14.656l-4.077 11.186-4.077-11.186h-5.15l6.756 16.416h4.94l6.758-16.416h-5.15zm-62.04 4.947c.766-1.03 1.99-1.636 3.467-1.636 1.625 0 2.858.928 3.495 2.297l-7.878 3.27c-.215-1.678.214-2.99.915-3.93z"/></svg>