<svg viewBox="0 0 128 58" xmlns="http://www.w3.org/2000/svg" fill-rule="evenodd" clip-rule="evenodd" stroke-linejoin="round" stroke-miterlimit="1.414"><path d="M119.937 50.896c.912.128 1.616.848 1.616 1.696 0 .96-.864 1.728-1.92 1.728H100.08V41.536h-5.76v12.816H83.73c-2.866 0-3.458-1.745-3.458-3.344v-9.553H70.72c-.943.64-1.855 1.345-2.83 1.937l-5.665 3.488-7.36-5.376H43.408v3.216h4.143v-1.76l9.75 6.992-6.653 4.176h-7.23v3.216h8.366c.897-.608 1.745-1.248 2.67-1.808L60.275 52l7.39 5.28h8.418l-11.12-8.368 5.717-3.728c1.215-.8 2.494-1.472 3.743-2.21v8.418c0 3.552.91 6.016 8.064 6.016l40.4-.096c3.12.048 5.12-2.112 5.12-4.72 0-2.592-2.303-4.72-5.12-4.72h-14.59c.19-1.776 1.727-3.264 3.28-3.264h14.767l-.05-3.088H110.63c-4.96 0-8.928 4.112-9.04 8.896-.017.336.208.544.575.544l17.78-.064zm-76.528-.048v-3.28h2.84v3.28h-2.84zm0-9.344H32.59c-2.927 0-5.184.768-6.847 2.08-2.993 2.368-3.953 4.864-3.92 5.983h3.904c-1.714 1.28-2.866 2.817-3.473 4.592h-12.8c-2.305 0-3.793-1.64-3.793-3.22v-9.55H0v9.92c0 3.57 3.393 6.03 8.832 6.03H43.41V54.12H29.68c.065-1.632 1.808-3.28 3.392-3.28H43.41v-3.28H29.52c-.19-.96 1.6-2.848 2.976-2.848H43.41V41.5zm21.8-38.56C62.6 6.16 55.16 16.544 54.31 17.888c-1.63 2.576-1.775 3.824-1.823 4.655-.05.817-.05 2.29 1.28 3.49 2.223 1.983 5.344 1.663 8.11 1.663h22.8c.98 0 1.266-.288 1.794-.992 1.825-2.784 2.64-5.808 2.64-8.512 0-5.793-3.76-13.088-13.28-16.385l-1.07 1.537c7.55 3.583 10.67 8.272 10.67 14.832.05 1.76-.416 3.664-1.57 5.424h-22.17c-1.328 0-1.52-1.504-1.04-2.352 1.968-3.488 3.983-6.576 6.35-9.745 2.242-2.992 4.45-5.79 6.77-8.72.624-.815.208-1.6-1.04-1.855C70.144.383 67.44 0 64.16 0 45.97 0 39.314 10.448 39.314 18.192c0 8.4 6.704 18.143 24.896 18.143 10.095 0 16.703-3.247 20.527-7.423H80.88c-3.343 3.088-9.087 5.28-16.67 5.28-15.41 0-21.09-8.656-21.09-16.113.112-6.66 6.208-15.84 21.472-16.15.577-.02 1.024.51.625 1.01z"/></svg>