<svg viewBox="0 0 64 64" xmlns="http://www.w3.org/2000/svg" fill-rule="evenodd" clip-rule="evenodd" stroke-linejoin="round" stroke-miterlimit="1.414"><path d="M60.616 24.174h-13.34c-.637 0-1.155.505-1.155 1.128v13.396c0 .623.52 1.13 1.16 1.13h13.34c.64 0 1.16-.507 1.16-1.13V25.302c0-.623-.52-1.128-1.16-1.128zM43.8 37.508h-2.136v-.99h-.03c-.357.54-1.253 1.175-2.306 1.175-2.228 0-3.698-1.608-3.698-3.883 0-2.09 1.3-4.007 3.435-4.007.96 0 1.857.262 2.383.99h.03v-4.305H43.8v11.02zm18.356-.835h.27v.84h.146v-.84h.268v-.146h-.684v.146zm-9.936-6.63h2.227v1.02h.03c.31-.588 1.068-1.207 2.197-1.207 2.35 0 2.786 1.548 2.786 3.56v4.096h-2.32V33.88c0-.867-.017-1.98-1.207-1.98-1.208 0-1.394.942-1.394 1.917v3.695h-2.32v-7.47zm-3.778 0h2.32v7.47h-2.32v-7.47zM0 26.488h2.415v8.794h4.47v2.228H0V26.49zm7.952 3.55h2.32v7.47h-2.32v-7.47zm3.605 0h2.227v1.02h.03c.31-.587 1.07-1.206 2.198-1.206 2.352 0 2.785 1.547 2.785 3.558v4.097h-2.32v-3.633c0-.867-.017-1.98-1.208-1.98-1.21 0-1.4.943-1.4 1.918v3.694h-2.32v-7.47zm52.235 6.487l-.288.723-.287-.723h-.208v.985h.14v-.75l.3.75h.094l.3-.75v.75H64v-.985h-.208zm-29.175-.31c-.743.942-1.964 1.484-3.172 1.484-2.32 0-4.177-1.55-4.177-3.95 0-2.4 1.857-3.948 4.177-3.948 2.168 0 3.528 1.547 3.528 3.944v.73H29.59c.183.88.85 1.452 1.747 1.452.758 0 1.27-.388 1.656-.914l1.624 1.192zm5.19-4.372c-1.16 0-1.856.774-1.856 1.903 0 1.13.7 1.903 1.86 1.903 1.16 0 1.86-.78 1.86-1.91s-.693-1.904-1.854-1.904zm-19.832-5.357h2.32v6.588l2.628-3.04h2.844l-3.044 3.458 2.98 4.018h-2.916l-2.462-3.693h-.03v3.692h-2.32V26.48zm12.678 6.417c.015-.773-.59-1.423-1.425-1.423-1.02 0-1.578.696-1.64 1.423h3.065zm16.95-6.576c.742 0 1.345.602 1.345 1.344 0 .75-.603 1.35-1.345 1.35-.744 0-1.346-.6-1.346-1.34 0-.742.602-1.345 1.346-1.345zm-40.49-.005c.743 0 1.346.604 1.346 1.346 0 .745-.61 1.346-1.35 1.346-.74 0-1.35-.6-1.35-1.345 0-.74.6-1.35 1.343-1.35z" fill="#fff"/></svg>