<svg viewBox="0 0 128 32" xmlns="http://www.w3.org/2000/svg" fill-rule="evenodd" clip-rule="evenodd" stroke-linejoin="round" stroke-miterlimit="1.414"><path d="M121.232 0h-26.68c-1.274 0-2.31 1.01-2.31 2.256v26.792c0 1.246 1.04 2.26 2.32 2.26h26.68c1.28 0 2.32-1.014 2.32-2.26V2.256c0-1.246-1.04-2.256-2.32-2.256h-.01zM87.6 26.668h-4.272v-1.98h-.06c-.714 1.08-2.506 2.35-4.612 2.35-4.456 0-7.396-3.216-7.396-7.766 0-4.18 2.6-8.014 6.87-8.014 1.92 0 3.714.524 4.766 1.98h.06v-8.61H87.6v22.04zm36.712-1.67h.54v1.68h.292v-1.68h.536v-.292h-1.368v.292zm-19.872-13.26h4.454v2.04h.06c.62-1.176 2.136-2.414 4.394-2.414 4.7 0 5.572 3.096 5.572 7.12v8.192h-4.64v-7.264c0-1.734-.034-3.96-2.414-3.96-2.416 0-2.788 1.884-2.788 3.834v7.39h-4.64v-14.94l.002.002zm-7.556 0h4.64v14.94h-4.64v-14.94zM0 4.628h4.83v17.588h8.94v4.456H0V4.628zm15.904 7.1h4.64v14.94h-4.64v-14.94zm7.21 0h4.454v2.04h.06c.62-1.174 2.14-2.412 4.396-2.412 4.704 0 5.57 3.094 5.57 7.116v8.194h-4.64V19.4c0-1.734-.034-3.96-2.416-3.96-2.42 0-2.8 1.886-2.8 3.836v7.388h-4.64v-14.94l.016.004zm104.47 12.974l-.576 1.446-.574-1.446h-.416v1.97h.28v-1.5l.6 1.5h.188l.6-1.5v1.5H128v-1.97h-.416zm-58.35-.62c-1.486 1.884-3.928 2.968-6.344 2.968-4.64 0-8.354-3.1-8.354-7.9 0-4.8 3.714-7.896 8.354-7.896 4.336 0 7.056 3.094 7.056 7.888v1.46H59.18c.366 1.76 1.7 2.904 3.494 2.904 1.516 0 2.54-.776 3.312-1.828l3.248 2.384v.02zm10.38-8.744c-2.32 0-3.712 1.548-3.712 3.806 0 2.26 1.4 3.806 3.72 3.806 2.32 0 3.72-1.56 3.72-3.82s-1.386-3.808-3.708-3.808l-.02.016zM39.95 4.624h4.64V17.8l5.256-6.08h5.688l-6.088 6.916 5.96 8.036h-5.832l-4.924-7.386h-.06v7.384h-4.64V4.612v.012zm25.356 12.834c.03-1.546-1.18-2.846-2.85-2.846-2.04 0-3.156 1.392-3.28 2.846h6.13zm33.9-13.152c1.484 0 2.69 1.204 2.69 2.688 0 1.5-1.206 2.7-2.69 2.7-1.488 0-2.692-1.2-2.692-2.68 0-1.484 1.204-2.69 2.692-2.69v-.018zm-80.98-.01c1.486 0 2.692 1.208 2.692 2.692 0 1.49-1.22 2.692-2.7 2.692-1.48 0-2.7-1.2-2.7-2.69 0-1.48 1.2-2.7 2.686-2.7l.022.006z"/></svg>