<svg viewBox="0 0 128 18" xmlns="http://www.w3.org/2000/svg" fill-rule="evenodd" clip-rule="evenodd" stroke-linejoin="round" stroke-miterlimit="1.414"><path d="M20.49.11C22.034 0 23.58.036 25.126.084c.046 5.95.026 11.904.006 17.856-1.548.024-3.096.04-4.644-.014.054-5.94.052-11.88 0-17.816h.002zm8.216-.034c1.506-.034 3.012-.05 4.516-.02.46-.036.78.31 1.1.584 3.56 3.336 7.08 6.712 10.64 10.028.14-3.52.04-7.06.06-10.58 1.4-.08 2.794-.08 4.18 0-.02 5.94-.024 11.88 0 17.82-1.186-.1-2.72.48-3.6-.6-4.26-3.96-8.4-8.052-12.72-11.954-.026 4.184.016 8.374-.024 12.56-1.38.032-2.76.02-4.134.012-.04-5.96-.04-11.92 0-17.876l-.018.026zM0 .09C1.526.026 3.052.014 4.574.098c-.03 4.75-.04 9.5.008 14.25 4.42.04 8.82.02 13.24 0 .08 1.18.06 2.38.032 3.58-5.944.02-11.89.028-17.834 0 .04-5.96.032-11.9 0-17.854L0 .09zm85.468.02c1.748-.06 3.53-.18 5.264.04 1.8 2.586 3.3 5.38 5.12 7.956 1.74-2.648 3.356-5.374 5.08-8.03 1.64-.028 3.28-.09 4.916.044-2.52 4.07-5.3 7.99-7.826 12.052-.2 1.92 0 3.86-.1 5.78-1.5.04-3.02.02-4.52.016-.34-2.352.76-5.12-.98-7.088-2.32-3.58-4.704-7.114-6.94-10.748L85.468.11zm20.89 2.76c.3-1.72 2-2.826 3.68-2.808 4.82-.012 9.626-.048 14.44.02.04 1.206.06 2.42-.032 3.628-4.6-.028-9.2-.05-13.8.008-.032 1.088-.032 2.18 0 3.264 3.38 0 6.76-.006 10.146.004 1.168.02 2.448.1 3.392.88 1.05.86 1.36 2.3 1.34 3.6-.03 1.406.146 2.864-.316 4.226-.48 1.4-1.936 2.32-3.396 2.26-5.216.02-10.434.02-15.65 0-.014-1.2-.032-2.38.034-3.58 4.94.03 9.89.052 14.834-.008.04-1.22.05-2.44-.006-3.66-3.668-.026-7.334.04-11-.032-1.668.02-3.348-1.09-3.686-2.78-.28-1.646-.26-3.36 0-5l.02-.022zm19.1-1.008V.542h-.46v-.27h1.26v.28h-.46v1.32h-.32l-.02-.01zm.992 0V.272h.48l.286 1.1.28-1.08H128v1.592h-.296V.624l-.316 1.254h-.308l-.312-1.252V1.88h-.3l-.018-.018zm-59.66-.6C67.63.23 69.05.042 70.3.042c4.6.032 9.21-.036 13.816.034.032 1.212.05 2.424-.032 3.634-4.612-.034-9.22-.048-13.82.006-.05 1.088-.052 2.18 0 3.266 3.32.006 6.646 0 9.97 0 1.226.024 2.594.052 3.58.894 1.046.864 1.356 2.292 1.34 3.588-.024 1.5.176 3.08-.44 4.492-.544 1.26-1.9 2.036-3.26 1.994-4.948.014-9.9.014-14.86 0-.032-1.2-.052-2.4.036-3.6 4.68.04 9.36.046 14.04 0 .04-1.224.052-2.448-.008-3.672-3.46.006-6.92.006-10.38 0-1.24 0-2.61-.22-3.468-1.21-1.03-1.1-1.02-2.7-1.02-4.1 0-1.42-.008-3 .986-4.12l.01.014zm-7.828-.72c.32-.31.72-.55 1.184-.496 1.77.02 3.548-.066 5.32.07-3.074 3.06-6.42 5.84-9.484 8.914 3.06 3.066 6.384 5.86 9.488 8.888-1.844.072-3.688.04-5.53.036-.552.05-.928-.388-1.3-.716-2.84-2.636-5.686-5.268-8.544-7.884-.252-.15-.26-.5-.006-.65 2.966-2.706 5.9-5.448 8.864-8.16l.008-.002z"/></svg>