<svg viewBox="0 0 64 64" xmlns="http://www.w3.org/2000/svg" fill-rule="evenodd" clip-rule="evenodd" stroke-linejoin="round" stroke-miterlimit="1.414"><path d="M10.245 27.55c.772-.055 1.545-.037 2.318-.013.023 2.975.013 5.952.003 8.928-.774.012-1.548.02-2.322-.007.027-2.97.026-5.94 0-8.908zm4.108-.017c.753-.017 1.506-.025 2.258-.01.23-.018.39.155.55.292 1.78 1.668 3.54 3.356 5.32 5.014.07-1.76.02-3.53.03-5.29.7-.04 1.397-.04 2.09 0-.01 2.97-.012 5.94 0 8.91-.593-.05-1.36.24-1.8-.3-2.13-1.98-4.2-4.026-6.36-5.977-.013 2.092.008 4.187-.012 6.28-.69.016-1.38.01-2.067.006-.02-2.98-.02-5.96 0-8.938zM0 27.54c.763-.032 1.526-.038 2.287.004-.015 2.375-.02 4.75.004 7.125 2.21.02 4.41.01 6.62 0 .04.59.03 1.19.016 1.79-2.972.01-5.945.014-8.917 0 .02-2.98.016-5.95 0-8.927zm42.734.01c.874-.03 1.765-.09 2.632.02.9 1.293 1.65 2.69 2.56 3.978.87-1.324 1.678-2.687 2.54-4.015.82-.014 1.64-.045 2.458.022-1.26 2.035-2.65 3.995-3.913 6.026-.1.96 0 1.93-.05 2.89-.75.02-1.51.01-2.26.008-.17-1.176.38-2.56-.49-3.544-1.16-1.79-2.352-3.557-3.47-5.374zm10.445 1.38c.15-.86 1-1.413 1.84-1.404 2.41-.006 4.813-.024 7.22.01.02.603.03 1.21-.016 1.814-2.3-.014-4.6-.025-6.9.004-.016.544-.016 1.09 0 1.632 1.69 0 3.38-.003 5.073.002.584.01 1.224.05 1.696.44.525.43.68 1.15.67 1.8-.015.703.073 1.432-.158 2.113-.24.7-.968 1.16-1.698 1.13-2.608.01-5.217.01-7.825 0-.007-.6-.016-1.19.017-1.79 2.47.015 4.945.026 7.417-.004.02-.61.025-1.22-.003-1.83-1.834-.013-3.667.02-5.5-.016-.834.01-1.674-.545-1.843-1.39-.14-.823-.13-1.68 0-2.5zm9.55-.504v-.66h-.23v-.135h.63v.14h-.23v.66h-.16zm.496 0v-.795h.24l.143.55.14-.54H64v.796h-.148v-.63l-.158.627h-.154l-.156-.626v.627h-.15zm-29.83-.3c.42-.516 1.13-.61 1.755-.61 2.3.016 4.605-.018 6.908.017.016.606.025 1.212-.016 1.817-2.306-.017-4.61-.024-6.91.003-.025.544-.026 1.09 0 1.633 1.66.003 3.323 0 4.985 0 .613.012 1.297.026 1.79.447.523.432.678 1.146.67 1.794-.012.75.088 1.54-.22 2.246-.272.63-.95 1.018-1.63.997-2.474.007-4.95.007-7.43 0-.016-.6-.026-1.2.018-1.8 2.34.02 4.68.023 7.02 0 .02-.612.026-1.224-.004-1.836-1.73.003-3.46.003-5.19 0-.62 0-1.305-.11-1.734-.605-.515-.55-.51-1.35-.51-2.05 0-.71-.004-1.5.493-2.06zm-3.914-.36c.16-.155.36-.275.592-.248.885.01 1.774-.033 2.66.035-1.537 1.53-3.21 2.92-4.742 4.457 1.53 1.533 3.192 2.93 4.744 4.444-.922.036-1.844.02-2.765.018-.276.025-.464-.194-.65-.358-1.42-1.318-2.843-2.634-4.272-3.942-.126-.075-.13-.25-.003-.325 1.483-1.353 2.95-2.724 4.432-4.08z" fill="#fff"/></svg>