<svg viewBox="0 0 128 39" xmlns="http://www.w3.org/2000/svg" fill-rule="evenodd" clip-rule="evenodd" stroke-linejoin="round" stroke-miterlimit="1.414"><path d="M63.98 2.652h-4.65v5.74h-2.506v4.14h2.506v14.5h4.652v-14.5h2.56v-4.14h-2.56v-5.74h-.002zM52.464 0c-1.708 0-3.052 1.344-3.052 3.088 0 1.706 1.344 3.052 3.052 3.052 1.78 0 3.126-1.346 3.126-3.052C55.59 1.344 54.244 0 52.464 0zM126.4 7.956c-.8 0-1.416-.62-1.416-1.42 0-.76.62-1.38 1.416-1.38.764 0 1.38.62 1.38 1.38 0 .8-.616 1.42-1.38 1.42zm0-3.014c-.906 0-1.634.726-1.634 1.596 0 .91.728 1.636 1.634 1.636.872 0 1.6-.72 1.6-1.62 0-.866-.728-1.6-1.6-1.6v-.012zM71.94 15.768c.616-2.47 2.506-3.852 4.94-3.852 2.434 0 4.25 1.344 4.832 3.852H71.94zm5.048-7.96c-5.594 0-9.846 4.29-9.846 9.994 0 5.632 3.9 9.774 9.92 9.774 3.36 0 6.34-1.236 8.52-3.56l-3.124-3.088c-1.526 1.452-3.16 2.506-5.268 2.506-2.54 0-4.47-1.44-5.12-3.88h14.492v-1.12c0-6.36-3.92-10.604-9.552-10.604l-.022-.022zm41.164 0c-2.288 0-4.25.874-5.63 2.364V.508h-4.64v26.52h4.66V16.892c0-2.684 1.712-4.54 4.54-4.54 2.66 0 4.11 1.636 4.11 4.54v10.14h4.654V16.06c0-5.16-3.24-8.248-7.668-8.248l-.026-.004zm7.884-1.304V5.92h.364c.292 0 .4.11.4.292 0 .18-.108.292-.4.292h-.364zm.98-.292c0-.36-.252-.508-.616-.508h-.58v1.67h.216v-.64h.364l.4.66h.254l-.434-.686c.254-.04.4-.18.4-.474l-.004-.022zm-28.92 6.104c1.96 0 3.56 1.02 4.8 2.436l3.23-3.2c-1.816-2.288-4.686-3.74-7.956-3.74-5.63 0-10.064 4.286-10.064 9.88 0 5.596 4.434 9.884 10.064 9.884 3.27 0 6.14-1.454 7.956-3.74l-3.232-3.2c-1.2 1.38-2.836 2.434-4.832 2.434-2.98 0-5.26-2.34-5.26-5.38 0-3.06 2.3-5.38 5.3-5.38l-.006.006zM50.176 27.03h4.65V8.39h-4.65v18.64zm-33.644-3.958c-2.98 0-5.34-2.36-5.34-5.416 0-3.016 2.36-5.34 5.34-5.34 3.014 0 5.376 2.324 5.376 5.376 0 3.054-2.36 5.38-5.376 5.38zm0-15.26c-5.634 0-10.066 4.286-10.066 9.88 0 5.596 4.432 9.884 10.066 9.884 5.63 0 10.06-4.288 10.06-9.884 0-5.594-4.43-9.88-10.06-9.88zM0 27.032h4.652V.506H0v26.526zm38.26-3.96c-2.98 0-5.34-2.36-5.34-5.416 0-3.016 2.36-5.34 5.34-5.34 3.014 0 5.376 2.324 5.376 5.376 0 3.054-2.36 5.38-5.38 5.38h.004zm9.88-10.974V8.392H41.6c-1.052-.36-2.18-.58-3.34-.58-5.634 0-10.066 4.286-10.066 9.88 0 5.596 4.432 9.884 10.064 9.884 5.62 0 10.06-4.288 10.06-9.884 0-1.888-.52-3.74-1.54-5.12l1.34-.474h.022zm-9.88 21.544c-2.98 0-5.34-2.324-5.34-5.34h-4.726c0 5.596 4.432 9.88 10.064 9.88 5.62 0 10.06-4.284 10.06-9.88H43.6c0 3.016-2.364 5.34-5.34 5.34z" fill-rule="nonzero"/></svg>