<svg viewBox="0 0 64 64" xmlns="http://www.w3.org/2000/svg" fill-rule="evenodd" clip-rule="evenodd" stroke-linejoin="round" stroke-miterlimit="1.414"><path d="M31.99 23.78h-2.325v2.87h-1.253v2.07h1.253v7.25h2.326v-7.25h1.28v-2.07h-1.28v-2.87zm-5.758-1.326c-.854 0-1.526.672-1.526 1.544 0 .853.672 1.526 1.526 1.526.89 0 1.563-.673 1.563-1.526 0-.872-.673-1.544-1.563-1.544zM63.2 26.432c-.4 0-.708-.31-.708-.71 0-.38.31-.69.708-.69.382 0 .69.31.69.69 0 .4-.308.71-.69.71zm0-1.507c-.453 0-.817.363-.817.798 0 .455.364.818.817.818.436 0 .8-.36.8-.81 0-.433-.364-.8-.8-.8zm-27.23 5.413c.308-1.235 1.253-1.926 2.47-1.926 1.217 0 2.125.672 2.416 1.926H35.97zm2.524-3.98c-2.797 0-4.923 2.145-4.923 4.997 0 2.816 1.95 4.887 4.96 4.887 1.68 0 3.17-.618 4.26-1.78l-1.562-1.544c-.763.726-1.58 1.253-2.634 1.253-1.27 0-2.235-.72-2.56-1.94h7.246v-.56c0-3.18-1.96-5.302-4.776-5.302zm20.582 0c-1.144 0-2.125.437-2.815 1.182v-4.832h-2.32v13.26h2.33V30.9c0-1.342.856-2.27 2.27-2.27 1.33 0 2.055.818 2.055 2.27v5.07h2.327v-5.486c0-2.58-1.62-4.124-3.834-4.124zm3.942-.652v-.292h.182c.146 0 .2.055.2.146 0 .09-.054.146-.2.146h-.182zm.49-.146c0-.18-.126-.254-.308-.254h-.29v.835h.108v-.32h.182l.2.33h.127l-.217-.343c.127-.02.2-.09.2-.237zm-14.46 3.052c.98 0 1.78.51 2.4 1.218l1.615-1.6c-.908-1.144-2.343-1.87-3.978-1.87-2.815 0-5.032 2.143-5.032 4.94 0 2.798 2.217 4.942 5.032 4.942 1.635 0 3.07-.727 3.978-1.87l-1.616-1.6c-.6.69-1.418 1.217-2.416 1.217-1.49 0-2.63-1.17-2.63-2.69 0-1.53 1.15-2.69 2.65-2.69zm-23.96 7.357h2.325v-9.32h-2.325v9.32zM8.266 33.99c-1.49 0-2.67-1.18-2.67-2.708 0-1.508 1.18-2.67 2.67-2.67 1.507 0 2.688 1.162 2.688 2.688 0 1.527-1.18 2.69-2.688 2.69zm0-7.63c-2.817 0-5.033 2.143-5.033 4.94 0 2.798 2.216 4.942 5.033 4.942 2.815 0 5.03-2.144 5.03-4.942 0-2.797-2.215-4.94-5.03-4.94zM0 35.97h2.326V22.707H0v13.26zm19.13-1.98c-1.49 0-2.67-1.18-2.67-2.708 0-1.508 1.18-2.67 2.67-2.67 1.507 0 2.688 1.162 2.688 2.688 0 1.527-1.18 2.69-2.69 2.69zm4.94-5.487V26.65H20.8c-.526-.18-1.09-.29-1.67-.29-2.817 0-5.033 2.143-5.033 4.94 0 2.798 2.216 4.942 5.032 4.942 2.81 0 5.03-2.144 5.03-4.942 0-.944-.26-1.87-.77-2.56l.67-.237zm-4.94 10.772c-1.49 0-2.67-1.162-2.67-2.67h-2.363c0 2.798 2.216 4.94 5.032 4.94 2.81 0 5.03-2.142 5.03-4.94H21.8c0 1.508-1.182 2.67-2.67 2.67z" fill="#fff" fill-rule="nonzero"/></svg>