<svg viewBox="0 0 128 36" xmlns="http://www.w3.org/2000/svg" fill-rule="evenodd" clip-rule="evenodd" stroke-linejoin="round" stroke-miterlimit="1.414"><path d="M84.288 30.854l-2.845-.483c-.583-.1-1.18-.3-1.18-.93 0-1.12 1.43-1.29 2.276-1.29 1.12 0 2.4.36 2.47 1.5h1.26c-.06-.81-.41-2.352-3.89-2.352-2.417 0-3.43 1.13-3.43 2.28 0 1.287 1.47 1.626 2.122 1.74l2.04.35c1.637.287 2.123.533 2.123 1.304 0 1.06-1.638 1.245-2.61 1.245-1.277 0-2.747-.39-2.747-1.727h-1.26c0 .69.165 1.306 1.012 1.87.443.3 1.165.71 3.01.71 1.707 0 3.9-.482 3.9-2.23 0-1.17-.97-1.747-2.262-1.973zM54.464 27.45l-4.302 7.38h1.594l1.195-2.148h4.59l1.13 2.148h1.69l-4.14-7.38h-1.75zm-7.738 0H42.08v7.38h1.394v-3.114h3.252c2.246 0 3.066-1.162 3.066-2.19 0-1.192-1.15-2.076-3.066-2.076zm24.168 7.328h-1.577l-2.107-2.994c-.026-.04-.078-.06-.13-.068h.067c-.02-.004-.044-.005-.068 0h-2.83v3.114h-1.4v-7.38h4.65c1.91 0 3.06.884 3.06 2.076 0 .85-.566 1.79-2.03 2.09l2.354 3.162zm3.28.01h1.323v-5.274h-1.324v5.275zM53.428 31.8l1.83-3.248h.033l1.69 3.248h-3.55zm-7.178-.935h-2.778v-2.56h2.835c1.15 0 2.043.298 2.043 1.234 0 .99-.85 1.32-2.1 1.32zm17.998 0h2.777c1.252 0 2.102-.33 2.102-1.326 0-.94-.894-1.24-2.044-1.24H64.25v2.56zm11.24-3.454H74.16v1.33h1.327v-1.33zM31.23.94c-7.493 0-12.6 5.284-12.6 11.68 0 6.73 5.64 11.48 12.597 11.48 6.954 0 12.592-4.684 12.592-11.48 0-6.397-5.17-11.68-12.6-11.68zm29.442 13.88c4.23-1.13 4.644-4.28 4.623-5.404-.253-3.3-2.476-5.346-6.473-5.346H47.18v18.47h2.656v-7.746h7.578l5.576 7.747h3.346s-4.01-5.21-5.663-7.72zm53.21 5.707V4.067H111.3V22.54H128v-2.015h-14.116zM69.636 22.54h16.52v-2.015H72.468v-6.457h10.277v-2.042H72.47V6.08h13.684V4.068h-16.52V22.54zm27.22-18.47l-9.39 18.47h3.173l2.4-4.78h11.26l2.422 4.78h3.142l-9.4-18.472H96.85zM2.583 20.525V4.068H0V22.54h16.698v-2.015H2.582zm28.558 1.282c-5.18 0-9.45-4.165-9.45-9.182 0-5.014 4.07-9.378 9.658-9.378 5.45 0 9.455 4.364 9.455 9.378 0 5.017-4.472 9.182-9.654 9.182zm63.09-6.36l4.43-8.824 4.48 8.824h-8.91zM58.47 12.61h-8.63V6.257h8.926c2.054 0 3.21.96 3.627 2.176.277.837.1 1.934-.354 2.68-.75 1.236-2.17 1.497-3.578 1.497zm-46.52-2.006h1.914l3.477-6.536h-2.8l-2.59 6.536zM126.14 3.85c-1.003 0-1.852.774-1.852 1.813 0 1.05.85 1.82 1.855 1.82 1.046 0 1.835-.82 1.835-1.825 0-1.034-.842-1.808-1.84-1.808zm0 .305c.834 0 1.47.66 1.47 1.503 0 .836-.6 1.52-1.47 1.52-.844 0-1.483-.65-1.483-1.515 0-.852.642-1.508 1.482-1.508zm-.706.464v2.09h.318V5.8h.368l.556.907h.355l-.59-.92c.298-.04.547-.19.547-.585 0-.457-.317-.59-.74-.59h-.804zm.318.26h.425c.407 0 .47.16.47.312 0 .207-.088.34-.484.34h-.41V4.88zM78.22 1.08l-2.238 2.51 7.02-2.51H78.22z"/></svg>