<svg viewBox="0 0 106 128" xmlns="http://www.w3.org/2000/svg" fill-rule="evenodd" clip-rule="evenodd" stroke-linejoin="round" stroke-miterlimit="1.414"><path d="M103.26 116.008h1.395V127.8l-8.525-8.924v8.486h-1.434V115.45l8.565 8.964v-8.406zm-40.077 0v7.21c0 1.276-.36 2.312-1.077 3.108-.756.877-1.792 1.276-3.106 1.276-1.236 0-2.27-.4-3.03-1.276-.756-.796-1.114-1.832-1.114-3.107V116h1.434v6.733c0 2.35.877 3.546 2.71 3.546 1.87 0 2.788-1.198 2.788-3.548v-6.73h1.395zm4.382 0h6.812v1.315h-2.71v10.04h-1.353v-10.04h-2.75v-1.315zm-2.47 0h1.434v11.354h-1.44v-11.354zm-12.55 0H54.1L49.16 128l-4.94-11.992h1.552l3.387 8.406 3.38-8.406zm39.52 5.697c0 1.275-.437 2.35-1.353 3.267-.837.876-1.913 1.315-3.148 1.315s-2.31-.44-3.227-1.315c-.917-.916-1.354-1.992-1.354-3.267s.398-2.35 1.274-3.227c.877-.916 1.992-1.354 3.307-1.354s2.39.438 3.227 1.354c.84.877 1.28 1.952 1.28 3.227zm-.317-4.183c-1.196-1.155-2.59-1.753-4.184-1.753-1.633 0-3.028.59-4.223 1.75-1.15 1.15-1.75 2.55-1.75 4.18 0 1.67.6 3.07 1.76 4.22 1.157 1.114 2.55 1.673 4.224 1.673 1.634 0 3.068-.56 4.184-1.674 1.155-1.155 1.753-2.55 1.753-4.223 0-1.633-.6-3.028-1.752-4.183zm-10.48-1.514v1.315H78.6v10.04h-1.434v-10.04h-2.71v-1.315h6.813zm-65.893 2.47c.837.877 1.235 1.952 1.235 3.227s-.438 2.35-1.315 3.267c-.876.876-1.952 1.315-3.187 1.315-1.235 0-2.31-.44-3.227-1.315-.83-.916-1.31-1.992-1.31-3.267s.44-2.35 1.28-3.227c.878-.916 1.953-1.354 3.268-1.354 1.316 0 2.43.438 3.268 1.354zm.916-.956c-1.19-1.155-2.58-1.753-4.18-1.753-1.63 0-3.07.59-4.18 1.75-1.19 1.15-1.79 2.55-1.79 4.18 0 1.67.6 3.07 1.794 4.22 1.115 1.114 2.51 1.673 4.183 1.673s3.068-.56 4.183-1.674c1.196-1.155 1.753-2.55 1.753-4.223 0-1.633-.56-3.028-1.755-4.183zm4.35 5.22c0 2.35.92 3.545 2.75 3.545 1.79 0 2.75-1.196 2.75-3.546v-6.73h1.395v7.21c0 1.28-.36 2.31-1.116 3.11-.756.88-1.79 1.28-3.027 1.28-1.274 0-2.27-.4-3.027-1.275-.8-.796-1.157-1.832-1.157-3.107v-7.21h1.434v6.732zm-18.09-6.734v10.08h3.47v1.274H1.16v-11.354h1.39zm34.14 4.662c1.917.756 2.83 1.872 2.83 3.386 0 1.035-.36 1.872-1.073 2.55-.677.677-1.514.996-2.51.996-.916 0-1.713-.28-2.39-.917-.638-.597-1.036-1.354-1.155-2.27l1.434-.32c0 .638.2 1.156.64 1.594.437.39.915.59 1.553.59.596 0 1.074-.24 1.513-.68.36-.4.555-.917.555-1.554 0-.877-.638-1.594-1.953-2.15l-.792-.28c-1.595-.757-2.43-1.714-2.43-2.91 0-.875.357-1.63.995-2.15.68-.558 1.436-.797 2.35-.797 1.317 0 2.273.597 2.91 1.752l-1.115.636c-.44-.68-1.037-1.037-1.834-1.037-.477 0-.955.12-1.314.4-.4.32-.597.717-.597 1.195 0 .676.515 1.194 1.63 1.593l.757.36zm-7.25-4.662h1.437v11.354H29.44v-11.354zM85.386 13.37l-27.48 64.855-7.58-16.634 14-38.11c1.055-2.95 4.74-4.31 10.95-4.31l2.213-5.79H44.85l-2.106 5.79c4.633 0 6.528 1.37 5.79 4.318l-6.948 19.37L27.9 13.37c-2.527-3.158-1.264-4.737 3.685-4.737V1.79H0v6.843c5.895 0 9.58 1.58 11.16 4.738l23.16 49.28L23.48 91.6c-.21 3.894-6.317 5.79-18.11 5.79l-2.21 5.79h90.12l12.53-26.636h-6.53C93.174 90.334 86.12 97.39 78.224 97.39H36.848l6.107-16.32L48.22 91.6h11.79l33.27-78.23c1.578-4.737 5.684-7.264 12.107-7.264V0H78.224v6.106c8.212 0 10.528 2.527 7.16 7.265z"/></svg>