<svg viewBox="0 0 128 94" xmlns="http://www.w3.org/2000/svg" fill-rule="evenodd" clip-rule="evenodd" stroke-linejoin="round" stroke-miterlimit="1.414"><path d="M66.487 19.927v43.896c0 8.316-2.22 15.032-6.909 20.143-5.55 6.032-12.13 9.073-19.988 9.12l-.186.001c-3.484 0-6.943-.669-10.457-2.005-2.869-1.081-6.579-3.404-6.579-3.404v-15.96l.174.101c3.644 2.097 6.405 2.974 6.405 2.974 3.01 1.072 4.832 1.607 6.741 1.607l.142-.001c5.972-.052 9.971-3.423 11.785-10.113l.043-.16c-3.231 1.91-6.344 2.875-9.444 2.905l-.147.001c-4.655 0-8.381-1.729-11.396-5.184-3.016-3.459-4.303-7.86-4.303-13.203V19.927h19.263v26.154c0 2.974.392 4.461 2.872 4.461l.11-.001c2.277-.05 2.61-1.686 2.61-4.911V19.927h19.264zm-40.7 48.041c-2.144 1.312-4.662 2.222-6.525 2.704v.101l-.064-.092c-1.07.235-2.131.37-3.156.386l-.204.002c-4.696 0-8.458-1.743-11.497-5.23C1.301 62.35 0 57.912 0 52.522V1.288h19.262v51.234c0 5.391 1.286 9.829 4.328 13.317a16.853 16.853 0 0 0 2.183 2.099l.014.03zM95.373 0c1.079.005 2.006.04 2.006.04 16.437 1.238 20.961 12.276 22.198 19.712l.029.175h6.354v19.832h-6.709c0 3.719.607 6.695 1.864 8.198 1.255 1.506 2.945 2.234 6.885 2.234v19.692c-.691.031-1.43.045-1.919.048l-.193.001c-4.256 0-8.219-.982-11.988-2.951-3.768-1.974-6.741-4.645-9.017-8.019-2.882-4.31-4.223-10.023-4.223-17.141V22.442l-.042-.176c-.569-2.21-3.387-2.718-4.92-2.735-2.299.035-4.143.814-5.406 2.348-1.29 1.571-2.059 3.808-2.059 6.715v2.488H97.4v18.593h-9.167v5.583c0 8.197-6.116 14.134-18.351 14.227l-.29.001V26.739S68.038 2.294 90.898.235l.297-.027A56.018 56.018 0 0 1 93.881.02c.288-.01.591-.016.894-.018L95.076 0h.297z"/></svg>