<svg viewBox="0 0 128 38" xmlns="http://www.w3.org/2000/svg" fill-rule="evenodd" clip-rule="evenodd" stroke-linejoin="round" stroke-miterlimit="1.414">
    <path d="M55.635 0c.801-.026 1.235.443 1.248 1.284.038 2.612-1.121 3.723-2.386 4.865-1.265 1.141-2.723 1.836-4.042 3.86-.877 1.346-1.144 4.675-1.868 7.316-.675 2.459-1.337 5.435-2.007 7.295-.707 1.966-.128 6.426 1.967 7.019-2.388 1.74-6.236 1.226-7.651-.949-2.54.669-2.854 3.758-4.923 4.963-1.685.98-3.294 1.425-5.527 1.977-1.241.235-2.328.192-1.967-.198 1.168-1.724 2.625-3.163 3.351-5.328-4.896-.706-9.768-1.632-13.998-1.068-3.268.436-4.94 2.262-7.038 3.529-4.507 2.721-9.464 2.029-9.886 1.009-.401-.97 1.649-1.526 1.997-2.185-1.68.224-2.054-.018-2.907-.88 2.647-3.109 8.486-1.112 10.45-3.144 1.835-1.899 1.881-3.23 3.638-4.745 2.263-1.95 4.995-3.556 7.493-4.339 3.801-1.192 8.028-1.38 12.219-3.747 5.606-3.166 6.843-12.005 13.009-14.592 2.066-.866 4.409-.721 6.328-1.193 1.899-.468 1.621-.721 2.5-.749zM1.819 35.388c3.209.459 5.16 0 7.737-1.118 2.193-.951 4.31-2.911 6.9-3.742 3.802-1.22 7.972.001 12.037.245.99.059 1.974.06 2.945-.046 1.514-.93 1.483-4.412 2.956-4.731-.043 4.885-2.045 7.811-4.14 10.645 4.414-.779 7.055-3.332 8.839-6.742a24.845 24.845 0 0 0 1.412-3.312c.632.485.274 1.961.592 2.76 3.04-1.693 4.78-5.558 5.933-9.467 1.334-4.524 1.88-9.104 2.74-10.443.84-1.306 2.146-2.112 3.339-2.948 1.355-.951 2.564-1.942 2.772-3.754-1.429-.132-1.759-.463-1.971-1.183-.715.403-1.373.49-2.117.512-.645.019-1.353-.009-2.219.079-7.158.736-8.067 8.625-12.655 13.097-.334.326-.695.629-1.076.914-1.607 1.197-3.578 2.053-5.391 2.746-2.934 1.121-5.723 1.2-8.476 2.168-2.021.71-4.074 1.741-5.734 2.877-.415.283-.806.574-1.166.868-.974.797-1.613 1.681-2.232 2.591-.638.937-1.254 1.901-2.192 2.823-1.521 1.493-7.205.435-9.206 1.82-.223.154-.4.339-.52.561 1.091.496 1.82.192 3.076.331.165 1.191-2.591 1.9-2.183 2.449zm43.365-8.586c.086 1.367.879 4.08 1.58 4.739-1.372.334-3.736-.217-4.343-1.185.312-1.398 1.933-2.676 2.763-3.554zm35.429 2.791h-1.246V27.9c-1.128 1.352-2.418 2.027-3.868 2.027-1.451 0-2.679-.514-3.683-1.543-.992-1.042-1.488-2.276-1.488-3.701 0-1.439.502-2.666 1.507-3.683 1.004-1.029 2.207-1.544 3.608-1.544 1.612 0 2.92.689 3.924 2.065v-1.804h1.246v9.876zm22.492 0h-1.246V27.9c-1.128 1.352-2.417 2.027-3.868 2.027s-2.678-.514-3.683-1.543c-.991-1.042-1.487-2.276-1.487-3.701 0-1.439.502-2.666 1.506-3.683 1.004-1.029 2.207-1.544 3.608-1.544 1.612 0 2.92.689 3.924 2.065v-1.804h1.246v9.876zm7.1 0h-4.259V16.239h2.771c1.897 0 3.285.142 4.166.428a5.762 5.762 0 0 1 2.306 1.32 5.936 5.936 0 0 1 1.488 2.195c.347.868.521 1.884.521 3.05a6.883 6.883 0 0 1-.819 3.273c-.533 1.017-1.264 1.786-2.194 2.306-.918.521-2.244.782-3.98.782zm-55.567 0h-1.283l1.897-13.354h.204l5.431 10.954 5.394-10.954h.204l1.916 13.354H67.08l-1.301-9.56-4.724 9.56h-.335l-4.78-9.634-1.302 9.634zm35.781 0h-1.283v-9.876h1.283v9.876zm-6.352 0h-1.302v-9.876h1.302v1.432c.347-.583.682-1.011 1.004-1.283.335-.273.701-.41 1.098-.41.409 0 .818.112 1.227.335l-.669 1.079a1.106 1.106 0 0 0-.577-.168c-.384 0-.75.199-1.097.596-.335.396-.583.911-.744 1.543-.161.62-.242 1.755-.242 3.404v3.348zm39.598 0h-3.683V16.239h2.641c1.402 0 2.462.285 3.181.855.731.558 1.097 1.364 1.097 2.418 0 .583-.149 1.122-.446 1.618-.285.484-.707.874-1.265 1.172.918.298 1.612.744 2.083 1.339.484.595.725 1.302.725 2.12 0 1.104-.403 2.021-1.209 2.753-.805.719-1.847 1.079-3.124 1.079zm-21.731-4.892c0-1.128-.378-2.077-1.135-2.845-.756-.782-1.686-1.172-2.789-1.172-1.092 0-2.015.403-2.772 1.209a3.958 3.958 0 0 0-1.134 2.827c0 1.091.384 2.039 1.153 2.845.769.794 1.686 1.191 2.753 1.191 1.078 0 2.002-.385 2.771-1.154.768-.768 1.153-1.735 1.153-2.901zm-22.493 0c0-1.128-.378-2.077-1.134-2.845-.756-.782-1.686-1.172-2.79-1.172-1.091 0-2.015.403-2.771 1.209a3.958 3.958 0 0 0-1.134 2.827c0 1.091.384 2.039 1.153 2.845.768.794 1.686 1.191 2.752 1.191 1.079 0 2.003-.385 2.771-1.154.769-.768 1.153-1.735 1.153-2.901zm28.736-7.16h-.948v10.787h1.544c1.611 0 2.777-.081 3.496-.242a4.294 4.294 0 0 0 1.916-.948 4.767 4.767 0 0 0 1.246-1.749c.285-.682.428-1.463.428-2.343a5.87 5.87 0 0 0-.503-2.437 4.706 4.706 0 0 0-1.394-1.841c-.608-.483-1.327-.806-2.158-.967-.818-.173-2.027-.26-3.627-.26zm13.87 5.616h-.744v5.134h1.655c.955 0 1.655-.093 2.102-.279a2.635 2.635 0 0 0 1.116-.893c.285-.409.428-.825.428-1.246 0-.422-.081-.794-.242-1.116a2.48 2.48 0 0 0-.726-.856 3.135 3.135 0 0 0-1.134-.558c-.434-.124-1.252-.186-2.455-.186zm.8-5.616h-1.544v4.277h.762c1.166 0 2.034-.186 2.604-.558.571-.372.856-.954.856-1.748 0-1.314-.893-1.971-2.678-1.971zm-34.12-.577c0-.285.099-.533.298-.744.21-.211.458-.316.743-.316.298 0 .546.105.744.316a.981.981 0 0 1 .317.744c0 .285-.106.533-.317.744a1.006 1.006 0 0 1-.744.298c-.285 0-.533-.106-.743-.316a1.027 1.027 0 0 1-.298-.726zM54.259 3.058c-.27.565-.786 1.294-.786 2.733-.002.247-.187.417-.19.036.014-1.407.386-2.015.781-2.814.184-.327.295-.192.195.045zm-.272-.213c-.317.539-1.083 1.523-1.21 2.957-.023.246-.223.398-.193.018.138-1.399.75-2.275 1.215-3.037.21-.31.309-.165.188.062zm-.247-.282c-.362.511-1.541 1.692-1.787 3.11-.044.243-.256.378-.194.002.255-1.383 1.271-2.471 1.798-3.19.236-.291.322-.139.183.078zm-.221-.315c-.43.455-1.835 1.962-2.278 3.331-.078.234-.307.338-.192-.026.447-1.333 1.677-2.77 2.299-3.408.275-.255.339-.092.171.103zm-6.324 2.855c1.013.88 3.139.174 2.759-1.576-1.574-.13-2.486.404-2.759 1.576z"/>
</svg>
