<svg viewBox="0 0 128 50" xmlns="http://www.w3.org/2000/svg" fill-rule="evenodd" clip-rule="evenodd" stroke-linejoin="round" stroke-miterlimit="1.414"><path d="M58.31 37.298c.213.3.573.972.806 1.534l.14.34v-.5c0-.54.08-1.12.22-1.38.06-.1.16-.18.34-.22.7-.18 1.4.26 1.86 1.22l.16.34.127-.3c.152-.34.244-.44.52-.52.42-.12.78.192 1.22 1.06l.27.52.3-.56c.453-.852.78-1.14 1.2-1.02.28.08.37.174.52.516l.13.3.17-.336c.465-.952 1.16-1.4 1.864-1.214.18.04.28.116.34.232.128.24.22.82.22 1.38l.006.5.14-.34c.26-.64.708-1.44.92-1.68.21-.22.227-.23.325-.132.58.58-1.5 6.122-2.7 7.166-.275.236-.312.24-.496.06-.3-.3-.586-1.424-.726-2.855l-.08-.76-.04.79c-.12 2.06-.44 4.32-.66 4.59-.26.31-.7-.71-1.12-2.63-.12-.5-.233-1.04-.26-1.19l-.047-.28-.06.27c-.52 2.64-1.07 4.19-1.38 3.82-.22-.26-.54-2.53-.66-4.59l-.04-.8-.08.76c-.14 1.437-.43 2.563-.73 2.863-.18.18-.22.173-.49-.06-1.164-1.02-3.255-6.503-2.72-7.153.12-.13.22-.07.46.26l.02-.01zm15.753-7.763c.33.16.62.454.716.736.16.5.01 1.28-.33 1.65-.18.2-.248.22-.56.247-.41.03-.87-.13-1.437-.47l-.294-.18.27.51c.52.966.76 1.93.76 3.02 0 1.26-.37 1.96-1.02 1.96-.38 0-.54-.19-.834-.97-.28-.76-.52-1.14-.92-1.4-.16-.12-.3-.2-.32-.2-.02 0-.03.18-.02.38.033.48-.06.78-.31.985-.18.146-.226.16-.63.134-.488-.03-1.148-.306-1.67-.69l-.294-.2-.28.414c-.345.495-.84 1.028-1.035 1.102-.18.064-.29-.02-.29-.22 0-.297.42-.95 1.09-1.69.32-.35.35-.41.24-.41-.12 0-.7-.315-.86-.48-.26-.23-.22-.368.12-.514 1.08-.46 1.845-.812 2.94-1.34 1.146-.548 1.262-.59 1.33-.492.134.16.056.627-.18 1.02-.114.19-.395.56-.633.805l-.433.464.4-.22c.525-.27 1.185-.94 1.52-1.537.2-.352.28-.58.357-1 .147-.86.453-1.253 1.137-1.5.417-.14 1.07-.117 1.467.067l-.003.026zm-10.95 5.602c.152.076.42.236.6.352l.316.22.31-.22c.4-.26 1.1-.6 1.16-.55.06.07-.17.68-.35.95-.22.29-.66.6-.96.65-.26.05-.64-.09-.94-.34-.24-.194-.56-.76-.64-1.092-.04-.196-.04-.208.1-.166.08.04.27.12.42.2l-.02-.014zm-7.773-5.69c.396.12.8.42.973.734.072.14.176.49.226.79.08.42.16.65.36 1 .34.6 1 1.27 1.52 1.54l.4.216-.42-.465c-.24-.25-.52-.616-.64-.806-.23-.4-.31-.86-.18-1.04.07-.1.18-.06 1.33.488 1.09.528 1.86.876 2.95 1.34.34.146.37.28.12.515-.168.165-.74.48-.865.48-.114 0-.08.06.24.41.673.74 1.1 1.39 1.1 1.685 0 .2-.12.28-.293.22-.196-.08-.693-.61-1.035-1.1l-.28-.42-.293.207c-.52.38-1.18.66-1.67.69-.4.02-.447.006-.623-.14-.245-.214-.34-.508-.307-.99.01-.21.005-.388-.02-.388-.02 0-.17.09-.335.2-.386.26-.636.635-.92 1.393-.296.78-.454.964-.835.964-.655 0-1.02-.698-1.02-1.96 0-1.09.24-2.055.76-3.023l.265-.51-.29.18c-.56.34-1.02.5-1.423.468-.32-.025-.38-.05-.56-.245-.34-.372-.485-1.14-.32-1.64.23-.7 1.228-1.085 2.12-.82l-.04.033zM39.034.372c-6.878.134-12.658.99-18.777 2.78-.696.2-1.288.356-1.306.33-.08-.08.12-.525.32-.703.12-.1.21-.18.2-.18-.01 0-.22.06-.47.12-.744.22-1.23.42-1.75.74-1.58 1.01-3.18 1.48-5.3 1.56-.94.04-.98.05-1.36.24-.96.48-2.58 1.55-3.73 2.46-.924.74-2.2 2.03-2.2 2.24 0 .02.28-.12.63-.3 1.17-.64 3.43-1.76 4.58-2.27 2.78-1.24 4.897-1.868 6.278-1.88.82-.008 1.17.1 1.52.48.28.307.287.333.16.58-.328.64-1.928 1.58-6.474 3.85-1.54.77-3.2 1.625-3.67 1.905-1.91 1.12-4.1 2.653-5.5 3.855-.69.6-2.05 1.97-2.17 2.19-.03.07.2-.09.54-.35 2.256-1.8 5.53-3.834 7.316-4.542.65-.26 1.33-.384 1.62-.304.45.12.572.47.32.952-.14.27-.9 1.16-1.3 1.52-4.09 3.63-5.733 5.26-6.925 6.87C1.075 23.2.56 24.02.27 24.588c-.34.668-.347.74-.03.374.46-.54 1.356-1.394 2.01-1.92 1.89-1.5 4.06-2.54 4.49-2.14.27.24.08.78-.61 1.73-.693.972-1.083 1.632-1.68 2.85-1.512 3.08-2.35 6.493-2.35 9.596 0 1.913.35 3.62 1.036 5.054.252.52.832 1.454.78 1.24-.78-2.85-.828-5.422-.156-7.963.82-3.1 2.704-5.235 5.08-5.75l.49-.1.174-.64c.495-1.877 1.06-2.82 2.315-3.875.573-.48 1.11-.814 1.67-1.034.47-.19 1.09-.31 1.25-.25.16.06-.23.38-.91.72-.6.31-.6.32-.13.236.52-.1 2.762-.365 3.87-.46 2.694-.227 5.17-.233 5.71-.007.29.12.28.29-.01.477l-.24.14 1.04.04c1.18.04 1.77.12 2.58.33 1.84.48 1.92 1.257.2 1.95l-.476.195-.787-.08c-.43-.04-1.38-.096-2.1-.12-1.158-.036-1.34-.03-1.47.06-.208.13-1.18.295-3.76.625-1.22.152-2.56.34-3.016.42-.84.152-1.812.392-1.76.44.01.012.39-.018.84-.068 5.2-.6 9.504-.4 10.444.484.13.128.18.14.425.084.153-.03.727-.075 1.28-.09 1.92-.07 3.39.325 3.757 1.02.166.3.09.51-.3.882-.634.6-1.795 1.05-2.84 1.1-.543.026-.7.01-1.013-.09-.375-.13-.375-.13-.95-.014-1.48.303-3.335.994-5.316 1.99-.846.42-1.85.993-1.82 1.04.02.007.28-.06.58-.16 2.62-.895 5.705-1.64 8.24-1.99.965-.134 2.774-.19 3.292-.1.886.16 1.326.61.94.97-.66.59-3.4 1.24-5.322 1.245-.544 0-.77-.023-.93-.1-.24-.113-.247-.113-1.866.413-6.042 1.964-14.925 6.23-19.72 9.47-.965.653-1.265.89-.733.58 3.61-2.1 8.725-4.53 12.693-6.03 4.593-1.74 7.862-2.586 12.438-3.234 2.427-.348 3.1-.404 5.104-.404 2.12 0 2.57.06 3.34.432.56.267.765.52.8.963.045.524-.205.86-.87 1.184-.68.34-1.307.51-3.782 1.02-2.1.44-3.384.766-4.43 1.114-.75.244-1.93.747-1.88.79.004.01.24-.05.5-.136 4-1.25 11.005-2.52 14.846-2.69.905-.04 1.13-.1.72-.18-.34-.06-1.36-.4-1.555-.515-.58-.34.4-.94 2.06-1.28 1.065-.22 1.685-.28 2.75-.29 1.158 0 1.58.082 1.92.37.23.19.24.41.05.704-.486.734-1.93.56-1.782-.212.035-.17.027-.17-.107-.08-.07.054-.2.226-.287.39-.134.264-.154.374-.154.91.01 1.53.66 2.68 2.6 4.616 1.053 1.04 1.157 1.16 1.39 1.647.14.28.3.72.353.98.114.504.14 1.84.072 2.74-.05.54-.04.58.05.46.21-.26.64-1.213.907-1.99.55-1.64.76-3.32.51-4.155-.112-.367-.29-.6-.29-.38 0 .213-.312.75-.494.84-.27.14-.4.11-.69-.15-.47-.44-.84-1.48-1.046-2.94-.12-.854-.12-1.466 0-1.923.38-1.434 1.428-2.29 3.04-2.475.3-.035.76-.04 1.01-.02.385.04.483.067.623.214.546.54-.34 2.01-1.2 2.01-.26 0-.417-.07-.67-.3l-.18-.16.037.707c.084 1.56.62 2.733 1.84 4.022.74.78 2.073 1.82 3.075 2.42.05.026-.01-.09-.13-.25-.243-.353-.38-.74-.32-.96.2-.8 1.46-.86 2.14-.1.355.4.52.92.61 1.96.07.77.08.826.28 1.12.273.39.74.947 1.46 1.72 1.03 1.12 4.117 3.904 4.24 3.83.153-.1 1.656-1.42 2.56-2.27 1.32-1.23 2.51-2.503 3.04-3.286.21-.288.224-.35.298-1.132.087-1.062.235-1.54.595-1.94.684-.76 1.94-.71 2.145.09.054.22-.08.61-.327.966-.12.16-.18.27-.13.24 1-.594 2.34-1.64 3.077-2.42 1.22-1.287 1.76-2.46 1.85-4.022l.03-.7-.176.156c-.255.224-.413.3-.67.3-.46 0-.95-.4-1.23-1-.2-.44-.192-.8.028-1.012.14-.147.24-.18.624-.215.26-.02.708-.01 1.012.024 1.604.187 2.66 1.04 3.04 2.477.12.46.12 1.07 0 1.92-.208 1.464-.576 2.504-1.046 2.936-.284.26-.42.29-.69.15-.185-.092-.495-.63-.495-.844 0-.22-.18.015-.293.38-.247.837-.04 2.52.51 4.157.26.78.696 1.73.9 1.99.096.12.1.08.06-.46-.07-.9-.04-2.232.07-2.744.05-.25.21-.69.35-.98.234-.48.34-.6 1.388-1.647 1.94-1.94 2.588-3.095 2.6-4.624 0-.54-.02-.648-.152-.912-.088-.16-.216-.333-.29-.39-.14-.08-.14-.08-.114.09.145.776-1.297.946-1.78.214-.2-.292-.19-.512.043-.7.34-.288.765-.374 1.92-.374 1.07.004 1.686.066 2.75.286 1.66.34 2.64.944 2.06 1.28-.2.11-1.22.446-1.56.51-.414.08-.19.13.72.172 3.84.173 10.85 1.443 14.846 2.69.26.08.498.14.5.13.05-.04-1.126-.547-1.872-.79-1.04-.347-2.335-.67-4.43-1.11-2.473-.513-3.1-.685-3.787-1.02-.67-.326-.92-.66-.88-1.186.04-.446.248-.696.8-.966.78-.38 1.22-.433 3.408-.427 1.67 0 2.09.025 3.265.16 5.393.64 9.162 1.563 14.204 3.47 3.963 1.5 9.08 3.93 12.702 6.03.52.313.22.075-.74-.58-4.803-3.24-13.678-7.504-19.73-9.47-1.62-.53-1.62-.53-1.87-.415-.16.07-.38.1-.927.1-1.91-.01-4.662-.66-5.31-1.25-.4-.36.04-.806.936-.967.52-.09 2.33-.04 3.296.1 2.54.35 5.625 1.094 8.246 1.98.3.1.56.176.58.16.04-.04-.97-.62-1.812-1.04-1.98-.99-3.836-1.68-5.314-1.987-.58-.115-.58-.115-.95.015-1.03.34-2.96-.17-3.86-1.02-.39-.37-.46-.58-.3-.883.37-.687 1.837-1.085 3.756-1.02.555.02 1.13.06 1.28.093.248.053.298.04.43-.087.4-.387 1.42-.65 2.963-.77 1.673-.133 5.15 0 7.51.287.434.054.8.08.812.072.047-.05-.92-.29-1.768-.44-.447-.08-1.8-.27-3.006-.42-2.58-.336-3.55-.5-3.754-.63-.132-.09-.316-.1-1.46-.06-.73.02-1.68.08-2.102.12l-.79.07-.48-.19c-1.716-.69-1.636-1.46.203-1.947.804-.208 1.4-.288 2.58-.33l1.035-.04-.232-.14c-.293-.19-.3-.36-.007-.48.54-.225 3.015-.22 5.71.007 1.105.1 3.348.36 3.87.46.47.09.46.08-.132-.23-.59-.3-1.055-.64-.97-.722.073-.08.84.078 1.3.256.888.36 1.95 1.16 2.655 2 .613.74 1.14 1.95 1.487 3.41.04.135.097.167.517.25 2.41.5 4.362 2.75 5.146 5.923.6 2.467.54 5.022-.22 7.79-.055.22.525-.71.78-1.23.68-1.432 1.03-3.142 1.03-5.055 0-3.1-.84-6.52-2.357-9.602-.6-1.22-.985-1.88-1.68-2.85-.694-.956-.88-1.494-.614-1.738.43-.4 2.6.64 4.487 2.14.655.53 1.547 1.38 2.01 1.92.32.37.318.295-.024-.37-.287-.57-.808-1.388-1.314-2.067-1.195-1.61-2.838-3.24-6.923-6.876-.4-.36-1.16-1.255-1.3-1.52-.257-.49-.133-.84.32-.96.285-.08.97.047 1.62.31 1.78.705 5.062 2.74 7.313 4.537.326.26.564.42.528.354-.114-.22-1.48-1.6-2.17-2.2-1.4-1.2-3.584-2.736-5.5-3.854-.47-.28-2.12-1.132-3.66-1.902-4.536-2.26-6.157-3.22-6.48-3.855-.13-.24-.12-.27.16-.573.347-.38.7-.495 1.52-.49 1.38.015 3.495.64 6.276 1.88 1.144.51 3.404 1.63 4.585 2.27.343.187.623.327.623.3 0-.205-1.275-1.5-2.2-2.234-1.15-.908-2.77-1.98-3.73-2.46-.387-.19-.43-.195-1.376-.233-2.092-.08-3.73-.55-5.234-1.52-.54-.34-1.04-.557-1.76-.76-.29-.08-.527-.145-.54-.145-.005 0 .08.08.2.18.2.18.4.625.32.705-.02.02-.61-.13-1.31-.33-3.78-1.104-7.63-1.892-11.236-2.3-3.22-.36-7.817-.56-11.004-.48-1.943.05-1.923.06.27.233 3.09.25 5.032.55 6.95 1.08 3.776 1.05 8.158 2.548 9.144 3.128.468.28.376.43-.308.534-.25.028-.634.084-.86.12-.24.03-.5.092-.6.134-.16.07-.14.08.28.12 2.11.22 6.2 2.22 9.04 4.422.77.6 1.98 1.75 2.37 2.265.58.76.86 1.58.7 2.08-.12.36-.52.755-1.01.975-.812.37-1.64.504-3.417.56l-1.273.04.42.1c1.01.26 1.97.74 2.72 1.36 1.25 1.04 1.945 2.522 1.355 2.902-.13.088-.37.112-1.48.148-1.22.04-2.453.15-3.243.3-.284.06-.344.094-.4.24-.144.386-.74.532-2.37.574-2.63.08-5.995.59-8.442 1.293-2.748.786-5.28 2.06-7.478 3.755-.685.524-1.706 1.5-2.1 2.01l-.29.36.214-.08c.12-.05.295-.093.393-.093.21 0 .5.21.5.368 0 .154-.32.406-.895.7-.42.22-.72.52-.63.61.02.02.29-.02.607-.09.852-.18 2.386-.224 3.296-.09 1.144.168 2.592.745 2.89 1.147.34.45-.28.84-1.732 1.06-.88.14-3.12.14-4.376 0-2.46-.275-3.76-.68-3.76-1.173 0-.16.288-.42.62-.57l.224-.107-.75-.066c-1.21-.12-1.987-.416-2.457-.954-.407-.454-.46-.86-.193-1.31l.12-.2h-.24c-.45 0-1.313-.32-1.63-.6-.06-.055-.295-.373-.51-.7-.36-.553-.625-.84-.753-.84-.032 0 .02.12.126.26.22.3.37.755.37 1.127 0 .15-.07.6-.156 1.008-.22 1.06-.2 1.172.174 1.42.16.108.16.108.16-.008 0-.14.18-.32.32-.32.15 0 .39.3.83 1.04.37.634.413.68.43.52.05-.43.373-.51.82-.21.51.34 1.02 1.09 1.24 1.84.12.434.075.714-.16.935-.467.448-1.463.12-2.58-.835-.54-.47-.606-.92-.15-1 .18-.03.63.053.923.183.21.086.1-.084-.253-.41-.34-.3-1.055-.765-2.02-1.32-.55-.31-1.077-.825-1.164-1.143-.08-.24-.07-.272.173-.712.19-.34.25-.53.25-.72 0-.557-.594-1.26-1.36-1.63-.566-.28-.74-.315-.4-.08.36.24.62.53.806.9.22.44.24.64.11.94-.24.54-.81.82-1.56.76-.54-.04-1.043-.226-1.363-.5-.34-.295-.41-.48-.33-.92.1-.56.086-1-.06-1.24-.124-.207-.28-.28-.208-.09.12.3.104.49-.04.66-.18.21-.42.22-.65.04-1.137-.9-3.03-1.812-4.014-1.928-.353-.04-.36-.044.52.34 1.894.84 2.953 1.88 2.646 2.61-.08.187-.105.205-.283.18-.105-.02-.52-.147-.9-.28-.383-.135-1.02-.32-1.403-.41-.386-.087-.8-.21-.92-.26-.446-.22-.746-.9-.99-2.216-.114-.6-.132-.98-.14-2.74l-.03-2.03-.17-.225c-.1-.12-.36-.54-.58-.92-.22-.38-.42-.687-.44-.687-.023 0-.22.31-.44.69-.22.38-.487.8-.6.94l-.2.248.05.64c.16 1.96-.034 4.343-.44 5.424-.156.4-.6.905-.84.96-.79.165-1.86.46-2.395.655-.816.29-.9.3-1.01.035-.3-.72.77-1.765 2.655-2.596.886-.39.874-.383.526-.34-.983.115-2.88 1.026-4.014 1.92-.234.188-.478.176-.654-.032-.154-.172-.16-.36-.05-.66.076-.18-.084-.116-.21.092-.14.232-.16.68-.06 1.234.08.44.006.632-.337.92-.32.28-.82.46-1.36.5-.753.07-1.328-.22-1.566-.76-.132-.3-.11-.49.11-.94.188-.37.44-.664.8-.9.34-.23.17-.196-.4.08-.76.366-1.36 1.074-1.36 1.624 0 .192.06.38.256.72.24.44.25.47.174.713-.09.32-.616.83-1.16 1.14-.97.555-1.687 1.02-2.02 1.32-.357.33-.467.5-.25.416 1.14-.49 1.64.05.75.815-1.12.96-2.112 1.28-2.58.837-.236-.22-.28-.5-.156-.933.22-.75.73-1.5 1.235-1.84.457-.3.78-.22.83.21.02.16.06.12.433-.52.46-.76.68-1.04.84-1.04.132 0 .3.185.3.327 0 .104.015.104.18 0 .373-.25.38-.36.16-1.42-.083-.403-.15-.863-.15-1.013 0-.37.145-.825.365-1.125.106-.14.16-.258.13-.258-.12 0-.383.28-.76.83-.206.33-.44.647-.5.7-.32.283-1.18.6-1.63.6h-.24l.128.196c.266.454.212.86-.192 1.31-.472.54-1.25.834-2.46.952l-.753.075.225.11c.33.15.62.414.62.57 0 .5-1.3.9-3.763 1.18-1.244.14-3.485.14-4.365 0-1.45-.23-2.067-.62-1.73-1.07.3-.4 1.74-.98 2.89-1.15.91-.135 2.447-.093 3.295.09.32.07.593.11.61.095.09-.09-.215-.385-.632-.605-.57-.3-.89-.547-.89-.7 0-.16.287-.365.5-.365.1 0 .27.04.39.092l.21.084-.29-.36c-.4-.506-1.42-1.48-2.1-2.01-2.2-1.702-4.73-2.966-7.472-3.762-2.45-.7-5.817-1.207-8.442-1.287-1.634-.04-2.226-.19-2.374-.575-.05-.14-.114-.18-.4-.24-.806-.15-1.957-.26-3.153-.29-.7-.02-1.34-.055-1.42-.085-.083-.04-.14-.1-.14-.195 0-.234.46-.8 1.04-1.28 1.67-1.395 4.2-2.54 6.456-2.91l.668-.12-1.28-.04c-3.233-.1-5.26-.59-6.074-1.473-.292-.32-.44-.65-.44-.99 0-1.13 1.69-2.89 4.282-4.46 2.8-1.69 6.212-3.03 8.13-3.18.495-.04.56-.06.45-.12-.073-.04-.373-.117-.673-.17-1.668-.3-1.728-.318-1.728-.483 0-.52 5.71-2.92 8.63-3.632 1.275-.304 3.622-.62 6.096-.825 2.09-.16 2.13-.18.83-.22C41.91.305 40.49.3 38.99.33l.053.043zm53.78 4.778c.28.092.768.36 1.08.612.316.25.604.6.548.66-.024.02-.28-.067-.58-.19-.82-.332-1.28-.424-2-.392-.847.04-1.13.2-1.13.66 0 .4.673 1.42 1.372 2.08.732.682 1.368 1.042 4.86 2.716 1.082.52 1.422.76 1.962 1.43.448.54.608.83.564 1.01-.06.19-.36.32-.7.287-.68-.068-1.4-.63-2.36-1.832l-.54-.66h-.79c-.71 0-.79.02-.77.11.014.06-.04.14-.128.18l-.146.076.22.1c.273.108.72.524 1.24 1.14.45.53 1.17 1.166 1.812 1.6 1.206.815 2.36 1.17 3.38 1.02.59-.08.87-.22 1.027-.505.106-.194.112-.25.046-.566-.08-.425-.43-1.01-1-1.72-.52-.647-.59-.77-.49-.94.06-.093.06-.12-.03-.147-.34-.11-.65-.28-1.15-.63-.95-.68-2.45-1.472-4.03-2.144-.97-.407-1.66-.775-1.934-1.025-.5-.46-.74-.92-.5-1.01.19-.073.58-.035.92.1.3.1.46.23.916.7l.56.57h1.73l-.043-.14c-.02-.075-.133-.3-.25-.5-.62-1.06-1.373-1.836-2.18-2.232-.47-.23-1.17-.427-1.5-.42l-.15.005.152.04.02-.03zm-32.632.74c-.454.1-1.01.41-1.3.727-.505.56-.767 1.26-1.153 3.06-.34 1.58-.39 1.72-.64 1.94-.14.1-.28.186-.34.186-.07 0-.04.04.08.12.11.06.22.148.24.2.027.04.063.584.08 1.206.033 1.08.04 1.14.2 1.48.333.66.94.92 2.186.93.634 0 .83-.02 1.166-.14 1.06-.36 1.654-1.15 2.014-2.67.158-.655.256-.84.52-.98l.2-.115-.17-.074c-.314-.137-.332-.23-.25-1.547.094-1.46.06-2.86-.07-3.235-.17-.47-.4-.733-.82-.934-.346-.17-.45-.194-1.04-.21-.36-.01-.78.006-.937.036l.024.01zm-24.965-.728c-1.895.154-3.207.56-4.142 1.3-.216.175-2.49 2.28-5.055 4.682l-4.656 4.378 1.674.04.71-.66c.4-.36 2.4-2.325 4.44-4.362 2.1-2.08 3.562-3.48 3.342-3.205-1.54 1.887-6.59 8.157-6.59 8.183 0 .024.233.036.52.036h.52l4.63-4.102c2.542-2.26 4.703-4.18 4.81-4.265.1-.084-.345.392-.98 1.064-1.632 1.71-2.256 2.38-3.2 3.43-.455.51-1.38 1.52-2.04 2.26-.678.74-1.276 1.41-1.342 1.48l-.12.14h1.77l1.2-1.36c1.39-1.59 1.82-2.01 2.228-2.2.24-.11.28-.153.22-.215-.06-.055-.06-.117-.02-.25.08-.23 3.898-4.576 4.602-5.242.6-.57 1.27-.94 1.934-1.08l.4-.086-.41-.006c-.66-.005-1.606.11-2.18.275-.94.274-2.06.89-2.975 1.64-.84.69-3.742 3.198-4.248 3.676-1.18 1.097-1.31 1.22-1.19 1.07.07-.084.43-.51.79-.944.37-.44 1.24-1.5 1.943-2.34.7-.85 1.46-1.74 1.68-1.96.7-.71 1.26-1 2.44-1.265.49-.11.5-.113.215-.113-.16.007-.58.02-.91.055l-.02-.035zm49.546.826c.56.94 2.915 4.772 3.04 4.95.285.4.315.54.175.72-.068.08-.172.16-.226.16-.146 0-.02.1.244.18.44.14.78.54 1.517 1.76l.892 1.462.206.32h1.79l-.805-1.28c-.452-.7-.874-1.39-.95-1.53-.18-.347-.163-.58.04-.775.15-.136.157-.154.047-.154-.19 0-.707-.32-1.007-.63l-.27-.28h.78c.887 0 1.2-.07 1.45-.33.15-.14.174-.22.174-.5 0-.56-.338-1.21-1.15-2.22-.88-1.09-1.404-1.5-2.2-1.74-.35-.1-.66-.12-2.08-.14-.95-.02-1.66-.01-1.64.02l-.02.016zM43.128 6.5c-.2.3-.364.56-.364.58 0 .02.354.04.788.06l.794.02-1.288 1.976c-1.43 2.188-1.577 2.354-2.347 2.617l-.38.13.18.14c.15.104.186.166.186.392 0 .34-.15.616-1.06 2.01-.395.6-.713 1.1-.713 1.115 0 .02.404.034.905.034h.9l.76-1.273c.96-1.59 1.33-2 2.074-2.3.19-.08.3-.14.244-.14-.164 0-.372-.28-.372-.5 0-.26.007-.27 1.327-2.45l1.1-1.805h1.58l.28-.51c.16-.28.29-.534.29-.552 0-.023-1.016-.043-2.26-.043H43.5l-.373.554.008-.044zm64.807 7.283l.46.48c.25.267.635.66.855.89l.39.415-2.5-.004h-2.502l-1.284-1.367c-1.407-1.5-1.92-1.96-2.44-2.18-.32-.14-.335-.14-.237-.248.08-.09.086-.16.04-.27-.028-.08-1.177-1.33-2.56-2.78-1.374-1.45-2.51-2.66-2.522-2.69-.012-.04.5-.07 1.22-.08 1.193-.02 1.24-.02 1.24-.14 0-.14-.52-.48-.946-.61l-.28-.087h.3c.7-.01 1.56.406 2.68 1.3l.78.62-1.3.02c-.71.007-1.29.02-1.29.03 0 .01.48.493 1.06 1.067l1.05 1.05h2.46l.72.655.72.66-2.594.06.2.19c.11.1.33.27.49.38.32.21 1.25.68 1.366.68.05 0 .06.04 0 .17-.11.3.085.68.647 1.27l.494.513h3.272zM55.445 5.2c-.57.12-.94.32-1.345.74-.5.5-.672.86-1.565 3.272-.806 2.19-.928 2.416-1.368 2.575l-.2.076.144.12c.27.212.21.53-.37 2.086-.29.76-.52 1.42-.52 1.45 0 .03 1.06.05 2.51.05h2.5l.09-.327.25-.885.152-.564h-1.56c-.853 0-1.55-.02-1.55-.04 0-.03.085-.306.19-.624.207-.62.46-.96.844-1.16.2-.11.208-.115.07-.16-.08-.02-.175-.134-.225-.242-.067-.17-.067-.25.006-.524.18-.66 1.49-4.5 1.644-4.8.3-.595.68-.93 1.18-1.05.22-.053.212-.053-.136-.053-.2 0-.53.04-.734.08V5.2zm14.81 0c.5.16.68.48.77 1.333.05.46-.133 4.435-.22 4.76-.03.13-.145.3-.26.4l-.21.19.147.132c.26.248.288.468.246 1.794-.026.68-.056 1.34-.074 1.48l-.036.26h1.92l-.052-1.47-.04-1.473 1.87.04.34.826c.195.45.47 1.105.61 1.447l.262.63h.944c.52 0 .94-.02.94-.04 0-.01-.306-.627-.684-1.36-.592-1.154-.684-1.38-.708-1.686-.02-.3-.006-.38.104-.472.12-.113.12-.113-.18-.26-.56-.288-.745-.568-1.733-2.688-.5-1.08-1.02-2.148-1.17-2.38-.62-1.023-1.34-1.463-2.51-1.53-.53-.03-.54-.03-.27.055v.01zM33.623 15.564c-1.356 0-2.47-.01-2.47-.03 0-.02.482-.614 1.078-1.32.6-.707 1.16-1.4 1.22-1.54.18-.31.2-.547.04-.7-.12-.11-.12-.11.18-.19.34-.084.79-.346 1.1-.634.12-.108 1.14-1.312 2.28-2.687l2.08-2.493h1.92c1.53 0 1.92.02 1.88.074l-.4.58-.36.51h-2.55l-.8 1c-.44.55-.8 1.016-.8 1.042 0 .016.55.04 1.22.046l1.22.02-.48.652-.465.66h-2.63l-.2.266c-.32.414-.347.9-.067.99.11.03.074.06-.24.18-.2.07-.504.23-.68.35-.32.24-.986.917-1.22 1.253l-.14.2h3.06l-.652.887-.646.888h-2.47l-.017-.004zM51.67 5.18c-.56.076-1.262.314-1.662.572-.552.352-.96.835-2.753 3.217-1.84 2.46-2 2.62-2.66 2.82-.29.08-.29.08-.167.2.16.13.16.38.02.68-.06.12-.552.82-1.1 1.54l-.987 1.313.97.02c.935.02.96.012 1.05-.12l1-1.47.9-1.33h.914c.51 0 .92.02.92.047 0 .03-.147.586-.332 1.24l-.393 1.413-.06.23h1.85l.3-1.336c.16-.73.346-1.45.412-1.6.14-.33.433-.65.653-.706l.16-.04-.16-.085c-.176-.092-.36-.366-.36-.544 0-.12.747-3.384.98-4.28.285-1.115.567-1.5 1.233-1.74l.32-.11-.3.01c-.17 0-.5.025-.726.055l-.016-.004zm28.255 10.364c-.916 0-1.568-.004-1.58-.012-.016-.02-.204-.6-.42-1.3-.213-.7-.433-1.395-.49-1.54-.127-.34-.463-.717-.683-.773-.152-.04-.16-.04-.04-.1.188-.11.272-.25.272-.46 0-.34-1.2-4.22-1.496-4.84-.313-.65-.747-1.1-1.27-1.31l-.32-.13.48.04c.907.07 1.55.37 2.12.99.408.446.596.874 1.366 3.04.36 1.01.71 1.956.78 2.1.14.28.485.56.68.56.1 0 .087.03-.073.18-.24.22-.24.407-.01.993.1.245.2.52.22.61l.05.175h3.2l.36.87.37.87-2.536.02h-.99l.02.005zM78.83 6.016c.007.03.965 1.15 2.128 2.475 1.154 1.34 2.14 2.49 2.18 2.57.04.07.074.195.08.27 0 .16-.28.507-.416.507-.06.02.068.1.268.18.607.28.77.52 1.535 2.1l.68 1.42.86.02c.46.018.86 0 .86-.02s-.32-.64-.72-1.4c-.772-1.5-.84-1.74-.58-2.06.144-.183.15-.225.028-.225-.24 0-.82-.42-1.04-.77-.053-.08-.216-1.1-.393-2.48-.17-1.295-.318-2.414-.338-2.492-.032-.128-.056-.14-.76-.14-.415 0-.74.03-.74.06 0 .152.37 2.407.455 2.78.06.228.092.428.08.436-.012.012-.256-.29-.55-.66-.296-.38-.9-1.113-1.346-1.633L80.29 6l-.754-.02c-.472-.014-.746.006-.73.04h.03zm-12.814-.08c-.672.166-1.076.49-1.344 1.08-.24.52-.32 1.127-.36 2.79-.05 1.668-.087 1.852-.41 1.987l-.2.086.2.09c.24.14.373.44.48 1.18.2 1.36.63 2.06 1.5 2.47.32.15.4.16 1.2.16.845 0 .86 0 1.265-.2.752-.37 1.008-.89 1.14-2.336.088-.91.094-.934.314-1.19.18-.2.19-.21.06-.21-.07 0-.2-.07-.29-.156-.14-.144-.18-.15-.9-.15h-.75l-.04.84c-.03.91-.09 1.18-.34 1.435-.31.34-.94.18-1.28-.32-.32-.487-.35-.69-.35-3.268V7.84l.14-.297c.18-.368.43-.532.81-.532.22 0 .31.03.44.17.16.16.35.74.35 1.06v.18h1.42l-.04-.35c-.06-.49-.253-1.1-.473-1.43-.21-.31-.63-.61-1.01-.71-.34-.09-1.08-.07-1.532.035l.01-.02zM61.134 7.03c.53.22.593.953.274 3.514-.256 2.08-.464 2.8-.92 3.18-.32.27-.894.295-1.224.057-.5-.38-.515-.88-.068-3.46.16-1.01.34-1.94.38-2.08.16-.66.52-1.12.94-1.25.26-.07.36-.07.6.03l.018.01zm-13.86 4.062H48.6l.42-1.4c.234-.78.526-1.69.66-2.03.13-.34.22-.633.216-.64 0-.017-.08.105-.18.263-.12.24-1.68 2.68-2.32 3.64l-.1.18-.023-.013zM73.25 9.768c.27.72.495 1.3.495 1.32 0 .01-.28.02-.66.02h-.68v-.292c0-.526-.105-3.14-.14-3.52-.04-.36-.027-.34.23.42.148.435.49 1.37.76 2.066l-.004-.014zm15.1-2.5c.36.15.74.505 1.12 1.05.655.916.52 1.2-.568 1.2h-.42l-.76-1.16c-.42-.64-.76-1.19-.76-1.23 0-.113 1.076-.01 1.4.14h-.012z"/></svg>