<svg viewBox="0 0 64 64" xmlns="http://www.w3.org/2000/svg" fill-rule="evenodd" clip-rule="evenodd" stroke-linejoin="round" stroke-miterlimit="1.414"><path d="M29.156 38.124c.107.15.287.486.403.767l.07.17v-.25c0-.27.04-.56.11-.69.03-.05.08-.09.17-.11.35-.09.7.13.93.61l.08.17.063-.15c.076-.17.122-.22.26-.26.21-.06.39.096.61.53l.135.26.15-.28c.226-.426.39-.57.6-.51.14.04.184.087.26.258l.065.15.084-.168c.233-.476.58-.7.932-.607.09.02.14.058.17.116.064.12.11.41.11.69l.003.25.07-.17c.13-.32.354-.72.46-.84.104-.11.113-.115.162-.066.29.29-.75 3.06-1.35 3.582-.137.118-.155.12-.247.03-.15-.15-.293-.712-.363-1.427l-.04-.38-.02.397c-.06 1.03-.22 2.16-.33 2.293-.13.154-.35-.356-.56-1.312-.06-.25-.116-.52-.13-.596l-.023-.14-.026.137c-.26 1.32-.536 2.094-.69 1.91-.11-.13-.27-1.265-.33-2.294l-.02-.4-.04.38c-.07.717-.214 1.28-.363 1.43-.09.09-.11.087-.244-.03-.583-.51-1.628-3.25-1.36-3.575.06-.065.11-.035.23.13zm7.874-3.88c.165.08.31.227.358.368.082.25.006.635-.162.82-.09.1-.122.11-.28.123-.203.016-.435-.064-.716-.235l-.147-.09.135.255c.26.483.38.965.38 1.51 0 .63-.185.98-.51.98-.19 0-.27-.095-.417-.486-.14-.38-.26-.57-.46-.7-.08-.06-.15-.1-.16-.1-.01 0-.014.09-.01.19.017.24-.03.39-.154.493-.09.073-.113.08-.315.067-.244-.015-.574-.153-.836-.345l-.146-.1-.14.207c-.172.247-.42.513-.517.55-.09.033-.146-.01-.146-.11 0-.147.21-.474.546-.843.16-.176.175-.206.12-.206-.06 0-.35-.157-.43-.24-.13-.115-.11-.183.06-.256.54-.23.922-.406 1.47-.67.572-.274.63-.295.664-.246.067.08.028.313-.09.51-.057.094-.197.28-.316.402l-.216.232.2-.11c.26-.135.59-.468.758-.767.1-.176.14-.29.178-.5.073-.43.226-.626.568-.75.208-.07.535-.058.733.034zm-5.473 2.8c.076.038.21.118.3.176l.158.11.156-.107c.2-.128.55-.3.58-.275.03.034-.084.342-.176.474-.107.146-.33.3-.48.326-.13.025-.32-.045-.47-.168-.116-.097-.28-.38-.32-.546-.02-.098-.02-.104.05-.083.04.02.135.06.21.1zM27.672 34.2c.198.06.4.21.486.367.036.066.088.243.113.393.04.21.08.324.18.5.17.3.5.633.76.767l.2.107-.21-.232c-.116-.125-.26-.308-.318-.403-.116-.2-.155-.43-.09-.52.037-.05.09-.03.667.244.546.263.93.437 1.475.67.17.072.184.14.06.256-.084.083-.37.24-.432.24-.057 0-.04.03.12.205.336.37.55.696.55.843 0 .1-.06.14-.147.11-.098-.04-.346-.305-.517-.55l-.14-.21-.146.104c-.26.19-.59.33-.836.344-.2.01-.224.004-.312-.07-.123-.106-.17-.253-.154-.494.007-.106.004-.194-.01-.194-.01 0-.084.045-.166.1-.193.13-.318.318-.46.697-.148.39-.227.483-.417.483-.328 0-.51-.348-.51-.98 0-.544.12-1.026.38-1.51l.132-.255-.145.09c-.28.17-.51.25-.712.234-.16-.013-.19-.025-.28-.123-.17-.186-.243-.57-.16-.82.115-.35.613-.542 1.06-.41zm-8.15-14.532c-3.438.067-6.327.495-9.385 1.39-.348.1-.644.177-.653.165-.043-.04.058-.263.158-.352.06-.05.104-.09.1-.09-.005 0-.112.03-.237.06-.373.11-.614.21-.874.37-.79.508-1.59.74-2.65.78-.47.02-.49.028-.68.12-.48.24-1.29.778-1.863 1.23-.463.37-1.1 1.017-1.1 1.12 0 .01.14-.06.316-.15.586-.32 1.716-.88 2.29-1.132 1.39-.62 2.447-.933 3.137-.94.41-.003.585.05.76.24.14.154.143.167.08.29-.164.32-.964.79-3.236 1.924-.77.385-1.6.813-1.834.953-.957.56-2.05 1.326-2.75 1.927-.345.3-1.026.985-1.084 1.095-.017.034.1-.045.267-.176 1.128-.9 2.765-1.916 3.657-2.27.324-.13.666-.192.81-.152.225.06.286.235.16.476-.07.135-.45.58-.65.76C2.217 29.12 1.396 29.934.8 30.74c-.254.34-.513.75-.657 1.034-.17.334-.174.37-.015.187.23-.27.677-.697 1.004-.96.944-.75 2.03-1.27 2.245-1.07.135.12.04.39-.305.866-.347.485-.542.815-.84 1.423-.756 1.54-1.174 3.246-1.174 4.797 0 .956.175 1.81.517 2.526.127.26.417.727.39.62-.39-1.425-.413-2.71-.077-3.98.41-1.55 1.352-2.616 2.54-2.873l.245-.05.087-.32c.247-.938.53-1.41 1.157-1.937.288-.24.554-.408.835-.518.237-.095.545-.156.625-.125.08.03-.114.19-.456.36-.3.154-.3.16-.064.117.26-.05 1.382-.182 1.935-.23 1.348-.113 2.585-.116 2.854-.003.145.06.14.144-.004.238l-.12.07.52.02c.59.02.886.06 1.29.166.92.24.96.627.1.975l-.237.096-.393-.04c-.215-.02-.69-.048-1.05-.06-.576-.018-.667-.015-.734.03-.102.065-.588.147-1.877.312-.61.077-1.28.17-1.508.21-.42.077-.906.197-.88.22.006.007.195-.008.42-.033 2.6-.3 4.75-.2 5.22.242.065.064.09.07.212.042.077-.017.364-.038.64-.047.96-.035 1.694.164 1.878.51.082.15.045.255-.15.442-.318.3-.898.525-1.42.55-.272.012-.35.005-.507-.046-.186-.065-.186-.065-.473-.007-.74.153-1.668.498-2.658.996-.424.21-.927.497-.91.52.01.004.138-.03.288-.08 1.31-.447 2.853-.82 4.12-.994.483-.067 1.387-.094 1.646-.05.443.08.663.304.47.484-.33.296-1.7.62-2.66.623-.273 0-.386-.012-.466-.05-.12-.057-.124-.057-.933.206-3.02.982-7.46 3.114-9.857 4.733-.482.327-.632.446-.366.29 1.804-1.05 4.36-2.263 6.343-3.014 2.296-.87 3.93-1.292 6.217-1.616 1.212-.174 1.55-.202 2.55-.202 1.06 0 1.285.03 1.67.218.28.134.382.26.4.482.022.262-.103.43-.436.592-.34.168-.653.254-1.89.51-1.05.22-1.692.382-2.214.556-.376.122-.965.373-.94.394.002.006.12-.024.25-.067 2-.624 5.5-1.26 7.42-1.345.453-.02.566-.05.36-.087-.17-.03-.68-.2-.777-.258-.29-.17.2-.47 1.03-.64.53-.11.84-.14 1.374-.145.577 0 .788.042.96.185.115.096.12.206.023.353-.244.366-.965.28-.892-.107.017-.085.013-.085-.054-.04-.035.026-.1.112-.142.194-.067.132-.077.187-.077.456.005.763.33 1.34 1.3 2.306.526.52.578.58.694.823.07.14.15.36.177.49.057.252.07.92.036 1.37-.024.27-.02.29.025.23.106-.13.32-.607.454-.995.275-.82.38-1.66.254-2.077-.055-.184-.144-.3-.144-.19 0 .106-.156.375-.247.42-.134.07-.2.055-.344-.076-.236-.22-.42-.74-.523-1.47-.06-.426-.06-.732 0-.96.19-.718.714-1.146 1.52-1.238.15-.017.38-.02.504-.01.193.02.242.034.312.107.273.27-.17 1.005-.6 1.005-.13 0-.208-.037-.334-.15l-.09-.08.018.352c.042.78.31 1.366.92 2.01.37.39 1.036.91 1.537 1.21.024.013-.006-.045-.064-.125-.123-.176-.19-.37-.162-.48.1-.4.73-.43 1.07-.05.178.2.26.46.306.98.036.385.04.413.14.56.137.195.37.473.73.86.516.56 2.058 1.952 2.12 1.916.076-.05.827-.71 1.28-1.135.66-.614 1.254-1.252 1.52-1.643.104-.144.11-.175.147-.566.043-.533.117-.772.297-.97.342-.382.97-.354 1.072.046.027.11-.04.303-.163.48-.06.08-.09.135-.066.12.5-.297 1.168-.82 1.537-1.21.61-.643.88-1.23.924-2.01l.017-.35-.087.077c-.128.112-.207.15-.335.15-.23 0-.475-.2-.615-.5-.1-.22-.096-.4.014-.506.07-.073.12-.09.312-.107.13-.01.354-.006.506.012.802.092 1.33.52 1.52 1.237.06.23.06.533 0 .96-.104.73-.288 1.25-.523 1.466-.143.13-.21.144-.345.074-.093-.046-.248-.315-.248-.422 0-.11-.09.007-.146.19-.124.418-.02 1.258.255 2.077.13.39.347.864.45.995.047.058.05.04.03-.23-.036-.45-.02-1.117.034-1.373.025-.125.105-.345.175-.49.117-.24.17-.3.694-.823.97-.97 1.294-1.546 1.3-2.31 0-.27-.01-.324-.076-.456-.044-.082-.108-.168-.145-.195-.07-.04-.07-.04-.057.044.073.387-.648.472-.89.106-.1-.146-.094-.256.022-.35.17-.144.382-.187.96-.187.534.002.842.033 1.374.143.83.17 1.32.473 1.03.64-.1.056-.61.224-.78.255-.207.04-.094.066.36.087 1.92.087 5.423.722 7.42 1.345.13.04.248.07.25.065.025-.02-.564-.273-.937-.395-.52-.173-1.167-.335-2.214-.555-1.236-.256-1.55-.342-1.893-.51-.335-.162-.46-.33-.44-.592.02-.223.124-.348.4-.483.39-.19.61-.216 1.703-.213.835 0 1.045.014 1.632.08 2.696.32 4.58.783 7.1 1.736 1.982.75 4.54 1.963 6.35 3.013.26.157.11.038-.37-.29-2.4-1.62-6.836-3.75-9.86-4.733-.81-.265-.81-.265-.935-.207-.08.036-.19.05-.463.05-.955-.005-2.33-.33-2.653-.625-.2-.18.02-.403.467-.483.26-.044 1.165-.02 1.648.05 1.27.174 2.81.547 4.12.99.15.05.28.088.29.08.02-.02-.485-.31-.906-.52-.99-.495-1.918-.84-2.657-.993-.29-.058-.29-.058-.475.007-.514.17-1.48-.085-1.928-.51-.196-.187-.232-.29-.15-.443.183-.344.917-.543 1.876-.51.277.01.565.03.64.046.123.027.148.02.215-.043.2-.194.71-.325 1.48-.386.837-.066 2.575 0 3.754.144.217.027.4.04.406.036.024-.024-.46-.144-.883-.22-.223-.04-.9-.134-1.502-.21-1.29-.166-1.775-.25-1.876-.315-.066-.045-.158-.048-.73-.03-.365.012-.84.04-1.05.06l-.396.035-.24-.094c-.857-.346-.817-.73.102-.972.402-.104.7-.144 1.29-.165l.517-.02-.116-.07c-.146-.095-.15-.18-.003-.24.27-.112 1.506-.11 2.853.004.552.05 1.673.18 1.935.23.235.045.23.04-.067-.114-.295-.15-.527-.32-.485-.362.037-.04.42.038.65.127.444.18.975.58 1.327 1 .306.37.57.974.743 1.704.02.067.047.083.257.125 1.204.25 2.18 1.374 2.572 2.96.3 1.233.27 2.51-.11 3.893-.027.11.263-.355.39-.615.34-.715.514-1.57.514-2.526 0-1.55-.42-3.26-1.177-4.8-.3-.61-.493-.94-.84-1.425-.347-.477-.44-.746-.307-.868.215-.2 1.3.32 2.243 1.07.327.263.773.69 1.005.96.16.183.158.146-.013-.187-.143-.285-.403-.694-.656-1.033-.597-.806-1.418-1.62-3.46-3.438-.2-.18-.58-.627-.65-.76-.128-.245-.066-.42.16-.48.143-.04.485.024.81.155.89.353 2.53 1.37 3.655 2.268.163.13.282.21.264.177-.058-.11-.74-.8-1.085-1.1-.7-.6-1.792-1.367-2.75-1.926-.234-.14-1.06-.565-1.83-.95-2.266-1.13-3.076-1.61-3.238-1.927-.064-.12-.06-.134.08-.286.174-.19.35-.247.76-.244.69.007 1.747.32 3.137.94.572.255 1.702.814 2.292 1.134.172.093.312.163.312.15 0-.103-.637-.75-1.1-1.117-.575-.454-1.385-.99-1.864-1.23-.193-.094-.214-.097-.687-.116-1.046-.04-1.865-.275-2.616-.76-.27-.17-.52-.278-.88-.38-.145-.04-.264-.072-.27-.072-.003 0 .04.04.1.09.1.09.2.313.16.353-.01.01-.306-.065-.654-.165-1.89-.552-3.815-.946-5.617-1.15-1.61-.18-3.907-.28-5.5-.24-.97.025-.96.03.136.117 1.544.124 2.515.274 3.474.54 1.887.525 4.077 1.273 4.57 1.563.234.14.188.215-.154.267-.124.014-.316.042-.43.06-.12.015-.25.046-.3.067-.08.035-.07.04.14.06 1.056.11 3.1 1.11 4.52 2.21.387.3.99.875 1.185 1.132.29.38.43.79.35 1.04-.06.18-.26.376-.504.486-.406.185-.82.252-1.708.28l-.636.02.21.05c.505.13.984.37 1.36.68.623.52.97 1.26.675 1.45-.065.044-.184.056-.74.074-.61.02-1.225.075-1.62.15-.143.03-.173.047-.2.12-.073.193-.37.266-1.185.287-1.314.04-2.997.296-4.22.647-1.373.393-2.638 1.03-3.737 1.877-.342.262-.852.75-1.05 1.004l-.144.18.107-.04c.06-.025.147-.046.196-.046.106 0 .25.105.25.184 0 .077-.16.203-.446.35-.21.11-.36.26-.316.305.01.01.145-.01.303-.045.425-.09 1.192-.112 1.647-.045.572.084 1.296.372 1.445.573.17.225-.14.42-.866.53-.44.07-1.56.07-2.187 0-1.23-.137-1.88-.34-1.88-.586 0-.08.144-.21.31-.285l.112-.052-.375-.034c-.604-.06-.992-.208-1.227-.477-.203-.227-.23-.43-.096-.655l.06-.1h-.12c-.226 0-.657-.16-.815-.3-.03-.027-.148-.186-.255-.35-.18-.276-.313-.42-.377-.42-.017 0 .01.06.062.13.11.15.184.378.184.564 0 .075-.034.3-.077.503-.11.53-.1.586.087.71.08.054.08.054.08-.004 0-.07.09-.16.16-.16.075 0 .195.15.415.52.186.317.207.34.216.26.024-.215.186-.255.41-.105.255.17.51.544.62.92.06.217.037.357-.08.467-.234.224-.732.06-1.29-.417-.27-.234-.303-.46-.074-.5.09-.015.313.027.46.092.105.042.05-.043-.127-.205-.17-.15-.526-.383-1.01-.66-.274-.154-.537-.413-.58-.572-.04-.12-.036-.136.086-.356.095-.17.125-.265.125-.36 0-.278-.296-.63-.68-.815-.282-.14-.37-.157-.2-.04.18.12.31.265.404.45.11.22.12.32.054.47-.12.27-.404.41-.78.38-.27-.02-.52-.113-.68-.25-.17-.147-.205-.24-.165-.46.05-.28.043-.5-.03-.62-.062-.103-.14-.14-.104-.045.06.15.053.245-.02.33-.09.105-.21.11-.325.02-.567-.45-1.513-.905-2.005-.963-.176-.02-.18-.022.26.17.947.42 1.476.94 1.323 1.304-.04.094-.053.103-.142.09-.053-.01-.26-.073-.45-.14-.192-.067-.51-.16-.702-.204-.193-.044-.4-.105-.46-.13-.223-.11-.373-.45-.495-1.108-.057-.303-.066-.49-.07-1.37l-.014-1.016-.085-.113c-.05-.06-.18-.27-.29-.46-.11-.19-.21-.344-.22-.344-.012 0-.11.154-.22.343-.11.19-.244.4-.3.47l-.1.124.024.32c.08.98-.017 2.17-.22 2.71-.078.2-.3.452-.42.48-.394.082-.93.23-1.197.327-.407.146-.45.15-.504.018-.15-.36.384-.882 1.327-1.297.443-.195.437-.192.263-.17-.492.057-1.44.512-2.007.96-.116.093-.238.087-.326-.017-.077-.086-.08-.18-.025-.33.038-.09-.042-.058-.106.046-.07.117-.08.34-.03.618.04.22.004.316-.167.46-.16.14-.41.23-.68.25-.376.034-.663-.11-.782-.38-.066-.15-.054-.246.056-.47.093-.185.22-.332.4-.45.17-.116.083-.098-.2.04-.38.183-.68.537-.68.812 0 .097.03.19.127.36.122.22.125.235.088.357-.045.16-.307.416-.58.57-.485.278-.842.51-1.01.66-.177.165-.232.25-.125.208.57-.245.82.024.377.406-.56.48-1.056.64-1.29.418-.118-.11-.14-.25-.078-.466.11-.375.364-.75.617-.92.228-.15.39-.11.414.105.01.08.03.06.217-.26.23-.38.34-.52.42-.52.066 0 .15.093.15.164 0 .053.007.053.09 0 .186-.125.19-.18.08-.71-.042-.2-.076-.43-.076-.505 0-.185.073-.414.183-.564.052-.07.08-.128.064-.128-.062 0-.193.14-.38.415-.104.165-.22.324-.25.35-.16.142-.59.3-.815.3h-.12l.063.098c.133.227.106.43-.096.655-.236.27-.624.417-1.23.476l-.376.038.112.056c.166.074.31.206.31.285 0 .25-.65.45-1.88.59-.622.07-1.742.07-2.182 0-.724-.116-1.033-.31-.865-.535.15-.2.87-.49 1.446-.575.455-.068 1.222-.047 1.646.045.16.034.296.056.305.047.045-.045-.108-.192-.316-.302-.287-.15-.446-.274-.446-.35 0-.08.143-.183.25-.183.05 0 .134.02.195.046l.105.043-.144-.18c-.2-.253-.71-.74-1.05-1.005-1.1-.85-2.364-1.482-3.736-1.88-1.225-.35-2.908-.604-4.22-.644-.817-.02-1.113-.094-1.187-.287-.026-.07-.057-.09-.2-.12-.403-.074-.978-.13-1.576-.145-.35-.01-.67-.027-.71-.042-.042-.02-.07-.05-.07-.097 0-.117.23-.4.52-.64.835-.697 2.1-1.27 3.226-1.454l.334-.06-.64-.02c-1.616-.05-2.63-.296-3.036-.736-.146-.16-.22-.325-.22-.496 0-.565.844-1.444 2.14-2.23 1.4-.845 3.105-1.514 4.064-1.59.247-.02.28-.028.225-.06-.037-.02-.187-.057-.337-.084-.836-.153-.867-.162-.867-.244 0-.26 2.854-1.46 4.314-1.816.637-.152 1.81-.31 3.047-.412 1.046-.08 1.065-.09.414-.11-.57-.017-1.28-.02-2.03-.005zm26.88 2.388c.14.046.384.18.54.306.158.125.302.3.274.33-.012.01-.14-.034-.29-.095-.41-.166-.64-.212-1-.196-.423.02-.564.1-.564.33 0 .2.336.71.685 1.04.366.34.684.52 2.43 1.357.54.26.71.38.98.715.224.27.304.415.282.504-.03.095-.18.16-.35.144-.34-.034-.7-.315-1.18-.916l-.27-.33h-.395c-.354 0-.394.008-.384.054.007.03-.02.066-.064.087l-.073.037.11.05c.136.054.36.262.62.57.224.266.585.583.905.8.603.407 1.18.584 1.69.51.294-.04.434-.11.513-.253.053-.097.056-.124.023-.283-.044-.212-.215-.505-.5-.86-.26-.323-.295-.384-.246-.47.03-.046.03-.06-.016-.073-.17-.054-.326-.14-.574-.314-.478-.34-1.227-.737-2.018-1.073-.484-.203-.83-.387-.967-.512-.25-.23-.37-.46-.25-.505.096-.036.29-.017.46.05.15.05.23.116.458.35l.28.285h.865l-.022-.07c-.01-.037-.066-.15-.124-.25-.31-.53-.687-.917-1.09-1.115-.235-.116-.586-.214-.75-.21l-.076.002.077.02zm-16.31.37c-.227.05-.505.205-.65.363-.252.28-.383.63-.576 1.53-.168.79-.192.86-.317.97-.07.05-.14.092-.17.092-.036 0-.02.02.04.06.054.03.11.074.122.1.014.02.032.292.04.603.017.544.02.57.1.742.167.332.47.46 1.093.464.317 0 .415-.01.583-.07.53-.18.827-.572 1.007-1.332.078-.327.127-.42.26-.49l.1-.057-.086-.037c-.157-.068-.166-.114-.124-.773.046-.73.03-1.43-.036-1.616-.085-.234-.2-.366-.41-.466-.173-.085-.224-.097-.52-.106-.18-.006-.39.003-.468.018zm-12.478-.364c-.947.077-1.603.28-2.07.65-.108.087-1.244 1.14-2.527 2.34L10.69 27.24l.837.02.354-.33c.2-.18 1.2-1.162 2.22-2.18 1.05-1.04 1.78-1.74 1.67-1.602-.77.943-3.293 4.077-3.293 4.09 0 .012.116.018.26.018h.26l2.314-2.05c1.27-1.13 2.35-2.09 2.404-2.132.05-.042-.173.196-.49.532-.816.852-1.128 1.185-1.6 1.71-.227.254-.69.76-1.02 1.13-.338.37-.637.703-.67.74l-.06.07h.884l.6-.68c.695-.795.91-1.006 1.114-1.1.12-.056.14-.077.11-.108-.03-.027-.03-.058-.01-.125.04-.115 1.948-2.287 2.3-2.62.3-.284.635-.47.967-.54l.2-.043-.205-.003c-.33-.003-.803.055-1.09.137-.47.136-1.03.444-1.487.82-.42.345-1.87 1.597-2.123 1.836-.588.546-.655.607-.594.534.034-.043.214-.256.397-.473.185-.22.62-.75.973-1.17.35-.424.73-.87.84-.98.35-.354.63-.5 1.22-.632.245-.054.25-.057.107-.057-.08.003-.29.01-.456.027zm24.764.413c.28.47 1.457 2.385 1.52 2.474.142.2.157.27.087.36-.034.04-.086.08-.113.08-.073 0-.01.05.122.09.22.07.39.27.758.88l.446.73.103.16h.89l-.403-.64c-.226-.35-.437-.694-.474-.764-.09-.174-.082-.29.02-.388.075-.068.078-.077.023-.077-.095 0-.354-.164-.504-.317l-.134-.14h.39c.444 0 .6-.036.725-.164.075-.07.087-.11.087-.25 0-.28-.168-.607-.574-1.11-.44-.544-.702-.75-1.1-.868-.174-.05-.33-.06-1.04-.073-.474-.01-.83-.006-.82.01zm-20.81.256c-.1.15-.182.28-.182.29 0 .01.177.02.394.03l.397.01-.644.987c-.715 1.094-.788 1.177-1.173 1.308l-.192.065.088.07c.076.052.092.083.092.196 0 .17-.074.308-.53 1.005-.197.3-.356.55-.356.557 0 .01.202.017.452.017h.45l.38-.636c.48-.796.664-1 1.036-1.153.095-.04.15-.072.122-.072-.082 0-.186-.14-.186-.25 0-.13.003-.134.663-1.225l.55-.902h.79l.14-.254c.08-.14.143-.267.143-.276 0-.012-.507-.022-1.13-.022H21.75l-.186.277zm32.392 3.64l.23.24c.125.133.317.33.427.444l.195.208-1.25-.002h-1.25l-.642-.683c-.703-.75-.96-.98-1.22-1.09-.16-.07-.167-.07-.118-.124.04-.042.043-.075.02-.13-.014-.04-.588-.666-1.28-1.39-.686-.724-1.254-1.33-1.26-1.344-.006-.02.25-.036.61-.04.596-.01.62-.01.62-.07 0-.07-.26-.24-.473-.305l-.14-.043h.15c.353-.005.78.203 1.34.65l.39.31-.647.01c-.354.003-.644.01-.644.015 0 .005.24.246.53.533l.524.525h1.23l.36.327.36.33-1.296.03.1.094c.055.05.165.135.244.19.16.106.625.34.683.34.025 0 .03.02 0 .086-.055.15.043.34.324.634l.247.256h1.625zm-26.236-4.29c-.284.06-.47.16-.672.37-.25.25-.336.43-.782 1.635-.403 1.095-.464 1.208-.684 1.287l-.1.038.072.06c.135.106.104.265-.186 1.043-.144.383-.26.71-.26.725 0 .016.526.028 1.253.028h1.25l.045-.162.122-.442.076-.282h-.78c-.426 0-.774-.01-.774-.02 0-.016.042-.153.094-.312.104-.31.23-.48.422-.58.1-.054.104-.057.036-.08-.04-.01-.088-.066-.113-.12-.033-.086-.033-.126.003-.263.09-.33.746-2.25.822-2.4.15-.296.34-.464.59-.523.11-.027.106-.027-.068-.027-.1 0-.265.02-.366.04zm7.403 0c.25.08.34.24.385.666.025.23-.067 2.217-.11 2.38-.015.065-.073.15-.13.2l-.105.094.073.066c.13.124.144.234.123.897-.013.34-.028.673-.037.743l-.018.13h.96l-.026-.733-.02-.736.934.02.17.413c.098.225.236.552.306.723l.13.315h.472c.26 0 .47-.01.47-.02 0-.006-.153-.314-.342-.68-.296-.577-.342-.69-.354-.843-.01-.15-.003-.19.052-.237.06-.056.06-.056-.09-.13-.28-.143-.372-.283-.866-1.343-.25-.54-.514-1.073-.587-1.19-.31-.51-.67-.73-1.255-.763-.266-.016-.27-.016-.135.027zm-18.31 5.18c-.678 0-1.234-.005-1.234-.015s.24-.307.538-.66c.3-.353.58-.7.61-.77.09-.154.1-.273.02-.35-.06-.054-.06-.054.09-.094.17-.042.395-.173.548-.317.058-.054.57-.656 1.14-1.343l1.04-1.246h.96c.763 0 .96.01.94.037l-.204.29-.18.255h-1.27l-.4.5c-.22.275-.4.507-.4.52 0 .008.274.02.61.023l.61.01-.24.326-.233.33h-1.314l-.1.133c-.16.207-.174.45-.034.494.055.016.037.03-.12.09-.1.036-.252.115-.34.176-.16.12-.493.458-.61.626l-.07.1h1.53l-.326.443-.323.444h-1.23zm9.02-5.19c-.28.038-.63.157-.83.286-.276.176-.48.417-1.376 1.608-.92 1.23-1 1.31-1.33 1.41-.144.042-.144.042-.083.1.08.067.08.19.01.34-.03.06-.276.41-.55.772l-.493.658.48.01c.467.01.48.006.525-.06l.5-.734.45-.666h.456c.255 0 .46.01.46.024 0 .015-.074.293-.166.62l-.197.706-.03.115h.925l.15-.667c.08-.365.173-.725.206-.8.07-.166.217-.325.327-.353l.08-.02-.08-.043c-.088-.046-.18-.183-.18-.272 0-.06.373-1.692.49-2.14.142-.557.283-.75.616-.868l.16-.055-.15.004c-.084 0-.25.012-.362.027zm14.123 5.18c-.458 0-.784-.002-.79-.006-.008-.01-.102-.3-.21-.65-.106-.35-.216-.697-.244-.77-.064-.17-.232-.358-.342-.386-.076-.018-.08-.02-.02-.05.094-.05.136-.12.136-.227 0-.17-.6-2.11-.748-2.42-.156-.324-.373-.55-.635-.654l-.16-.064.24.02c.454.035.775.184 1.06.496.204.223.298.437.683 1.52.18.505.354.978.39 1.05.07.14.242.28.34.28.05 0 .043.015-.037.09-.122.11-.122.203-.006.496.05.123.1.26.11.306l.022.087h1.6l.18.434.183.436-1.268.01h-.495zm-.547-4.762c.003.015.482.574 1.063 1.237.577.666 1.07 1.24 1.09 1.28.02.036.037.097.04.134 0 .08-.14.253-.208.253-.03.01.034.05.134.09.303.14.385.26.767 1.05l.34.71.43.01c.23.008.43 0 .43-.01s-.16-.32-.36-.7c-.386-.75-.42-.87-.29-1.03.072-.092.075-.113.014-.113-.12 0-.41-.21-.52-.384-.026-.037-.108-.547-.197-1.237-.085-.648-.158-1.207-.168-1.246-.016-.064-.028-.07-.38-.07-.207 0-.37.015-.37.03 0 .076.185 1.203.228 1.39.03.113.046.213.04.217-.006.006-.128-.144-.275-.33-.148-.19-.45-.556-.673-.816l-.408-.474-.377-.01c-.237-.007-.374.003-.365.02zm-6.405-.04c-.336.083-.538.245-.672.54-.12.26-.16.563-.18 1.394-.025.834-.043.926-.205.993l-.1.043.1.046c.12.07.187.22.24.59.1.68.315 1.03.75 1.238.16.075.2.08.6.08.422 0 .43 0 .632-.1.376-.186.504-.446.57-1.167.044-.455.047-.467.157-.595.087-.1.09-.106.03-.106-.038 0-.1-.034-.145-.077-.073-.072-.09-.075-.452-.075h-.374l-.02.42c-.016.454-.047.59-.17.717-.155.17-.47.09-.64-.16-.16-.244-.174-.345-.174-1.634V23.4l.07-.148c.09-.184.214-.266.403-.266.11 0 .152.015.22.085.08.08.173.37.173.53v.09h.71l-.02-.177c-.03-.247-.127-.55-.237-.715-.104-.155-.314-.305-.504-.357-.17-.044-.54-.035-.766.017zm-2.44.547c.265.11.296.476.137 1.756-.128 1.04-.232 1.4-.46 1.59-.16.135-.447.147-.612.028-.25-.19-.257-.44-.034-1.73.08-.505.17-.97.19-1.04.08-.332.26-.56.47-.625.13-.037.18-.037.3.015zm-6.928 2.03h.663l.21-.7c.117-.39.263-.844.33-1.015.065-.17.11-.316.108-.32 0-.008-.04.053-.09.132-.06.12-.84 1.34-1.16 1.82l-.05.09zm12.984-.662c.134.36.247.65.247.66 0 .005-.14.01-.33.01h-.34v-.146c0-.263-.052-1.57-.07-1.76-.02-.18-.013-.17.115.21.074.218.245.685.38 1.033zm7.547-1.25c.18.076.37.253.56.525.327.458.26.6-.284.6h-.21l-.38-.58c-.21-.32-.38-.594-.38-.615 0-.056.538-.004.7.07z" fill="#fff"/></svg>