<svg viewBox="0 0 128 28" xmlns="http://www.w3.org/2000/svg" fill-rule="evenodd" clip-rule="evenodd" stroke-linejoin="round" stroke-miterlimit="1.414"><path d="M127.98 13.038v-2.252h-2.796v-3.5l-.094.03-2.625.8h-.05v2.65h-4.144v-1.48c0-.68.16-1.21.46-1.56.3-.35.74-.525 1.28-.525.4 0 .82.1 1.22.28l.1.04V5.16l-.04-.02c-.38-.135-.9-.205-1.54-.205-.81 0-1.55.18-2.2.534-.65.34-1.16.85-1.51 1.49-.36.64-.54 1.38-.54 2.19v1.62h-1.94v2.25h1.95v9.48h2.79v-9.48h4.147v6.02c0 2.48 1.166 3.74 3.48 3.74.38 0 .78-.048 1.18-.13.415-.09.7-.18.86-.27l.04-.02v-2.27l-.113.076c-.15.1-.34.187-.56.247-.22.06-.41.1-.552.1-.54 0-.94-.14-1.186-.427-.254-.285-.38-.79-.38-1.5v-5.54h2.78l-.006-.014zm-20.69 7.48c-1.013 0-1.813-.337-2.38-1-.563-.665-.85-1.614-.85-2.82 0-1.244.287-2.22.853-2.896.564-.672 1.356-1.014 2.356-1.014.97 0 1.73.326 2.29.97.56.648.84 1.614.84 2.872 0 1.274-.26 2.253-.78 2.907-.52.65-1.3.98-2.32.98m.12-10.013c-1.93 0-3.468.566-4.564 1.684-1.09 1.12-1.648 2.666-1.648 4.6 0 1.84.54 3.315 1.613 4.39 1.07 1.08 2.527 1.64 4.327 1.64 1.872 0 3.38-.58 4.472-1.705 1.1-1.132 1.646-2.666 1.646-4.553 0-1.866-.52-3.356-1.55-4.42-1.03-1.074-2.474-1.616-4.3-1.616m-10.72 0c-1.32 0-2.404.336-3.24 1-.832.668-1.26 1.54-1.26 2.6 0 .554.094 1.04.276 1.46.18.414.46.78.834 1.088.37.3.94.62 1.7.948.64.26 1.11.48 1.414.66.3.167.512.34.62.507.12.16.18.39.18.66 0 .794-.588 1.176-1.8 1.176-.452 0-.966-.094-1.528-.28-.567-.184-1.093-.45-1.567-.792l-.12-.08v2.68l.04.02c.4.18.893.34 1.48.46.585.13 1.12.19 1.58.19 1.43 0 2.58-.34 3.42-1.004.84-.672 1.27-1.57 1.27-2.664 0-.79-.23-1.47-.685-2.015-.45-.546-1.23-1.044-2.323-1.484-.863-.35-1.42-.64-1.66-.86-.22-.216-.323-.52-.323-.904 0-.34.14-.614.425-.834.286-.225.686-.337 1.186-.337.465 0 .94.07 1.42.215.47.148.885.34 1.23.576l.117.08v-2.56l-.04-.02c-.325-.14-.747-.257-1.26-.35-.51-.097-.973-.14-1.375-.14m-11.8 10.01c-1.01 0-1.81-.334-2.37-1-.57-.66-.855-1.61-.855-2.82 0-1.24.286-2.22.854-2.893.56-.672 1.354-1.014 2.35-1.014.97 0 1.74.326 2.295.97.552.65.84 1.616.84 2.874 0 1.272-.27 2.25-.79 2.905-.51.65-1.29.98-2.32.98m.14-10.01c-1.94 0-3.48.564-4.57 1.682-1.097 1.12-1.65 2.665-1.65 4.6 0 1.84.54 3.314 1.603 4.39 1.072 1.08 2.526 1.64 4.325 1.64 1.88 0 3.38-.58 4.48-1.71 1.094-1.134 1.65-2.668 1.65-4.555 0-1.867-.52-3.357-1.54-4.42-1.03-1.075-2.476-1.617-4.3-1.617M74.61 12.84V10.8h-2.76v11.73h2.76v-6c0-1.02.23-1.86.687-2.495.45-.632 1.05-.94 1.78-.94.25 0 .53.04.838.12.3.08.516.16.64.26l.12.08v-2.78l-.044-.02c-.26-.116-.62-.172-1.08-.172-.69 0-1.31.224-1.842.66-.47.388-.807.916-1.065 1.576h-.05l.025.02zm-7.72-2.32c-1.27 0-2.4.265-3.36.8-.968.54-1.71 1.3-2.22 2.28-.5.97-.76 2.105-.76 3.37 0 1.11.252 2.124.74 3.022.494.9 1.19 1.6 2.07 2.09.874.483 1.89.73 3.014.73 1.312 0 2.43-.26 3.33-.78l.04-.02V19.48l-.12.083c-.407.3-.86.535-1.35.705-.488.17-.932.256-1.32.256-1.086 0-1.954-.34-2.586-1.005-.64-.68-.96-1.62-.96-2.8 0-1.2.34-2.16.996-2.86.66-.72 1.528-1.08 2.59-1.08.9 0 1.787.31 2.623.91l.12.08v-2.66l-.033-.02c-.315-.18-.743-.32-1.28-.434-.526-.11-1.044-.164-1.538-.164m-8.23.28H55.9v11.74h2.76v-11.74zm-1.36-4.99c-.454 0-.85.154-1.176.46-.326.308-.492.694-.492 1.15 0 .45.167.83.49 1.13.32.3.72.448 1.18.448.46 0 .86-.15 1.185-.45.328-.3.494-.68.494-1.13 0-.44-.16-.82-.48-1.14-.32-.3-.72-.46-1.2-.46m-6.89 4.13v12.6h2.82V6.16h-3.9l-4.943 12.158-4.81-12.16H35.52V22.53h2.65V9.935h.09l5.08 12.598h1.995l5-12.597h.095l-.015-.006zm-36.07 5.09h12.98V28h-13l.018-12.982zM0 15.017h12.978V28H-.004L0 15.018zM14.338.68h12.98v12.98H14.33L14.338.676zM0 .678h12.978V13.66H-.004L0 .676z" fill-rule="nonzero"/></svg>