<svg viewBox="0 0 128 58" xmlns="http://www.w3.org/2000/svg" fill-rule="evenodd" clip-rule="evenodd" stroke-linejoin="round" stroke-miterlimit="1.414"><path d="M64.362 50.438c.18.547.826 2.533.826 2.533l2.665.01c-.47.34-2.156 1.568-2.156 1.568l.823 2.53c-.466-.333-2.158-1.56-2.158-1.56s-1.69 1.227-2.153 1.56l.82-2.53-2.16-1.565c.57-.002 2.66-.003 2.66-.003l.53-1.634s.175-.532.29-.9zm-1.77-10.408c0-.122.006-.21-.152-.21v-.104h2.59c.392 0 .647.033.805.07.657.16.946.605.946 1.166 0 .533-.25 1.017-.8 1.245-.17.07-.52.132-.912.132H63.3v1.68c0 .12-.008.21.15.21v.1h-1.01v-.108c.158 0 .152-.088.152-.21v-3.98zm9.048 3.067l-.294.702c-.046.1-.12.25-.124.32l.117.092v.103h-.98v-.103c.14 0 .138-.026.31-.41l1.578-3.54.24-.553h.733l.254.58 1.543 3.486c.187.41.203.44.332.44l-.003.104h-1.08v-.1c.097 0 .147-.045.15-.12 0-.056-.013-.09-.104-.3l-.305-.7h-2.37zm-27.61 0l-.297.702c-.045.1-.124.25-.124.32l.11.092v.103h-.97v-.103c.14 0 .14-.026.312-.41l1.576-3.54c.09-.202.236-.553.236-.553h.736s.16.375.25.58l1.543 3.486c.186.41.213.44.33.44v.104h-1.09v-.1c.1 0 .15-.045.153-.12 0-.056-.018-.09-.107-.3l-.307-.7h-2.36zm48.828.073h.018v-3.14c0-.122.01-.21-.152-.21v-.104h.906v.105c-.158 0-.15.09-.15.21v4.3h-.52l-.268-.34-2.977-3.55v3.578c0 .124.003.21.164.21v.105h-.94v-.103c.146 0 .162-.088.162-.21v-3.98c0-.123-.004-.21-.163-.21v-.105h1.017l.27.316 2.623 3.14zm-40.712 1.154v-.103c.163 0 .168-.08.168-.21v-3.98c0-.1-.012-.2-.165-.2v-.11h1.03l1.52 3.12 1.573-3.124h1.09v.11c-.138 0-.165.14-.165.207v3.984c0 .123.01.21.19.21v.104h-1.07v-.102c.18 0 .185-.087.185-.21v-3.482h-.01l-1.797 3.71-1.785-3.71h-.01v3.482c0 .13.015.21.158.21v.104h-.913zm19.77-1.804h1.817l-.908-2.068-.91 2.068zm-27.61 0h1.816l-.908-2.068-.908 2.068zm18.99-.79h1.864c.72 0 .89-.36.89-.754 0-.38-.153-.678-.89-.678h-1.864v1.433zm-25.048 2.28c0 .123-.008.21.15.21v.104h-1.005v-.103c.16 0 .152-.08.152-.21v-1.75h-2.96v1.76c0 .124-.01.21.15.21v.105H33.73v-.103c.16 0 .15-.087.15-.21v-3.98c0-.122.01-.21-.15-.21v-.104h1.005v.105c-.16 0-.15.09-.15.21v1.65h2.96v-1.65c0-.12.008-.21-.152-.21v-.103h1.005v.105c-.158 0-.15.09-.15.21v3.98zm60.51-3.98c0-.122-.02-.21-.175-.21v-.104h3.48c.285 0 .438-.005.438-.005v.78h-.1c0-.14-.07-.19-.32-.19h-2.61v1.388h1.7c.2 0 .346-.01.346-.194h.1v.978h-.1c0-.173-.09-.206-.33-.206H99.47v1.49h2.793c.237 0 .345.02.345-.2h.103v.78s-.19-.003-.39-.003h-3.73v-.102c.155 0 .173-.085.173-.21v-3.98zm-16.36 2.56c-.176 0-.285.016-.285.16l-.107.002v-.904l.105-.003c0 .194.15.168.29.168h1.62v1.524c-.8.665-1.502.84-2.21.84-1.43 0-2.582-.963-2.582-2.348 0-1.37 1.08-2.37 2.5-2.37 1.445 0 1.87.6 2.07.59l.1-.057.1.07-.52.79-.1-.07.017-.04c0-.2-.71-.693-1.645-.693-1.256 0-1.81.825-1.81 1.754 0 1.14.88 1.77 1.77 1.77.883 0 1.3-.225 1.663-.525v-.667h-.97zm-53.425 1.054l-.11.08-.117-.072-.093.054c-.228.178-.79.672-1.935.672-1.6 0-2.636-1.057-2.636-2.47 0-1.184 1.003-2.244 2.602-2.244.544 0 .99.123 1.314.236.255.09.41.17.525.214l.07.02.12-.063.107.07-.496.906-.107-.06.025-.08-.02-.07c-.13-.212-.787-.57-1.58-.57-.905 0-1.822.528-1.822 1.737 0 1.133.87 1.787 1.972 1.787.663 0 1.27-.396 1.458-.665l.05-.148-.03-.085.107-.07.596.825zm-11.46-20.708c-2.517 0-4.56 2.327-4.56 5.2 0 2.87 2.043 5.196 4.56 5.196 2.52 0 4.563-2.326 4.563-5.196 0-2.873-2.043-5.2-4.562-5.2zm95.556 0c-2.52 0-4.57 2.327-4.57 5.2 0 2.87 2.044 5.196 4.56 5.196 2.52 0 4.56-2.326 4.56-5.196 0-2.873-2.04-5.2-4.56-5.2zm-10.13.41c-.46-.14-.98-.2-1.53-.2h-3.8l1.03.94v8.104l-1.05.933h3.847c.44 0 1.147-.047 1.687-.222 2.167-.71 3.22-2.79 3.22-4.63 0-2.01-1.138-4.24-3.414-4.92zm-9.44.74v4.976s-3.71-5.55-3.78-5.645c-.12-.168-.28-.273-.55-.273l-2.15.002 1.03.943v8.06l-1.043.96h3.18l-1.047-.967v-6.54l5.026 7.574c.11.177.43.105.43-.106v-8.99l1.04-.94h-3.18l1.044.94zm31.31-.942l1.043.94v4.978s-3.708-5.55-3.78-5.645c-.117-.168-.276-.273-.55-.273l-2.154.002 1.036.943v8.06l-1.043.96h3.18l-1.05-.967v-6.54l5.03 7.574c.106.177.425.105.425-.106v-8.99l1.042-.94h-3.184zm-42.78 0h-1.61l-2.83 9.016-1.06.95h3.227l-1-.936.712-2.377 1.46.354 1.417-.35.737 2.38-.95.937h3.835l-1.067-.95-2.877-9.02zm-64.517 9.37c-1.616 0-2.593-1.802-2.593-4.366 0-2.56.977-4.364 2.593-4.364 1.612 0 2.593 1.803 2.593 4.364 0 2.564-.98 4.366-2.595 4.366zm95.553 0c-1.616 0-2.648-1.802-2.648-4.366 0-2.56 1.03-4.364 2.647-4.364 1.62 0 2.65 1.803 2.65 4.364 0 2.564-1.03 4.366-2.65 4.366zm-65.1-.144c-1.41 0-1.854-1.08-1.854-1.884 0-.682.285-1.142.55-1.36.44.71 1.92 2.507 2.366 2.954-.2.1-.46.29-1.064.29zm53.695-.134c-.3 0-.874.028-1.295-.02l-.007-8.158c.34-.034 1.1-.03 1.243-.03 1.453 0 2.83 1.15 2.83 4.113 0 2.99-1.27 4.1-2.774 4.1zm-51.18-.506c.426-.497.828-1.115.828-1.97 0-.727-.31-1.15-.608-1.39-.18-.143-.366-.09-.495.062-.038.046-.35.38-.565.627.52.19.813.68.813 1.16 0 .39-.08.72-.366 1.04-.53-.58-3.27-3.54-3.27-4.885 0-.574.363-.977.864-.977.62 0 .9.58.9 1.005 0 .695-.26 1.09-.817 1.463.065.094.18.27.25.37.516-.24 1.71-.71 1.71-1.845 0-.67-.66-1.52-1.995-1.52-.89 0-2.09.706-2.09 1.907 0 .765.51 1.49.72 1.83-.583.337-1.67 1.117-1.67 2.37 0 1.326 1.145 2.28 2.62 2.28 1.16 0 1.664-.287 2.206-.67.18.18.3.326.636.615l1.993.01c.05-.073.305-.372.4-.507-1.07.09-1.485-.368-2.06-.983zm29.237-2.687l1.185-3.893 1.218 3.894h-2.4zM9.67 24.106l1-.967H8.446c-.33 0-.464.16-.57.41-.08.2-1.734 3.94-2.11 4.81-.142-.33-1.99-4.48-2.144-4.816-.125-.266-.207-.414-.587-.414H.733c.15.124.823.78 1.028.97-.01.27-.66 7.47-.71 8.053l-1.05.96h3.17l-1.03-.96c.01-.15.55-6.22.564-6.486.08.205 2.53 5.663 2.58 5.773.064.156.29.173.36 0 .03-.08 2.35-5.44 2.484-5.772.032.287.52 6.228.535 6.476l-1.046.972H11.4l-1.04-.972c-.015-.22-.644-7.574-.687-8.04zm19.4 8.084h-2.59v-3.798h2.053c.027.02.94.755 1.017.826v-2.615l-1.012.83h-2.05v-3.35h2.406c.16 0 .226.016.336.09l1.297.94c-.01-.035-.556-1.653-.587-1.75-.06-.174-.116-.224-.373-.224h-5.834l1.04.94v8.07l-1.04.954h6.344c.224 0 .313-.105.35-.23.012-.047.576-1.81.61-1.906-.034.02-1.447 1.03-1.553 1.1-.138.09-.23.113-.413.113zm42.412-9.047l1.045.94v3.272h-3.48v-3.27s.833-.747 1.045-.942h-3.78l1.046.936v8.08l-1.045.95h3.776s-.84-.77-1.05-.95v-3.81h3.48v3.8l-1.04.956h3.762l-1.03-.95-.004-8.078s.907-.83 1.034-.943H71.48zm-31.355.003l-6.902-.002c-.198 0-.287.068-.327.262-.014.07-.354 1.696-.392 1.885l1.263-1.1c.09-.08.15-.1.29-.1l1.76.004v8.066s-.92.84-1.04.955h3.79l-1.04-.954v-8.07h1.743c.145 0 .203.01.327.11.044.04 1.09.905 1.24 1.03-.015-.076-.36-1.65-.4-1.814-.047-.2-.162-.26-.322-.26zm20.68.614c1.685 0 2.268 1.912 2.39 2.546.202-.42 1.157-2.492 1.236-2.695-.134.04-.698.19-.998.25-.756-.63-1.628-.94-2.638-.94-2.516 0-4.56 2.33-4.56 5.198 0 2.874 1.81 5.2 4.486 5.2 2.058 0 3.266-1.25 3.3-2.462.013-.34-.074-1.006-.744-1.272-.12 1.25-.81 2.898-2.49 2.898-1.62 0-2.58-1.782-2.58-4.342 0-2.563.98-4.366 2.59-4.366zM26.21 22.557c.4 0 .723-.314.723-.705 0-.388-.324-.703-.723-.703-.4 0-.725.31-.725.7 0 .39.324.7.725.7zm2.145 0c.4 0 .723-.314.723-.705 0-.388-.324-.703-.723-.703-.403 0-.724.31-.724.7 0 .39.33.7.73.7zm29.136-5.365c-.14 0-.26-.12-.26-.268 0-.148.12-.266.27-.266h13.73c.146 0 .267.118.267.266 0 .148-.12.268-.267.268H57.49zm-17.01-2.9c1.09 0 1.48.643 1.48 1.32 0 .517-.3 1.285-1.48 1.285-1.17 0-1.48-.768-1.48-1.284 0-.678.39-1.32 1.48-1.32zm6.88.063h1.19c.786 0 1.414.33 1.414 1.226 0 .85-.574 1.26-1.39 1.26h-1.22v-2.48zm-11.72 0h2.287v.418h-1.8v.575h1.544v.415h-1.55v1.075h-.485v-2.483zm15.62 0h2.228v.418H51.75v.575h1.494v.415H51.75v.657h1.777v.418H51.26v-2.483zm39.54 0h.454v1.58h.31v.374h-.31v.52h-.41v-.53h-1.49v-.376l1.443-1.58zm-6.575.295c.254-.04.474-.12.66-.357h.245v2.54h-.415V14.93h-.49v-.278zm-8.845-.295h2.135v.418H75.84v.575h1.437v.415H75.84v.657h1.71v.414h-2.174v-2.48zm12.665.39h-1.52v-.39h2.067v.22l-1.2 2.26h-.507l1.157-2.09zm-46.564.842c0-.596-.43-.876-.993-.876-.567 0-.995.28-.995.88 0 .71.53.9.996.9.465 0 .995-.19.995-.893zm6.854.833c.82 0 1.14-.252 1.14-.833 0-.608-.334-.814-1.144-.814h-.495v1.647h.493zm9.27-.02v-1.595h13.53V16.4H57.6zm-14.34-2.045h.51l1.655 1.792v-1.792h.466v2.483h-.446l-1.725-1.86v1.86h-.464v-2.483zm35.543 0h.492l1.59 1.792v-1.792h.447v2.48h-.426l-1.66-1.855v1.853h-.45v-2.48zm-16.558.835c-.245 0-.445.19-.445.417 0 .23.2.416.446.416s.443-.187.443-.416c0-.228-.196-.417-.444-.417zm4.236 0c-.246 0-.445.19-.445.417 0 .23.2.416.444.416h.002c.24 0 .44-.187.44-.416 0-.228-.2-.417-.44-.417zm-6.088.027l-.814.39.815.394.82-.39-.82-.39zm7.948 0l-.817.39.816.394.817-.39-.816-.39zm22.494-.397l-1.024 1.115h1.022V14.82zm-32.83.478v.62h.905v-.62h-.905zm5.45 0v.62h1.814v-.62H63.46zm6.354 0v.62h.913v-.62h-.913zm23.53.04h.348c.36 0 .585-.068.585-.327 0-.24-.235-.32-.56-.32-.495 0-.613.24-.613.316h-.41c0-.17.123-.704 1.023-.704.65 0 1 .276 1 .704 0 .332-.224.47-.34.516.125.054.4.2.4.6 0 .43-.355.78-1.052.78-.905 0-1.063-.533-1.08-.79h.438c.034.187.213.4.606.4.36 0 .646-.12.654-.445 0-.157-.12-.335-.54-.335h-.45v-.39zm-35.85-.794c-.148 0-.266-.117-.266-.265 0-.15.117-.27.266-.27H71.23c.147 0 .268.12.268.27 0 .14-.12.26-.267.26H57.49zm-5.128-.857h.475l-.544.487h-.3l.37-.487zm19.39-1.09c-.01-.013-.065-.075-.162-.084-.106-.01-.228.03-.228.03l.14.13.082.12-.09.293c.012.013.232-.012.43-.212.166-.167.192-.69.192-.69s-.12.128-.286.312c-.056.066-.075.09-.08.1v.002s-.007.006 0-.002zm-14.775.007l-.093-.108c-.158-.184-.278-.31-.278-.31s.02.52.19.688c.192.2.42.225.43.212l-.09-.293.08-.12.14-.13s-.1-.047-.2-.03c-.104.012-.176.084-.18.09 0 .004 0 0 0 0zm11.595-.927c-.08-.005-.055-.398-.055-.398s-.07-.06-.177-.12c-.094-.058-.257-.1-.257-.1s.14-.12.34-.11c.127.004.184.043.184.043s-.014-.038.076-.265c.123-.305.383-.57.383-.57s.05.362-.035.68c-.06.24-.094.266-.094.266s.07.01.17.07c.175.1.216.283.216.283s-.15-.05-.27-.073c-.105-.02-.207-.01-.207-.01l-.28.29zM58.65 7.99l.03-.007c0-.16.04-.297.155-.407-.93.096-1.49.407-1.864.78-.88.862-.61 2.156-.37 2.885l.05.15c.09-.23.2-.28.33-.34l-.06-.19c-.1-.31-.146-.72-.14-.98.016-1.11.86-1.78 1.88-1.88zm13.105.367c-.38-.374-.934-.685-1.863-.78.11.11.153.247.156.406l.028.007c1.016.105 1.86.772 1.878 1.885.004.26-.043.67-.14.98-.04.14-.048.148-.062.193.128.053.252.114.325.34.034-.092.004 0 .05-.143.235-.733.51-2.027-.372-2.888zM56.22 10.744c0 .24-.194.438-.436.438s-.437-.197-.437-.438c0-.24.195-.436.437-.436s.436.195.436.436zm16.28 0c0 .244.196.438.44.438.243 0 .44-.194.44-.438 0-.24-.197-.436-.44-.436-.244 0-.44.195-.44.436zm-12.35.928l-.278-.29s-.11-.004-.21.01c-.108.018-.266.074-.266.074s.064-.194.215-.284c.11-.06.18-.07.18-.07s-.035-.028-.1-.264c-.08-.322-.03-.682-.03-.682s.258.263.38.568c.095.23.08.277.08.277s.06-.02.184-.04c.185-.02.338.1.338.1s-.15.04-.26.1c-.082.05-.17.115-.17.115s.024.394-.056.396zm4.016-1.277c-.008 0-.084-.01-.207.022-.21.037-.33.207-.33.207s.18-.003.31.01c.114.017.223.058.223.058s.08.407.19.406c.114 0 .193-.406.193-.406s.105-.038.23-.057c.126-.015.31-.01.31-.01s-.106-.17-.327-.212c-.126-.03-.2-.017-.207-.015 0-.002.02-.02.006-.25-.025-.33-.2-.663-.2-.67h-.005c-.008.007-.18.34-.2.67-.018.227 0 .246.002.247zm-8.09-.774c0 .27-.216.49-.484.49s-.486-.213-.486-.48c0-.27.218-.483.486-.483s.483.215.483.484zm16.572 0c0 .27.216.49.484.49.27 0 .487-.213.487-.48 0-.27-.22-.483-.49-.483s-.49.215-.49.484zm-12.065.39c.12-.15.286-.23.342-.24.003-.04.02-.26-.162-.72-.17-.42-.323-.972-.006-1.45.41-.61 1.208-.57 1.725-.58l.18-.002c.37-.005.642-.05.83-.124-.196.54-.182 1.287-.004 1.837.093-.022.286-.017.416-.004-.274-.61-.188-1.5.11-2.32h-.17c-.006 0-.387.21-1.23.23h-.048c-.634.016-1.614-.035-2.163.78-.41.6-.197 1.3-.028 1.7.17.406.216.536.21.9zm8.403-.53c.225.08.477-.04.56-.27.087-.23-.032-.49-.256-.572-.227-.08-.478.04-.56.277-.088.234.026.49.256.57zm-9.238 0c.226-.08.342-.34.256-.57-.083-.23-.337-.36-.564-.28-.223.09-.34.34-.255.58.084.235.34.356.565.275zm13.232 1.88c-.22 0-.34.05-.56.276-.182.182-.45.466-.45.466l-.17-.195c-.062-.1-.132-.394.005-.505l-.02-.06s-.177-.018-.317.184c-.106.153-.14.31-.14.31s-.206-.02-.36.136c-.208.204-.15.548-.15.548s-.21.165-.26.283c-.112.267 0 .478 0 .478h.07c.068-.153.23-.27.395-.27.253-.004.35.05.345.122-.007.07-.325.446-.684.446-.283 0-.434-.083-.55-.272-.153-.25-.124-.44-.124-.44s.307.045.482-.36c.136-.318.05-.533-.08-.6-.16-.09-.416.044-.534.283-.202.395-.045.6-.045.6s-.297.455-.9.244c-.543-.19-.277-1.21-.277-1.21s.16-.046.232 0c.075.042.104.235.172.394.054.12.152.31.27.31.083 0 .225-.28.244-.5.22-.043.397-.19.323-.61 0 0 .265-.29.228-.474 0-.028-.143-.09-.354-.06-.21.027-.5.14-.5.14l.06-.24c.057-.064.36-.288.45-.42.085-.13.2-.326.106-.39-.09-.06-.273-.103-.4-.106 0 0-.08-.126-.216-.18l-.03-.006c-.14-.045-.283.004-.283.004-.1-.076-.273-.15-.38-.16-.117-.014-.157.21-.173.368-.018.154.096.553.106.64.01.08-.094.23-.094.23s-.12-.318-.26-.483c-.14-.16-.274-.195-.324-.186-.073.02-.194.32-.177.58-.306.17-.273.51-.202.68-.1.16-.172.47-.092.58.05.07.29.036.508-.082.156-.084.29-.23.378-.225.09.006.192.13.192.13s-.43.81-.958.816c-.44.007-.606-.19-.606-.19-.22-.18-.235-.406-.235-.406s.36-.126.405-.584c.033-.36-.176-.543-.357-.565-.23-.025-.47.2-.51.473-.08.456.22.627.22.627s-.157.552-.837.502c-.317-.03-.437-.07-.69-.26-.344-.257-.363-.93-.363-.93s.174-.09.284-.07c.108.02.194.21.354.344.18.148.368.3.572.284.096-.008.19-.438.113-.658.192-.206.21-.528.06-.747 0 0 .125-.455.01-.596-.034-.04-.17-.07-.408.045-.23.114-.568.414-.568.414s-.064-.175-.016-.253c.047-.077.27-.48.324-.636.05-.158.106-.39-.03-.418-.136-.03-.364-.01-.505.04-.07-.05-.2-.13-.325-.13h-.002c-.13 0-.252.08-.322.13-.14-.05-.37-.07-.502-.04-.14.025-.082.26-.03.415.05.158.275.56.323.637.046.077-.013.252-.013.252s-.342-.3-.573-.416c-.235-.114-.373-.085-.407-.05-.12.147.012.6.012.6-.15.22-.14.54.054.747-.072.22.017.65.115.656.21.017.393-.136.57-.283.163-.133.247-.324.355-.343.11-.024.28.066.28.066s-.017.676-.36.933c-.256.19-.376.23-.694.258-.675.05-.833-.5-.833-.5s.3-.17.222-.627c-.046-.275-.287-.5-.515-.47-.18.02-.387.204-.355.563.047.458.4.583.4.583s-.013.226-.23.406c0 0-.166.196-.6.19-.53-.007-.96-.816-.96-.816s.1-.124.19-.13c.085-.006.22.14.374.227.217.12.456.153.505.085.072-.11 0-.42-.1-.58.072-.172.105-.512-.2-.68.014-.26-.1-.563-.18-.58-.048-.01-.184.028-.32.187-.138.163-.26.48-.26.48s-.104-.15-.096-.23c.01-.085.124-.484.11-.638-.02-.155-.058-.38-.173-.366-.11.01-.28.083-.38.16 0 0-.14-.05-.283-.005l-.024.01c-.14.05-.22.18-.22.18-.125 0-.305.047-.4.106-.094.065.02.26.107.39s.393.356.45.42l.06.24s-.294-.11-.51-.14c-.21-.03-.35.033-.355.06-.035.187.23.477.23.477-.072.42.105.563.325.61.013.22.156.5.24.5.12 0 .217-.19.27-.31.07-.16.093-.352.17-.395.077-.046.233 0 .233 0s.27 1.02-.28 1.212c-.597.214-.896-.246-.896-.246s.157-.2-.04-.598c-.12-.24-.377-.375-.538-.285-.13.07-.22.28-.08.604.174.405.48.362.48.362s.03.188-.12.44c-.115.188-.273.27-.55.27-.364 0-.68-.375-.686-.446-.004-.074.09-.13.344-.126.16.003.324.117.39.273h.07s.114-.21 0-.478c-.053-.117-.26-.284-.26-.284s.057-.343-.148-.548c-.157-.154-.36-.137-.36-.137s-.037-.157-.144-.31c-.14-.2-.313-.19-.313-.19l-.02.065c.134.11.07.403.004.504l-.17.193s-.264-.284-.45-.467c-.22-.222-.34-.272-.563-.272-.313 0-.41.25-.41.25s.223-.062.513.14c.165.12.57.513.57.513-.042.56.145.967.686 1.017l.35.47h13.81l.35-.467c.54-.054.726-.46.687-1.02 0 0 .41-.4.57-.515.29-.203.514-.14.514-.14s-.1-.25-.414-.25zm-.67-2.86c0 .25.2.446.446.446s.44-.198.44-.443-.194-.44-.44-.44c-.242 0-.44.195-.44.44zm-15.894 0c0 .246-.195.446-.44.446-.243 0-.44-.2-.44-.443 0-.245.197-.44.44-.44.245 0 .44.195.44.44zm8.343-.164c0 .217-.18.392-.39.392-.22 0-.39-.175-.39-.393 0-.215.17-.39.39-.39.21 0 .39.174.39.388zm.062.39c.132-.013.32-.02.414.004.183-.55.192-1.297-.004-1.838.19.075.465.12.832.125l.18.005c.515.01 1.32-.027 1.725.582.317.47.16 1.027-.007 1.45-.186.457-.17.674-.163.72.057.013.228.085.34.242-.006-.365.044-.495.21-.9.17-.4.384-1.097-.03-1.7-.545-.816-1.53-.765-2.16-.78h-.05c-.84-.02-1.224-.23-1.224-.23h-.17c.292.82.38 1.71.106 2.32zm4-.694c0 .248.203.453.452.453.25 0 .45-.206.45-.454 0-.25-.2-.452-.45-.452s-.45.2-.45.452zm-8.916 0c0 .248-.2.447-.453.447-.25 0-.453-.2-.453-.447 0-.25.203-.452.453-.452.252 0 .452.2.452.453zm-2.77-.33c0 .233-.184.417-.414.417-.23 0-.415-.185-.415-.417 0-.226.187-.412.416-.412.23 0 .416.187.416.414zm14.45 0c0 .233.188.417.414.417.235 0 .42-.185.42-.417 0-.226-.185-.412-.42-.412-.225 0-.41.187-.41.414zm-6.89-.242c0 .187-.15.337-.34.337-.185 0-.34-.15-.34-.334 0-.187.155-.34.34-.34.19 0 .34.153.34.34zm5.97-.21c0 .22.176.4.395.4.226 0 .4-.18.4-.4 0-.22-.174-.4-.4-.4-.22 0-.395.18-.395.4zm-12.61 0c0 .22-.18.4-.4.4-.22 0-.4-.18-.4-.4 0-.22.18-.4.4-.4.22 0 .4.18.4.4zm10.4-.185c0 .24.19.432.43.432.238 0 .434-.19.434-.43s-.195-.432-.432-.432c-.24 0-.43.194-.43.432zm-8.197 0c0 .24-.194.432-.43.432-.237 0-.43-.19-.43-.43s.2-.432.436-.432.43.194.43.432zm-1.245-.037c0 .21-.172.38-.383.38-.208 0-.38-.17-.38-.38s.172-.382.38-.382c.21 0 .382.17.382.384zm10.68 0c0 .21.173.38.385.38.21 0 .38-.17.38-.38s-.17-.38-.38-.38-.384.17-.384.38zm-5.063-.33c0 .155-.123.278-.278.278-.152 0-.278-.12-.278-.275 0-.155.12-.28.27-.28.155 0 .278.125.278.28zm3.098-.282c0 .228.187.415.41.415.23 0 .415-.187.415-.413 0-.224-.186-.41-.412-.41-.226 0-.41.186-.41.41zm-6.743 0c0 .228-.185.41-.412.41-.225 0-.41-.182-.41-.41 0-.223.185-.41.41-.41.227 0 .412.187.412.41zM66.9 6.17c0 .195.16.353.353.353.198 0 .356-.157.356-.355 0-.197-.155-.354-.35-.354-.197 0-.355.16-.355.356zm-5.08 0c0 .193-.153.353-.35.353-.195 0-.357-.16-.357-.355 0-.197.163-.354.358-.354.2 0 .36.16.36.356zm.82-.06c0 .18-.143.32-.32.32-.175 0-.32-.145-.32-.323 0-.173.145-.317.32-.317.177 0 .32.14.32.314zm3.45 0c0 .18.14.32.316.32s.32-.145.32-.323c0-.173-.144-.317-.32-.317-.176 0-.318.14-.318.314zm-3.017.26c.147 0 .263-.118.263-.26 0-.14-.116-.26-.263-.26-.146 0-.265.116-.265.256 0 .145.117.26.26.26zm2.308-.26c0 .142.12.26.27.26.145 0 .26-.118.26-.26 0-.14-.12-.26-.26-.26-.15 0-.27.116-.27.256zm.396-1.145c-.15.642-.728 1.12-1.415 1.12-.69 0-1.264-.478-1.415-1.12.457-.1.93-.155 1.415-.155s.96.055 1.41.155zM64.09 3.2v1.135c-.4.017-.796.064-1.177.145.064-.642.55-1.164 1.176-1.28zm.54 0c.626.118 1.108.638 1.176 1.28-.382-.08-.777-.128-1.177-.145V3.2zm.218-2.27l-.216.838.74-.242v.985l-.743-.21v.9h-.54v-.9l-.74.21v-.98l.74.248-.22-.84h.97z"/></svg>