<svg viewBox="0 0 64 64" xmlns="http://www.w3.org/2000/svg" fill-rule="evenodd" clip-rule="evenodd" stroke-linejoin="round" stroke-miterlimit="1.414"><path d="M32.18 42.72l.414 1.265s1.044 0 1.332.002c-.234.168-1.078.782-1.078.782l.412 1.26-1.08-.78-1.076.78.41-1.27-1.076-.783h1.33l.266-.818s.088-.267.146-.45zm-.885-5.205c0-.06.004-.105-.075-.105v-.052h1.295c.196 0 .323.016.402.035.33.08.473.302.473.583 0 .266-.127.508-.404.622-.086.035-.26.066-.457.066h-.89v.84c0 .062-.005.106.074.106v.052h-.503v-.052c.08 0 .075-.044.075-.105v-1.99zm4.524 1.533l-.15.35c-.03.054-.06.128-.06.164l.06.048v.052h-.49v-.052c.07 0 .07-.014.16-.206l.78-1.77.12-.276h.367s.08.187.126.29l.772 1.743c.092.21.1.22.165.22l-.002.06h-.543v-.05c.047 0 .072-.023.075-.06 0-.028-.01-.045-.055-.15l-.15-.35h-1.18zm-13.81 0l-.15.35c-.02.054-.06.128-.06.164l.06.048v.052h-.49v-.052c.07 0 .07-.014.16-.206l.79-1.77.12-.276h.37l.12.29.77 1.743c.095.21.11.22.167.22v.06h-.543v-.05c.05 0 .074-.023.076-.06 0-.028-.007-.045-.05-.15l-.15-.35h-1.184zm24.41.037h.007v-1.57c0-.06.006-.105-.075-.105v-.052h.452v.052c-.08 0-.077.044-.077.105v2.147h-.26l-.132-.17-1.49-1.774v1.787c0 .06.002.105.082.105v.052h-.467v-.052c.073 0 .08-.044.08-.105v-1.99c0-.06 0-.105-.08-.105v-.052h.508l.134.157 1.314 1.57zm-20.358.577v-.052c.08 0 .084-.044.084-.105v-1.992c0-.053-.007-.103-.083-.103v-.054h.52l.756 1.563.787-1.57h.548v.05c-.07 0-.083.07-.083.103v1.99c0 .06.002.106.093.106v.05h-.535v-.05c.09 0 .095-.045.095-.106v-1.74h-.006l-.9 1.855-.89-1.856h-.006v1.74c0 .064.005.104.08.104v.05h-.46zm9.885-.902h.91l-.455-1.034-.455 1.034zm-13.805 0h.91l-.455-1.034-.45 1.034zm9.496-.395h.93c.362 0 .446-.18.446-.377 0-.19-.077-.34-.446-.34h-.93v.717zm-12.524 1.14c0 .06-.005.105.074.105v.052h-.503v-.052c.08 0 .077-.044.077-.105v-.877h-1.48v.877c0 .06-.006.105.073.105v.052h-.503v-.052c.08 0 .077-.044.077-.105v-1.99c0-.06.005-.105-.075-.105v-.052h.505v.052c-.08 0-.073.044-.073.105v.824h1.48v-.83c0-.06.005-.11-.075-.11v-.052h.505v.052c-.08 0-.076.043-.076.104v1.99zm30.253-1.99c0-.06-.01-.105-.086-.105v-.052h1.74c.143 0 .22-.002.22-.002v.39h-.05c0-.075-.04-.098-.166-.098h-1.3v.69h.85c.1 0 .17-.003.17-.096h.05v.49h-.05c0-.088-.044-.104-.163-.104h-.856v.746h1.4c.12 0 .17.01.17-.1h.05v.39s-.09-.002-.194-.002h-1.86v-.052c.08 0 .088-.044.088-.105v-1.99zm-8.18 1.28c-.087 0-.14.008-.14.08H41v-.45l.053-.003c0 .097.07.084.144.084h.808v.762c-.402.333-.754.42-1.105.42-.718 0-1.294-.48-1.294-1.174 0-.684.54-1.182 1.25-1.182.72 0 .935.3 1.035.297l.05-.03.05.03-.26.39-.05-.034.01-.02c0-.1-.35-.347-.82-.347-.63 0-.9.412-.9.876 0 .57.44.885.884.885.44 0 .65-.112.83-.262v-.335h-.48zm-26.71.527l-.055.04-.06-.036-.046.027c-.115.09-.396.336-.97.336-.8 0-1.317-.53-1.317-1.24 0-.59.5-1.12 1.3-1.12.27 0 .495.06.656.11.13.044.208.085.266.107l.037.01.06-.03.052.03-.25.452-.053-.03.014-.04-.01-.035c-.065-.107-.393-.286-.79-.286-.452 0-.91.262-.91.866 0 .567.435.894.986.894.33 0 .637-.196.73-.33l.026-.074-.017-.043.053-.038.298.413zM8.75 28.968c-1.26 0-2.28 1.163-2.28 2.6 0 1.435 1.02 2.598 2.28 2.598 1.26 0 2.283-1.163 2.283-2.598 0-1.437-1.022-2.6-2.282-2.6zm47.78 0c-1.26 0-2.28 1.163-2.28 2.6 0 1.435 1.02 2.598 2.28 2.598 1.26 0 2.28-1.163 2.28-2.598 0-1.437-1.02-2.6-2.28-2.6zm-5.065.205c-.23-.07-.488-.1-.765-.1h-1.897l.514.47v4.052l-.52.466h1.92c.22 0 .575-.02.845-.11 1.084-.35 1.61-1.39 1.61-2.31 0-1.01-.57-2.12-1.707-2.46zm-4.718.37v2.488s-1.854-2.77-1.89-2.82c-.06-.08-.137-.13-.276-.13h-1.07l.52.47v4.03l-.52.48h1.59l-.52-.48v-3.27l2.51 3.79c.053.09.213.052.213-.054v-4.5l.52-.47h-1.59l.52.47zm15.657-.47l.52.47v2.488s-1.854-2.77-1.89-2.82c-.058-.08-.138-.13-.275-.13h-1.08l.514.47v4.03l-.52.48h1.59l-.52-.48v-3.27l2.513 3.79c.053.09.213.052.213-.054v-4.5l.523-.47h-1.59zm-21.392-.002h-.805l-1.418 4.51-.53.48h1.61l-.5-.47.357-1.19.73.18.71-.18.37 1.19-.476.47h1.92l-.532-.47-1.44-4.51zM8.76 33.76c-.807 0-1.296-.9-1.296-2.183 0-1.28.49-2.182 1.297-2.182.81 0 1.3.9 1.3 2.182s-.49 2.183-1.29 2.183zm47.777 0c-.808 0-1.324-.9-1.324-2.183 0-1.28.516-2.182 1.324-2.182s1.326.9 1.326 2.182-.518 2.183-1.326 2.183zm-32.55-.072c-.706 0-.927-.54-.927-.942 0-.34.143-.57.274-.68.22.355.962 1.253 1.184 1.477-.1.05-.23.146-.532.146zm26.847-.067c-.148 0-.436.02-.646-.01l-.003-4.08c.17-.01.55-.01.622-.01.726 0 1.414.58 1.414 2.06 0 1.495-.63 2.05-1.38 2.05zm-25.59-.25c.212-.25.413-.56.413-.982 0-.363-.156-.574-.305-.695-.09-.07-.182-.044-.247.03-.02.024-.175.19-.282.314.26.094.406.34.406.58 0 .2-.04.363-.19.522-.266-.29-1.637-1.77-1.637-2.44 0-.29.182-.49.432-.49.31 0 .447.29.447.502 0 .348-.13.544-.406.73l.125.185c.255-.12.85-.356.85-.922 0-.332-.33-.76-.995-.76-.446 0-1.044.356-1.044.956 0 .383.257.745.36.915-.29.17-.834.56-.834 1.185 0 .662.574 1.14 1.31 1.14.58 0 .833-.144 1.104-.336.09.09.15.16.32.306l.995.003c.025-.036.154-.185.2-.252-.535.047-.74-.183-1.03-.49zm14.616-1.35l.593-1.94.61 1.947H39.86zM4.835 29.56l.5-.484h-1.11c-.167 0-.234.085-.286.21-.04.1-.87 1.97-1.06 2.404-.07-.165-1-2.24-1.07-2.407-.07-.132-.11-.207-.3-.207H.362c.08.06.41.39.518.48-.007.134-.33 3.735-.355 4.026L0 34.06h1.584l-.517-.48c.006-.074.275-3.11.282-3.242.04.103 1.26 2.83 1.28 2.887.032.077.145.085.18 0 .016-.04 1.174-2.72 1.242-2.887.016.142.26 3.112.27 3.236l-.525.486H5.69l-.52-.486c-.008-.11-.322-3.787-.344-4.02zm9.7 4.042H13.24v-1.9h1.026c.013.01.47.377.51.413V30.8l-.507.416h-1.03V29.54h1.2c.08 0 .11.01.17.047l.65.47-.3-.875c-.03-.088-.057-.113-.186-.113H11.86l.52.47v4.03l-.52.476h3.172c.112 0 .156-.05.175-.115l.306-.952c-.017.01-.724.513-.777.55-.07.043-.116.056-.207.056zm21.205-4.53l.523.47v1.637h-1.74v-1.635l.523-.47h-1.89s.437.392.523.467v4.04l-.53.47h1.89l-.52-.478V31.67h1.74v1.905l-.52.475h1.88l-.518-.474-.003-4.038s.453-.414.517-.47h-1.88zm-15.677.003h-3.45c-.1 0-.144.033-.165.13l-.195.942c.042-.04.59-.516.63-.55.047-.043.078-.054.147-.054l.88.01v4.034l-.518.478h1.896l-.52-.477v-4.04h.873c.08 0 .11.003.17.054.02.02.548.45.62.514-.01-.04-.18-.826-.2-.91-.02-.1-.08-.13-.16-.13zm10.34.307c.842 0 1.134.956 1.195 1.273.1-.21.578-1.246.618-1.348-.067.02-.35.094-.5.122-.377-.314-.813-.472-1.318-.472-1.258 0-2.28 1.164-2.28 2.6 0 1.435.905 2.598 2.243 2.598 1.03 0 1.64-.625 1.65-1.23.01-.172-.03-.504-.37-.637-.05.624-.4 1.448-1.24 1.448-.81 0-1.284-.89-1.284-2.17 0-1.283.49-2.184 1.296-2.184zm-17.3-.602c.2 0 .363-.157.363-.352 0-.194-.162-.352-.362-.352-.2 0-.362.158-.362.352 0 .195.162.352.362.352zm1.074 0c.2 0 .36-.157.36-.352 0-.194-.16-.352-.36-.352-.202 0-.362.158-.362.352 0 .195.16.352.362.352zm14.568-2.682c-.074 0-.133-.06-.133-.134 0-.074.06-.133.133-.133h6.868c.072 0 .133.05.133.13 0 .07-.06.13-.133.13h-6.868zm-8.506-1.45c.54 0 .73.322.73.66 0 .258-.154.642-.74.642-.587 0-.74-.384-.74-.642 0-.338.193-.66.74-.66zm3.43.03h.592c.392 0 .706.167.706.614 0 .422-.287.63-.696.63h-.603v-1.243zm-5.86 0h1.14v.21h-.9v.288h.77v.207h-.77v.54h-.243v-1.24zm7.81 0h1.11v.21h-.87v.288h.75v.207h-.75v.33h.89v.21h-1.13v-1.24zm19.77 0h.223v.79h.154v.188h-.154v.263h-.204v-.263h-.743v-.187l.72-.79zm-3.29.15c.13-.02.24-.06.33-.18h.12v1.27h-.207v-.952H42.1v-.14zm-4.42-.15h1.063v.21h-.835v.288h.72v.207h-.72v.33h.856v.21H37.68v-1.24zm6.33.196h-.76v-.195h1.034v.11l-.6 1.13h-.255l.58-1.045zm-23.284.42c0-.297-.213-.437-.496-.437-.283 0-.497.14-.497.438 0 .352.264.447.496.447.23 0 .493-.095.493-.447zm3.427.418c.412 0 .572-.126.572-.417 0-.304-.167-.407-.573-.407h-.244v.824h.245zm4.636-.01v-.798h6.765v.798H28.79zm-7.17-1.023h.255l.83.896v-.896h.23v1.242h-.222l-.86-.93v.93h-.233v-1.25zm17.772 0h.245l.797.896v-.896h.224v1.24h-.21l-.83-.928v.92h-.22v-1.24zm-8.28.418c-.12 0-.22.094-.22.208 0 .115.1.208.22.208.123 0 .222-.09.222-.2 0-.112-.1-.21-.222-.21zm2.12 0c-.126 0-.225.094-.225.208 0 .115.1.208.225.208.12 0 .22-.09.22-.2 0-.112-.1-.21-.22-.21zm-3.046.014l-.41.19.41.19.41-.197-.41-.195zm3.972 0l-.41.19.41.19.406-.197-.41-.195zm11.244-.2l-.51.55h.51v-.56zM29 25.15v.307h.453v-.31H29zm2.725 0v.307h.907v-.31h-.907zm3.177 0v.307h.457v-.31h-.46zm11.766.02h.173c.18 0 .29-.036.29-.166 0-.122-.11-.164-.27-.164-.25 0-.306.12-.306.158h-.207c0-.085.063-.352.513-.352.323 0 .497.138.497.352 0 .168-.11.235-.167.26.06.027.2.1.2.3 0 .214-.18.39-.528.39-.455 0-.535-.266-.54-.394h.216c.017.094.106.2.303.2.18 0 .325-.06.33-.222 0-.08-.06-.168-.27-.168h-.225v-.195zm-17.925-.4c-.074 0-.133-.06-.133-.132 0-.074.06-.135.133-.135h6.868c.08 0 .14.06.14.134 0 .073-.06.132-.13.132h-6.87zm-2.565-.43h.238l-.273.246h-.15l.185-.244zm9.696-.543c-.005-.006-.033-.037-.082-.042-.052-.005-.113.016-.113.016l.07.07.04.06-.05.15c.004.006.114-.006.213-.106.083-.084.096-.345.096-.345l-.14.156-.04.05s-.004.005 0 0zm-7.388.004l-.047-.05-.14-.15s.01.26.09.345c.096.1.21.11.214.106l-.045-.147.04-.06.072-.064s-.05-.024-.103-.016c-.05.005-.087.04-.09.045 0 .002 0 0 0 0zm5.797-.46c-.04 0-.028-.2-.028-.2s-.034-.02-.088-.05c-.047-.03-.13-.05-.13-.05s.072-.06.17-.054c.065 0 .093.02.093.02s-.007-.02.04-.13c.06-.154.19-.287.19-.287s.026.18-.015.34c-.03.12-.047.133-.047.133s.035.005.087.035c.086.05.106.143.106.143s-.07-.024-.13-.035c-.05-.01-.1-.004-.1-.004l-.14.148zM29.32 21.5l.02-.004c0-.077.02-.146.078-.2-.465.047-.745.202-.932.39-.442.43-.304 1.077-.186 1.44.02.07.01.03.024.075.046-.12.1-.14.163-.17-.01-.02-.01-.023-.032-.093-.047-.155-.07-.36-.07-.49.01-.56.433-.89.94-.943zm6.558.183c-.19-.187-.467-.342-.932-.39.056.055.077.124.08.203l.012.006c.508.05.93.385.94.94 0 .13-.022.337-.07.49-.02.07-.025.076-.03.098.062.026.124.057.16.17.018-.046.003 0 .025-.072.12-.366.256-1.013-.184-1.444zm-7.767 1.194c0 .12-.1.22-.22.22s-.22-.1-.22-.22.1-.217.22-.217.22.097.22.218zm8.14 0c0 .123.1.22.22.22s.22-.097.22-.22c0-.12-.1-.217-.22-.217s-.22.097-.22.218zm-6.172.465l-.14-.146s-.054 0-.103.006c-.054.01-.133.035-.133.035s.03-.097.107-.142c.054-.03.087-.034.087-.034s-.015-.012-.045-.13c-.044-.16-.018-.34-.018-.34s.13.13.19.283c.048.117.04.14.04.14s.03-.014.093-.02c.093-.01.17.047.17.047s-.075.017-.13.05c-.043.022-.086.055-.086.055s.01.196-.03.197zm2.01-.64c-.005 0-.043-.005-.105.01-.103.02-.163.104-.163.104s.092 0 .156.006c.057.005.11.03.11.03s.04.2.097.2.094-.205.094-.205.053-.02.114-.03c.066-.006.158-.004.158-.004s-.053-.083-.163-.103c-.062-.015-.1-.01-.102-.008.002-.004.01-.01.004-.128-.01-.163-.1-.33-.1-.333 0 0-.09.17-.1.336-.01.113 0 .123.006.123zm-4.047-.387c0 .134-.11.24-.242.24s-.242-.106-.242-.24.11-.242.245-.242.24.11.24.243zm8.286 0c0 .134.11.24.243.24s.242-.106.242-.24-.11-.242-.242-.242-.243.11-.243.243zm-6.032.193c.06-.078.143-.114.17-.12.003-.023.01-.132-.08-.36-.084-.212-.16-.49-.003-.725.205-.303.604-.286.863-.29h.09c.182-.005.32-.027.412-.065-.097.27-.09.645 0 .92.046-.01.142-.01.207-.002-.135-.306-.092-.75.056-1.16h-.084s-.192.105-.614.114h-.022c-.316.007-.806-.018-1.08.39-.206.3-.1.65-.015.85.083.202.105.267.1.45zm4.2-.265c.114.04.24-.02.28-.136.046-.114-.014-.243-.126-.285-.113-.04-.24.02-.28.14-.043.115.014.243.13.283zm-4.617 0c.112-.04.17-.17.127-.284-.044-.12-.17-.18-.285-.14-.11.04-.17.17-.128.284.04.12.17.18.28.14zm6.615.94c-.11 0-.17.025-.28.136-.09.09-.223.23-.223.23l-.087-.1c-.03-.05-.067-.2 0-.252l-.01-.03s-.09-.01-.16.092c-.05.075-.07.153-.07.153s-.1-.01-.18.07c-.102.1-.073.273-.073.273s-.105.08-.13.14c-.056.13 0 .237 0 .237h.035c.035-.078.115-.135.2-.137.125 0 .17.027.17.06-.003.038-.162.226-.34.226-.143 0-.22-.042-.28-.136-.075-.126-.06-.22-.06-.22s.15.02.24-.18c.07-.16.026-.268-.04-.303-.08-.045-.21.023-.266.143-.1.198-.024.3-.024.3s-.15.228-.45.122c-.274-.1-.14-.61-.14-.61s.08-.022.116 0c.037.02.05.118.086.198.026.06.076.155.135.155.04 0 .11-.14.12-.25.11-.022.2-.095.16-.304 0 0 .134-.145.116-.238-.003-.015-.074-.047-.18-.03-.108.013-.254.07-.254.07l.03-.12c.026-.033.18-.145.223-.21.04-.066.1-.163.05-.194-.046-.03-.137-.054-.2-.055 0 0-.04-.06-.11-.09h-.012c-.07-.02-.142.003-.142.003-.05-.037-.134-.074-.19-.08-.057-.006-.076.106-.084.185-.01.08.05.28.053.32.005.04-.046.117-.046.117s-.06-.16-.13-.243c-.07-.08-.14-.1-.16-.094-.04.01-.1.16-.09.29-.155.084-.138.254-.1.34-.05.08-.09.234-.05.29.023.034.145.018.252-.042.077-.043.144-.116.188-.113.046 0 .096.065.096.065s-.21.402-.474.406c-.22.004-.302-.095-.302-.095-.11-.09-.117-.2-.117-.2s.18-.06.204-.29c.014-.18-.09-.274-.18-.285-.11-.012-.235.1-.257.237-.04.23.112.314.112.314s-.08.277-.42.252c-.158-.015-.218-.036-.345-.13-.17-.13-.18-.467-.18-.467s.088-.043.14-.032c.056.01.1.106.18.173.09.076.183.15.284.14.05 0 .096-.215.058-.325.098-.103.107-.264.03-.373 0 0 .064-.227.007-.297-.02-.022-.088-.036-.206.022-.117.053-.286.203-.286.203s-.03-.09-.006-.128c.022-.04.134-.24.16-.32.025-.078.054-.195-.014-.208-.066-.015-.18-.004-.25.02-.036-.024-.1-.063-.164-.063-.066 0-.13.04-.163.066-.07-.024-.185-.035-.252-.02-.07.013-.04.13-.016.21.024.08.136.28.16.32.023.036-.007.123-.007.123s-.17-.15-.285-.21c-.12-.06-.188-.045-.206-.026-.06.072.007.3.007.3-.074.11-.07.27.03.372-.035.11.01.324.06.328.103.01.195-.066.284-.14.08-.066.12-.162.177-.172.057-.01.144.034.144.034s-.01.338-.18.467c-.13.093-.19.114-.35.13-.338.022-.417-.255-.417-.255s.15-.083.112-.31c-.025-.137-.145-.25-.26-.236-.09.01-.193.1-.176.28.022.23.2.29.2.29s-.007.115-.117.205c0 0-.083.098-.3.095-.266-.005-.48-.41-.48-.41s.05-.06.095-.065c.044-.003.11.07.19.113.11.06.226.075.25.04.04-.056.002-.21-.05-.29.04-.086.054-.256-.1-.34.01-.13-.05-.28-.09-.29-.02-.005-.09.014-.16.093-.067.084-.128.243-.128.243s-.052-.077-.048-.118c.004-.04.062-.24.055-.32-.01-.076-.03-.19-.087-.18-.06.004-.14.04-.19.08 0 0-.076-.026-.147-.003l-.01.004c-.07.026-.11.09-.11.09-.064 0-.155.024-.2.054-.05.03.01.126.05.192.045.065.198.177.227.21l.03.12s-.147-.057-.254-.072c-.108-.014-.178.018-.18.032-.02.093.113.238.113.238-.035.21.053.282.163.304.01.11.08.25.12.25.06 0 .11-.095.137-.154.035-.08.045-.176.085-.198.036-.022.114 0 .114 0s.135.51-.14.607c-.3.105-.45-.125-.45-.125s.08-.1-.02-.298c-.06-.12-.19-.188-.27-.143-.063.032-.106.14-.036.3.087.203.24.182.24.182s.016.093-.06.22c-.057.092-.136.134-.274.134-.183 0-.34-.186-.343-.222 0-.033.045-.062.172-.06.08 0 .16.06.19.138h.037s.056-.106 0-.238c-.027-.06-.13-.143-.13-.143s.03-.17-.075-.27c-.08-.08-.18-.07-.18-.07s-.02-.08-.074-.156c-.07-.1-.157-.095-.157-.095l-.01.03c.066.056.033.203 0 .254l-.087.096s-.13-.14-.226-.23c-.11-.11-.17-.136-.28-.136-.157 0-.205.125-.205.125s.11-.03.257.07c.08.06.285.256.285.256-.02.28.073.485.344.51l.176.234h6.91l.175-.23c.27-.026.36-.23.343-.51 0 0 .203-.197.284-.256.146-.1.26-.07.26-.07s-.05-.124-.207-.124zm-.332-1.43c0 .12.1.22.22.22.125 0 .22-.1.22-.22 0-.123-.095-.22-.22-.22-.12 0-.22.097-.22.22zm-7.95 0c0 .12-.095.22-.22.22-.12 0-.22-.1-.22-.22 0-.123.1-.22.22-.22.125 0 .22.097.22.22zm4.174-.084c0 .11-.086.192-.195.192-.106 0-.193-.09-.193-.196 0-.107.087-.194.194-.194.11 0 .197.086.197.193zm.035.192c.067-.01.16-.01.21 0 .09-.273.094-.646-.004-.92.095.04.23.06.415.066h.09c.26.006.66-.01.865.293.16.237.08.514-.003.726-.09.23-.084.336-.08.36.027.005.113.04.17.12-.004-.18.02-.248.104-.45.087-.2.19-.55-.013-.85-.273-.408-.764-.38-1.08-.39h-.024c-.42-.01-.613-.11-.614-.11h-.084c.146.41.19.85.053 1.16zm2-.35c0 .127.1.23.226.23s.225-.103.225-.227c0-.125-.1-.225-.224-.225s-.224.1-.224.227zm-4.46 0c0 .127-.097.226-.223.226s-.227-.1-.227-.223c0-.125.1-.225.227-.225s.225.1.225.226zm-1.38-.16c0 .115-.094.207-.21.207-.115 0-.208-.093-.208-.21 0-.114.092-.207.206-.207.115 0 .207.094.207.208zm7.223 0c0 .115.093.207.206.207.113 0 .206-.093.206-.21 0-.114-.093-.207-.21-.207-.112 0-.206.094-.206.208zm-3.443-.12c0 .09-.076.166-.17.166-.093 0-.17-.075-.17-.168 0-.094.077-.17.17-.17.094 0 .17.076.17.17zm2.984-.107c0 .11.088.2.198.2.114 0 .2-.09.2-.2 0-.11-.086-.2-.2-.2-.11 0-.196.09-.196.2zm-6.305 0c0 .11-.09.2-.2.2-.11 0-.2-.09-.2-.2 0-.11.09-.2.2-.2.11 0 .2.09.2.2zm5.2-.092c0 .12.096.216.215.216.12 0 .218-.098.218-.217 0-.12-.1-.218-.22-.218s-.215.096-.215.215zm-4.098 0c0 .12-.1.216-.217.216-.12 0-.215-.098-.215-.217 0-.12.097-.218.216-.218.12 0 .216.096.216.215zm-.625-.02c0 .108-.086.19-.192.19-.103 0-.19-.082-.19-.19 0-.104.087-.19.19-.19.107 0 .19.086.19.19zm5.34 0c0 .108.086.19.192.19.102 0 .19-.082.19-.19 0-.104-.088-.19-.19-.19-.108 0-.195.086-.195.19zm-2.532-.163c0 .078-.06.14-.14.14-.073 0-.136-.062-.136-.14 0-.076.063-.14.14-.14.076 0 .137.064.137.14zm1.55-.14c0 .113.093.206.205.206.113 0 .205-.092.205-.205 0-.11-.094-.203-.208-.203-.113 0-.206.09-.206.204zm-3.372 0c0 .113-.092.205-.205.205-.114 0-.207-.09-.207-.204 0-.11.095-.204.208-.204.112 0 .205.09.205.204zm2.958-.123c0 .1.08.176.178.176.1 0 .178-.08.178-.18 0-.1-.08-.177-.177-.177-.098 0-.177.077-.177.175zm-2.54 0c0 .096-.08.176-.176.176-.1 0-.18-.08-.18-.18 0-.1.08-.177.18-.177.097 0 .176.077.176.175zm.41-.03c0 .09-.073.16-.16.16-.09 0-.16-.073-.16-.16 0-.088.07-.16.16-.16.087 0 .16.072.16.16zm1.723 0c0 .09.07.16.16.16.088 0 .16-.073.16-.16 0-.088-.072-.16-.16-.16-.09 0-.16.072-.16.16zm-1.506.13c.077 0 .13-.06.13-.13s-.053-.13-.13-.13c-.07 0-.13.06-.13.13s.06.13.13.13zm1.157-.13c0 .07.06.13.132.13.07 0 .13-.06.13-.13s-.06-.13-.13-.13c-.077 0-.137.06-.137.13zm.193-.57c-.074.32-.363.56-.706.56-.344 0-.632-.24-.707-.56.226-.05.462-.08.705-.08.243 0 .48.03.706.08zm-.84-.885v.567c-.2.005-.4.03-.59.07.033-.32.276-.584.59-.64zm.27 0c.313.06.553.32.588.64-.19-.04-.39-.065-.59-.073v-.57zm.108-1.136l-.105.42.37-.12v.49l-.37-.104v.45h-.27v-.45l-.37.106v-.49l.37.12-.106-.42h.485z" fill="#fff"/></svg>