<svg viewBox="0 0 128 45" xmlns="http://www.w3.org/2000/svg" fill-rule="evenodd" clip-rule="evenodd" stroke-linejoin="round" stroke-miterlimit="1.414"><path d="M44.064 22.032c0 12.168-9.864 22.032-22.032 22.032S0 34.2 0 22.032 9.864 0 22.032 0s22.032 9.864 22.032 22.032zm39.548 15.904c.074.06.14.104.216.15.404.254.526.568.5.856-.036.344-.37.62-.934.656-.612.04-1.44-.2-1.284-1.01.08-.424.65-.646 1.12-.66.128-.006.254 0 .38.008h.002zm21.184-.746v1.728h-.42v-4.25h.42v.6c.172-.38.64-.684 1.168-.684.88 0 1.534.68 1.534 1.61 0 .94-.68 1.62-1.56 1.62-.504 0-.95-.262-1.142-.624v-.044l-.018.008.018.036zm-28.8-2.678c1.11 0 1.694.734 1.74 1.58.066.864-.66 1.628-1.536 1.72-1.04.108-1.964-.608-1.964-1.654 0-.9.79-1.648 1.76-1.648v.002zm3.774 0c1.1 0 1.674.734 1.72 1.58.054.864-.64 1.628-1.506 1.72-1.04.108-1.94-.608-1.94-1.654 0-.9.77-1.648 1.726-1.648v.002zm16.766.072c.88 0 1.58.68 1.58 1.61 0 .94-.7 1.62-1.58 1.62-.876 0-1.57-.664-1.57-1.6 0-.926.694-1.608 1.568-1.608l.002-.022zm16.984 1.126c0-.5-.32-.76-.76-.76-.37 0-.724.2-1.014.54v2.22h-.42v-3.04h.416v.44c.28-.34.66-.54 1.1-.54.72 0 1.116.44 1.116 1.108v2.028h-.42v-2l-.018.004zm-36.474.48c.06.63-.152 1.22-.72 1.346-.592.134-1.2-.348-1.36-1.166-.176-.892.116-1.48.664-1.626.654-.172 1.314.486 1.416 1.444v.002zm3.774 0c.06.63-.16 1.22-.72 1.346-.58.134-1.188-.348-1.34-1.166-.172-.892.1-1.48.654-1.626.644-.172 1.308.486 1.406 1.444v.002zm8.494-.74c.11-.04.12-.04.074-.16-.22-.66-1.08-1.006-1.8-.7-.58.24-.996.844-.996 1.52 0 .92.66 1.74 1.564 1.74.396 0 .7-.06.956-.22.06-.056.372-.3.372-.36 0-.008-.04.028-.11.06-.2.112-.504.16-.748.16-.47.012-.86-.324-1.114-.714-.16-.26-.264-.544-.292-.85-.04-.474.08-1.012.612-1.152.356-.088.688.116.82.46.06.152.02.232-.124.29l-1.276.54.44.028c.514-.22 1.096-.414 1.62-.64l.002-.002zm-23.23 1.16v-.42c-.08.09-.24.12-.392.12h-.574c-.46 0-.66.22-.66.54 0 .266.2.58.7.58.46 0 .906-.26.906-.816l.02-.004zm43.94 0v-.42c-.08.09-.24.12-.396.12h-.566c-.42 0-.64.22-.64.54 0 .266.2.58.72.58.46 0 .9-.26.9-.816l-.018-.004zm-16.832.806c.448 0 .82-.24 1.004-.614l.36.208c-.26.47-.786.77-1.364.77-.88 0-1.57-.674-1.57-1.61 0-.924.7-1.606 1.58-1.606.58 0 1.116.312 1.36.78l-.36.2c-.18-.36-.56-.6-1-.6-.68 0-1.14.532-1.14 1.23 0 .7.472 1.24 1.148 1.24l-.018.002zm12.736-2.474c-.68 0-1.16.54-1.16 1.232 0 .7.48 1.24 1.16 1.24.68 0 1.144-.54 1.144-1.24 0-.694-.464-1.23-1.144-1.23v-.002zm-9.396 0c-.67 0-1.144.54-1.144 1.232 0 .7.474 1.24 1.146 1.24.694 0 1.15-.54 1.15-1.24 0-.694-.456-1.23-1.15-1.23l-.002-.002zm19.12 2.76h-.134l-1.14-3.054h.47l.96 2.72.98-2.72h.446l-1.356 3.586c-.166.434-.36.664-.88.664h-.354v-.36h.346c.306 0 .406-.154.524-.46l.138-.376h.026l-.024-.008-.002.008zM85 34.592l-.412.28h-.474c.196.128.35.332.434.554.094.228.1.484.016.726-.092.228-.266.426-.514.574-.14.088-.22.19-.226.3-.024.296.34.52.56.674.46.34.64.914.33 1.46-.294.528-.996.764-1.728.77-.924-.02-1.504-.44-1.54-1.02-.036-.74.73-1.1 1.42-1.174.196-.02.366-.016.53-.01-.248-.16-.334-.49-.208-.708.028-.06.008-.04-.052-.026-.568.08-1.146-.288-1.288-.84-.066-.288-.026-.58.092-.806.22-.496.75-.78 1.32-.78.596 0 1.15 0 1.74.004v.022zm-1.04 1.224c.074.44-.04.86-.444.98-.4.108-.86-.214-1-.786-.17-.62.004-1.02.384-1.14.46-.14.944.26 1.06.94v.006zM71.78 38.05c-.624 0-1.236-.14-1.692-.44-.58-.4-1.152-1.196-1.124-2.18.032-.94.632-1.8 1.48-2.22.976-.48 2.43-.392 3.29.3l-.508.52-.326.094.17-.32c-.248-.248-.528-.426-.848-.52-.48-.16-.94-.08-1.34.11-.78.386-1.24 1.32-1.06 2.308.194 1.04 1 1.88 2.052 1.972.316.026.648.01.96-.064.22-.072.22-.092.22-.224v-.92l-1.07.034.55-.304h1.46l-.226.274v1.14c-.532.27-1.25.436-1.952.44h-.036zm-5.696-2.44c0-.46-.36-.66-.768-.66-.38 0-.68.16-.94.324l-.194-.32c.22-.16.64-.394 1.18-.394.732 0 1.16.42 1.16 1.044v2.092h-.42v-.38c-.164.306-.588.46-.96.46-.66 0-1.1-.386-1.1-.94 0-.554.4-.884 1.02-.884h.74c.214 0 .3-.114.3-.274v-.092l-.018.024zm42.984 2.168c-.664 0-1.104-.386-1.104-.94 0-.554.4-.884 1.036-.884h.72c.22 0 .304-.114.304-.274v-.07c0-.46-.366-.66-.768-.66-.38 0-.68.16-.94.324l-.2-.32c.208-.16.64-.39 1.164-.39.724 0 1.16.412 1.16 1.04v2.094h-.416v-.38c-.168.29-.568.45-.922.46h-.034zm-7.708-1.968v1.9h-.42v-2.02c0-.48-.286-.74-.726-.74-.36 0-.68.2-.972.54v2.22h-.4v-3.04h.416v.44c.26-.32.588-.534 1.028-.534.514 0 .86.23 1 .594.334-.4.692-.592 1.134-.592.72 0 1.086.44 1.086 1.106v2.032h-.426v-2.024c0-.468-.29-.732-.712-.732-.366 0-.7.21-.994.546 0 .104.01.208.01.304h-.024zm-16.002-2.98h.94c-.14.08-.18.12-.24.2-.036.06-.052.18-.06.3-.066 1.28-.026 2.566-.034 3.86.008.344.14.32.6.3-.066.06-.188.164-.27.22-.408 0-.788-.014-1.208-.014.16-.16.234-.26.226-.66.008-1.34-.04-2.632.044-3.92-.2 0-.376 0-.574.004.192-.096.36-.22.552-.308l.024.018zm39.34-15.12h-3.04v1.24h2.96c1.42 0 1.94.5 1.952 1.94h-3.3c-2.032.148-3.246 1.3-3.246 3.08 0 1.84 1.434 3.224 3.34 3.224 2 0 2.888-1.052 3.206-1.496v1.24H128v-5.96c0-2.054-1.232-3.28-3.3-3.28l-.002.012zm-33.868-.234c-2.716 0-4.76 2.092-4.76 4.866 0 2.764 2.044 4.846 4.76 4.846 2.73 0 4.784-2.08 4.784-4.846 0-2.77-2.056-4.86-4.786-4.86l.002-.006zm-17.228 0c-2.716 0-4.766 2.092-4.766 4.866 0 2.764 2.05 4.846 4.766 4.846 2.732 0 4.788-2.08 4.788-4.846 0-2.77-2.056-4.86-4.78-4.86l-.008-.006zm35.956 0c-2.72 0-4.76 2.092-4.76 4.866 0 2.764 2.04 4.846 4.76 4.846 2.72 0 4.78-2.08 4.78-4.846 0-2.77-2.06-4.86-4.786-4.86l.006-.006zm-5.818.436c-.166-.08-.748-.34-1.314-.344h-.056c-1.42 0-2.426.468-3.01 1.4v-1.232h-1.412v9.22h1.412v-5.88c.296-1.404 1.772-2.11 2.64-2.11h.068c.552.02.944.128 1.18.22l.074.026.48-1.26-.06-.032-.002-.008zm-40.34-.44c-1.166 0-2.132.48-3.02 1.48-.5-.954-1.44-1.48-2.74-1.48-.96 0-1.78.32-2.536.98v-.72h-1.412v9.22h1.41v-6.98c.76-.786 1.54-1.172 2.38-1.172 1.212 0 1.934.774 1.934 2.072v6.066l1.386.004v-6.1c0-.256-.02-.5-.056-.724.8-.88 1.62-1.32 2.5-1.32 1.212 0 1.932.78 1.932 2.076v6.076l1.38.004v-6.1c0-2.14-1.148-3.37-3.154-3.37l-.004-.012zm53.16 9.48h1.406V13.92h-1.406v13.032zm-80.41 5.434l-7.94-26.19-6.124 20.448-.054.048-.052-.048-6.132-20.448-7.94 26.19H9.4s1-4.554 2.636-7.274c.88-1.48 2.254-2.69 4.08-2.66 1.276.032 2.39.744 3.786 2.696.84 1.172 2.14 4.154 2.14 4.154s1.3-2.98 2.134-4.154c1.4-1.952 2.506-2.664 3.796-2.694 1.82-.02 3.196 1.18 4.07 2.66 1.632 2.72 2.64 7.28 2.64 7.28h1.492l-.024-.008zm87.484-6.424c-1.53 0-2.22-.994-2.22-1.976 0-1.21.74-1.796 2.26-1.796h2.912v.56c0 1.62-1.294 3.2-2.948 3.2l-.004.012zm-32.798-.012h-.002.004-.002c1.944-.002 3.352-1.52 3.352-3.6 0-2.1-1.408-3.6-3.354-3.6-1.928 0-3.328 1.5-3.328 3.6 0 2.08 1.4 3.598 3.33 3.6zm-17.222 0h-.004.008-.004c1.942-.002 3.348-1.522 3.348-3.6 0-2.1-1.408-3.6-3.354-3.6-1.93 0-3.33 1.5-3.33 3.6 0 2.078 1.398 3.598 3.336 3.6zm35.95 0h-.002.004-.002c1.95-.002 3.358-1.52 3.358-3.6 0-2.1-1.42-3.6-3.36-3.6-1.93 0-3.33 1.5-3.33 3.6 0 2.08 1.404 3.598 3.332 3.6zm-25.226-7.02v-1.2h-1.726v-3.82h-1.408v3.82h-1.53v1.2h1.528v6.1c0 1.354.708 2.01 2.172 2.01.274 0 .648-.01.89-.028h.074v-1.206l-.08.004-.424.006c-.74 0-1.22-.056-1.22-.806v-6.06h1.728l-.004-.02z"/></svg>