<svg viewBox="0 0 64 64" xmlns="http://www.w3.org/2000/svg" fill-rule="evenodd" clip-rule="evenodd" stroke-linejoin="round" stroke-miterlimit="1.414"><path d="M41.806 39.952c.037.03.07.052.108.075.202.127.263.284.25.428-.018.172-.185.31-.467.328-.306.02-.72-.1-.642-.505.04-.212.325-.323.56-.33.064-.003.127 0 .19.004zm10.592-.395v.886h-.21v-2.125h.21v.3c.086-.19.32-.342.584-.342.44 0 .767.34.767.805 0 .47-.34.81-.78.81-.26 0-.49-.14-.58-.33zM39.885 38.24c.55 0 .837.367.86.79.027.432-.32.814-.753.86-.52.054-.97-.304-.97-.827 0-.45.385-.824.863-.824zm-1.887 0c.555 0 .847.367.87.79.033.432-.33.814-.768.86-.52.054-.982-.304-.982-.827 0-.45.395-.824.88-.824zm10.27.036c.44 0 .79.34.79.805 0 .47-.35.81-.79.81-.438 0-.785-.332-.785-.8 0-.463.347-.804.784-.804zm2.412.613v.95h-.21v-1.01c0-.24-.143-.37-.363-.37-.18 0-.34.1-.486.27v1.11h-.2v-1.52h.208v.22c.13-.16.294-.267.514-.267.257 0 .43.115.5.297.167-.2.346-.296.567-.296.36 0 .543.22.543.553v1.016h-.213V38.83c0-.234-.145-.366-.356-.366-.183 0-.35.105-.497.273 0 .052.005.104.005.152zm6.08-.05c0-.25-.16-.38-.38-.38-.185 0-.362.1-.507.27v1.11h-.21v-1.52h.208v.22c.14-.17.33-.27.55-.27.36 0 .558.22.558.554v1.014h-.21v-1zm-16.35.24c.03.315-.08.61-.36.673-.29.067-.594-.174-.67-.583-.086-.446.05-.74.327-.813.322-.086.654.243.703.722zm-1.887 0c.03.315-.076.61-.36.673-.296.067-.6-.174-.68-.583-.088-.446.058-.74.332-.813.327-.086.657.243.708.722zm6.134-.37c.055-.02.06-.02.037-.08-.11-.33-.54-.503-.9-.35-.29.12-.498.422-.498.76 0 .46.33.87.782.87.198 0 .35-.03.478-.11.03-.028.186-.15.186-.18 0-.004-.02.014-.055.03-.1.056-.252.08-.374.08-.235.006-.43-.162-.557-.357-.08-.13-.132-.272-.146-.425-.02-.237.04-.506.306-.576.178-.044.344.058.41.23.03.076.01.116-.062.145l-.638.27.22.014c.257-.11.548-.207.81-.32zm10.355.58v-.21c-.04.045-.12.06-.198.06h-.283c-.21 0-.32.11-.32.27 0 .133.1.29.36.29.23 0 .45-.13.45-.408zm-21.97 0v-.21c-.04.045-.12.06-.196.06h-.287c-.23 0-.33.11-.33.27 0 .133.1.29.35.29.23 0 .453-.13.453-.408zm13.554.403c.224 0 .41-.12.502-.307l.18.104c-.13.235-.393.385-.682.385-.44 0-.785-.337-.785-.805 0-.462.35-.803.79-.803.29 0 .558.156.68.39l-.18.1c-.09-.18-.28-.3-.5-.3-.34 0-.57.266-.57.615 0 .35.236.62.574.62zm1.67-1.237c-.335 0-.572.27-.572.616 0 .35.237.62.573.62.347 0 .575-.27.575-.62 0-.347-.228-.615-.575-.615zm4.698 0c-.34 0-.58.27-.58.616 0 .35.24.62.58.62.34 0 .572-.27.572-.62 0-.347-.232-.615-.572-.615zm4.875 1.38h-.08l-.57-1.527h.235l.48 1.36.49-1.36h.223l-.678 1.793c-.083.217-.18.332-.44.332h-.177v-.18h.173c.153 0 .203-.077.262-.23l.07-.192zM42.5 38.28l-.206.14h-.237c.098.064.175.166.217.277.047.114.05.242.008.363-.046.114-.133.213-.257.287-.07.044-.11.095-.113.15-.012.148.17.26.28.337.23.17.32.457.165.73-.147.264-.498.382-.864.385-.462-.01-.752-.22-.77-.51-.018-.37.365-.55.71-.587.098-.01.183-.008.265-.005-.124-.08-.167-.245-.104-.354.014-.03.004-.02-.026-.013-.284.04-.573-.144-.644-.42-.033-.144-.013-.29.046-.403.11-.248.375-.39.66-.39.298 0 .575 0 .87.002zm-.52.612c.037.22-.02.43-.222.49-.2.054-.43-.107-.5-.393-.085-.31.002-.51.192-.57.23-.07.472.13.53.47zm-6.09 1.117c-.312 0-.618-.07-.846-.22-.29-.2-.576-.598-.562-1.09.016-.47.316-.9.74-1.11.488-.24 1.215-.196 1.645.15l-.254.26-.163.047.085-.16c-.124-.124-.264-.213-.424-.26-.24-.08-.47-.04-.67.055-.39.193-.62.66-.53 1.154.097.52.5.94 1.026.986.158.013.324.005.48-.032.11-.036.11-.046.11-.112v-.46l-.535.017.275-.152h.73l-.113.137v.57c-.266.135-.625.218-.976.22h-.01zm19.122-1.22c0-.23-.183-.33-.384-.33-.19 0-.34.08-.47.162l-.1-.16c.104-.08.32-.195.582-.195.362 0 .58.206.58.52v1.047h-.208v-.19c-.087.15-.297.23-.478.23-.332 0-.552-.193-.552-.47 0-.277.2-.442.518-.442h.36c.11 0 .152-.057.152-.137v-.047zm-21.97 0c0-.23-.18-.33-.384-.33-.19 0-.34.08-.47.162l-.097-.16c.11-.08.32-.197.59-.197.366 0 .58.21.58.522v1.046h-.21v-.19c-.082.153-.294.23-.48.23-.33 0-.55-.193-.55-.47 0-.277.2-.442.51-.442h.37c.107 0 .15-.057.15-.137v-.046zm9.637-1.39h.47c-.07.04-.09.06-.12.1-.018.03-.026.09-.03.15-.033.64-.013 1.283-.017 1.93.004.172.07.16.3.15-.033.03-.094.082-.135.11-.204 0-.394-.007-.604-.007.08-.08.117-.13.113-.33.004-.67-.02-1.316.022-1.96-.1 0-.188 0-.287.002.096-.048.18-.11.276-.154zm19.67-7.56h-1.52v.62h1.48c.71 0 .97.25.976.97h-1.65c-1.016.074-1.623.65-1.623 1.54 0 .92.717 1.612 1.67 1.612 1 0 1.444-.526 1.603-.748v.62H64v-2.98c0-1.027-.616-1.64-1.65-1.64zm-7.57-.117c-1.36 0-2.38 1.046-2.38 2.433 0 1.382 1.02 2.423 2.38 2.423 1.36 0 2.39-1.04 2.39-2.423 0-1.385-1.03-2.43-2.393-2.43zm-17.978 0c-1.358 0-2.383 1.046-2.383 2.433 0 1.382 1.025 2.423 2.383 2.423 1.366 0 2.394-1.04 2.394-2.423 0-1.385-1.028-2.43-2.39-2.43zm8.614 0c-1.358 0-2.38 1.046-2.38 2.433 0 1.382 1.022 2.423 2.38 2.423 1.365 0 2.392-1.04 2.392-2.423 0-1.385-1.028-2.43-2.393-2.43zM31.7 29.72c-.583 0-1.066.24-1.51.74-.25-.477-.72-.74-1.37-.74-.48 0-.89.16-1.268.49v-.36h-.706v4.61h.705v-3.49c.38-.393.77-.586 1.19-.586.606 0 .967.387.967 1.036v3.033l.693.002v-3.05c0-.128-.01-.25-.028-.362.4-.44.81-.66 1.25-.66.606 0 .966.39.966 1.038v3.038l.69.002v-3.05c0-1.07-.574-1.685-1.577-1.685zm20.17.22c-.083-.04-.374-.17-.657-.172h-.028c-.71 0-1.213.234-1.505.7v-.616h-.706v4.61h.706v-2.94c.148-.702.886-1.055 1.32-1.055h.034c.276.01.472.064.59.11l.037.013.24-.63-.03-.016zm6.41 4.52h.703v-6.516h-.703v6.515zm3.537-.495c-.765 0-1.11-.497-1.11-.988 0-.605.37-.898 1.13-.898h1.456v.28c0 .81-.647 1.6-1.474 1.6zm-7.034-.006c-.965 0-1.667-.76-1.667-1.8 0-1.05.7-1.8 1.665-1.8.97 0 1.68.75 1.68 1.8 0 1.04-.704 1.8-1.68 1.8zm-17.974 0c-.97 0-1.67-.76-1.67-1.8 0-1.05.7-1.8 1.665-1.8.973 0 1.677.75 1.677 1.8 0 1.04-.704 1.8-1.676 1.8zm8.61 0c-.966 0-1.666-.76-1.666-1.8 0-1.05.7-1.8 1.664-1.8.973 0 1.677.75 1.677 1.8 0 1.04-.704 1.8-1.677 1.8zm-3.25-3.51v-.6h-.863v-1.91h-.704v1.91h-.765v.6h.764v3.05c0 .677.354 1.005 1.086 1.005.137 0 .324-.005.445-.014h.037v-.603l-.04.002-.212.003c-.37 0-.61-.028-.61-.403v-3.03h.864z" fill="#fff"/><path d="M18.075 37.177l-3.97-13.095-3.062 10.224-.027.024-.026-.024-3.066-10.224-3.97 13.095H4.7s.5-2.277 1.318-3.637c.44-.74 1.127-1.345 2.04-1.33.638.016 1.195.372 1.893 1.348.42.586 1.07 2.077 1.07 2.077s.65-1.49 1.067-2.077c.7-.976 1.253-1.332 1.898-1.347.91-.01 1.598.59 2.035 1.33.816 1.36 1.32 3.64 1.32 3.64h.746zM22.032 32c0 6.084-4.932 11.016-11.016 11.016S0 38.084 0 32s4.932-11.016 11.016-11.016S22.032 25.916 22.032 32z" fill="#fff" fill-rule="nonzero"/></svg>