<svg viewBox="0 0 128 37" xmlns="http://www.w3.org/2000/svg" fill-rule="evenodd" clip-rule="evenodd" stroke-linejoin="round" stroke-miterlimit="1.414"><path d="M122.865 23.67l-3.068.595-3.623 7.193 1.48 2.98 5.795-10.88-.59.113zm4.04-10.437l.29.316-1.27 1.18.05 9.87-4.374 8.96 1.82-.56c.03.17.04.23.06.37-1.204.448-6.97 2.57-8.09 2.977-.463-.915-2.01-6.17-2.1-6.785.167-.52 2.695-4.9 3.137-5.56.31-.34 3.58-1.12 6.553-1.678l.236-.04-.006-.24c-.02-1.56-.06-3.86-.06-4.98 0-.285 0-.5.02-.58.23-.31 2.03-1.84 3.76-3.244l-.02-.017zm-4.52 11.11c-.472.892-4.27 8.02-4.715 8.853l-.86-1.736 3.367-6.69 2.21-.44-.002.013zm4.365-11.718c-4.093 3.306-4.143 3.595-4.163 3.72-.012.075-.02.38-.02.82 0 1.29.046 3.705.064 4.65-2.04.4-6.27 1.258-6.68 1.878-.14.22-3.24 5.38-3.24 5.88 0 .255.66 2.5 1 3.66 1.05 3.458 1.28 3.624 1.39 3.704.09.06.19.08.29.046.31-.1 8.176-3.003 8.51-3.127l.22-.08-.246-1.48-1.174.36 3.855-7.9-.05-9.76 1.5-1.394-1.04-1.12-.21.168v-.025zm-24.32 6.94c-.608.81-2.14 3.748-2.593 4.63-1.968 3.816-1.9 3.92-1.794 4.08l.1.16.2-.04c.18-.046 4.18-.724 6.94-1.194l1.594 4.12 5.24-.97-.3-1.68-1.236.216c-.28-.71-.56-1.47-.61-1.684.28-.54 3.01-5.58 4.85-8.96l.1-.183-.16-.15c-.06-.06-1.6-1.46-5.01-1.67-3.36-.21-6.29 1.944-7.34 3.35l.028-.016zm.454.34c.83-1.107 3.6-3.327 6.853-3.127 2.574.16 4.02 1.044 4.487 1.386-1.82 3.35-4.74 8.735-4.78 8.887 0 .02-.02.05-.02.1 0 .168.12.598.74 2.16l.1.21s.807-.14 1.133-.2l.1.58-4.22.78-1.59-4.11-.233.04c-.606.1-5.18.878-6.72 1.15.69-1.54 3.4-6.826 4.166-7.844l-.016-.002zm6.84-1.585c-.08.008-2.047.224-3.177 1.086-1.107.84-3.06 5.22-3.275 5.715l-.224.51 3.863-.82 3.34-6.56-.52.05v.02zM87.82 22.512c0-.656 2.368-7.01 2.676-7.45.3-.29 3.6-1.38 6.7-2.285.167.42 2.073 5.147 2.26 5.615l-8.22 3.206 2.24 3.77s1.785-.56 2.175-.66l.26.6-5.372 1.88c-1.35-2.04-2.705-4.307-2.71-4.698v.022zm19.07-2.654c.67-.51 1.725-.772 2.36-.888-.415.8-2.613 5.12-2.72 5.34-.202.04-1.798.38-2.51.52.7-1.555 2.12-4.42 2.86-4.992l.01.02zm-9.61-7.7c-2.56.74-6.898 2.06-7.258 2.58-.416.58-2.78 6.99-2.78 7.774 0 .747 2.24 4.167 2.92 5.2l.124.18 6.35-2.23-.675-1.647-2.24.68-1.67-2.81 8.13-3.173-2.67-6.625-.24.072h.02zm-82.766 4.46c-1.16-.563-2.38-1.18-2.52-1.28-.234-.17-.42-.1-1.556.97-.614.58-1.343 1.3-1.88 1.832l-.647.64c-.49-.132-2.45-1.248-2.66-1.39-.235-.16-.293-.2-2.7 2.14-.972.948-2.26 2.24-2.364 2.38l-.18.234 1.29.91 1.62-1.308c.82.39 1.71.85 1.86.99.167.267 1.07 2.48 1.8 4.26 1.08 2.658 1.75 4.292 1.94 4.558.367.53 3.75 2.248 4.778 2.76l.207.104 2.19-2.74-.25-.17c-.79-.53-2.81-1.89-3.14-2.12-.253-.46-2.01-5.325-3.116-8.458l1.698-1.5c.726 2.05 3.486 9.838 3.63 10.128.05.1.2.4 5.025 2.552l.22.1 2.11-3.14s-2.99-1.54-3.17-1.64l-3.23-8.538 1.68-1.28c.647 1.846 3.06 8.727 3.39 9.3.38.647 3.7 2.1 4.718 2.534l.185.086 2.206-2.7-.3-.16c-.64-.35-2.36-1.3-2.81-1.65-.36-.61-3.36-9.13-3.48-9.583-.1-.54-2.634-1.52-2.86-1.55-.128-.02-.48-.06-3.68 2.71l.01.01zm14.86-.424c.7.44 1.997 1.36 2.23 1.58.167.33.68 2.8 1.125 5.18-1.02-.5-1.99-1.01-2.17-1.16-.16-.384-.77-3.412-1.188-5.58l-.004-.02zm-14.64.98c1.42-1.24 3.06-2.56 3.413-2.7.393.1 2.14.94 2.365 1.18.27.82 3.25 9.52 3.63 9.82.42.34 1.96 1.2 2.62 1.56l-1.5 1.84c-1.933-.837-4.058-1.893-4.246-2.215-.255-.44-2.22-5.96-3.475-9.57l-.13-.38-2.64 2 3.46 9.144 2.8 1.445-1.492 2.2c-2.07-.924-4.26-1.97-4.54-2.22-.212-.52-2.326-6.46-3.726-10.42l-.14-.4-2.62 2.31.06.18c3.066 8.67 3.26 8.813 3.34 8.88.174.13 2.216 1.502 2.94 1.992-.28.36-1.294 1.626-1.51 1.9-2.024-1.02-4.163-2.2-4.37-2.48-.16-.234-1.11-2.57-1.88-4.445-1.443-3.554-1.765-4.3-1.905-4.44-.27-.27-1.74-.98-2.185-1.187l-.16-.08-1.57 1.268-.44-.31c.804-.84 3.63-3.61 4.25-4.094.26.154.79.46 1.313.74 1.44.764 1.62.726 1.79.6.07-.052.24-.226.777-.752.73-.72 2.37-2.343 2.836-2.66.508.29 2.1 1.073 2.628 1.33l.176.087.14-.134-.004.006zm16.177-6.4l.39.26-.64 1.12.278.14c.88.42 3.273 1.713 3.78 2.657.64 1.18 1.406 5.63 1.414 5.68l.084.49 1.16-.97.15.16c-.27.36-4.588 6.236-4.854 6.6-.94-.5-4.59-2.46-5.16-2.85-.48-.393-1.527-5.574-1.62-6.4.29-.51 3.07-4.262 5.02-6.864l.006-.012zm20.01.995c-.12.04-.21.16-.2.3v-.01c.12 4.07.25 6.26.38 6.49.17.3 1.69 1.38 2.59 2l.46.32-.012-.56c-.09-3.84-.223-5.91-.4-6.15-.127-.18-.76-.81-1.293-1.315-1.24-1.18-1.344-1.14-1.52-1.08v-.006zm42.77 3.2l-2 5.49 4.24-1.42-1.993-4.76-.247.68v.004zm-63.06-4.76c-5.3 7.06-5.3 7.24-5.3 7.36 0 .06 1.025 6.34 1.87 6.92.675.47 5.234 2.9 5.428 3l.22.12 5.43-7.39-.87-.87-.8.66c-.22-1.213-.83-4.33-1.384-5.36-.593-1.1-2.953-2.354-3.76-2.76l.595-1.04-1.26-.872-.17.22v.01zm20.677 2.36c.62.53 1.76 1.642 1.954 1.892.11.346.23 2.867.29 5.29-.924-.655-1.806-1.32-1.954-1.493-.1-.4-.227-3.49-.297-5.69l.002.002zm42.68 3.26c.343.83 1.03 2.46 1.193 2.853l-2.547.848 1.35-3.7v-.002zm-40.3-8.39l.34.32-.81 1.002.253.174c.8.55 2.96 2.202 3.3 3.22.342.99.38 3.84.38 5.03 0 .32-.006.52-.006.52l-.008.6 1.33-1.08c.114.147.17.22.28.35l-5.97 5.98c-.83-.636-4.06-3.1-4.552-3.573-.38-.426-.596-4.96-.596-6.313 0-.113 0-.195.005-.26.365-.455 3.7-3.725 6.036-5.986l.016.014zm-.2-.6c-6.346 6.145-6.38 6.325-6.394 6.443-.01.056.02 6.415.76 7.127.59.58 4.63 3.64 4.8 3.78l.2.154 6.68-6.68-.95-1.193-.835.68c0-1.26-.045-4.1-.42-5.163-.413-1.18-2.544-2.79-3.28-3.32l.756-.94-1.11-1.054-.196.188-.004-.02zm-24.593 8.61c-.12.06-.18.18-.156.32.76 4 1.23 6.14 1.393 6.34.21.26 1.89 1.1 2.88 1.56l.5.24-.1-.547c-.7-3.78-1.16-5.8-1.37-6.01-.157-.153-.88-.675-1.487-1.09-1.415-.968-1.51-.916-1.67-.83l.002.016zM41.94 3.212l.6.54c-.28.3-.76.82-.92 1.14-.036.06-.05.22-.05.46 0 1.16.383 4.16.74 6.698l.035.246 1.58-.054.056.68-1.75.1.03.297c.07.68.68 6.69.95 7.38.285.74 1.845 1.68 2.02 1.784l.16.093.89-.64c.12.12.2.19.34.32l-2.58 2.8c-1.7-1.112-3.52-2.468-3.66-2.813-.18-.464-.76-5.26-1.12-8.36l-.03-.26-1.5.053c-.04-.24-.08-.506-.12-.78l1.525-.104-.03-.287c-.194-2.054-.47-5.08-.512-5.62.28-.38 2.08-2.347 3.326-3.678h.033zm33.574.92c.18-.32 2.34-1.6 4.4-2.7l.306.552-1.114.74-2 9.552s5.78-2.54 6.16-2.7c.48.65 2.18 3.3 2.18 7.785 0 .876-.067 1.82-.217 2.83-.93 6.22-5.42 9.458-6.48 10.146l-1.25-1.92c.8-.66 3.6-3.24 4.73-8.02.24-1.03.34-1.97.34-2.82 0-3.4-1.55-5.4-1.63-5.5l-.14-.17-4.14 1.844-1.716 8.32 2.26-.62.16.425-3.92 1.61c-.676-.82-1.38-1.77-1.448-2.02.03-.768 3.18-16.468 3.48-17.338l.03-.005zm-33.8-1.52c-3.672 3.94-3.672 4.063-3.672 4.2 0 .145.346 3.89.49 5.444l-1.56.1.28 1.896 1.48-.05c.166 1.5.88 7.6 1.12 8.24.26.698 3.18 2.638 4.063 3.218l.2.13 3.298-3.557-1.1-1.02-.954.696c-.61-.38-1.48-1.02-1.63-1.407-.17-.446-.61-4.28-.88-6.933l1.74-.1-.15-1.79-1.61.05c-.37-2.67-.716-5.57-.716-6.4 0-.087.004-.15.01-.19.166-.31.79-.966 1.02-1.196l.212-.212L41.9 2.42l-.19.2zM79.9.8c-1.746.92-4.706 2.554-4.92 3.14-.116.32-1.06 4.83-1.873 8.82-1.72 8.446-1.66 8.718-1.64 8.818.104.494 1.34 1.99 1.7 2.44l.134.16 4.83-1.988-.553-1.42-1.86.51 1.47-7.12c.236-.1 3.094-1.38 3.46-1.54.36.54 1.37 2.32 1.37 5.008 0 .808-.09 1.692-.315 2.648-1.25 5.275-4.695 7.833-4.73 7.86l-.22.16.145.223 1.686 2.58.23-.13c.06-.037 5.896-3.396 6.984-10.7 1.087-7.3-2.09-11.08-2.227-11.234l-.14-.16-5.55 2.427c.2-.94 1.675-8.036 1.72-8.243l1.352-.9-.82-1.5-.246.13h.02zm-16.908 6l3.18 3.423 2.255-1.68c.28.355 2.126 2.648 2.392 2.98l-2.22 2.17c-.488-.608-1.58-1.92-2.13-2.15-.31-.132-.62-.112-.887.06-.408.26-.654.82-.688 1.572-.05 1.072-.255 7.707-.26 7.773l-.013.484 1.36-.71.168.35-2.43 1.728c-1.015-1.018-2.09-2.18-2.173-2.438-.01-.05-.014-.192-.014-.406 0-1.546.182-6.933.324-10.618l.02-.56-1.554 1.06-.34-.34c.36-.335 2.663-2.4 3.005-2.7zm-.16-.612l-3.665 3.286 1.096 1.1 1.016-.69c-.08 2.22-.3 8.084-.3 10.018 0 .32 0 .54.02.6.11.486 1.77 2.163 2.49 2.86l.17.167 3.22-2.29-.648-1.3-1.01.52c.045-1.56.2-6.38.24-7.28.03-.65.24-1.006.425-1.124.11-.068.23-.074.366-.016.4.164 1.5 1.45 2.093 2.224l.2.25 3.032-2.974-3.06-3.807-2.28 1.704-3.204-3.46-.21.183-.003.015zM48.966 3.14l-1.633 1.272 1.683 1.816 1.83-1.56-1.68-1.68-.2.16V3.14zm.15.606l.89.9-.95.8c-.22-.23-.652-.692-.893-.96l.947-.73.006-.01zm4.68-1.52l-1.632 1.268 1.68 1.816 1.827-1.552L54 2.078l-.2.153h.004zm.154.6l.894.888-.952.808c-.22-.236-.646-.7-.89-.96l.94-.73.008-.005z"/></svg>