<svg viewBox="0 0 128 98" xmlns="http://www.w3.org/2000/svg" fill-rule="evenodd" clip-rule="evenodd" stroke-linejoin="round" stroke-miterlimit="1.414"><path d="M128 16.626c0 3.034-1.95 6.46-5.848 10.275l-8.967 8.72v44.74l-7.146 5.59H65.36V54.83l-1.43 2.86-11.176 3.246-6.5-4.677v25.91l-6.497 3.77H0V0h38.335c-.608 0 3.42 1.022 12.084 3.068l5.84 6.536L66.27 0h37.556c.52 0 3.637 1.646 9.356 4.935V17.01c2.426-3.55 4.98-5.328 7.667-5.328 1.73 0 3.356.434 4.873 1.302 1.517.868 2.275 2.082 2.275 3.642zM8.836 97.36h-1.43v-6.797l-2.34 6.797H3.9l-2.34-6.797v6.797H.13v-8.748h2.08l2.208 6.758 2.338-6.758h2.08v8.748zm8.446-3.133c0 2.088-1.17 3.133-3.51 3.133s-3.508-1.045-3.508-3.133v-5.615h1.56v4.938c0 1.734.65 2.6 1.95 2.6 1.385 0 2.08-.866 2.08-2.6v-4.938h1.428v5.615zm7.67.52c0 1.743-1.084 2.613-3.25 2.613s-3.337-1.008-3.51-3.028h1.56c0 1.212.693 1.818 2.08 1.818 1.21 0 1.82-.432 1.82-1.3 0-.606-.87-1.124-2.6-1.558-1.733-.434-2.6-1.257-2.6-2.468 0-1.646 1.084-2.47 3.25-2.47 2.078 0 3.118.912 3.118 2.73h-1.43c-.087-1.04-.693-1.56-1.82-1.56-1.04 0-1.56.393-1.56 1.175 0 .69.824 1.22 2.47 1.56 1.646.35 2.47 1.174 2.47 2.48zm2.728 2.613h-1.56v-8.748h1.56v8.748zm8.706-3.42c-.174 2.28-1.386 3.42-3.638 3.42-2.685 0-4.03-1.522-4.03-4.568 0-1.13.39-2.15 1.17-3.066.78-.913 1.735-1.37 2.86-1.37 2.338 0 3.552.953 3.638 2.856h-1.56c-.26-1.126-.954-1.688-2.08-1.688-1.646 0-2.47 1.082-2.47 3.248 0 2.252.824 3.378 2.47 3.378 1.386 0 2.08-.735 2.08-2.21h1.56zm8.966-12.474v-25.73l-5.458-4.29v33.27l5.458-3.25zm1.43 8.447h-2.6v7.447h-1.56v-7.447h-2.467v-1.3h6.626v1.3zm8.966-79.92l-5.718-6.11-9.615-2.467L51.72 13.633l4.028-3.64zm-1.95 87.367h-6.106v-8.748H53.8v1.3h-4.55v2.34h4.16v1.04h-4.16v2.598h4.55v1.47zm37.557-75.407c0-.866-.348-1.668-1.04-2.407-.694-.737-1.474-1.107-2.338-1.107-.52 0-2.146 1.04-4.875 3.12-2.73 2.08-5.176 3.11-7.342 3.11-.52 0-1.364-.17-2.533-.52-1.17-.347-2.06-.52-2.665-.52-1.388 0-2.08 2.21-2.08 6.626 0 .694-1.56 1.863-4.677 3.51-1.906.953-3.854 1.95-5.847 2.99-.78.78-2.082 1.69-3.9 2.73-1.3.26-2.49.562-3.573.91-1.082.35-1.624 1.472-1.624 3.38 0 .69.22 1.47.65 2.335.44 1.127.96 1.69 1.56 1.69-.08 0 1.04-.13 3.38-.39.26-.78.78-1.86 1.56-3.247.61-.956 2.51-2.58 5.72-4.875 3.21-2.297 5.29-3.447 6.24-3.447 1.82 0 2.73 1.65 2.73 4.95 0 2.26-.172 5.687-.52 10.29-.35 4.6-.52 8.074-.52 10.416 0 2.78.3 5.732.91 8.856.955 4.43 2.34 6.643 4.16 6.643 3.206 0 4.81-1.3 4.81-3.904 0-.954-.26-3.015-.78-6.18-.52-3.17-.91-5.013-1.17-5.535V35.62c0-3.644 1.17-6.246 3.51-7.81.864-.606 3.116-1.43 6.756-2.473 2.338-.78 3.51-1.908 3.51-3.384zm-25.99 31.183v-4.678L53.41 59.893l9.615-2.728c.086-.258.866-1.6 2.34-4.03zm-4.81 44.224H54.84v-8.748h1.427v7.278h4.29v1.47zm7.018 0h-5.977v-8.748h5.977v1.3h-4.548v2.34h4.16v1.04h-4.16v2.598h4.548v1.47zm7.538-8.748l-2.98 8.748h-1.56l-2.855-8.748h1.56l2.077 6.758h.13l2.08-6.758h1.56zm2.08 8.748h-1.43v-8.748h1.43v8.748zm8.06-2.613c0 1.743-1.12 2.613-3.372 2.613-2.34 0-3.51-1.008-3.51-3.028h1.43c0 1.212.69 1.818 2.08 1.818 1.21 0 1.82-.432 1.82-1.3 0-.518-.217-.907-.65-1.17-1.822-.43-2.773-.647-2.86-.647-1.04-.434-1.56-1.17-1.56-2.21 0-1.645.996-2.468 2.99-2.468 2.166 0 3.25.91 3.25 2.73h-1.43c0-1.04-.61-1.56-1.82-1.56-1.04 0-1.56.392-1.56 1.174 0 .61.865 1.13 2.597 1.56 1.73.432 2.6 1.26 2.6 2.48zm41.85-78.125c0-1.212-.585-2.188-1.754-2.925-1.17-.735-2.447-1.104-3.834-1.104-2.512 0-5.196 1.994-8.054 5.977h-.26c-1.646 2.166-3.985 5.415-7.017 9.747-2.34 4.16-6.022 10.352-11.046 18.58-.605 1.216-1.126 1.82-1.56 1.82-1.56 0-2.382-1.73-2.468-5.196.085 2.69.127.44.127-6.75 0-2.595-1.17-3.895-3.51-3.895-3.64 0-5.456 2.686-5.456 8.057 0 .52.476 1.906 1.43 4.158 1.04 2.687 1.603 4.247 1.69 4.68l2.34 10.913c1.47 5.027 3.46 7.54 5.977 7.54 2.165 0 3.985-2.426 5.46-7.278 1.037-3.376 2.077-6.756 3.117-10.134 1.734-3.03 4.334-7.144 7.8-12.344 4.072-6.235 6.844-9.92 8.32-11.044 3.636-2.857 5.63-4.506 5.976-4.94 1.818-1.817 2.73-3.766 2.73-5.846zM87.72 97.36h-1.56v-8.748h1.56v8.748zm9.223-4.568c0 3.046-1.29 4.568-3.89 4.568-2.684 0-4.03-1.522-4.03-4.568 0-2.957 1.346-4.437 4.03-4.437 2.6 0 3.9 1.48 3.9 4.437zm-1.42-.02c0-2.166-.823-3.248-2.47-3.248-1.82 0-2.73 1.082-2.73 3.248 0 2.252.91 3.378 2.73 3.378 1.646 0 2.47-1.126 2.47-3.378zM105 97.36h-1.69l-3.898-6.536v6.536h-1.3v-8.748h1.56l3.767 6.24v-6.24H105v8.748zm7.407-79.208V5.57l-6.368-3.114v24.3c.86-1.04 2.98-3.91 6.36-8.604zm0 61.625V36.634L106.04 46.77v37.945l6.367-4.938zm4.547 12.085c0 1.387-.52 2.535-1.56 3.443-1.04.912-2.254 1.365-3.637 1.365-3.035 0-4.55-1.603-4.55-4.808 0-3.378 1.515-5.067 4.55-5.067 1.47 0 2.705.477 3.7 1.428 1 .955 1.497 2.167 1.497 3.64zm-.91 0c0-2.86-1.342-4.287-4.028-4.287-2.6 0-3.898 1.428-3.898 4.287 0 2.685 1.3 4.028 3.898 4.028 2.686 0 4.03-1.343 4.03-4.028zm-1.82 2.73h-.907l-1.3-2.34h-.91v2.34h-.78v-5.46h2.08c1.298 0 1.95.52 1.95 1.56s-.478 1.56-1.43 1.56l1.298 2.34zm-.78-4.03c0-.433-.302-.65-.907-.65h-1.43v1.56h1.17c.777 0 1.168-.302 1.168-.91z" fill-rule="nonzero"/></svg>