<svg viewBox="0 0 128 98" xmlns="http://www.w3.org/2000/svg" fill-rule="evenodd" clip-rule="evenodd" stroke-linejoin="round" stroke-miterlimit="1.414"><path d="M98.78 94.095l3.553 3.552 24.325-24.326-9.033-9.03L98.08 83.83l-9.23-9.23-4.818 4.818 14.715 14.716.036-.037zm-69.563-.322l-3.55 3.55L1.34 73l9.034-9.033L29.918 83.51l9.233-9.235 4.82 4.818L29.256 93.81l-.037-.037zM71.903 67.74a6.614 6.614 0 1 0 0-13.227 6.614 6.614 0 0 0 0 13.227zm-15.163 0a6.614 6.614 0 1 0 0-13.227 6.614 6.614 0 0 0 0 13.227zm7.42-12.26a6.614 6.614 0 1 0 0-13.227 6.614 6.614 0 0 0 0 13.227zm-17.834 6.83l-2.564 2.564-.13-.13-13.52 13.523L0 48.154l13.567-13.567L30.24 51.26l33.982-33.98L77.79 30.846l-.012.01 20.19 20.192 16.464-16.463L128 48.155l-30.114 30.11L84.32 64.7l.08-.084-2.64-2.64c.36-1.435.55-2.937.55-4.483 0-10.127-8.197-18.335-18.31-18.335-10.114 0-18.313 8.208-18.313 18.335 0 1.667.223 3.282.64 4.817zm-.638-33.45L30.22 44.326l-14.43-14.43L45.69 0v28.86zm36.622 0l15.468 15.467 14.43-14.43L82.31 0v28.86z"/></svg>