<svg viewBox="0 0 128 36" xmlns="http://www.w3.org/2000/svg" fill-rule="evenodd" clip-rule="evenodd" stroke-linejoin="round" stroke-miterlimit="1.414"><path d="M128 35.125l-8.75-29.14-.336-.673C117.3 2.015 114.607.4 110.906.4c-2.02 0-3.835.47-5.45 1.48-1.683 1.01-2.76 2.49-3.366 4.375l-8.95 28.803 8.142.067 8.21-25.64c.203-.807.674-1.21 1.28-1.21.336 0 .605.133.807.335.2.27.33.538.4.875l8.28 25.64H128zM26.246 36c-2.355 0-4.307-.47-5.855-1.28-1.88-.94-3.09-2.42-3.63-4.373L11.11 10.63l-.41-1.28c-.134-.47-.403-.807-.74-1.144-.336-.27-.74-.336-1.144-.27-.404.068-.673.27-.942.674a2.32 2.32 0 0 0-.336 1.212v25.236H0V9.014C0 5.65.807 3.294 2.557 1.88 3.903.87 5.922.333 8.75.333c2.287 0 4.238.672 5.99 1.95 1.748 1.28 2.892 3.03 3.497 5.183L23.15 24.76l.808 2.357c.067.47.336.807.605 1.077.337.27.673.403 1.077.27.673-.07 1.01-.473 1.01-1.078V1.14h7.74v25.91c0 2.893-.674 5.047-2.087 6.594C30.978 35.17 29 35.974 26.373 36h-.127zm34.187-.875l-8.277-25.64a2.095 2.095 0 0 0-.404-.875 1.113 1.113 0 0 0-.808-.336c-.605 0-1.077.404-1.278 1.21l-8.21 25.64-8.144-.066 8.95-28.803C42.87 4.37 43.946 2.89 45.63 1.88 47.243.87 49.06.4 51.078.4c3.702 0 6.394 1.615 8.01 4.912l.336.673 6.662 21.4.27.472H84.12c.875 0 1.548-.337 2.153-.942.54-.673.875-1.48.875-2.356 0-.74-.202-1.42-.672-1.96-.405-.54-.943-.74-1.616-.74H73.758c-2.624 0-4.778-1.15-6.595-3.37-1.616-2.02-2.423-4.51-2.423-7.337 0-2.893.807-5.316 2.423-7.133 1.817-1.952 4.374-2.96 7.672-2.96h18.372v7.2H75.17c-.806 0-1.48.404-2.017 1.076-.472.67-.74 1.48-.74 2.42 0 .81.268 1.48.74 2.086.47.537 1.076.873 1.816.873h9.62c2.82 0 10.16 4.04 10.16 9.76 0 2.824-.88 5.314-2.56 7.4-1.75 2.153-3.91 3.23-6.53 3.23H60.43z"/></svg>