<svg viewBox="0 0 128 30" xmlns="http://www.w3.org/2000/svg" fill-rule="evenodd" clip-rule="evenodd" stroke-linejoin="round" stroke-miterlimit="1.414"><path d="M90.8 7.14c-.148-5.256 0-6.957 0-6.957-2.296 1.85-1.138 1.614-6.886.666-16.568-2.74-17.83 12.73-8.814 16.2 7.568 2.91 10.25 3.48 9.108 6.21-.37.89-7.257 4.14-14.366-2.44L69.99 30c.887-.915 3.333-2.59 3.333-2.59.073 0 7.706 3.364 14.588-.148 10.6-5.4 5.31-14.14-5.99-17.608-9.41-2.886-.52-9.62 8.81-2.442l.08-.073zm-50.38 5.69c1.066-3.702 1.977-7.012 2.41-9.17.073-.37-.815-1.7-2.222-3.033l-.1-.207c6.785.022 13.874.06 13.874.06 1.852 4.512 6.073 17.163 9.258 24.932.842 2.053 2.296 2.44 2.296 2.44-5.777-.072-16.497-.023-16.44-.072 2.887-2.59 2.517-2.59 1.258-6.363H41.72c-1.852 4.29.576 6.304.887 6.288-2.056.106-9.035 0-9.035 0 3.778-2.664 3.555-3.477 3.555-3.477 1.037-3.692 2.24-7.736 3.292-11.397l-.01.01zm0 0l3.706.002-1.593 5.106h7.186l-4.01-10.21-1.6 5.104h-3.7zm62.065.373c1.065-3.703 1.978-7.015 2.41-9.174.072-.37-.816-1.7-2.223-3.04l-.1-.21c6.788.02 13.878.06 13.878.06 1.85 4.51 6.07 17.16 9.255 24.93.84 2.052 2.295 2.44 2.295 2.44-5.774-.075-16.495-.024-16.44-.075 2.89-2.59 2.52-2.59 1.26-6.364h-9.036c-1.852 4.29.575 6.305.887 6.29-2.05.106-9.03 0-9.03 0 3.78-2.663 3.56-3.477 3.56-3.477 1.04-3.695 2.24-7.738 3.3-11.4h3.707c-.8 2.555-1.59 5.108-1.59 5.108h7.18l-4-10.21s-.792 2.55-1.59 5.103H102.5zM9.102 27.473c-.46-.003-2.354.007-9.102.083 3.333-1.775 2.89-3.994 2.888-4.068-.12-8.177-.024-15.168-.024-19.68 0-.74-.05-.67-2.346-3.48L.685.206c12.708.1 11.46-.025 11.61.124.222 0 10.146 17.09 10.146 17.238 0 .073-.07-6.074-.07-13.76 0-.89-2.44-3.48-2.37-3.48 3.63 0 8.37.075 8.37.075-1.77 2.072-2.13 1.902-2.14 3.182a909.35 909.35 0 0 0 0 20.272c.018 1.282.967 1.776 2.52 3.996H17.11A2056.333 2056.333 0 0 1 6.45 9.803L6.443 9.8l.002.003c.048.174-.15 7.446.07 13.315.075 1.952.96 2.586 2.586 4.356.29 0 .01.01.01.01l-.01-.01z"/></svg>