<svg viewBox="0 0 128 41" xmlns="http://www.w3.org/2000/svg" fill-rule="evenodd" clip-rule="evenodd" stroke-linejoin="round" stroke-miterlimit="1.414"><path d="M21.753 37.41v3.592h19.134V37.85h-10.12c6.12-3.47 10.21-10.03 10.21-17.554C40.977 9.15 31.92.118 20.75.118S.527 9.148.527 20.296c0 7.5 4.112 14.046 10.205 17.524L.004 37.793v3.21H19.24l-.002-3.604c-8.76-.79-15.64-8.13-15.64-17.08 0-9.47 7.692-17.148 17.18-17.148 9.492 0 17.186 7.677 17.186 17.145 0 9.13-7.2 16.56-16.21 17.09zm82.732-24.11v14.176h14.48v-5.848h9.04v-2.683h-9.04V16.27h9.04V13.3h-23.52zm-59.168 0h23.526v2.97h-9.12v2.655h9.12v2.703h-9.12v2.932h9.12v2.916H45.317V13.3zm30.664 0v14.176h14.45v-5.848h9.12v-2.703h-9.12V16.27h9.12V13.3H75.98zm-69.04 0v14.176h3.03V17.69l5.71 9.786h19.09V13.3H31.8v9.815L25.676 13.3H6.94z"/></svg>