<svg viewBox="0 0 128 35" xmlns="http://www.w3.org/2000/svg" fill-rule="evenodd" clip-rule="evenodd" stroke-linejoin="round" stroke-miterlimit="1.414"><path d="M67.058 13.83c2.17 0 3.945.79 4.536 2.17.198.592.79.79 1.578.79h3.156c.394 0 .986-.395.986-1.183 0-3.55-4.142-6.707-10.256-6.707-6.31 0-10.454 2.96-10.454 7.692 0 3.748 2.96 5.917 6.51 6.903 1.577.395 4.338.986 5.72 1.38 1.38.395 2.563.79 2.563 1.973 0 1.973-1.972 2.762-4.14 2.762-2.172 0-4.34-.987-4.932-2.565-.396-.79-.987-.986-1.972-.986h-3.157c-.592 0-1.183.39-1.183 1.18v.39c0 3.55 4.734 7.1 11.243 7.1 4.536 0 10.847-1.777 10.847-7.89 0-3.55-2.367-6.115-6.31-7.1-1.383-.395-5.13-1.38-5.92-1.58-1.38-.197-2.76-.79-2.76-1.972 0-1.776 1.776-2.367 3.945-2.367zm21.695 20.512c-4.93 0-7.89-3.747-7.89-7.888V14.422h-1.577c-.59 0-1.183-.59-1.183-1.38v-1.97c0-.792.592-1.383 1.183-1.383h1.578v-7.3c0-1.19.79-1.98 1.775-1.98h2.76c1.18 0 1.97.985 1.97 1.97v7.3h4.34c.79 0 1.38.59 1.38 1.38v1.973c0 .79-.59 1.38-1.38 1.38h-4.34V25.46c0 2.367 1.38 3.748 3.75 3.748h.39c.79 0 1.38.59 1.38 1.576v2.17c0 .79-.59 1.38-1.38 1.38h-2.76zm12.425-31.95c0-.986-.79-1.973-1.973-1.973h-2.76c-1.183 0-1.973.98-1.973 1.97v29.98c0 1.18.79 1.97 1.973 1.97h2.76c1.184 0 1.973-.79 1.973-1.97V2.39zm-58.38 32.345c-7.69 0-12.622-6.114-12.622-13.017 0-6.693 4.518-12.797 12.38-12.82h.045c8.68 0 12.43 6.31 12.43 12.82 0 1.38-.59 2.17-1.97 2.17H36.887c.196 2.76 2.563 5.325 5.916 5.325 2.164 0 3.74-.79 4.93-2.367.39-.394.79-.79 1.574-.79h3.747c.79 0 1.184.79 1.184 1.382-.982 4.518-6.27 7.275-11.38 7.297h-.06zm72.975 0c-7.692 0-12.622-6.114-12.622-13.017 0-6.693 4.52-12.797 12.38-12.82h.05c8.68 0 12.43 6.31 12.43 12.82 0 1.38-.59 2.17-2.17 2.17h-15.98c.197 2.76 2.563 5.325 5.718 5.325 2.367 0 3.945-.79 5.13-2.367.197-.394.788-.79 1.577-.79h3.747c.79 0 1.19.79 1.19 1.382-.982 4.518-6.27 7.275-11.38 7.297h-.06zM75.34.814H23.47c-1.183 0-1.972.986-1.972 2.17l.197 20.314S10.455 3.18 9.86 1.998C9.27 1.208 8.088.222 6.51.222H2.17C.987.222 0 1.208 0 2.392v29.78c0 1.185.987 2.17 2.17 2.17h2.762c1.182 0 2.17-.985 2.17-2.17l-.2-20.905S18.147 31.58 18.738 32.37c.592 1.184 1.776 1.972 3.353 1.972h3.95c1.187 0 1.97-.985 1.97-2.17V5.942h47.33c.79 0 1.58-.79 1.58-1.577v-2.17c0-.788-.79-1.38-1.58-1.38zm34.517 18.145h11.438c-.196-2.76-2.74-4.92-5.685-4.93h-.035c-2.946 0-5.306 2.15-5.713 4.89l-.005.03zm-72.778 0h11.44c-.4-2.76-2.94-4.92-5.89-4.93h-.03c-2.75 0-5.308 2.15-5.52 4.89v.03zm67.84-15.78v1.38c0 .59.39 1.18.982 1.18h19.722c.985 0 1.774-.79 1.774-1.778v-2.36c0-.79-.79-1.776-1.776-1.58 0 0-19.13 1.776-19.72 1.973-.59 0-.988.593-.988 1.184z"/></svg>