<svg viewBox="0 0 128 65" xmlns="http://www.w3.org/2000/svg" fill-rule="evenodd" clip-rule="evenodd" stroke-linejoin="round" stroke-miterlimit="1.414"><path d="M0 1h128v64H0V1zm126.468 1.48v60.988H65.652V2.416l60.816.064zm-12.676 51.776v-1.82h-.748v-.372h2.004v.372h-.748v1.82h-.508zm1.576 0v-2.192h.76l.456 1.496.452-1.496h.764v2.192h-.472v-1.724l-.5 1.724h-.492l-.496-1.724v1.724h-.472zm-104.54-5.364s0 4.368 4.648 2.48l18.984-7.28s1.672-.28 2.232.712c0 0 .4 2.104 2.88 1.984 0 0 1.612.276 4.864-2.044l12.82-7.372s.092-.188-.216-.56l-5.976-9.228s-.96-1.796-3.472-2.044l-14.06-2.356s-1.116-3.004-5.42-4.18L8.94 14.268s-2.572-.032-2.384 2.54l4.272 32.084zm66.52-8.088h8.292v2.808h-8.224v3.96h8.968v2.808H77.08s-2.808-.172-2.808-2.98V36.708s.372-2.468 2.976-2.604h9.136v2.808h-9.068l.032 3.892zm26.936 9.572h3.3V37.092l.144-.376h6.684l.288.232v3.764h-5.296l-1.36 2.632h6.656v7h3.384V36.832s-.376-2.72-3.788-2.804h-7.32s-2.46.316-2.692 3.068v13.28zm-15.884 0h3.24v-13.34l.26-.376h6.856l.404.348v3.5l-.404.32h-5.468l-1.184 2.604h3.932l3.444 6.944h3.644l-3.672-6.916s2.516-.404 2.748-2.692v-4.396s-.608-2.028-2.576-2.288H91.06s-2.428.348-2.576 2.836L88.4 50.376zM16.496 39.724l1.176 5.576 17.376-5.14s1.892-.404 3.128-.404c0 0 .496-.124 1.148.868 0 0 .744 1.64 3.068 1.392 0 0 5.636-1.548 12.172-5.172 0 0 .492-.124.184-.68l-.928-1.424-14.744 4.304s-.62.372-.868-.68c0 0-.308-2.82-7.432-1.24l-14.28 2.6zm23.848-7.744l11.276-.648 1.056 1.612L41.8 35.08l-1.456-3.1zm51.22-9.576h8.292v2.808h-8.224v3.956h8.968v2.812h-9.308s-2.808-.172-2.808-2.98V18.308s.372-2.468 2.98-2.604h9.136v2.808h-9.068l.032 3.892zm10.728-6.736h3.248v13.636h3.076v-13.5h3.112v13.432h3.012V15.668h3.248v13.3s.172 2.772-2.94 3.008h-9.712s-2.756.356-3.028-2.992l-.016-13.316zM38.828 28.852l-1.364-2.756 11.12 1.208s.528-.152 1.736 1.768l-11.492-.22zm35.412 3.16h3.18v-9.744l6.26 9.372s.172.608 1.864.408c0 0 1.148-.204 1.148-1.388V15.772h-3.08v9.912l-6.496-9.744s-2.196-.948-2.84.644l-.036 15.428zm-58.3 4.708l7.68-1.084-3.624-12.328 5.42.744s1.612.156 2.572 2.756l2.88 7.836s5.296-.496 5.976.496l-5.2-11.552s-1.116-1.86-4.088-2.416l-6.136-1.268s-1.516-.22-1.732 1.456c0 0-.248.276-.344-.096l-.308-1.764-6.876-1.548 3.78 18.768z"/></svg>