<svg viewBox="0 0 128 60" xmlns="http://www.w3.org/2000/svg" fill-rule="evenodd" clip-rule="evenodd" stroke-linejoin="round" stroke-miterlimit="1.414"><path d="M96.832 47.048c-1.208 0-2.136.424-3.152 1.472v-1.184h-2.72v12.368h2.936V53.88c0-1.584.136-4.112 2.296-4.112 2.032 0 2.256 2.368 2.256 3.888v6.048h2.936v-6.632c0-1.744-.136-2.568-.6-3.552-.68-1.472-2.296-2.472-3.952-2.472zm-90.96 0c-1.216 0-2.144.424-3.16 1.472v-1.184H0v12.368h2.936V53.88c0-1.584.136-4.112 2.296-4.112 2.032 0 2.248 2.368 2.248 3.888v6.048h2.936v-6.632c0-1.744-.128-2.568-.592-3.552-.688-1.472-2.296-2.472-3.952-2.472zm66.552 12.648h2.936V43.192h-2.936v16.504zm-48.312-6.328c0-3.44-2.824-6.32-6.224-6.32-3.488 0-6.336 2.92-6.336 6.52 0 3.568 2.832 6.432 6.36 6.432 2.584 0 5.032-1.792 5.76-4.224h-3.224c-.64 1.032-1.48 1.496-2.624 1.496-1.456 0-2.76-1-3.176-2.432h9.312c.112-.696.152-1.032.152-1.472zm103.888 0c0-3.44-2.824-6.32-6.224-6.32-3.488 0-6.336 2.92-6.336 6.52 0 3.568 2.824 6.432 6.36 6.432 2.584 0 5.032-1.792 5.76-4.224h-3.224c-.64 1.032-1.48 1.496-2.624 1.496-1.456 0-2.76-1-3.184-2.432h9.32c.112-.696.152-1.032.152-1.472zm-19.288-3.6c1.344 0 2.12.448 2.848 1.696h3.312c-.904-2.656-3.224-4.416-6.048-4.416-3.576 0-6.448 2.88-6.448 6.432 0 3.568 2.888 6.52 6.448 6.52 1.808 0 3.592-.808 4.808-2.168.616-.696.84-1.096 1.24-2.192h-3.312c-.688 1.072-1.568 1.632-2.672 1.632-2.056 0-3.576-1.608-3.576-3.752 0-2.168 1.456-3.752 3.4-3.752zm-44.48 7.456c-2.04 0-3.704-1.672-3.704-3.744s1.664-3.744 3.704-3.744c2.048 0 3.704 1.672 3.704 3.744s-1.656 3.744-3.704 3.744zm18.632 0c-2.048 0-3.704-1.672-3.704-3.744s1.656-3.744 3.704-3.744c2.04 0 3.704 1.672 3.704 3.744s-1.664 3.744-3.704 3.744zm-32.208 0c-2.048 0-3.704-1.672-3.704-3.744s1.656-3.744 3.704-3.744c2.04 0 3.696 1.672 3.696 3.744s-1.656 3.744-3.696 3.744zm-15.32-2.336l-2.08-7.552h-2.36l-2.104 7.552-2.488-7.552H23.72l4.08 12.368h1.88l2.384-8.016 2.32 8.016h1.976l3.912-12.368h-2.424l-2.512 7.552zM14.56 52.504c.416-1.672 1.744-2.744 3.376-2.744s2.912 1.048 3.312 2.744H14.56zm103.88 0c.424-1.672 1.744-2.744 3.376-2.744 1.64 0 2.92 1.048 3.312 2.744h-6.688zM67.52 47.64v1.008c-.928-1.008-2.264-1.584-3.704-1.584-3.176 0-5.888 2.752-5.888 6.32 0 3.376 2.4 6.4 5.952 6.4 1.568 0 2.76-.368 3.888-1.664v1.584h2.688V47.64H67.52zm18.632 0v1.008c-.928-1.008-2.272-1.584-3.704-1.584-3.176 0-5.888 2.752-5.888 6.32 0 3.376 2.4 6.4 5.952 6.4 1.568 0 2.76-.368 3.88-1.664v1.584h2.696V47.64h-2.936zm-35.088-.584c-1.432 0-2.776.576-3.704 1.576v-5.44h-2.936v16.504h2.696v-1.584c1.128 1.296 2.32 1.664 3.888 1.664 3.552 0 5.952-3.024 5.952-6.4 0-3.568-2.712-6.32-5.896-6.32zm-5.072-6.992L31.28 40.6h14.416l.296-.536zM95.864.152H74.656l-.6 1.072 10.616.576c.12 0 .12.176-.056.176l-11.176.376-1.08 1.912 10.544.624c.136.024.104.216-.024.216l-11.192.376-1.048 1.824 10.528.592c.232.016.232.216 0 .216l-11.176.4-1.064 1.912 10.488.608c.232.016.208.232 0 .232l-11.176.4-1.08 1.888 10.504.592c.16.016.176.216-.032.216l-32.208 1.088 30.56 1.72c.192 0 .176.248-.032.248l-32.264 1.168 30.56 1.712c.144 0 .176.232-.032.232l-32.312 1.184 30.56 1.72c.128.016.248.248-.016.264l-32.264 1.168 30.568 1.72c.088.016.176.248-.04.248l-16.232.584.048 1.48L69 29.712c.104.016.16.232-.04.232l-14.376.52.072 1.656 12.552.704c.128.016.184.272-.032.272l-12.456.44.056 1.816 10.704.608c.12.016.16.248-.056.248l-10.592.384.072 2 8.84.496c.128.016.128.232-.056.232l-8.752.32.032.864H83.52c7.568 0 14.36-5.584 15.632-10.024 1.28-4.44 1.28-8.448-4.808-10.448 3.4-.792 9.304-4.664 10.472-10.024 1.064-4.864-.712-9.84-8.952-9.856zM47.768 36.928l-14.752.528 13.992.784.76-1.312zm1.728-3.144l-14.736.528 14.008.784.728-1.312zm1.76-3.152l-14.752.528 14.024.792.728-1.32zm30.248.6h-8.768l4.952-8.88h6.504c6.728 0 3.472 8.88-2.688 8.88zm-28.488-3.728l-14.72.528 13.976.784.744-1.312zm39.84-15.312c-.28 1.072-2.4 3.792-5.088 3.792h-6.512l4.176-7.448h3.328c4.24.144 4.384 2.576 4.096 3.656zm-27.048-.48l-18.784.672 18.832 1.064-.048-1.736zm-.128-3.104L48.808 9.2l16.928.984-.056-1.576zm-.112-3l-15.04.504 15.104.848-.064-1.352zm-.104-3.072l-13.176.448 13.224.784-.048-1.232zM65.376.048H53.92l11.472.616-.016-.616z"/></svg>