<svg viewBox="0 0 128 67" xmlns="http://www.w3.org/2000/svg" fill-rule="evenodd" clip-rule="evenodd" stroke-linejoin="round" stroke-miterlimit="1.414"><path d="M103.72 1.576h.197c.132 0 .225-.02.28-.064.054-.044.08-.1.08-.167 0-.068-.025-.123-.076-.166-.05-.05-.14-.07-.26-.07h-.212v.46zm-.455-.78h.818c.232 0 .4.047.504.14.104.095.156.22.156.377 0 .124-.04.23-.12.32-.078.09-.203.156-.373.196.07.02.12.05.155.08.046.04.095.1.145.18l.298.53h-.54c-.176-.35-.294-.557-.353-.625-.06-.068-.12-.1-.18-.1-.014 0-.032 0-.056.005v.72h-.46V.796zm2.157.917c0-.382-.135-.708-.404-.978-.27-.27-.595-.405-.977-.405-.38 0-.7.136-.97.405-.27.27-.4.596-.4.978 0 .38.136.707.405.977.27.27.596.405.976.405.383 0 .708-.135.978-.405s.405-.596.405-.977zm.333 0c0 .307-.076.592-.23.857-.152.265-.36.474-.625.627-.265.152-.55.228-.858.228-.305 0-.59-.076-.854-.228-.265-.153-.474-.362-.627-.627-.15-.265-.23-.55-.23-.857 0-.305.08-.59.23-.856.16-.266.37-.475.63-.628.27-.16.55-.23.86-.23.308 0 .594.07.86.23.264.15.473.36.626.62.153.263.23.55.23.854zM21.23 42.56h.2c.132 0 .225-.02.28-.065.053-.042.08-.098.08-.165 0-.07-.026-.124-.077-.166-.053-.044-.14-.065-.265-.065h-.217v.46zm-.452-.78h.818c.232 0 .4.047.504.14.103.095.155.22.155.378 0 .122-.04.23-.118.32-.08.09-.205.154-.375.195.07.027.122.056.156.085.045.042.095.105.145.186l.298.53h-.54c-.17-.347-.29-.557-.35-.624-.06-.068-.12-.103-.18-.103-.01 0-.03 0-.05.007v.72h-.452V41.78zm2.157.917c0-.382-.136-.707-.405-.977-.27-.27-.595-.405-.976-.405-.38 0-.706.134-.976.405-.27.27-.404.595-.404.977 0 .38.134.708.404.978s.595.405.976.405c.38 0 .706-.136.976-.405.27-.27.405-.597.405-.978zm.333 0c0 .307-.076.592-.23.857-.152.265-.362.474-.627.627-.26.16-.55.23-.85.23-.3 0-.59-.07-.85-.23-.264-.15-.474-.36-.627-.62-.152-.262-.23-.55-.23-.854 0-.306.078-.59.23-.856.153-.266.363-.475.628-.627.266-.152.55-.23.856-.23.306 0 .59.078.856.23.266.153.476.36.63.628.15.268.228.55.228.86zm-6.016-7.995h8.002l5.76-15.125-.64 15.125h8.483L51.82.012H43.9l-5.923 15.325.96-15.325h-8.562l-13.123 34.69zM53.102.012l-12.885 34.69h8.002L61.18.012H53.1zm18.963 32.29L83.67.93 71.344 14.056l.72 18.245zM16.07 23.057s-3.3 6.242-3.3 11.644c0 0-.3 12.73 12.844 12.73h1.8s2.64.84 48.132-12.72H64.024l-.6-14.285-5.402 14.28H49.74L62.824.015h7.922l-3.6 9.962 8.52-9.963h24.968l-2.162 5.762H89.95l-2.64 7.322h7.922l-2.52 6.48H84.91L81.79 28.1h9.362l-.72 2.52S124.4 21.858 128 20.898c0 0-96.81 45.878-112.655 45.878 0 0-15.298.093-15.298-12.39 0 0-1.74-11.642 16.024-31.328z" fill-rule="nonzero"/></svg>