<svg viewBox="0 0 128 31" xmlns="http://www.w3.org/2000/svg" fill-rule="evenodd" clip-rule="evenodd" stroke-linejoin="round" stroke-miterlimit="1.414"><path d="M124.184 3.81c-2.46-2.457-5.73-3.81-9.21-3.81H13.024C5.844 0 0 5.834 0 13.005v4.378c0 3.474 1.354 6.74 3.815 9.196 2.46 2.45 5.73 3.8 9.21 3.8h101.95c3.48 0 6.75-1.354 9.21-3.81 2.46-2.457 3.815-5.72 3.815-9.196V13c0-3.474-1.355-6.74-3.816-9.196zm2.313 13.576c0 6.248-5.1 11.33-11.368 11.33H12.87c-3.037 0-5.89-1.18-8.04-3.318-2.145-2.14-3.328-4.986-3.328-8.012v-4.384c0-3.027 1.183-5.872 3.33-8.01 2.147-2.142 5-3.32 8.04-3.32H115.13c3.035 0 5.89 1.178 8.037 3.32 2.147 2.138 3.33 4.983 3.33 8.01v4.384zm-27.48-10.49v5.358c-1.13-.81-2.617-1.127-3.254-1.057-.987.11-5.094-.14-5.094 5.146 0 4.864 2.54 5.428 5.09 5.428 1.2 0 2.26-.42 3.25-1.05v.707h3.96V6.897h-3.96zm12.638 4.06c-3.643 0-6.596 2.41-6.596 5.38 0 2.972 2.95 5.38 6.59 5.38s6.59-2.408 6.59-5.38c0-2.97-2.952-5.38-6.595-5.38zm-57.79 10.46v-9.87h-2.902V10.42h2.902V9.08h3.963v1.34h2.903v1.126h-2.9v9.87h-3.96zm21.763-9.87v9.865h3.96v-5.99c0-3.52 4.95-3.45 4.95.15v5.85H88.5v-7.19c0-1.69-1.98-3.31-4.102-3.31-1.627 0-4.173.916-4.81 1.62v-.986h-3.96zm-41.565 9.858V11.55h-3.947v9.854h3.947zm3.366-9.847v9.84h3.93v-5.974c0-3.515 4.92-3.444 4.92.14V21.4h3.94v-7.17c0-1.687-1.97-3.304-4.08-3.304-1.617 0-4.15.914-4.78 1.617v-.983h-3.93zm76.19 7.172c0 1.08-.885 1.96-1.97 1.96-1.09 0-1.97-.88-1.97-1.97v-4.64c0-1.09.88-1.97 1.97-1.97 1.09 0 1.97.88 1.97 1.97v4.642zm-40.11-2.29v-.11c0-2.968-2.94-5.37-6.57-5.37-3.626 0-6.566 2.402-6.566 5.37s2.94 5.37 6.57 5.37c2.95 0 5.45-1.59 6.275-3.78l-4.306-.01v.81c0 1.087-.88 1.97-1.97 1.97s-1.97-.883-1.97-1.97v-2.28h8.536zm25.5 2.78c-2.62 2.324-3.966.14-3.966-1.55v-2.54c0-2.68 2.902-2.89 3.964-1.27v5.357zm-76.186-3.27V6.9h3.96v14.516h-3.57l-6.61-9.935c-.53-.74-1.096-.38-1.13.29v9.655h-3.96V6.9h4.313l6.256 9.478c.247.352.707.282.742-.423zm42.15-1.87c0-1.087.882-1.968 1.97-1.968 1.087 0 1.97.88 1.97 1.967v.88h-3.94v-.88zm53.485-6.506c-.92 0-1.66.727-1.66 1.62 0 .91.74 1.634 1.66 1.634.916 0 1.655-.726 1.655-1.633 0-.894-.74-1.62-1.653-1.62zm0 3.004c-.77 0-1.37-.617-1.37-1.383 0-.753.6-1.37 1.37-1.37.77 0 1.366.617 1.366 1.37 0 .766-.595 1.383-1.366 1.383zm.675-.635c-.16-.245-.32-.485-.47-.74.26-.054.43-.22.43-.48 0-.272-.19-.43-.525-.43h-.71v1.817c.065-.004.127-.013.19-.013s.122.01.184.013v-.85h.085l.495.853c.07-.004.14-.013.21-.013.073 0 .144.01.215.016l-.103-.167zm-85.08-.22v-2.81h-3.94V9.73h3.944zm84.18-.548v-.71h.148c.153 0 .305.015.305.332 0 .275-.144.403-.45.38z"/></svg>