<svg viewBox="0 0 128 46" xmlns="http://www.w3.org/2000/svg" fill-rule="evenodd" clip-rule="evenodd" stroke-linejoin="round" stroke-miterlimit="1.414"><path d="M109.005 32.256c.63-1.225 1.618-1.8 2.747-1.8 2.767 0 3.242 2.966 3.242 5.697 0 3.243-1.187 5.83-4.43 5.83-.354 0-.948-.037-1.247-.116v3.243h-1.64V30.615h.93l.398 1.64zm-98.346 9.79c-3.21 0-3.74-3.264-3.74-6.014 0-2.61.81-5.575 3.78-5.575 2.94 0 3.69 2.947 3.69 5.535 0 2.73-.536 6.053-3.74 6.053zm91.44 0c-3.21 0-3.74-3.264-3.74-6.014 0-2.61.81-5.575 3.78-5.575 2.94 0 3.69 2.947 3.69 5.535 0 2.73-.53 6.053-3.74 6.053zm-44.34-.16h-1.64V31.84h-1.15v-1.225h2.79v11.27zm-31.21-9.59c.553-1.166 1.443-1.84 2.69-1.84 2.175 0 2.826 1.544 2.826 3.558v7.872h-1.64v-7.218c0-.91-.04-1.58-.238-2.096-.198-.515-.575-.89-1.286-.89-1.62 0-2.037 1.94-2.037 3.086v7.118h-1.64v-11.27h.93l.397 1.68zm-8.998 0c.554-1.166 1.444-1.84 2.69-1.84 2.174 0 2.827 1.544 2.827 3.558v7.872h-1.64v-7.218c0-.91-.04-1.58-.24-2.096-.197-.515-.57-.89-1.283-.89-1.62 0-2.038 1.94-2.038 3.086v7.118h-1.64v-11.27h.927l.398 1.68zm43.784 0c.552-1.166 1.442-1.84 2.687-1.84 2.175 0 2.83 1.544 2.83 3.558v7.872h-1.64v-7.218c0-.91-.04-1.58-.238-2.096-.2-.515-.576-.89-1.288-.89-1.62 0-2.037 1.94-2.037 3.086v7.118h-1.64v-11.27h.93l.397 1.68zM83.92 27.45c1.68 0 2.254.12 2.808.337 1.46.553 2.138 1.9 2.138 4.074 0 1.57-.414 2.85-1.183 3.64-.654.68-1.584 1.07-2.908 1.07H83.37v5.32h-1.64V27.45h2.195zm34.548 14.436h-1.64V26.56h1.64v15.326zm8.547-.276c-.873.276-1.78.435-2.713.435-3.402 0-3.993-2.928-3.993-5.794 0-2.49.69-5.77 3.72-5.77 3.34 0 3.36 3.76 3.36 6.19h-5.42c0 1.8.28 4.158 2.492 4.158.775 0 1.563-.16 2.554-.434v1.225zm-30.457 0c-.87.276-1.78.435-2.71.435-3.4 0-3.996-2.928-3.996-5.794 0-2.49.692-5.77 3.716-5.77 3.343 0 3.366 3.76 3.366 6.19h-5.42c0 1.8.276 4.158 2.49 4.158.77 0 1.562-.16 2.552-.434v1.225zm-48.37.138c-.477.12-1.188.297-2.078.297-2.928 0-3.758-2.867-3.758-5.794 0-3.42 1.185-5.79 3.953-5.79.635 0 1.208.06 1.623.14v1.27c-.492-.12-.89-.18-1.482-.18-1.958 0-2.413 1.98-2.413 4.628 0 2.216.296 4.51 2.392 4.51.632 0 1.304-.16 1.76-.276v1.205zm-37.51-10.066c-1.84 0-2.077 2.592-2.077 4.333 0 2.056.18 4.804 2.08 4.804 1.86 0 2.04-2.83 2.04-4.77 0-1.72-.258-4.37-2.04-4.37zM40.56 41.61c-.87.276-1.78.435-2.71.435-3.402 0-3.994-2.928-3.994-5.794 0-2.49.692-5.77 3.717-5.77 3.342 0 3.362 3.76 3.362 6.19h-5.42c0 1.8.28 4.158 2.493 4.158.77 0 1.563-.16 2.552-.434v1.225zm14 .198c-.613.138-1.286.237-1.898.237-1.127 0-1.66-.338-1.997-.932-.258-.493-.356-1.028-.356-2.39V31.84h-1.43v-1.225h1.38l.71-2.512h.97v2.512h2.135v1.226h-2.13v6.83c0 1.03.08 1.446.217 1.7.138.3.435.458 1.028.458.337 0 .79-.06 1.365-.2v1.19zm47.56-10.126c-1.838 0-2.075 2.592-2.075 4.333 0 2.056.176 4.804 2.075 4.804 1.86 0 2.037-2.83 2.037-4.77 0-1.72-.257-4.37-2.037-4.37zM6.566 41.79c-.436.156-1.484.255-2.275.255-3.69 0-4.29-4.152-4.29-7.26 0-2.193.34-4.646 1.59-6.17.71-.87 1.54-1.323 3.124-1.323.69 0 1.326.1 1.86.217v1.3c-.534-.14-1.07-.26-1.78-.26-1.07 0-1.56.394-1.98 1.01-.85 1.282-1.01 3.536-1.01 5.1 0 1.226.04 2.85.458 4.094.416 1.265 1.07 2.017 2.434 2.017.63 0 1.204-.1 1.88-.28v1.29zm102.75-1.188c.36.1.97.158 1.346.158 2.198 0 2.65-2.097 2.65-4.607 0-2.99-.61-4.47-1.996-4.47-.95 0-2 .79-2 3.46v5.46zm-36.898-8.92c-1.8 0-2.1 2.592-2.1 4.627 0 1.6.143 4.37 2.06 4.37 1.9 0 2.016-2.53 2.016-4.59 0-1.688-.197-4.41-1.976-4.41zm53.373 3.796c0-1.64-.23-3.796-1.75-3.796-1.6 0-1.96 2.196-2.06 3.796h3.82zm-30.45 0c0-1.64-.23-3.796-1.76-3.796-1.6 0-1.95 2.196-2.05 3.796h3.817zm-56 0c0-1.64-.235-3.796-1.76-3.796-1.6 0-1.96 2.196-2.055 3.796h3.817zm44.95-.138c.99 0 1.64-.097 2.16-.592.59-.574.75-1.643.75-2.926 0-1.326-.28-2.395-1.05-2.83-.293-.157-.65-.316-1.82-.316h-.95v6.664h.91zm-9.172-4.725h.927v10.68c0 1.105-.196 1.937-.73 2.648-.594.773-1.545 1.227-2.79 1.227-.99 0-2.094-.196-3.145-.474v-1.248c1.07.278 2.14.475 2.95.475 1.977 0 2.135-1.028 2.135-2.688v-.713c-.474.75-1.383 1.384-2.392 1.384-2.906 0-3.42-3.36-3.42-5.793 0-2.473.73-5.656 3.54-5.656 1.17 0 2 .79 2.49 1.68l.44-1.522zm-18.176-1.64c-.613 0-1.09-.494-1.09-1.13 0-.633.476-1.125 1.09-1.125.593 0 1.087.513 1.087 1.126 0 .635-.474 1.13-1.087 1.13zM58.69 14.3c0 2.8-.515 3.77-1.363 4.7-1.304 1.384-3.203 1.8-6.862 1.8h-10.5c-3.66 0-5.56-.416-6.863-1.8-.85-.93-1.365-1.9-1.365-4.707v-7.79c0-2.81.513-3.777 1.364-4.708 1.3-1.385 3.2-1.8 6.86-1.8h10.5c3.66 0 5.56.416 6.868 1.8.85.93 1.366 1.898 1.366 4.707V14.3zm61.86 6.242l-1.9-3.52h-12.44l-1.88 3.52h-7.1L108.62.332h7.99L128 20.547h-7.454zM67.62.332v20.21h-6.426V.34h6.426zm10.857 0h8.48L75.51 9.79l12.92 10.758h-9.08l-11.727-10.54L78.48.338zm17.56 0v20.21h-6.43V.34h6.43zM50.2 15.69c1.404 0 1.9-.08 2.235-.376.317-.277.455-.634.455-1.82V7.32c0-1.188-.138-1.543-.455-1.82-.336-.297-.83-.375-2.235-.375h-9.987c-1.404 0-1.898.078-2.235.373-.316.28-.454.634-.454 1.82v6.17c0 1.187.138 1.544.454 1.82.337.296.83.376 2.235.376H50.2zM6.416 20.55H.266V.34h10.64l12.2 15.088V.336h6.15V20.55h-10.42L6.416 5.202v15.346zm102.024-7.91h7.99l-3.997-7.317-3.993 7.317z"/></svg>