<svg viewBox="0 0 64 64" xmlns="http://www.w3.org/2000/svg" fill-rule="evenodd" clip-rule="evenodd" stroke-linejoin="round" stroke-miterlimit="1.414"><path d="M23.714 32.587c-1.153 0-2.077-.38-2.77-1.14-.696-.76-1.043-1.75-1.043-2.968 0-1.31.36-2.36 1.07-3.14.71-.78 1.67-1.17 2.89-1.17 1.12 0 2.028.38 2.715 1.134.686.757 1.03 1.746 1.03 2.97 0 1.33-.352 2.376-1.056 3.15-.703.77-1.645 1.155-2.826 1.155zm29.023-.136h-.93v-5.81h.93v5.81zm-12.282 0v-8.13h2.247c2.867 0 4.3 1.327 4.3 3.97 0 1.258-.398 2.267-1.194 3.03-.796.762-1.862 1.143-3.197 1.143h-2.15zm-7.026 0h-.93v-3.31c0-1.23-.46-1.85-1.36-1.85-.466 0-.85.18-1.156.53-.304.35-.457.79-.457 1.328v3.314h-.93v-5.81h.93v.966h.023c.44-.735 1.074-1.1 1.907-1.1.634 0 1.12.203 1.457.613.34.41.507 1.004.507 1.78v3.55zm17.68-4.86c-.166-.123-.4-.185-.707-.185-.397 0-.73.187-.995.56-.267.376-.4.886-.4 1.533v2.96h-.93v-5.81h.93v1.2h.022c.13-.41.334-.728.606-.957.272-.23.576-.343.913-.343.242 0 .427.024.556.077v.963zm-45.18.49c.163-1.714 1.61-3.06 3.367-3.06 1.1 0 2.11.527 2.74 1.4.375-.16.78-.243 1.19-.243h.08c-.19-1.87-1.767-3.326-3.685-3.326-1.45 0-2.708.836-3.315 2.053-.426-.29-.94-.457-1.495-.457-1.48 0-2.678 1.2-2.678 2.676 0 .2.022.39.063.58-1.228.087-2.2 1.115-2.2 2.37 0 1.314 1.064 2.38 2.38 2.38h1.557c-.31-.452-.494-1-.494-1.586 0-1.443 1.095-2.635 2.496-2.79zM64 29.78h-4.102c.014.646.19 1.145.52 1.497.334.35.792.527 1.375.527.654 0 1.255-.214 1.804-.645v.872c-.51.37-1.186.55-2.026.55-.82 0-1.46-.262-1.93-.79-.47-.53-.7-1.27-.7-2.227 0-.904.258-1.64.77-2.21.51-.57 1.15-.854 1.91-.854s1.35.246 1.766.737c.416.49.624 1.174.624 2.05v.486zm-24.613 0h-4.102c.015.646.19 1.145.522 1.497.333.35.79.527 1.373.527.655 0 1.256-.214 1.805-.645v.872c-.51.37-1.186.55-2.026.55-.83 0-1.47-.262-1.94-.79-.47-.53-.71-1.27-.71-2.227 0-.904.257-1.64.77-2.21.51-.57 1.148-.854 1.91-.854.76 0 1.347.246 1.763.737.415.49.623 1.174.623 2.05v.486zm-15.605-4.74c-.854 0-1.55.31-2.082.926-.533.616-.8 1.426-.8 2.428 0 1.004.26 1.81.78 2.42.52.61 1.198.918 2.034.918.893 0 1.597-.29 2.11-.88.516-.582.773-1.397.773-2.445 0-1.074-.25-1.904-.75-2.49-.5-.587-1.187-.88-2.065-.88zm35.014 1.6l-2.315 5.81h-.91l-2.2-5.81h1.02l1.48 4.223c.11.31.18.58.206.81h.023c.037-.29.1-.55.18-.78l1.544-4.245h.983zm-17.388-1.463v6.412h1.214c1.067 0 1.897-.288 2.49-.86.595-.57.892-1.38.892-2.43 0-2.09-1.108-3.13-3.325-3.13H41.4zm21.64 3.813c-.005-.537-.135-.955-.39-1.254-.256-.3-.61-.448-1.064-.448-.44 0-.81.157-1.118.47-.306.315-.495.725-.567 1.232h3.13zm-24.614 0c-.004-.537-.133-.955-.388-1.254-.256-.3-.61-.448-1.064-.448-.44 0-.812.157-1.118.47-.307.315-.496.725-.568 1.232h3.138zm-22.698.37c.004-.058.007-.118.007-.18 0-1.383-1.12-2.505-2.505-2.505-.507 0-.978.15-1.372.41-.477-.93-1.443-1.564-2.56-1.564-1.586 0-2.874 1.28-2.874 2.87 0 .06.003.12.006.175-.062-.005-.125-.008-.19-.008-1.268 0-2.296 1.027-2.296 2.296 0 1.264 1.02 2.29 2.282 2.296h9.94c.05-.02.1-.04.147-.068.65-.327 1.09-.997 1.09-1.77 0-.99-.72-1.81-1.67-1.96zm36.547-4.194c-.167 0-.31-.057-.426-.17-.117-.114-.176-.258-.176-.432s.06-.317.18-.433c.12-.115.26-.173.43-.173.17 0 .317.058.436.173.12.115.18.26.18.433 0 .168-.06.31-.18.427-.12.117-.264.176-.434.176z" fill="#fff"/></svg>