<svg viewBox="0 0 128 21" xmlns="http://www.w3.org/2000/svg" fill-rule="evenodd" clip-rule="evenodd" stroke-linejoin="round" stroke-miterlimit="1.414"><path d="M47.425 19.466c-2.306 0-4.153-.76-5.54-2.28-1.39-1.52-2.084-3.5-2.084-5.934 0-2.62.72-4.72 2.14-6.28 1.42-1.56 3.34-2.338 5.78-2.338 2.24 0 4.06.76 5.43 2.267 1.37 1.52 2.06 3.5 2.06 5.94 0 2.66-.7 4.75-2.11 6.3-1.4 1.54-3.29 2.31-5.65 2.31l-.02.02zm58.032-.272h-1.86V7.576h1.86v11.618zm-24.558 0V2.938h4.49c5.73 0 8.6 2.653 8.6 7.938 0 2.515-.8 4.533-2.39 6.058-1.59 1.524-3.73 2.286-6.39 2.286h-4.3l-.01-.026zm-14.05 0h-1.86v-6.62c0-2.458-.92-3.698-2.72-3.698-.93 0-1.7.36-2.31 1.06-.61.7-.92 1.58-.92 2.655v6.63h-1.86V7.6h1.86v1.932h.043c.88-1.47 2.15-2.2 3.813-2.2 1.27 0 2.24.406 2.914 1.226.68.82 1.013 2.008 1.013 3.56v7.098l.017-.022zm35.35-9.718c-.33-.246-.8-.37-1.42-.37-.795 0-1.46.374-1.99 1.12-.534.752-.8 1.77-.8 3.065v5.92h-1.86V7.6H98V10h.045c.26-.82.668-1.456 1.212-1.914.544-.46 1.15-.685 1.825-.685.484 0 .854.05 1.112.154V9.48l.01.003zm-90.34.98c.32-3.427 3.22-6.12 6.73-6.12 2.2 0 4.22 1.055 5.48 2.8.75-.32 1.56-.485 2.38-.485h.16C26.23 2.92 23.08 0 19.24 0c-2.896 0-5.41 1.672-6.625 4.105-.852-.58-1.88-.913-2.99-.913-2.96 0-5.354 2.4-5.354 5.35 0 .4.047.78.13 1.16-2.46.174-4.4 2.23-4.4 4.74C0 17.067 2.123 19.2 4.76 19.2h3.11c-.62-.904-.988-2-.988-3.172 0-2.885 2.19-5.268 4.99-5.578l-.01.006zm116.11 3.397h-8.2c.03 1.292.38 2.29 1.04 2.993.665.7 1.58 1.054 2.75 1.054 1.305 0 2.51-.428 3.604-1.29v1.744c-1.02.74-2.37 1.1-4.05 1.1-1.64 0-2.92-.524-3.86-1.58-.94-1.06-1.4-2.54-1.4-4.453 0-1.8.516-3.27 1.54-4.41 1.02-1.14 2.3-1.706 3.82-1.706s2.7.49 3.53 1.473c.832.98 1.25 2.348 1.25 4.1v.97l-.024.015zm-49.216 0h-8.2c.03 1.292.38 2.29 1.044 2.993.666.7 1.58 1.054 2.746 1.054 1.31 0 2.515-.428 3.61-1.29v1.744c-1.02.74-2.37 1.1-4.05 1.1-1.66 0-2.94-.524-3.88-1.58-.94-1.06-1.42-2.54-1.42-4.453 0-1.8.517-3.27 1.54-4.41 1.02-1.14 2.298-1.706 3.82-1.706 1.52 0 2.695.49 3.527 1.473.83.98 1.246 2.348 1.246 4.1v.97l.022.015zm-31.2-9.478c-1.708 0-3.1.62-4.163 1.852-1.065 1.232-1.6 2.85-1.6 4.855 0 2.007.52 3.62 1.56 4.84 1.04 1.218 2.396 1.834 4.068 1.834 1.785 0 3.193-.58 4.22-1.76 1.03-1.163 1.544-2.793 1.544-4.888 0-2.148-.5-3.807-1.5-4.98-1-1.173-2.377-1.76-4.13-1.76v.007zm70.01 3.2l-4.63 11.617h-1.817l-4.4-11.618h2.04l2.96 8.444c.22.62.36 1.16.412 1.62h.045c.073-.58.2-1.1.36-1.56l3.086-8.488h1.96l-.02-.016zm-34.76-2.927v12.82h2.426c2.134 0 3.794-.576 4.98-1.72 1.19-1.14 1.783-2.76 1.783-4.858 0-4.18-2.215-6.26-6.648-6.26H82.79l.015.017zm43.27 7.623c-.01-1.07-.27-1.91-.78-2.5-.513-.6-1.22-.894-2.13-.894-.88 0-1.62.314-2.234.94-.61.63-.99 1.45-1.133 2.463h6.274zm-49.218 0c-.01-1.07-.268-1.91-.778-2.5-.513-.6-1.22-.894-2.128-.894-.88 0-1.624.314-2.236.94-.62.63-.998 1.45-1.14 2.463h6.273zm-45.387.74c.01-.11.014-.23.014-.36 0-2.76-2.24-5.01-5.01-5.01-1.013 0-1.955.3-2.743.82-.952-1.85-2.884-3.12-5.117-3.12-3.172 0-5.747 2.56-5.747 5.74 0 .12 0 .24.01.35-.128-.01-.25-.014-.38-.014-2.54 0-4.59 2.053-4.59 4.59 0 2.528 2.04 4.58 4.56 4.59H32.34c.1-.04.2-.08.294-.135 1.3-.653 2.18-1.993 2.18-3.54 0-1.98-1.44-3.62-3.34-3.92l-.01.017zm73.076-8.38c-.34 0-.62-.11-.857-.34-.235-.224-.353-.512-.353-.86s.12-.632.36-.864c.24-.23.52-.347.86-.347.34 0 .634.115.87.345.24.23.36.52.36.864 0 .336-.12.62-.36.854-.24.233-.526.35-.866.35l-.02-.002z"/></svg>