<svg viewBox="0 0 128 18" xmlns="http://www.w3.org/2000/svg" fill-rule="evenodd" clip-rule="evenodd" stroke-linejoin="round" stroke-miterlimit="1.414"><path d="M53.277 11.416h8.154l-4.3-6.943-7.904 12.55-3.606.003 9.627-15.07c.41-.614 1.114-.982 1.88-.982.76 0 1.454.357 1.865.954l9.66 15.098-3.607-.002-1.692-2.806h-8.27l-1.802-2.802zm-45.33 5.608C3.56 17.024 0 13.466 0 9.078 0 4.688 3.56 1.13 7.948 1.13h9.237c4.388 0 7.946 3.558 7.946 7.948 0 4.39-3.55 7.948-7.94 7.948l-9.233-.002zM90.69 14.22V1.13h-3.055V15.5c0 .4.16.778.445 1.06.3.3.695.464 1.12.464h13.936l1.797-2.804H90.69zm-50.56-2.34c2.97 0 5.375-2.41 5.375-5.376 0-2.968-2.406-5.374-5.373-5.374H26.758v15.894h3.054V3.93h10.11c1.424 0 2.572 1.152 2.572 2.574 0 1.42-1.148 2.574-2.57 2.574l-8.614-.003 9.12 7.95h4.44l-6.136-5.15 1.4.004zm34.888 5.144c-4.386 0-7.947-3.558-7.947-7.946 0-4.39 3.56-7.948 7.95-7.948H86l-1.8 2.803-8.973-.002c-2.845 0-5.147 2.31-5.147 5.15 0 2.85 2.3 5.15 5.146 5.15h11.02l-1.795 2.8h-9.43zm37.385-2.8c-2.35 0-4.34-1.584-4.948-3.74h13.063l1.8-2.803H107.45c.61-2.16 2.594-3.75 4.952-3.75l8.967.01 1.8-2.8h-10.98c-4.39 0-7.95 3.56-7.95 7.95 0 4.386 3.56 7.944 7.943 7.944h9.43l1.795-2.8H112.4zm-95.423 0c2.84 0 5.143-2.303 5.143-5.146 0-2.842-2.302-5.145-5.144-5.145L8.15 3.93c-2.84 0-5.145 2.306-5.145 5.148 0 2.843 2.304 5.146 5.145 5.146h8.827zm109.23-9.608c.99 0 1.79-.8 1.79-1.787 0-.99-.8-1.79-1.79-1.79-.984 0-1.783.8-1.783 1.78 0 .985.8 1.786 1.784 1.786zm-1.403-1.794c0-.774.627-1.403 1.404-1.403.78 0 1.41.62 1.41 1.4 0 .78-.623 1.4-1.4 1.4-.776 0-1.403-.63-1.403-1.408zm1.236-1.053c.275 0 .388 0 .525.05.35.12.388.44.388.56 0 .02-.005.09-.022.16-.02.075-.065.23-.248.342-.02.015-.033.026-.09.047l.464.832h-.45L126.204 3h-.272v.766h-.392v-2h.503zm.14.9c.12 0 .254-.01.332-.13.033-.05.046-.105.046-.17 0-.11-.05-.198-.15-.245-.09-.035-.18-.035-.36-.035h-.11v.576h.25z"/></svg>