<svg viewBox="0 0 128 80" xmlns="http://www.w3.org/2000/svg" fill-rule="evenodd" clip-rule="evenodd" stroke-linejoin="round" stroke-miterlimit="1.414"><path d="M67.214 43.126s-3.07-.736-7.314 3.508c0 0-1.172 12 0 30.876 0 0 0 2.49 4.826 2.49V67.12S75.7 65.94 75.7 51.6c0 0 .292-8.494-8.486-8.494v.02zM18.54 41.954c0-9.76-10.348-10.34-10.348-10.34-5.656 0-8.192 4.68-8.192 4.68V66.73c0 4.488 5.85 4.294 5.85 4.294 1.172 0 .784-15.2.784-15.2 11.512-4.68 11.904-13.85 11.904-13.85l.002-.02zm97.26 13.264c-2.784-2.58-4.052-4.83-4.052-5.7 0-.884-.2-3.228 2.148-3.228 2.34 0 2.44 2.736 2.044 3.71-.386.96.44 1.02.44 1.02 3.074 0 2.828-3.56 2.828-3.56 0-4.92-5.068-5.22-6.096-5.22-1.024 0-6.68.96-6.68 5.26s2.194 7.02 4.58 8.92c2.394 1.9 2.444 3.996 2.444 3.996 0 2.928-3.514 2.83-3.514 2.83-2.82 0-3.8-2.296-4.18-3.026-.386-.728-.826-.632-.826-.632-1.22 0-1 1.88-1 1.88 0 4.504 3.15 7.632 7.634 7.632 4.492 0 7.808-3.756 7.808-6.584s-.78-4.726-3.56-7.32l-.018.022zm8.94 4.02c.08 0 .274.076.516.12.934.16 2.744.764 2.744 3.192 0 3.07-.894 4.54-2.952 4.54-2.06 0-2.68-2.656-2.68-3.724 0-3.3 1.984-4.126 2.374-4.126l-.002-.002zm.428 7.296c1.404 0 2.308-1.086 2.308-3.82 0-2.224-1.492-2.66-2.244-2.78-.172-.03-.304-.15-.368-.15-.348 0-1.972.6-1.96 3.54 0 .84.42 3.22 2.264 3.22v-.01zm-1.08-5.454c.14 0 .38-.02.654-.02.44 0 .96 0 1.3.1.16.02.4.16.4.36 0 .2-.06.44-.16.58-.18.244-.68.96-1.006 1.3.108.108.5.228.696.27.35.08.76.174.994.2.226.02.3.272.3.36 0 .14-.086.28-.24.28s-.58-.292-1.3-.414c-.64-.108-1.08-.38-1.1-.5-.004-.13.02-.27.17-.38.36-.272 1.08-1.35 1.08-1.546 0-.15-.496-.172-.76-.172-.36 0-.594.012-.628.02 0 .12.08 1.66.108 2.18.046.664.23 1.494.23 1.644 0 .154-.156.294-.306.294-.154 0-.394-.094-.394-.44 0-.36-.12-1.8-.132-2.1-.004-.3-.12-1.14-.12-1.226-.02-.164-.1-.36-.1-.51.12-.24.206-.28.34-.28h-.026zM91.36 59.8c-2.196 0-1.172-1.04-3.146.94 0 0-1.976 2.56-4.612 2.56 0 0-1.9-.44-1.9-4.394l8.6-4.234c1.78-.9 1.22-4.84 1.22-4.84 0-1.906-.88-7.316-7.6-7.316 0 0-7.612.728-7.612 15.946 0 15.22 13.46 11.566 15.95 3.074 0 0 1.31-1.76-.88-1.76l-.02.024zm-71.412 3.082c-2.784 0 1.17-9.516 5.7-8.494 0 0-2.924 8.494-5.7 8.494zm45.216-1.174v-13.17s.44-.88 1.9-.88c1.468 0 3.224 1.61 3.224 5.268 0 3.66-.88 7.32-5.124 8.78v.002zM84.48 47.222c2.928 0 2.928 4.828 2.928 4.828l-5.56 2.488s-.292-7.316 2.634-7.316h-.002zm-77.844 2.34V39.81s.194-2.932 2.926-2.932 7.04 6.048-2.92 12.68l-.006.004zm17.266-7.608s-6.34.506-5.56 5.412c0 0 .88 2.634 2.64.88 1.76-1.76 6-5.708 6 1.172 0 0-13.46 1.314-13.46 13.464 0 12.14 11.86 3.216 13.18-1.174 0 0 1.024 1.9-.148 5.556 0 0-.292 1.48 1.46 1.48 1.76 0 3.66-1.02 3.66-12.58s-2.388-14.19-7.752-14.19l-.02-.02zm82.24 2.636c0-1.91-3.8-3.514-8.2 2.484v-2.932s-.28-1.604-1.6-1.604h-2.04s-1.168.14-1.168 1.17c0 0 .736 23.266 2.2 24.728 0 0 1.17 1.03 3.068 1.03V56.002s.734-7.612 7.028-9.07c0 0 .732-.448.732-2.34l-.02-.002zM52 42.83s-3.368.44-5.12 4.1c0 0-2.42-10.174-8.346 0v-3.954s.44-1.754-1.756-1.754-3.22.44-3.22 2.486v20.05s.28 5.266 5.26 5.266c0 0-1.32-20.48 3.22-20.48 0 0 1.76-.72 1.76 7.9v8.64s.14 3.66 4.524 3.66v-17.42s0-2.924 2.632-2.924c0 0 1.752 0 1.752 3.37v12.3s.58 4.9 4.9 4.9V51.91s-.512-9.07-5.632-9.07l.026-.01zm22.45.166s2.38.24 2.38-.64c0-.866-6.726-1.99-12.352-10.436-2.78-4.18-2.68-7.32-2.68-7.32s.12-3.65 5.56 1.04c5.62 4.84 5.8 5.108 5.8 5.108s.81.92 1.852.572c1.044-.346.926-2.666.926-2.666s-.4-11.42 3.83-11.42 3.24 8.4 3.184 9.796c-.056 1.388-1.86 10.44-4.756 14.72 0 0-.548 1.132-.06 1.628.496.488 3.19-1.454 3.88-2.496.7-1.048 5.454-8.58 5.98-20.176 0 0 .52-9.86-7.3-9.86 0 0-6.212-.46-8.06 11.6 0 0-3.66-4.232-9.108-4.232s-6.896 5.22-6.896 8.12c0 2.89 2.78 14.546 17.79 16.63l.03.032zm12.132-3.528c0 2.44 1.32 1.016 1.32 1.016 4.06-3.26 11.96-3.54 19.12-1.84 7.18 1.7 11.72 2.24 11.72.68s-8.44-5.7-20.292-5.7c-11.85 0-11.85 5.86-11.85 5.86l-.018-.016zm-40.82-5.86c-13.42 0-22.97 4.15-22.97 5.708 0 1.564 5.136 1.026 13.256-.676 8.116-1.72 17.06-1.42 21.646 1.84 0 0 1.488 1.42 1.488-1.02 0 0 0-5.86-13.42-5.86v.008zm6.174-11.86l-.026-.016c-.08.056.026.014.026.014v.002zm-.026-.016c.112-.07.55-.3 2.096-1.036 2.714-1.3-2.272-4.704-5.632-4.868-3.364-.16-3.08.98-3.08.98-.28 1.424 6.332 4.78 6.62 4.924h-.004zm16.2-8.614s3 1.54 3.04-1.91c.04-3.44-1.78-8.268-5.388-7.46 0 0-.936.328-1.134 1.586-.052.276-.7.972 1.452 3.48 2.146 2.514 2.024 4.304 2.024 4.304h.006zm24-8.924c0-3.974-1.784-3.4-1.784-3.4L88.458 4.32s-2.232 4.86-.2 6.02c2.026 1.18 3.848-2.19 3.848-6.16l.004.014z"/></svg>