<svg viewBox="0 0 64 64" xmlns="http://www.w3.org/2000/svg" fill-rule="evenodd" clip-rule="evenodd" stroke-linejoin="round" stroke-miterlimit="1.414"><path d="M33.607 33.372s-1.535-.368-3.657 1.754c0 0-.586 6 0 15.438 0 0 0 1.245 2.413 1.245v-6.44s5.487-.59 5.487-7.76c0 0 .146-4.247-4.243-4.247zM9.27 32.786c0-4.88-5.174-5.17-5.174-5.17-2.828 0-4.096 2.34-4.096 2.34v15.218c0 2.244 2.925 2.147 2.925 2.147.586 0 .392-7.6.392-7.6 5.756-2.34 5.952-6.925 5.952-6.925zm48.63 6.632c-1.392-1.29-2.026-2.415-2.026-2.85 0-.442-.1-1.614 1.074-1.614 1.17 0 1.22 1.368 1.022 1.855-.193.48.22.51.22.51 1.537 0 1.414-1.78 1.414-1.78 0-2.46-2.534-2.61-3.048-2.61-.512 0-3.34.48-3.34 2.63s1.097 3.51 2.29 4.46c1.197.95 1.222 1.998 1.222 1.998 0 1.464-1.757 1.415-1.757 1.415-1.41 0-1.9-1.148-2.09-1.513-.193-.364-.413-.316-.413-.316-.61 0-.5.94-.5.94 0 2.252 1.575 3.816 3.817 3.816 2.246 0 3.904-1.878 3.904-3.292s-.39-2.363-1.78-3.66zm4.47 2.01c.04 0 .137.038.258.06.467.08 1.372.382 1.372 1.596 0 1.535-.447 2.27-1.476 2.27-1.03 0-1.34-1.328-1.34-1.862 0-1.65.992-2.063 1.187-2.063zm.214 3.648c.702 0 1.154-.543 1.154-1.91 0-1.112-.746-1.33-1.122-1.39-.086-.015-.152-.075-.184-.075-.174 0-.986.3-.98 1.77 0 .42.21 1.61 1.132 1.61zm-.54-2.727c.07 0 .19-.01.327-.01.22 0 .48 0 .65.05.08.01.2.08.2.18 0 .1-.03.22-.08.29-.09.122-.34.48-.503.65.054.054.25.114.348.135.175.04.38.087.497.1.113.01.15.136.15.18 0 .07-.043.14-.12.14s-.29-.146-.65-.207c-.32-.054-.54-.19-.55-.25-.002-.065.01-.135.085-.19.18-.136.54-.675.54-.773 0-.075-.248-.086-.38-.086-.18 0-.297.006-.314.01 0 .06.04.83.054 1.09.023.332.115.747.115.822 0 .077-.078.147-.153.147-.077 0-.197-.047-.197-.22 0-.18-.06-.9-.066-1.05-.002-.15-.06-.57-.06-.613-.01-.082-.05-.18-.05-.255.06-.12.103-.14.17-.14zm-16.364-.64c-1.098 0-.586-.52-1.573.47 0 0-.988 1.28-2.306 1.28 0 0-.95-.22-.95-2.197l4.3-2.117c.89-.45.61-2.42.61-2.42 0-.953-.44-3.658-3.8-3.658 0 0-3.806.364-3.806 7.973 0 7.61 6.73 5.783 7.975 1.537 0 0 .655-.88-.44-.88zM9.974 43.25c-1.392 0 .585-4.758 2.85-4.247 0 0-1.462 4.247-2.85 4.247zm22.608-.587v-6.585s.22-.44.95-.44c.734 0 1.612.805 1.612 2.634 0 1.83-.44 3.66-2.562 4.39zm9.658-7.243c1.464 0 1.464 2.414 1.464 2.414l-2.78 1.244s-.146-3.658 1.317-3.658zM3.318 36.59v-4.876s.097-1.466 1.463-1.466 3.52 3.024-1.46 6.34zm8.633-3.804s-3.17.253-2.78 2.706c0 0 .44 1.317 1.32.44.88-.88 3-2.854 3 .586 0 0-6.73.657-6.73 6.732 0 6.07 5.93 1.608 6.59-.587 0 0 .512.95-.074 2.778 0 0-.146.74.73.74.88 0 1.83-.51 1.83-6.29s-1.194-7.095-3.876-7.095zm41.12 1.318c0-.955-1.9-1.757-4.1 1.242V33.88s-.14-.802-.8-.802h-1.02s-.584.07-.584.585c0 0 .368 11.633 1.1 12.364 0 0 .585.515 1.534.515V39.81s.367-3.806 3.514-4.535c0 0 .366-.224.366-1.17zM26 33.224s-1.684.22-2.56 2.05c0 0-1.21-5.087-4.173 0v-1.977s.22-.877-.878-.877-1.61.22-1.61 1.243v10.025s.14 2.633 2.63 2.633c0 0-.66-10.24 1.61-10.24 0 0 .88-.36.88 3.95v4.32s.07 1.83 2.262 1.83v-8.71s0-1.462 1.316-1.462c0 0 .876 0 .876 1.685v6.15s.29 2.45 2.45 2.45v-8.53s-.256-4.535-2.816-4.535zm11.225.083s1.19.12 1.19-.32c0-.433-3.363-.995-6.176-5.218-1.39-2.09-1.34-3.66-1.34-3.66s.06-1.825 2.78.52c2.81 2.42 2.9 2.554 2.9 2.554s.405.46.926.286c.522-.173.463-1.333.463-1.333s-.2-5.71 1.915-5.71 1.62 4.2 1.592 4.898c-.028.694-.93 5.22-2.378 7.36 0 0-.274.566-.03.814.248.244 1.595-.727 1.94-1.248.35-.524 2.727-4.29 2.99-10.088 0 0 .26-4.93-3.65-4.93 0 0-3.106-.23-4.03 5.8 0 0-1.83-2.116-4.554-2.116s-3.448 2.61-3.448 4.06c0 1.445 1.39 7.273 8.895 8.315zm6.066-1.764c0 1.22.66.508.66.508 2.03-1.63 5.98-1.77 9.56-.92 3.59.85 5.86 1.12 5.86.34s-4.22-2.85-10.146-2.85c-5.925 0-5.925 2.93-5.925 2.93zm-20.41-2.93c-6.71 0-11.485 2.075-11.485 2.854 0 .782 2.568.513 6.628-.338 4.058-.86 8.53-.71 10.823.92 0 0 .744.71.744-.51 0 0 0-2.93-6.71-2.93zm3.087-5.93l-.013-.008c-.04.028.013.007.013.007zm-.013-.008c.056-.035.275-.15 1.048-.518 1.357-.65-1.136-2.352-2.816-2.434-1.682-.08-1.54.49-1.54.49-.14.712 3.166 2.39 3.31 2.462zm8.1-4.307s1.5.77 1.52-.955c.02-1.72-.89-4.134-2.694-3.73 0 0-.468.164-.567.793-.026.138-.35.486.726 1.74 1.073 1.257 1.012 2.152 1.012 2.152zm12-4.462c0-1.987-.892-1.7-.892-1.7l-.934 1.763s-1.116 2.43-.1 3.01c1.013.59 1.924-1.095 1.924-3.08z" fill="#fff"/></svg>