<svg viewBox="0 0 128 33" xmlns="http://www.w3.org/2000/svg" fill-rule="evenodd" clip-rule="evenodd" stroke-linejoin="round" stroke-miterlimit="1.414"><path d="M59.9 5.888c-.754 0-1.744.61-2.212 1.348 0 0-5.05 8.66-5.546 9.524-.26.464-.54.168-.58-.004l-1.56-9.46c-.165-.748-.94-1.386-1.92-1.384l-3.145.004c-.76 0-1.234.608-1.064 1.344 0 0 2.406 13.644 2.876 16.852.23 1.776-.02 2.09-.02 2.09L43.6 31.66c-.46.736-.21 1.34.545 1.34h3.65c.76 0 1.76-.604 2.21-1.34l14.04-23.746s1.34-2.028.1-2.01c-.84.01-4.227 0-4.227 0l-.018-.016zm27.276-2.14c-.44-.856-1.1-1.545-1.94-2.08-.86-.535-1.88-.91-3.066-1.125C81 .337 79.61.22 78.026.217h-7.374c-.76 0-1.504.6-1.68 1.34L64.02 23.14c-.18.732.312 1.344 1.06 1.34l3.536-.006c.75.006 1.514-.6 1.692-1.334l1.196-5.236c.166-.732.93-1.348 1.692-1.336h1.006c4.32 0 7.66-.888 10.06-2.652 2.4-1.774 3.6-4.1 3.6-6.994 0-1.26-.22-2.32-.666-3.16l-.02-.014zm29.15-3.355h-3.16c-.72 0-1.454.554-1.66 1.256l-.026.08-.206.933-4.332 19.632c-.1.443-.16.733-.18.81l.02.01c-.148.685.26 1.253.94 1.32l.01.01H111c.72 0 1.444-.55 1.654-1.24.012-.037.028-.067.036-.1l4.73-21.38h-.02c.16-.734-.31-1.34-1.066-1.34h-.008zM23.193 3.668c-.44-.856-1.096-1.55-1.934-2.073-.87-.54-1.88-.908-3.06-1.13C17.01.253 15.63.15 14.04.133L6.684.14C5.92.15 5.17.746 4.994 1.482L.034 23.048c-.17.74.308 1.348 1.07 1.348H4.63c.76 0 1.516-.594 1.688-1.348l1.214-5.232c.16-.732.914-1.34 1.68-1.34h1.006c4.3 0 7.64-.884 10.04-2.648 2.4-1.76 3.6-4.096 3.588-6.984.006-1.268-.214-2.33-.672-3.176h.02zM97.94 20c-.436.28-.9.512-1.38.714-.654.26-1.27.4-1.84.4-.88 0-1.55-.124-2.006-.388-.456-.252-.694-.688-.686-1.314 0-.72.166-1.28.512-1.72.346-.424.86-.764 1.5-1.02.64-.212 1.42-.39 2.326-.52.804-.1 2.392-.28 2.596-.284.22 0 .34-.114.26.428-.04.236-.5 2.12-.7 2.974-.06.26-.4.632-.56.732L97.94 20zm-63.997-.016c-.44.276-.9.512-1.38.712-.654.26-1.274.4-1.84.4-.876 0-1.55-.124-2.006-.388-.46-.252-.7-.688-.7-1.314 0-.72.16-1.28.506-1.72.346-.424.86-.764 1.5-1.02.64-.214 1.424-.39 2.324-.516.8-.12 2.392-.3 2.6-.3.2 0 .332-.12.24.42-.04.234-.5 2.12-.706 2.974-.06.26-.4.632-.56.73l.03.022zm45.627-9.18c-1.056.766-2.54 1.15-4.446 1.15h-.876c-.76.01-1.25-.604-1.07-1.34l1.04-4.58c.16-.72.926-1.34 1.68-1.332h1.16c1.346.02 2.36.24 3.06.68.68.46 1.02 1.16 1.02 2.1 0 1.44-.528 2.54-1.588 3.32l.02.002zm-63.987-.09c-1.06.776-2.536 1.166-4.448 1.166h-.864c-.76 0-1.24-.604-1.07-1.346l1.06-4.572c.16-.72.92-1.34 1.68-1.34h1.14c1.35 0 2.37.24 3.06.7.68.448 1.03 1.152 1.02 2.1.02 1.428-.52 2.532-1.59 3.312l.02-.02zm88.593-3.948c1.334.746 2.01 1.908 2.004 3.48.012.21-.026.5-.06.848-.026.348-.072.65-.132.912l-2.574 11.108c-.156.674-.82 1.24-1.51 1.32-.012.01-.016.02-.048.02h-.504l-2.712.004v-.02h-.06l-.01-.016c-.676-.066-1.088-.634-.94-1.32l-.006-.008c0-.006.008-.01.01-.014l.128-.568v-.03c-.46.3-.81.54-1.324.89-.514.34-1 .62-1.452.8-.6.266-1.174.454-1.7.586-.528.132-1.266.2-2.208.208-1.514 0-2.76-.42-3.72-1.27-.95-.866-1.44-1.98-1.44-3.34 0-1.446.34-2.67 1.012-3.68.692-1.008 1.694-1.8 3.032-2.396 1.26-.576 2.76-.99 4.48-1.232 1.74-.248 3.18-.44 5.194-.56.34-.04.454-.18.512-.31.068-.15.06-.32.06-.5 0-.76-.352-1.288-1.066-1.6-.712-.3-1.784-.452-3.194-.452-.96-.012-2.172.18-3.312.44-1.192.272-1.508.446-2.092.62-.286.092-.932.14-.686-.994l.426-1.77s.206-1.34 1.546-1.64c.646-.14.76-.166 1.804-.328 1.424-.22 2.846-.332 4.26-.332 2.86 0 4.96.38 6.296 1.124l-.014.02zm-63.997-.02c-1.34-.744-3.43-1.12-6.3-1.12-1.42 0-2.84.112-4.27.334-1.05.16-1.158.186-1.81.328-1.34.292-1.55 1.632-1.55 1.632l-.42 1.772c-.24 1.13.4 1.084.7.996.585-.176.905-.352 2.1-.62 1.14-.26 2.34-.454 3.3-.446 1.415 0 2.487.16 3.2.46.715.32 1.06.84 1.06 1.6.01.18.01.36-.05.5-.06.14-.175.28-.513.32-2.01.12-3.454.312-5.2.56-1.714.24-3.22.66-4.47 1.234-1.34.594-2.34 1.39-3.025 2.396-.676 1.012-1.014 2.24-1.014 3.68 0 1.36.49 2.48 1.44 3.34.96.852 2.2 1.274 3.712 1.274.94-.006 1.68-.08 2.21-.206.52-.136 1.095-.32 1.695-.58.453-.192.94-.46 1.453-.808.516-.34.874-.584 1.33-.88l.018.026-.127.56c0 .012-.01.014-.01.02l.006.01c-.146.684.26 1.25.94 1.32l.01.01h3.28c.03 0 .034-.014.044-.02.696-.088 1.356-.65 1.514-1.32L42 11.988c.06-.26.1-.56.127-.908.04-.344.076-.64.066-.84.006-1.572-.67-2.734-2.004-3.48l-.01-.014zm82.11-2c-.11.03-.227.054-.35.072-.13 0-.24.02-.34.02-.358 0-.62-.1-.8-.28-.188-.2-.278-.5-.278-.92v-1.82h-.393v-.49h.38V.35h.58v.987h1.18v.486h-1.19v1.562c0 .18.01.32.014.424.01.1.036.18.086.28.05.08.114.14.19.18.08.04.2.06.36.06.1 0 .198-.02.3-.06.1-.03.176-.05.22-.07h.03v.52l.01.02zm5.71.034h-.58V2.824c0-.146-.008-.29-.02-.427-.014-.14-.044-.26-.086-.34-.06-.1-.12-.16-.22-.2-.09-.04-.216-.076-.38-.076-.16 0-.32.04-.488.12-.16.08-.32.18-.48.31l.01.17.005.188v2.2h-.58v-1.96c0-.153-.007-.3-.02-.434-.013-.133-.04-.24-.08-.323-.05-.09-.12-.156-.207-.2-.084-.04-.21-.06-.38-.06-.154 0-.312.04-.47.12-.16.07-.32.17-.474.29v2.56h-.58V1.34h.58v.38c.18-.15.36-.265.54-.35.18-.08.37-.127.572-.127.23 0 .428.05.59.146.16.1.28.23.36.4.23-.2.444-.34.64-.42.188-.08.4-.13.62-.13.37 0 .648.11.828.34.18.223.27.543.27.96v2.22l.028.012z"/></svg>