<svg viewBox="0 0 64 64" xmlns="http://www.w3.org/2000/svg" fill-rule="evenodd" clip-rule="evenodd" stroke-linejoin="round" stroke-miterlimit="1.414"><path d="M27.748 33.122l-3.058-7.34-3.425-.002v12.44h3.177v-6.842l2.825 6.84 3.578.002V25.78h-3.097v7.342zm15.02-7.342H31.94v2.396h3.566V38.22l3.63-.003V28.175h3.63V25.78zM11.172 38.22l8.598-.003v-2.3h-5.087v-2.9H19v-2.334h-4.317v-2.58h5.096v-2.32h-8.61V38.22zM6.386 25.78H0v12.437h3.61v-3.034h2.776c2.305 0 3.62-.937 3.62-3.2V29.52c0-2.744-1.293-3.74-3.62-3.74zm38.78.004l-3.926 12.43 3.263.003.555-1.993h3.328l.584 1.988h3.393l-4.15-12.428h-3.047zm.454 8.295l1.092-4.407 1.09 4.403H45.62zM5.017 32.714H3.62v-4.69h1.642c.663 0 1.13.406 1.13 1.108l.002 2.317c0 .53-.24 1.266-1.377 1.266zm55.18-.93l3.106-6.003-3.54-.004-1.647 3.8-1.764-3.8h-3.828l3.404 5.92-3.53 6.52h3.89l1.845-4.327 2.1 4.325H64l-3.803-6.43z" fill="#fff"/></svg>