<svg viewBox="0 0 128 25" xmlns="http://www.w3.org/2000/svg" fill-rule="evenodd" clip-rule="evenodd" stroke-linejoin="round" stroke-miterlimit="1.414"><path d="M55.496 14.804L49.38.124 42.53.12V25h6.354V11.316l5.65 13.68L61.69 25V.12h-6.194v14.684zM85.536.12H63.88v4.792h7.132V25l7.26-.006V4.91h7.26V.12h.004zM22.344 25l17.196-.006v-4.6H29.366v-5.8H38V9.926h-8.634v-5.16h10.192V.126h-17.22V25h.006zM12.772.12H0v24.874h7.22v-6.068h5.552c4.61 0 7.24-1.874 7.24-6.4V7.6c0-5.488-2.586-7.48-7.24-7.48zm77.56.008l-7.852 24.86 6.526.006 1.11-3.986h6.656l1.168 3.976h6.786L96.426.128h-6.094zm.908 16.59l2.184-8.814 2.18 8.806H91.24v.008zm-81.206-2.73H7.24v-9.38h3.284c1.326 0 2.26.812 2.26 2.216l.004 4.634c0 1.06-.48 2.532-2.754 2.532v-.002zm110.36-1.86L126.606.122l-7.08-.008-3.294 7.6-3.528-7.6h-7.656l6.808 11.84-7.06 13.04h7.78l3.69-8.654 4.2 8.65H128l-7.606-12.86v-.002z"/></svg>