<svg viewBox="0 0 128 29" xmlns="http://www.w3.org/2000/svg" fill-rule="evenodd" clip-rule="evenodd" stroke-linejoin="round" stroke-miterlimit="1.414"><path d="M28.813 1.49C27.52.432 25.357 0 21.343 0H6.13L0 28.84h8.288l1.997-9.39 8.02.003c2.864.01 5.126.018 7.56-1.597 2.342-1.572 4.198-4.66 4.963-8.264.76-3.586.066-6.388-2.013-8.102zm55.192 0C82.712.432 80.548 0 76.535 0H61.32l-6.13 28.84h8.29l1.995-9.39 8.017.003c2.866.01 5.128.018 7.564-1.597 2.34-1.572 4.196-4.66 4.96-8.264.763-3.586.067-6.388-2.01-8.102zM119.745 0l-6.13 28.84h8.257L128 0h-8.256zm-78.24 21.124c-1.363.017-2.186.028-2.455-.28-.285-.328-.185-1.266.038-2.765h15.04l1.59-7.47h-14.89l.032-.15c.34-1.627.53-2.52.93-2.88.383-.347 1.12-.34 2.588-.327l13.05.005L58.97 0H45.896c-10.24 0-12.07 4.075-14.363 14.858-1.238 5.826-2.132 10.034.423 12.216 2.072 1.77 6.14 1.767 8.83 1.767h11.996l1.642-7.72-12.918.01zM22.375 9.56c-.545 2.557-1.344 2.535-3.717 2.473-.376-.01-.8-.02-1.256-.02h-5.54l1.007-4.747h5.71c1.992 0 3.31-.002 3.73.51.24.295.26.862.06 1.785zm55.19 0c-.544 2.557-1.34 2.535-3.717 2.473-.373-.01-.8-.02-1.255-.02h-5.54l1.008-4.747h5.72c1.994 0 3.31-.002 3.73.51.237.295.257.862.06 1.785zM99.538 0C93.345 0 89.26 3.16 88.043 8.898c-.742 3.495-.498 5.94.748 7.478.97 1.196 2.55 1.804 4.7 1.804l8.6-.004c1.21-.01 2.08-.017 2.36.326.16.2.18.59.05 1.194-.35 1.647-1.02 1.63-3.01 1.576-.364-.01-.775-.02-1.223-.02H85.92l-1.613 7.59h16.58c6.706 0 10.728-2.928 11.956-8.702.527-2.477.924-5.573-.677-7.55-1.065-1.313-2.903-1.98-5.458-1.98l-8.085.003c-1.084.003-1.943.005-2.215-.326-.16-.197-.175-.58-.05-1.164.316-1.494 1.028-1.554 3.444-1.535l15.064.004L116.478 0h-16.94z"/></svg>