<svg viewBox="0 0 129 24" xmlns="http://www.w3.org/2000/svg" fill-rule="evenodd" clip-rule="evenodd" stroke-linejoin="round" stroke-miterlimit="1.414"><path d="M44.27.644h-6.874v8.954h-7.16V.644H23.36v22.53h6.876V14.31h7.16v8.863h6.874V.643zm23.925 18.003V.644h-6.877v22.53h12.434l1.035-4.527h-6.592zM56.232.644h-6.875v22.53h6.875V.644zm27.88 0h-6.875v22.53h6.874V.644zm33.905 5.748c0-1.224 1.226-1.79 3.203-1.79 2.166 0 4.522.47 6.122 1.133L126.78.832c-1.792-.376-3.394-.66-6.313-.66-5.557 0-9.324 2.193-9.324 6.79 0 7.914 10.74 6.313 10.74 9.99 0 1.412-1.04 2.164-3.583 2.164-2.257 0-5.746-.752-7.815-1.79l.754 5.188c2.07.753 4.893 1.13 7.154 1.13 5.745 0 10.455-1.887 10.455-7.544 0-7.538-10.834-6.124-10.834-9.708M98.62 17.8c6.4 0 10.45-3.302 10.45-9.05 0-6.315-4.33-8.578-11.396-8.578-2.73 0-6.03.19-8.384.472v22.53h6.88V17.8h2.45zm3.667-8.956c0 2.922-1.41 4.902-4.99 4.902H96.17V4.44c.398-.024.775-.024 1.128-.024 3.39 0 4.99 1.6 4.99 4.428M10.174 17.8c6.404 0 10.453-3.302 10.453-9.05 0-6.315-4.333-8.578-11.395-8.578C6.5.172 3.202.362.85.644v22.53h6.875V17.8h2.45zm3.675-8.956c0 2.922-1.416 4.902-4.995 4.902h-1.13V4.44c.402-.024.78-.024 1.13-.024 3.39 0 4.994 1.6 4.994 4.428" fill-rule="nonzero"/></svg>