<svg viewBox="0 0 98 129" xmlns="http://www.w3.org/2000/svg" fill-rule="evenodd" clip-rule="evenodd" stroke-linejoin="round" stroke-miterlimit="1.414"><path d="M45.836 128.142c-4.71-.46-6.482-.743-9.558-1.53-6.682-1.712-12.956-4.806-18.13-8.943-1.826-1.47-5.347-5.01-6.832-6.89-4.934-6.24-8.286-13.92-9.698-22.23-.88-5.185-.82-1.91-.874-46.995L.694.182h97.11l-.047 41.91c-.043 38.745-.066 42.046-.308 43.66-1.01 6.733-2.56 11.89-5.08 16.917-3.74 7.442-9.88 14.052-17.11 18.39-6.04 3.62-12.83 5.92-20.104 6.804-1.8.22-8.03.402-9.33.275zm8.875-2.28c8.79-.977 17.13-4.32 23.98-9.62 1.925-1.49 5.196-4.706 6.784-6.672 5.954-7.366 9.325-16.212 10.206-26.778.096-1.153.152-16.27.153-41.228V2.156H2.82l.047 40.85c.045 37.434.07 40.986.305 42.495.96 6.17 1.99 9.96 3.9 14.31 6.14 14.01 18.867 23.49 34.67 25.85 4.17.62 8.613.694 12.97.21zm-8.57-2.785c-11.73-.867-22.36-6.245-29.98-15.176C4.94 94.74 2.74 75.92 10.61 60.41c8.503-16.742 26.92-26.084 45.452-23.053 7.223 1.18 13.754 4.042 19.738 8.646 1.892 1.456 6 5.595 7.454 7.51 4.888 6.438 7.803 13.572 8.8 21.542.406 3.243.216 8.96-.414 12.516-3.055 17.22-16.442 31.04-33.542 34.66-3.666.775-8.44 1.116-11.96.856zm7.66-2.215c3.46-.402 7.09-1.28 10.08-2.437 1.86-.72 5.71-2.628 5.81-2.877.08-.208-1.856-12.79-1.99-12.92-.04-.042-2.872-.573-6.294-1.18-3.422-.608-6.3-1.13-6.396-1.163-.096-.032 2.787-.355 6.405-.718 3.62-.364 6.6-.676 6.62-.694.05-.037 1.546-12.31 1.55-12.694.002-.3-1.64-1.25-3.336-1.93-5.4-2.16-11.106-1.69-15.898 1.29-4.125 2.562-7.116 3.35-12.15 3.193-4.416-.137-6.93-.92-10.61-3.316-4.706-3.06-12.73-3.078-18.2-.036-.717.4-.947.61-.946.86 0 .184.17 1.146.378 2.14 2.064 9.92 7.718 18.693 15.974 24.79 5.657 4.177 12.37 6.81 19.605 7.69 2.29.28 6.957.275 9.402-.01zm5.58-5.406c-.314-2.02-.605-3.704-.646-3.744-.04-.04-1.72-.367-3.735-.727-2.016-.36-3.69-.678-3.718-.707-.03-.03 1.623-.214 3.67-.41 2.046-.198 3.79-.402 3.876-.455.086-.053.355-1.72.6-3.705.242-1.985.465-3.633.495-3.663.03-.03.285 1.546.565 3.502.28 1.955.55 3.622.6 3.704.05.09 1.696.33 3.655.55 1.96.23 3.686.45 3.84.51.16.06-1.205.35-3.263.7-1.946.327-3.68.64-3.855.705-.29.103-.363.44-.83 3.768-.28 2.01-.548 3.655-.593 3.655-.046 0-.34-1.65-.657-3.67zm12.72-1.34c3.173-2.127 6.783-5.44 9.16-8.415 1.11-1.38 3.57-5.06 3.465-5.16-.04-.04-2.967.428-6.505 1.037l-6.43 1.106-.92 6.397c-.885 6.14-.91 6.39-.61 6.23.17-.092 1-.626 1.837-1.187zm13.44-14.938c1.728-3.18 3.264-7.547 3.994-11.35.18-.95.178-1.027-.05-.93-1.047.448-3.02 1.048-4.315 1.313-2.066.43-6.314.46-8.453.08-1.98-.36-3.86-.913-5.503-1.622-.76-.33-1.41-.57-1.44-.54-.064.063 1.73 12.524 1.812 12.607.077.076 12.75 1.567 13.084 1.538.19-.015.48-.38.87-1.085zM41.768 86.65c2.72-.37 4.78-1.12 7.015-2.55 2.2-1.41 4.35-2.302 6.84-2.84 1.61-.35 5.75-.395 7.357-.08 2.003.392 4.28 1.234 6.7 2.476 3.61 1.86 5.95 2.563 9.42 2.84 3.34.264 7-.314 9.583-1.517l1.335-.62.095-.7c.098-.716.13-2.318.047-2.318-.026 0-.42.18-.872.4-2.97 1.44-6.8 2.084-10.305 1.732-3.965-.4-6.738-1.32-11.227-3.723-3.14-1.676-7.24-2.39-10.86-1.885-2.67.37-5.57 1.524-7.81 3.102-2.96 2.087-6.05 2.955-10.51 2.954-3.438 0-5.99-.532-8.697-1.813-.843-.4-1.96-1.014-2.474-1.365-2.695-1.83-6.287-2.722-10.23-2.543-2.97.134-6.03.933-8.178 2.134l-1.02.57v.96c0 .53.04 1.157.086 1.4l.09.436 1.157-.566c4.2-2.05 9.636-2.61 14.4-1.485 1.94.455 3.506 1.126 5.38 2.3 2.494 1.565 4.144 2.196 6.883 2.63 1.53.246 4.245.275 5.793.064zm-.02-4.916c2.626-.426 4.32-1.11 6.45-2.602 1.667-1.167 4.074-2.27 6.163-2.824 1.718-.455 1.917-.475 4.9-.484 2.53-.008 3.338.043 4.325.273 2.068.483 3.545 1.06 6.182 2.416 2.52 1.295 4.692 2.112 6.94 2.61 1.752.387 5.67.474 7.358.164 2.117-.39 4.188-1.132 5.538-1.984l.606-.383v-1.136c0-.625-.04-1.136-.08-1.136-.05 0-.41.163-.8.362-1.07.54-2.95 1.092-4.72 1.388-1.257.21-2.116.245-4.25.177-4.55-.144-7.867-1.08-11.99-3.38-2.66-1.483-5.473-2.188-8.737-2.188-3.986 0-7.148.983-10.48 3.257-2.68 1.83-4.93 2.488-8.94 2.613-2.185.068-2.866.03-4.456-.24-3.036-.518-5.95-1.62-8.06-3.05-1.304-.884-2.615-1.492-4.137-1.916-1.167-.32-1.83-.4-3.98-.46-2.835-.083-4.197.08-6.675.79-1.42.41-4.307 1.74-4.63 2.13-.178.21-.42 2.347-.27 2.347.036 0 .61-.235 1.27-.52 3.083-1.337 5.844-1.83 9.62-1.716 4.173.125 6.48.82 9.966 3.01 2.23 1.4 4.65 2.253 7.41 2.61 1.15.15 4.23.083 5.47-.12zm.2-4.938c2.6-.337 4.19-.937 6.246-2.35 3.418-2.352 7.095-3.466 11.445-3.467 3.485-.01 6.37.68 9.184 2.17 3.362 1.784 5.092 2.45 7.934 3.06 1.244.266 2.07.332 4.273.34 3.533.014 5.383-.36 7.903-1.6l.99-.487-.098-.62c-1.085-6.907-3.684-13.06-7.91-18.72-1.73-2.315-5.646-6.235-7.95-7.956-6.27-4.678-13.154-7.375-20.83-8.16-2.294-.234-7.954-.11-10.035.22-.833.13-2.147.382-2.92.556-1.24.28-1.403.357-1.403.648 0 .55.945 6.845 1.045 6.956.05.06 1.73.29 3.733.515 2.002.226 3.694.46 3.76.517.065.06-.993.29-2.35.516-1.36.224-3.06.515-3.778.646l-1.306.236-.5 3.587c-.272 1.975-.54 3.674-.593 3.777-.05.103-.366-1.53-.698-3.63l-.604-3.816-3.564-.635c-1.96-.35-3.702-.665-3.87-.7-.166-.034 1.456-.238 3.606-.45 2.15-.216 3.94-.42 3.978-.46.087-.084.96-7.162.896-7.244-.18-.23-4.703 1.41-7.11 2.575-4.585 2.22-7.85 4.548-11.46 8.17-6.07 6.09-9.953 13.57-11.436 22.04l-.1.556L9.764 73c5.12-2.25 11.26-2.55 15.97-.77.46.174 1.36.615 2.004.982l1.168.666-.078-.4c-.043-.218-.506-3.11-1.028-6.427-.526-3.31-.98-6.05-1.018-6.09-.035-.03-2.877-.56-6.316-1.17-3.44-.61-6.22-1.14-6.18-1.18.04-.04 2.918-.36 6.394-.72s6.366-.702 6.42-.77c.055-.06.435-2.933.843-6.38.448-3.77.787-6.125.852-5.916.06.19.494 3.01.965 6.264.472 3.255.913 5.95.98 5.994.068.043 3.097.416 6.73.83 3.634.414 6.582.778 6.553.807-.03.03-2.973.557-6.54 1.172-3.568.615-6.532 1.19-6.586 1.28-.172.277-1.878 12.546-1.78 12.8.127.33 2.486 1.495 3.994 1.97 2.81.886 6.14 1.21 8.85.858zM83.36 27.49c-.64-.06-1.476-.155-1.86-.213l-.696-.104V25.21c0-1.08.017-1.962.038-1.96.02 0 .584.1 1.252.222 2.152.39 4.156.247 4.817-.34.32-.282.36-1.142.06-1.388-.113-.096-1.042-.478-2.063-.85-2.895-1.052-3.64-1.61-4.174-3.12-.25-.704-.32-2.343-.136-3.107.352-1.47 1.54-2.897 2.922-3.517 1.07-.48 3.246-.63 5.125-.35l1.27.19v1.972c0 1.82-.02 1.964-.266 1.86-.146-.063-1.056-.146-2.02-.186-1.43-.06-1.847-.026-2.235.174-.923.476-1.02 1.406-.19 1.834.242.126 1.182.493 2.087.816 2.035.726 2.42.926 3.02 1.564 1.7 1.805 1.604 5.02-.204 6.88-.753.776-2.163 1.408-3.54 1.586-1.254.163-1.526.163-3.202.003zM8.135 19.227V11.26h4.394c4.1 0 4.45.02 5.25.32 1.96.734 3.13 2.513 3.35 5.094.24 2.793-1.01 5.187-3.32 6.36-1.16.586-2.32.818-4.1.818h-1.63v3.337H8.135v-7.97zm7.285.645c.764-.52 1.135-1.364 1.125-2.565-.007-.834-.08-1.117-.417-1.627-.598-.902-1.15-1.14-2.686-1.148l-1.29-.01-.04 2.845-.042 2.844h1.422c1.225 0 1.492-.05 1.925-.34zm7.733-.645V11.26H27.4v6.068h4.704V11.26h4.248v15.93h-4.248v-6.523h-4.702v6.522h-4.25v-7.97zm16.537-.076v-8.04h4.4v16.08h-4.4v-8.04zm7.435.08v-7.97h4.248V23.7h4.4v3.49h-8.65v-7.966zm10.923-.074v-8.04h4.4v16.08h-4.4v-8.04zm7.736 0v-8.04h4.233c3.81 0 4.33.03 5.218.304 2.438.753 3.763 3.154 3.558 6.446-.146 2.346-1.352 4.096-3.582 5.2-1.06.526-1.21.556-3.18.654-1.14.056-2.083.11-2.104.12-.02.01-.037.77-.037 1.685v1.67h-4.1V19.15zm7.133.715c.92-.486 1.287-1.235 1.287-2.622 0-.906-.062-1.165-.404-1.68-.563-.85-1.197-1.114-2.692-1.114H69.88v5.765h1.19c.948 0 1.324-.07 1.847-.347z" fill-rule="nonzero"/></svg>