<svg viewBox="0 0 64 64" xmlns="http://www.w3.org/2000/svg" fill-rule="evenodd" clip-rule="evenodd" stroke-linejoin="round" stroke-miterlimit="1.414"><path d="M32 48.834c17.673 0 32-7.537 32-16.834 0-9.296-14.327-16.833-32-16.833-17.673 0-32 7.537-32 16.833 0 9.297 14.327 16.834 32 16.834zm6.23-11.797l1.525-7.85c.344-1.772.058-3.094-.85-3.93-.88-.807-2.375-1.2-4.568-1.2h-2.642l.756-3.89c.03-.146-.01-.298-.1-.413-.09-.115-.23-.182-.38-.182h-3.65c-.24 0-.446.17-.49.405l-1.62 8.334c-.15-.93-.51-1.74-1.09-2.4-1.07-1.223-2.763-1.844-5.03-1.844h-7.07c-.24 0-.445.17-.49.405L9.25 41.34c-.028.145.01.296.106.412.095.116.236.18.386.18h3.674c.24 0 .446-.167.49-.402l.794-4.08h2.736c1.435 0 2.64-.156 3.583-.463.96-.312 1.84-.843 2.63-1.574.63-.58 1.15-1.227 1.55-1.93l-.66 3.373c-.03.147.01.298.104.414.095.116.236.183.386.183h3.647c.24 0 .444-.17.49-.406l1.8-9.26h2.5c1.066 0 1.38.213 1.463.304.08.088.24.38.06 1.306l-1.45 7.465c-.03.147.01.298.105.414.094.115.235.182.385.182h3.704c.24 0 .442-.17.49-.404zm15.59-11.135c-1.07-1.224-2.76-1.845-5.028-1.845h-7.066c-.24 0-.445.17-.49.405l-3.28 16.87c-.028.146.01.297.105.413.1.115.24.18.39.18h3.68c.24 0 .446-.168.49-.403l.795-4.08h2.735c1.436 0 2.64-.156 3.583-.463.963-.32 1.85-.85 2.63-1.58.65-.6 1.187-1.27 1.594-2 .406-.728.697-1.538.867-2.41.417-2.15.08-3.865-.995-5.098zm-32.493 4.65c-.23 1.176-.66 2.015-1.283 2.494-.632.487-1.643.733-3.005.733h-1.63l1.17-6.06h2.104c1.547 0 2.17.33 2.42.6.35.383.42 1.152.214 2.222zm28.682 0c-.23 1.176-.67 2.015-1.29 2.494-.63.487-1.646.733-3.008.733h-1.63l1.18-6.06h2.105c1.547 0 2.17.33 2.42.6.347.383.42 1.152.213 2.222z" fill="#fff"/></svg>