<svg viewBox="0 0 128 68" xmlns="http://www.w3.org/2000/svg" fill-rule="evenodd" clip-rule="evenodd" stroke-linejoin="round" stroke-miterlimit="1.414"><path d="M64 67.667c35.346 0 64-15.074 64-33.668S99.346.33 64 .33C28.654.332 0 15.407 0 34s28.654 33.667 64 33.667zm12.46-23.594l3.05-15.7c.688-3.544.116-6.188-1.7-7.86-1.76-1.614-4.75-2.4-9.136-2.4H63.39l1.512-7.78c.06-.292-.02-.596-.2-.826-.18-.23-.46-.364-.76-.364h-7.3c-.48 0-.892.34-.98.81l-3.24 16.668c-.3-1.86-1.02-3.48-2.18-4.8-2.14-2.442-5.526-3.684-10.06-3.684h-14.14c-.48 0-.89.34-.98.81L18.5 52.68c-.056.29.02.59.212.823.19.232.472.36.772.36h7.348c.48 0 .892-.334.98-.804L29.4 44.9h5.472c2.87 0 5.28-.313 7.166-.927 1.92-.624 3.68-1.686 5.26-3.148 1.26-1.16 2.3-2.454 3.1-3.86l-1.32 6.746c-.06.298.02.6.208.83.19.23.472.368.772.368h7.294c.48 0 .888-.34.98-.812l3.6-18.52h5c2.132 0 2.76.426 2.926.608.16.177.48.76.12 2.613l-2.9 14.93c-.06.294.02.596.21.828.188.23.47.365.77.365h7.408c.48 0 .884-.34.98-.81l.014-.033zm31.18-22.27c-2.14-2.448-5.52-3.69-10.056-3.69H83.452c-.48 0-.89.34-.98.81l-6.56 33.74c-.056.292.02.594.21.826.2.23.48.36.78.36h7.36c.48 0 .892-.34.98-.81l1.59-8.16h5.47c2.872 0 5.28-.31 7.166-.926 1.926-.64 3.7-1.7 5.26-3.16 1.3-1.2 2.374-2.54 3.188-4 .812-1.456 1.394-3.076 1.734-4.82.834-4.3.16-7.73-1.99-10.196l-.02.022zm-64.986 9.3c-.46 2.352-1.32 4.03-2.566 4.988-1.264.978-3.286 1.47-6.01 1.47h-3.26l2.34-12.12h4.208c3.094 0 4.34.66 4.84 1.2.7.766.84 2.304.428 4.444l.02.023zm57.364 0c-.46 2.352-1.34 4.03-2.58 4.988-1.26.978-3.292 1.47-6.016 1.47h-3.26l2.36-12.12h4.21c3.094 0 4.34.66 4.84 1.2.694.766.84 2.304.426 4.444l.02.023z"/></svg>