<svg viewBox="0 0 129 21" xmlns="http://www.w3.org/2000/svg" fill-rule="evenodd" clip-rule="evenodd" stroke-linejoin="round" stroke-miterlimit="1.414"><path d="M127.096 20.39c.042-.292.064-.586.073-1v-.373l.08.03.006.148c.012.257.02.295.067.376.055.1.197.23.3.28.133.07.233.1.38.1.15 0 .24-.02.362-.08.256-.13.38-.414.302-.713-.055-.21-.165-.326-.55-.584-.344-.23-.473-.33-.585-.45-.238-.25-.294-.56-.15-.84.08-.163.19-.273.35-.354.157-.076.25-.095.47-.095.21 0 .37.028.503.08l.09.038c.015.006.024-.025.056-.185l.04-.19.04-.01c.02-.003.04-.004.044-.002.003.003-.005.08-.018.173-.04.283-.07.61-.077.805-.01.175-.01.19-.03.182-.07-.02-.066-.005-.07-.19-.007-.22-.026-.266-.158-.395-.1-.096-.19-.15-.317-.18-.09-.024-.31-.02-.395.01-.247.078-.382.26-.365.496.01.22.12.33.64.668.28.18.395.27.505.387.14.148.217.288.25.46.02.11.01.336-.023.44-.11.35-.4.58-.81.65-.204.03-.54.004-.757-.064-.05-.016-.092-.028-.093-.025-.002.003-.023.098-.046.213-.05.26-.05.244-.08.252-.05.013-.053.01-.05-.043zm-47.7 0c.043-.292.064-.586.074-1l.007-.373.042.014.04.02v.15c.01.26.02.3.065.38.055.094.197.228.3.28.134.07.233.096.38.096.15 0 .24-.02.362-.082.256-.13.377-.416.3-.715-.052-.207-.162-.325-.55-.583-.34-.23-.47-.328-.582-.448-.237-.255-.293-.56-.15-.844.08-.163.19-.273.354-.354.154-.076.246-.095.467-.095.212 0 .373.025.504.08l.09.035c.014.004.023-.027.055-.187l.04-.19.04-.01c.02-.004.04-.005.044-.003 0 .002-.008.08-.02.172-.037.283-.068.61-.076.805-.01.175-.01.19-.03.182-.07-.02-.065-.005-.07-.19-.008-.22-.026-.267-.158-.396-.1-.095-.19-.15-.317-.18-.09-.023-.31-.017-.395.01-.248.08-.38.263-.367.497.014.22.12.327.643.665.28.18.396.27.507.387.14.15.215.29.25.46.02.108.007.336-.025.438-.11.35-.4.58-.81.65-.204.033-.54.006-.757-.062-.05-.013-.092-.025-.094-.022-.002.002-.022.097-.046.212-.055.26-.05.244-.08.252-.052.012-.056.01-.05-.044zm40.364-.322c-.424-.052-.735-.196-1-.464-.236-.237-.366-.477-.422-.78-.03-.167-.028-.485.006-.644.074-.343.218-.608.468-.858.418-.42.948-.594 1.626-.535.27.023.49.082.696.185.437.218.715.572.813 1.034.025.113.027.387.007.537-.12.84-.75 1.434-1.63 1.53-.15.017-.407.015-.564-.005zm-62.164 0c-.425-.052-.736-.196-1.002-.464-.235-.237-.364-.477-.42-.78-.032-.167-.03-.485.005-.644.07-.343.21-.608.46-.858.42-.42.95-.594 1.624-.535.27.023.49.082.696.185.437.218.715.572.814 1.034.024.113.027.387.006.537-.12.84-.752 1.434-1.63 1.53-.15.017-.407.015-.563-.005zm45.517-.05l.01-.033c.01-.026.02-.03.113-.036.15-.02.33-.05.348-.06.046-.05.05-2.82.005-2.87-.01-.01-.23-.047-.39-.06-.078-.01-.09-.02-.096-.056 0-.015.12-.017 1.026-.017 1.068 0 1.075 0 1.388.053.384.064.643.183.87.397.115.11.182.202.242.33.09.193.12.393.094.64-.068.634-.43 1.14-1.03 1.426-.326.156-.66.237-1.098.267-.17.012-1.495.018-1.495.008zM24.606 20c.003-.007.006-.022.006-.03 0-.01.042-.02.13-.034.204-.03.215-.035.228-.086.055-.21.198-2.78.198-2.833 0-.01-.076-.027-.25-.052l-.14-.02c-.002-.002-.006-.016-.01-.03l-.007-.03h.58c.478 0 .578.002.57.015l-.003.03s-.054.024-.14.04c-.075.016-.144.032-.15.037-.01.007 0 .05.04.175.166.497.933 2.128.957 2.152.004.004.01.005.01.002.02-.02 1.12-2.298 1.12-2.326 0-.007-.09-.027-.202-.046-.114-.02-.133-.028-.133-.062 0-.015.07-.018.534-.018.44 0 .533.003.528.016-.002.008-.005.022-.005.03 0 .01-.04.02-.13.035-.07.01-.15.025-.176.03l-.05.013.017.09c.07.37.06 2.547.114 2.752.014.05.027.055.22.085.117.018.15.034.15.068 0 .008-.192.012-.623.012h-.623l.006-.03c0-.03.005-.03.09-.038.138-.012.38-.048.39-.057.01-.01.004-.22-.012-.813-.014-.473.006-1.73-.01-1.787l-.01-.035-.033.07c-.053.12-.36.633-.727 1.42-.368.786-.51 1.147-.54 1.2l-.016.034-.014-.03c-.02-.04-.4-1.04-.8-2.01-.17-.408-.38-.743-.38-.746-.01-.01.01 0 .02.602.01.63-.036 1.005-.04 1.453 0 .27-.03.62-.016.63.005.005.113.023.242.04.23.03.234.03.24.057l.01.03h-.58c-.475 0-.576-.003-.57-.015zm25.053.007l.01-.032c.01-.025.02-.03.05-.03.06 0 .4-.05.41-.062.03-.03.034-2.83 0-2.862l-.4-.06c-.053 0-.063-.01-.07-.03l-.01-.03h.675c.67 0 .673 0 .667.027-.004.01-.01.026-.015.03-.005.004-.11.02-.235.04l-.228.03-.01.066c-.012.084-.01 2.598 0 2.714.012.105-.015.09.268.13.21.023.218.026.225.073 0 .002-.302.005-.673.005-.37 0-.674-.003-.674-.004zm-31.61 0l.01-.032c.01-.025.02-.03.055-.03.064 0 .405-.05.414-.062.033-.03.035-2.83.003-2.862l-.4-.06c-.056 0-.066-.01-.073-.03l-.006-.03h.672c.666 0 .67 0 .664.027-.006.01-.01.026-.017.03-.005.004-.11.02-.235.04l-.226.03-.01.066c-.013.084-.01 2.598 0 2.714.01.105-.016.09.267.13.21.023.22.026.222.073 0 .002-.302.005-.673.005-.37 0-.674-.003-.674-.004zm93.765 0l.01-.032c.01-.025.02-.03.057-.03.064 0 .405-.05.414-.062.033-.03.035-2.83.003-2.862l-.4-.06c-.055 0-.065-.01-.07-.03l-.01-.03h.673c.667 0 .672 0 .666.027-.004.01-.01.026-.015.03-.003.004-.11.02-.233.04l-.227.03-.007.066c-.01.084-.01 2.598 0 2.714.01.105-.017.09.27.13.204.023.213.026.22.073 0 .002-.3.005-.674.005-.376 0-.68-.003-.68-.004zM.99 19.965c.007-.028.018-.03.175-.056.25-.04.223-.03.292-.19.093-.22.24-.59.44-1.117.217-.568.64-1.698.646-1.724.003-.015-.032-.025-.176-.048l-.182-.03-.008-.03-.008-.03H3.4l-.003.03c-.004.03-.01.03-.17.055-.09.016-.17.032-.177.036-.004.005.037.147.09.315.292.9.722 2.043.965 2.56l.054.117.063.012.2.032c.123.016.132.02.14.05l.007.03H3.9c-.372 0-.677-.007-.677-.01 0-.04.026-.055.117-.06.125-.014.333-.046.35-.058.012-.01-.012-.09-.09-.32-.124-.375-.287-.84-.34-.98l-.04-.1-.278.01c-.278.007-.598.024-.76.04l-.09.006-.058.19c-.18.564-.323 1.127-.294 1.154.012.01.253.06.3.06.02 0 .033.01.042.03l.01.03c0 .003-.25.004-.555.004H.982l.007-.03zm32.598 0c.007-.028.018-.03.175-.056.25-.04.223-.03.292-.19.093-.22.24-.59.44-1.117.217-.568.64-1.698.646-1.724.01-.015-.03-.025-.17-.048l-.18-.03-.01-.03-.005-.03h1.238l-.003.03c-.003.03-.01.03-.17.055-.094.016-.173.032-.177.036-.003.005.037.147.09.315.29.9.723 2.043.966 2.56l.053.117.068.012.2.032c.124.016.133.02.14.05l.01.03h-.68c-.373 0-.677-.007-.677-.01 0-.04.024-.055.114-.06.125-.014.333-.046.352-.058.01-.01-.015-.09-.09-.32-.127-.375-.29-.84-.343-.98l-.04-.1-.277.01c-.28.007-.6.024-.76.04l-.086.006-.06.19c-.18.564-.322 1.127-.294 1.154.014.01.254.06.3.06.02 0 .034.01.043.03l.01.03c0 .003-.25.004-.56.004h-.557l.01-.03zm62.543-.024c-.44-.06-.76-.33-.89-.74-.07-.22-.07-.21-.08-1.2-.004-.49-.01-.92-.016-.94-.01-.04-.012-.04-.222-.07-.11-.02-.126-.025-.126-.06 0-.014.073-.015.587-.015.516 0 .588 0 .588.017 0 .008-.003.02-.01.028-.002.007-.105.026-.226.042-.12.013-.222.03-.225.032-.013.013-.027.797-.023 1.226.006.49.015.592.07.806.12.46.406.724.82.754.232.017.443-.017.613-.1.195-.093.344-.298.405-.558.033-.137.04-.227.048-.543.01-.29-.01-1.578-.02-1.587-.004-.003-.28-.042-.38-.052-.07-.006-.08-.01-.09-.037l-.01-.03h1.1l-.01.028c-.01.03-.02.03-.154.06-.08.015-.15.034-.154.04-.012.024-.02.58-.016 1.05.007.505 0 .68-.036.867-.11.57-.48.925-1.048.993-.138.013-.358.01-.48-.008zm24.41-.05c.557-.09.947-.47 1.07-1.04.035-.16.04-.46.007-.61-.135-.64-.62-1.13-1.257-1.27-.156-.03-.484-.03-.65.01-.68.15-1.072.638-1.072 1.328 0 .577.366 1.158.907 1.44.312.16.63.21.994.15zm-62.164 0c.556-.09.946-.47 1.07-1.04.034-.16.037-.46.005-.61-.135-.64-.62-1.13-1.257-1.27-.154-.03-.48-.03-.647.01-.68.15-1.074.638-1.074 1.328 0 .577.367 1.158.908 1.44.315.16.63.21.995.15zm46.47-.03c.446-.04.87-.23 1.15-.51.17-.17.298-.38.36-.61.028-.103.03-.13.03-.343 0-.214-.002-.24-.03-.347-.037-.138-.123-.318-.203-.423-.306-.403-.84-.59-1.7-.593-.15 0-.313.004-.36.01l-.09.01-.006.04c-.004.024-.013.35-.02.726-.01.52-.01.825 0 1.295.006.337.015.63.02.655.007.05.02.053.2.084.205.035.415.04.648.016zm-93.032-.42c-.67-.832-1.77-2.184-1.82-2.24l-.03-.03.008.62c.017 1.294.04 2.06.067 2.076.014.01.154.027.36.046l.15.014.01.03.006.03h-.62c-.505 0-.61-.005-.607-.017.003-.008.005-.02.005-.03 0-.01.05-.02.152-.033.19-.022.24-.035.248-.06.023-.08.058-1 .088-2.29.01-.395.01-.53 0-.536-.015-.01-.08-.02-.307-.04l-.167-.02c-.003-.003-.008-.02-.01-.035l-.01-.03.26-.008.445-.015.184-.006.083.12c.22.3.745.974 1.446 1.85l.53.663.05.064.003-.26c.008-.574-.026-2.105-.05-2.253-.006-.04-.008-.04-.077-.052-.04-.007-.147-.02-.242-.032l-.173-.02-.01-.03-.007-.03h.59c.586 0 .59 0 .584.026-.003.014-.01.03-.013.03-.002.007-.083.025-.177.04-.096.018-.176.034-.178.036-.01.007-.035.283-.048.504-.016.257-.03.84-.046 1.863l-.016.84c0 .044-.02.023-.66-.78zm55.406 0c-.68-.85-1.795-2.22-1.848-2.273l-.03-.03.008.624c.016 1.315.04 2.093.067 2.11.017.01.16.027.366.046l.155.013s.006.014.01.03l.007.028h-.62c-.515 0-.623-.003-.62-.015.004-.01.006-.022.006-.03 0-.01.05-.02.16-.035.19-.024.237-.037.245-.063.023-.08.06-1.015.09-2.325.007-.4.006-.54-.003-.546-.017-.01-.08-.018-.313-.04-.09-.01-.17-.018-.17-.02l-.01-.034-.008-.03.264-.01.45-.014.185-.007.088.12c.223.31.757.99 1.47 1.88l.535.67.052.064.003-.265c.008-.584-.026-2.138-.05-2.287-.007-.04-.01-.042-.08-.054-.04-.007-.15-.02-.246-.03l-.18-.02-.01-.03-.004-.03h.6c.594 0 .6 0 .592.02-.006.013-.01.027-.017.03 0 .006-.084.023-.18.04-.095.017-.176.033-.18.036-.01.008-.033.288-.046.512-.016.26-.03.85-.047 1.89l-.016.85c0 .042-.02.02-.67-.79zM3.19 18.366c0-.02-.313-.92-.422-1.216l-.075-.21-.02.04c-.032.06-.144.35-.29.74-.176.48-.22.604-.21.615.005.005.18.012.39.015l.503.01h.123zm32.597 0c0-.02-.31-.92-.42-1.216l-.076-.21-.02.04c-.03.06-.14.35-.28.74-.18.48-.22.604-.21.615.006.005.18.012.39.015l.505.01h.12zm6.41 1.57l.006-.026c.004-.02.008-.03.01-.03l.268-.03c.15-.02.28-.03.28-.04.01-.008.01-.146.02-.31.01-.385.01-2.057 0-2.287l-.006-.176h-.26c-.355.003-.613.03-.813.085-.107.03-.146.05-.16.083-.004.014-.02.086-.033.16-.045.257-.04.25-.08.26-.02.008-.036.01-.04.01l.02-.23c.026-.287.045-.58.045-.715v-.11l.074.017.01.103c.003.06.01.122.014.142l.006.036.097.008c.58.04 2.28.04 2.71-.004l.074-.007.025-.1c.012-.057.024-.116.024-.13 0-.024.008-.034.026-.04.044-.012.064-.01.06.01-.01.04-.05.346-.09.697-.026.19-.046.35-.048.352 0 .002-.02 0-.036-.004l-.033-.006v-.242l.004-.244-.075-.025c-.16-.053-.56-.1-.93-.11l-.225-.01-.01.19c-.01.25-.01 1.777 0 2.236l.01.355.03.006c.016.006.14.02.277.034l.25.026.01.03.006.027H42.2zm45.174 0l.01-.026.01-.03.27-.03c.15-.02.27-.03.28-.04.006-.008.01-.146.017-.31.01-.385.008-2.057 0-2.287l-.01-.176h-.26c-.352.003-.61.03-.81.085-.106.03-.146.05-.16.083-.005.014-.02.086-.033.16-.045.257-.042.25-.08.26-.02.008-.04.01-.04.01s.008-.104.02-.23c.025-.287.044-.58.044-.715v-.11l.073.017.007.103c0 .06.01.122.01.142l.008.036.1.008c.58.04 2.28.04 2.71-.004l.076-.007.025-.1c.012-.057.024-.116.024-.13 0-.024.01-.034.027-.04.047-.012.067-.01.06.01-.01.04-.05.346-.09.697-.023.19-.043.35-.045.352-.002.002-.02 0-.04-.004l-.033-.006.002-.242v-.244l-.073-.025c-.16-.053-.56-.1-.93-.11l-.226-.01-.01.19c-.01.25-.01 1.777 0 2.236l.01.355.03.006c.017.006.14.02.278.034l.25.026.01.03.006.027h-1.51zM20.31 11.61c.014-.267.045-.28.954-.39l.867-.107.04-.212c.05-.24.04-5.15 0-8.09L22.13.75l-.238-.07c-.13-.04-.52-.09-.866-.116-.64-.046-.72-.076-.72-.28-.002-.09.15-.094 2.425-.094 3.62 0 4.66.115 5.647.625.725.38 1.222 1.036 1.282 1.7.054.608-.21 1.5-.627 2.104-.596.864-1.857 1.67-3.142 2-.76.195-.88.21-.88.096.005-.267.06-.318.56-.516.623-.245 1.04-.51 1.365-.876.536-.6.745-1.25.71-2.22-.017-.555-.035-.648-.187-.97-.418-.89-1.3-1.36-2.71-1.448L24.18.65l-.047.232c-.05.262-.043 8.428.01 9.5.032.654.04.7.148.73.07.017.52.068 1.02.113.498.045.93.092.968.104.038.01.068.08.068.15v.13H23.97c-1.306 0-2.664.016-3.018.035-.535.03-.643.022-.64-.04zm19.646-.062c0-.066.018-.144.04-.175.02-.03.314-.085.65-.12.34-.037.73-.095.87-.13.253-.062.253-.062.288-.325.074-.565.018-9.837-.062-9.965-.02-.03-.412-.105-.872-.164-.46-.06-.84-.12-.845-.12C40.02.55 40 .48 39.98.4l-.036-.144h2.442C43.73.256 45.014.24 45.24.22l.41-.034-.038.153c-.02.08-.054.16-.074.18-.02.02-.408.08-.864.135-.455.055-.846.12-.867.14-.054.053-.076 7.322-.027 8.942l.04 1.313.262.065c.144.038.532.09.862.12.33.03.606.06.614.066.01.01.03.075.048.147l.033.13-2.73.014c-1.5.008-2.78.025-2.84.04-.1.024-.12.008-.12-.09zm26.392.247c-.906-.74-2.522-2.476-4.59-4.932-.226-.268-.432-.487-.458-.487-.177 0-2.302 3.242-2.888 4.407l-.163.325.51.086c.28.048.58.098.68.112.15.023.22.104.22.25 0 .046-.546.063-2.136.068l-2.134.006.033-.112c.053-.183.133-.225.543-.29.545-.086.69-.17 1.144-.657.545-.58 3.174-3.89 3.73-4.69.036-.05-.052-.19-.32-.51-.203-.24-.927-1.18-1.61-2.1-.68-.91-1.402-1.85-1.603-2.08-.345-.4-.38-.42-.705-.51-.185-.05-.425-.09-.535-.09-.173 0-.197-.02-.197-.13 0-.072-.004-.14-.012-.15C55.85.298 57 .27 58.413.258c2.4-.03 2.568-.027 2.568.06 0 .17-.08.21-.63.293-.304.05-.62.106-.7.127l-.143.04.36.55c.715 1.1 2.157 3.104 2.235 3.107.11.006 1.98-2.633 2.417-3.41.16-.284.146-.293-.537-.413-.475-.08-.51-.096-.535-.224-.014-.073-.022-.14-.018-.143.005-.002.88-.014 1.946-.024l1.94-.02-.034.16-.04.166c-.007.005-.245.057-.53.116-.508.105-.533.116-.81.387-.328.32-1.726 1.9-2.734 3.09l-.686.81.41.53c.41.522.59.772 2.495 3.46.813 1.143 2.02 2.8 2.252 3.093.04.05-.058.066-.454.066h-.504l-.33-.27zm9.207-.33c.027-.187-.022-.17.855-.307l.605-.095.197-.37c.374-.704 1.162-2.64 2.765-6.795.653-1.693 1.183-3.145 1.156-3.17-.012-.014-.256-.06-.542-.104-.79-.123-.75-.11-.75-.27V.208L82.35.19c2.31-.015 2.502-.01 2.47.07-.017.05-.032.117-.032.152 0 .043-.212.1-.606.16-.333.053-.62.115-.633.14-.02.022.25.843.6 1.823 1.26 3.57 2.33 6.31 3.06 7.846l.3.64.254.06c.246.06.952.16 1.134.17.054 0 .095.06.11.155l.02.15-2.77.024c-1.52.013-2.77.022-2.775.02-.004-.003.004-.077.02-.167l.022-.163.72-.09c.91-.113.972-.13.924-.24-.06-.134-.517-1.43-.84-2.375-.164-.48-.416-1.183-.56-1.567l-.267-.698h-.294c-.82 0-3.51.167-3.565.22-.116.116-.854 2.78-1.05 3.783-.073.376-.134.693-.134.704 0 .04.255.095.845.18.592.09.604.095.62.236l.02.14h-1.94c-1.07 0-2.06.015-2.21.032l-.27.033.025-.166zm33.19.214c-.883-.66-2.765-2.53-4.64-4.63l-.752-.84-.76.03c-.418.017-.78.05-.803.07-.05.046.017 4.53.07 4.616.05.082.338.14 1.083.213.614.06.64.066.67.192.02.07.026.136.018.144 0 .01-1.27.024-2.8.034l-2.79.02c-.006-.103.004-.19.067-.273.036-.027.43-.09.877-.14.453-.05.827-.117.848-.15.02-.033.055-.26.075-.508.04-.5-.02-9.37-.064-9.607C99.8.67 99.62.61 98.96.57c-.888-.052-.92-.06-.92-.235v-.15l1.902.002c5.287.006 6.468.184 7.297 1.102.515.57.57 1.32.152 2.17-.31.634-1.128 1.49-1.785 1.866l-.272.156.19.325c.27.466 1.773 2.71 2.393 3.577.622.87.95 1.29 1.534 1.97l.435.504-.33.056c-.183.033-.345.06-.36.06-.02 0-.217-.137-.443-.305zm-25.432-6c-.028-.074-.087-.2-.13-.29-.076-.145-.75-2.095-1.274-3.687-.13-.39-.24-.717-.25-.727-.07-.062-1.77 4.505-1.77 4.735 0 .028.59.055 1.33.06.73.01 1.51.024 1.73.03l.405.013-.05-.133zm19.88-.058c.73-.145 1.217-.394 1.686-.857.43-.426.61-.77.73-1.357.25-1.214-.548-2.22-2.06-2.605-.577-.15-1.63-.248-1.714-.163-.048.05-.068.697-.08 2.61l-.018 2.55.462-.037c.254-.02.697-.08.983-.14z"/></svg>