<svg viewBox="0 0 128 65" xmlns="http://www.w3.org/2000/svg" fill-rule="evenodd" clip-rule="evenodd" stroke-linejoin="round" stroke-miterlimit="1.414"><path d="M104.8 57.762h-.06c-1.97 0-3.598 1.626-3.598 3.64 0 1.97 1.627 3.598 3.6 3.598h.06c1.992-.02 3.578-1.627 3.578-3.6 0-1.99-1.586-3.597-3.58-3.638zm2.848 3.944c-.224 1.525-1.423 2.542-2.847 2.562-.38 0-.77-.06-1.15-.203-1.2-.59-1.87-1.606-1.77-2.948.227-1.627 1.548-2.643 2.93-2.623.795 0 1.587.325 2.197 1.057.488.7.69 1.29.65 2.16zm-4.432 1.87l.02-4.33h1.565c.41.02.8.163 1.08.386.33.224.49.53.49.875 0 .386-.14.71-.4.955-.284.224-.59.386-.894.386l1.34 1.708h-.69l-.915-1.2-.346-.467h-.55l.02 1.68h-.71zM15.368 32.268H1.096c-1.057 0-1.057 0-1.057.772v28.768c-.02-.02-.02 0-.05.02v.02c.02.163.203.63.812.63H7.72c.67 0 .67 0 .67-.61v-5.794c0-.792 0-.914.774-.914h6.2c3.295-.142 4.108-.915 4.108-4.656V36.15c0-3.19-.813-3.882-4.107-3.882zm56.377 0H48.202c-2.806 0-3.64.69-3.64 3.435V61.87c0 .61 0 .61.834.61h6.608c.914 0 .914 0 .914-.61V37.227c0-2.155 2.643-2.378 2.643 0v24.64c0 .61 0 .61 1 .61h6.59c.776 0 .776 0 .776-.61V37.23c0-2.033 2.643-2.155 2.643 0v24.64c0 .61 0 .61.833.61h6.77c.753 0 .753 0 .753-.61V35.542c0-2.58-.836-3.272-3.174-3.272zm22.85 0H81.24c-2.217 0-3.132.69-3.132 3.293v26.31c0 .61 0 .61.915.61h6.607c.834 0 .834 0 .834-.61V56c.08-.915.69-1.382 1.32-1.403.672-.02 1.343.47 1.343 1.485v5.794c0 .61 0 .61.834.61h6.86c.67 0 .67 0 .67-.61V35.54c0-2.58-.69-3.272-2.885-3.272zM104.66 61.34h-.733l-.02-1.626h.752c.06 0 .1.02.14.02.22.02.44.1.59.224.18.142.3.366.3.55 0 .242-.1.426-.307.588-.163.143-.367.223-.59.244h-.143zM41.98 32.96c0-.692-.142-.47-.772-.692h-6.83c-.753 0-.753 0-.753.69l-.02 23.808c0 2.338-2.643 2.277-2.643 0V32.96c0-.692 0-.692-.692-.692h-7.136c-.833 0-.833 0-.833.69v25.19c0 3.72.84 4.33 3.12 4.33h13.21c2.58 0 3.437-.69 3.356-4.106V32.96zM11.12 50.117c-.042.894-.712 1.34-1.363 1.34-.69 0-1.362-.466-1.362-1.422V36.923c0-.894.67-1.362 1.362-1.362.69 0 1.362.47 1.362 1.43v13.13zm78.007 0c0 .813-.67 1.22-1.342 1.2-.65 0-1.32-.407-1.32-1.2v-12.89c0-.894.67-1.32 1.32-1.32.67.02 1.342.466 1.342 1.32v12.89zm38.384-48.59c-.63-1.017-1.99-.712-3.64.08-2.13.916-5.97 5.185-6.91 7.564-.83 3.42-2.78 6.57-5.95 9.97-3.19 2.604-8.862 1.567-12.136-.51-.203 0-13.64-10.47-13.64-10.47-4.82-3.8-8.174-5.45-12.22-5.935-.203-.123-.386-.326-.447-.47-.63-1.4-.753-1.28-1.2-1.624-.53.407-.916.63-1.444.793-.244 0-.285 0-.427-.08-.326-.143-.67-.43-1.02-.45-.404.084-.73.897-1.28 1.71 0 0-.933.81-1.79 1.525-.323.285-.363.733-.59.997-.444.488-.973 1.28-1.054 1.28-.203.57-.285 1.078.08 1.34 0 .63.326.794.45.937.1.204.12.285.263.428.243.103.446.143.69.204 1.3 1.2 1.83 1.18 3.334.977 2.602.183 2.38 1.057 2.32 2.38-.164.2-.205.18-.388.283-1.16 0-2.38-.265-3.538-.265-2.54.225-4.74.67-4.536 3.74.164 1.2 2.34 2.868 3.478.61.16-1.035 1.036-.57 1.79-.324 4.553 1.97 8.19 2.99 10.61.937.733-.913 1.18-.263 1.933.286 3.66 4.35 8.903 7.176 16.974 7.277 2.684.67 4.737 1.79 5.754 4.43 2.5 6.403 5.672 11.567 10.33 14.27-.388 4.046-.226 7.4 3.86 8.275 1.078-.874-.426-2.196.814-5.164-.102-1.323-1.24-2.4-1.627-4.92-4.756-3.905-2.743-5.51-3.455-8.113-.06-3.8-.893-6.71-2.5-9.595-.182-.465.123-.81.55-1.054 2.684-2.012 4.15-3.984 4.8-5.895.994-3.398 2.682-6.06 5.08-7.97 2.034-1.63 3.965-2.137 6.16-3.58 1.363-2.238 1.16-2.848.53-3.865z"/></svg>