<svg viewBox="0 0 129 38" xmlns="http://www.w3.org/2000/svg" fill-rule="evenodd" clip-rule="evenodd" stroke-linejoin="round" stroke-miterlimit="1.414"><path d="M25.325 35.533c0 1.03-4.372 1.88-9.686 1.88-5.32 0-9.69-.85-9.69-1.88 0-1.03 4.37-1.878 9.68-1.878s9.68.848 9.68 1.878zm-1.647-26.7v3.21c0 2.488-2.11 4.582-4.515 4.582h-7.22c-1.978 0-3.615 1.693-3.615 3.673v6.883c0 1.96 1.704 3.12 3.615 3.68 2.288.68 4.482.8 7.22 0 1.82-.52 3.614-1.58 3.614-3.67v-2.76h-7.22v-.92H26.39c2.102 0 2.885-1.46 3.615-3.66.755-2.26.723-4.44 0-7.34-.52-2.09-1.51-3.664-3.614-3.664h-2.71zm-4.06 17.43c.75 0 1.356.614 1.356 1.373a1.37 1.37 0 0 1-1.357 1.382c-.746 0-1.356-.62-1.356-1.382 0-.76.61-1.373 1.36-1.373zM4.94 23.508c-2.1 0-3.328-1.525-3.842-3.665-.693-2.874-.663-4.592 0-7.346.576-2.402 2.415-3.665 4.516-3.665h9.94v-.918H8.33V5.16c0-2.086.556-3.218 3.615-3.758a20.616 20.616 0 0 1 3.454-.295 22.546 22.546 0 0 1 3.76.295c1.96.327 3.61 1.8 3.61 3.757v6.88c0 2.02-1.61 3.67-3.62 3.67h-7.22c-2.45 0-4.52 2.1-4.52 4.49v3.3H4.94zm100.664-7.793c0 2.147-.55 3.934-1.645 5.36-1.21 1.598-2.87 2.4-5 2.4-2.11 0-3.75-.802-4.94-2.4-1.08-1.426-1.61-3.213-1.61-5.36 0-2.018.58-3.715 1.74-5.098 1.23-1.467 2.84-2.202 4.84-2.202 1.99 0 3.61.736 4.87 2.202 1.16 1.383 1.74 3.08 1.74 5.098zm-29.937 7.66a9.58 9.58 0 0 1-.792.034c-1.36 0-2.418-.33-3.174-.98-.75-.65-1.13-1.55-1.13-2.69v-9.46h-1.64V8.77h1.65V4.76l2.4-.854v4.87h2.7v1.51h-2.7v9.394c0 .9.24 1.54.73 1.914.42.307 1.08.483 1.978.528v1.25zm43.705-.197h-2.4v-9.796c0-1.075-.325-1.913-.97-2.518-.647-.6-1.51-.893-2.584-.87-1.14.022-2.225.395-3.255 1.117v12.07h-2.402V10.82c1.39-1.006 2.66-1.663 3.82-1.97 1.1-.287 2.06-.43 2.9-.43.57 0 1.11.057 1.61.167.95.22 1.71.626 2.3 1.22.66.657.99 1.445.99 2.367v11.01zm-16.4-7.48c0-1.507-.285-2.752-.856-3.738-.68-1.2-1.732-1.834-3.157-1.9-2.64.153-3.95 2.04-3.95 5.655 0 1.658.27 3.043.82 4.154.7 1.41 1.76 2.11 3.17 2.09 2.64-.02 3.96-2.11 3.96-6.26zm-54.122.38c0-3.926-1.12-5.942-3.358-6.052-.89-.042-1.76.1-2.606.43-.677.24-1.13.48-1.37.72v9.37c1.43.9 2.703 1.318 3.812 1.252 2.347-.155 3.52-2.06 3.52-5.72zm17.44 5.752c0 2.675-.268 4.527-.804 5.557-.54 1.03-1.564 1.853-3.078 2.465-1.227.484-2.554.746-3.978.79l-.397-1.513c1.448-.2 2.468-.4 3.06-.6 1.163-.4 1.962-1 2.4-1.81.353-.66.526-1.92.526-3.78v-.63a12.34 12.34 0 0 1-5.17 1.11c-1.19 0-2.23-.37-3.13-1.115-1.01-.81-1.52-1.84-1.52-3.09V9.24l2.402-.823V18.48c0 1.073.344 1.9 1.04 2.482.692.58 1.59.86 2.69.838 1.1-.023 2.28-.45 3.535-1.282V8.778h2.4V21.83zm23.918 1.348h-2.4v-9.27c0-.944-.222-1.756-.66-2.434-.508-.767-1.212-1.15-2.116-1.15-1.1 0-2.478.58-4.13 1.74V23.18H78.5V1.018l2.4-.756v10.093c1.536-1.117 3.212-1.677 5.033-1.677 1.272 0 2.302.428 3.09 1.282.79.854 1.186 1.92 1.186 3.19v10.028zM51.616 16.24c0 1.995-.468 3.65-1.408 4.967-1.05 1.49-2.502 2.257-4.36 2.3-1.4.044-2.843-.395-4.328-1.315v8.517l-2.402-.86v-18.9c.394-.49.9-.9 1.516-1.25 1.43-.84 3.166-1.27 5.21-1.29l.035.03c1.86-.03 3.3.74 4.32 2.3.94 1.42 1.41 3.25 1.41 5.49zm72.437-9.603h.42v-2.64h1V3.68h-2.417v.316h.997v2.64zm1.792 0h.36V4.225l.78 2.41h.4l.815-2.402v2.404h.39V3.68h-.518l-.89 2.533-.757-2.532h-.58v2.96zM11.488 3.323c.746 0 1.356.62 1.356 1.382 0 .76-.61 1.373-1.356 1.373-.75 0-1.357-.614-1.357-1.373 0-.763.61-1.382 1.36-1.382z"/></svg>