<svg viewBox="0 0 66 128" xmlns="http://www.w3.org/2000/svg" fill-rule="evenodd" clip-rule="evenodd" stroke-linejoin="round" stroke-miterlimit="1.414"><path d="M19.306 127.65h.348v-4.325h-.348v-.226h2.012c.146 0 .303.03.457.08.155.05.307.13.442.23.143.12.26.26.34.41.08.156.118.335.118.514 0 .18-.04.36-.117.514-.08.157-.198.3-.34.42-.136.096-.288.174-.443.23-.154.052-.31.082-.457.082h-.883v2.06h.348v.223h-1.477v-.226zm-15.31 0h.347v-4.325h-.348v-.226h2.01c.148 0 .305.03.46.08.154.05.306.13.44.23.145.12.262.26.342.41.078.156.118.335.118.514 0 .18-.04.36-.118.514-.08.157-.197.3-.34.42-.136.096-.288.174-.442.23-.126.043-.253.07-.375.08v.002l1.428 2.06h.362v.223H6.744l-1.584-2.28h-.036v2.06h.348v.223H3.995v-.227zm43.35 0h.347v-4.325h-.348v-.226h2.01c.148 0 .305.03.46.08.154.05.306.13.44.23.144.12.262.26.34.41.08.156.12.335.12.514 0 .18-.04.36-.12.514-.078.157-.196.3-.34.42-.134.096-.286.174-.44.23-.126.043-.254.07-.376.08v.002l1.42 2.06h.36v.223h-1.13l-1.582-2.285h-.036v2.06h.347v.225h-1.48v-.227zm-7.722-4.55l-1.48 4.55h-.37v.224h1.046v-.225h-.41l.527-1.62h1.384l.53 1.62h-.42v.22h1.48v-.23h-.272l-1.48-4.55h-.525zm-28.54 0L9.6 127.65h-.37v.224h1.047v-.225h-.41l.526-1.62h1.384l.526 1.62h-.422v.22h1.48v-.23h-.27l-1.48-4.55h-.52zm3.652 4.774v-.225h.348v-4.33h-.348v-.23h1.477v.225h-.348v4.324h.817c.22 0 .388-.077.516-.2.128-.12.216-.29.276-.473.06-.18.094-.38.114-.56.02-.18.026-.344.03-.46h.325v1.917h-3.207zm18.46 0v-.225h.346v-4.33h-.347v-.23h1.476v.225h-.34v4.324h.82c.22 0 .39-.077.517-.2.127-.12.215-.29.276-.473.06-.18.094-.38.114-.56.02-.18.023-.344.03-.46h.322v1.917H33.2zm12.555-1.216v-3.333h.29v-.226h-.87v.22h.29v3.27c0 .317-.11.567-.28.74-.163.177-.39.28-.61.3-.224.023-.448-.034-.615-.175-.17-.14-.28-.365-.28-.68v-3.46h.39v-.226h-1.52v.225h.35v3.333c0 .18.037.36.105.516.067.16.166.305.287.427.12.12.265.22.425.287.178.073.398.11.618.11.22 0 .44-.037.616-.11.16-.07.305-.167.426-.288.12-.123.217-.267.285-.427.07-.16.107-.336.107-.52zm11.65.99h.31v-4.323h-.31v-.226h1.22l1.946 3.27v-3.05h-.354v-.23h.957v.225h-.307v4.55h-.296l-2.552-4.296v4.07h.357v.224h-.96v-.226zm-18.39-1.844l.62-1.9.62 1.9h-1.24zm-28.54 0l.62-1.9.62 1.9h-1.24zm9.97-2.48v2.04h.4c.15-.004.28-.017.396-.04.113-.026.208-.064.287-.116.078-.052.14-.12.186-.206.08-.148.12-.403.12-.658 0-.254-.04-.508-.12-.656-.046-.087-.108-.155-.186-.207-.08-.05-.173-.09-.286-.11-.113-.02-.244-.04-.394-.04h-.4zm-15.31 0v2.04h.4c.15-.004.283-.017.396-.04.113-.026.21-.064.287-.116.078-.052.14-.12.187-.206.076-.148.116-.403.116-.658 0-.254-.04-.508-.117-.656-.05-.087-.11-.155-.19-.207-.08-.05-.175-.09-.29-.11-.112-.02-.244-.04-.394-.04H5.13zm43.35 0v2.04h.4c.15-.004.28-.017.395-.04.114-.026.21-.064.288-.116.08-.052.14-.12.187-.206.077-.148.117-.403.117-.658 0-.254-.04-.508-.116-.656-.046-.087-.11-.155-.186-.207-.08-.05-.174-.09-.29-.11-.112-.02-.243-.04-.393-.04h-.395zM56 123.1v1.59h-.268c-.01-.14-.027-.293-.06-.447-.032-.154-.078-.308-.145-.444-.067-.14-.155-.26-.272-.34-.116-.09-.26-.14-.44-.14H53.78v1.98h.307c.18 0 .313-.038.413-.09.1-.058.165-.13.21-.22.045-.09.07-.19.086-.29.015-.1.022-.2.033-.29h.22v2.05h-.23c-.01-.09-.02-.19-.034-.29-.016-.1-.04-.2-.085-.29-.045-.09-.11-.166-.21-.22-.1-.056-.234-.09-.413-.09h-.306v2.07h1.034c.2 0 .354-.06.48-.163.122-.1.21-.245.274-.404.065-.158.106-.334.132-.503.025-.17.036-.33.043-.465h.33v1.764h-3.46v-.225H53v-4.325h-.39v-.224H56zm-31.126.224v1.895h1.77v-1.9h-.348v-.23h1.518v.225h-.39v4.324h.39v.224h-1.518v-.226h.347v-2.207h-1.77v2.206h.35v.223H23.7v-.227h.39v-4.326h-.39v-.23h1.52v.227h-.35zm32.38-26.273c1.082 0 2.117.29 3.06.8.945.51 1.798 1.258 2.515 2.17.71.918 1.3 2.008 1.7 3.22.4 1.21.62 2.54.62 3.94 0 1.395-.224 2.726-.627 3.936-.4 1.21-.985 2.3-1.7 3.217-.72.915-1.57 1.656-2.516 2.17-.944.51-1.98.793-3.06.793-1.096 0-2.14-.285-3.09-.796-.95-.514-1.81-1.255-2.53-2.17-.72-.916-1.304-2.006-1.708-3.216-.405-1.212-.628-2.543-.628-3.94 0-1.4.22-2.73.625-3.94s.99-2.3 1.71-3.214c.72-.916 1.58-1.657 2.53-2.17.95-.51 1.993-.794 3.09-.794zm-33.33 0c1.08 0 2.117.29 3.06.8.944.51 1.797 1.258 2.514 2.17.717.918 1.3 2.008 1.702 3.22.402 1.21.626 2.54.626 3.94 0 1.395-.224 2.726-.627 3.936-.41 1.21-.99 2.3-1.71 3.217-.72.915-1.57 1.656-2.516 2.17-.943.51-1.98.793-3.06.793-1.096 0-2.14-.285-3.09-.796-.95-.514-1.81-1.255-2.53-2.17-.72-.916-1.303-2.006-1.707-3.216-.403-1.212-.627-2.543-.627-3.94 0-1.4.225-2.73.628-3.94.406-1.21.99-2.3 1.71-3.214.72-.916 1.58-1.657 2.53-2.17.953-.51 1.997-.794 3.09-.794zM0 115.98h1.953V98.37H0v-1.06h9.18c.788 0 1.585.155 2.317.463.648.27 1.233.656 1.725 1.125.246.234.47.49.665.765.196.273.365.565.502.873.57 1.27.57 2.716 0 3.983-.28.61-.68 1.16-1.17 1.62-.49.47-1.08.85-1.73 1.12-.735.31-1.53.467-2.318.467h-3.3v8.25H7.83v1.063H0v-1.062zm59.203-17.192c.504.51.818 1.214.818 1.994v12.735c0 .78-.31 1.498-.81 2.02-.544.567-1.255.848-1.97.847-.71 0-1.424-.284-1.973-.846-.51-.522-.824-1.24-.824-2.02V100.78c0-.78.315-1.485.824-1.994.544-.546 1.26-.822 1.973-.823.713 0 1.426.273 1.97.824zm-33.33 0c.503.51.818 1.214.818 1.994v12.735c0 .78-.31 1.498-.81 2.02-.544.567-1.26.848-1.97.847-.712 0-1.425-.284-1.974-.846-.51-.522-.824-1.24-.824-2.02V100.78c0-.78.315-1.485.824-1.994.544-.546 1.26-.822 1.973-.823.713 0 1.426.273 1.97.824zm7.673-1.48h7.834v1.063h-1.954v17.61h3.585c1.47 0 2.35-1.123 2.87-2.49.55-1.45.7-3.18.72-4.1h.89v7.65H33.55v-1.06h1.95V98.37h-1.954v-1.063zm-23.233 3.81c-.1-.482-.26-.948-.492-1.354-.23-.41-.53-.757-.92-1.003-.39-.242-.86-.39-1.43-.39H5.88v8.3h1.584c.54 0 .995-.145 1.374-.39.377-.246.68-.593.915-.995s.403-.86.516-1.326c.11-.463.16-.94.17-1.42.01-.476-.04-.955-.136-1.42zM29.186 90.27c-.252-.48.077-1.05.168-1.543.03-.167.087-.22.238-.3.125-.068.334-.086.456-.01.33.204.42.535.83.356.124-.054.366-.26.183-.366-.22-.132-.53-.103-.75-.25-.23-.157-.52-.372-.35-.658.15-.26.42-.39.634-.59.2-.2.297-.547.23-.82-.07-.3-.237-.786-.056-1.07.068-.105.12-.226.148-.35.05-.24.04-.47.228-.64.35-.31.447-.63.62-1.066.12-.295.375-.536.49-.832.08-.203.072-.425.213-.598.203-.248.444-.07.625.126.11.12.204.265.3.34.2.147.46.25.52.5.018.07.03.147.01.216-.033.127-.102.243-.17.356-.21.35-.49.67-.61 1.06-.1.34-.14.477-.15.673-.016.32.042.638.04.958-.005.285-.125.39-.38.535-.3.17-.538.34-.71.653-.07.128-.193.28-.143.417.17.47.59 1.02.387 1.527-.117.294-.553.43-.815.566-.186.094-.38.214-.565.313-.294.157-.585.326-.883.482-.256.134-.55.34-.724.012zm-6.224-3.685c-.38-.113-.785-.262-1.038-.562-.266-.316-.128-.503.112-.815.213-.276.277-.36.4-.493.148-.16.326-.35.52-.477.304-.205.536-.183.757.058.16.176.225.43.26.664.026.174.04.35.028.526-.01.157-.07.31-.09.466-.02.193-.03.373-.12.51-.19.302-.53.214-.82.127zm17.765.24c-.148-.01-.248-.054-.313-.194-.03-.06-.028-.14-.01-.2.048-.184.15-.35.208-.53.092-.287.023-.308.156-.66.07-.19.342-.166.513-.08.22.1.38.26.61.286.31.04.66-.107.75.227.09.303-.04.578-.3.747-.25.154-.54.223-.825.3-.173.047-.173.047-.257.06-.172.03-.347.06-.522.048zm-8.997-1.6c-.073-.053-.134-.12-.152-.19-.048-.195.06-.245.25-.294.124-.03.26-.052.37-.04.11.02.192.08.207.22.01.09-.034.17-.1.24-.198.22-.342.24-.575.07zm-10.755.06c-.517-.206-.974-.59-1.376-.96-.15-.134-.11-.253-.09-.45.01-.083.01-.173-.016-.255-.04-.13-.1-.248-.19-.35-.028-.033-.034-.05-.194-.052-.206-.004-.42.078-.623.085-.203.008-.418-.015-.54-.205-.055-.086-.06-.193-.074-.292-.014-.088-.02-.177-.014-.264.06-1.03-.054-1.997-.245-3.01-.073-.377-.09-.763-.156-1.14-.09-.506-.23-.99-.34-1.49-.09-.38-.107-.392-.067-.557.035-.14.155-.15.288-.117.134.036.276.116.354.163.244.15.495.21.763.307.214.074.43.24.456.468.08.683.113 1.37.17 2.055.02.25.022.502.085.743.055.216.144.398.22.606.14.385.51.603.726.944.143.23.056.487.11.743.013.063.045.122.083.175.057.08.216.185.337.325.054.063.036.075.155.275.057.1.126.194.213.272.11.095.216.164.363.167.27.004.404-.275.64-.38.157-.07.397-.09.594-.052.15.026.304.092.35.255.024.105.05.23-.01.325-.213.345-.507.634-.743.964-.19.268-.13.308-.305.53-.27.34-.554.33-.94.177zm13.488-2.8c-.264-.07-.415-.217-.283-.496.09-.19.245-.33.352-.508.023-.035.036-.08.042-.12.048-.312.065-.546.193-.84.068-.155.04-.257.014-.425-.02-.176-.07-.293.09-.356.19-.074.377-.005.55.096.047.025.09.07.097.123.04.31-.082.653.146.874.143.135.376.09.426.3.04.17-.07.3-.18.43-.127.15-.363.425-.71.7-.11.09-.235.158-.37.188-.118.024-.24.054-.357.024zm1.715-1.88c-.4-.1-.3-.333-.377-.713-.04-.208-.24-.315-.31-.507-.13-.43-.07-.78.36-.975.05-.02.11-.024.16-.008.258.078.447.295.568.532.03.057.03.126.057.186.126.258.25.496.244.785-.004.11-.034.225-.08.328-.067.157-.215.315-.387.356-.072.012-.15.032-.224.02zm-17.984-5.29c-.047.008-.134-.04-.213-.082-.13-.07-.25-.2-.09-.263.19-.073.34-.027.44-.197.1-.17.18-.338.19-.4.05-.214.06-.21.1-.43.04-.236 0-.457.035-.673.07-.458.353-.342.305.1-.05.446.104.892-.133 1.312-.16.283-.273.59-.623.634zm13.213-1.075c-.25-.028-.68.172-.778-.075-.14-.34.35-.218.59-.325.35-.156.38-.567.45-.93.024-.132.11-.412.28-.28.03.022.053.057.052.095-.005.21-.07.414-.12.623-.05.195-.014.39-.08.574-.055.16-.226.337-.404.317zm-12.52-3.1c-.176-.007-.372-.067-.5-.196-.032-.032-.06-.073-.067-.117-.02-.1.033-.19.094-.263.223-.278.287-.15.465.1.1.15.12.14.19.177.05.03.25.04.23.11-.04.16-.27.198-.42.19zm15.435 8.01c-.262-.018-.44-.117-.466-.402-.06-.615-.038-1.203.035-1.82.02-.113-.01-.23.01-.343.05-.233.09-.458.16-.685.152-.53-.12-1.104-.32-1.58-.093-.22-.184-.428-.273-.65-.102-.26-.247-.515-.3-.79-.056-.28-.13-.61-.047-.88.136-.443.4-.828.774-1.113.23-.174.53-.248.583.117.045.323-.087.66.026.97.07.2.245.4.474.89.064.133.06.28.035.427-.054.33-.11.32-.122.6-.014.317.308.45.487.68.187.24.133.64.133.93 0 .16.01.16-.09.54-.032.12-.147.28-.176.43-.023.12-.027.278.09.3.165.04.193-.26.246-.37.098-.217.264-.396.36-.613.073-.17.134-.344.137-.53.002-.13-.015-.26-.056-.382-.085-.265-.286-.397-.456-.615-.076-.094-.117-.21-.15-.324-.02-.07-.028-.146-.01-.217.03-.154.066-.267.093-.42.02-.11.086-.188.054-.297-.15-.515-.054-1.05-.234-1.54-.086-.235-.23-.445-.297-.685-.038-.134 0-.28-.035-.414-.1-.36-.304.056-.498.112-.203.058-.284.04-.348-.152-.034-.1-.024-.207-.018-.31.02-.345.184-.57.46-.765.2-.136.48-.287.51-.53.05-.344-.054-.62.2-.87.135-.13.32.017.397.173.026.053.15 1.85.18 2.03.02.13.06.47.142.93.03.17.09.34.12.51.13.71.24 1.408.35 2.118.036.24.1.226.16.54.09.49.18.98.135 1.478-.025.3-.338.5-.494.75-.11.18-.065.356-.09.562-.02.21-.073.406-.156.6-.07.163-.058.175-.22.37-.335.407-.684.81-1.078 1.16-.116.1-.26.087-.414.076zm5.294-9.814c-.206.006-.345-.045-.49-.196-.084-.087-.117-.117-.13-.183-.082-.41-.068-.822-.124-1.237-.04-.295-.065-.592-.106-.885-.01-.074-.037-.07-.046-.173-.038-.457-.084-.906-.178-1.358-.07-.34-.17-.685-.113-1.03.04-.286.41-.413.66-.55.16-.086.14-.114.25-.155.21-.08.38-.207.6-.09.055.022.11.06.156.103.27.27.393.735.72.94.152.095.28.085.315-.097.038-.19-.1-.323-.21-.47-.158-.21-.427-.528-.305-.81.03-.07.083-.132.146-.175.08-.056.19-.06.27-.113.1-.064.16-.174.26-.237.034-.022.085-.026.12-.007.09.047.186.11.206.207.092.43.047.44.094.66.06.28.1.553.164.832.025.124.13.223.16.347.035.146.052.28.07.42.023.25.07.51.04.76-.028.21-.12.41-.208.605-.36.836-.796 1.677-1.404 2.36-.28.312-.51.515-.927.523zm-6.18-.24c-.072-.005-.094-.066-.073-.155.035-.15.154-.27.215-.41.056-.133.11-.27.144-.41.02-.08-.055-.086-.005-.545.03-.29.27-.502.362-.78.06-.183.11-.37.13-.563.02-.19.043-.34.08-.525.01-.07-.018-.143 0-.212.023-.135.1-.26.12-.397.02-.15.01-.31-.027-.457-.03-.134-.19-.275-.164-.41.055-.26.157-.42.06-.675-.073-.19-.08-.186-.315-.564-.177-.287-.195-.34.056-.556.123-.103.257-.19.384-.29.35-.267.71-.54.975-.893.21-.28.2-.29.22-.33.113-.206.227-.592.476-.564.25.03.1.32-.004.51-.014.03-.045.127-.18.25-.258.238-.29.2-.402.335-.16.195-.122.436-.153.677-.03.22-.25.143-.435.204-.335.11-.314.22-.26.565.02.137.084.113.16.3.092.236.16.48.225.723.035.13.12.25.15.384.057.257.026.36.103.61.1.32-.12.556-.205.848-.04.135.02.143-.017.353-.036.2-.086.36-.137.563-.053.22-.155.424-.3.6-.182.224-.46.39-.603.645-.02.034.024.04-.01.3-.03.213-.18.326-.306.503-.074.1-.144.382-.27.38zm-10.962-2.05c.138-.306.28-.612.41-.92.024-.055.05-.112.052-.17.006-.186-.05-.33-.075-.514-.04-.29.21-.39.45-.28.27.126.25.226.26.527 0 .03-.003.062-.02.09-.255.498-.46 1.026-.816 1.455-.32.384-.45.25-.25-.195zm17.41-.024c-.152-.006-.305-.13-.196-.28.12-.166.435-.24.545-.01.014.03-.01.072-.038.094-.093.08-.188.2-.31.196zm.34-.98c-.03 0-.308-.086-.412-.14-.205-.103-.28-.268-.315-.484-.046-.272-.095-.963.246-1.04.21-.048.4.162.54.314.232.252.535.577.494.932-.028.24-.138.264-.352.364-.063.03-.13.053-.2.053zm4.033-.45c-.067 0-.145-.016-.218-.027-.13-.02-.28-.064-.24-.198.04-.164.17-.228.28-.265.11-.037.24-.018.402 0 .075.006.155.013.226-.014.16-.06.58-.527.58-.107.002.078-.024.15-.06.22-.053.1-.118.183-.218.243-.13.076-.136.07-.386.126-.125.025-.254.027-.38.025zM28.7 65.41c-.11-.085-.208-.19-.31-.285-.014-.012-.017-.03-.03-.04-.005-.003-.015.004-.02 0-.38-.38-.824-.697-1.154-1.12-.135-.176-.244-.367-.36-.552-.082-.127-.148-.226-.212-.358-.076-.152-.24-.26-.272-.426-.092-.48.01-1.01-.16-1.47-.083-.22-.172-.398-.235-.63-.026-.1-.237-.566-.03-.517.246.06.39.315.47.55.046.133.002.285.034.423.07.286.13.51.21.784.06.198.23.344.31.53.07.155.07.345.13.504.16.427.46.8.78 1.12.49.49.46.52.54.56.225.12.4-.084.34-.292-.072-.272-.27-.377-.16-.647.07-.178.06-.19.18-.324.154-.172.31-.22.53-.29.122-.04.23-.12.357-.16.126-.04.124-.045.187-.056.424-.078.844-.276 1.003-.69.04-.11.02-.236.052-.347.08-.285.076-.415.316-.627.16-.14.346-.3.346-.523 0-.442-.135-.946.048-1.365.048-.11.105-.217.177-.31.173-.227.342-.505.627-.56.143-.025.137.21.097.383-.04.17-.103.36-.14.434-.183.37-.457.793-.496 1.214-.007.086-.072.158-.08.243-.027.266-.06.5-.114.765-.08.396-.16.756-.486.98-.17.117-.21.023-.374.09-.258.106-.407.38-.597.576-.06.064-.138.115-.22.144-.094.033-.203.004-.295.04-.22.087-.23.08-.384.21-.12.103-.214.21-.223.364-.03.49.064.98.106 1.467.037.405-.125.477-.474.2zm8.12-1.64c-.16-.006-.32-.086-.41-.224-.052-.08-.053-.17-.037-.263.02-.12.103-.205.21-.26.224-.11.6-.148.828-.046.26.116.31.164.28.454-.032.39-.57.36-.86.34zm-4.427-.758c.238.002.296-.41.422-.603.123-.19.326-.31.474-.48.11-.13.12-.13.27-.43.09-.198.13-.39.17-.61.03-.152.03-.32-.03-.465-.15-.4-.48-.254-.555.09-.063.293-.04.562-.205.816-.02.034-.047.06-.075.088l-.024.024c-.03.027-.054.055-.075.09-.193.3-.343.623-.53.93-.046.07-.065.14-.086.19-.07.163-.077.316.212.35.003 0 .01 0 .014.002h.007zm7.563-.058c-.35-.045-.704.08-1.044.002-.25-.057-.315-.414-.407-.625-.067-.15-.04-.33-.096-.49-.16-.44-.26-.91-.43-1.35-.11-.28-.21-.56-.33-.833-.11-.247-.22-.5-.35-.74-.3-.56-.86-.96-1.07-1.57-.02-.06-.028-.127-.01-.19.09-.285.42-.33.68-.3.322.037.585.266.77.546.192.297.285.637.37.976.083.337.123.664.207 1 .063.25.227.5.43.666.075.064.146.08.194-.01.18-.335.04-.792-.08-1.136-.08-.23-.235-.44-.366-.646-.113-.175-.214-.362-.325-.54-.04-.06-.026-.146-.06-.21-.185-.345-.31-.734-.176-1.106.087-.24.13-.22.18-.26.1-.08.207-.156.325-.21.2-.092.453-.13.544.108.023.064.006.138.034.2.104.24.13.23.146.313.024.103.013.214.042.32.07.24.13.47.203.71.102.34.246.642.383.975.16.4.305.806.42 1.222.03.123.14.226.155.3.05.248.135.465.226.7.08.202.11.32.17.524.14.476.253 1.137-.125 1.505-.088.086-.218.113-.34.14-.09.02-.19.034-.28.02zm-2.964-.21c-.233-.017-.33-.096-.297-.32.027-.172.2-.268.287-.418.102-.18.12-.398.28-.536.106-.094.31-.092.413 0 .245.216.48.503.34.83-.07.163-.1.145-.125.17-.063.063-.135.118-.215.16-.22.11-.44.13-.683.113zm4.65-.65c-.248-.004-.42-.263-.256-.49.085-.117.242-.164.35-.263.085-.07.158-.17.227-.26.43-.59.775-1.17.868-1.93.02-.09.08-.17.09-.26.016-.144-.03-.292-.01-.44.046-.41-.02-.872-.115-1.28-.07-.285-.09-.583-.082-.88.01-.312.344-.69.607-.39.183.21.062.52.126.79.067.28.143.26.166.44.057.458.1.92.072 1.38-.018.295-.14.565-.24.842-.087.238-.285.447-.344.694-.09.38-.178.806-.367 1.147-.014.026 0 .067-.02.095-.22.385-.6.825-1.062.816zM22.135 60.53c-.04-.096-.06-.207-.083-.32-.055-.277.165-.61.393-.316.115.15.11.38.058.585-.07.27-.205.42-.368.05zm5.137-.417c-.315-.054-.27-.4-.246-.69.015-.187.1-.363.162-.542.085-.24.18-.47.387-.62.187-.144.41-.19.472.064.086.344-.365.546-.44.868-.055.238-.027.5-.128.72-.07.146-.06.236-.21.21zm-8.935 16.1c-.067 0-.12-.063-.184-.08-.307-.08-.605-.27-.898-.39-.128-.054-.14-.028-.224-.09-.15-.117-.08-.36 0-.498.27-.44.17-.845.08-1.33-.04-.193.05-.366.054-.564.008-.27-.053-.55-.055-.82-.004-.34.05-.682.11-1.022.13-.727.506-1.29.775-1.962.13-.32.276-.644.424-.96.18-.383.272-.8.36-1.215.03-.14.1-.265.17-.39.354-.63.39-1.634.54-2.313.1-.443.473-.743.53-1.203.045-.362.06-.7.11-1.06.01-.072-.013-.144 0-.215.03-.15.168-.17.27-.065.12.128.11.136.228.276.077.09.218.3.364.413.147.11.37.135.354-.147-.016-.26-.23-.49-.36-.718-.236-.425-.44-.868-.665-1.297-.084-.162-.042-.18-.11-.3-.74-1.29-1.28-3.24-1.14-4.7.037-.376.267-.728.49-1.03.086-.118.29-.227.3-.375.017-.245 0-.247-.033-.4-.04-.18-.127-.343-.17-.522-.074-.314-.248-.74-.087-1.034.165-.3.316-.437.382-.78.03-.14.168-.31.31-.172.18.17.21.425.32.65.454.916.97 1.856 1.116 2.916.05.37-.047.755.035 1.124.108.466.12.93.24 1.388.067.24.27.63-.07.71-.12.028-.13.007-.16-.016-.35-.24-.487-.72-.702-1.07-.065-.11-.1-.206-.155-.32-.055-.11-.12-.19-.1-.31.043-.274.15-.58 0-.83-.095-.157-.297-.28-.333-.05-.037.254.1.516.054.77-.04.21-.26.227-.45.17-.11-.03-.16-.173-.26-.187-.054-.01-.098.057-.094.107.012.174.064.345.154.49.237.378.64.638.87 1.02.127.2.214.436.32.648.075.146.044.16.113.27.104.166.203.457.436.374.09-.03.188-.2.225-.21.29-.113.443-.013.62.21.23.294.217.31.253.42.133.4.19.823.303 1.23.09.31.137.435.2.547.06.11.093.204.134.32.046.125.09.195.32.59.09.167.194.327.32.47.38.445.75.907 1.03 1.416.104.188.1.19.15.314.022.06.043.14.01.196-.07.107-.18.072-.29.02-.38-.188-.85-.366-1.168-.658-.188-.175-.222-.46-.368-.67-.137-.2-.293-.378-.48-.155-.11.13-.07.343-.01.497.16.43.532.663.94.81.422.15 1.01.205 1.3.563.09.108.05.295-.104.333-.13.034-.273-.006-.4.034-.13.04-.22.1-.17.24.052.164.13.213.295.157.298-.103.574-.367.898-.37.03 0 .065.02.078.05.098.194-.07.49-.21.63-1.126 1.124-2.45 2.26-3.73 3.24-.895.685-1.762 1.433-1.98 2.623-.12.7-.03 1.375-.05 2.076-.01.31-.042.624-.23.904-.086.13-.223.213-.285.355-.074.162.01.36-.07.514-.14.263-.483.42-.78.42zm5.39-17.455c-.153-.03-.272-.16-.35-.294-.046-.08-.102-.175-.08-.266.048-.193.197-.226.32-.19.12.038.27.143.315.286.04.13.074.344-.064.426-.043.025-.095.048-.142.038zm4.6-1.32c-.1-.024-.132-.086-.14-.132-.008-.045-.003-.115.063-.194.07-.083.18-.05.24.002.06.053.114.163.047.24-.05.06-.133.1-.21.083zm-4.92-.228c-.04 0-.076-.032-.093-.066-.06-.115-.113-.272-.115-.41-.01-.136.04-.254.19-.29.18-.048.25.063.28.24.02.17-.07.312-.15.46-.03.04-.07.065-.12.066zm5.792-.353c-.11-.037-.26-.136-.25-.262 0-.037.02-.072.04-.1.223-.275.254-.25.62-.754.2-.27.352-.49.6-.73.074-.07.08-.16.12-.25.12-.28.124-.58.104-.903-.02-.34.144-.655.222-.984.024-.103.077-.256.184-.253.156.004.148.11.125.264-.02.14-.11.236-.063.37.103.306.086.406.025.725-.04.213-.055.41-.098.62-.045.21-.224.353-.27.56-.016.07.023.15 0 .214-.128.35-.4.56-.726.756-.27.164-.312.534-.576.716-.02.017-.048.03-.07.025zm5.75-.363c-.117-.018-.12-.016-.24-.103-.446-.33-.86-.75-1.148-1.23-.147-.24-.377-.46-.466-.73-.053-.16.052-.294-.056-.432-.113-.145-.27-.23-.32-.412-.017-.063-.02-.13-.01-.192.026-.135.104-.214.104-.29-.003-.187-.128-.337-.158-.52-.02-.123-.06-.255-.02-.37.114-.323.38-.208.577-.034.133.114.175.186.193.24.04.11.045.23.09.34.038.086.08.07.107.206.064.313.073.645.17.95.088.275.202.55.375.786.1.13.094.135.165.205.32.317.748.52 1.007.886.172.243.17.566-.147.69-.07.028-.152.03-.225.02zm-11.35-.516c-.17-.032-.217-.116-.2-.22.01-.107.08-.234.14-.35.115-.214.26-.227.385-.02.08.125.05.313-.038.444-.068.1-.17.168-.29.146zm14.83-.676c-.076-.022-.095-.033-.106-.1-.078-.43-.158-.855-.248-1.29-.055-.255-.21-.462-.323-.695-.127-.272-.224-.574-.4-.822-.153-.22-.395-.395-.483-.65-.062-.178.02-.365.053-.552.04-.23.024-.488.256-.587.1-.042.204-.033.302.01.08.035.14.105.206.163.02.02.04.04.055.07.17.31.266.65.384.99.033.1.104.15.17.23.224.26.42.6.51.93.05.19.06.38.1.57.06.31.094.64.04.95-.05.26-.118.528-.3.73-.054.06-.147.066-.225.04zm.97-.05c-.295-.072-.286-.506-.27-.77.006-.157.032-.344.2-.372.22-.038.36.18.42.422.044.188.04.392-.02.504-.08.155-.16.255-.326.215zm-15.06-.487c-.33-.05-.28-.256-.137-.456.064-.1.148-.19.226-.26.123-.12.28-.2.406-.31.144-.14.22-.33.36-.47.122-.118.166-.085.22-.207.14-.306.17-.607.435-.82.304-.243.687-.385.985-.63.113-.093.198-.217.294-.327.285-.33.573-.577.98-.766.22-.1.422-.22.634-.34.065-.038.132-.076.184-.13.12-.123.13-.12.21-.3.093-.203.13-.385.268-.56.11-.14.26-.25.37-.388.06-.07.075-.06.17-.224.2-.34.2-.41.28-.573.075-.16.142-.317.22-.474.027-.05.053-.11.105-.125.123-.037.18.132.177.234-.004.07-.033.137-.05.202-.03.11-.04.22-.063.337-.05.23-.163.445-.276.654-.015.033-.412.34-.43.41-.002.01-.023.005-.03.014-.504.74-.48.76-.65.943-.23.25-.5.47-.8.63-1.003.526-1.225.54-1.924 1.536-.248.354-.685.524-.995.82-.265.253-.373.61-.555.93-.146.255-.3.68-.61.634zm14.93-.894c-.07-.04-.126-.11-.166-.18-.118-.22-.11-.55-.107-.77 0-.054.03-.11.07-.147.18-.174.37-.127.43.098.06.243.1.49.082.736-.01.12-.066.196-.17.26-.04.027-.102.04-.142.016zm.37-2.19c-.028 0-.05-.02-.07-.04-.16-.182-.23-.262-.06-.49.11-.147.19-.316.26-.49.052-.135.112-.272.083-.415-.018-.084-.092-.15-.108-.23-.03-.146-.038-.296-.026-.442.007-.09.075-.163.08-.252.05-.603-.016-1.23-.095-1.83-.03-.226-.15-.427-.2-.652-.013-.053-.033-.103-.055-.15-.03-.06-.083-.124-.13-.197-.08-.12-.163-.276-.062-.37.038-.03.1-.02.15-.01.09.025.162.09.236.153.266.22.452.574.567.866.09.23.145.39.2.63.07.314.13.615.215.926.074.28.123.263.138.36.08.49.126.987.104 1.48-.008.163-.094.315-.166.462-.134.272-.393.44-.684.546-.102.04-.143.117-.217.144-.05.018-.105.022-.156.015zm-17.38-.78c-.008-.08.01-.17-.02-.25-.033-.1-.094-.19-.157-.28-.198-.262-.437-.54-.485-.854-.02-.143-.036-.31.063-.452.147-.21.383.067.54.327.094.157.188.306.207.373.054.182.144.33.195.51.042.154.055.32.025.476-.022.135-.074.27-.143.387-.244.433-.194.163-.22-.23zm29.646.2c-.535-.104-.936-.654-1.39-.93-.54-.32-1.18-.55-1.677-.93-.085-.066-.14-.14-.18-.207-.077-.14-.16-.28-.21-.43-.077-.215-.075-.216-.085-.28-.025-.14-.054-.29-.023-.43.04-.18.153-.283.33-.32.27-.05.553-.022.83-.02.46.008.927.025 1.365.167.25.08.44.2.6.4.193.23.315.56.575.717.23.14.504.195.734.335.266.16.412.534.404.84-.002.17-.06.33-.113.49-.03.09-.07.18-.13.25-.12.14-.227.26-.404.308-.2.053-.42.08-.626.04zm-13.46-.072c-.22-.013-.23-.18-.324-.36-.028-.052-.09-.082-.115-.136-.17-.342-.554-.474-.44-.893.065-.233.223-.418.263-.655.03-.18-.025-.365-.004-.545.03-.246.067-.473.12-.716.056-.25.33-.41.38-.66.035-.176-.11-.31-.18-.473-.035-.09-.06-.214-.075-.335-.02-.12-.043-.264.037-.326.11-.087.216-.057.284.06.108.186.12.407.22.594.096.174.25.283.31.47.054.157.04.323.098.48.06.17.13.34.216.5.09.166.117.154.13.217.097.466.1.947.11 1.42.005.19-.057.3-.093.48-.07.36-.32.7-.645.845-.087.04-.19.04-.284.034zm13.414-.812c-.07.01-.133-.052-.2-.076-.202-.073-.41-.135-.57-.28-.22-.2-.4-.43-.656-.58-.173-.105-.31-.14-.51-.214-.272-.1-.62-.13-.354-.443.04-.047.08-.103.095-.164.014-.06.002-.127-.01-.187-.01-.044-.06-.074-.022-.104.1-.078.26-.038.39.005.17.055.35.156.402.305.045.13 0 .205.112.28.14.1.334.12.47.235.09.08.05.23.11.34.03.055.082.094.132.13.052.04.442.21.655.396.166.146.235.326-.05.366zM32.38 49.9c-.283-.068-.407-.377-.55-.62-.073-.127-.126-.268-.152-.41-.034-.18-.026-.35.013-.517.01-.075.02-.172.09-.23.15-.12.28-.053.38.104.156.254.35.504.49.767.11.214.073.584-.02.805-.047.11-.14.13-.26.1zm14.663-.085c-.25-.05-.25-.064-.33-.12-.13-.08-.29-.19-.42-.318-.19-.19-.315-.418-.18-.657.14-.25.267-.254.553-.2.373.075.79.392.886.778.07.283.093.38-.18.49-.1.042-.214.046-.32.025zm1.17-.265c-.28 0-.38-.225-.516-.445-.13-.203-.314-.37-.423-.583-.042-.08-.05-.19-.014-.276.15-.37.68-.434.86-.07.106.213.12.427.247.626.07.11.03.127.11.305.146.33.07.444-.267.443zm-19.94-.538c-.153.01-.232-.144-.2-.3.12-.588.15-.58.24-.83.055-.155.15-.293.19-.45.07-.297-.13-.63-.19-.923-.02-.1.012-.21-.03-.3-.13-.29-.144-.284-.21-.407-.06-.105-.15-.178-.207-.262-.073-.104-.145-.232-.06-.372.035-.054.115-.07.178-.065.085.008.15.077.218.128.24.185.38.477.474.757.076.217.136.393.19.617.035.15.018.266-.002.42-.012.1-.06.196-.066.3-.01.148.04.3.01.45-.05.283-.094.273-.12.456-.035.29-.09.754-.412.776zm13.87 36.125c-.082.004-.167.01-.25-.005-.445-.087-.826-.446-.91-.894-.05-.268.147-.466.25-.705.032-.076.06-.16.07-.24.01-.08.015-.165 0-.245-.063-.31-.198-.512-.176-.837.01-.15-.01-.31 0-.46.02-.26.024-.514.066-.77.073-.45.45-.833.68-1.22.15-.25.193-.51.27-.787.06-.224.09-.215.102-.3.05-.43.186-.85.194-1.28.006-.34-.067-.516-.054-.78.008-.173.13-.452.236-.587.04-.058.046-.063.11-.077.235-.05.537-.1.774-.235.14-.08.27-.18.326-.33.103-.263-.07-.36-.28-.4-.212-.04-.497 0-.612-.094-.172-.14-.137-.424-.127-.633.01-.275.07-.333.07-.453 0-.266-.06-.533-.054-.8.015-.585.02-1.25.236-1.79.135-.335.3-.63.33-.98.028-.323-.335-.65-.03-.916.05-.043.14-.034.187-.08.16-.16.184-.305.226-.528.04-.2.105-.37.11-.575.007-.2-.003-.4-.03-.6-.024-.166-.07-.33-.12-.49-.044-.133-.118-.217-.163-.37-.093-.325-.29-.656-.43-.963-.017-.04-.023-.095-.005-.135.04-.088.144-.13.165-.21.098-.37-.56-.7-.763-.923-.09-.096-.187-.194-.235-.315-.168-.418-.15-.907-.12-1.35.01-.15.052-.3.12-.435.113-.223.243-.436.38-.65.022-.032.02-.08.045-.11.18-.208.387-.374.51-.617.075-.144.05-.155.057-.3.01-.206-.045-.42.05-.607.1-.182.3-.3.39-.483.057-.11.098-.23.127-.35.03-.13 0-.138.034-.205.1-.193.138-.293.14-.508.01-.525.068-1.11-.013-1.64-.06-.364-.18-.7-.447-.97-.11-.117-.24-.23-.303-.383-.077-.176-.13-.296-.14-.416-.037-.344.004-.64-.067-.946-.06-.26-.223-.59-.445-.2-.038.065-.06.14-.06.216-.008.294.04.586.034.878-.005.22-.018.44-.06.656-.05.253-.34.466-.296.72.026.148-.002.16.143.455.186.384.322.7.306 1.114-.01.2-.044.4-.088.596-.02.09-.09.164-.106.254-.056.31-.266.61-.38.9-.05.135-.075.256-.12.397-.073.235-.225 1.04-.63.806-.156-.09-.25-.25-.3-.426-.093-.348-.164-.697-.266-1.04l-.17-.538c-.04-.115-.08-.095-.13-.22-.1-.247-.22-.496-.35-.728-.167-.3-.368-.603-.524-.91-.05-.097-.066-.206-.11-.304-.09-.2-.173-.264-.132-.47.036-.177.07-.174.145-.237.147-.123.374-.203.45-.263.144-.114.224-.264.27-.437.02-.092.004-.52.003-.57-.014-.466-.012-.937-.062-1.403-.01-.117-.17-.183-.204-.3-.034-.1.022-.22-.018-.32-.117-.28-.102-.362.14-.536.135-.094.31-.144.42-.266.175-.196.127-.23.204-.34.037-.053.11-.068.152-.117.073-.09.136-.19.185-.295.127-.265.21-.584.287-.87.05-.18.18-.36.15-.55-.04-.22-.158-.43-.19-.652-.053-.37.024-.77-.097-1.13-.067-.2-.142-.38-.277-.544-.083-.1-.132-.22-.207-.32-.083-.114-.17-.233-.23-.36-.05-.104-.11-.205-.127-.31-.02-.126-.024-.19.07-.27.037-.03.096-.03.14-.01.177.073.327.18.51.233.08.02.14.085.22.103.324.074.645.18.97.235.203.033.21-.002.3.03.147.052.243.078.39.123.97.305 1.713.975 2.423 1.68.25.246.487.51.71.783.05.06.068.046.514.575.913 1.08 1.68 2.11 2.234 3.246.49 1 .8 2.087.874 3.38.105 1.91-.84 4.177-1.666 5.876-.423.87-.818 1.79-1.042 2.734-.054.23-.072.35-.11.58-.143.81-.2 1.396-.552 2.15-.088.186-.13.38-.136.59-.015.516-.178.602-.358 1.072-.04.102.003.11-.022.26-.015.1-.09.182-.103.28-.06.424-.11.85-.266 1.25-.064.156-.077.163-.213.26-.165.12-.345.047-.395-.135-.064-.235-.02-.475-.094-.707-.022-.067-.083-.117-.104-.184-.077-.243.04-.41.07-.65.034-.244-.024-.49-.037-.734-.005-.08 0-.163-.014-.243-.024-.13-.12-.248-.225-.125-.073.084-.06.22-.084.33-.026.11-.06.222-.067.334-.03.55-.227 1.06-.175 1.61.02.22.132.41.195.63.028.09.1.16.133.25.033.1.02.21.063.306.24.525.16.553.608.16.154-.13.347-.214.44.106.05.172.038.357.03.536-.015.262-.006.27-.073.43-.174.415-.53.71-.745 1.105-.067.124-.024.138-.058.266-.075.29-.162.58-.215.875-.015.094-.084.172-.103.267-.057.3-.164.618-.235.914-.207.866-.56 1.75-.62 2.63-.06.94-.233 1.2-.4 1.583-.053.125-.107.265-.157.45-.173.645.12.396-.334 1.036-.248.35-.334.67-.097 1.154.127.26.375.453.49.72.145.344-.005.47-.344.535-.19.036-.387.03-.58.04zm-6.12-38.905c-.03-.007-.067-.015-.08-.043-.02-.057.05-.15.11-.25.083-.128.19-.25.218-.31.104-.21.204-.422.366-.59.04-.04.08-.054.13-.02.06.04.063.085.037.152-.063.16-.15.367-.245.56-.074.155-.16.296-.27.39-.055.046-.114.083-.182.1-.026.006-.055.016-.082.01zm-8.642-1.786c-.127-.027-.102-.17-.15-.288-.173-.405-.314-.82-.47-1.232-.09-.248-.046-.262-.116-.445-.065-.16-.194-.38-.215-.59-.01-.09-.03-.21.042-.262.098-.068.2.064.263.184.063.118.114.26.128.333.027.14.018.288.047.428.03.14.11.25.165.384.033.096.023.207.06.304.124.33.316.645.43.975.05.136-.04.24-.18.215zm-2.026-6.154c-.115-.213-.115-.52-.096-.777.005-.06 0-.12.02-.17.06-.125.15-.06.22.03.04.05.1.106.11.155.04.188.08.45.054.668-.03.255-.183.326-.307.096zm-4.81-.282c-.25-.05-.076-.248.053-.395.104-.116.22-.24.37-.273.27-.058.454-.025.427.283-.02.227-.176.31-.32.35-.147.037-.33.077-.53.037zm-6.112 1.11c-.003-.063.005-.133.05-.202.365-.576.665-.965.744-1.116.047-.09.09-.183.114-.26.03-.1.025-.215-.135-.242-.154-.026-.213.053-.295.156-.26.323-.406.735-.654 1.067-.103.137-.115.13-.185.166-.176.082-.387.12-.56.03-.29-.16-.79-.59-.595-.94.19-.338.456.093.712.122.228.028.38-.206.49-.39.07-.107.2-.344.247-.547.03-.14.025-.307-.11-.33-.2-.032-.28.155-.457.26-.192.12-.415.034-.636.07-.292.05-.304.27-.49.484-.12.136-.29.17-.464.125-.086-.024-.153-.08-.19-.16-.147-.29.18-.7.315-.945.104-.183.1-.19.127-.324.046-.254.075-.485.175-.72.13-.305.448-.403.734-.566.253-.147.413-.424.62-.634.27-.27.6-.463.864-.732.124-.125.2-.302.334-.42.085-.075.22-.093.32-.033.132.08.132.08.195.146.435.42.825 1.217.916 1.613.09.397.162.3.193.56.03.26.073.704.05.984-.023.28 0 .3-.18.686-.176.384-.612 1.12-1.124 1.49-.062.042-.046.06-.436.4-.085.07-.208.163-.3.242-.137.11-.38.26-.4-.044zm7.623-1.936c-.24-.134-.153-.313.008-.507.44-.534.857-1.028 1.19-1.634.146-.27.288-.54.442-.805.165-.287.21-.483.314-.778.09-.263.226-.237.305-.034.02.047-.02.24-.06.42-.04.163-.128.277-.18.436-.147.455-.41.913-.663 1.313-.217.347-.436.7-.67 1.036-.16.23-.28.42-.533.54-.046.028-.11.04-.153.02zm-2.32-.116c-.06 0-.14 0-.18-.05-.095-.12.02-.25.113-.343.26-.26.497-.545.8-.753.326-.222.37.115.24.344-.183.32-.49.628-.805.766-.052.023-.11.04-.166.04zm-.212-1.437c.252-.47.732-.74 1.173-1.03.293-.19.405-.15.2.19-.193.322-.5.63-.76.86-.07.07-.21.175-.26.194-.2.073-.52.1-.35-.215zm1.793-.35c.06-.06.143-.12.17-.16.056-.07.28-.332.37-.47.25-.392.48-.8.72-1.2.062-.105.164-.247.256-.347.12-.13.283-.19.38.1.042.117-.1.263-.17.36-.316.43-.448.574-.862 1.13-.18.24-.36.597-.63.74-.152.077-.52.135-.235-.154zm-2.52-1.063c.08-.236.15-.492.32-.672.17-.175.294-.27.52-.162.12.057.24.13.324.236.164.213-.243.205-.406.255-.27.083-.41.274-.572.48-.037.047-.063.11-.115.148-.25.19-.11-.175-.072-.28zm14.34-.105c-.29-.07-.525-.333-.82-.367-.53-.06-1.084 0-1.613.087-.32.05-.556.31-.87.4-.098.027-.17-.023-.144-.12.06-.21.382-.288.567-.366.1-.043.23-.098.3-.157.15-.126.154-.127.263-.267.207-.27.246-.36.58-.28.177.05.343.11.527.107.38-.003.752-.02 1.13-.06.082-.01.17-.042.242-.083.166-.09 1.1-.53.835 0-.17.34-.44.62-.675.917-.117.15-.157.234-.326.194zm-11.7-.3c-.21-.01-.037-.31.045-.433.104-.16.46-.61.555-.24.082.33-.29.686-.6.673zm1.98-.946c-.11.013-.184-.12-.22-.224-.053-.147.11-.46.28-.66.33-.386.253-.055.26.122.02.31.018.718-.32.758zM20.59 32.6c-.147-.005-.286-.064-.392-.167-.27-.26-.25-.28-.45-.58-.05-.085-.05-.167-.01-.255.1-.203.37-.387.59-.44.06-.013.127-.022.19-.01.153.032.273.12.42.17.13.04.37.007.348.167-.037.24-.06.45-.096.68-.012.108-.01.125-.13.238-.14.136-.27.206-.47.198zm1.834-.71c.05-.12.167-.246.274-.333.16-.127.31-.055.27.167-.03.13-.14.277-.25.37-.18.15-.402.07-.29-.2zm8.01-.83c-.646-.108-.747-.854-.945-1.37-.02-.05-.035-.114-.008-.16.088-.153.19-.318.414-.473.51-.356 1.09-.592 1.64-.896.02-.015.04-.04.062-.05.374-.16.74-.353 1.125-.487.24-.08.89-.033.79-.41-.063-.254-.42-.286-.24-.585.06-.102.14-.192.23-.27.1-.084.21-.162.33-.212.413-.17.863-.212 1.283-.372.256-.096.508-.307.76-.13.096.066.167.162.24.25.04.05.08.1.105.16.315.77.546 1.57.353 2.393-.04.167-.055.2-.15.33-.24.317-.606.304-.98.41-.237.064-.45.105-.68.2-.22.09-.37.293-.57.42-.05.03-.112.03-.162.056-.32.175-.67.34-1.007.48-.37.153-.736.364-1.127.45-.242.053-.5.016-.743.063-.16.03-.36.165-.41.173-.105.02-.213.054-.32.036zm-6.95 0c-.186-.016-.426-.178-.335-.388.052-.13.19-.278.325-.25.2.04.3.132.303.336.003.197-.11.313-.297.297zm2.532-.56c-.177-.03-.22-.067-.26-.235-.03-.15.062-.32.163-.43.07-.075.165-.163.276-.132.11.03.156.14.186.218.063.17-.007.37-.196.508-.05.038-.112.088-.175.077zm-3.75-.657c-.186-.04-.177-.07-.25-.126-.312-.232-.634-.46-1.022-.55-.094-.022-.165-.104-.257-.13-.41-.11-.84-.245-1.202-.463-.044-.025-.07-.083-.076-.134-.044-.453.712-.01.827.054.38.21.786.38 1.16.6.234.14.543.24.756.422.07.06.13.13.174.214.03.05-.05.122-.11.11zm.91-.084c-.178-.038-.22-.167-.09-.313.11-.122.322.05.29.184-.03.1-.094.15-.2.126zm-1.826-1.99c-.14-.023-.222-.105-.298-.188-.21-.23-.165-.36-.01-.598.133-.204.313-.373.485-.544.13-.13.26-.265.42-.357.166-.096.358-.147.498 0 .067.07.06.08.067.127.036.473-.082.82-.384 1.204-.11.14-.232.28-.412.323-.116.027-.238.044-.355.026zm3.71-1.27c-.094-.004-.193-.042-.24-.13-.143-.28-.09-.66-.06-.97.01-.12.044-.242.1-.35.078-.146.22-.116.318-.006.054.058.06.147.09.22.146.326.365.636.577.898.038.048.038.13.01.184-.046.084-.07.074-.107.078-.23.022-.45.093-.683.08zm-7.68-.423c-.43-.063.1-.497.286-.44.092.03.088.055.09.084.023.2-.206.38-.376.36zm-.414-1.106c-.262-.03-.57-.16-.435-.46.09-.208.44-.174.61-.07.06.034.12.092.13.16.048.243-.04.41-.302.374zm.19-.86c-.22-.05-.396-.233-.445-.46-.06-.3.02-.36.327-.31.204.03.298.168.343.366.06.272.063.468-.22.405zm10.334-.303c-.045-.14-.08-.29-.05-.417.058-.207.23-.245.39-.117.064.05.154.118.154.208 0 .127-.08.26-.152.37-.19.3-.26.195-.34-.04zm.21-1.397c.006-.056.02-.113.044-.167.028-.06.066-.11.107-.143.13-.1.27-.058.22.167-.01.06-.03.128-.07.196-.1.18-.32.22-.3-.05zm-5.2 6.376c-.112 0-.214-.072-.307-.134-.43-.287-.813-.653-1.24-.947-.214-.148-.484-.32-.63-.532-.138-.202-.117-.216-.163-.36-.04-.125-.02-.136-.058-.176-.325-.345-.697-.68-.99-1.05-.115-.142-.118-.178-.178-.248-.18-.21-.29-.534-.34-.805-.045-.226-.04-.316-.03-.547.023-.51.124-.84.4-1.258.234-.36.638-.696 1.076-.75.16-.02.26.03.596-.02.122-.02.185-.18.263-.07.05.07-.04.19.01.26.14.216.463 0 .664-.075.082-.033.156-.003.21.064.125.157.185.406.354.52.385.262.707.23.92.682.115.25.16.48.35.678.035.04.093.063.147.065.183.01.373.016.55-.03.307-.07.57-.304.73-.58.067-.117.224-.34.394-.46.102-.073.223-.125.32-.05.07.05.042.14.01.212-.046.093-.137.18-.17.255-.067.13-.127.275-.134.42-.012.25-.004.504.04.75.023.125.04.124.315.55.108.17.26.315.38.478.114.157.15.22.235.38.124.243.05.528.145.777.047.117.184.12.268.09.08-.03.155-.113.173-.243.03-.213.1-.43.236-.596.115-.144.14-.13.14-.157.007-.11-.032-.184-.056-.24-.078-.18-.07-.223.235-.154.23.055.442.01.64-.065.515-.2.84-.514.957-1.062.038-.17.06-.356.038-.57-.012-.103-.043-.223-.03-.335.028-.237.187-.36.37-.165.055.06.105.13.13.21.03.09.06.18.063.27.008.4-.037.76-.11 1.12-.087.44-.216.75-.503 1.093-.056.07-.122.128-.256.07-.27-.113-.69-.393-.93-.113-.186.22-.225.47-.274.755-.017.09-.014.18-.034.275-.028.117-.104.22-.127.34-.06.306-.23.604-.56.6-.063 0-.195-.024-.312-.077-.164-.076-.164-.076-.254-.127-.187-.107-.29-.285-.426-.452-.13-.16-.163-.23-.36-.15-.25.105-.413.34-.5.606-.03.1-.02.215-.05.32-.012.064-.024.13-.063.183-.01.01-.034.013-.043.002-.07-.098-.04-.21-.078-.32-.06-.165-.128-.25-.287-.315-.06-.023-.13-.01-.188.01-.206.074-.388.176-.556.317-.29.24-.256.277-.627.647-.17.17-.266.234-.5.234zm.68-7.827c-.086-.007-.184-.025-.283-.018-.136.01-.2.05-.24-.09-.01-.042.028-.082.048-.12.266-.515.26-.52.3-.548.13-.085.252-.02.3.11.068.19.074.38.03.58-.016.07-.087.095-.155.09zm.86-2.76c-.104-.006-.173-.02-.2-.12-.023-.09.09-.15.176-.2.085-.045.19-.06.263-.094.18-.093.27-.23.46-.152.04.018.07.07.07.117.005.055-.018.11-.05.154-.107.124-.23.215-.39.26-.11.028-.22.04-.33.035zm9.55 63.472c-.052-.002-.102-.03-.147-.057-.276-.165-.48-.37-.68-.634-.16-.214-.324-.433-.53-.61-.18-.16-.402-.264-.587-.416-.042-.03-.07-.083-.08-.14-.02-.08-.027-.172-.015-.26.03-.222-.023-.35-.203-.464-.27-.175-.583-.243-.746-.535-.05-.085-.052-.084-.07-.162-.034-.182-.07-.323.077-.45.127-.11.294-.076.244-.24-.07-.23-.257-.397-.38-.6-.29-.493-.602-.925-.73-1.49-.07-.35-.1-.714-.05-1.067.03-.226.2-.427.32-.62.38-.606.357-.62.435-.81.126-.3.267-.59.333-.905.032-.16.05-.33.08-.49.02-.11-.025-.222-.005-.33.03-.16.07-.303.07-.465.01-.73-.095-1.452-.1-2.177-.003-.183.097-.335.114-.516.028-.305-.02-.705.054-1.01.028-.11.016-.23-.016-.34-.11-.37-.25-.69-.2-1.073.05-.386.33-.71.404-1.09.014-.063 0-.13.015-.19.032-.143.085-.495.05-.77-.044-.32-.2-.46-.398-.22-.067.08-.102.18-.13.28-.05.167-.13.304-.14.47-.037.49.063.98.064 1.47 0 .063-.01.06-.038.203-.012.08-.07.15-.08.23-.02.206.05.45-.062.624-.164.26-.417.228-.665.04-.17-.13-.347-.25-.55-.306-.474-.123-.853-.35-1.267-.62-.426-.272-.904-.47-1.367-.69-.083-.034-.165-.08-.232-.14-.284-.26-.487-.67-.713-.99-.19-.27-.27-.33-.32-.4-.12-.18-.182-.303-.37-.706-.19-.4-.43-.622-.712-.966-.352-.426-.35-1.04-.537-1.555-.02-.05-.07-.085-.08-.136-.034-.174-.02-.343-.096-.504-.094-.2-.083-.21-.136-.28-.107-.14-.406-.352-.456-.42-.067-.084-.135-.17-.176-.267-.105-.25-.13-.393-.145-.456-.027-.134-.006-.274-.043-.4-.114-.39-.057-.82-.148-1.228-.044-.19-.02-.39.004-.585.025-.246.01-.247.005-.296-.022-.21-.062-.404-.114-.606-.03-.12-.14-.215-.16-.336-.32-2.184-1.84-4.06-2.14-6.186-.043-.315.02-.536.11-.826.044-.134.087-.27.1-.407.034-.405-.01-.41.026-.596.044-.23.16-.434.39-.28.1.064.187.157.253.26.33.5.29.527.415.71.077.11.215.27.35.387.083.067.177.143.26.11.14-.06.09-.26-.014-.45-.174-.316-.53-.674-.59-.756-.033-.042-.045-.1-.08-.14-.13-.144-.196-.29-.27-.466-.602-1.427-.637-3.014-.833-4.543-.153-1.203-.315-2.4-.52-3.51-.06-.322-.157-.654-.38-.895-.152-.167-.26-.053-.45.03-.55.236-1.06.564-1.314 1.11-.055.12-.09.25-.098.383-.014.237.055.525.075.763.042.545.26 2.007.62 3.667.3 1.364.725 2.85 1.198 4.087.114.305.16.57.245.867.092.31.135.297.168.5.06.33.06.33.08 1.2.01.502-.654.52-.823.1-.095-.23-.055-.355-.104-.6-.593-2.943-1.38-6.09-2.16-9.03-.048-.178-.01-.4-.176-.506-.107-.066-.197-.084-.32-.054-.174.042-.31.07-.477.012-.12-.04-.225-.112-.31-.19-.116-.1-.23-.23-.2-.403.02-.13.113-.217.24-.265.255-.1.426-.25.624-.435.07-.063.133-.117.205-.177.08-.068.17-.13.264-.182.12-.063.262-.092.383-.162.23-.134.394-.33.433-.597.037-.24-.006-.56-.04-.73-.03-.17-.034-.2-.06-.292-.027-.092-.084-.073-.11-.243-.023-.17-.032-.62-.004-.788.026-.168.004-.173-.014-.256-.02-.08-.052-.01-.096-.23-.044-.22-.3-.71-.405-.895-.106-.184-.084-.083-.113-.133-.15-.265-.34-.515-.535-.75-.08-.1-.2-.17-.3-.25-.125-.104-.25-.237-.14-.424.07-.116.21-.126.32-.12.48.03 1.026.824 1.215 1.108.247.37.278.45.37.728.094.28.138.426.186.597.048.17.028.423.064.755.033.334.02-.072.04.105.016.18.02.655.06.888.034.23.14.37.214.46.075.096-.024.106.154.118.067.005.164-.04.27-.105.176-.11.388-.27.51-.386.064-.06.18-.173.083-.23-.07-.04-.14-.013-.2-.002-.103.02-.21.058-.386.07-.283.02-.303-.293-.296-.536.008-.247.02-.14-.02-.39-.02-.133-.034-.368-.043-.59-.025-.585-.1-.796-.517-1.337-.19-.247-.376-.495-.565-.74-.15-.196-.275-.41-.482-.54-.208-.13-.49-.187-.643-.34-.282-.285-.11-.682.03-.995.148-.325.15-.326.347-.606.207-.3.434-.556.695-.81.126-.125.25-.256.397-.354.656-.44.66-.44.722-.462.28-.114.59-.2.835-.38.275-.202.576-.456.63-.802.015-.12-.078-.266-.21-.226-.18.052-.28.246-.446.33-.225.114-.543.133-.758-.014-.1-.067-.194-.144-.268-.238-.22-.28-.507-.5-.748-.765-.14-.155-.327-.266-.46-.425-.08-.096-.164-.2-.23-.308-.076-.12-.08-.304-.048-.44.05-.22.184-.26.4-.24.13.01.24.11.372.122.213.017.41-.163.457-.365.038-.16 0-.27.093-.402.052-.074.1-.04.184-.202.1-.195-.197-.414-.268-.6-.05-.12-.057-.196-.065-.28-.015-.15-.015-.296.025-.443.037-.137.097-.266.173-.38.18-.275.404-.53.64-.76.255-.25.497-.46.808-.625.16-.083.32-.15.49-.205.06-.018.124-.024.18-.01.207.052.357.24.56.28.2.04.297-.085.407-.253.19-.288.392-.068.59.07.134.09.268.033.333-.108.024-.058-.018-.06.006-.32.014-.15.03-.15.08-.245.17-.296.522-.44.802-.614.116-.073.13-.047.22-.11.04-.026.2-.18.36-.252.41-.186.09-.417-.123-.268-.06.04-.116.085-.183.104-.085.024-.21-.023-.26.05-.068.1-.023.127-.063.16-.15.12-.31.24-.49.307-.265.1-.51.225-.73.396-.21.167-.395.377-.62.52-.2.124-.63.085-.44-.334.05-.11.11-.228.162-.3.232-.34.124-.86.003-1.22-.133-.39 0-.837.24-1.135.587-.734 1.435-1.34 2.37-1.55.34-.08.69-.067 1.026-.03.308.032.67.1.94.25.17.092.413.155.458.356.04.18.01.225-.137.356-.04.04-.14.17-.142.22-.004.27.307.365.53.32.13-.023.286-.1.427-.096.18 0 .352.097.26.34-.048.12-.172.148-.298.128-.13-.02-.16.115-.276.145-.144.037-.302.002-.45.034-.165.037-.15.084-.415.164-.215.068-.5.128-.713.266-.428.28-.136.58.22.414.233-.107.228-.124.384-.163.26-.065.55-.166.804-.256.125-.042.185-.024.34-.09.18-.07.42-.212.593-.1.273.187.138.497-.064.694-.13.124-.33.166-.485.26-.07.04-.15.074-.196.14-.107.144-.14.17-.17.326-.033.18-.014.36.03.54.02.08.1.13.14.202.145.296.356.52.63.7.194.13.347.133.574.17.192.03.316.025.515-.05.2-.077.45-.22.61-.21.16.006.132.04.217.082.085.042.18.14.25.232.126.164.147.244.16.444.01.123-.014.254.03.37.076.203.256.314.434.168.11-.09.17-.208.138-.35-.064-.275-.093-.45.126-.654.12-.11.32-.11.55-.062.333.07.714.288 1 .374.68.206 1.084.537 1.64.927.165.115.3.265.47.376.41.27.847.48 1.28.713.136.074.263.17.385.268.093.074.19.153.26.25.06.076.12.166.135.264.057.46-.245.44-.63.48-.144.014-.29.03-.424.08-.207.082-.333.15-.41.22-.11.1-.19.23-.28.35-.213.283-.395.493-.46.534-.27.166-.458.04-.73-.08-.346-.15-.727-.37-.9-.728-.06-.13-.096-.15-.155-.264-.106-.203-.338-.273-.265.05.04.168.2.363.233.47.024.078 0 .167.024.247.03.09.04.17.076.258.063.15-.015.37.128.45.096.054.11-.013.26.02.237.058.378.115.44.35.068.26.033.297-.194.458-.214.154-.226.146-.356.173-.44.093-.705.44-1.12.558-.057.016-.094.074-.15.09-.087.028-.186.01-.27.04-.145.05-.3.073-.452.058-.163-.015-.295-.09-.432.01-.056.04-.06.125-.06.19 0 .347.03.686.102 1.024.035.174.02.365.085.53.114.294.36.547.447.852.085.29.152.653.37.86.102.097.203.005.28-.097.31-.404.724-.748 1.235-.87.38-.09.72-.168 1.11-.153.26.01.39.28.604.41.26.16.502.155.595-.17.06-.212.08-.45.154-.66.075-.21.197-.347.41-.417.127-.042.27-.04.404-.02.1.014.103.03.172.1.2.2.142.36-.006.577-.074.11-.19.19-.264.305-.07.11-.12.24-.16.366-.016.05-.01.108-.004.163.03.262.287.466.437.673.085.113.086.26.034.39-.14.37-.245.688-.143 1.086.08.306.29.56.366.858.047.184.1.4-.06.52-.07.054-.17.066-.256.073-.866.067-1.74.046-2.6.16-.173.027-.324.065-.493.1-.215.046-.446.01-.66.07-.335.096-.723.256-1.005.47-.25.19-.45.27-.74.37-.15.05-.235.113-.383.175-.23.097-.428.267-.63.413-.31.225-.305.248-.494.3-.205.054-.476.016-.54-.213-.07-.233-.07-.485-.04-.725.015-.136.093-.257.17-.368.152-.22.346-.4.607-.477.08-.024.17-.005.25-.026.197-.05.57-.16.64-.36.027-.074.02-.162-.01-.233-.09-.21-.31-.177-.507-.22-.273-.057-.55-.037-.813-.1-.05-.01-.112.02-.163-.002-.15-.06-.272-.14-.38-.26-.233-.265-.26-.32-.317-.4-.198-.27-.45-.54-.323-.883.03-.076.094-.125.173-.14.15-.034.31 0 .46-.037.13-.034.228-.09.304-.2.17-.25.26-.5.544-.63.067-.03.147-.028.218-.01.26.06.484.197.678.2.11.002.15-.117.098-.21-.163-.3-.434-.54-.666-.793-.06-.064-.1-.147-.12-.23-.026-.093-.03-.19-.017-.287.03-.21.03-.46.07-.668.027-.13.06-.195.09-.325.048-.2.03-.443.003-.647-.007-.043-.023-.1-.063-.114-.176-.075-.304.103-.453.21-.166.113-.173.11-.247.122-.178.027-.358.042-.537.028-.188-.01-.466-.09-.627.015-.03.018-.045.043-.014.076.116.12.28.116.44.15.272.054.274.055.362.1.185.09.287.164.39.335.18.303.19.3.223.417.06.22.117.43.08.655-.036.23-.057.23-.17.39-.185.26-.363.57-.68.618-1.21.187-1.223.11-1.577.073-.45-.05-.474-.307-.6-.71-.04-.13.002-.28-.033-.41-.06-.225-.108-.44-.2-.654-.07-.156-.226-.295-.42-.59-.07-.106-.063-.246-.047-.37.023-.176.107-.445-.104-.45-.235-.004-.246.373-.21.562.036.19.133.366.195.547.026.075.03.124.058.2.037.1.127.173.157.275.06.2.14.344.195.546.057.218.023.515.084.73.056.207.044.41.102.613.088.314.054.64.146.964.047.165.08.27.13.44.025.086-.01.18.027.26.09.22.063.51.12.754.044.19.068.503.146.117.035-.162.03-.343.02-.513-.02-.473.216-.316.35.005.024.06.002.137.02.2.07.24.153.495.194.74.04.235.105.45.176.676.043.14.053.136.073.247.044.25.055.578.15.824.035.095.06.18.073.28.047.286.035.57.115.85.1.344.075.764.167 1.105.04.157.068.34.123.49.07.19.19.33.457.28.23-.04.27-.165.376-.38.158-.314.288-.646.425-.97.103-.247.106-.246.145-.4.085-.34.447-.638.774-.72.195-.05.28-.338.36-.514.045-.11.123-.204.21-.286.166-.16.332-.294.552-.364.16-.05.34-.04.51-.026.126.01.16.014.28-.02.196-.05.28-.024.433-.092.5-.227.983-.15 1.52-.238.09-.015.16-.09.25-.108.176-.038.176-.036.296-.05.364-.047.365-.082 1.303-.082.204 0 .342.115.47.288.063.09.117.193.144.3.03.13.036.265.02.396-.012.126-.042.255-.096.37-.086.174-.32.25-.37.436-.06.227.3.25.47.3.255.07.35.09.46.14.075.04.15.083.216.143.04.037.07.09.084.144.02.07.036.148.01.216-.12.35-.545.334-.87.418-.34.09-.685.187-1.027.294-.124.04-.264.004-.39.044-.29.095-.644.474-.43.763.313.417.666-.395.9-.54.39-.234 1.056-.53 1.43-.08.037.042.07.092.08.15.03.216.03.437 0 .655-.023.165-.056.3-.083.466-.015.096.012.19.003.287-.006.09-.195.95.127.71.18-.137.14-.26.17-.48.025-.17.05-.33.07-.502.015-.137-.037-.28-.01-.413.023-.133.096-.397.23-.444.1-.036.22-.068.31-.018.26.142.32.302.403.6.05.19.044.396.03.594-.01.15-.07.272-.098.42-.018.1-.13.223-.07.307.024.032.078-.025.112-.045.193-.118.32-.177.5-.005.025.028.06.058.07.098.023.15.04.3.022.452-.017.16-.025.16-.056.286-.03.117-.1.176-.336.837-.066.19-.24.553-.05.694.147.11.224-.012.27-.172.037-.144.08-.246.12-.387.06-.202-.013-.36.22-.41.26-.052.427.2.48.43.06.25.06.516.04.774-.013.18-.08.355-.112.54-.028.154.125.52-.138.774-.125.123-.173.28-.213.42-.12.42-.005.843-.125 1.223-.117.36-.36.673-.506 1.023-.135.33-.195.678-.24 1.033-.01.07-.06.134-.074.206-.166.86-.277 1.097-.742 1.826-.126.198-.233.417-.288.646-.012.05-.024.12.01.16.166.22.43-.013.637.148.194.15.13.32.023.513-.08.148-.357.245-.347.41.01.136.18.034.29-.002.04-.013.1-.03.133-.004.14.103.083.304.073.466-.01.194-.002.393.03.586.035.196.17.635.425.418.025-.015.025-.053.023-.08-.027-.25-.217-.65-.005-.837.04-.037.113-.026.17-.01.27.087.45.316.54.58.044.115.06.22.08.34.047.27.083.556.044.83-.046.314-.196.508-.45.727-.06.055-.125.1-.197.13-.07.036-.146.05-.222.06-.22.03-.32.04-.512.148-.052.03-.123.03-.18.01-.182-.07-.35-.144-.47-.297-.107-.137-.142-.322-.24-.466-.052-.074-.124-.13-.2-.18-.235-.147-.337-.32-.41-.592-.034-.134-.112-.233-.196-.347-.17-.23-.35-.475-.477-.73-.02-.044-.014-.096-.03-.14-.13-.318-.3-.64-.277-1 .01-.154-.135-.19-.232-.313-.193-.25-.467-.446-.584-.74-.073-.184-.125-.4-.15-.596-.084-.64-.066-1.29-.114-1.94-.004-.04-.04-.08-.043-.124-.04-.39-.17-.78-.41-1.103-.09-.118-.17-.22-.2-.36-.07-.334-.11-.61-.337-.877-.06-.07-.12-.123-.173-.2-.326-.475-.806-.846-1.193-1.277-.25-.28-.43-.738-.54-1.073-.022-.06-.028-.13-.01-.193.044-.17.18-.272.26-.426.058-.11.01-.264-.12-.21-.19.077-.383.15-.5.317-.11.16-.146.166-.13.287.022.184.17.246.26.405.107.19.492.573.188.73-.396.205-.76-.05-1.067-.315-.14-.12-.25-.27-.34-.43-.07-.12-.085-.115-.148-.3-.044-.136-.067-.276-.056-.416.01-.148.056-.31 0-.45-.093-.26-.313-.45-.39-.715-.07-.244-.13-.537-.194-.783-.046-.17-.02-.295-.11-.447-.034-.06-.166-.177-.3-.27-.17-.12-.397-.203-.447.003-.03.126.047.255.1.38.08.206.172.414.227.63.035.134.126.25.163.383.043.16.05.328.108.48.087.226.14.4.19.63.01.054.125.405.196.54.056.105.057.17.106.277.09.193.228.365.36.535.074.097.164.18.26.257.167.134.358.23.57.276.284.06.414.068.61.27.117.12.21.21.317.34.134.16.284.32.422.48.17.196.384.29.54.49.095.12.177.24.2.393.04.28.084.57.045.853-.056.39-.19.8-.035 1.17.154.37.364.714.52 1.077.08.19.2.36.244.56.06.283.026.58.056.873.004.035.037.06.04.095.034.293 0 .597.07.884.063.25-.016.488-.02.73-.002.174.11.34.203.49.243.394.506.784.775 1.16.09.126.18.265.27.39.05.07.18.22.276.36.18.266.37.468.6.69.04.037.06.093.1.13.33.327.593.648.845 1.035.07.106.186.435.192.487.034.25.06.5.04.75-.01.113-.07.217-.127.317-.085.15-.413.387-.296.527.13.153.363.042.49-.106.143-.17.186-.4.21-.625.03-.257-.054-.516-.028-.77.035-.34.44-.477.68-.26.096.086.087.204.13.324.033.093.114.17.144.265.03.096.006.205.03.305.024.11.063.216.11.316.066.14.044.254.09.4.103.296.187.662.125.97-.034.163-.09.315-.19.45-.18.24-.36.48-.54.71-.06.074-.11.163-.12.257-.025.28.015.57-.087.834-.084.22-.232.397-.24.634-.007.226.125.43.178.647.01.032.038.06.04.092.04.32.14.657.066.985-.04.18-.083.33-.17.494-.263.486-.31.56-.47.81-.3.477-.643.984-.88 1.494-.04.08-.06.123-.096.203-.264.573-.526 1.13-.935 1.614-.08.09-.138.187-.207.29-.074.11-.16.22-.19.347-.046.205-.04.403-.11.6-.132.38-.438.718-.546 1.107-.022.08.01.17-.01.25-.06.234-.1.39-.12.633-.01.1-.07.19-.08.29-.017.185-.043.32-.08.502-.03.14-.033.14-.037.202-.014.19-.024.39.03.578.064.236.22.43.33.645.042.087.092.095.06.95-.01.317-.39.576-.51.87-.094.224-.107.323.135.4.083.025.174-.014.26-.003.12.014.22.08.286.18.247.36-.333.66-.57.873-.063.057-.16.16-.14.252.01.04.04.08.07.11.013.01.035.006.05-.003.08-.06.15-.12.22-.176.166-.13.322-.213.562-.1.225.106.37.33.548.505.214.21.5.397.677.644.047.065.08.14.097.22.02.106.04.22.015.323-.03.15-.12.28-.17.425-.08.267-.134.628-.4.75-.103.045-.223.032-.333.024zM26.716 17.17c-.225-.003-.354-.085-.438-.308-.092-.248-.04-.37.153-.53.487-.394 1.02-.72 1.54-1.075 1.504-1.03 3.04-2.016 4.563-3.015 1.558-1.02 3.093-2.076 4.61-3.16 1.347-.966 2.706-1.94 4.026-2.96.644-.494 1.28-1 1.902-1.522.36-.303.69-.63.908-.99.125-.205.14-.41-.04-.824-.242-.554-.575-1.3-.74-1.704-.042-.1-.065-.213-.075-.323-.025-.25.127-.488.328-.626.387-.268.66-.118.865.22.873 1.44 2.03 4.34 2.633 5.97.214.578-.654 1.007-1.015.6-.34-.385-.63-1.28-.916-1.812-.23-.43-.576-.244-.897-.02-.85.594-1.685 1.214-2.514 1.84-1.298.98-2.578 1.977-3.89 2.924-1.508 1.083-3.03 2.14-4.58 3.18-1.48.993-2.97 1.977-4.455 2.965-.5.337-1.354 1.17-1.967 1.16z"/></svg>