<svg viewBox="0 0 101 128" xmlns="http://www.w3.org/2000/svg" fill-rule="evenodd" clip-rule="evenodd" stroke-linejoin="round" stroke-miterlimit="1.414">
    <path d="M28.013 0c1.186.01 2.205.725 3.31 1.074 2.787-.91 3.422.337 4.79.844 3.037-.641 3.959.756 5.417 2.23l1.693-.034c4.58 2.699 6.85 8.196 7.657 11.022.806-2.826 3.082-8.322 7.662-11.022l1.694.034c1.455-1.474 2.378-2.871 5.415-2.23 1.368-.507 2.005-1.754 4.789-.844C72.179.524 73.7-.93 76 .884c1.937-.747 3.815-1.006 5.494.514 2.593-.336 3.436.358 4.074 1.168.571-.011 4.261-.585 5.952 1.94 4.255-.504 5.598 2.502 4.076 5.304.867 1.344 1.769 2.673-.263 5.235.718 1.428.273 2.977-1.42 4.851.447 2.007-.431 3.423-2.006 4.527.294 2.747-2.519 4.344-3.359 4.912-.322 1.601-.995 3.111-4.208 3.946-.529 2.385-2.461 2.797-4.331 3.297 6.181 3.594 11.481 8.322 11.445 19.92l.908 1.615c7.087 4.31 13.463 18.163 3.492 29.424-.651 3.525-1.744 6.057-2.716 8.858-1.455 11.291-10.948 16.578-13.452 17.203-3.67 2.795-7.578 5.446-12.866 7.304C61.835 126.044 50.843 128 50.764 128c-5.431.003-10.831-1.956-15.816-7.098-5.289-1.858-9.197-4.509-12.866-7.304-2.504-.625-11.998-5.912-13.452-17.203-.973-2.801-2.065-5.333-2.716-8.858-9.972-11.259-3.595-25.113 3.492-29.423l.906-1.615C10.276 44.9 15.576 40.173 21.758 36.58c-1.871-.5-3.802-.912-4.332-3.297-3.213-.835-3.886-2.346-4.208-3.946-.303-.205-.864-.545-1.442-1.023l1.658-2.912c1.61 1.485 3.62 2.302 5.509 3.32-.991.687-1.699.527-2.457.518 1.405 1.172 3.795 1.782 6.013 2.489-.421.666-.843.848-1.745 1.035 2.348 1.319 5.712.716 6.66 1.39-.229.663-.875 1.095-1.649 1.455 3.781.223 14.121-.139 16.102-8.083-3.673-4.097-10.223-8.87-21.27-14.702l.147-.257c8.672 3.129 16.517 7.217 23.161 12.697 8.393-3.967 2.608-13.973-1.487-17.945-.208 1.049-.442 1.712-.711 1.907-1.333-1.45-2.422-2.936-4.139-4.332-.005.82.408 1.709-.614 2.36-.92-1.257-2.164-2.378-3.816-3.33.796 1.392.137 1.815-.291 2.392-1.261-1.097-2.459-2.21-4.785-3.071.636.786 1.524 1.554.582 2.457-.859-.544-1.722-1.089-3.1-1.564L27.9.002h-.002l-2.355 4.135a18.537 18.537 0 0 0-2.59-.666c.696.787 2.133 1.574 1.261 2.36-1.631-.632-3.435-1.091-5.432-1.357.956.798 1.754 1.58.97 2.198-1.745-.545-4.149-1.279-6.499-.646l1.488 1.519c.165.203-3.48.158-5.885.194.878 1.238 1.773 2.433 2.294 4.558-.238.245-1.43.109-2.554 0 1.153 2.463 3.154 3.085 3.621 4.139-.704.541-1.68.4-2.748.032.83 1.735 2.57 2.925 3.945 4.333-.348.25-.955.4-2.393.226a21.171 21.171 0 0 0 3.277 2.856l-.726 1.274-.384.009c.081.08.163.158.246.235l-1.659 2.912c-1.024-.848-2.104-2.134-1.916-3.889-1.575-1.103-2.453-2.519-2.006-4.526-1.693-1.875-2.139-3.424-1.42-4.851-2.031-2.564-1.131-3.892-.262-5.237-1.523-2.802-.179-5.807 4.073-5.304 1.693-2.524 5.383-1.951 5.953-1.939.638-.81 1.481-1.505 4.074-1.168C21.95-.122 23.829.138 25.765.885c.79-.623 1.486-.863 2.133-.883V.001L27.985 0h.028zm23.231 110.429c5.847-.255 13.694 1.883 13.709 4.721.098 2.755-7.116 8.979-14.097 8.859-7.23.312-14.319-5.922-14.226-8.083-.109-3.168 8.798-5.641 14.614-5.497zm20.765-18.404c-4.504 5.276-7.012 14.899-3.727 17.998 3.142 2.408 11.577 2.071 17.807-6.573 4.524-5.806 3.008-15.503.424-18.077-3.839-2.969-9.35.83-14.504 6.65v.002zm-42.363 1.59c-4.778-5.544-10.986-8.85-15.003-6.403-2.687 2.045-3.18 9.004.647 15.844 5.673 8.15 13.655 8.967 16.942 6.984 3.475-2.598 1.577-11.41-2.587-16.425h.001zm36.09-.848c.042 7.413-6.441 13.454-14.479 13.493-8.039.039-14.59-5.939-14.633-13.352v-.141c-.042-7.412 6.44-13.453 14.479-13.493 8.039-.039 14.59 5.939 14.633 13.352v.141zM12.614 60.885c6.512-1.746 2.199 26.939-3.099 24.585-5.828-4.687-7.705-18.412 3.099-24.585zm75.251-.358c-6.512-1.745-2.198 26.941 3.1 24.587 5.828-4.688 7.705-18.417-3.1-24.587zm-45.107-6.102c6.031 3.951 7.118 12.908 2.428 20.005-4.69 7.097-13.381 9.648-19.413 5.696-6.031-3.951-7.118-12.908-2.428-20.005 4.69-7.097 13.382-9.648 19.413-5.696zm16.278-.716c-6.031 3.952-7.118 12.909-2.428 20.006 4.69 7.097 13.381 9.647 19.413 5.696 6.031-3.952 7.118-12.908 2.428-20.006-4.69-7.097-13.381-9.647-19.413-5.696zm6.705-14.542c11.237-1.898 20.588 4.779 20.21 16.964-.369 4.67-24.334-16.255-20.21-16.964zm-31.049-.358c-11.238-1.898-20.588 4.78-20.21 16.965.369 4.67 24.335-16.255 20.21-16.965zm16.142-2.842c-6.707-.174-13.143 4.978-13.159 7.966-.018 3.632 5.303 7.35 13.205 7.444 8.07.057 13.219-2.976 13.245-6.724.03-4.245-7.339-8.751-13.291-8.686zm32.421-24.089c-12.148 6.265-19.212 11.331-23.081 15.648 1.982 7.944 12.321 8.306 16.101 8.083-.774-.36-1.42-.792-1.648-1.455.948-.674 4.312-.071 6.66-1.39-.902-.187-1.324-.369-1.746-1.035 2.219-.707 4.609-1.317 6.014-2.489-.758.009-1.467.169-2.457-.518 1.987-1.07 4.108-1.919 5.755-3.556-1.027-.025-2.135-.011-2.457-.388 1.819-1.127 3.354-2.38 4.624-3.751-1.438.174-2.045.024-2.393-.226 1.375-1.408 3.115-2.598 3.945-4.333-1.068.368-2.045.509-2.749-.032.467-1.054 2.469-1.676 3.622-4.139-1.124.109-2.316.245-2.555 0 .523-2.126 1.418-3.321 2.296-4.559-2.405-.036-6.05.01-5.885-.194l1.487-1.52c-2.349-.632-4.753.102-6.499.647-.783-.618.014-1.4.97-2.198-1.996.266-3.801.725-5.432 1.358-.871-.787.566-1.574 1.262-2.361-3.085.585-4.392 1.408-5.691 2.231-.943-.903-.054-1.671.582-2.457-2.326.861-3.524 1.974-4.785 3.072-.428-.577-1.087-1.001-.292-2.393-1.651.952-2.895 2.074-3.815 3.33-1.022-.65-.609-1.54-.614-2.36-1.717 1.396-2.806 2.882-4.139 4.333-.269-.196-.504-.859-.711-1.908-4.095 3.972-9.88 13.978-1.488 17.945 7.138-5.892 15.667-10.173 25.119-13.385l.003-.001h.002l-.005.001zM14.299 23.884c.43.306.879.604 1.346.894-.282.33-1.166.36-2.071.379l.725-1.273zm4.496-12c.654.222 1.303.449 1.948.682l-.147.257c-.587-.31-1.188-.623-1.801-.939l-.017-.006.003-.001.014.007z"/>
</svg>
