<?xml version="1.0" encoding="UTF-8" standalone="no"?><!DOCTYPE svg PUBLIC "-//W3C//DTD SVG 1.1//EN" "http://www.w3.org/Graphics/SVG/1.1/DTD/svg11.dtd"><svg width="100%" height="100%" viewBox="0 0 128 128" version="1.1" xmlns="http://www.w3.org/2000/svg" xmlns:xlink="http://www.w3.org/1999/xlink" xml:space="preserve" xmlns:serif="http://www.serif.com/" style="fill-rule:evenodd;clip-rule:evenodd;stroke-linejoin:round;stroke-miterlimit:1.41421;"><path d="M32.831,68.818c0.291,0.048 0.566,0.113 0.808,0.291c0.243,0.194 0.388,0.517 0.534,0.792c0.372,0.744 0.695,1.52 1.003,2.296l1.148,2.83c-0.259,0.388 -0.518,0.776 -0.76,1.164c0.145,0.744 0.21,1.52 0.21,2.345c0,1.503 -0.243,2.894 -0.728,4.171c-0.485,1.278 -1.116,2.313 -1.892,3.138c-0.76,0.84 -1.649,1.503 -2.668,2.005c-0.598,0.291 -1.277,0.549 -2.037,0.776c-4.414,8.958 -6.015,15.959 -3.832,19.113c3.832,5.513 18.142,-2.361 34.554,-18.046l6.937,0l0,-1.52c-0.598,-0.049 -1.18,-0.081 -1.778,-0.194c-0.13,-0.016 -0.275,-0.048 -0.421,-0.097c-0.259,-0.097 -0.453,-0.275 -0.566,-0.534l-0.048,-0.129c-0.113,-0.582 0.113,-1.196 0.323,-1.73l0.178,-0.405c0.485,-0.501 0.97,-1.002 1.455,-1.503l6.145,0c0.226,0.533 0.452,1.067 0.679,1.601c-28.669,31.692 -56.594,49.706 -63.079,40.343c-3.816,-5.481 0.55,-19.258 10.446,-36.317l-5.303,0l0,-0.582l0.727,0c0.615,0 1.1,-0.097 1.423,-0.307c0.34,-0.195 0.582,-0.453 0.744,-0.793c0.097,-0.226 0.146,-0.889 0.146,-2.005l0,-14.116c0,-1.1 -0.065,-1.779 -0.178,-2.054c-0.113,-0.275 -0.356,-0.517 -0.712,-0.727c-0.356,-0.194 -0.824,-0.308 -1.423,-0.308l-0.727,0l0,-0.582l9.621,0c2.554,0 4.624,0.356 6.193,1.051c0.744,0.34 1.423,0.744 2.037,1.213c0.275,-0.388 0.566,-0.792 0.841,-1.18Zm10.51,20.875l-0.598,0l-7.05,-17.528c-0.712,-1.763 -1.229,-2.83 -1.504,-3.185c-0.291,-0.389 -0.76,-0.599 -1.439,-0.664l0,-0.582l9.298,0l0,0.582c-0.744,0.033 -1.245,0.146 -1.488,0.34c-0.242,0.21 -0.372,0.469 -0.372,0.776c0,0.405 0.259,1.245 0.776,2.539l4.204,10.429l3.38,-8.149l-0.889,-2.28c-0.485,-1.245 -0.857,-2.07 -1.132,-2.49c-0.259,-0.405 -0.55,-0.712 -0.906,-0.89c-0.339,-0.177 -0.841,-0.275 -1.504,-0.275l0,-0.582l10.398,0l0,0.582c-0.728,0.017 -1.245,0.065 -1.569,0.178c-0.226,0.081 -0.388,0.195 -0.517,0.372c-0.13,0.178 -0.194,0.372 -0.194,0.599c0,0.242 0.242,0.986 0.711,2.231l3.913,10.171l3.493,-9.217c0.372,-0.938 0.598,-1.585 0.679,-1.94c0.097,-0.34 0.129,-0.663 0.129,-0.97c0,-0.421 -0.145,-0.76 -0.436,-1.019c-0.291,-0.243 -0.873,-0.372 -1.698,-0.405l0,-0.582l5.562,0l0,0.582c-0.404,0.033 -0.743,0.146 -1.018,0.34c-0.275,0.178 -0.518,0.485 -0.728,0.873c-0.065,0.13 -0.388,0.938 -1.002,2.442l-6.711,17.722l-0.614,0l-5.32,-13.841l-5.854,13.841Zm22.282,-0.485l-7.131,0l0,-0.582c0.777,-0.13 1.407,-0.437 1.892,-0.97c0.501,-0.518 1.116,-1.601 1.827,-3.235l7.681,-17.123l0.307,0l7.729,17.592c0.744,1.682 1.343,2.717 1.827,3.154c0.291,0.275 0.68,0.436 1.149,0.533l0.039,-0.004c0.401,-0.049 0.711,-0.129 0.915,-0.238c0.355,-0.178 0.598,-0.421 0.743,-0.712c0.146,-0.307 0.211,-1.018 0.211,-2.183l0,-13.938c0,-1.164 -0.065,-1.892 -0.211,-2.183c-0.145,-0.307 -0.388,-0.55 -0.76,-0.728c-0.355,-0.177 -1.018,-0.275 -2.005,-0.275l0,-0.582l9.977,0c2.603,0 4.495,0.178 5.692,0.534c1.213,0.356 2.183,1.035 2.959,1.989c0.744,0.97 1.132,2.102 1.132,3.395c0,1.585 -0.566,2.895 -1.714,3.93c-0.728,0.663 -1.746,1.148 -3.056,1.471l5.158,7.277c0.679,0.937 1.164,1.52 1.439,1.746c0.437,0.339 0.938,0.517 1.52,0.55l0.048,0c0.615,0 1.116,-0.113 1.505,-0.34c0.274,-0.145 0.484,-0.404 0.63,-0.76c0.113,-0.259 0.162,-0.921 0.162,-2.005l0,-14.116c0,-1.1 -0.049,-1.779 -0.162,-2.054c-0.113,-0.275 -0.356,-0.517 -0.712,-0.727c-0.355,-0.194 -0.824,-0.308 -1.423,-0.308l-0.711,0l0,-0.582l18.094,0l0,6.161l-0.647,0c-0.145,-1.455 -0.517,-2.522 -1.115,-3.218c-0.615,-0.695 -1.488,-1.18 -2.652,-1.471c-0.631,-0.146 -1.795,-0.226 -3.509,-0.226l-1.989,0l0,8.812l0.614,0c0.955,0 1.731,-0.145 2.329,-0.436c0.598,-0.275 1.115,-0.76 1.52,-1.44c0.42,-0.679 0.695,-1.584 0.825,-2.733l0.549,0l0,10.786l-0.549,0c-0.211,-2.037 -0.744,-3.38 -1.634,-4.026c-0.905,-0.663 -1.908,-0.987 -3.04,-0.987l-0.614,0l0,6.565c0,1.1 0.065,1.795 0.178,2.07c0.129,0.275 0.356,0.501 0.711,0.711c0.351,0.207 0.826,0.32 1.412,0.324l0.028,0l0.711,0l0,0.582l-17.318,0l-6.921,-9.799l-1.406,0l0,6.031c0,1.165 0.064,1.892 0.21,2.183c0.145,0.308 0.388,0.55 0.744,0.728c0.355,0.178 1.035,0.275 2.021,0.275l0,0.582l-19.938,0l0,-0.582l0.421,0c0.841,0 1.423,-0.13 1.763,-0.356c0.226,-0.178 0.339,-0.42 0.339,-0.728c0,-0.194 -0.032,-0.388 -0.097,-0.582c-0.016,-0.097 -0.178,-0.501 -0.469,-1.196l-1.132,-2.668l-7.583,0l-0.906,2.086c-0.307,0.695 -0.453,1.277 -0.453,1.73c0,0.598 0.243,1.035 0.744,1.326c0.275,0.177 0.97,0.291 2.102,0.388l0,0.582Zm-43.286,-20.245l0,16.736c0,0.889 0.032,1.439 0.113,1.633c0.097,0.194 0.226,0.356 0.436,0.453c0.292,0.162 0.696,0.243 1.229,0.243c1.763,0 3.105,-0.599 4.043,-1.795c1.261,-1.634 1.892,-4.156 1.892,-7.568c0,-2.765 -0.421,-4.964 -1.294,-6.613c-0.679,-1.278 -1.568,-2.151 -2.636,-2.62c-0.76,-0.323 -2.021,-0.485 -3.783,-0.469Zm48.832,12.952l-3.185,-7.389l-3.299,7.389l6.484,0Zm-1.746,-2.813c-0.711,0.792 -1.423,1.568 -2.134,2.328l3.136,0l-1.002,-2.328Zm7.002,1.18c2.021,-2.328 3.994,-4.657 5.902,-6.985l0,-1.892c0,-0.485 -0.017,-0.97 -0.065,-1.455c-0.016,-0.097 -0.032,-0.21 -0.065,-0.307c-0.097,-0.372 -0.452,-0.599 -0.808,-0.696c-0.453,-0.113 -0.922,-0.129 -1.375,-0.146l-0.663,0l0,-1.422c-1.794,2.264 -3.654,4.543 -5.595,6.807l2.669,6.096Zm13.113,-11.384l-1.681,0l0,9.395l0.889,0c1.471,0 2.571,-0.129 3.299,-0.404c0.727,-0.259 1.293,-0.76 1.714,-1.455c0.42,-0.695 0.631,-1.617 0.631,-2.749c0,-1.633 -0.389,-2.846 -1.149,-3.622c-0.76,-0.776 -2.005,-1.164 -3.703,-1.165Zm-30.269,-25.903c0.355,0.016 0.695,0.048 1.034,0.178c0.194,0.08 0.356,0.177 0.485,0.323c0.146,0.161 0.227,0.34 0.259,0.534c0,0.064 0.016,0.113 0.016,0.161c-1.503,1.569 -3.023,3.202 -4.543,4.884c0.016,-0.049 0.016,-0.097 0.032,-0.146c0.097,-0.663 0.113,-1.31 0.032,-1.973c-0.275,-1.714 -1.164,-3.137 -2.587,-4.107c28.669,-31.709 56.61,-49.738 63.111,-40.376c4.592,6.614 -2.684,25.241 -17.205,47.151c0.243,0.987 0.372,2.005 0.372,3.105c0,1.504 -0.243,2.894 -0.728,4.172c-0.501,1.261 -1.115,2.312 -1.892,3.137c-0.776,0.841 -1.649,1.503 -2.667,2.005c-1.003,0.501 -2.248,0.889 -3.687,1.164c-0.307,0.048 -0.663,0.097 -1.116,0.129c-0.986,1.31 -1.989,2.62 -3.024,3.913l-7.713,0c1.035,-1.277 2.022,-2.571 2.992,-3.848l-3.8,0l0,-0.598l0.711,0c0.631,0 1.116,-0.097 1.44,-0.291c0.339,-0.194 0.582,-0.453 0.727,-0.793c0.097,-0.226 0.145,-0.889 0.145,-2.005l0,-14.116c0,-1.099 -0.048,-1.779 -0.177,-2.054c-0.113,-0.274 -0.34,-0.517 -0.695,-0.727c-0.356,-0.194 -0.841,-0.307 -1.44,-0.307l-0.711,0l0,-0.582l9.605,0c2.571,0 4.64,0.355 6.193,1.051c0.372,0.161 0.727,0.339 1.051,0.533c6.015,-10.931 8.505,-19.63 5.983,-23.252c-4.075,-5.87 -20.019,3.428 -37.724,21.182l-5.676,0l0,1.553l1.197,0Zm-15.055,20.891c-0.857,1.132 -1.697,2.248 -2.506,3.363l-7.729,0c0.841,-1.131 1.682,-2.231 2.539,-3.363l7.696,0Zm3.17,-0.485l-10.996,0l0,-0.598c1.003,0 1.666,-0.081 2.021,-0.275c0.356,-0.178 0.599,-0.421 0.744,-0.712c0.146,-0.307 0.211,-1.035 0.211,-2.183l0,-13.938c0,-1.164 -0.065,-1.892 -0.211,-2.199c-0.145,-0.291 -0.388,-0.534 -0.744,-0.711c-0.371,-0.178 -1.034,-0.275 -2.021,-0.275l0,-0.582l9.977,0c2.603,0 4.495,0.177 5.708,0.533c1.197,0.356 2.183,1.019 2.943,1.989c0.76,0.97 1.132,2.102 1.132,3.396c0,1.584 -0.566,2.894 -1.714,3.929c-0.728,0.663 -1.747,1.148 -3.04,1.471l5.158,7.261c0.663,0.954 1.148,1.536 1.439,1.762c0.421,0.323 0.906,0.501 1.455,0.534l0.025,-0.001c0.523,-0.019 0.967,-0.132 1.301,-0.323c0.275,-0.145 0.485,-0.404 0.631,-0.76c0.113,-0.258 0.162,-0.921 0.162,-2.005l0,-14.116c0,-0.97 -0.033,-1.568 -0.065,-1.779c-0.097,-0.372 -0.307,-0.663 -0.582,-0.857c-0.404,-0.307 -0.954,-0.452 -1.649,-0.452l-0.712,0l0,-0.582l17.949,0l0,6.354l-0.599,0c-0.307,-1.552 -0.744,-2.668 -1.293,-3.347c-0.55,-0.679 -1.326,-1.164 -2.345,-1.488c-0.598,-0.194 -1.698,-0.291 -3.331,-0.291l-2.215,0l0,8.748l0.436,0c1.358,0 2.345,-0.436 2.959,-1.277c0.599,-0.857 1.003,-2.118 1.165,-3.784l0.598,0l0,11.238l-0.598,0c-0.13,-1.229 -0.389,-2.231 -0.793,-3.007c-0.42,-0.793 -0.889,-1.31 -1.423,-1.585c-0.525,-0.255 -1.301,-0.4 -2.297,-0.404l-0.047,0l0,6.047c0,1.181 0.048,1.908 0.161,2.167c0.098,0.275 0.275,0.485 0.55,0.647c0.275,0.178 0.712,0.258 1.326,0.258l1.294,0c2.005,0 3.606,-0.469 4.818,-1.39c1.213,-0.922 2.07,-2.345 2.604,-4.253l0.582,0l-0.97,6.84l-24.352,0l-6.921,-9.799l-1.407,0l0,6.031c0,1.148 0.065,1.892 0.211,2.183c0.145,0.308 0.388,0.55 0.744,0.728c0.371,0.178 1.034,0.259 2.021,0.259l0,0.598Zm39.454,-20.261l0,16.752c0,0.889 0.032,1.439 0.113,1.633c0.097,0.194 0.226,0.356 0.437,0.453c0.275,0.162 0.695,0.243 1.228,0.243c1.763,0 3.105,-0.599 4.043,-1.811c1.261,-1.617 1.892,-4.14 1.892,-7.552c0,-2.765 -0.437,-4.964 -1.294,-6.613c-0.695,-1.278 -1.568,-2.151 -2.651,-2.62c-0.76,-0.339 -2.022,-0.485 -3.768,-0.485Zm-47.992,17.722c-0.356,0.453 -0.711,0.906 -1.067,1.359c0.129,-0.017 0.242,-0.049 0.372,-0.097c0.242,-0.13 0.517,-0.324 0.598,-0.615c0.032,-0.113 0.049,-0.226 0.065,-0.339c0.016,-0.097 0.016,-0.211 0.032,-0.308Zm6.711,-6.775l3.007,4.253c-1.019,1.261 -2.005,2.522 -2.975,3.767c-0.259,-0.113 -0.485,-0.323 -0.566,-0.598c-0.065,-0.226 -0.081,-0.469 -0.097,-0.711c-0.032,-0.356 -0.032,-0.712 -0.032,-1.068l0,-5.643l0.663,0Zm6.807,-0.291c0.146,-0.162 0.275,-0.323 0.404,-0.485c-0.194,0.081 -0.388,0.146 -0.582,0.21l0.178,0.275Zm-6.274,-10.72l-1.682,0l0,9.41l0.906,0c1.455,0 2.555,-0.129 3.282,-0.404c0.728,-0.275 1.31,-0.76 1.714,-1.455c0.421,-0.712 0.631,-1.617 0.631,-2.749c0,-1.633 -0.388,-2.846 -1.148,-3.622c-0.76,-0.792 -1.989,-1.18 -3.703,-1.18Zm4.317,3.799c-1.487,1.698 -2.959,3.412 -4.382,5.11c0.211,0 0.421,-0.016 0.631,-0.032c0.679,-0.049 1.375,-0.146 2.005,-0.421c0.113,-0.048 0.21,-0.113 0.307,-0.178c0.324,-0.21 0.566,-0.452 0.793,-0.759c0.064,-0.081 0.113,-0.178 0.178,-0.275c0.533,-0.971 0.582,-2.183 0.485,-3.267c-0.017,-0.064 -0.017,-0.113 -0.017,-0.178Z" style="fill-rule:nonzero;"/></svg>