<svg viewBox="0 0 128 28" xmlns="http://www.w3.org/2000/svg" fill-rule="evenodd" clip-rule="evenodd" stroke-linejoin="round" stroke-miterlimit="1.414"><path d="M105.484 13.827v4.624c0 5.44-3.668 8.48-8.808 8.64-.288.01-.8.01-1.112 0-5.136-.19-8.812-3.23-8.812-8.63v-4.63c0-5.444 3.704-8.49 8.864-8.64.264-.01.768-.01 1.012 0 5.188.15 8.856 3.228 8.856 8.64zM22.1 26.463h-6.484L5.108 14.643v11.82H0V0h11.312c4.7 0 10.008 1.603 10.008 8.083 0 5.372-4.136 7.508-7.464 7.508-.48 0-.968-.01-1.452-.05L22.1 26.47zm40.62-8.888v-3.748c0-5.428-3.756-8.464-8.912-8.64h-.964c-5.188.176-8.856 3.212-8.856 8.64v4.624c0 5.18 3.816 8.41 8.744 8.64.524.03.796 0 1.156 0 6.168 0 8.456-3.17 8.744-6.77h-4.636c-.14.673-.344 2.43-4.252 2.43-.676 0-1.616-.16-2.3-.39-2.892-.975-2.428-4.575-2.428-4.775H62.72zM31.904 27.1c-.124 0-.264-.005-.428-.013-4.932-.228-8.744-3.464-8.744-8.636v-4.62c0-5.42 3.668-8.46 8.856-8.64h.964c5.156.18 8.912 3.22 8.912 8.64v3.75H27.76c0 .2-.464 3.8 2.428 4.78.684.23 1.624.39 2.3.39 3.908 0 4.112-1.756 4.252-2.43h4.636c-.288 3.606-2.576 6.778-8.744 6.778-.224 0-.416.01-.656.01h-.072zm47.236-8.577c0 2.892-1.968 3.984-3.968 4.108-.096.01-.612.01-.712 0-2.04-.13-3.968-1.26-3.968-4.1v-4.67c0-2.942 1.936-4.002 3.964-4.13.232-.01.44-.013.7 0 2.02.127 3.984 1.2 3.984 4.13v4.67zm16.624-8.836c-2.032.124-3.968 1.18-3.968 4.128v4.668c0 2.848 1.928 3.976 3.968 4.108.1.02.616.01.712 0 2.004-.12 3.968-1.21 3.968-4.1v-4.67c0-2.922-1.964-4.002-3.98-4.13-.268-.013-.468-.01-.7 0zm17.464 4.66s7.552-8.676 7.984-9.168h6.308l-9.144 10.49L128 26.46h-6.38l-8.392-9.395v9.396h-5.068V0h5.068v14.347zM49 13.48c0-2.805 1.832-3.89 4.008-3.993.228-.008.476-.008.676 0 2.208.104 4.06 1.276 4.06 3.988v.368H49v-.364zm-21.256 0c0-2.805 1.832-3.89 4.008-3.993.228-.008.476-.008.676 0 2.208.104 4.06 1.276 4.06 3.988v.368h-8.744v-.364zM5.108 4.526s3.296.004 6.144.004c2.848 0 5.348.9 5.348 3.617 0 2.732-1.568 3.724-5.348 3.724H5.108V4.53zm70.228.696c-2.348 0-3.952.648-4.852 1.416V0H65.44v26.463h.884s2.244-1.28 2.36-1.32c.328.352 2.532 1.996 5.592 1.996h1.112c5.108-.13 8.808-3.34 8.808-8.64v-4.63c0-5.2-3.724-8.657-8.86-8.657z"/></svg>