<svg viewBox="0 0 128 104" xmlns="http://www.w3.org/2000/svg" fill-rule="evenodd" clip-rule="evenodd" stroke-linejoin="round" stroke-miterlimit="1.414"><path d="M113.416 104v-1.288H13.343V104h100.073zM64.364 91.785c-.127 0-.208.11-.238.234l-1.3 4.74c-.092.31.24.66.558.66h1.228l.01 1.52h-6.14v-1.52h1.28c.317 0 .51-.337.63-.665L63.67 86.11l1.39-4.415c.18-.662-.174-1.333-1.1-1.337h-1.003v-1.53h8.87l5.273 17.93c.122.328.314.664.63.664h1.28v1.526H68.94l.013-1.526h1.228c.32 0 .66-.343.56-.66l-1.3-4.742c-.02-.126-.14-.236-.26-.236h-4.81zm-55.71-2.59H8.01l-.005 7.497c0 .317.47.73.788.73h1.236v1.526H.02v-1.526h1.228c.316 0 .786-.387.786-.703V81.18c0-.318-.49-.82-.807-.82H0v-1.53h14.28c3.182 0 4.4 2.708 4.43 5.44-.03 2.706-1.324 4.738-3.904 4.738l4.226 7.45c.254.438.465.964.884.964h.49v1.526H13.44l-4.068-9.23-.02-.02c-.136-.248-.456-.487-.698-.502h.04-.065.02zm96.937-8.033c0-.317.5-.803.81-.803h1.24v-1.53H97.59v1.53h1.227c.318 0 .81.47.81.79v15.53c0 .316-.474.732-.79.732h-1v1.526h15.578v-6.07h-3.223v2.592c0 .89-.424 1.958-1.193 1.958h-2.62c-.317 0-.79-.46-.79-.78l.01-15.48zm-11.45 13.1V81.187c0-.317.488-.827.807-.827h1.22v-1.53h-6.12v1.53h1.226c.318 0 .804.52.804.836v13.137c-.04 3.604-6.525 3.983-6.564-.147V81.17c0-.318.484-.81.8-.81h1.223v-1.53H77.51v1.53h1.23c.317 0 .8.502.8.82v13.144c0 6.48 14.593 6.824 14.593-.06zM44.5 86.545l6.66 12.403h5.88V81.122c0-.317.47-.763.787-.763h1.23v-1.53H52.46v1.53h1.233c.317 0 .788.44.788.76v10.47l-7.15-12.76H39.9v1.53h1.23c.316 0 .807.47.807.79v15.53c0 .317-.472.733-.79.733H39.92v1.525h6.595v-1.52H45.28c-.317 0-.788-.413-.788-.73V86.545zm21.337-.433l-1.007 3.57c-.04.128.11.254.24.254l1.794-.002h1.67c.13 0 .308-.126.267-.252l-1.98-6.954-.98 3.384zM8.01 87.652h2.264c2.845 0 2.804-7.293 0-7.293h-2.27v7.29zm30.52 11.296v-6.052H35.3v2.59c0 .892-.424 1.936-1.194 1.936h-3.51c-.316 0-.787-.44-.787-.757v-6.773c0-.318.24-.564.55-.564h.994c.317 0 .8.507.8.824v1.285h2.973v-6.074h-2.9v1.257c0 .317-.527.883-.844.883H30.36c-.316 0-.557-.36-.557-.68V81.02c0-.315.47-.66.786-.66h3.42c.44 0 .83.403.83.847v2.78h3V78.83H21.79v1.53h1.23c.317 0 .807.502.807.82v15.53c0 .318-.473.71-.79.71H21.81v1.526h16.71zm76.13 0v-1.526h1.226c.316 0 .804-.447.804-.764l-.003-15.957c0-.19-.15-.33-.342-.33-1.46.058-2.09.53-2.09 2.53v1.865h-2.915v-5.93H128v5.927h-2.916V82.9c0-2-.628-2.475-2.09-2.53-.19 0-.34.147-.34.337v15.96c0 .32.484.767.802.767h1.228v1.527h-10.03zm-25.05-65.33l.053.004c-.023.26-.065.804-.136.964l-17.93 31.08c-.196.302-.565.488-.92.5h-13.29l-.026-.003c-.4-.045-.73-.26-.93-.615l-17.89-30.99-.133-.33c-.037-.092-.064-.21-.076-.308-.003-.032-.003-.065 0-.096-.057-.08-.09-.182-.08-.29.028-.436.16-.948.374-1.332L56.434 1.24l.02-.032c.217-.312.616-.468.984-.458h13.144c.375-.016.73.126.932.46L89.426 32.2c.195.347.285.786.265 1.18 0 .09-.03.17-.08.237zm-36.922.398l10.114 17.516-5.104 11.715c-.13.355.383.646.582.304l6.13-10.61-.402.695L75.46 33.81h-1.954l-.03.06L64.4 49.66c-.04.072-.092.124-.164.166-.216.125-.493.052-.618-.164l-9.08-15.646h-1.85zm19.978-.55l-8.66 15.065-8.706-15 8.708-15.082 8.658 15.03zm2.64-.56H88.74c-.028-.095-.057-.173-.104-.26L70.744 1.682c-.022-.025-.052-.036-.083-.032-.02.004-13.17.005-13.23.004-.04 0-.09-.006-.124.012l-.1.056-17.8 30.922c-.08.157-.132.298-.18.468h13.32L69.75 3.387c.18-.31.73-.056.596.26l-5.164 11.73 10.123 17.53z"/></svg>