<svg viewBox="0 0 128 73" xmlns="http://www.w3.org/2000/svg" fill-rule="evenodd" clip-rule="evenodd" stroke-linejoin="round" stroke-miterlimit="1.414"><path d="M46.776 52.81c-1.844-2.037-4.077-3.202-7.085-3.59-.77-.097-.77 0-1.64-.097-2.523.097-4.852.97-6.89 2.426-3.202 2.32-5.24 7.47-3.98 12.13 1.166 4.36 4.078 7.18 7.765 8.34 1.068.19 2.91.39 3.88.39 4.465-.1 7.96-2.62 9.996-6.798 1.844-4.173.777-9.9-2.037-12.81zM22.903 65.718h-1.747c-.097 1.067.097 2.134-.29 3.105-.195.388-.584.485-.972.388-.388-.09-.68-.29-.873-.67-.29-1.746-.09-3.69-.48-5.434-.48-1.746-2.04-2.134-3.49-2.523-.096 0-.193-.29 0-.29 1.65-.39 3.01-.583 4.174-1.75 1.26-1.066 1.844-3.492 1.26-5.433-.872-2.62-3.396-3.397-5.63-3.495H.197v2.038c1.067.098 2.23 0 3.105.29.29.1.39.487.49.78v13.19l-.195 2.72c-.58 1.357-2.522.775-3.59.97v2.134H11.55v-2.232H9.122l-.678-.097c-.292-.194-.39-.582-.39-.97v-6.89l.292-.194c1.26-.09 2.038-.19 3.688 0 .97.2 1.65.88 2.135 1.75.67 2.04.38 4.27.77 6.5.19 1.26.97 2.04 1.94 2.43 1.55.584 3.782.584 4.95-.39 1.36-1.453.97-3.98 1.07-5.92zm20.184 1.164c-1.067 1.65-3.008 2.717-4.852 2.62-.97 0-2.134-.194-2.91-.776-2.815-1.65-3.59-5.823-3.3-9.51.194-2.912 1.552-5.92 3.88-6.89.972-.486 2.04-.39 3.398-.39 1.65.293 3.106 1.36 3.98 3.01 1.745 3.396 1.745 8.636-.196 11.936zm18.342 1.65c0 .388.29.68.58.873h.97c2.42-.097 3.39.194 5.72-.194.775-.38 1.55-.77 1.842-1.84.39-1.55.39-3.3.582-4.95h2.037v9.22l-19.794.1v-2.33c1.26-.093 1.552.1 3.01-.093.192-.194.677-.485.58-.97v-14.37c-.097-.58 0-1.454-.58-1.842-.876-.483-2.428-.192-2.914-.39v-2.13h11.84v1.94c-.874.294-2.427.1-3.203.39-.29 0-.68.39-.68.778v15.82zm18.63-15.818c0-.292-.1-.68-.39-.777-1.17-.097-1.94 0-3.21-.097v-2.232h21.16v8.83h-2.13c0-2.328-.096-5.142-2.037-6.21-.582-.194-1.164-.29-1.844-.388l-6.31.097c-.1.097-.88-.097-.97.292v6.5l.29.29c1.55 0 3.59.29 4.37-1.65.29-.78.38-2.62.38-2.62h1.94V66.1h-2.23c-.097-1.36.193-3.397-.97-4.173-.875-.777-2.23-.68-3.495-.485l-.29.194v7.472c.096.388.58.29.872.29 2.132-.096 4.073.098 6.984-.096 1.457-.29 2.62-1.456 2.913-3.202.193-1.262.193-2.524.29-3.785h2.232l-.098 9.413H76.37v-2.33c1.358 0 2.62.195 3.3-.193.387-.29.484-.97.387-1.45V52.713zM128 71.734h-12.712v-2.232c.68-.194 2.232.194 3.008-.29.292-.195.388-.68.388-1.068-1.26-1.748-2.62-3.397-3.978-5.047-.39 0-.68.292-.97.68l-3.494 4.075c-.098.39-.195.68 0 1.068.194.29.485.485.873.582h2.135v2.232l-11.16-.097v-2.135c.97-.097 1.262.097 2.33-.097.678-.194 1.26-.582 1.843-1.164 2.038-2.52 4.27-5.04 6.502-7.57l-.194-.29c-1.84-2.52-3.78-5.04-5.82-7.57-.48-.77-1.65-.87-2.71-.87h-1.067v-2.33h11.93v2.24c-.387.194-1.067 0-1.552.097-.387 0-.58.196-.872.39-.194.29-.29.776-.098 1.067l3.01 3.88h.29c1.163-1.26 2.33-2.715 3.492-4.17.19-.293.19-.78-.1-1.07l-.39-.096-1.94-.096-.1-2.23h10.384v2.23s-3.01-.192-3.786.78c-1.94 2.426-3.98 4.657-5.92 7.084l.39.584 6.404 8.15c.775 1.07 2.328.972 3.88.972v2.33zM13.296 58.536c-2.524.097-3.203.097-5.047.097l-.2-.194v-6.31c0-.2.39-.3.58-.3 1.454.292 4.85-.485 6.21.777.78.776 1.36 2.134 1.07 3.59-.488 1.262-1.36 2.232-2.62 2.33zM73.85 36.313c-1.843.874-3.784 1.553-6.113 1.65-3.106.485-6.793-.582-9.22-1.843-.193 0-.096-.195 0-.292 1.94-1.36 4.173-2.135 6.794-2.426 3.21-.097 6.22.485 8.54 2.33.29.193.29.485 0 .58zm10.19-26.59c-.29-.678-.873-1.164-1.456-1.456-.873-.193-1.747-.096-2.328.68-.486.583-.778 1.553-.292 2.33.194.68.873.872.873 1.65L74.724 26.9c-.388.486-.388 1.26-.874 1.553-.194-.097-.388-.292-.388-.485l.68-11.55.485-7.86c.097-.58-.194-1.455.29-1.94.874-.194 1.457-.582 1.845-1.262.29-.776.29-1.94-.292-2.523-.582-.58-1.26-.776-2.134-.68-.777.292-1.65.874-1.747 1.942-.1 1.068.48 1.94 1.26 2.33.19 0 .29.193.39.387L69.48 27.58c-.098.388-.388.68-.583.58-.097-.096-.29-.29-.29-.484L66.474 4.87c.388-.872 1.456-.775 1.747-1.745.29-.486.2-1.36.1-1.94C67.93.6 67.35.212 66.67.018c-.583-.098-1.263.193-1.748.387-.582.485-1.067 1.262-.873 2.232.09.582.38.97.77 1.26.29.39 1.07.292 1.07.97l-.97 11.453-.97 11.548-.2.39c-.194.193-.485-.1-.485-.196L57.935 7.59c-.1-.293-.1-.68.098-.972.777-.485 1.36-1.65 1.165-2.717-.39-.97-1.07-1.55-2.137-1.55-.87.1-1.743.49-2.034 1.36-.388.87-.194 1.94.388 2.52.487.59 1.65.2 1.94.97l.39 3.79 1.844 17.278c0 .485.194.97-.097 1.358-.1.098-.39.098-.487-.096-2.426-5.143-4.852-10.578-7.278-15.818-.097-.39-.39-.873-.195-1.36.29-.39.68-.776.874-1.26.097-.583.097-1.165-.29-1.65-.196-.486-.68-.777-1.263-.97-.77-.196-1.84.096-2.42.68-.49.58-.49 1.65-.197 2.424.292.583.777.97 1.36 1.07.582.193 1.164 0 1.455.58 2.33 7.667 4.463 15.334 6.6 23l1.163.874c2.428 1.457 5.24 2.718 8.25 2.524 1.26-.095 2.33-.483 3.3-.872.97-.293 1.747-.68 2.52-1.166.68-.193 1.167-.68 1.75-1.067l4.85-16.887 1.846-6.5c.388-.97 1.844-.485 2.33-1.456.193-.582.484-1.26.387-1.94z"/></svg>