<svg viewBox="0 0 128 43" xmlns="http://www.w3.org/2000/svg" fill-rule="evenodd" clip-rule="evenodd" stroke-linejoin="round" stroke-miterlimit="1.414"><path d="M127.94 10.2C127.074 4.58 117.06.998 102.1.15 83.306-.918 45.53 3.736 20.94 14.12c.54-.12 1.12-.18 1.72-.18 1.9 0 4.498.46 4.498 3.36v.94h-3.32v-.82c0-.735-.46-1.22-1.24-1.22-.84 0-1.12.473-1.22.9-.04.145-.04.427.02.7.38 1.56 5.44 2.39 6 5.19.054.283.176 1.03.02 2.18-.32 2.233-2.3 3.06-4.713 3.06-2.506 0-4.848-.9-4.848-3.88v-1.02h3.58v1.283c0 .726.5 1.212 1.332 1.212.89 0 1.19-.454 1.3-.9.064-.252.104-.66-.026-.986-.688-1.72-5.426-2.51-6.006-5.24-.14-.67-.12-1.2-.02-1.8.147-.894.56-1.554 1.16-2.02-6.14 2.74-11.36 5.852-15.12 9.344-2.91 2.694-4.38 5.268-4 7.72.673 4.38 5.693 6.825 12.97 8.43 11.925 2.63 31.97 2.26 52.19-.935 15.41-2.42 30.9-6.46 42.707-11.6-.488.1-1.006.14-1.54.14-2.36 0-4.47-.86-4.686-3.28-.044-.444-.054-.634-.054-.88V18.2c0-.24.04-.65.068-.88.294-2.49 2.314-3.29 4.68-3.29 2.366 0 4.426.79 4.68 3.29.04.427.024.88.024.88v.44h-3.36v-.74s0-.323-.04-.513c-.06-.292-.315-.968-1.333-.968-.974 0-1.264.64-1.328.962-.06.176-.06.414-.06.628v6.097c0 .174 0 .36.02.508.06.36.39.97 1.36.97.963 0 1.305-.612 1.36-.972.027-.152.04-.336.033-.51v-1.93h-1.36v-1.96h4.72v3.58c-.01.24-.014.43-.052.88-.085.98-.483 1.71-1.083 2.228 5.016-2.32 9.26-4.842 12.434-7.532 3.443-2.928 5.995-6.192 5.535-9.18l-.006.014zm-44.695 4.18H79.87v9.867c.005.17 0 .364-.03.504-.07.334-.353.97-1.28.97-.92 0-1.207-.64-1.27-.97-.037-.14-.04-.332-.037-.502V14.38h-3.38v9.56c-.015.247.005.75.02.88.23 2.49 2.19 3.3 4.644 3.3 2.46 0 4.42-.81 4.66-3.3.014-.13.04-.633.028-.88v-9.56h.02zm-30.99 0l-1.68 10.42-1.683-10.42h-5.44l-.29 13.337h3.334l.09-12.348 2.292 12.346h3.38l2.3-12.348.1 12.347h3.338l-.3-13.336h-5.44zm-20.143 0l-2.47 13.337h3.6l1.864-12.348 1.816 12.346h3.58l-2.46-13.336h-5.93zm62.92 10.737L91.89 14.38h-4.95v13.197h3.27l-.2-11.08 3.365 11.08h4.746V14.38h-3.287l.18 10.737h.016zM64.75 17.85c-.06-.263-.044-.543-.014-.69.1-.425.4-.89 1.22-.89.78 0 1.22.48 1.22 1.2v.813h3.3v-.92c0-2.86-2.576-3.32-4.44-3.32-2.348 0-4.268.78-4.62 2.94-.09.592-.112 1.114.034 1.78.572 2.7 5.266 3.48 5.948 5.186.12.32.088.732.02.98-.1.44-.4.886-1.28.886-.83 0-1.33-.48-1.33-1.2v-1.28h-3.54v1.02c0 2.948 2.31 3.84 4.796 3.84 2.38 0 4.352-.82 4.668-3.02.15-1.14.036-1.884-.02-2.164-.56-2.76-5.56-3.6-5.94-5.14l-.022-.022z"/></svg>