<svg viewBox="0 0 64 64" xmlns="http://www.w3.org/2000/svg" fill-rule="evenodd" clip-rule="evenodd" stroke-linejoin="round" stroke-miterlimit="1.414"><path d="M63.973 26.57c-.433-2.81-5.44-4.602-12.92-5.026-9.398-.533-28.287 1.794-40.582 6.985.27-.06.56-.09.86-.09.95 0 2.25.23 2.25 1.68v.47h-1.66v-.41c0-.367-.23-.61-.62-.61-.42 0-.56.237-.61.45-.02.073-.02.214.01.35.19.78 2.72 1.195 3 2.595.027.142.088.516.01 1.09-.16 1.117-1.15 1.53-2.357 1.53-1.253 0-2.424-.45-2.424-1.94v-.51h1.79v.642c0 .363.25.606.666.606.446 0 .596-.227.65-.45.033-.126.053-.33-.012-.493-.344-.86-2.713-1.255-3.003-2.62-.07-.335-.06-.6-.01-.9.074-.446.28-.776.58-1.01-3.07 1.37-5.68 2.927-7.56 4.673-1.455 1.347-2.19 2.634-2 3.86.337 2.19 2.847 3.413 6.485 4.215 5.963 1.316 15.986 1.13 26.096-.467 7.706-1.21 15.45-3.23 21.354-5.8-.244.05-.503.07-.77.07-1.18 0-2.235-.43-2.343-1.64-.022-.222-.027-.317-.027-.44v-2.81c0-.12.02-.325.034-.44.147-1.246 1.157-1.646 2.34-1.646 1.183 0 2.213.396 2.34 1.646.02.213.012.44.012.44v.22h-1.68v-.37s0-.162-.02-.257c-.03-.146-.157-.484-.666-.484-.487 0-.632.32-.664.482-.03.088-.03.207-.03.314v3.048c0 .087 0 .18.01.254.03.18.195.485.68.485.482 0 .653-.306.68-.486.014-.076.02-.168.017-.255v-.965h-.68v-.98h2.36v1.79c-.005.12-.007.215-.026.44-.043.49-.242.855-.542 1.114 2.508-1.16 4.63-2.422 6.217-3.767 1.722-1.464 2.998-3.096 2.768-4.59zm-22.348 2.09h-1.688v4.933c.003.085 0 .182-.014.252-.036.166-.177.485-.64.485-.46 0-.604-.32-.636-.485-.018-.07-.02-.167-.018-.252V28.66h-1.69v4.78c-.008.123.002.375.01.44.115 1.245 1.095 1.65 2.322 1.65 1.23 0 2.21-.405 2.33-1.65.007-.065.02-.317.014-.44v-4.78zm-15.495 0l-.84 5.21-.842-5.21h-2.72l-.145 6.668h1.667l.045-6.174 1.146 6.174h1.69l1.15-6.174.05 6.174H29l-.15-6.668h-2.72zm-10.072 0l-1.235 6.668h1.8l.932-6.174.908 6.174h1.79l-1.23-6.668h-2.965zm31.46 5.368l-1.57-5.368h-2.474v6.598h1.635l-.1-5.54 1.682 5.54h2.373V28.66H47.42l.09 5.368zm-15.14-3.633c-.03-.132-.022-.272-.007-.345.05-.213.2-.445.61-.445.39 0 .61.24.61.6v.406h1.65v-.46c0-1.43-1.288-1.66-2.22-1.66-1.174 0-2.134.39-2.31 1.47-.045.296-.056.557.017.89.286 1.35 2.633 1.74 2.974 2.593.06.16.044.367.01.49-.05.22-.2.444-.64.444-.415 0-.665-.24-.665-.6v-.64h-1.77v.51c0 1.474 1.155 1.92 2.398 1.92 1.19 0 2.176-.41 2.334-1.51.075-.57.018-.942-.01-1.082-.28-1.38-2.78-1.8-2.97-2.57z" fill="#fff"/></svg>