<svg viewBox="0 0 64 64" xmlns="http://www.w3.org/2000/svg" fill-rule="evenodd" clip-rule="evenodd" stroke-linejoin="round" stroke-miterlimit="1.414"><path d="M45.06 29.793c-1.464 0-2.295 1.29-2.295 1.29h-.032l.126-1.164h-1.92c-.1.78-.27 1.98-.44 2.87l-1.51 7.94h2.17l.59-3.21h.046s.445.28 1.273.28c2.545 0 4.21-2.61 4.21-5.25 0-1.46-.643-2.766-2.23-2.766zm-36.752-.555l-.68 2.023s-.596-.31-1.327-.31c-1.07 0-1.12.67-1.12.84 0 .927 2.41 1.28 2.41 3.44 0 1.707-1.08 2.8-2.532 2.8-1.75 0-2.64-1.09-2.64-1.09l.467-1.54s.918.787 1.693.787c.505 0 .71-.396.71-.69 0-1.203-1.975-1.257-1.975-3.237 0-1.668 1.197-3.28 3.61-3.28.933 0 1.393.265 1.393.265zm28.264.555c-2.61 0-4.338 2.358-4.338 4.982 0 1.682 1.037 3.034 2.986 3.034 2.562 0 4.29-2.3 4.29-4.99 0-1.56-.91-3.036-2.938-3.036zM22.127 33.03c-.55-.298-.833-.55-.833-.895 0-.44.393-.723 1.006-.723.714 0 1.35.3 1.35.3l.504-1.542s-.462-.36-1.823-.36c-1.89 0-3.2 1.083-3.2 2.608 0 .864.617 1.525 1.43 1.996.66.377.9.644.9 1.037 0 .41-.33.74-.942.74-.912 0-1.775-.47-1.775-.47l-.534 1.54s.796.54 2.137.54c1.95 0 3.35-.96 3.35-2.685 0-.93-.708-1.59-1.557-2.075zm34.39-3.08H55.01l.078-.36c.125-.74.566-1.4 1.29-1.4.385 0 .69.11.69.11l.425-1.698s-.378-.188-1.18-.188c-.77 0-1.54.22-2.12.723-.74.628-1.086 1.54-1.26 2.452l-.06.36h-1.007l-.315 1.63h1.01l-1.15 6.063h2.17l1.15-6.067h1.497l.3-1.635zm-9.162 7.702h2.17L51 29.966h-2.184l-1.46 7.686zm-4.37-1.478c-.563 0-.896-.314-.896-.314l.36-2.028c.25-1.35.96-2.247 1.71-2.247.66 0 .86.613.86 1.194 0 1.39-.834 3.39-2.044 3.39zm-7.482-.03c-.74 0-1.053-.63-1.053-1.416 0-1.24.644-3.27 1.823-3.27.77 0 1.022.66 1.022 1.306 0 1.336-.645 3.38-1.792 3.38zm26.234-6.178s-1.356 3.416-1.965 5.28h-.032c-.04-.6-.534-5.28-.534-5.28h-2.28l1.305 7.057c.04.157.02.252-.04.362-.25.487-.673.96-1.18 1.304-.404.29-.86.48-1.22.61l.597 1.84c.44-.1 1.353-.46 2.12-1.18.993-.93 1.905-2.36 2.847-4.31L64 29.96h-2.263zm-31.846-.173c-.95 0-1.71.456-2.29 1.147l-.03-.015.837-4.354h-2.17L24.13 37.66h2.17l.72-3.788c.283-1.43 1.02-2.31 1.714-2.31.487 0 .675.33.675.8 0 .3-.03.66-.098.96l-.817 4.337h2.17l.848-4.48c.096-.47.16-1.04.16-1.417 0-1.226-.646-1.965-1.778-1.965zm20.5-3.113c-.69 0-1.24.55-1.24 1.258 0 .645.41 1.085 1.02 1.085h.04c.675 0 1.257-.456 1.273-1.258 0-.628-.424-1.084-1.085-1.084zM7.23 23.478c.1 0 .2.034.296.1-.737.347-1.528 1.22-1.862 2.967-.488.15-.965.3-1.406.436.39-1.33 1.32-3.5 2.973-3.5zm.685.647c.142.355.234.864.234 1.55 0 .036 0 .068-.01.1l-1.78.552c.343-1.322.985-1.96 1.546-2.202zm1.698 1.198c-.255.08-.546.17-.86.266v-.19c0-.57-.08-1.03-.206-1.39.51.06.848.64 1.066 1.31zm2.542.76l1.437.108c.065.01.144.06.156.15.012.09 1.948 13.18 1.948 13.18l-5.516 1.19L0 38.807S1.306 28.7 1.356 28.346c.065-.47.08-.49.58-.646l1.612-.5c.345-1.468 1.444-4.34 3.746-4.34.3 0 .65.16.93.53l.084-.005c.988 0 1.55.84 1.868 1.756l.533-.16c.08-.024.28-.055.38.05l.752.748.304.303z" fill="#fff"/></svg>