<svg viewBox="0 0 128 37" xmlns="http://www.w3.org/2000/svg" fill-rule="evenodd" clip-rule="evenodd" stroke-linejoin="round" stroke-miterlimit="1.414"><path d="M90.12 13.867c-2.93 0-4.59 2.578-4.59 2.578h-.063l.25-2.327h-3.834c-.188 1.572-.534 3.96-.88 5.753l-3.018 15.88h4.34l1.193-6.41h.094s.89.57 2.547.57c5.09 0 8.42-5.22 8.42-10.5 0-2.925-1.29-5.534-4.47-5.534zm-16.976 0c-5.218 0-8.676 4.715-8.676 9.965 0 3.364 2.074 6.067 5.972 6.067 5.125 0 8.582-4.59 8.582-9.97 0-3.11-1.823-6.07-5.878-6.07zm-28.89 6.476c-1.1-.597-1.666-1.1-1.666-1.792 0-.88.786-1.44 2.012-1.44 1.428 0 2.703.6 2.703.6l1.006-3.08s-.93-.723-3.65-.723c-3.79 0-6.42 2.17-6.42 5.22 0 1.728 1.225 3.048 2.86 3.99 1.32.755 1.792 1.29 1.792 2.076 0 .817-.66 1.477-1.887 1.477-1.826 0-3.553-.943-3.553-.943L36.39 28.8s1.595 1.07 4.276 1.07c3.9 0 6.696-1.917 6.696-5.375 0-1.854-1.414-3.175-3.112-4.15zm50.456 9.242h4.338l2.954-15.372h-4.37L94.71 29.585zm18.327-15.404h-3.02l.16-.72c.25-1.47 1.13-2.79 2.577-2.79.772 0 1.383.22 1.383.22l.85-3.395s-.756-.377-2.36-.377c-1.54 0-3.08.44-4.243 1.447-1.477 1.256-2.17 3.08-2.515 4.902l-.13.724h-2.01l-.63 3.27h2.01l-2.29 12.134h4.333l2.295-12.135h2.986l.596-3.27zM85.97 26.63c-1.126 0-1.792-.63-1.792-.63l.723-4.054c.51-2.703 1.92-4.495 3.43-4.495 1.32 0 1.73 1.23 1.73 2.39 0 2.8-1.67 6.79-4.09 6.79zm-14.964-.063c-1.477 0-2.106-1.257-2.106-2.83 0-2.483 1.29-6.538 3.646-6.538 1.54 0 2.044 1.32 2.044 2.6 0 2.67-1.29 6.76-3.584 6.76zm52.467-12.354s-2.712 6.833-3.93 10.562h-.062c-.08-1.2-1.06-10.562-1.06-10.562h-4.56l2.61 14.115c.06.314.03.502-.093.723-.503.98-1.352 1.92-2.36 2.61-.815.6-1.727.98-2.45 1.23l1.195 3.68c.88-.19 2.7-.91 4.24-2.36 1.98-1.85 3.807-4.71 5.69-8.61L128 14.22h-4.525zm-63.69-.346c-1.918 0-3.426.912-4.59 2.295l-.062-.032 1.67-8.707h-4.34l-4.21 22.162h4.34l1.45-7.576c.57-2.87 2.045-4.63 3.43-4.63.972 0 1.35.66 1.35 1.602 0 .597-.064 1.32-.19 1.92l-1.64 8.678h4.34l1.695-8.96c.19-.942.316-2.073.316-2.827 0-2.453-1.29-3.93-3.55-3.93zm40.994-6.224c-1.383 0-2.484 1.1-2.484 2.514 0 1.29.818 2.17 2.044 2.17h.062c1.35 0 2.51-.912 2.54-2.515 0-1.258-.85-2.17-2.17-2.17zm-84.16 5.114l-1.36 4.046s-1.193-.636-2.654-.636c-2.142 0-2.25 1.344-2.25 1.683 0 1.848 4.817 2.556 4.817 6.885 0 3.406-2.16 5.6-5.072 5.6-3.496 0-5.283-2.176-5.283-2.176l.936-3.1s1.84 1.575 3.39 1.575c1.01 0 1.43-.797 1.43-1.38 0-2.41-3.95-2.52-3.95-6.48 0-3.334 2.39-6.56 7.224-6.56 1.86 0 2.78.533 2.78.533zM14.462 1.235c.198 0 .398.067.59.2-1.476.693-3.057 2.442-3.725 5.935l-2.813.87c.783-2.663 2.64-7.005 5.948-7.005zM15.83 2.53c.284.71.468 1.727.468 3.1v.2l-3.56 1.103c.686-2.644 1.97-3.922 3.093-4.403zm3.397 2.394l-1.723.533v-.37c0-1.14-.157-2.056-.41-2.783 1.018.128 1.697 1.287 2.133 2.62zm5.083 1.523s2.745.203 2.874.214c.13.02.287.11.312.29.024.18 3.897 26.37 3.897 26.37L20.36 35.7 0 31.886s2.613-20.207 2.712-20.92c.13-.94.162-.972 1.16-1.285l3.223-1C7.785 5.76 9.985 0 14.59 0c.6 0 1.297.323 1.86 1.066.055-.003.11-.005.166-.005 1.976 0 3.1 1.69 3.736 3.52l1.067-.33c.15-.04.56-.11.77.1L23.7 5.85l.61.604z"/></svg>