<svg viewBox="0 0 128 21" xmlns="http://www.w3.org/2000/svg" fill-rule="evenodd" clip-rule="evenodd" stroke-linejoin="round" stroke-miterlimit="1.414"><path d="M.388 19.55v-3.79c2.156.678 4.068 1.017 5.728 1.017 2.29 0 3.44-.603 3.44-1.815 0-.45-.165-.828-.502-1.14-.343-.325-1.22-.775-2.626-1.355-2.524-1.04-4.173-1.924-4.938-2.656C.494 8.85 0 7.63 0 6.15c0-1.894.72-3.344 2.167-4.335C3.6.828 5.46.333 7.757.333c1.265 0 3.096.236 5.49.703v3.646c-1.78-.713-3.437-1.07-4.963-1.07-2.152 0-3.23.594-3.23 1.78 0 .44.215.803.65 1.082.363.23 1.358.705 2.984 1.436 2.34 1.04 3.9 1.945 4.678 2.712.923.915 1.384 2.096 1.384 3.54 0 2.082-.905 3.665-2.716 4.76-1.463.885-3.362 1.327-5.694 1.327-1.97 0-3.954-.23-5.952-.7zm113.012-.01v-3.853c2.174.688 4.113 1.032 5.824 1.032 2.328 0 3.498-.62 3.498-1.85 0-.465-.167-.85-.5-1.16-.347-.335-1.24-.79-2.68-1.38-2.557-1.048-4.233-1.95-5.023-2.705-1.01-.97-1.52-2.216-1.52-3.73 0-1.926.73-3.39 2.21-4.398 1.45-1 3.35-1.5 5.68-1.5 1.31 0 3.012.21 5.1.624l.484.085V4.41c-1.82-.725-3.507-1.086-5.07-1.086-2.18 0-3.264.603-3.264 1.81 0 .446.214.813.657 1.1.346.22 1.365.71 3.045 1.46 2.362 1.058 3.94 1.977 4.74 2.758.925.913 1.392 2.09 1.406 3.526v.17c-.03 2.067-.94 3.644-2.743 4.74-1.495.897-3.437 1.35-5.803 1.35-2.006 0-4.027-.237-6.054-.71zm-85.558.322V.67H41.59v3.47h-8.58v4.334h7.47v3.166h-7.47v4.556h8.804v3.664H27.842zM17.564.67h5.363v19.19h-5.363V.67zM74.88 19.85V.337h13.978v3.53H80.13v4.41h7.6v3.216h-7.6v4.633h8.954v3.726H74.88zm17.794 0V.337h6.315l6.7 13.063V.338h3.84v19.515h-6.14l-6.88-13.24v13.24h-3.84zm-46.516 0V.337h7.07l4.908 12.468L63.17.337h6.713v19.515h-5.17V6.036L58.99 20.05h-3.377L50 6.036v13.816h-3.84z"/></svg>