<svg viewBox="0 0 64 64" xmlns="http://www.w3.org/2000/svg" fill-rule="evenodd" clip-rule="evenodd" stroke-linejoin="round" stroke-miterlimit="1.414"><path d="M.193 36.713v-1.896c1.08.34 2.035.51 2.864.51 1.145 0 1.72-.302 1.72-.91 0-.223-.082-.413-.25-.568-.172-.17-.61-.39-1.314-.68-1.262-.52-2.086-.96-2.468-1.33-.5-.48-.745-1.09-.745-1.83 0-.95.36-1.67 1.083-2.17.716-.496 1.647-.74 2.795-.74.633 0 1.548.115 2.745.35v1.82c-.89-.355-1.718-.534-2.482-.534-1.07 0-1.61.297-1.61.89 0 .22.11.402.33.542.18.113.68.35 1.49.717 1.17.52 1.95.974 2.34 1.358.46.454.694 1.044.694 1.77 0 1.04-.453 1.83-1.36 2.38-.73.44-1.68.66-2.846.66-.984 0-1.976-.115-2.976-.35zm56.507-.006V34.78c1.087.344 2.056.516 2.912.516 1.164 0 1.75-.306 1.75-.92 0-.233-.085-.425-.25-.582-.175-.166-.62-.395-1.34-.69-1.28-.522-2.118-.973-2.513-1.35-.51-.486-.76-1.11-.76-1.867 0-.962.37-1.693 1.1-2.198.722-.51 1.67-.76 2.84-.76.653 0 1.504.103 2.55.31l.24.04v1.857c-.91-.363-1.75-.543-2.534-.543-1.09 0-1.63.3-1.63.904 0 .223.106.407.327.55.174.11.683.354 1.523.73 1.184.53 1.97.99 2.37 1.38.465.457.7 1.045.706 1.764v.082c-.014 1.035-.47 1.823-1.372 2.37-.746.45-1.717.676-2.9.676-1.003 0-2.014-.118-3.027-.354zm-42.78.16v-9.595h6.874v1.735h-4.29v2.168h3.735v1.583H16.5v2.278h4.4v1.832h-6.98zm-5.138-9.595h2.68v9.596h-2.68v-9.596zm28.658 9.592v-9.758h6.99v1.765h-4.365v2.21h3.8v1.61h-3.8V35h4.477v1.864H37.44zm8.896 0v-9.758h3.158l3.352 6.532v-6.532h1.92v9.758h-3.07l-3.442-6.62v6.62h-1.918zm-23.257 0v-9.758h3.53l2.45 6.234 2.52-6.234h3.353v9.758H32.35v-6.908l-2.86 7.007H27.8L25 29.956v6.908h-1.92z" fill="#fff"/></svg>