<svg viewBox="0 0 128 38" xmlns="http://www.w3.org/2000/svg" fill-rule="evenodd" clip-rule="evenodd" stroke-linejoin="round" stroke-miterlimit="1.414"><path d="M58.12 10.78c1.13.49 1.213.86.33 2.54-.9 1.725-1.127 1.827-2.235 1.375-1.394-.58-3.18-1.04-4.328-1.04-1.887 0-3.14.68-3.14 1.7 0 3.4 10.812 1.56 10.812 8.78 0 3.64-3.12 6.06-7.8 6.06-2.46 0-5.5-.82-7.6-1.88-1.06-.532-1.12-.84-.21-2.56.78-1.52 1.02-1.68 2.15-1.21 1.78.78 4.04 1.374 5.56 1.374 1.72 0 2.87-.7 2.87-1.73 0-3.28-11-1.72-11-8.72 0-3.71 3.1-6.19 7.73-6.19 2.18 0 4.923.65 6.83 1.52l.02-.03zm8.72-8.574v26.91c0 .41-.43.84-1.045.84h-2.83c-.616 0-1.046-.43-1.046-.84V2.206c0-1.335.36-1.46 2.46-1.46 2.38 0 2.46.17 2.46 1.46zm7.08 21.845c0 1.36 1.17 2.28 2.933 2.28 2.132 0 4.06-1.03 5.19-2.77v-1.8c-1.12-.43-2.5-.68-3.72-.68-2.62 0-4.384 1.25-4.384 2.96l-.02.02zm32.247-13.24c1.026.58 1.066.92-.06 2.66-1.068 1.64-1.254 1.74-2.38 1.16-.86-.44-2.236-.84-3.366-.84-3.54 0-5.9 2.34-5.9 5.87 0 3.68 2.36 6.14 5.91 6.14 1.23 0 2.77-.47 3.775-1.02 1.026-.6 1.25-.56 2.34 1.02.984 1.48.964 1.83.08 2.44-1.58 1.09-4.08 1.93-6.276 1.93-6.58 0-10.96-4.2-10.96-10.5 0-6.26 4.38-10.42 11-10.42 2 0 4.36.68 5.84 1.56l.007.01zm21.414 16.6c.83 1.04.5 1.4-1.56 2.14-2.09.76-2.37.72-3.11-.24l-5.86-7.83-2.627 2.54v5.09c0 .41-.43.84-1.046.84h-2.83c-.616 0-1.046-.43-1.046-.84V2.21c0-1.34.37-1.46 2.46-1.46 2.38 0 2.46.166 2.46 1.46v15.3l8.046-7.713c.88-.84 1.374-.78 2.954.28 1.742 1.12 1.864 1.43 1.024 2.25l-5.99 5.827 7.14 9.266-.003-.003zM86.97 17.33v11.585c0 .612-.43 1.044-1.046 1.044h-2.8c-.64 0-1.1-.48-1.06-1.11l.04-1.26c-1.52 1.68-3.69 2.57-5.864 2.57-4.226 0-7.056-2.44-7.056-6.1 0-3.88 3.2-6.48 8-6.5 1.822 0 3.484.32 4.84.88v-1.33c0-2.13-1.68-3.4-4.536-3.4-1.336 0-2.98.532-4.29 1.292-1.004.576-1.248.534-2.34-1.086-1.064-1.62-1.02-1.93 0-2.588 1.972-1.27 4.64-2.09 7.1-2.09 5.52 0 8.98 2.99 8.98 8.08l.03.003zM34.6 14.25C30.88 1.84 25.5-1.048 13.095 2.672c-12.407 3.72-15.3 9.1-11.58 21.5 3.725 12.4 9.1 15.3 21.507 11.57 12.407-3.72 15.303-9.1 11.58-21.507v.016zm-18.173 8.103l-1.56-4.646 4.826-1.616 1.554 4.64-4.82 1.62v.01zm11.9-.04l-2.34.78.81 2.42c.328.98-.2 2.04-1.18 2.372-.212.066-.43.1-.64.092-.766-.02-1.472-.512-1.728-1.28l-.8-2.42-4.82 1.616.81 2.42c.33.98-.2 2.04-1.18 2.37-.21.072-.43.1-.64.1-.768-.02-1.47-.512-1.73-1.28l-.81-2.42-2.34.78c-.218.074-.43.106-.64.1-.77-.02-1.476-.512-1.73-1.28-.33-.98.2-2.04 1.18-2.366l2.34-.784-1.557-4.644-2.34.78c-.216.07-.432.1-.64.09-.77-.02-1.474-.51-1.732-1.277-.325-.98.2-2.04 1.18-2.37l2.34-.78-.81-2.42c-.33-.98.2-2.04 1.18-2.366.98-.33 2.04.2 2.36 1.18l.82 2.42 4.82-1.616-.81-2.42c-.325-.98.2-2.04 1.18-2.374.98-.328 2.04.2 2.37 1.18l.815 2.42 2.34-.78c.98-.33 2.04.2 2.366 1.18.33.98-.2 2.04-1.18 2.364l-2.34.78 1.558 4.64 2.34-.78c.98-.34 2.04.2 2.37 1.18.33.98-.2 2.04-1.18 2.36l-.01.023z"/></svg>