<svg viewBox="0 0 64 64" xmlns="http://www.w3.org/2000/svg" fill-rule="evenodd" clip-rule="evenodd" stroke-linejoin="round" stroke-miterlimit="1.414"><path d="M54.09 27.205l2.015-4.794 1.512 3.79-3.528 1.01zM44.01 42.683l11.59-28.01 8.4 13.54-5.668 1.798 2.225 11.83-4.368 1.18-2.42-11.56-1.45.46-3.7 10.68-4.62.088zm-14.445 1.093l11.59-25.32 13.522-3.195-2.183 5.14-9.156 1.6-2.952 7.188 3.708.3-1.68 3.618-3.542-.232-2.756 6.71 7.307-.167-.252 4.962-13.6-.59zm-7.887-16.11l3.77-6.35-.31 6.456-3.46-.105zM3.276 49.834l8.147-21.45-2.604.084 5.87-15.14-4.87.083-7.3 19.77 3.02-.25L0 49.917l3.276-.085zM28.892 17.28l3.696-.673-.168 11.944 4.368-9.33 3.78-.67-14.53 32.134-3.865-1.85 3.536-6.69-1.27.21.51-10.79-5.45-.238-3.552 5.984-3.01-.9-1.02 2.833 8.9-2.692 1.345 4.46L5.37 45.88 15.7 19.47l3.612-.76-4.866 13.516L24.856 15.6l3.44-.506.14 21.87.533-1.008-.084-18.674z" fill="#fff"/></svg>