<svg viewBox="0 0 128 72" xmlns="http://www.w3.org/2000/svg" fill-rule="evenodd" clip-rule="evenodd" stroke-linejoin="round" stroke-miterlimit="1.414"><path d="M53.122 71.946c-.046-.594-.07-.9.112-1.473-.09-.068-.18-.136-.272-.194.73-.24.89-.68.82-1.38l-.82-.28c-.46.85-.904 1.7-1.348 2.53 0-1.34.468-2.1 1.028-3.32h.32c.204-.7.41-1.38.628-2.064h.32c.628-2.08 2.364-4 2.694-6.026h.32c.82-4.774 2.16-3.174.64-7.925h-.32l.12-.367c.18-.048.34-.08.52-.116.133 1.162.86 2.27 1.355 3.33.78-1.62 2.36-4.372 2.62-6.03h.303v-.32h.32c1.38-6.29-.74-13.87-1.265-20.286h-.32v-.48h.32l-.24-3.96c-.56.46-2.22.367-2.98.42-.048.12-.08.24-.12.37h-.466v1.265h.16v-.94h.16c.61 8.185.814 16.27 1.58 24.42h-.31c-.568-4.063-.75-8.15-1.344-12.215.15 9.203.31 12.216.23 13.004h-.144v-.625h-.16c-.03.572 0 .868-.4 1.268-.16-.32-.16-.32-.476-3.96-.136 3-.26 6.02-.388 9.03h-.342c.07-1.644 1.235-12.796.24-13.792-.054.046-.112.1-.16.16-.06-1.486-.112-2.97-.16-4.443-.204-.13-.204-.13-.56 0-.032-.32-.054-.64-.08-.953.96-.96.47-2.1.4-3.334.116-.05.23-.1.356-.13.046-.98-.274-4.4-.32-8.64-.856-.15-1.53-.17-2.41-.12-.036.105-.06.207-.08.32l-.16-.16c-.354.355-.332.46-.4.95h-.32c.034-.514.148-.81-.126-1.23-.12.036-.24.08-.34.126v.48h-.32c-.06-.128-.1-.25-.14-.366-2.62-.01-6.938-1.263-7.658 2.117-.172.08-.34.172-.514.26-.05.12-.08.24-.115.37.365-.06.73-.114 1.107-.16v.32c-1.32.08-1.19.73-2.22 1.107l.063 1.12c-.19-.204-.19-.204-.59-.204-.995 1.267-2.65 2.773-3.05 4.326.195.195 1.667.55 2.146.79-.044.113-.087.227-.12.353h-1.04c-.065.09-.14.18-.19.28l-1.427-.88c-1.46 1.54-2.615 3.105-3.56 5-.904.26-2.434 2.772-2.7 3.48h.32c-.04.12-.088.23-.12.36-.286.03-.56.074-.834.12-.24.56-.24.56-.16.95-.12-.04-.24-.09-.35-.125-.042-.68.48-1.17.39-1.74-.11.034-.22.08-.34.124v-.48h.31c.094-.23.18-.456.276-.684.116-.045.24-.08.368-.113.02-.14.046-.264.08-.388-.068-.1-.14-.193-.206-.28-.51-.053-.68.29-1.14.52 1.19-1.91 1.9-2.788 2.22-3.5h.32c.05-.21.1-.43.16-.64h.32c.1-.26.2-.52.32-.78 1.52-.336 8.475-10.318 8.555-10.638h.32c.05-.28.12-.56.187-.834-.17-.043-.34-.08-.5-.113v.32h-.32v-.32c-.58-.2-1.163-.38-1.744-.56.456-.07.91-.14 1.38-.192-.045-.175-.08-.34-.113-.52h1.27v-.64c.32-.08.32-.08.515-.273.04.25.08.5.128.754.354-.124.58-.524.948-.628.02.1.05.2.08.305 1.274-1.42 4.88-4.96 5.11-7.02 1.52-.45 2.31-4.824 4.18-5.5.22-.66.53-.92 1.03-1.422l-.24-2.06h.32c.05.525.1 1.05.16 1.58h.314c-.05-.13-.08-.24-.12-.357.092-.053.184-.08.28-.12V6.45l.508.036c.313-1.984-.19-3.78-.35-5.74h.32c0 .32 0 .32.16.32 0-.32 0-.32.16-.32.04.42.1.84.16 1.266h.305V1.7h.32c.022.1.046.207.08.32.104-.113.206-.22.32-.32.046.047.102.1.16.16-.25 1.11-.48 3.005 0 3.96.88-1.105 2.204-3.925 3.564-4.28.17 2.775-2.54 4.227-3.02 6.67h-.31c-.4.632-.4.632-.48 1.11h.32c-.03.368-.06.734-.08 1.11l-.16-.16c.32 3.013.32 3.013.513 3.687.12.034.232.068.36.114v.48h-.31v.32c-.1.04-.19.07-.28.12.134 1.6.284 3.2.432 4.8.2-.06.42-.11.64-.15-.16 1.44-.9 1.63-.48 3.32 1.2.7 1.7.3 3.005.48.175-2.13.12-3.32-.465-5.39.116.038.232.07.346.118l.2-.273c.16.16.16.16.48 1.27.13-.64.268-1.28.4-1.91h.47c.26 4.57-.31 11.13 1.107 15.38.114.035.23.07.354.115.06 2.72 1.06 5.3 1.4 7.985h.32c.04.26.1.528.16.79-.13.034-.254.068-.37.114v.4h.4c.24-.65.72-1.074.916-1.62h.64c.02.1.04.2.08.32.12-.28.244-.54.38-.8-.26-.14-.52-.26-.783-.39.26.02.524.04.786.08v-.48c.16-.04.32-.06.48-.08-.107-.12-.21-.22-.32-.32l.52-.21c.68-1.663 3.21-5.898 3.017-7.838h.32c.09-.417.18-.83.274-1.23h.32c.04-.27.1-.53.16-.793h.32c.27-1.3 1.32-2.7 1.107-3.96l.48-.24c-.046-.07-.092-.14-.126-.2 1.9-3.22 2.593-6.84 4.09-10.19h-.32v-.47c.27.04.546.07.83.12.06.16.127.34.197.51.32-.47.32-.47.88-2.38h.32c-.08.79-.24.95-.64 2.7h-.48v.32h.32c-.4 1.443-1.91 9.753-3.727 11.573.114-.62.434-1.35.16-1.91 0 .56 0 .56-.206 1.14-.127.04-.24.08-.355.128-.02.22-.034.447-.046.675-.09.076-.18.14-.275.214.044.045.102.09.16.147-.058.047-.116.1-.16.16.102.02.204.047.32.08v.32h-.32c.032.114.07.23.112.354-1.533.936-4.228 8.61-5.026 11.224l.66.28c.04.112.08.24.13.36l-1 .1c-.195 1.02-.355 1.176-.435 1.8-2.93 1.14-.966 7.06-.464 9.038h-.32c-.56-3.48-.56-3.48-1.187-6.34-2.27 3.84-7.89 10.86-8.48 15.077h-.32c-1.26 3.23-2.994 6.21-4.046 9.59.605.47 1.553.947 1.82 1.667-.917-.14-1.46-.915-2.377-1.11-.24.813-.63 1.852-1.11 2.54l-.03-.054zM13.478 31.034c.627.07.627.07 1.265.308v.32c.22.08.434.18.664.26.04.36-.12.52-.08.78.76-.02 1.48-.124 1.78.685h1.1v.32c-.32 0-.32 0-.32.16 1.905 1.184 1.905 1.184 2.225 1.264v-.32h.32c-.036.18-.06.37-.08.55l.308.4c1.004-1 1.234-2.51 2.066-3.64-.16.79-.16.79-1.344 3.48h.48c.288-.48.574-.96.87-1.42-.148.86-.788 1.42-.788 2.228.312-.304.3-.36.746-.36.434-.512.866-1.026 1.312-1.54 0 .6-.252.9-.55 1.426h-.32c-.24.366-.48.73-.72 1.108l-.16-.16c-.032.105-.056.207-.08.32.22-.02.446-.033.674-.04.674 1.047 2.42 1.17 2.775 2.14-.56.07-3.03-1.56-3.43-1.78-.02.32-.04.653-.05.98.685.14.755.608 1.325 1.008-.05.06-.092.12-.13.18.19.36.235.4.6.535v.32c.115.03.23.064.355.11v.47l-.355-.1c-.135-.476-.375-.498-.787-.72.046-.06.104-.12.16-.16-.114-.08-.216-.16-.32-.24-.24-.338-.81-1.296-1.314-1.16-.04.172-.08.344-.116.526C18.608 44.333 15 49.54 12.35 54.8h-.3c-1.324 2.31-2.65 4.515-4.213 6.658 0-.784.5-1.38.88-2.05h.32c.867-1.58 2.465-3.433 2.967-5.12.114-.048.228-.08.354-.116-.02-.168-.034-.34-.046-.51.92-.272 2.38-3.528 2.28-4.56-.18.14-.347.29-.52.44C10.49 56.635 4.948 63.16 1.432 70.2h-.32c-.14.265-.28.526-.4.798-.153-.16-.153-.16-.073-.96-.22.027-.44.05-.64.08 2.62-3.205 4.06-4.42 3.02-8.638.51.146.62.546.9.99.17.034.34.07.52.114 1.1-1.846 3.39-4.667 3.6-6.86.18-.08.36-.16.56-.24.81-1.538 7.89-12.822 7.58-14.776h.63c.1-.38.21-.74.32-1.106.18-.048.34-.094.52-.128.68-1.46.68-1.46.84-2.1-1.26-.815-2.47-1.84-3.93-2.18-.58-1.1-1.88-1.72-2.97-2.267v-.16h.48c0-.16 0-.16-.96-.625v-.32c-.23-.048-.46-.094-.68-.128-.04.092-.08.184-.11.286-.58-.08-.88-.38-1.347-.72-.28.19-.28.19-.8.88 0-.576.31-.736.4-1.274-.534.32-.67.34-.786.95-.56.16-.57.6-.8 1.11-.147-.04-.3-.086-.445-.118.25-.492.5-.98.764-1.46h.32c-.24-.712-.24-.712-.16-1.112-.48-.08-.48-.08-.64-.24.16-.16.16-.16.8-.32-.596-.286-1.85-1.108-2.39-1.108l.32.32c-.16.02-.32.044-.48.08v-.64c-.26-.06-.528-.104-.79-.15v-.32c1.226.444 2.08 1.026 3.34 1.026-.32-.32-.32-.32-2.068-1.188v-.32c-.946-.285-1.7-.81-2.53-1.347 1.68 0 3.24 2.05 4.76 2.05l-.32-.32c.923.14.817-.055 1.585-.24.043-.24.09-.48.15-.72 3.8-5.625 7.71-10.91 10.955-16.88h.32c.4-.73 1.4-3.39 2.53-3.806.026.16.048.32.08.48.16-.22.334-.448.5-.68h.4c.28.436.88.96 1.4.916-.437.573-.55.675-.517 1.395-.49.16-.624.18-.88.63h-.464c.34-.45.513-.596.513-1.14-.38.48-.56 1.04-1.07 1.22l-.27.68c.17-.04.34-.09.51-.12-.01.294-.02.6-.035.91.854-.09 2.167-1.746 2.647-2.58.113-.012.24-.02.365-.034-1.36 1.728-3.106 3.45-3.974 5.47h-.307c-1.2 2.22-1.826 3.02-2.386 4.12-.22-.05-.42-.11-.62-.152v.48h-.326c-.426 1.41-1.56 2.44-2.07 3.8h-.33c-.24.42-.476.842-.72 1.266l-.156-.16c-.033.1-.06.207-.08.32h-.32c-.685 1.18-1.267 2.15-2.192 3.13.04.177.08.35.13.53h-.32v.47h-.32v.478c-.18.033-.34.067-.52.113-.2.44-.2.44-.36 1.472.16-.22.32-.437.48-.64.365.36.52.373 1.027.48-.08.32-.08.32-.607.74.04.17.08.34.13.523.22.092.45.184.677.274.208-.28.208-.28.288-.752.08.032.17.066.26.112l-.1.36c.08.04.17.074.26.12-.09.228-.18.456-.26.68v.004zm-8.1 31.548c.88-2.887 3.452-5 4.284-7.765l.48.24c-1.324 1.24-3.173 4.66-3.8 6.42h-.32c-.16.52-.195.76-.64 1.1l-.003.005zm116.094-.628c-.74-1.244-2.08-4.545-3.8-5.23.02.26.06.527.08.79-.1.103-.2.205-.3.32-.08-.217-.16-.435-.24-.64.09-.047.18-.093.274-.127-.044-.114-.08-.228-.114-.34-.232-.048-.46-.094-.688-.128-.14-.22-.266-.44-.39-.64-.38.24-.41.28-.59.68.06.14.127.27.195.42l-1.06-.03c.06-.24.14-.48.22-.71-1.04-1.78-2.4-5.198-4.04-6.35.032-.08.07-.14.112-.22-2.18-3.9-5.023-8.158-6.768-12.237h-.32c-.06-.22-.113-.44-.16-.64h-.32c-.227-.64-.867-1.437-1.267-2.22h-.464v.32c-1.908.543-2.386.86-2.696.86l-.16-.16c.788-.63.788-.63 2.65-1.78-.05-.127-.08-.24-.12-.355-.83-.15-1.847.672-2.58 1.06-.043.114-.08.24-.113.366-.376.044-.74.1-1.108.16-.916 3.287-2.6 5.4-2.858 9.03h-.32c-.2.72-.66 1.644-.48 2.386-.1.03-.2.064-.288.11.047.84.047.84-.113 1-.06-.056-.12-.11-.16-.16-.473 2.06-1.35 3.953-1.66 6.03h-.32l.273.82c-.09.04-.18.08-.27.133v.8c-1.31.387-1.31 3.06-1.74 4.28l-.29.103c.1.9-.617 1.013-.817 1.79-.64-.08-.64-.08-.8-.24.16-.08.32-.16.48-.232-.21-1.256-.2-1.87 0-3.014h-.48c1.97-3.96 3.32-9.596 4.52-13.8.864-1.715 2.99-7.63 2.803-8.84-.3.12-.58.25-.87.388-.046-.095-.08-.187-.114-.28 1.575-.567 1.68-1.14 1.427-2.69h.64c-.11-.58-.22-1.166-.32-1.74h.32c.02.276.02.55.04.82.09.04.18.08.272.13 1.93-4.38 3.962-9.687 5.08-14.438-3.255.08-7.616 1.507-10.63 0v.32h-.32v-.32h-.306v.32h-3.18c-1.37 3.585-2.95 7.08-4.44 10.617 1.102.02 2.21.046 3.33.08-.16.16-.16.16-1.636.2-.047.11-.08.24-.115.36-.366-.126-.366-.126-.56-.48-.16.16-.16.16-.24.64h2.706c0-.32 0-.32.145-.32v.48c.64-.08.64-.08.96.08-.96.146-.96.146-2.225.146.79.123 1.584.26 2.384.4.013-.23.02-.46.035-.675.14-.05.284-.08.432-.12-.02.16-.035.334-.047.506.5.04 1 .08 1.48.13v-.47h.8c.18.72 1.1.38 1.59.87-.36.18-.35.193-.48.56-.83.24-1.04 1.77-1.23 2.57h-.4c-.06-.893.4-1.74.688-2.573-.54.04-1.06.1-1.586.16-.07 1.014-.415 1.76-.8 2.69h-.64c.365-.956.73-1.896 1.107-2.844h-7.14c-1.207 2.282-3.59 5.606-4.118 8.083.26.04.526.1.788.16v.32l-.99.03c-.48.57-.324.95-.266 1.7h.48c-.06.21-.11.424-.16.64-.32 0-.32 0-.32.16h2.86v-.48c1.54.766 9.34-.044 11.736 0v.32h-.948c-.03.104-.06.206-.08.32-.52-.524-2.967-.26-3.78-.284-.04.093-.08.18-.12.287.96.04 1.92.072 2.9.12v.388c-4.33.21-8.796.21-13.03.93v.32c-3.95.114-2.067.274-4.406 3.68h-.4c.01-.23.02-.46.045-.674h.32c.1-.376.2-.74.314-1.108-.32.045-.64.1-.95.16.212-.97.16-1.27-.16-2.217h.64c.006-.287.02-.573.03-.847.572-.207 2.26-3.05 2.06-3.645l-.66-.03c.143-.3.303-.594.463-.88.1-.033.2-.055.32-.08-.06-.055-.12-.1-.16-.147l.48-.24c0 .32 0 .32.16.32v-.48h.32c.04-.27.1-.53.16-.8-.22.03-.44.05-.64.08.19-.19.19-.19.32-.703.2-.03.407-.054.623-.08l-.16-.16.274-.2c-.09-.23-.18-.448-.275-.666.41-.11.432-.29.592-.68l.72-.24.068-1.02c.12-.046.24-.08.365-.114v-.32c.1-.035.208-.057.32-.08-.06-.057-.112-.115-.16-.16l.48-.07c.09-.78.126-1.7.47-2.387h.48c0-.16 0-.16-.32-.24.294-.5.96-2.134 1.12-2.77h.3c.44-.88 1.015-2.26 1.793-2.82.02-.22.044-.427.08-.63h.4c.112-.17.226-.34.352-.515 0 .822-.574 1.58-.95 2.3l.192.19c.69-.246 1.12-1.286 1-2.006 1.3-.283 2.54-4.86 2.962-6.39-2.168-.2-2.168-.2-2.328-.36l.32-.066v-.48c.724.045 1.47.103 2.21.16v-.32c.17-.045.34-.09.51-.125.36-.66.36-.66.6-1.62h.32l-.24 1.43.16.16c.17-.233.34-.46.512-.677l.367-.03c-.4.4-.16.37-.32.87.42-.036.84-.06 1.27-.08-.06.044-.112.1-.16.16 1.005.04 2.01.1 3.02.16l-.32-.32c.467-.266 1.05-.014 1.587.08v.32h.32v-.32h1.263v.32c1.22.02 2.292.134 3.48-.16v.32h.8c.034-.106.068-.2.112-.288 1.06.126 1.825.455 2.82.67.193-.185.193-.185.193-.584l.514-.12c.02-.22.044-.426.08-.64-.116-.1-.22-.2-.32-.3-.06.1-.1.2-.15.31-.604-.912-.41-1.026-1.506-1.666.95.16 1.59.48 2.38.64.51-.367.51-.367.64-.71l.34.1c.067-.085.14-.18.205-.26.047.073.1.153.16.233-.31.712-.4.86-.08 1.512l.95.24c-.63-.63-.63-.63-.95-.71v-.32l.833.27c.033.112.07.24.115.364.113.028 14.51 7.278 15.184 8.438 1.54.06 2.86-.52 4.33-.84-.05.114-.1.228-.13.354-1.33.48-2.437.647-3.338 1.743.384.283.75.203 1.23.203-.22-.16-.425-.32-.63-.48 2.18.94 4.26 2.034 6.34 3.18-1.99 0-3.53-2.07-5.873-2.07.72.58 1.52 1.184 2.385 1.504v.317c-2.384-1.19-2.69-1.51-3.81-2.07v-.302l-.465.065.32.32c-.48 0-.64-.16-1.28-.24-.16.526-.63.62-1.11.88.32.32.96.63 1.27.95-.46 0-2.327-.434-3.013-.548-.01.033-9.91 5.15-11.256 6.1.26.497.526.997.8 1.503h.32c.606 1.234 1.4 2.146 1.736 3.494h-.3c1.293 2.034 7.15 9.787 7.768 12.686h.32c.66 1.237 2.46 3.475 2.697 4.914-.1.03-.187.065-.28.11 1.16 1.695 3.24 4.58 3.62 6.4h-.32l-.053-.03zm-104.34-4.12c.04-.127.08-.253.12-.367-.087-.046-.18-.08-.27-.114.367-1.44 1.167-2.74 1.75-4.12h.318c.1-.32.204-.64.306-.95H16.65v-.16c1.005-.113 2.01-.22 3.018-.32.406-.765.83-1.36.96-2.215h.304c.24-1.47 1.53-2.615 1.906-4.133h.32c.96-2.523 6.726-9.99 6.18-12.206.398.08.398.08.83-.13.12-.44.24-.87.374-1.3l.14.16c1.38-1.85 2.38-6.48 4.22-7.14-.208-1.18 1.64-3.08 2.05-4.44h.32c.847-1.96 2.65-6.058 3.92-7.588.112.034.24.08.36.126v-.32h.32c.036.092.07.184.114.274.112-.044.228-.08.354-.112v.48h-.308c-.288.58-1.064 1.46-1.006 2.1.364.036.364.036.526-.112l-.16-.16c.666-.524.9-.924 1.26-1.04-.89 1.818-.708 1.86-.708 3.495-.794.8-.7 2.02-1.64 2.82.067.8-.767 1.88-1.14 2.58h-.32c-.8 2.64-3.51 4.836-4.126 7.456-.9.26-2.204 2.36-2.066 3.34-.23-.02-.46-.03-.674-.04-1.12 3.14-3.723 6.29-4.52 9.274-.173.035-.345.08-.515.125-.56 1.26-.876 1.58-.956 2.06-.124.034-.25.07-.364.114-.068.27-.14.545-.194.83l-.16-.16c-.65.76-1.66 3.424-2.29 3.652-.13.43-.25.865-.37 1.3.683.045.683.045 2.27-.195v.32h.623v-.32c5.08-.4 5.08-.4 5.39-.32v-.32c.54.095.62-.19 1.12-.32 0 .32 0 .32.143.32.046-.213.104-.42.16-.625h.32c.034.11.07.226.114.34.227.04.46.08.685.124v-.625h.305v.468c3.53-.385 7.08-1.04 10.633-1.422v-1.27h.16c.047.32.1.64.16.96h.95c.02-.11.045-.212.08-.32.98.988 3.686-.56 4.99-.56-.06.05-.1.108-.15.16.146.028.306.05.466.08v.48c-.135.04-.26.074-.375.12l-.1.354-4.14.48v.32h.32v.48c-.944.065-.944.065-1.47.26.014.27.026.56.048.84-.124-.04-.25-.09-.364-.12l-.1-.52c-.96.08-.96.08-1.47.28-.05.113-.08.24-.118.36-2.38.275-4.42.847-6.83.95v.32c-4.728-.333-13.702 1.313-17.64 4.234-.013.22-.02.45-.035.68-.12-.1-.22-.207-.32-.31-.14.306-.28.626-.4.946h-.3v.32h-.64l.027-.016zm98.32-1.75c-.56-.947-.56-.947-1.02-2.212.633.787.633.787 1.273 1.973l-.24.24h-.012zm1.44-2.372c-1.187-2.068-1.187-2.068-1.187-2.388.627.8.627.8 1.505 2.388h-.32.002zm-4.12-2.228c-.42-.868-.82-1.6-1.03-2.535.047-.06.1-.12.16-.16.355.93 1.087 1.55 1.14 2.56-.087.02-.18.08-.27.12v.005zm2.533-.32c-.868-1.576-.868-1.576-.868-1.896.376.594.754 1.188 1.14 1.78-.09.036-.18.072-.272.116zm-55.344-.148c.25-5.013-.59-10.378-.95-15.39h.31c.34 5.078.88 10.157.88 15.236-.08.06-.16.1-.24.16l.01-.006zM44.1 49.588v-.32c-.32 0-.32 0-.32-.16.788-.113 1.588-.215 2.387-.32v.32c-1.426.24-1.426.24-2.066.48zm-29.495-.48c.046-.215.1-.433.16-.64h.47c-.08-.385-.08-.385.16-.945h.48c0 .16 0 .16-.28.28.06.76-.36 1.04-.99 1.32v-.015zm42.82-3.8h.16v3.32h-.16v-3.32zM15.85 47.36c-.28-1.014 1.75-3.194 2.22-4.277h.32c0 .32 0 .32.16.32-.06-.276-.117-.54-.16-.8h.48c.384-1.108.544-1.268.624-1.74.64-.236.64-.236.914-.2-.674 1.276-1.348 2.556-2.02 3.845l-.527.034c-.03.093-.06.185-.1.287-.12.03-.25.06-.36.11-.192.83-.192.83-.352.99l-.32-.32c-.16.674-.34 1.314-.87 1.75zm94.832-.32v-.304h-.468c-.24-.8-.56-1.28-.64-1.908-.72-.216-1.04-1.563-1.34-2.225-.06.046-.1.1-.16.16-.44-.446-1.42-2.48-1.42-3.016.52.8 1.28 2.546 2.152 2.856.18.834.36 1.905 1.268 2.225.1.42.204.846.32 1.268h.308v.48h.32v.468h-.32l-.02-.002zm-53.28-2.05c-.48-3.493-.98-7.46-.4-10.95.48 10.47.48 10.47.4 10.95zm-27.915-.16c.1-.274.204-.54.32-.8h.32l.03.674c-.227.04-.454.08-.672.14l.002-.014zm36.48-1.11c.14-.49.275-.98.423-1.47.114-.047.24-.08.364-.117-.18.732-.308 1.02-.788 1.587zM21.56 39.28c.034-.18.068-.354.112-.526.504-.136 1.074.82 1.314 1.154-.068.034-.126.068-.18.114-.424-.26-.836-.52-1.246-.76v.018zm13.164-2.227c-.56.96-.56.96-1.04 1.428.024-.26.048-.52.08-.78.32-.213.64-.43.96-.64zm0 0c-.056-.51-.068-.64.16-1.107h.47c.055-.514.043-.592.433-.912.11.07.24.137.363.207-.48.61-.96 1.21-1.427 1.82zm2.695-3.96v-.478h.32c.08-.288.17-.56.26-.836.41-.12.45-.25.64-.64h.32c-1.3 1.79-1.3 1.79-1.54 1.95zm-23.94-2.06v.31c.46.08.78.4 1.22.58-.08.1-.16.2-.24.32-.6-.394-1.19-.78-1.78-1.16l.8-.07v.02zm85.94-.16c.79-2.52 1.87-5 2.223-7.615-.16 0-.16.32-.32.32.045-.32.1-.64.16-.96h.48c-.15-1.86.673-3.253 1.85-4.633.525-.04.525-.04.88.14.033.386-.31.64-.24.866.113.04.24.08.363.13.47-2.2 8.05 3.71 8.244 3.808v.32c1.007.66 2.01 1.32 3.015 1.984-1.266.464-1.266.464-1.63.42-.06-.116-.08-.23-.12-.34h-.32v.464c-4.12.89-7.88 3.37-11.9 4.76v-.48c-1.12.094-1.72.654-2.7.8l.01.026zm17.922-5.08c.38-.523.82-.66 1.42-.787-.06.114-.1.228-.12.354-.44.14-.88.285-1.3.433zm-.96-.627c-3.34-2.466-3.34-2.466-4.14-2.934 1.152 0 4.13 1.793 5.24 2.535-.64.32-.64.32-1.12.4h.02zm1.74-1.588c-.8-.56-.8-.56-1.12-.64v-.32c-1.2-.17-2.308-1.253-3.5-1.733v-.32c-1.264-.56-1.264-.56-3.32-1.84 2.114.8 6.86 2.9 8.56 4.6l-.64.24.02.013zm-71.528-.64l-.32-.24c.56-.683 1.394-1.585 1.576-2.453.834-.26.81-1.28 1.588-1.68l-.16-.16c.72-1.036.72-1.036.8-1.354h.32c.38-1.15 1.62-1.92 1.9-3.01h.32v-.47c.26-.14.52-.28.8-.4l-.16-.16c.405-.47 1.34-1.43 1.65-1.98.045.05.103.1.16.15.08-.16.16-.32.24-.47h.32c-.08 2.62-.24 2.86-.24 3.18.41.41.41 2.937.24 3.8h-.32c.445.9.193 2.88.32 3.97-2.44.136-6.12.114-8.246.867 1.266 0 1.266 0 1.746.16l-2.54.24.008.02zm8.4 0c-.095-.148-.18-.296-.28-.432-1.29.376-3.84.25-5.28.034 3.18-.31 3.18-.31 6.193-.39v.79h-.64l.006-.003zm7.14 0c-.28-1.78-.3-2.955-.08-4.75.02 1.58.04 3.18.08 4.76v-.01zm41.55-6.338c-.32-.157-.64-.32-.95-.477.09-.206.18-.412.272-.606.113.034.24.08.36.126v.32l.553-.24c.5.26 1.003.524 1.504.8-.7 0-1.05-.32-1.744-.32.48.24.48.24.48.4h-.48l.005-.004zm-82.78-4.28v.467h.48c-.02.274-.04.548-.04.834-.796.3-1.036.38-1.46 1.08 0-.64-.16-.79-.136-1.23.112.035.24.08.364.127l.48-1.27h.31zm0 0c.086-.607.24-.915.8-1.12.04-.32.1-.64.16-.946.22-.024.44-.034.66-.046.02.284.044.58.08.88h-.48l-.1.273h-.32c-.058.21-.116.42-.16.64-.218.1-.434.21-.64.32zm36-4.6v-.48h.32c-.02-.23-.037-.46-.05-.676.174-.046.34-.08.528-.114v.32h.31v.32c-.788.56-.788.56-1.108.64l-.008-.01zm-33.31-.32c-.07-.436-.013-.54.16-.95l.35.12c.016.12.028.24.05.36-.194.16-.376.32-.56.48l-.002-.01zm35.84-3.335c.226-.596.42-.812.876-1.268-.147.604-.28 1.05-.88 1.268h.005z"/></svg>