<svg viewBox="0 0 128 75" xmlns="http://www.w3.org/2000/svg" fill-rule="evenodd" clip-rule="evenodd" stroke-linejoin="round" stroke-miterlimit="1.414"><path d="M108.18 27.754l4.03-9.588 3.024 7.58-7.056 2.02.002-.012zM88.02 58.71L111.2 2.69 128 29.77l-11.336 3.596 4.45 23.66-8.736 2.36-4.84-23.12-2.9.92-7.4 21.36-9.24.176.022-.012zm-28.89 2.186l23.18-50.64 27.044-6.39-4.366 10.28-18.312 3.2-5.904 14.376 7.416.6-3.36 7.236-7.084-.464-5.512 13.42 14.614-.334-.504 9.924-27.2-1.18-.012-.028zm-15.774-32.22l7.54-12.7-.62 12.912-6.92-.21v-.002zM6.552 73.012l16.294-42.9-5.208.168L29.378 0l-9.74.166-14.6 39.54 6.04-.5L0 73.178l6.552-.17v.004zM57.784 7.904l7.392-1.346-.336 23.888 8.736-18.66 7.56-1.34-29.06 64.268-7.73-3.7 7.072-13.38-2.54.42 1.02-21.58-10.9-.476-7.104 11.968-6.02-1.8-2.04 5.666 17.8-5.384 2.69 8.92-33.584 9.736 20.66-52.82 7.224-1.52-9.732 27.032 20.82-33.252 6.88-1.012.28 43.74 1.066-2.016-.168-37.348.014-.004z"/></svg>