<svg viewBox="0 0 64 64" xmlns="http://www.w3.org/2000/svg" fill-rule="evenodd" clip-rule="evenodd" stroke-linejoin="round" stroke-miterlimit="1.414"><path d="M46.622 39.742c-.125.342-.287.648-.486.918-.2.27-.43.5-.694.686-.264.187-.557.33-.88.427-.323.098-.672.147-1.046.147-.35 0-.65-.044-.897-.132-.25-.088-.44-.22-.57-.4-.13-.177-.196-.4-.2-.665-.007-.266.055-.578.185-.934l1.236-3.4c.01-.03.028-.06.054-.08s.063-.04.113-.06.112-.026.186-.035c.08-.008.17-.013.28-.013.11 0 .2.004.27.012.07.01.12.02.16.033.04.013.065.032.075.055.01.022.01.047 0 .077l-1.2 3.295c-.08.22-.124.412-.128.574-.005.162.025.3.088.403.065.105.158.185.28.238.124.055.273.08.45.08s.347-.026.51-.08c.16-.054.31-.133.445-.24.134-.103.256-.23.366-.386.11-.157.2-.33.27-.527l1.224-3.36c.01-.03.03-.057.052-.08.027-.023.064-.04.11-.057.05-.014.113-.025.19-.034.076-.01.17-.013.278-.013.11 0 .198.006.266.014.07.01.12.02.16.033.037.014.06.033.07.056.008.02.008.046-.003.076l-1.22 3.348zm-5.94.405c-.106.294-.255.55-.444.772-.19.22-.405.4-.646.55-.24.15-.5.26-.778.33-.277.074-.56.11-.843.11-.19 0-.36-.016-.52-.047-.15-.033-.28-.07-.39-.115-.11-.046-.2-.093-.263-.14-.067-.05-.113-.094-.135-.13-.024-.038-.032-.09-.022-.163.01-.07.04-.17.088-.305.033-.09.064-.164.09-.224.03-.06.056-.11.083-.15.027-.04.054-.064.08-.08.028-.016.056-.024.085-.024.04 0 .09.024.146.072.054.046.13.1.224.156.095.056.213.11.355.156.142.05.32.07.53.07.136 0 .266-.015.39-.048.12-.034.23-.08.326-.14.098-.06.184-.136.257-.226.072-.09.13-.188.17-.297.045-.126.05-.234.014-.325-.037-.09-.097-.17-.182-.24-.085-.07-.187-.137-.305-.2-.12-.06-.24-.127-.365-.196-.126-.07-.24-.148-.35-.236-.11-.087-.198-.19-.264-.314-.066-.122-.103-.266-.11-.433-.01-.167.03-.367.113-.6.097-.267.23-.502.405-.706.173-.2.367-.37.585-.503.218-.133.45-.233.706-.3.253-.065.507-.1.763-.1.13 0 .26.01.385.03.124.023.24.05.34.084.102.036.19.074.264.118.074.044.12.08.138.108.02.03.03.055.03.075.005.02.004.046 0 .08-.005.03-.014.07-.03.124-.016.05-.037.113-.064.19-.03.083-.058.154-.084.21-.024.06-.05.106-.072.143-.023.036-.05.064-.072.082-.023.015-.05.023-.083.023-.03 0-.072-.02-.126-.06-.058-.04-.127-.084-.21-.13-.084-.05-.185-.09-.3-.13-.12-.04-.26-.06-.417-.06-.124 0-.24.016-.34.047-.104.03-.196.07-.277.124-.08.054-.15.12-.207.193-.06.074-.1.152-.13.236-.05.124-.05.23-.02.322.034.09.096.17.184.24.09.07.195.136.317.2.12.06.245.126.37.195.122.07.24.147.353.235.11.088.2.193.27.315.064.123.103.267.112.433.01.165-.03.36-.11.584zm-35.917-.405c-.125.342-.287.648-.487.918-.198.27-.43.5-.693.687-.263.186-.557.328-.88.426-.324.098-.672.147-1.046.147-.36 0-.65-.044-.9-.132-.25-.087-.44-.22-.56-.4-.13-.177-.2-.4-.2-.665-.01-.266.05-.577.18-.934l1.234-3.4c.01-.03.03-.06.055-.08.026-.027.063-.04.113-.06s.11-.027.184-.036c.075-.01.17-.014.28-.014.11 0 .2.006.27.014.066.01.12.02.157.034.038.013.063.032.073.055.01.022.01.05 0 .077l-1.2 3.297c-.08.22-.122.412-.127.573-.004.163.026.3.09.404.063.106.156.185.28.24.122.052.27.08.447.08.178 0 .348-.03.508-.084.16-.054.31-.133.447-.24.136-.103.258-.232.368-.386.108-.155.2-.33.27-.526l1.223-3.36c.013-.03.03-.053.056-.076.024-.02.06-.04.11-.055s.11-.027.19-.036c.073-.005.166-.01.275-.01.11 0 .196.004.263.01.067.01.12.02.157.036.04.012.063.03.07.054.01.022.01.05 0 .077l-1.22 3.35zm47.453 1.682c-.024.066-.057.125-.1.177-.04.06-.087.1-.138.13-.052.04-.107.06-.166.08-.06.02-.116.03-.17.03h-.483c-.1 0-.18-.01-.25-.03-.06-.02-.12-.057-.16-.11-.04-.054-.07-.126-.1-.216-.02-.09-.04-.21-.06-.352l-.44-2.61c-.023-.155-.044-.322-.062-.502-.02-.18-.03-.356-.034-.525h-.01c-.062.205-.13.412-.2.62-.07.203-.14.415-.22.634l-1.064 2.92c-.01.03-.027.056-.05.08-.026.022-.06.04-.105.057-.043.017-.1.03-.17.038s-.155.014-.26.014c-.1 0-.18-.005-.243-.013-.06-.01-.11-.02-.14-.036-.03-.015-.05-.034-.06-.057-.004-.026-.002-.05.008-.08l1.828-5.02c.05-.132.126-.234.23-.3.104-.07.214-.104.33-.104h.607c.11 0 .2.01.266.03.07.02.125.05.168.09.043.04.077.1.1.177.025.075.045.17.058.28l.346 2.04.055.366c.02.12.036.237.05.357l.04.35c.014.116.024.23.035.346.065-.2.135-.41.21-.63.076-.22.15-.427.22-.626l.955-2.62c.01-.025.03-.05.056-.075.027-.02.06-.04.11-.06.047-.016.104-.03.173-.035.07-.007.153-.01.257-.01.1 0 .18.003.242.01.064.01.11.02.14.037.03.018.047.038.053.06.008.024.005.05-.005.078l-1.825 5.02zm-25.318.108c-.043.07-.087.125-.133.166-.044.042-.1.073-.17.095-.068.02-.15.036-.248.043-.1.007-.22.01-.37.01-.17 0-.3-.003-.39-.01-.1-.007-.17-.022-.22-.043-.05-.022-.08-.053-.09-.095-.01-.04-.01-.097 0-.166l.39-3.538h-.01l-2.13 3.538c-.04.066-.08.12-.12.162-.04.042-.097.074-.16.096-.065.024-.148.04-.247.046-.1.007-.227.01-.386.01-.166 0-.298-.003-.394-.01-.095-.007-.17-.022-.22-.043-.047-.022-.08-.053-.09-.095-.01-.04-.01-.097-.003-.166l.506-4.87c.01-.104.026-.186.045-.244.018-.06.05-.105.1-.137.046-.03.11-.05.197-.05.085-.005.2-.01.347-.01.137 0 .243 0 .32.008.078.004.134.014.17.03.033.016.052.04.055.07.003.03 0 .072-.01.126l-.58 4.275h.005l2.562-4.245c.032-.054.063-.1.095-.133.03-.034.07-.06.123-.08.052-.02.117-.03.2-.04.08-.005.183-.01.312-.01.136 0 .245.004.325.01.08.006.14.018.176.036.038.02.06.05.068.08.006.038.005.08-.004.14l-.49 4.246h.007l2.53-4.26c.026-.046.052-.085.08-.12.025-.03.062-.06.11-.076.046-.02.11-.032.186-.04.077-.006.183-.01.32-.01.125 0 .222.004.29.01.068.008.112.028.132.06.02.03.014.078-.01.14-.03.06-.076.146-.14.25l-3.05 4.86zm8.258.133c-.01.03-.03.055-.056.078-.028.023-.065.042-.114.056-.048.01-.11.02-.185.03-.074.01-.168.01-.28.01-.11 0-.2-.007-.27-.01-.07-.01-.124-.02-.162-.04-.03-.014-.06-.033-.07-.056-.01-.024-.01-.05 0-.08l1.92-5.27c.01-.03.03-.055.06-.08.03-.02.07-.04.12-.055s.112-.026.19-.035c.072-.007.164-.012.274-.012.11 0 .203.003.27.01.07.01.124.02.16.035.04.013.063.032.074.055.01.022.01.05 0 .08l-1.92 5.27zm-15.313.01c-.012.03-.027.057-.047.08-.02.02-.053.038-.102.053-.048.014-.115.024-.2.03-.086.006-.2.008-.344.008-.12 0-.217-.002-.286-.008-.07-.006-.123-.016-.16-.032-.035-.016-.057-.036-.065-.06 0-.025-.01-.055-.01-.09l-.04-1.246c-.01-.14-.02-.266-.04-.375-.02-.11-.05-.2-.09-.274-.043-.07-.105-.12-.183-.16-.08-.04-.18-.053-.3-.053h-.353l-.774 2.127c-.01.03-.03.055-.057.078-.03.024-.067.043-.115.057-.047.014-.11.025-.185.034-.074.008-.17.01-.28.01-.11 0-.2-.002-.27-.01-.07-.01-.123-.02-.16-.035-.04-.018-.063-.037-.072-.06-.006-.023-.006-.05.005-.078l1.846-5.07c.047-.125.11-.216.198-.273.087-.056.177-.084.27-.084h1.447c.147 0 .267.004.36.01.09.005.176.01.25.02.213.033.395.088.546.166.153.077.268.18.347.303.08.125.12.274.126.444.004.17-.035.364-.116.59-.07.183-.155.353-.26.51-.104.15-.224.29-.36.41-.136.12-.29.225-.456.314-.166.09-.346.16-.54.215.07.04.13.09.183.146.053.058.096.127.13.21.036.08.063.175.082.28.02.105.033.224.04.356l.07 1.1c.002.11.002.19-.002.24-.004.05-.01.09-.02.118zm-9.58-1.528c-.072.198-.165.378-.278.54-.113.16-.24.303-.382.427-.14.123-.295.23-.46.32-.167.088-.34.16-.523.22-.182.056-.37.1-.562.126-.193.027-.4.04-.626.04H5.95c-.095 0-.164-.027-.21-.084-.043-.056-.042-.147.004-.273l1.77-4.867c.048-.126.113-.217.198-.274.085-.056.176-.084.27-.084h1.403c.34 0 .62.03.837.086.216.058.385.145.505.262.12.116.19.263.212.442.02.178-.02.388-.1.63-.05.135-.12.262-.2.382s-.168.227-.27.325c-.1.098-.214.184-.338.26-.124.074-.255.134-.396.18.15.03.275.08.383.15.107.073.19.166.25.28.06.113.09.246.09.398 0 .153-.03.324-.1.514zm4.173 1.23c-.03.083-.06.153-.087.21-.02.055-.05.1-.08.135-.02.034-.05.06-.08.075-.02.016-.05.024-.08.024h-2.8c-.09 0-.16-.02-.21-.08-.04-.05-.04-.14.008-.27l1.77-4.865c.047-.126.113-.217.198-.274.085-.056.175-.084.27-.084h2.787c.026 0 .046.01.06.02.016.017.024.04.026.078 0 .036-.006.083-.02.138-.013.06-.035.13-.066.216-.03.08-.057.15-.085.204-.03.055-.057.1-.084.135-.025.032-.052.06-.08.073-.024.016-.05.024-.075.024h-2l-.495 1.363H15c.026 0 .047.01.063.025.016.016.026.04.028.073.008.035 0 .08-.01.135-.01.057-.032.126-.06.206-.03.085-.06.153-.09.208-.024.055-.05.1-.08.132-.024.032-.05.055-.08.07-.025.014-.05.02-.08.02H13l-.573 1.573h2.01c.026 0 .046.007.063.022.015.016.024.04.026.075.003.04-.003.085-.016.14-.014.057-.035.127-.066.21zm18.314 0c-.03.083-.06.153-.087.21-.028.055-.055.1-.083.135-.027.034-.053.06-.08.075-.028.016-.054.024-.08.024h-2.805c-.095 0-.164-.02-.21-.08-.043-.05-.042-.14.004-.27l1.78-4.87c.048-.124.114-.215.2-.272.084-.056.174-.084.27-.084h2.786c.026 0 .046.01.06.02.016.017.025.04.026.078 0 .037-.004.084-.017.14-.014.056-.035.127-.067.213-.03.08-.057.15-.085.204-.024.055-.05.1-.08.135-.025.032-.052.06-.08.073-.024.016-.05.024-.076.024h-2l-.496 1.362h1.687c.026 0 .046.01.063.025.015.015.025.04.027.072.002.035-.003.08-.017.135-.013.057-.034.126-.063.206-.03.087-.06.155-.087.21-.027.055-.053.1-.08.13-.026.034-.052.057-.08.07-.027.016-.053.02-.08.02h-1.69l-.574 1.575h2.01c.026 0 .047.008.063.023.01.017.02.04.02.076 0 .04-.006.085-.02.14-.014.057-.036.127-.065.21zm27.14-4.272c-.03.084-.06.155-.09.216-.028.06-.055.11-.08.15-.027.04-.052.06-.075.08-.025.015-.05.023-.075.023-.038 0-.09-.026-.154-.08-.064-.05-.154-.11-.27-.17-.116-.06-.26-.114-.432-.166-.174-.05-.386-.076-.64-.076-.27 0-.53.05-.784.14-.252.095-.487.228-.706.4-.217.17-.41.377-.582.617-.17.24-.31.505-.415.796-.12.32-.18.6-.18.842-.01.244.04.447.13.61.09.165.23.288.41.372.182.083.404.125.663.125.126 0 .257-.017.39-.045.135-.03.265-.073.393-.13l.47-1.294h-1.05c-.053 0-.08-.03-.087-.095-.005-.065.02-.175.08-.33.03-.08.056-.148.083-.203.027-.054.054-.1.08-.13.027-.034.053-.06.08-.074.024-.016.05-.024.076-.024h1.886c.046 0 .083.01.114.025.03.016.056.04.07.07.018.033.025.07.02.116 0 .04-.01.092-.03.15l-.81 2.22c-.03.09-.074.165-.127.23-.053.064-.134.115-.24.153-.108.036-.238.074-.39.115-.154.04-.31.07-.467.1-.16.03-.317.05-.473.064-.15.013-.31.02-.46.02-.442 0-.82-.063-1.124-.19-.307-.13-.538-.314-.694-.558-.155-.247-.234-.54-.236-.89 0-.35.08-.75.24-1.19.167-.46.385-.87.656-1.23.27-.368.578-.677.924-.93.344-.256.72-.45 1.13-.586.405-.135.83-.203 1.27-.203.24 0 .454.017.64.05.187.033.346.073.476.12.13.048.236.1.314.153.08.055.13.103.154.143.025.04.03.095.023.17-.01.072-.04.18-.095.324zm-50.818 3.08c.047-.13.067-.244.06-.347-.005-.1-.037-.187-.095-.256-.06-.07-.15-.122-.27-.16-.118-.037-.28-.056-.486-.056h-.67l-.578 1.587h.82c.156 0 .295-.015.415-.05.12-.032.23-.08.33-.146.104-.064.195-.145.275-.24.08-.098.14-.207.186-.33zm10.687-2.3c.07-.183.09-.338.05-.465-.04-.126-.14-.215-.31-.268-.05-.014-.112-.025-.182-.034-.07-.008-.17-.013-.3-.013h-.51l-.575 1.584h.578c.16 0 .31-.02.445-.06.137-.04.256-.1.36-.17.108-.07.2-.157.275-.255.077-.098.136-.207.18-.328zm-10.1-.09c.04-.112.06-.212.06-.302s-.025-.163-.073-.22c-.05-.06-.12-.106-.21-.138-.095-.03-.23-.047-.405-.047h-.58l-.527 1.45h.634c.163 0 .3-.02.413-.06.113-.037.214-.09.3-.158.09-.068.168-.147.234-.237.064-.09.115-.187.152-.287zm-5.9-2.592c-.07.2-.16.342-.27.422-.11.08-.272.122-.494.122-.22 0-.357-.04-.406-.117-.05-.078-.038-.214.033-.41.075-.204.167-.346.275-.425.11-.08.276-.12.495-.12.224 0 .36.04.41.116.047.08.036.22-.036.42zm1.89 0c-.074.2-.165.342-.275.422-.11.08-.275.122-.497.122-.22 0-.356-.04-.404-.117-.05-.078-.036-.214.035-.41.073-.204.164-.346.273-.425.107-.08.27-.12.493-.12.22 0 .358.04.408.116.05.08.04.22-.032.42zm18.387-11.91c-.56-.803-1.522-1.212-2.86-1.213-.876 0-1.725.2-2.522.577-1.14.54-2.17 1.438-3.013 2.63-.547.777-1.016 1.674-1.383 2.68-.69 1.894-.685 3.432.024 4.446.4.572 1.237 1.257 2.93 1.26h.01c3.09 0 5.394-2.026 6.854-6.02.387-1.057.896-3.028-.034-4.36zm18.64 0c-.56-.803-1.52-1.212-2.86-1.213-.875 0-1.724.2-2.52.577-1.14.54-2.172 1.438-3.015 2.63-.547.777-1.016 1.674-1.383 2.68-.694 1.894-.685 3.432.023 4.446.4.572 1.235 1.257 2.93 1.26h.007c3.09 0 5.398-2.026 6.857-6.02.387-1.057.895-3.028-.035-4.36zm10.13-1.046c.22.174.41.373.567.6.405.583.56 1.276.467 2.07h2.07l-3.12 8.577h3.12l3.12-8.578h4.008l.974-2.67H52.8zm-.157 1.103c-.515-.74-1.558-1.1-3.194-1.103H45.67l-4.1 11.245h3.477l1.49-3.958c.072.163.95 3.958.95 3.958h3.656s-.664-2.79-1.153-3.916c-.125-.29-.256-.614-.432-.885 1.033-.38 2.53-1.2 3.15-2.87.38-1.023.358-1.853-.065-2.46zm-16.27-1.11H29.8c-1.838 0-3.206.93-3.85 2.67l-3.122 8.575h3.418l1.604-4.408 3.022.002.86-2.37H28.72l.48-1.37c.1-.244.342-.44.696-.44h3.563c.03-.04.054-.087.083-.13.753-1.065 1.82-1.93 2.82-2.54zm-18.68 0h-6.45c-1.018 0-2.005 0-2.89.45-.885.45-1.666 1.347-2.267 3.144-.13.387-.2.72-.21 1.008-.01.29.04.537.15.75.136.262.355.508.63.715.274.207.603.376.956.484l.42.13c.226.066.49.14.655.19.096.03.204.07.3.13.098.06.185.135.24.242.036.07.055.15.057.23.004.085-.01.175-.044.27-.084.245-.21.4-.448.5-.237.094-.587.124-1.12.13H1.05L0 33.485h7.102c.67 0 1.89 0 3.064-.5 1.175-.5 2.3-1.496 2.778-3.49.18-.75.123-1.36-.17-1.84-.295-.48-.828-.83-1.604-1.05l-.378-.11-.56-.16c-.198-.058-.35-.17-.44-.32-.09-.145-.117-.322-.066-.504.054-.187.182-.34.368-.44.187-.1.432-.16.72-.16h4.127c.03-.04.06-.084.09-.13.76-1.06 1.67-1.93 2.67-2.54zm3.03 5.57c-.966 2.638-1.666 3.303-2.718 3.303H18c-1.025-.002-1.385-.65-.425-3.276.717-1.96 1.645-3.213 2.768-3.213 1.07 0 1.313.62.376 3.187zm18.64 0c-.965 2.638-1.665 3.303-2.717 3.303h-.002c-1.025-.002-1.383-.65-.424-3.276.717-1.96 1.646-3.213 2.77-3.213 1.067 0 1.312.62.374 3.187zm10.25-1.976c-.334.9-.934 1.455-2.074 1.455h-.006l-.59-.01 1.007-2.72h.574c1.05 0 1.44.31 1.088 1.265z" fill="#fff"/></svg>