<svg viewBox="0 0 128 40" xmlns="http://www.w3.org/2000/svg" fill-rule="evenodd" clip-rule="evenodd" stroke-linejoin="round" stroke-miterlimit="1.414"><path d="M93.22 35.64c-.25.685-.573 1.297-.97 1.837-.4.54-.86 1-1.39 1.37-.527.375-1.112.66-1.758.855-.646.196-1.344.294-2.092.294-.7 0-1.3-.088-1.793-.264-.5-.176-.88-.44-1.14-.8-.26-.354-.392-.8-.4-1.33-.014-.53.11-1.155.37-1.867l2.47-6.798c.02-.06.057-.12.11-.16.05-.04.125-.08.225-.12.1-.04.224-.052.372-.07.16-.016.34-.026.56-.026.22 0 .4.01.54.03.14.02.24.04.32.07.08.027.13.065.15.11.02.045.02.095 0 .155l-2.4 6.588c-.16.44-.248.825-.256 1.15-.01.324.05.6.176.806.13.21.316.37.56.476.248.11.546.16.9.16s.694-.054 1.02-.16c.32-.11.62-.268.89-.48.268-.208.51-.46.73-.774.22-.313.4-.66.54-1.053l2.45-6.718c.02-.06.06-.116.103-.16.054-.048.128-.08.22-.116.1-.026.226-.05.38-.066.15-.02.34-.026.555-.026.22 0 .396.014.532.03.14.02.24.04.32.066.074.028.12.066.14.11.016.04.016.094-.006.154l-2.44 6.693.013.047zm-11.876.81c-.212.59-.51 1.1-.888 1.545-.38.44-.81.8-1.292 1.1-.48.3-1 .52-1.555.66-.56.147-1.12.22-1.69.22-.38 0-.72-.033-1.04-.095-.3-.066-.56-.14-.78-.23-.22-.092-.4-.186-.53-.28-.135-.1-.227-.188-.27-.26-.05-.076-.065-.18-.045-.326.02-.14.08-.34.176-.61.066-.18.128-.327.18-.447.06-.12.11-.22.166-.3.054-.08.11-.128.16-.16.055-.032.11-.048.17-.048.08 0 .18.04.29.14.11.09.26.2.45.31.19.11.425.22.71.31.283.1.64.14 1.06.14.27 0 .53-.03.78-.098.24-.068.46-.16.65-.28.196-.12.37-.27.514-.45.144-.18.26-.378.34-.596.09-.25.1-.468.028-.65-.074-.18-.194-.34-.364-.48-.17-.14-.376-.274-.61-.4-.24-.12-.48-.254-.73-.39-.25-.14-.48-.298-.7-.474-.22-.17-.397-.377-.53-.625-.13-.244-.205-.53-.22-.866-.02-.335.06-.735.227-1.2.195-.535.46-1.005.81-1.413.347-.4.735-.74 1.17-1.004.436-.264.9-.464 1.41-.6.508-.13 1.016-.2 1.528-.2.26 0 .52.02.77.06.247.048.48.1.68.17.202.07.38.148.526.236.147.087.24.16.275.215.04.06.06.11.06.15.01.04.01.09 0 .16-.01.06-.028.14-.06.25-.03.1-.074.223-.128.38-.06.162-.115.304-.167.416-.05.12-.1.214-.145.288-.044.073-.1.13-.142.165-.046.03-.1.047-.166.047-.06 0-.142-.04-.25-.12-.115-.08-.252-.168-.42-.26-.166-.1-.37-.18-.6-.26-.24-.08-.52-.12-.832-.12-.247 0-.48.032-.68.094-.207.06-.39.14-.553.25-.16.107-.3.24-.414.385-.12.15-.2.305-.26.473-.1.247-.1.46-.04.643.07.18.19.34.37.48.18.14.39.274.636.4.24.12.49.254.74.39.244.14.48.296.706.47.22.178.4.388.54.63.128.247.206.535.224.867.02.33-.06.72-.22 1.167l-.027.03zm-71.816-.81c-.25.685-.574 1.297-.974 1.837-.396.54-.86 1-1.386 1.373-.526.372-1.114.656-1.76.852-.647.196-1.343.294-2.09.294-.72 0-1.3-.088-1.8-.264-.5-.174-.88-.44-1.12-.8-.26-.354-.4-.8-.4-1.33-.02-.53.1-1.153.36-1.867l2.467-6.798c.02-.06.06-.12.11-.16.052-.054.126-.08.226-.12.1-.04.22-.054.37-.072.15-.02.34-.028.56-.028.22 0 .4.012.54.028.13.02.24.04.32.068.078.026.128.064.148.11.02.044.02.1 0 .154l-2.4 6.592c-.16.44-.244.82-.254 1.14-.01.322.05.6.18.81.126.21.31.37.56.48.244.1.54.16.894.16s.694-.06 1.014-.17c.32-.11.62-.27.895-.48.27-.21.516-.467.736-.77.217-.31.4-.66.54-1.05l2.44-6.72c.026-.06.06-.107.112-.153.048-.04.12-.08.22-.11s.22-.05.38-.07c.145-.01.33-.02.55-.02.22 0 .39.01.525.02.134.02.24.04.314.07.08.027.13.06.14.11.02.045.02.1 0 .155L9.51 35.61l.026.03zm94.882 3.364c-.048.132-.114.25-.2.354-.08.12-.174.2-.276.26-.104.08-.214.12-.332.16-.12.04-.232.06-.34.06h-.966c-.2 0-.36-.02-.5-.06-.12-.04-.24-.114-.32-.22-.08-.108-.14-.252-.2-.432-.04-.18-.08-.42-.12-.704l-.88-5.218c-.045-.31-.087-.644-.123-1.004-.04-.36-.06-.712-.068-1.05h-.02c-.124.41-.26.824-.4 1.24-.14.406-.28.83-.44 1.268l-2.127 5.838c-.02.06-.054.112-.1.16-.052.044-.12.08-.21.114-.086.034-.2.06-.34.076s-.31.028-.52.028c-.2 0-.36-.01-.486-.026-.12-.02-.22-.04-.28-.072-.06-.03-.1-.068-.12-.114-.008-.052-.004-.1.016-.16l3.655-10.037c.1-.264.252-.468.46-.6.208-.14.428-.208.66-.208h1.214c.22 0 .4.02.532.06.14.04.25.1.33.18.08.08.15.2.2.354.05.15.09.34.11.56l.69 4.08.11.73c.04.24.074.48.1.72l.08.7c.03.23.05.46.07.69.13-.4.27-.82.42-1.26l.44-1.25 1.91-5.24c.02-.05.06-.1.11-.15.057-.04.12-.08.22-.12.097-.03.21-.06.35-.07.14-.01.305-.02.513-.02.2 0 .36.01.484.02.13.02.22.04.28.077.06.037.094.077.106.12.017.05.01.1-.01.157l-3.65 10.035-.042-.02zm-50.623.216c-.086.14-.174.25-.266.332-.08.084-.2.146-.34.19-.13.04-.3.072-.49.086-.2.014-.44.02-.74.02-.34 0-.6-.006-.78-.02-.2-.014-.34-.044-.44-.086-.1-.044-.16-.106-.18-.19-.02-.08-.02-.194 0-.332l.78-7.074h-.02l-4.26 7.074c-.08.132-.16.24-.24.324-.08.084-.19.148-.32.192-.13.048-.29.08-.49.092-.2.014-.452.02-.77.02-.332 0-.596-.006-.79-.02-.19-.014-.34-.044-.44-.086-.092-.044-.16-.106-.18-.19-.02-.08-.02-.194-.004-.332l1.01-9.737c.02-.208.05-.372.09-.488.037-.12.1-.21.2-.274.09-.06.22-.1.395-.1.17-.01.4-.02.693-.02.275 0 .487 0 .64.02.157.01.27.03.34.06.067.03.105.08.11.14.007.06 0 .15-.02.25l-1.16 8.55h.01l5.124-8.49c.063-.11.125-.2.19-.26.06-.07.14-.12.245-.16.105-.04.235-.06.4-.08.16-.01.367-.02.625-.02.27 0 .49.007.65.02.16.01.28.035.35.07.076.04.12.1.136.16.01.076.01.16-.01.28l-.98 8.49h.015l5.06-8.52c.05-.09.103-.17.16-.24.05-.06.124-.12.22-.15.092-.04.22-.065.372-.08.157-.013.37-.02.64-.02.25 0 .447.007.58.02.14.015.227.055.267.12.04.06.027.155-.02.28-.06.12-.153.29-.28.5l-6.1 9.716.027-.03zm16.51.266c-.02.06-.06.11-.11.156-.057.046-.13.084-.228.112-.1.02-.22.04-.37.06-.15.02-.34.02-.56.02-.22 0-.4-.014-.54-.02-.14-.02-.25-.04-.33-.08-.06-.028-.12-.066-.14-.112-.02-.048-.02-.1 0-.16l3.84-10.537c.02-.06.06-.11.12-.16.06-.04.14-.08.24-.11.1-.03.22-.052.38-.07.14-.014.323-.024.543-.024.22 0 .406.01.54.02.14.02.25.04.32.07.08.03.125.07.147.11.02.05.02.1 0 .16l-3.83 10.54-.022.03zm-30.617.02c-.024.06-.054.114-.094.16-.04.04-.106.076-.204.106-.096.028-.23.048-.4.06-.172.012-.4.016-.688.016-.24 0-.433-.004-.57-.016-.14-.012-.247-.032-.32-.064-.07-.032-.115-.072-.13-.12 0-.05-.02-.11-.02-.18l-.08-2.49c-.02-.28-.04-.533-.08-.75-.04-.22-.1-.4-.18-.55-.087-.14-.21-.24-.367-.32-.16-.08-.36-.105-.6-.105h-.706l-1.54 4.253c-.02.06-.06.11-.11.156-.06.048-.133.086-.23.114-.093.028-.22.05-.37.068-.147.016-.34.02-.56.02-.22 0-.4-.004-.54-.02-.14-.02-.245-.04-.32-.07-.08-.036-.125-.074-.143-.12-.012-.046-.012-.1.01-.156l3.69-10.137c.095-.25.22-.43.397-.54.175-.11.355-.17.54-.17h2.894c.292 0 .532.01.72.02.18.01.35.02.5.04.424.07.79.18 1.09.33.305.16.535.36.693.61.16.25.24.55.25.89.01.34-.07.727-.23 1.18-.14.365-.31.705-.52 1.02-.21.3-.45.58-.72.82-.272.24-.58.45-.912.626-.33.18-.69.32-1.08.43.14.08.26.18.37.29.104.117.19.255.26.42.07.16.124.35.162.56.04.21.066.45.08.713l.14 2.2c.004.22.004.38-.004.48-.008.1-.02.18-.04.234h-.026zM20.525 36.45c-.144.397-.33.757-.556 1.08-.23.32-.48.607-.77.854-.28.246-.59.46-.92.64-.337.176-.68.32-1.05.44-.364.112-.74.2-1.124.252-.386.054-.8.08-1.25.08H11.89c-.19 0-.328-.054-.42-.168-.086-.112-.084-.294.008-.546l3.54-9.73c.097-.253.227-.435.397-.55.17-.11.35-.167.54-.167h2.804c.68 0 1.24.06 1.675.172.43.116.77.29 1.01.524.24.24.38.53.423.89.04.36-.04.78-.2 1.26-.1.27-.24.527-.4.767-.16.24-.337.454-.54.65-.2.196-.43.368-.677.52-.247.148-.51.268-.79.36.3.06.55.16.77.3.212.145.38.33.5.56.12.225.18.49.18.795 0 .306-.06.648-.2 1.028h.012zm8.344 2.46c-.06.166-.12.306-.18.42-.04.11-.1.2-.16.27-.04.068-.1.12-.16.15-.04.032-.1.048-.16.048h-5.6c-.18 0-.32-.04-.42-.16-.08-.1-.08-.28.013-.54l3.54-9.727c.094-.25.226-.43.395-.54.17-.11.35-.17.54-.17h5.573c.05 0 .09.02.12.04.03.037.047.08.05.16 0 .072-.01.166-.04.276-.025.12-.07.26-.13.43-.06.16-.115.3-.17.41-.06.11-.115.2-.17.27-.05.062-.103.12-.16.144-.047.03-.1.047-.15.047h-4l-.99 2.728h3.37c.053 0 .095.02.127.05.032.032.052.08.056.146.016.07 0 .16-.02.27-.02.115-.064.25-.12.41-.06.17-.12.308-.18.418-.047.11-.1.2-.16.264-.047.063-.1.11-.16.14-.05.027-.1.04-.16.04h-3.38l-1.146 3.145h4.02c.05 0 .09.012.128.042.03.03.05.08.052.15.004.08-.008.17-.034.28-.027.112-.07.252-.13.42l-.01-.024zm36.61 0c-.06.166-.12.306-.175.42-.056.11-.11.2-.166.27-.054.068-.106.12-.16.15-.056.032-.108.048-.16.048h-5.61c-.19 0-.327-.04-.42-.16-.085-.1-.083-.28.01-.54l3.56-9.737c.094-.24.226-.43.4-.54.166-.11.346-.17.54-.17h5.57c.05 0 .09.02.12.04.03.04.05.08.05.16 0 .077-.01.17-.034.28-.026.11-.07.257-.132.43-.06.16-.114.3-.17.41-.048.11-.1.2-.16.27-.05.062-.104.12-.16.144-.048.03-.1.048-.15.048h-4l-.993 2.725h3.374c.053 0 .093.02.127.05.03.03.05.08.055.145.003.07-.007.16-.035.27-.024.114-.066.252-.124.412-.06.173-.12.31-.174.42-.054.11-.106.2-.16.26-.052.067-.104.113-.16.14-.054.03-.106.04-.16.04H62.6l-1.146 3.15h4.02c.052 0 .094.015.126.045.02.035.04.08.04.15 0 .08-.012.17-.04.28-.03.116-.072.256-.13.42l.01-.016zm54.265-8.542c-.06.168-.12.31-.18.432-.056.12-.11.22-.16.3-.054.08-.104.12-.15.16-.05.03-.1.046-.15.046-.076 0-.18-.052-.308-.16-.13-.1-.31-.22-.54-.34-.233-.12-.52-.228-.864-.332-.348-.1-.77-.152-1.28-.152-.54 0-1.06.1-1.568.28-.505.19-.974.456-1.41.8-.436.34-.82.754-1.166 1.234-.34.48-.62 1.01-.83 1.59-.24.64-.36 1.2-.36 1.685-.02.49.08.9.26 1.22.18.33.46.58.82.75.362.17.806.25 1.324.25.25 0 .513-.03.78-.09.27-.06.53-.142.784-.26l.94-2.59h-2.09c-.107 0-.16-.06-.175-.19-.01-.13.04-.35.16-.66.06-.16.112-.29.166-.4.054-.11.11-.2.16-.26.054-.07.105-.12.16-.15.047-.03.1-.05.15-.05h3.772c.092 0 .166.02.228.05.06.03.113.08.14.14.037.068.05.14.04.23 0 .08-.02.187-.06.3l-1.62 4.44c-.06.18-.146.33-.252.46-.11.13-.27.23-.48.307-.22.072-.48.148-.78.23-.31.08-.62.14-.938.2-.32.06-.633.1-.945.128-.3.03-.62.04-.92.04-.884 0-1.64-.123-2.248-.38-.614-.26-1.076-.625-1.388-1.113-.31-.494-.47-1.08-.474-1.78 0-.7.16-1.5.48-2.38.335-.92.77-1.74 1.31-2.46.54-.736 1.158-1.354 1.85-1.86.688-.51 1.44-.9 2.26-1.17.81-.27 1.66-.407 2.54-.407.48 0 .91.034 1.28.1.373.066.69.146.95.24s.473.2.63.306c.16.11.26.205.307.285.05.08.06.19.045.34-.02.146-.08.36-.19.65h-.013zm-101.61 6.16c.093-.26.133-.49.12-.695-.01-.2-.075-.374-.19-.512-.12-.14-.3-.24-.54-.32-.236-.07-.56-.11-.97-.11h-1.34l-1.157 3.18h1.64c.312 0 .59-.03.83-.1.24-.062.46-.16.66-.29.21-.127.39-.29.55-.48.16-.195.28-.413.37-.66l.027-.003zm21.37-4.6c.14-.366.18-.676.1-.93-.08-.252-.28-.43-.62-.536-.1-.028-.225-.05-.365-.068-.14-.016-.34-.026-.6-.026H37l-1.15 3.168h1.158c.32 0 .62-.04.89-.12.272-.08.51-.2.72-.34.214-.14.4-.314.55-.51.152-.196.27-.414.36-.656l-.024.018zm-20.196-.18c.08-.224.12-.424.12-.604s-.05-.326-.146-.44c-.1-.12-.24-.212-.42-.276-.19-.06-.46-.094-.81-.094H16.9l-1.053 2.9h1.268c.326 0 .6-.04.826-.12.23-.074.43-.18.6-.316.18-.136.34-.294.47-.474.13-.18.23-.374.3-.574l.01-.002zM7.52 26.565c-.14.4-.32.684-.54.844-.22.16-.544.24-.987.24-.44 0-.714-.08-.812-.24-.1-.157-.07-.43.07-.82.15-.41.34-.69.55-.85.22-.16.55-.24.99-.24.45 0 .72.08.82.232.1.16.07.44-.07.84l-.01-.018zm3.78 0c-.15.4-.33.684-.55.844-.22.16-.55.24-.994.24-.44 0-.712-.08-.808-.24-.1-.157-.072-.43.07-.82.146-.41.328-.69.546-.85.214-.16.54-.24.985-.24.44 0 .71.08.81.232.1.16.08.44-.068.84v-.018zM48.063 2.75C46.943 1.147 45.02.33 42.343.327c-1.75 0-3.447.4-5.04 1.154-2.28 1.08-4.34 2.88-6.025 5.26-1.094 1.56-2.03 3.35-2.765 5.36-1.38 3.79-1.37 6.86.048 8.89.8 1.15 2.48 2.51 5.86 2.52h.02c6.18 0 10.79-4.05 13.71-12.032.777-2.113 1.79-6.054-.07-8.72h-.01zm37.27 0C84.215 1.147 82.295.33 79.617.327c-1.75 0-3.447.4-5.04 1.154-2.277 1.08-4.342 2.88-6.027 5.26-1.095 1.56-2.033 3.35-2.766 5.36-1.388 3.79-1.37 6.86.046 8.89.8 1.15 2.47 2.51 5.858 2.52h.014c6.18 0 10.793-4.05 13.71-12.033.774-2.113 1.79-6.054-.07-8.72h-.007zM105.59.66c.44.348.82.746 1.133 1.2.81 1.165 1.12 2.55.934 4.14h4.14l-6.24 17.148h6.24l6.237-17.15h8.014l1.948-5.34h-22.422l.016.002zm-.314 2.205c-1.03-1.48-3.116-2.2-6.387-2.205h-7.58l-8.19 22.484h6.95l2.98-7.914c.142.326 1.9 7.914 1.9 7.914h7.31s-1.33-5.578-2.308-7.83c-.25-.58-.512-1.227-.864-1.77 2.07-.76 5.06-2.4 6.3-5.738.76-2.045.72-3.705-.13-4.92l.02-.02zM72.744.645h-13.16c-3.674 0-6.41 1.86-7.697 5.34L45.645 23.13h6.834l3.2-8.814 6.04.004 1.72-4.738h-6.02l.96-2.74c.2-.488.682-.88 1.39-.88h7.13c.06-.08.11-.173.164-.26 1.506-2.13 3.64-3.858 5.64-5.078l.037.022zm-37.35 0h-12.9c-2.034 0-4.01 0-5.777.9-1.77.9-3.33 2.694-4.533 6.287-.26.774-.4 1.44-.42 2.016-.02.58.08 1.073.3 1.5.272.523.71 1.015 1.26 1.43.548.413 1.205.75 1.91.967l.84.26c.453.132.98.28 1.31.38.193.06.41.14.6.26.196.12.37.27.48.483.072.14.11.3.114.46.007.17-.02.35-.09.54-.167.49-.42.8-.894 1-.474.188-1.174.248-2.24.26H2.1L0 23.13h14.2c1.34 0 3.78 0 6.127-1 2.35-1 4.6-2.99 5.555-6.978.36-1.5.245-2.72-.34-3.68-.59-.96-1.656-1.658-3.208-2.098l-.755-.22-1.12-.32c-.4-.116-.7-.34-.88-.64-.18-.29-.24-.644-.14-1.008.11-.374.362-.68.734-.88.374-.2.864-.32 1.44-.32h8.252c.06-.08.12-.167.18-.26 1.52-2.12 3.34-3.858 5.337-5.078V.646zm6.058 11.138c-1.932 5.275-3.332 6.604-5.435 6.604h-.026c-2.04-.004-2.76-1.3-.85-6.55 1.44-3.92 3.29-6.424 5.54-6.424 2.14 0 2.63 1.24.75 6.372l.03-.002zm37.27 0c-1.93 5.275-3.33 6.604-5.432 6.604h-.004c-2.05-.004-2.766-1.3-.848-6.55 1.434-3.92 3.29-6.424 5.54-6.424 2.132 0 2.622 1.24.746 6.372l-.002-.002zm20.495-3.95c-.668 1.8-1.867 2.908-4.147 2.908h-.012l-1.18-.02 2.014-5.43h1.148c2.1 0 2.88.62 2.175 2.53l.002.02z"/></svg>