<svg viewBox="0 0 128 23" xmlns="http://www.w3.org/2000/svg" fill-rule="evenodd" clip-rule="evenodd" stroke-linejoin="round" stroke-miterlimit="1.414"><path d="M45.44 23h-.052c-4.6-.012-8.866-1.4-11.72-3.956-2.16-1.94-3.2-4.58-3.2-7.294 0-2.68 1.084-5.336 3.2-7.268 2.66-2.42 7.356-3.94 11.774-3.94 4.9 0 8.82 1.232 11.8 3.946 2.14 1.92 3.16 4.56 3.16 7.26 0 2.6-1.08 5.36-3.16 7.28-2.76 2.58-7.12 3.94-11.74 3.95h-.06L45.44 23zm79.806-.946h-.02c-1.51-.01-2.734-1.24-2.734-2.754 0-1.52 1.232-2.754 2.754-2.754 1.52 0 2.754 1.232 2.754 2.754 0 1.516-1.224 2.744-2.736 2.754h-.02.002zm0-.42c1.29 0 2.336-1.044 2.336-2.334s-1.04-2.336-2.32-2.336c-1.28 0-2.34 1.046-2.34 2.336 0 1.29 1.052 2.336 2.34 2.336l-.016-.002zm-.776-2.04v1.404h-.49v-3.384h1.526c.512-.014 1.18.172 1.18.928 0 .42-.168.628-.44.814v-.004c-.032.04-.028.08.008.1.214.14.27.38.276.76.008.434.064.696.22.8h-.57c-.06-.1-.148-.26-.148-.44 0-.364.026-1.01-.646-.96h-.916v-.018zm-79.028.44c2.46 0 4.74-.844 6.32-2.424 1.58-1.57 2.32-3.5 2.32-5.86 0-2.26-.784-4.372-2.304-5.87-1.566-1.546-3.9-2.414-6.32-2.414-2.42 0-4.754.86-6.32 2.414-1.514 1.496-2.308 3.616-2.308 5.87 0 2.248.8 4.364 2.306 5.86 1.56 1.556 3.874 2.42 6.3 2.426h.026l-.02-.002zm79.04-.872h-.02v.434h.02v-.434h1.056c.31-.012.646-.08.646-.54 0-.48-.328-.57-.648-.57h-1.044v1.12l-.01-.01zm-51.2-17.366L87 14.17l-.14-8.32c-.014-1.094-.216-1.55-1.4-1.55h-2.58V1.81H94.6V4.3h-2.516c-1.204 0-1.28.388-1.296 1.55L91 21.77h-4.016L71.19 7.67v10.006c.016 1.086.068 1.6 1.188 1.6h2.82v2.49h-11.52V19.27h2.68c1 0 .96-.96.96-1.66V5.934c0-.754-.106-1.64-1.684-1.64h-2.18v-2.5h9.808l.02.002zm34.734 17.468c.108 0 .6-.014.694-.044.26-.084.446-.276.54-.48.026-.08.046-.46.046-.54v-3.94c0-.092-.006-.134-.166-.344-.18-.23-7.18-8.17-7.5-8.52-.4-.434-1.1-1.106-2.16-1.106h-2.44V1.796h13.748v2.492h-1.656c-.388 0-.64.36-.316.76l4.672 5.58c.04.06.08.07.136.02.06-.056 4.744-5.56 4.78-5.6.22-.27.072-.776-.408-.776h-1.7V1.79h11.27v2.496h-2.516c-.914 0-1.286.17-1.974.946l-7.588 8.66c-.1.12-.1.28-.1.38v3.94c0 .08.02.46.04.54.086.2.27.396.54.48.096.03.58.04.688.04h2.58v2.498h-13.68v-2.5H108l.016-.006zM11.674.55c-2.476 0-5.28.464-7.67 1.53C1.804 3.064 0 4.65 0 7.286c0 2.372 1.506 3.76 1.466 3.724.64.59 1.674 1.596 4.372 2.186 1.2.264 3.78.668 6.34.94 2.544.266 5.06.52 6.08.78.808.208 2.18.49 2.18 2.02 0 1.524-1.44 1.988-1.692 2.088-.25.1-1.974.89-5.074.89-2.28 0-5.04-.688-6.04-1.046-1.152-.42-2.366-.96-3.5-2.34-.28-.34-.72-1.28-.72-2.22H.62v7.86h3.12v-1.06c0-.12.15-.62.674-.38.652.28 2.56 1.06 4.56 1.46 1.64.34 2.696.584 4.732.584 3.324 0 5.11-.54 6.344-.894 1.164-.332 2.6-.93 3.768-1.86.62-.5 2-1.796 2-4.14 0-2.24-1.208-3.64-1.634-4.06-.58-.58-1.28-1.028-2.02-1.374-.64-.3-1.652-.66-2.48-.868-1.608-.394-5.24-.88-6.98-1.06-1.82-.192-4.98-.454-6.24-.84-.38-.12-1.16-.496-1.16-1.4 0-.64.352-1.192 1.06-1.632 1.12-.7 3.38-1.14 5.74-1.14 2.78-.004 5.14.634 6.64 1.3.512.232 1.108.56 1.584.948.532.436 1.284 1.34 1.56 2.608h2.514V1.52H21.6v.8c0 .252-.26.586-.76.31-1.26-.66-4.82-2.08-9.18-2.088l.014.008z"/></svg>