<svg viewBox="0 0 128 73" xmlns="http://www.w3.org/2000/svg" fill-rule="evenodd" clip-rule="evenodd" stroke-linejoin="round" stroke-miterlimit="1.414"><path d="M12.026 72.976c-1.96 0-3.674-.82-4.566-2.13l1.696-1.512c.824.96 1.88 1.36 3.006 1.36 1.4 0 2.06-.38 2.06-1.28 0-.748-.4-1.086-2.62-1.588-2.16-.504-3.666-1.192-3.666-3.506 0-2.134 1.88-3.44 4.194-3.44 1.83 0 3.174.68 4.28 1.84l-1.694 1.646c-.76-.772-1.6-1.21-2.674-1.21-1.26 0-1.68.54-1.68 1.06 0 .74.504.972 2.368 1.41 1.86.44 3.926 1.076 3.926 3.628 0 2.24-1.408 3.746-4.614 3.746l-.016-.024zm11.5 0c-3.206 0-5.1-2.48-5.1-6.06 0-3.574 1.894-6.056 5.1-6.056 3.204 0 5.1 2.48 5.1 6.06 0 3.574-1.896 6.056-5.1 6.056zm68.808 0c-3.206 0-5.1-2.48-5.1-6.06 0-3.574 1.894-6.056 5.1-6.056 3.206 0 5.1 2.48 5.1 6.06 0 3.574-1.894 6.056-5.1 6.056zm-13.254-.18V61.042h2.352v9.434h4.712v2.32H79.08zm-19.64 0h-3.506V61.042h3.676c3.356 0 5.84 1.58 5.84 5.876 0 4.128-2.986 5.876-6.01 5.876v.002zm56.272 0h-3.506V61.042h3.674c3.36 0 5.84 1.58 5.84 5.876 0 4.128-2.984 5.876-6.008 5.876v.002zm-11.208.18c-2.84 0-4.75-1.914-4.75-5.336v-6.6h2.348v6.566c0 1.88.92 3.072 2.42 3.072 1.496 0 2.416-1.16 2.416-3.04v-6.596h2.352v6.564c0 3.406-1.78 5.37-4.766 5.37h-.02zm-68.81 0c-2.836 0-4.75-1.914-4.75-5.336v-6.6h2.35v6.566c0 1.88.906 3.072 2.4 3.072 1.492 0 2.416-1.16 2.416-3.04v-6.596h2.35v6.564c0 3.406-1.78 5.37-4.766 5.37zm-12.168-9.784c-1.9 0-2.686 1.628-2.686 3.726 0 2.096.788 3.726 2.686 3.726 1.896 0 2.686-1.63 2.686-3.726 0-2.1-.79-3.726-2.686-3.726zm51.338 1.27c-.42-.802-1.092-1.27-2.146-1.27-1.78 0-2.78 1.544-2.78 3.726 0 2.114 1.02 3.726 2.78 3.726 1.06 0 1.68-.454 2.3-1.496l1.98 1.18c-.81 1.66-2.22 2.648-4.352 2.648-3.072 0-5.134-2.35-5.134-6.06 0-3.574 2.148-6.056 5.22-6.056 2.212 0 3.56 1.074 4.3 2.6l-2.168 1.002.002.006h-.014l.012-.006zm17.462-1.27c-1.894.004-2.678 1.63-2.678 3.726s.788 3.726 2.686 3.726c1.894 0 2.684-1.63 2.684-3.726 0-2.098-.798-3.722-2.692-3.726h.008-.016.008zm-32.808.134h-1.24v7.184h1.16c2.46 0 3.58-1.46 3.58-3.6 0-2.4-1.028-3.6-3.51-3.6l.01.016zm56.28 0h-1.26v7.184h1.16c2.464 0 3.588-1.46 3.588-3.6 0-2.4-1.02-3.6-3.506-3.6l.018.016zM50.8 72.792l-4.314-6.4c-.286-.44-.672-1.026-.82-1.326 0 .436.032 1.912.032 2.566v5.17h-2.32v-11.75h2.246l4.16 6.208c.286.44.67 1.024.82 1.328 0-.436-.03-1.914-.03-2.568v-4.968h2.314v11.75H50.8v-.01zm7.52-17.232c.88 0 1.61-.72 1.626-1.616v.012l.684-13.064-.684-32.52c-.016-.892-.744-1.616-1.626-1.616-.88 0-1.61.724-1.624 1.62l-.612 32.506.612 13.072c.014.9.744 1.62 1.624 1.62v-.014zm-3.124-14.668l-.76-27.332c-.02-.844-.684-1.506-1.514-1.506s-1.5.68-1.5 1.52l-.68 27.334.68 13.15c.02.836.68 1.5 1.52 1.5s1.5-.664 1.514-1.51v.006l.76-13.148-.02-.014zm-23.46 14.634c.576 0 1.05-.468 1.08-1.068v.008l1.056-13.586-1.06-25.986c-.026-.6-.5-1.06-1.076-1.06-.58 0-1.054.48-1.08 1.08l-.936 25.978.94 13.58c.02.6.5 1.066 1.08 1.066l-.004-.012zm10.52 0h.012-.024.012c-.7-.006-1.264-.568-1.284-1.284l-.81-13.36.8-29.1c.02-.724.6-1.29 1.3-1.29.7 0 1.26.568 1.28 1.288l.91 29.106-.908 13.36v-.008c-.024.718-.588 1.282-1.288 1.288zm5.318-.014h.01-.02.01c-.768-.006-1.378-.618-1.398-1.394l-.74-13.23.74-28.36c.018-.786.636-1.4 1.406-1.4.76 0 1.38.616 1.4 1.396l.82 28.364-.834 13.234v-.01c-.02.78-.63 1.394-1.394 1.4zM36.97 11.546c-.644 0-1.166.52-1.188 1.18l-.86 28.16.88 13.44c.02.654.546 1.172 1.19 1.172.64 0 1.16-.516 1.188-1.176v.008l.98-13.46-.98-28.16c-.028-.66-.55-1.18-1.19-1.18l-.02.016zM63.696 3.7c-.944 0-1.72.776-1.734 1.728l-.7 35.468.72 12.87c.014.94.79 1.716 1.734 1.716s1.72-.776 1.734-1.728v.02l.772-12.86-.772-35.468c-.01-.952-.788-1.726-1.732-1.726l-.022-.02zM21.39 55.388c.46 0 .826-.366.86-.848l1.208-13.668-1.22-13.004c-.04-.48-.4-.844-.86-.844-.46 0-.84.364-.86.85l-1.074 13 1.066 13.68c.028.48.4.854.86.854l.02-.02zm-5.11-.22c.392 0 .714-.32.75-.74l1.28-13.56-1.28-14.014c-.036-.4-.36-.72-.75-.72-.4 0-.72.32-.752.74l-1.128 14 1.128 13.56c.032.42.354.74.752.74v-.006zm-10.1-2.542c.27 0 .49-.212.532-.516l1.432-11.26-1.432-11.5c-.04-.306-.26-.52-.532-.52s-.494.22-.53.52L4.39 40.844l1.26 11.24c.036.304.26.52.53.52v.022zm-4.73-4.27c.26 0 .468-.206.51-.5l1.108-6.99-1.108-7.11c-.04-.294-.252-.5-.512-.5-.268 0-.48.208-.514.5L0 40.868l.934 6.988c.036.296.246.504.514.504l.002-.004zm27.194-7.478L27.51 19.726c-.03-.536-.456-.96-.968-.96s-.94.424-.96.96l-1 21.152 1 13.668c.04.532.46.954.98.954s.94-.42.97-.96v.006l1.134-13.668h-.022zM11.85 27.228c-.04-.364-.308-.626-.64-.626-.34 0-.608.264-.64.626l-1.2 13.64 1.2 13.14c.032.366.3.63.64.63.332 0 .6-.264.64-.626l1.36-13.144-1.36-13.64zm56.766 28.344c.04.004 43.36.026 43.64.026 8.696 0 15.744-7.05 15.744-15.746 0-8.696-7.048-15.746-15.74-15.746-2.16 0-4.22.44-6.092 1.224C104.914 11.13 93.016.01 78.502.01c-3.54 0-7 .68-10.06 1.88-1.18.46-1.5.92-1.52 1.84v49.98c.02.96.76 1.76 1.7 1.86l-.006.002z"/></svg>