<svg viewBox="0 0 128 130" xmlns="http://www.w3.org/2000/svg" fill-rule="evenodd" clip-rule="evenodd" stroke-linejoin="round" stroke-miterlimit="1.414"><path d="M110.825 129.145v-6.214h-2.218v-1.26h5.943v1.27h-2.215v6.215h-1.51zm4.684 0v-7.48h2.26l1.35 5.103 1.34-5.102h2.265v7.48h-1.404v-5.888l-1.485 5.887h-1.45l-1.48-5.887v5.887H115.5zm12.34-60.68c.05 1.64.2 3.048-.44 4.725-3.48.99-6.332-.47-9.19-1.932-2.59-1.324-5.18-2.65-8.242-2.146l.73 3.642c5.955.196 9.675 5.907 15.83 5.66-.876 1.748.39 6.348-3.485 4.51-4.02-.967-6.926-4.51-11.33-4.51-.53.978-.198 2.33-.29 3.483 4.65.73 7.99 4.658 12.636 5.383-.437 1.597-.87 3.384-2.178 4.36-3.78-.92-6.734-4.316-10.757-4.218l-.72 3.343c3.826.098 6.297 3.482 9.735 4.497.093 1.41-1.17 2.672-1.894 3.93-3.05-.916-5.376-3.537-8.863-3.344-.048-1.313.73-2.805.44-4.21-3.917 1.165-6.543-2.473-9.445-4.655-.086-7.14-7.604-11.827-8-18.517-.078-1.334.126-2.758.734-4.287 2.473-5.72 1.696-13.14-1.014-18.46-.822-1.4-2.28-2.51-3.64-3.34 1.988 4.214 4.413 9.195 3.203 14.376-.14 4-2.5 7.844-2.53 11.7-.006 1.376.287 2.752 1.08 4.14 3.15 5.674 8.817 11.043 6.686 18.16-.585 2.184-2.33 3.874-2.766 6.1 3.69 3.05 7.17 6.49 12.06 6.684 1.74-1.11.776-6.047 4.36-3.77l5.233 2.62c-.38 1.4-1.555 2.655-2.616 3.62-1.986-.968-3.923-2.126-6.398-2.03-.73.772-1.36 1.643-1.307 2.753 1.74.287 3.34 1.02 4.795 2.04-.678 1.456-1.994 2.367-3.205 3.482l-4.057-1.45c-.68.966-2.09 1.985-1.59 3.05.912.393 1.93.922 2.602 1.602-1.792 1.937-4.06 3.183-6.248 4.498-1.883-6.152-8.085-10.467-7.553-17.58l-.286-.29c-1.457 1.64-.97 4.26-.876 6.39 1.744 4.455 5.906 7.9 6.54 12.784-.73 1.256-2.374 1.51-3.634 2.04.146-8.813-13.22-15.496-4.648-24.408 2.86-4.366 7.644-8.53 5.95-14.54-1.746-5.8-7.908-9.395-7.85-15.9l.01-.506c1.4-6.783 5.663-14 2.18-21.214-.976-2.9-3.148-6.2-6.1-7.412 4.403 5.04 6.15 13.268 3.63 20.05-1.27 2.7-3.02 5.914-3.195 9.087h-.01c-.094 1.655.244 3.303 1.315 4.865 3.342 5.425 9.15 11.385 5.81 18.456-3.776 5.664-10.363 11.425-6.686 18.885 2.66 4.457 6.78 8.9 5.67 14.38l-4.36 1.45c2.904-10.214-11.336-16.217-5.375-26.436 3.68-5.47 10.263-10.607 6.536-17.87-2.226-4.5-6.83-7.164-6.682-12.788l.16-.945c1.496-7.977 7.56-15.526 3.322-24.05-1.115-2.516-3.342-5.082-5.814-6.537l-.15.15c4.94 4.79 6.446 12.68 3.78 19.02-1.24 3.72-3.97 7.427-4.525 11.413-.26 1.88-.04 3.83 1.05 5.88 3.146 4.985 8.665 10.27 5.22 16.716-3.625 5.322-9.68 10.5-7.263 17.42 2.662 6.057 8.226 11.826 5.22 19.335l-4.496 1.015c3.585-7.317-1.786-14.58-4.932-20.924-3.83-9.106 8.225-13.466 8.42-21.79-.047-5.37-5.76-8.424-6.966-13.363-1.463-1.235-2.956-.72-4.545-.204-1.096.355-2.238.71-3.446.49-.77.154-1.68-.17-2.59-.495-1.697-.6-3.4-1.2-4.25 1.224-1.55 5.47-8.617 9.49-5.51 15.976 2.954 5.767 10.066 9.98 7.69 17.444-2.127 6.97-9.153 13.603-4.796 21.64-1.79-.58-5.134.53-5.086-2.33-2.76-9.732 9.01-15.403 5.376-25.13-1.694-5.96-9.4-9.25-7.703-16.42 1.255-5.9 7.875-10.023 6.947-16.485-.078-.54-.21-1.1-.4-1.676-2.47-6.97-7.51-13.947-4.51-22.086.827-2.324 2.474-4.31 3.92-6.39-4.793 2.57-7.21 7.994-7.112 13.51-.21 6.005 4.22 11.148 4.852 16.64.247 2.216-.116 4.487-1.664 6.894-3.145 4.27-7.258 8.77-5.373 14.39 1.793 5.67 8.863 9.1 8.427 15.69-.048 7.79-9.104 12.644-6.537 21.36l-4.508-1.46c-1.79-7.747 6.44-11.71 6.535-18.876 1.165-8.24-9.346-11.3-8.716-19.334-.044-6.103 5.328-9.97 7.7-15.103.41-1.25.544-2.43.49-3.564-.29-5.677-5.407-10.115-4.557-16.497.287-4.693 1.887-8.81 4.937-12.343-4.21 1.69-5.95 6.54-7.113 10.61-2.018 6.523 2.8 12.39 3.284 18.237.217 2.58-.413 5.147-2.842 7.77-3.49 4.11-7.028 9.3-4.51 14.825 2.67 6.097 11.05 10.842 7.417 18.447-1.985 4.792-6.734 8.422-6.538 14.09-1.26-.537-2.564-1.068-3.633-2.03 0-7.218 10.262-11.72 5.372-19.327-.433 1.5-.526 3.54-.865 5.233-1.697 4.41-5.33 7.94-6.687 12.5-2.27-.878-4.644-2.72-6.534-4.658l2.614-1.6c-.29-.97-1.063-1.794-1.74-2.617-1.7-.24-2.815.878-4.216 1.315-1.214-1.07-2.38-2.037-3.347-3.345.87-2.476 7.66-.43 4.22-4.498-2.322-1.452-4.653.62-6.69 1.59l-2.754-3.482c2.373-1.45 4.74-3.49 7.69-2.905.728 1.31.78 3.238 2.18 3.92 4.99-.097 8.525-3.87 12.35-6.824-2.666-3.965-4.836-9.44-2.47-14.24 1.9-4.804 6.84-8.852 7.066-14.165.05-1.21-.14-2.483-.665-3.85-2.614-6.734-3.536-15.834 1.453-21.79-2.713.726-4.312 4.106-5.234 6.674-3 6.58.794 12.67.925 18.97.018 1.133-.074 2.27-.35 3.412-2.565 5.18-6.726 9.726-7.402 15.69-2.954 1.884-5.38 5.18-9.59 4.07-.15 1.11.19 2.807.577 4.067-3.34-.14-5.615 2.32-8.426 3.484-1.5-.48-1.89-2.414-2.468-3.77 3.29-1.11 5.664-4.41 9.44-4.36.44-1.214-.243-2.33-.436-3.49-1.81-.803-4.025.54-6.103 1.88-3.32 2.15-6.287 4.29-6.672-2.32 4.698-.29 7.7-4.65 12.35-5.082l.14-3.48c-2.64-.267-4.808.956-6.976 2.18-2.167 1.222-4.336 2.446-6.974 2.18L1.44 78.27c6.102.383 9.74-5.09 15.55-5.38.773-1.017.866-2.518 1.015-3.92-2.928-.383-5.432.91-7.942 2.202C7.135 72.68 4.2 74.187.573 73.038c0 0-.23-2.927-.357-4.576h.01C.186 67.82.14 67.37.14 67.37c6.006 2.33 11.28-1.982 16.418-4.208 1.307-.39 3.344.286 3.93-1.165-.05-1.114 1.98-2.416.29-3.194-3.255-.442-6.036 1.01-8.77 2.46-3.573 1.897-7.066 3.794-11.43 1.46L0 61.56C1.603 39.67 13.946 18.512 34.43 8.1 42.724 3.36 53.03.943 63.424.857 75.967.753 88.64 4.043 98.07 10.717c9.157 5.617 17.913 14.872 22.667 24.267 4.545 8.233 6.638 17.47 7.263 27.305-4.394 3.32-7.987 1.23-11.692-.85-2.992-1.69-6.055-3.37-9.67-2.2.435 1.26.676 2.57 1.6 3.63 3.006-.02 5.62 1.28 8.196 2.59 3.566 1.81 7.058 3.62 11.417 1.902l.01 1.093zm-69.165-7.63l.14.875c1.892 1.26 2.474 3.397 5.095 3.203 2.323.138 4.066-2.04 5.223-3.78-1.504-.208-3.163-.163-4.866-.118-1.858.05-3.77.1-5.593-.18zm1.965-3.268c1.373.324 1.713.81 2.797.947 1.153-.02.987-.255 2.996-.95.132-.045.314-.337.09-.56-1.25-1.24-2.113-.354-2.896-.33-1.036.01-2.01-.89-3.025.28-.173.24-.263.472.04.613zm49.757-3.56c4.936 1.308 9.887 6.686 15.113 3.196-4.552-7.553-11.326-14.53-9.443-24.407.2-.674-.24-1.357-.864-1.45-2.952 1.204-5.24 4.114-6.407 6.974-.48 1.69-.767 3.49-1.44 5.083-3.54-1.842-7.315-3.624-11.625-3.194-1.55.19-3.78.29-4.07 1.89 4.89 2.61 8.917 6.97 11.91 11.62 2.09-.34 4.65-.05 6.83.28zm-58.4-5.957c-.1.626.046 1.744 1.013 1.312 1.504-2.082 4.165-.435 5.81-.288v-.586c-.9-1.418-2.76-2.13-4.645-2.06-.435.016-.877.08-1.304.178-.63.14-1.07.718-.872 1.444zm20.763-1.464c-.192.005-.38.014-.567.02-1.014.677-3.972.19-2.905 2.468 1.847-1.457 4.41-.437 6.25.288.68-.34.537-1.016.58-1.6-.59-1.1-2-1.203-3.35-1.176zm2.916-4.776c-1.36-3.003-4.457-4.218-7.27-4.944-1.38-.17-2.81-.285-4.23-.298-.266-.003-.53-.007-.796 0-3.97.08-7.763 1.098-10.08 4.366-.334.923-1.796 2.22-.437 3.045 3.05-.2 6.533-.58 8.566 2.04 0 2.32 1.5 5.42-1.018 6.53-1.084-1.01-2.28-.74-3.49-.477-1.114.244-2.247.49-3.333-.254-1.068-.63-1.743.106-2.18 1.026-.63 6.002 2.512 12.63 8.13 15.97 2.276.82 5.336 1.6 7.712.435 5.71-2.66 8.08-8.76 9.143-14.38-.144-1.07-.093-3.15-1.594-3.2-1.69 1.07-4.162.437-5.96 0-1.06.342-1.11 1.894-2.315 2.19l-.736-.59c-.63-2.66-1.02-6.437 1.454-8.277 2.764-1.114 6.008-1.6 8.866-.727.536-.92-.29-1.644-.44-2.468zm-39.09-.3c-5.036-3.293-11.423-.19-16.117 1.603-.438-4.41-2.23-8.426-5.96-11.33-.365-.18-.866-.56-1.316-.588-.27-.018-.527.09-.726.436 1.693 10.42-5.074 17.68-9.87 25.58 1.596 1.308 4.16 1.11 6.1.73 5.08-2.034 9.924-5.573 15.98-4.36 1.79-3.05 4.795-6.005 7.262-8.427 1.505-1.304 3.575-2.13 4.644-3.632zm27.03-18.16c2.28 1.313 4.7 3.005 6.54 4.796l-.725.727c-3.63-.387-7.455.096-10.9.15-.382-.39-1.155-.97-.435-1.458l5.522-4.215zm30.224 2.76c-3.586-.19-6.588 1.845-9.88 2.765-.288-2.803 1.84-5.762 2.327-8.576-5.325.34-9.543 3.54-13.95 6.1-1.02-2.465-2.04-4.94-3.054-7.41l5.812-5.52.15-.73-7.85-.438C66.05 9.932 65.518 7.08 63.92 4.9c-1.31 2.47-2.188 5.084-3.49 7.55l-7.845.44v.578l5.953 5.37c-.73 2.763-1.404 5.764-3.194 7.85-3.487-2.087-6.924-4.36-10.747-5.81-.92-.297-2.23-.78-3.053-.15 1.21 2.665 2.902 5.53 2.617 8.44-1.6-.29-2.853-1.32-4.355-1.75-1.797-.49-3.93-1.446-5.67-.864 2.904 4.066 5.276 8.32 6.097 13.213 9.643-4.655 20.886-7.21 32.56-5.226 5.47.875 10.5 3.1 15.393 4.94.192-5.13 3.437-9.25 5.67-13.37z"/></svg>