<svg viewBox="0 0 128 38" xmlns="http://www.w3.org/2000/svg" fill-rule="evenodd" clip-rule="evenodd" stroke-linejoin="round" stroke-miterlimit="1.414"><path d="M7.566 33.016l.86-2.618c1.785.29 3.368.645 5.364.608 3.683-.068 7.536-2.09 8.926-5.062.83-1.77.783-3.878-.698-6.11-1.03-1.55-3.44-3.854-2.347-5.95 1.01-1.932 3.94-1.126 5.3-.15l2.3-4.72c-1.71-1.177-3.77-1.708-5.69-1.668-3.673.076-7.16 2.38-8.475 6.388-.932 2.833.238 4.974 1.406 6.7.998 1.48 2.01 2.65 1.53 3.75-.65 1.972-4.44 1.474-5.76.604l.98-2.983-8.27 3.485 1.717 2.894 1.146 1.93c.38.645.763 1.29 1.145 1.934l.572.965zM90.443 7.643h8.18l-2.682 23.1h-6.06l.64-3.86h-4.86l-2.07 3.86H78.07l12.38-23.1zm9.163 0h5.59l1.23 8.55c4.017-5.863 7.437-9.183 13.446-8.55.28-.854.563-1.708.843-2.56l4.344 7.067-7.74 3.256.92-2.798c-1.45-1.193-9.4 3.98-13.52 18.134h-6.45l3.34-10.175L99.6 7.643zm-52.313 0h8.563c6.304 0 5.1 8.894-.082 11.127 6.32 4.652.51 11.972-6.48 11.972h-9.598l7.597-23.1zm60 21.287h1.514v.248h-.594v1.447h-.32v-1.447h-.6v-.248zm1.746 0h.46l.464 1.355.472-1.355h.467v1.695h-.304v-1.4l-.48 1.4h-.316l-.473-1.4v1.4h-.3V28.93zM8.03 37.535c-.064 0-.136-.066-.227-.2l-7.63-12.61c-.348-.57-.182-.603.456-.872 3.38-1.424 6.76-2.85 10.15-4.273.49-.206.48-.13.36-.643-1.43-6.147 1.43-10.417 5.34-12.39 3.71-1.876 8.37-1.665 11.2.124.39.25.34.34.49-.12l.26-.8c.1-.31.06-.31.39-.31h25.33c3.63 0 4.745.63 5.473 1.22.306.25.304.378.354-.056.032-.287.066-.51.1-.797.034-.304.05-.36.357-.36h46.24c.406 0 .464.026.523.425l.26 1.817.074.52.26 1.816c.07.487.03.567.345.2 2.715-3.19 6.304-5.134 9.55-4.827.46.042.39.06.537-.39.504-1.56.965-2.976 1.47-4.535.195-.607.2-.606.522-.08 2.42 3.965 4.83 7.863 7.25 11.82.673 1.097.847.98-.36 1.474-4.153 1.71-7.97 3.294-12.124 5.005-.973.4-1.18.49-.862-.525.11-.347.286-.752.213-.796-.042-.026-.18.077-.47.4-2.562 2.83-4.19 5.665-5.28 8.487-.237.614-.28.49.376.49h2.46c1 0 1.41.553 1.41 1.446v2.65c0 1.364-.69 1.85-1.725 1.85H87.77c-.8 0-.823.048-.7-.733l.4-2.514c.048-.286.15-.36-.16-.36h-.22c-.25 0-.257.185-.37.396l-1.3 2.42c-.435.817-.37.79-1.297.79H57.89c-.952 0-.91-.022-.803-.95l.157-1.36c.09-.775.014-.633-.458-.245-2.453 2.014-5.737 2.554-9.31 2.554h-9.78c-.858 0-.902-.03-.646-.81l.342-1.04c-2.416 1.704-5.147 2.444-7.768 2.444-3.054 0-5.803-1.28-6.937-3.63-4.25 3.95-10.893 4.116-12.878 3.104-.54 1.534-1.07 3.05-1.61 4.584-.058.127-.11.193-.17.195zm40.893-15.923h1.71c1.082 0 1.826.837 1.656 1.858l-.04.223c-.17 1.022-1.19 1.858-2.27 1.858h-2.2l1.14-3.93zm-19.113 9.65c4.935 0 8.863-3.232 10.367-7.803l1.305-3.98 2.59-7.87 1.306-3.97h-6.324L33.77 23.713c-.773 2.348-3.853 2.348-3.097.05 1.71-5.203 3.592-10.92 5.303-16.124h-6.108l-5.195 15.794c-1.5 4.562.206 7.813 5.11 7.825h.03zm62.88-17.504l-1.432 8.632h-3.195l4.627-8.633zM62.145 7.642l-2.682 23.1h5.847L72.124 16.1l-2.43 14.642h5.655l12.38-23.1h-5.94l-6.69 14.35 2.38-14.35h-5.13L65.406 22.14l2.436-14.495h-5.698zm-10.64 5.06h1.707c1.08 0 1.652.867 1.27 1.924l-.082.232c-.38 1.056-1.576 1.92-2.655 1.92h-1.42l1.18-4.076z"/></svg>