<svg viewBox="0 0 128 22" xmlns="http://www.w3.org/2000/svg" fill-rule="evenodd" clip-rule="evenodd" stroke-linejoin="round" stroke-miterlimit="1.414"><path d="M0 10.53C0 4.714 7.236 0 16.162 0c8.926 0 16.162 4.715 16.162 10.53 0 5.813-7.236 10.528-16.162 10.528C7.236 21.058 0 16.343 0 10.528zm20.114-.094c.003.156.005.314.005.473 0 4.35-1.25 8.01-2.95 9.07l.03-.01c7.232-.376 12.94-4.634 12.94-9.83 0-1.766-.66-3.423-1.816-4.857l-.014-.03c-.09 2.4-3.492 4.43-8.205 5.17zm-7.903 0c-4.71-.74-8.11-2.77-8.2-5.17L4 5.293c-1.162 1.434-1.82 3.09-1.82 4.857 0 5.196 5.704 9.454 12.94 9.83l.03.006c-1.695-1.062-2.944-4.725-2.944-9.077 0-.16 0-.32.005-.48zm70.26.093c0-4.45 3.61-8.05 8.05-8.05 4.45 0 8.05 3.6 8.05 8.04s-3.6 8.046-8.05 8.046-8.044-3.6-8.044-8.047zm-31.67 0c0-4.45 3.604-8.05 8.048-8.05 4.445 0 8.048 3.6 8.048 8.04s-3.602 8.046-8.047 8.046-8.05-3.6-8.05-8.047zm-5.6-4.7v12.38h-3.39V5.832h-4.73v-2.8h12.85v2.8H45.2zm62.5 0v12.38h-3.39V5.832h-4.73v-2.8h12.85v2.8h-4.73zm3.566 12.372l6.26-15.175h4.22L128 18.21h-3.96l-1.3-3.41-.003-.003h-6.213l-.003.002-1.3 3.41h-3.96zm-97.51-7.584c.06 3.385 1.116 6.083 2.413 6.083s2.354-2.7 2.41-6.083h.005l-.006-.004v.002c-.78.07-1.59.11-2.416.11-.826 0-1.632-.04-2.412-.11v-.007h-.004.005zm76.767 5c2.48 0 4.495-2.28 4.495-5.096 0-2.816-2.012-5.098-4.493-5.098-2.48 0-4.493 2.282-4.493 5.097 0 2.814 2.01 5.096 4.49 5.096zm-31.674 0c2.48 0 4.492-2.28 4.492-5.096 0-2.816-2.013-5.098-4.494-5.098-2.482 0-4.494 2.282-4.494 5.097 0 2.814 2.01 5.096 4.493 5.096zm58.657-3.39v.002h4.267l-2.12-5.555h-.03l-2.116 5.554zm4.267 0v.002zm-101.65-1.8zm-7.902 0h.005zm60.75 7.776v-5.76l-5.92-9.413h3.96l3.673 6.38 3.674-6.38h3.96l-5.92 9.417v5.76h-3.44zM13.93 7.956c.717.062 1.468.095 2.24.095.77 0 1.52-.03 2.24-.094-.36-2.338-1.227-3.987-2.24-3.987-1.015 0-1.882 1.65-2.24 3.98zm0 0zm4.48 0zm-2.24-6.438c1.72 0 3.188 2.61 3.73 6.26l.003-.01c3.35-.52 5.7-1.727 5.7-3.128 0-1.88-4.226-3.404-9.436-3.404S6.73 2.762 6.73 4.642c0 1.4 2.344 2.603 5.696 3.125l.003.005c.54-3.646 2.01-6.26 3.73-6.26z"/></svg>