<svg viewBox="0 0 128 105" xmlns="http://www.w3.org/2000/svg" fill-rule="evenodd" clip-rule="evenodd" stroke-linejoin="round" stroke-miterlimit="1.414"><path d="M127.992 12.3c-4.71 2.092-9.77 3.5-15.08 4.14 5.42-3.252 9.584-8.4 11.544-14.532-5.074 3.01-10.694 5.196-16.676 6.374C102.992 3.18 96.165 0 88.613 0c-14.5 0-26.26 11.76-26.26 26.26 0 2.06.23 4.064.68 5.986-21.828-1.1-41.18-11.56-54.13-27.44-2.26 3.88-3.555 8.388-3.555 13.2 0 9.11 4.636 17.147 11.68 21.86-4.3-.14-8.352-1.32-11.892-3.29v.33c0 12.73 9.06 23.34 21.06 25.755-2.2.6-4.52.92-6.906.92-1.692 0-3.34-.16-4.94-.47 3.34 10.436 13.04 18.028 24.53 18.24-8.988 7.04-20.312 11.24-32.62 11.24-2.12 0-4.206-.12-6.26-.366 11.62 7.452 25.426 11.8 40.255 11.8 48.3 0 74.715-40.02 74.715-74.72 0-1.14-.026-2.27-.076-3.4 5.132-3.7 9.586-8.33 13.106-13.6"/></svg>