<svg viewBox="0 0 128 34" xmlns="http://www.w3.org/2000/svg" fill-rule="evenodd" clip-rule="evenodd" stroke-linejoin="round" stroke-miterlimit="1.414"><path d="M26.49 27.18c1.79 0 3.24 1.45 3.24 3.242 0 1.788-1.45 3.24-3.24 3.24-1.79 0-3.24-1.452-3.24-3.24 0-1.79 1.45-3.24 3.24-3.24zm.19-9.04c-.56 3.885-3.92 6.885-7.94 6.885-1.06 0-2.08-.206-3-.58l-2.78 4.82c1.78.84 3.74 1.28 5.76 1.28 1.06 0 2.1-.12 3.105-.355.074-1.52.9-2.977 2.32-3.797 1.412-.816 3.08-.804 4.435-.112 2.12-2.24 3.38-5.09 3.632-8.14h-5.54.01zM10.7 17c0-2.552 1.2-4.833 3.07-6.3L11 5.88c-.647.46-1.265.97-1.84 1.547-1.607 1.608-2.76 3.55-3.4 5.67 1.28.82 2.13 2.26 2.13 3.9 0 1.64-.847 3.08-2.127 3.9.64 2.122 1.8 4.062 3.4 5.662.58.57 1.2 1.08 1.84 1.54l2.78-4.82c-1.86-1.46-3.06-3.74-3.06-6.3L10.7 17zm77.57 4.42c0 .71.16 1.24.485 1.59.32.355.746.533 1.28.533.54 0 .974-.16 1.304-.52.33-.36.49-.88.49-1.584V16.8c0-1.316.1-2.232.28-2.746.18-.508.47-.9.87-1.187.4-.28.9-.424 1.48-.424s1.08.14 1.48.416c.41.28.72.69.914 1.23.15.4.22 1.263.22 2.59v4.76c0 .71.16 1.234.48 1.58.32.352.74.53 1.272.53.54 0 .97-.17 1.3-.526.33-.354.492-.88.494-1.58v-3.83c0-2.45-.192-4.12-.58-5.026-.473-1.1-1.17-1.946-2.09-2.54-.92-.58-2.09-.876-3.51-.876-1.54 0-2.792.34-3.75 1.03-.94.684-1.606 1.642-2 2.87-.28.85-.406 2.4-.406 4.64v3.714l-.02-.018zm16.62-12.51h.4V6.704c0-.594.01-1.056.04-1.388.033-.34.12-.635.26-.877.145-.26.347-.46.613-.61.266-.16.56-.24.888-.24.46 0 .88.17 1.25.52.25.23.4.52.46.86.07.32.11.8.11 1.42v2.5h1.32c.517 0 .9.12 1.17.38.275.24.41.55.41.94 0 .49-.19.84-.58 1.04-.38.2-.93.29-1.64.29h-.68v6.76c0 .58.02 1.02.055 1.34.044.303.15.56.32.75.174.19.46.286.846.286.216 0 .5-.04.86-.11.368-.08.65-.12.854-.12.29 0 .55.12.78.36.24.234.36.526.36.88 0 .59-.32 1.04-.956 1.36-.64.31-1.552.47-2.74.47-1.136 0-1.993-.19-2.577-.58-.58-.38-.966-.92-1.152-1.6-.172-.68-.26-1.59-.26-2.735v-7.06h-.48c-.52 0-.92-.12-1.19-.377-.274-.255-.41-.57-.41-.96s.14-.7.42-.94c.292-.255.712-.38 1.26-.38l-.004.02zM64.073 20.2c.34-.23.616-.54.82-.932.032-.034.06-.072.08-.112.38-.774.6-1.74.6-2.788 0-1.01-.208-1.946-.556-2.706-.22-.5-.526-.88-.932-1.16-.452-.3-.996-.445-1.64-.445-.64 0-1.188.156-1.632.468-.434.312-.752.747-.95 1.3-.15.435-.24 1.12-.28 2.06-.02 1.46.08 2.455.28 3.017.2.56.52.992.954 1.304.444.31.99.464 1.634.464.65 0 1.19-.15 1.64-.454l-.01-.016zm8.075-8.915c0-.714.16-1.24.48-1.59.32-.356.74-.534 1.28-.536.54 0 .965.18 1.3.53.327.352.5.882.5 1.59v4.63c0 1.31.085 2.23.267 2.74.18.5.47.9.865 1.18.4.28.9.42 1.48.42s1.08-.14 1.486-.42c.406-.28.72-.697.92-1.24.14-.405.22-1.267.22-2.59v-4.76c0-.71.16-1.236.48-1.58.32-.354.74-.53 1.26-.53.534 0 .966.18 1.294.53.33.356.493.88.493 1.58v3.835c0 2.45-.194 4.126-.58 5.03-.477 1.1-1.175 1.95-2.095 2.54-.92.58-2.09.88-3.512.88-1.54 0-2.79-.34-3.745-1.028-.94-.69-1.6-1.648-2-2.876-.27-.857-.41-2.4-.41-4.64v-3.72l.02.014zm43.508 0c0-.714.16-1.24.485-1.59.32-.356.75-.534 1.28-.536.54 0 .98.18 1.31.53.33.352.5.882.5 1.59v4.63c0 1.31.086 2.23.268 2.74.18.5.46.9.86 1.18.4.28.9.42 1.48.42s1.08-.14 1.487-.42c.41-.28.72-.697.914-1.24.15-.405.22-1.267.22-2.59v-4.76c0-.71.16-1.236.48-1.58.32-.354.746-.53 1.274-.53.54 0 .968.18 1.3.53.328.356.49.88.49 1.58v3.835c0 2.45-.192 4.126-.58 5.03-.474 1.1-1.17 1.95-2.092 2.54-.92.58-2.096.88-3.516.88-1.54 0-2.794-.34-3.75-1.028-.94-.69-1.61-1.648-2-2.876-.28-.857-.41-2.4-.41-4.64v-3.72l.006.014zm-75.46 0c0-.714.16-1.24.483-1.59.32-.356.74-.534 1.28-.536.54 0 .97.18 1.3.53.322.35.49.88.492 1.57v4.645c0 1.314.092 2.23.273 2.744.18.5.464.9.86 1.18.406.28.9.42 1.486.42s1.08-.14 1.484-.42c.4-.28.72-.696.905-1.24.147-.404.22-1.266.22-2.59v-4.76c0-.71.16-1.235.48-1.58.32-.353.74-.53 1.27-.53.535 0 .967.18 1.296.53.327.357.49.88.49 1.58v3.836c0 2.45-.2 4.128-.58 5.03-.48 1.1-1.176 1.95-2.1 2.54-.92.58-2.09.88-3.51.88-1.54 0-2.785-.34-3.74-1.026-.95-.686-1.615-1.645-2-2.873-.28-.86-.417-2.4-.417-4.64v-3.72l.016.01zM3.24 13.76c1.79 0 3.245 1.454 3.245 3.24 0 1.792-1.454 3.244-3.24 3.244C1.45 20.244 0 18.792 0 17.004c0-1.79 1.452-3.244 3.24-3.244zm64.652-1.49l-.008-.02.15.32.08.207v-.02l-.08-.2-.142-.3v.012zm.22.5v.007c.39 1 .62 2.22.62 3.56 0 1.3-.22 2.5-.6 3.5-.03.1-.065.18-.1.265-.1.24-.214.46-.336.67-.1.174-.206.34-.32.5-.396.55-.874 1.007-1.436 1.37-.92.58-2.092.875-3.514.88-1.54 0-2.8-.347-3.76-1.035-.953-.688-1.62-1.647-2-2.877-.22-.66-.35-1.74-.4-3.24l.005-.212V6.6c0-.58.01-1.037.04-1.36.03-.342.12-.626.26-.862.14-.248.35-.448.61-.6.267-.156.56-.236.89-.236.46 0 .88.17 1.25.514.25.226.4.508.464.84.07.333.108.8.108 1.41V9.95c.73-.26 1.498-.816 2.998-.816 1.42 0 2.12.288 3.04.872.48.312.904.7 1.268 1.154.255.32.477.673.67 1.06l.01.02c.08.16.154.33.22.5l.026.03zM18.74 8.98c4.035 0 7.385 3 7.94 6.884h5.554c-.252-3.055-1.52-5.9-3.634-8.145-1.36.69-3.027.7-4.44-.12-1.42-.82-2.24-2.27-2.32-3.79-1.005-.24-2.046-.36-3.102-.36-2.028 0-3.988.44-5.768 1.28l2.78 4.82c.924-.38 1.932-.58 2.986-.58h.004zM26.483.337c1.79 0 3.24 1.452 3.24 3.24 0 1.79-1.45 3.24-3.24 3.24-1.79 0-3.24-1.45-3.24-3.24 0-1.788 1.45-3.24 3.24-3.24z"/></svg>