<svg viewBox="0 0 129 30" xmlns="http://www.w3.org/2000/svg" fill-rule="evenodd" clip-rule="evenodd" stroke-linejoin="round" stroke-miterlimit="1.414">
    <path d="M107.152 29.89l-.538-.522c.936-1.131 2.289-1.934 3.614-2.545-.743-.309-1.511-.565-2.323-.583l-.213.247c-.831.998-1.883 1.298-3.164 1.298-.91 0-1.962-.088-2.828-.379l-.927-.301-.345-.23v-.043c0-.274 1.228-.47 1.422-.504l1.432-.283a17.82 17.82 0 0 1 3.552-.372c1.459 0 2.9.293 4.269.778 1.432-.468 2.925-.778 4.435-.778 1.626 0 3.226.213 4.791.619.168.044 1.326.248 1.326.557 0 .548-3.544.954-4.021.954-1.132 0-2.661-.38-3.128-1.537-.08 0-.169-.009-.257-.009-.743 0-1.582.274-2.262.557 1.237.573 2.447 1.333 3.402 2.314l.185.195-.521.504-.283-.24-.522-.468c-.423-.388-2.571-1.9-3.093-1.936-.468-.035-2.236 1.159-2.641 1.468-.487.381-.927.806-1.362 1.239zm-39.149-9.598c0 1.75.76 3.155 2.722 3.155 1.211 0 2.015-.513 2.554-1.546h5.708c-.565 1.74-1.316 3.287-2.879 4.347-1.618 1.114-3.563 1.494-5.498 1.494-2.986 0-5.903-1.316-7.37-4.004-.795-1.467-1.29-3.199-1.29-4.877 0-2.44.893-5.197 2.714-6.867 1.687-1.547 4.101-2.209 6.362-2.209 5.523 0 8.351 3.499 8.351 8.756 0 .585-.07 1.167-.15 1.751H68.003zM6.902 19.39c0 1.893.927 3.086 2.908 3.086 1.803 0 2.845-1.538 2.845-3.218v-8.731h5.984v10.145c0 2.103-.956 4.18-2.705 5.4-1.776 1.228-4.056 1.529-6.169 1.529-4.621 0-8.996-1.627-8.996-6.929V10.527h6.133v8.863zm54.146 2.033v5.056c-1.396.795-3.03 1.087-4.63 1.087-4.781 0-8.696-3.8-8.696-8.608 0-4.984 3.889-9.04 8.926-9.04 1.565 0 3.058.345 4.401 1.131v5.02c-.945-.557-1.98-1.052-3.102-1.052-2.156 0-3.738 1.572-3.738 3.73 0 2.049 1.484 3.613 3.57 3.613 1.166 0 2.244-.424 3.269-.937zm-34.643 5.684H20.37v-16.58h6.036v1.936c1.547-1.609 3.279-2.519 5.559-2.519 3.614 0 6.239 2.085 6.239 5.815v11.348h-6.045v-8.652c0-1.926-.61-3.526-2.819-3.526-2.192 0-2.935 1.874-2.935 3.792v8.386zm63.613-20.68h-.947c-2.253 0-2.482 1.387-2.482 3.349v.972h3.216v4.543h-3.216v11.816h-6.107V11.084c0-2.457.132-5.223 1.98-7.07 1.529-1.528 3.906-1.944 5.983-1.944h1.573v4.357zM46.202 27.106h-6.133V10.527h6.133v16.579zm73.455-1.838l.797-.416c.988-.512 4.444-1.925 5.567-1.925.062 0 .176.027.176.105 0 .389-1.917 1.83-2.218 2.025-.963.636-2.067 1.025-3.225 1.025-.229 0-1.51.008-1.51-.416-.001-.195.264-.328.413-.398zm-23.454-2.219c.018-.105.141-.141.229-.141.858 0 6.621 2.122 6.621 2.749 0 .46-1.548.388-1.768.388-1.265 0-2.431-.565-3.42-1.325-.203-.159-1.697-1.361-1.662-1.671zm21.414 2.572c-.134 0-.267-.053-.267-.203 0-.69 3.659-5.117 4.155-5.117.105 0 .115.15.115.22 0 2.247-1.477 5.1-4.003 5.1zm-16.403-5.108l.539.54c.637.636 3.234 3.481 3.234 4.356 0 .195-.344.186-.476.186-1.202 0-2.28-.885-2.855-1.883a6.153 6.153 0 0 1-.831-3.093c0-.088 0-.283.124-.283.106.001.204.116.265.177zm-1.723-7.467c0-3.465 1.405-6.92 4.021-9.226 2.138-1.9 4.993-3.076 7.866-3.076 6.538 0 11.744 5.426 11.744 11.913 0 6.574-5.39 12.116-11.993 12.116-6.423 0-11.635-5.344-11.638-11.727zm11.717-4.286l-.017-2.236-.743-.036a3.321 3.321 0 0 0-.38-.645l1.167.08v-1.98a6.295 6.295 0 0 1-1.406-.256c-.15.203-.6 1.122-.83 1.122-.115 0-.186-.123-.186-.23 0-.379.309-.821.512-1.122a4.497 4.497 0 0 1-1.015-.601c-.31.194-1.45 1.158-1.592 1.158-.115 0-.167-.151-.167-.248 0-.38 1.042-.998 1.334-1.193a8.917 8.917 0 0 1-.591-.671c-4.374 1.705-7.477 6.257-7.477 10.94 0 6.31 5.047 11.524 11.392 11.524 6.655 0 11.594-5.524 11.594-12.018 0-2.201-.778-4.287-1.936-6.125l-.468.336c-.442.309-.893.601-1.37.857.098.203.204.433.204.663 0 .088-.027.283-.152.283-.238 0-.458-.513-.538-.689-.328.106-.68.283-1.035.283-.078 0-.238-.062-.238-.168 0-.284.83-.531 1.042-.628-.406-.813-.866-1.537-1.492-2.2a12.99 12.99 0 0 1-1.945.91c.14.345.282.681.397 1.034l.22.671c.044.151.098.31.098.469 0 .645-.556.884-1.096.946l-1.281.158a14.15 14.15 0 0 1-1.502.098l.008.786c0 .167 0 .451-.247.451-.23 0-.291-.195-.3-.398l-.017-.751c-.239 0-.955.026-.955-.344 0-.186.203-.239.355-.239.14 0 .281.009.433.009h.22zm11.021 14.741l-.354.335c-.052.054-.123.125-.203.132-.142.01-.115-.291-.115-.362v-.132c0-1.538.477-3.101.954-4.551.045-.151.487-1.617.743-1.617.168 0 .213.442.23.556l.15.893c.053.336.071.68.071 1.025 0 1.388-.468 2.739-1.476 3.721zM98.74 19.984c0-.284.177-2.705.522-2.705.344 0 .988 2.73 1.068 3.048.265 1.105.442 2.183.442 3.323 0 .098-.018.283-.151.283-.442 0-1.245-1.406-1.413-1.733-.354-.68-.468-1.457-.468-2.216zm7.523-15.811c1.696.012 4.045 1.492 4.045 3.359 0 1.122-.873 1.643-.873 2.306 0 .212.034.424.034.636 0 .23-.335.274-.361.522l-.018.132-.151.23-.132.239c-.061.097-.423.372-.538.495-.203.221-.496.266-.787.266-.186 0-.38-.009-.557-.054l-.485-.132a1.08 1.08 0 0 0-.247-.026c-.266 0-.575.185-.575.477 0 .477.265.946.247 1.432l-.026 1.282.017.088.141.424.106.363c.16.592 1.087.548 1.696.785l.522.195c.071.026.158.079.239.079.318 0 .69-.601 1.22-.601.203 0 .211.309.389.292l.503-.043c.106-.019.185.406.185.494 0 .742-.512 1.697-1.343 1.697-.345 0-.61-.274-.927-.274-.132 0-1.115.274-1.387.318-.389.062-.778.124-1.166.124-.301 0-.744.009-1-.15l-.203-.132c-.035-.017-.071-.044-.115-.044-.318 0-.477.805-.477 1.015 0 .973 1.238 1.335 1.998 1.335.485 0 .988-.071 1.44-.266l1.37-.6c.988-.433 2.668-.619 2.951-.77.247-.132.441-.362.441-.653 0-.122-.015-.244-.043-.362l-.124-.487-.097-.591-.08-.646c-.177-1.555-2.023-1.634-2.023-2.792 0-.477.503-.752.521-1.202.009-.186.035-.31.213-.398l.176-.079c.247-.115 0-.663.318-.778l.169-.062c.379-.133.034-.919.574-.99l.433-.061.522-.106c.636-.133.601-.769 1.352-1.096l.786-.345.293-.186.343-.362c.31-.309.831-.371 1.247-.371 2.907 0 5.037 2.262 5.037 5.108 0 2.218-1.794 5.037-4.233 5.037-.06 0-.12-.002-.179-.005l-.12-.007a3.527 3.527 0 0 0-.178-.006c-.399 0-.425.442-.425.753 0 1.024 1.237 1.731 1.237 1.749 0 .088-.017.177-.017.265v.024h-.003c-1.981 1.573-4.278 2.607-6.831 2.607-6.239 0-10.738-4.931-10.738-11.047 0-1.608 2.776-1.617 2.776-3.11 0-.761-.301-1.485-.301-2.236 0-1.706 1.555-3.058 3.2-3.058h.019zm21.64 14.256l.247-.115c.027-.01.062-.037.105-.037.054 0 .098.062.098.115a.338.338 0 0 1-.036.132l-.282.637c-.575 1.281-1.679 2.669-2.89 3.42-.424.257-1.627.928-2.13.928-.097 0-.159-.054-.159-.15 0-.522 1.697-2.184 2.078-2.563.741-.751 2.006-1.9 2.969-2.367zm-33.697-.054c0-.061.017-.141.088-.141.84 0 5.215 4.215 5.215 5.099 0 .105-.062.141-.159.141-1.273 0-2.864-1.369-3.641-2.262-.433-.504-1.503-2.13-1.503-2.837zm29.579-3.209l.035-.591c.01-.071.036-.354.159-.345.098.009.168.15.212.221l.372.672c.477.875.715 1.926.715 2.924 0 .31-.353 2.74-.777 2.74-.522 0-.76-3.985-.76-4.286 0-.442.017-.892.044-1.335zm-25.32 4.19l-.255.998c-.027.098-.088.362-.222.362-.503 0-.751-2.263-.751-2.695 0-.778.213-1.573.496-2.289.079-.194.556-1.502.857-1.502.291 0 .256.618.256.786 0 1.432-.027 2.953-.381 4.34zm20.053 1.211l-.124-.345a8.492 8.492 0 0 0 2.014-2.845l.645-.54c-.538 1.414-1.272 2.837-2.535 3.73zm7.432-.99l-.415.239a.314.314 0 0 1-.15.052c-.062 0-.071-.096-.071-.14 0-.822 2.783-5.948 3.392-5.948.063 0 .063.106.063.15 0 .99-.283 2.024-.645 2.943-.38.971-1.264 2.182-2.174 2.704zm-31.196-4.958l.769 1.227c.469.761 1.599 2.873 1.599 3.791 0 .072-.027.178-.115.178-.203 0-.388-.132-.538-.266l-.672-.6c-1.202-1.078-1.935-3.269-1.935-4.87 0-.097.035-.283.159-.283.308.001.601.61.733.823zm3.845-3.049c.061 0 .071.053.071.106 0 .786-1.433 5.496-2.06 5.496-.3 0-.273-.847-.273-1.025 0-1.36.503-2.527 1.306-3.596.124-.159.699-.981.956-.981zm27.598 4.966l-.071.398c-.017.079-.035.221-.141.221-.486 0-1.662-3.703-1.794-4.25-.01-.027-.389-1.309-.088-1.309.459 0 1.44 1.768 1.616 2.175.31.68.53 1.405.53 2.166.001.202-.016.405-.052.599zm-58.106.203h5.559c-.088-1.616-.813-2.968-2.616-2.968-1.918 0-2.695 1.228-2.943 2.968zm60.138-6.548l.054.786c.017.142.017.275.017.407 0 .866-.177 1.855-.45 2.677-.098.265-.813 1.874-1.202 1.874-.151 0-.168-.273-.168-.371 0-1.477.353-2.855.778-4.251.053-.168.495-1.776.724-1.776.195.001.239.539.247.654zm-33.802 1.282c0-.257.106-2.042.381-2.042.274 0 .671 1.653.725 1.865.345 1.273.583 2.651.583 3.976 0 .141.036.645-.212.645-.293 0-.841-1.21-.938-1.476a8.27 8.27 0 0 1-.539-2.968zm2.597 1.546l-.353.381c-.071.07-.185.203-.3.203-.115 0-.115-.142-.115-.221 0-1.123.504-2.13 1.201-2.978.284-.345 1.397-1.582 1.857-1.582.062 0 .097.036.097.088 0 .918-1.724 3.384-2.387 4.109zm29.351.08v.3c0 .08 0 .194-.098.194-.142 0-.257-.185-.335-.274l-.594-.707c-.494-.591-2.023-2.818-2.023-3.622 0-.054.027-.124.089-.124.124 0 .247.088.335.159l.593.459c1.006.778 2.058 2.289 2.033 3.615zm.458-1.308l-.15.327c-.026.053-.053.115-.124.115-.345 0-.539-2.608-.539-2.925 0-.283.213-3.12.45-3.12.115 0 .204.38.23.459l.257.716c.247.68.31 1.528.31 2.253a5.514 5.514 0 0 1-.434 2.175zM96.389 6.152c.362.018.371 2.422.371 2.652 0 .309-.203 3.375-.628 3.375-.485 0-.617-2.465-.617-2.793 0-.724.115-1.423.335-2.112.054-.158.282-1.139.539-1.122zm4.825 5.011c-.15.089-.301.177-.451.274.125-1.582.893-4.189 2.192-5.17-.089.274-.15.539-.177.822-.821 1.22-1.308 2.634-1.564 4.074zm21.695-4.427l-.105-.354c-.017-.061-.044-.132-.044-.194 0-.044.035-.071.079-.071.584 0 1.821 1.44 2.156 1.918.372.539.805 1.272.805 1.943 0 .08.017.363-.115.363-.76.001-2.572-2.907-2.776-3.605zm-23.294-.521l.291-.195c.027-.009.053-.035.08-.035.062.009.088.088.088.141 0 .619-1.086 2.218-1.44 2.695-.203.266-1.166 1.467-1.546 1.467-.088 0-.151-.079-.151-.159 0-1.387 1.582-3.19 2.678-3.914zM43.126 1.867c1.927 0 3.518 1.617 3.518 3.535 0 1.918-1.582 3.552-3.518 3.552-1.925 0-3.517-1.626-3.517-3.552 0-1.918 1.591-3.535 3.517-3.535zm68.595 6.866c.894-.009 1.76-.203 2.653-.239.228-.017.688-.053.688-.37 0-.062-.017-.115-.025-.168l-.125-.504c-.115-.503-.318-.972-.521-1.44-.875.265-1.768.371-2.678.442l.008 2.279zm11.746-4.648l.618.566c.822.751 1.74 2.015 1.74 3.19 0 .115.037.521-.132.521-.67 0-1.952-2.58-2.164-3.102-.01-.018-.522-1.317-.265-1.29.078 0 .15.061.203.115zm-23.799.212l-.266.742c-.353 1.008-.998 2.086-1.74 2.855l-.24.247c-.061.071-.141.159-.238.159-.151 0-.177-.194-.177-.309 0-1.025.591-2.042 1.237-2.802.203-.248 1.052-1.272 1.397-1.272.061 0 .071.097.071.141 0 .08-.017.16-.044.239zm17.587.397c.6.699 1.139 1.468 1.563 2.29.601-.345 1.193-.726 1.715-1.185-.549-.786-1.22-1.564-2.006-2.121a8.41 8.41 0 0 1-.795.663l-.477.353zm-5.524 1.229c.831-.062 1.626-.159 2.421-.415-.265-.619-.556-1.211-.945-1.767a7.203 7.203 0 0 1-1.44.212l-.036 1.97zm2.907-.539a7.582 7.582 0 0 0 1.803-.866c-.538-.601-1.113-1.176-1.803-1.6a4.334 4.334 0 0 1-.963.593l.185.327.362.618c.169.292.292.61.416.928zm2.272-1.105a7.125 7.125 0 0 0 1.175-.945c-.69-.628-1.582-1.052-2.457-1.379-.185.221-.398.406-.601.601.707.459 1.335 1.096 1.883 1.723zm-6.762-1.078c.088-.124 1.025-1.343 1.115-1.3l-.037 1.574a9.049 9.049 0 0 1-1.078-.274zm1.653-1.264l-.009 1.52a8.927 8.927 0 0 0 1.087-.203c-.318-.486-.645-.927-1.078-1.317zm1.643 1.096a7.27 7.27 0 0 0 .707-.442 6.592 6.592 0 0 0-1.705-.893c.274.345.539.69.786 1.043l.212.292zm-2.685-1.458c-.733.212-1.361.539-2.015.945.292.186.592.345.901.486l.354-.486.45-.548.31-.397zm3.843.698c.186-.176.372-.354.567-.53l-.362-.097a12.417 12.417 0 0 0-2.13-.416l.211.115.435.195c.448.193.862.475 1.279.733zm-4.498-.981c-.6.274-1.166.557-1.714.928a2.698 2.698 0 0 1-.468-.486c.698-.257 1.37-.442 2.111-.442h.071z"/>
</svg>
