<svg viewBox="0 0 64 64" xmlns="http://www.w3.org/2000/svg" fill-rule="evenodd" clip-rule="evenodd" stroke-linejoin="round" stroke-miterlimit="1.414"><path d="M43.444 29.444v5.13c0 .195.16.354.354.354.196 0 .354-.16.354-.355v-5.13c0-.194-.158-.353-.354-.353-.195 0-.354.16-.354.354zm-16.11 5.47c-.803 0-1.534-.328-2.06-.854-.527-.527-.854-1.257-.854-2.06 0-.804.327-1.535.854-2.06.526-.527 1.256-.854 2.06-.854.803 0 1.534.327 2.06.853.525.52.85 1.25.853 2.05V32c0 .803-.326 1.533-.853 2.06-.524.524-1.25.85-2.05.853h-.01zm-14.116-.025c-.124 0-.238-.07-.303-.17-.064-.11-.07-.24-.01-.35l2.64-5.08c.076-.147.24-.22.4-.18.157.04.27.18.27.34l.01 5.074c0 .095-.037.184-.104.25-.06.07-.15.105-.25.105h-2.65zm-6.405-5.08h-.55v4.712c0 .196-.16.355-.355.355-.196 0-.354-.16-.354-.354v-5.07c0-.196.158-.355.354-.355h.92c.007 0 .078.003.18.013s.233.028.368.066c.09.027.184.06.284.126.03.022.08.055.136.097.057.043.12.096.186.16.13.13.267.312.352.552.056.16.09.34.09.546 0 .147-.004.3-.026.457-.022.153-.062.32-.144.472-.054.102-.127.202-.22.29-.124.116-.28.21-.46.27-.09.033-.188.06-.294.08l1.17 2.106c.095.17.033.386-.138.48-.17.096-.387.034-.482-.137L6.394 32.1c-.06-.11-.06-.242.005-.35.06-.107.18-.173.3-.173.242 0 .43-.026.56-.063.134-.037.213-.084.266-.13.036-.03.06-.063.083-.102.03-.052.052-.118.07-.202.02-.112.026-.255.026-.414 0-.194-.045-.323-.1-.425-.058-.1-.13-.17-.21-.24-.05-.04-.1-.07-.15-.11h-.012c-.013-.005-.032-.01-.054-.02-.042-.01-.1-.022-.156-.03-.1-.015-.192-.02-.217-.02h.002v-.355l-.01.326v.027H6.8zm51.422 0h-.55v4.712c0 .196-.16.355-.355.355-.196 0-.355-.16-.355-.354v-5.07c0-.196.16-.355.354-.355h.92s.07.003.18.013c.1.01.23.028.36.066.09.027.182.06.282.126.03.022.08.055.137.097.056.043.12.096.186.16.13.13.266.312.35.552.06.16.09.34.09.546 0 .147-.003.3-.024.457-.023.153-.063.32-.145.472-.055.102-.128.202-.22.29-.124.116-.28.21-.46.27-.09.033-.19.06-.294.08l1.17 2.106c.095.17.034.386-.137.48-.17.096-.386.034-.48-.137l-1.434-2.58c-.06-.11-.06-.243.005-.35.062-.108.18-.174.304-.174.248 0 .434-.026.567-.063.135-.038.214-.085.267-.13.033-.03.06-.064.08-.103.03-.05.054-.117.07-.2.02-.113.028-.256.027-.415 0-.194-.042-.323-.1-.425-.055-.1-.13-.172-.206-.24-.05-.04-.1-.07-.15-.11h-.016c-.01-.007-.03-.013-.05-.02-.047-.01-.1-.024-.16-.03-.1-.017-.19-.02-.217-.023h.006v-.354l-.01.353h.005zm-20.607 0v4.71c0 .197-.16.355-.355.355-.195 0-.354-.158-.354-.354v-4.71H35.9c-.196 0-.354-.16-.354-.354 0-.196.157-.355.353-.355h2.71c.194 0 .353.16.353.356 0 .197-.16.356-.355.356h-.99zm9.552 0v4.71c0 .197-.16.355-.354.355-.196 0-.355-.158-.355-.354v-4.71h-1.01c-.19 0-.35-.16-.35-.354 0-.196.16-.355.356-.355h2.715c.196 0 .354.16.354.356 0 .197-.16.356-.354.356h-.99zm4.144 0v4.71c0 .197-.16.355-.354.355-.196 0-.354-.158-.354-.354v-4.71H49.6c-.197 0-.355-.16-.355-.354 0-.196.158-.355.354-.355h2.71c.19 0 .35.16.35.356 0 .197-.16.356-.355.356h-.99zM40.66 32.06v2.46c0 .194-.16.353-.36.353-.195 0-.354-.16-.354-.354v-5.07c0-.098.037-.19.103-.25s.152-.11.25-.11h1.612c.197 0 .356.16.356.355 0 .2-.16.357-.355.357h-1.26v1.55h1.17c.193 0 .35.16.35.355 0 .195-.157.354-.353.354h-1.17zm13.71.02v2.06h1.3c.195 0 .354.16.354.354 0 .194-.16.353-.354.353h-1.65c-.094 0-.185-.037-.25-.103-.067-.067-.105-.158-.105-.25V29.48c0-.093.038-.185.104-.25.06-.067.15-.104.25-.104h1.61c.193 0 .352.157.352.353 0 .19-.16.35-.355.35h-1.26v1.54h1.076c.195 0 .354.152.354.35 0 .194-.16.352-.35.352h-1.08zm-49.74.305c0 .252-.03.494-.096.725-.066.233-.168.454-.302.667-.12.19-.26.37-.43.526-.167.158-.362.295-.584.394-.286.128-.583.163-.85.164h-.11c-.265 0-.56-.03-.85-.16-.22-.1-.416-.23-.584-.39-.164-.16-.308-.34-.424-.53-.136-.21-.238-.43-.304-.662C.03 32.888 0 32.643 0 32.39v-2.93c0-.196.16-.355.355-.355.195 0 .354.16.354.354v2.93c0 .19.02.37.06.53.046.16.116.32.22.48.09.14.2.272.315.39.12.11.247.2.39.26.155.07.36.1.56.1h.11c.2 0 .406-.03.563-.1.14-.06.27-.15.39-.266.12-.11.223-.24.314-.386.104-.165.174-.32.22-.483.048-.16.07-.333.07-.53v-2.93c0-.197.16-.356.355-.356.196 0 .355.16.355.354v2.93zm8.584 2.144l.314.16.27-.52h1.713v-3.28l-1.71 3.28h-.584v.353zm-3.046-.008v-.33l-.117-.004c-.06 0-.11-.004-.14-.007l-.02-.003h-.01c.004 0 .01 0 .03.005.015.006.03.01.07.03h.007c.02.014.05.03.086.07.02.023.043.05.06.09l.002.004c.017.04.03.09.03.144v.002zm23.337-.464l-.02.013.216.283-.062-.11-.117-.194-.013.006zm-1.204.183l-.062.113.215-.283-.016-.013-.01-.006h-.004l-.117.19zm-6.86-3.393c-.2.332-.31.72-.31 1.14 0 .61.244 1.16.644 1.56.4.4.95.644 1.56.644.465 0 .895-.14 1.25-.39l-3.14-2.953zM10.54 34.2h-.002.006l.013-.002h-.004l-.01.003zm24.213-1.813c0 .154.01.34.01.535 0 .165-.007.34-.04.516-.03.178-.086.36-.193.53-.158.25-.356.486-.605.676-.01.01-.02.013-.03.02-.015.01-.106.064-.25.12-.145.056-.343.115-.576.116h-.187c-.236 0-.435-.06-.58-.116-.145-.056-.237-.11-.25-.12-.01-.006-.02-.01-.03-.02-.25-.19-.45-.426-.605-.676-.107-.17-.163-.35-.194-.528-.03-.177-.04-.35-.04-.515 0-.197.01-.382.01-.537v-2.93c0-.196.16-.355.356-.355.196 0 .354.16.354.354v2.93c0 .182-.01.365-.01.537 0 .143.01.278.03.392.02.114.05.205.092.272.117.186.258.35.418.477l.018.008c.022.013.06.03.105.048.09.04.212.07.32.07h.186c.095 0 .204-.02.29-.05.07-.025.125-.053.15-.067.16-.127.3-.292.418-.48.04-.066.072-.16.092-.272.02-.115.028-.25.027-.394 0-.17-.01-.352-.01-.533v-2.93c0-.198.16-.357.354-.357.196 0 .354.16.354.355v2.93zm26.51 1.192zm-35.35-3.26l3.19 3c.277-.37.44-.82.443-1.32 0-.61-.25-1.16-.65-1.56-.4-.4-.95-.647-1.56-.647-.545 0-1.04.197-1.427.524zm-7.857 4.21V30.8l2.205 3.898c.08.14.244.21.4.167.154-.04.263-.182.263-.343v-5.06c0-.196-.16-.355-.354-.355-.195 0-.354.16-.354.353v3.718L18 29.285c-.08-.14-.242-.21-.397-.168-.155.04-.264.182-.264.342v5.07c0 .193.16.35.35.35.192 0 .35-.16.35-.354zM7.28 32.24l-.266-.48-.31.173v.355c.215 0 .405-.016.576-.047zm51.422 0l-.266-.48-.31.173v.355c.214 0 .405-.016.576-.047zm4.075-2.18l-.005-.003-.02-.018c-.02-.02-.052-.04-.09-.07-.078-.06-.187-.12-.297-.16-.072-.027-.144-.04-.206-.04-.1 0-.2.012-.29.04-.09.03-.16.07-.22.132-.04.04-.08.094-.11.17-.04.103-.076.25-.076.455 0 .14.024.24.057.317.035.08.08.14.14.195.118.113.307.2.51.28.137.054.276.102.415.18.086.05.234.12.4.206.163.087.35.2.52.354.11.106.22.23.303.38.114.203.183.45.182.724 0 .264-.05.506-.14.72-.094.214-.228.396-.388.542-.324.29-.745.432-1.167.432-.235 0-.45-.064-.64-.148-.19-.085-.353-.192-.49-.297-.276-.21-.447-.41-.458-.423-.127-.15-.11-.373.04-.5.15-.126.373-.11.5.04l.01.01.04.044c.033.04.086.09.15.15.13.114.31.25.496.332.122.055.243.086.35.085.2 0 .39-.05.546-.143.154-.093.277-.224.354-.403.053-.12.085-.263.085-.438 0-.12-.02-.216-.054-.298-.034-.083-.08-.153-.14-.22-.12-.134-.3-.246-.487-.343-.124-.066-.25-.123-.368-.19-.03-.018-.083-.04-.15-.07L61.86 32c-.17-.07-.368-.155-.557-.297-.127-.097-.25-.22-.344-.37-.13-.21-.207-.47-.206-.766 0-.31.056-.575.16-.795.106-.22.265-.387.438-.497.116-.072.237-.122.355-.154.157-.04.31-.054.444-.054.16 0 .308.032.437.08.13.042.245.1.34.154.19.114.307.22.32.23.144.13.155.357.023.5-.13.146-.353.157-.5.026zm0 0zm-55.52-.167zm51.422 0h-.01zM10.17 34.2c.094 0 .19.003.266.002h.105c.13-.02.26-.038.36-.066.11-.03.2-.07.25-.108.11-.084.19-.19.24-.318.06-.127.09-.276.09-.433 0-.12-.016-.247-.05-.368-.042-.16-.123-.26-.245-.36-.123-.1-.287-.17-.46-.23-.197-.06-.4-.09-.55-.103v-.02c.198-.01.39-.034.588-.094.196-.06.39-.16.564-.304-.074-.04-.15-.07-.223-.1-.26-.1-.517-.15-.724-.176-.073-.01-.14-.016-.2-.02v-.01c.144-.013.27-.03.38-.065.16-.05.286-.125.43-.28.072-.078.124-.138.157-.184.033-.047.05-.078.063-.125.01-.034.017-.074.02-.13l.004-.09c0-.096-.01-.193-.03-.276-.02-.085-.054-.15-.09-.196-.066-.086-.134-.144-.21-.19-.07-.045-.154-.078-.25-.103-.13-.037-.293-.05-.47-.055v-.357h-.36v.355h.14c.075 0 .146 0 .215.002v1.69c-.075.003-.15.006-.236.007h.02c.037 0 .11 0 .215.007v.692c-.075.004-.148.006-.22.007-.09 0-.176-.032-.24-.09v-.002h-.01l-.005-.005v-.003h-.01c-.06-.066-.1-.153-.1-.24v-.007c0-.09.036-.182.1-.248 0-.002.004-.004.005-.005.07-.06.15-.1.24-.1-.09 0-.172.04-.24.1v.008c-.063.065-.1.153-.1.25v.004c0 .093.04.177.1.24v.002l.004.004h.007l.007.003c.062.056.146.09.24.09h.01c.023 0 .103 0 .212.01v1.97zm1.15-2.39c.102.052.2.113.294.186.216.168.406.412.49.725.05.19.077.37.077.56 0 .25-.04.49-.14.72-.09.226-.25.435-.45.597-.16.126-.336.19-.5.234-.164.045-.32.066-.45.085l-.05.005h-.144c-.09 0-.202 0-.31-.005-.107-.002-.206-.005-.28-.01-.02 0-.04-.004-.064-.007-.013-.006-.027-.007-.054-.015-.014-.004-.032-.01-.065-.024-.017-.01-.04-.02-.07-.046-.027-.024-.07-.063-.103-.14-.014-.04-.025-.086-.025-.134v-5.08c0-.092.04-.183.105-.25s.158-.103.25-.103h.14c.205 0 .42.002.642.034.22.03.45.09.664.225.143.088.278.206.394.353.11.14.177.3.22.454.04.158.054.31.054.458 0 .05-.002.095-.005.14-.01.097-.02.19-.05.275-.024.086-.06.167-.1.238-.083.148-.18.25-.277.357-.058.063-.12.12-.183.173z" fill="#fff"/></svg>