<svg viewBox="0 0 128 12" xmlns="http://www.w3.org/2000/svg" fill-rule="evenodd" clip-rule="evenodd" stroke-linejoin="round" stroke-miterlimit="1.414"><path d="M86.9.754v10.262c0 .39.322.708.71.708.392 0 .708-.32.708-.71V.752c0-.388-.316-.706-.708-.706-.39 0-.71.32-.71.708zM54.677 11.696c-1.606 0-3.068-.656-4.12-1.708-1.054-1.055-1.708-2.515-1.708-4.12 0-1.61.65-3.072 1.7-4.122C51.6.692 53.06.038 54.67.038c1.607 0 3.07.654 4.12 1.706 1.05 1.04 1.7 2.5 1.707 4.1v.023c0 1.606-.65 3.066-1.706 4.12-1.045 1.05-2.5 1.7-4.1 1.707h-.02v.002zm-28.236-.05c-.24 0-.47-.14-.6-.34-.13-.22-.14-.48-.02-.7L31.1.444c.15-.294.48-.44.8-.36.31.08.54.36.54.68l.02 10.15c0 .19-.077.368-.21.5-.12.14-.3.21-.5.21h-5.3l-.008.022zM13.63 1.484h-1.1v9.426c0 .392-.32.71-.71.71-.392 0-.708-.32-.708-.708V.77c0-.392.316-.71.708-.71h1.84c.014 0 .156.006.36.026.204.02.466.056.736.132.18.054.368.12.568.252.06.044.16.11.272.194.114.086.24.192.372.32.26.26.535.624.705 1.104.114.32.18.68.18 1.093 0 .3-.006.6-.05.92-.044.31-.124.64-.29.948-.106.204-.252.404-.44.58-.247.23-.56.42-.92.54-.18.066-.375.12-.587.16l2.34 4.213c.19.34.067.77-.275.96-.34.19-.77.068-.96-.274l-2.87-5.15c-.12-.22-.12-.486.01-.7.12-.216.36-.348.6-.348.487 0 .86-.05 1.12-.124.27-.074.43-.17.535-.26.07-.06.12-.126.166-.204.06-.106.103-.238.14-.406.04-.224.05-.51.05-.83 0-.39-.09-.646-.2-.85-.115-.2-.26-.34-.42-.48-.1-.08-.2-.14-.3-.22h-.023c-.025-.01-.063-.02-.107-.04-.087-.02-.2-.044-.315-.06-.2-.03-.385-.04-.435-.04h.005V.8l-.02.65v.055h.006l.03-.02zm102.86 0h-1.1v9.426c0 .392-.32.71-.71.71-.392 0-.71-.32-.71-.708V.77c0-.392.32-.71.708-.71h1.84s.14.006.36.026c.2.02.46.056.72.132.18.054.364.12.564.252.06.044.16.11.274.194.112.086.24.192.372.32.26.26.532.624.7 1.104.12.32.18.68.18 1.093 0 .3-.005.6-.047.92-.04.31-.12.64-.29.948-.11.204-.25.404-.44.58-.25.23-.56.42-.92.54-.18.066-.38.12-.59.16l2.34 4.213c.19.34.07.77-.27.96-.34.19-.77.068-.96-.274l-2.87-5.16c-.12-.22-.12-.487.01-.7.128-.217.36-.35.61-.35.498 0 .87-.05 1.136-.125.27-.076.427-.17.533-.26.065-.06.12-.13.16-.206.06-.1.107-.234.14-.4.04-.226.055-.512.053-.83 0-.39-.084-.647-.2-.85-.11-.2-.26-.345-.412-.48-.1-.08-.2-.14-.3-.22h-.03c-.02-.015-.06-.027-.1-.04-.095-.02-.2-.05-.32-.06-.2-.035-.38-.04-.435-.047h.01v-.71l-.02.707h.01l.008-.005zm-41.22 0v9.422c0 .394-.32.71-.71.71-.39 0-.71-.316-.71-.708V1.486h-2.04c-.39 0-.706-.32-.706-.708 0-.392.314-.71.706-.71h5.42c.388 0 .706.32.706.712 0 .394-.32.712-.71.712h-1.98l.022-.008zm19.107 0v9.422c0 .394-.32.71-.708.71-.4 0-.71-.316-.71-.708V1.486h-2.02c-.38 0-.7-.32-.7-.708 0-.392.32-.71.71-.71h5.43c.39 0 .7.32.7.712 0 .394-.32.712-.708.712H94.4l-.025-.008zm8.29 0v9.422c0 .394-.32.71-.71.71-.39 0-.707-.316-.707-.708V1.486h-2.033c-.394 0-.71-.32-.71-.708 0-.392.316-.71.708-.71h5.42c.38 0 .7.32.7.712 0 .394-.32.712-.71.712h-1.98l.02-.008zM81.332 5.987v4.92c0 .39-.32.707-.72.707-.39 0-.71-.32-.71-.708V.764c0-.196.075-.38.207-.5s.3-.22.5-.22h3.22c.39 0 .71.32.71.71 0 .4-.32.714-.71.714h-2.52v3.1h2.34c.384 0 .7.32.7.71 0 .39-.316.71-.708.71h-2.34.022zm27.424.04v4.12h2.6c.39 0 .708.32.708.71 0 .387-.32.705-.708.705h-3.3c-.188 0-.37-.074-.5-.206-.134-.134-.21-.316-.21-.5V.826c0-.186.076-.37.208-.5.12-.134.3-.208.5-.208h3.22c.386 0 .704.314.704.706 0 .38-.32.7-.71.7h-2.52v3.08h2.15c.39 0 .71.305.71.7 0 .39-.32.705-.7.705h-2.16l.007.01zm-99.496.61c0 .504-.06.988-.19 1.45-.133.466-.337.908-.605 1.334-.24.39-.52.75-.86 1.06-.334.32-.724.59-1.168.79-.572.257-1.166.327-1.7.33h-.22c-.53 0-1.12-.06-1.7-.32-.44-.2-.833-.46-1.17-.78-.327-.32-.615-.68-.847-1.06-.272-.42-.476-.86-.608-1.325C.06 7.645 0 7.155 0 6.645V.786c0-.39.32-.71.71-.71.39 0 .708.32.708.71v5.86c0 .38.04.74.12 1.06.092.32.232.64.44.96.18.28.4.545.63.78.24.22.494.4.78.52.31.14.72.2 1.12.2h.22c.4 0 .813-.06 1.127-.2.28-.12.54-.3.78-.53.24-.22.446-.48.628-.773.208-.33.348-.64.44-.964.096-.32.14-.666.14-1.06V.776c0-.396.32-.714.71-.714.392 0 .71.32.71.708v5.86l-.002.007zm17.172 4.29l.628.32.54-1.04h3.427V3.644l-3.42 6.56h-1.17v.707l-.005.02zm-6.093-.017v-.66l-.24-.008c-.12 0-.22-.008-.28-.014l-.04-.006h-.02c.01 0 .02 0 .06.01.03.012.06.02.14.06h.01c.04.028.1.06.17.14.04.046.087.1.12.18l.005.008c.034.08.06.18.06.288v.004l.004-.002zm46.68-.928l-.04.026.43.566-.13-.22-.235-.388-.026.012-.008.004zm-2.41.366l-.13.226.43-.566-.03-.026-.02-.012h-.01l-.234.38-.01-.002zM50.89 3.56c-.4.665-.62 1.44-.62 2.28 0 1.22.488 2.32 1.288 3.12.8.802 1.9 1.29 3.12 1.29.93 0 1.79-.28 2.5-.78L50.9 3.562l-.008-.002zm-29.807 6.71h-.004.01l.02-.004h-.01l-.02.006-.008-.002zm48.434-3.63c0 .31.02.68.02 1.07 0 .33-.014.68-.08 1.033-.06.356-.172.72-.386 1.06-.31.5-.71.973-1.21 1.353-.02.02-.04.026-.06.04-.03.02-.21.128-.5.24-.29.112-.68.23-1.15.232h-.37c-.47 0-.87-.12-1.16-.232-.29-.112-.47-.22-.5-.24-.02-.012-.04-.02-.06-.04-.5-.38-.9-.852-1.21-1.352-.21-.34-.323-.7-.39-1.057-.06-.354-.08-.7-.08-1.03 0-.394.02-.764.02-1.074V.783c0-.393.32-.71.71-.71.39 0 .71.32.71.707v5.86c0 .365-.02.73-.02 1.075 0 .286.02.556.06.784.04.22.1.41.187.54.236.37.518.7.838.95l.037.015c.044.026.12.06.21.096.18.08.424.14.64.14h.37c.19 0 .41-.04.58-.1.14-.05.25-.106.3-.134.32-.254.6-.585.838-.96.08-.133.145-.32.185-.545.04-.23.057-.5.055-.786 0-.34-.02-.704-.02-1.066V.796c0-.397.32-.715.708-.715.392 0 .708.32.708.71v5.86l.033-.01zM51.834 2.505l6.38 6c.555-.74.88-1.64.887-2.64 0-1.22-.5-2.32-1.3-3.12-.8-.8-1.9-1.294-3.12-1.294-1.09 0-2.08.4-2.85 1.05l.01.01zm-15.716 8.422v-7.46l4.41 7.798c.16.28.488.42.8.334.308-.08.526-.37.526-.69V.79c0-.392-.32-.71-.708-.71-.39 0-.708.32-.708.706v7.437L36.006.436c-.16-.28-.484-.42-.795-.336-.31.08-.52.364-.52.684v10.142c0 .386.32.7.7.7.387 0 .7-.32.7-.708l.037.008zm-21.556-4.58l-.532-.96-.62.347v.71c.43 0 .81-.032 1.152-.094v-.003zm102.86 0l-.532-.96-.62.347v.71c.428 0 .81-.032 1.152-.094v-.003zm8.15-4.36l-.01-.006-.04-.03c-.04-.04-.103-.08-.18-.14-.155-.12-.373-.24-.593-.32-.15-.05-.29-.08-.42-.08-.2 0-.4.027-.58.08-.18.06-.32.14-.44.267-.08.08-.16.188-.22.34-.08.206-.15.5-.15.91 0 .28.05.48.11.635.07.16.16.28.28.39.236.226.614.4 1.02.56.274.108.55.204.83.36.17.1.468.24.8.41.327.175.7.4 1.04.71.22.21.44.46.607.76.23.405.367.9.365 1.447 0 .53-.1 1.012-.28 1.44-.188.428-.456.79-.776 1.084-.65.58-1.49.865-2.336.865-.47 0-.9-.13-1.28-.297-.38-.17-.706-.383-.98-.593-.552-.42-.894-.82-.916-.847-.256-.3-.22-.747.08-1s.744-.22 1 .08l.02.02.08.087c.064.08.17.18.3.3.26.23.62.502.99.666.244.11.486.17.7.17.4 0 .78-.1 1.092-.287.31-.188.554-.45.71-.81.104-.24.17-.526.17-.876 0-.24-.04-.434-.11-.598-.068-.165-.16-.305-.28-.44-.24-.267-.6-.49-.975-.685-.25-.134-.5-.25-.735-.38-.06-.04-.168-.08-.3-.14l-.44-.17c-.34-.14-.737-.31-1.115-.594-.254-.194-.5-.44-.688-.74-.26-.42-.414-.94-.41-1.533 0-.62.112-1.15.32-1.59.212-.44.53-.772.876-.992.233-.142.475-.242.71-.306.315-.08.62-.11.89-.11.32 0 .615.065.873.16.26.085.49.2.68.31.38.227.617.44.64.46.29.26.31.713.05 1-.26.29-.707.313-1 .05l.012.007zm-8.196-.334h-.02.02zM20.343 10.27c.188 0 .38.005.532.003h.21c.26-.04.52-.076.72-.132.22-.06.4-.14.5-.21.22-.17.38-.38.48-.634.12-.254.18-.552.18-.866 0-.24-.03-.494-.1-.736-.083-.32-.245-.52-.49-.72-.246-.2-.574-.34-.92-.46-.394-.12-.8-.18-1.1-.206v-.04c.396-.02.78-.07 1.176-.19.4-.12.78-.32 1.13-.606-.15-.08-.3-.14-.44-.2-.52-.2-1.032-.3-1.45-.35-.143-.02-.28-.03-.4-.04v-.02c.29-.026.54-.06.76-.13.32-.1.57-.25.86-.56.147-.156.25-.276.317-.368.066-.094.1-.156.126-.25.02-.07.033-.15.04-.26l.007-.18c0-.193-.02-.387-.06-.553-.04-.17-.11-.3-.18-.39-.133-.173-.27-.29-.42-.38-.14-.09-.31-.157-.5-.207-.26-.074-.587-.1-.94-.11V.75h-.72v.71h.28c.15 0 .29 0 .43.004v3.38c-.15.007-.3.013-.473.015h.04c.076 0 .22 0 .43.01v1.39c-.15.01-.294.012-.44.014-.18 0-.35-.064-.48-.18V6.09h-.02l-.01-.01v-.01h-.02c-.12-.133-.2-.307-.2-.48v-.015c0-.18.074-.364.2-.496 0-.01.01-.01.01-.01.14-.12.3-.2.48-.2-.18 0-.342.08-.48.2v.01c-.124.13-.2.302-.2.5v.01c0 .18.08.35.2.48l.01.01h.014l.014.004c.126.11.294.18.48.18h.02c.048 0 .208 0 .426.02v3.94l-.018.036zm2.3-4.78c.205.102.4.224.59.37.43.336.81.824.98 1.45.1.38.153.74.153 1.12 0 .5-.08.98-.28 1.44-.18.453-.5.87-.9 1.195-.32.252-.673.38-1 .468-.33.09-.64.132-.9.17l-.1.01h-.29c-.18 0-.403 0-.62-.01-.213-.004-.41-.01-.56-.02-.04 0-.08-.008-.127-.014-.03-.02-.06-.02-.11-.03-.03-.01-.07-.02-.13-.05-.04-.02-.08-.04-.14-.09-.06-.05-.14-.13-.21-.28-.03-.08-.05-.18-.05-.27V.79c0-.184.08-.366.21-.5s.312-.206.5-.206h.28c.41 0 .84.004 1.28.068.44.06.9.18 1.327.45.287.176.557.412.79.706.22.28.353.6.44.908.08.316.107.62.107.916 0 .1-.004.19-.01.28-.02.195-.04.38-.1.55-.048.173-.12.335-.2.477-.166.29-.36.5-.554.71-.115.13-.24.24-.365.35l-.02-.01z"/></svg>