<svg viewBox="0 0 128 40" xmlns="http://www.w3.org/2000/svg" fill-rule="evenodd" clip-rule="evenodd" stroke-linejoin="round" stroke-miterlimit="1.414"><path d="M93.04 1.596C90.98.826 87.77 0 83.75 0 73.51 0 66.3 5.156 66.24 12.547c-.06 5.464 5.14 8.51 9.08 10.33 4.03 1.863 5.38 3.052 5.37 4.716-.03 2.548-3.23 3.712-6.2 3.712-4.15 0-6.36-.576-9.76-1.995l-1.33-.605-1.46 8.512c2.42 1.06 6.9 1.98 11.55 2.028 10.89 0 17.96-5.097 18.04-12.99.04-4.325-2.72-7.616-8.7-10.33-3.62-1.76-5.84-2.932-5.82-4.713 0-1.58 1.88-3.27 5.94-3.27 3.39-.053 5.84.686 7.75 1.456l.93.44 1.41-8.242zm26.57-.9h-8.01c-2.48 0-4.33.678-5.42 3.154L90.79 38.693h10.88s1.78-4.685 2.18-5.713c1.19 0 11.76.016 13.27.016.31 1.33 1.26 5.697 1.26 5.697H128L119.61.697zM45.09 38.682L51.57.66h10.36l-6.48 38.02H45.09zM25.17 21.348l1.09 5.27L36.4.686h10.98l-16.32 37.95-10.96.01-9.22-33.02C7.7 3.86 4.07 2.44 0 1.456L.13.664h16.71c2.25.084 4.07.803 4.7 3.21l3.63 17.472zm81.66 3.856c.86-2.19 4.13-10.628 4.13-10.628-.06.1.85-2.202 1.38-3.63l.7 3.28s1.98 9.075 2.4 10.978h-8.61z"/></svg>