<svg viewBox="0 0 64 64" xmlns="http://www.w3.org/2000/svg" fill-rule="evenodd" clip-rule="evenodd" stroke-linejoin="round" stroke-miterlimit="1.414"><path d="M46.52 22.987c-1.028-.385-2.636-.798-4.645-.798-5.12 0-8.726 2.573-8.757 6.27-.03 2.73 2.575 4.254 4.54 5.163 2.017.932 2.695 1.526 2.686 2.358-.013 1.275-1.61 1.857-3.1 1.857-2.074 0-3.176-.288-4.878-.998l-.668-.303-.727 4.258c1.216.53 3.45.99 5.777 1.014 5.447 0 8.983-2.548 9.023-6.494.02-2.165-1.36-3.81-4.35-5.168-1.813-.88-2.92-1.466-2.91-2.356 0-.79.94-1.636 2.967-1.636 1.695-.026 2.922.344 3.88.73l.463.22.7-4.12zm13.286-.45h-4.004c-1.24 0-2.168.34-2.713 1.577l-7.7 17.42h5.44s.89-2.34 1.092-2.856c.594 0 5.88.01 6.636.01.155.664.63 2.847.63 2.847H64l-4.194-18.998zM22.546 41.53l3.24-19.01h5.182l-3.242 19.01h-5.18zm-9.96-8.668l.542 2.634L18.2 22.533h5.49l-8.158 18.974-5.482.006-4.607-16.51C3.85 24.117 2.033 23.408 0 22.916l.066-.396h8.356c1.125.043 2.035.402 2.348 1.606l1.817 8.736zm40.83 1.928c.43-1.095 2.065-5.314 2.065-5.314-.03.05.43-1.1.69-1.814l.35 1.64 1.2 5.488h-4.3z" fill="#fff"/></svg>