<svg viewBox="0 0 128 28" xmlns="http://www.w3.org/2000/svg" fill-rule="evenodd" clip-rule="evenodd" stroke-linejoin="round" stroke-miterlimit="1.414"><path d="M25.307 26.504c0 .663.538 1.19 1.2 1.19.66 0 1.2-.527 1.2-1.19 0-.66-.54-1.19-1.2-1.19-.662 0-1.2.53-1.2 1.19zm.157 0c0-.574.468-1.043 1.044-1.043.574 0 1.043.47 1.043 1.05s-.46 1.048-1.04 1.048-1.04-.47-1.04-1.045zm.686.117h.476c.15 0 .212.1.227.26.004.05.012.11.018.17.01.082.02.143.03.18h.21v-.03c-.02-.03-.04-.08-.05-.183l-.02-.166c-.01-.16-.07-.26-.17-.31.13-.045.23-.173.23-.36 0-.24-.155-.386-.45-.386h-.68v1.435h.19v-.6zm0-.67h.486c.19 0 .258.09.258.25s-.067.27-.258.27h-.486v-.514zm1.315-8.23c.13-.84.29-1.68.386-2.53.16-1.41.05-2.83-.26-4.22-.02-.11-.11-.22-.2-.3-2.16-1.71-4.64-2.4-7.37-2.18-1.82.145-3.54.71-5.15 1.577-.07.037-.14.084-.24.146.1.055.16.09.22.118 4.12 1.98 6.23 5.323 6.618 9.805.167 1.93-.135 3.814-.83 5.627l-.21.56c.07-.022.103-.03.13-.04 1.303-.71 2.475-1.59 3.495-2.67.06-.065.1-.158.125-.246.44-1.543.57-3.12.422-4.717-.18-1.99-.77-3.846-1.786-5.568-.024-.043-.04-.093-.08-.178 2.326.9 3.77 2.58 4.62 4.833.04-.006.08-.01.116-.01zm-17.263 9.75c.837.13 1.67.31 2.51.38 1.425.13 2.847.07 4.248-.25.104-.022.214-.1.283-.185 1.482-1.867 2.213-4.004 2.225-6.382.01-1.91-.446-3.72-1.255-5.446-.145-.31-.308-.613-.46-.92-.05.027-.07.03-.077.04-.038.07-.075.137-.108.21-.63 1.366-1.492 2.57-2.61 3.58-2.294 2.07-5.027 2.995-8.08 3.02-1.433.01-2.837-.222-4.195-.695-.352-.12-.7-.25-1.06-.38.004.038 0 .055.006.067.69 1.32 1.59 2.495 2.66 3.527.07.066.17.114.26.14 1.68.474 3.385.588 5.12.384 1.863-.224 3.6-.806 5.21-1.77.034-.02.076-.023.13-.04-.892 2.31-2.575 3.76-4.832 4.617l.014.11zM31.338 4.95c.24.606.484 1.212.73 1.817 2.32 5.74 4.642 11.48 6.955 17.22.076.185.17.24.36.24 1.04-.007 2.08-.01 3.12 0 .2.004.29-.064.362-.242 1.654-4.05 3.317-8.096 4.972-12.145.635-1.55 1.33-3.065 2.38-4.386.96-1.206 2.11-2.146 3.644-2.51.51-.12 1.03-.168 1.54-.244.14-.02.25-.05.23-.23l-.16-.044c-.04-.01-.09-.02-.14-.027-1.16-.21-2.32-.26-3.5-.15-1.4.13-2.74.49-3.98 1.16-2.102 1.13-3.535 2.86-4.44 5.04-.75 1.81-1.43 3.642-2.144 5.47l-.304.76c-.046-.104-.075-.16-.1-.216-1.474-3.85-2.95-7.697-4.42-11.548-.07-.177-.15-.236-.343-.236-1.52.01-3.04.006-4.564.006h-.28c.036.11.06.18.086.252zm23.725 7.35c-1.238.183-2.474.37-3.713.544-.17.024-.215.09-.215.256.006 3.625.006 7.25 0 10.874 0 .196.057.253.254.253 1.25-.008 2.5-.005 3.76-.005.07 0 .15-.008.23-.013V12.25l-.326.048zm54.303-.04c-1.322.195-2.645.392-3.968.58-.174.025-.207.103-.207.264.01 3.623.01 7.247 0 10.87 0 .194.06.253.26.25 1.26-.005 2.524-.002 3.785-.002.066 0 .136-.007.217-.01V12.27c-.033-.006-.055-.015-.077-.01zM125.6 23.03c0-.663.54-1.19 1.2-1.19.663 0 1.2.527 1.2 1.19 0 .66-.537 1.186-1.2 1.186-.66 0-1.2-.527-1.2-1.188zm.16 0c0 .57.465 1.04 1.04 1.04.577 0 1.043-.47 1.043-1.04 0-.58-.466-1.046-1.042-1.046-.57 0-1.04.467-1.04 1.044zm.684.112v.603h-.19v-1.437h.68c.295 0 .45.144.45.386 0 .19-.095.318-.223.36.11.054.16.155.18.313l.02.166c.013.1.03.154.053.185v.028h-.21c-.007-.04-.022-.1-.03-.18-.003-.058-.01-.12-.016-.165-.016-.16-.075-.25-.23-.25h-.473zm0-.67v.512h.488c.19 0 .258-.1.258-.26 0-.163-.07-.252-.258-.252h-.488zM75.87 20.64c-.004.1-.033.23-.1.293-.963.96-2.29 1.01-3.288.117-.518-.464-.8-1.07-.925-1.743-.242-1.277-.084-2.48.716-3.545.832-1.11 2.263-1.406 3.46-.726.074.04.133.186.133.285.01.89.008 1.78.008 2.67 0 .89 0 1.77-.005 2.65zM5.18 15.02c-.252-.497-.497-.936-.707-1.392-.91-1.983-1.293-4.07-1.195-6.245.043-.953.193-1.892.463-2.81.03-.095.08-.196.14-.265 1.02-1.068 2.19-1.95 3.49-2.65.034-.02.07-.03.13-.054-.155.442-.316.85-.446 1.266-.514 1.64-.714 3.316-.58 5.033.195 2.47 1.015 4.693 2.586 6.62 1.067 1.31 2.38 2.31 3.91 3.02.098.046.194.093.335.158-.105.08-.166.12-.23.16-2.06 1.1-4.244 1.71-6.593 1.61-2.23-.09-4.227-.84-5.973-2.233-.104-.082-.175-.24-.2-.376-.447-2.18-.4-4.346.17-6.497.01-.04.02-.077.034-.114.007-.015.02-.026.05-.07.855 2.26 2.3 3.943 4.626 4.845zm112.67 6.272c.638.91 1.278 1.817 1.906 2.73.103.148.207.204.383.202 1.48-.005 2.96-.003 4.44-.003.07 0 .15 0 .26-.01-.07-.1-.11-.17-.16-.24-1.41-1.98-2.82-3.97-4.23-5.95-.126-.172-.137-.283.003-.463 1.316-1.7 2.62-3.407 3.93-5.115.072-.096.144-.194.23-.304-.06-.013-.084-.023-.104-.023-1.29 0-2.585-.002-3.878.006-.083.004-.186.076-.24.144-.61.773-1.215 1.552-1.816 2.33-.087.107-.174.213-.275.334-.05-.064-.087-.104-.116-.15-.59-.83-1.18-1.653-1.76-2.486-.095-.132-.19-.18-.348-.18-1.49.005-2.98.004-4.468.004-.067 0-.135.01-.23.02l.17.26c1.33 1.876 2.657 3.75 3.994 5.62.128.178.14.29 0 .468-1.127 1.44-2.243 2.887-3.36 4.33-.358.46-.71.918-1.086 1.4.083.01.137.02.19.02 1.264 0 2.537.007 3.804-.002.1 0 .225-.07.29-.148.47-.588.92-1.18 1.38-1.775l.93-1.2c.063.09.11.143.15.2zm-23.036 2.915H90.6v-.27c0-2.16 0-4.32-.003-6.48 0-.283-.01-.568-.067-.845-.184-.962-.91-1.43-1.883-1.232-.945.192-1.44.832-1.644 1.715-.09.39-.126.795-.126 1.194-.016 1.87-.008 3.73-.008 5.6v.3h-4.21V12.35c1.29-.19 2.57-.384 3.88-.58v2.27c.038.027.145-.06.19-.11.66-.75 1.38-1.44 2.33-1.806 1.394-.538 2.787-.563 4.105.242.566.342.944.87 1.257 1.45.04.07.085.14.125.21.314-.327.6-.655.916-.946 1.31-1.204 2.865-1.557 4.582-1.194 1.393.294 2.185 1.22 2.486 2.573.12.553.19 1.13.19 1.7.023 2.586.01 5.17.01 7.756v.273h-4.2v-.273c-.002-2.26-.002-4.525-.01-6.786 0-.195-.03-.392-.074-.583-.23-.938-.916-1.366-1.86-1.18-.87.172-1.38.733-1.608 1.55-.11.404-.17.836-.17 1.255-.02 1.91-.01 3.816-.01 5.724v.3zm-18.52.374c.056.18.128.21.307.17.88-.22 1.76-.43 2.64-.65.46-.11.91-.23 1.377-.34-.02-.07-.032-.115-.05-.16-.384-.834-.462-1.73-.462-2.63-.01-2.962-.006-5.926-.01-8.89v-.284c-.062 0-.103-.006-.14 0-1 .15-1.99.293-2.99.453-.31.05-.59.033-.885-.097-1.065-.456-2.173-.625-3.326-.464-1.72.24-3.1 1.043-4.127 2.443-.74 1.005-1.135 2.15-1.253 3.39-.167 1.78.13 3.45 1.145 4.956 1.483 2.206 4.41 2.97 6.75 1.75.25-.13.482-.29.745-.447.1.276.21.537.29.805zM59.49 8.38c-.006.09-.01.16-.01.23-.003 1.08-.007 2.16.002 3.238 0 .198-.062.26-.257.253-.433-.01-.866.01-1.298-.01-.194 0-.238.07-.238.25v2.72c0 .068.01.136.013.23h1.406c.36 0 .357 0 .36.354.017 2.047.022 4.096.06 6.143.01.58.127 1.16.44 1.67.306.498.72.79 1.353.78 1.4-.026 2.803-.007 4.205-.01.09 0 .176-.01.265-.016.007-.022.01-.043.02-.066-.07-.036-.137-.07-.2-.11-.274-.167-.58-.3-.814-.512-.76-.682-1.023-1.59-1.035-2.572-.017-1.795 0-3.59 0-5.39 0-.08.006-.163.012-.265h.28c.773-.003 1.545-.007 2.317 0 .177.003.25-.04.248-.232-.01-.906-.01-1.812 0-2.72 0-.205-.08-.246-.267-.243-.76.006-1.527 0-2.29 0h-.3V7.72c-1.45.224-2.866.44-4.286.655zm-4.214-.617c-1.324.196-2.645.396-3.968.586-.17.02-.168.12-.168.25.003.82 0 1.65 0 2.48 0 .07.012.13.02.21l4.23-.622V7.76c-.053 0-.085-.01-.114-.003zm53.86.013c-1.242.185-2.483.374-3.728.555-.17.03-.238.09-.238.27.01.84.004 1.67.004 2.508 0 .052.012.104.02.167.058-.002.103 0 .147-.007 1.3-.194 2.58-.39 3.88-.57.177-.027.24-.08.24-.263-.01-.828-.003-1.654-.007-2.48 0-.06-.01-.12-.013-.2-.11.01-.204.01-.296.022zM17.676.503c-2.22-.6-4.454-.67-6.7-.17-.11.024-.233.1-.303.187-1.323 1.662-2.06 3.558-2.196 5.673-.155 2.446.44 4.727 1.59 6.874.035.065.078.123.143.224.062-.12.103-.19.136-.27.356-.78.792-1.52 1.327-2.19 2.052-2.584 4.76-3.983 8.013-4.335 2.19-.236 4.315.077 6.357.92.08.033.17.057.273.09-.017-.05-.022-.072-.033-.09-.693-1.296-1.565-2.456-2.618-3.476-.086-.083-.207-.146-.323-.18-1.47-.407-2.96-.56-4.485-.44-2.023.156-3.92.717-5.677 1.74-.078.045-.157.083-.292.156.91-2.35 2.596-3.79 4.866-4.65C17.7.52 17.69.51 17.676.506z"/></svg>