<svg viewBox="0 0 64 64" xmlns="http://www.w3.org/2000/svg" fill-rule="evenodd" clip-rule="evenodd" stroke-linejoin="round" stroke-miterlimit="1.414"><path d="M41.104 26.344h-1.848c-2.632 0-3.832 1.744-3.832 3.368v4.572c0 1.624 1.196 3.372 3.82 3.372h1.876c2.624 0 3.82-1.748 3.82-3.372v-4.572c0-1.62-1.2-3.368-3.836-3.368zm12.368 1.3c-.696-.9-1.608-1.272-3.116-1.272-2.264 0-3.728 1.28-3.728 3.264v7.968h1.428V29.82c0-1.38.772-2.048 2.364-2.048 1.508 0 2.34.68 2.34 1.916v7.916h1.428v-7.916c0-1.236.828-1.916 2.336-1.916 1.592 0 2.368.668 2.368 2.048v7.784h1.424v-7.968c0-1.984-1.46-3.264-3.724-3.264-1.512 0-2.424.372-3.12 1.272zM43.508 34.1c0 1.368-.892 2.152-2.456 2.152h-1.744c-1.584 0-2.456-.764-2.456-2.152v-4.2c0-1.372.896-2.156 2.456-2.156h1.744c1.564 0 2.456.784 2.456 2.156v4.2zm-13.62-7.756c-2.624 0-3.82 1.744-3.82 3.368v4.572c0 1.624 1.196 3.372 3.82 3.372h1.624c1.336 0 2.208-.196 2.912-.652l.092-.06-.82-1.188-.084.052c-.524.316-1.188.444-2.284.444h-1.372c-1.584 0-2.46-.764-2.46-2.152v-4.2c0-1.392.876-2.156 2.46-2.156h1.372c1.096 0 1.756.132 2.284.448l.084.052.82-1.188-.092-.06c-.704-.456-1.572-.652-2.912-.652h-1.624zm-17.624.08v7.784c0 1.376-.776 2.044-2.368 2.044-1.508 0-2.336-.68-2.336-1.912v-7.916H6.132v7.916c0 1.232-.832 1.912-2.34 1.912-1.592 0-2.364-.668-2.364-2.044v-7.784H0v7.968c0 1.98 1.464 3.264 3.728 3.264 1.508 0 2.42-.376 3.116-1.272.696.896 1.608 1.272 3.12 1.272 2.26 0 3.724-1.284 3.724-3.264v-7.968h-1.424zm51.416 1.868c-.212.212-.468.32-.772.32s-.56-.108-.772-.32c-.208-.212-.316-.472-.316-.776 0-.3.108-.556.32-.772.212-.212.468-.316.768-.316.304 0 .56.104.772.316.216.212.32.472.32.772 0 .304-.104.56-.32.776zm-1.432-1.44c-.184.184-.276.404-.276.664 0 .264.092.488.272.672.184.184.404.276.664.276s.484-.092.664-.276c.184-.184.276-.408.276-.672 0-.26-.092-.48-.276-.664-.184-.184-.404-.276-.664-.276-.256 0-.48.092-.66.276zm.64.06c.148 0 .256.016.328.044.124.052.184.152.184.304 0 .108-.04.188-.116.236-.04.028-.1.048-.176.06.096.012.164.052.208.116.044.064.064.128.064.188v.088c0 .028.004.056.004.088.004.032.004.052.012.064l.004.012h-.196c-.004-.004-.004-.008-.004-.012s0-.008-.004-.012l-.004-.04v-.092c0-.14-.036-.232-.112-.276-.044-.024-.124-.04-.236-.04h-.164v.476h-.212v-1.204h.42zm-43.572-.568c-1.264 0-1.86.136-2.52.392l-.116.044.716 1.272.084-.036c.488-.2 1.016-.272 2.024-.272h1.068c1.564 0 2.456.784 2.456 2.156v4.2c0 1.368-.892 2.152-2.456 2.152h-1.744c-1.6 0-2.376-.648-2.376-1.98 0-1.324.776-1.968 2.376-1.968h2.432v-1.4h-2.5c-2.376 0-3.736 1.232-3.736 3.38 0 2.08 1.432 3.372 3.736 3.372h1.88c2.624 0 3.816-1.748 3.816-3.372v-4.572c0-1.624-1.192-3.368-3.816-3.368h-1.324zm43.8.76c-.056-.032-.14-.048-.256-.048h-.18v.436h.192c.088 0 .156-.008.2-.028.084-.032.124-.096.124-.188 0-.084-.028-.144-.08-.172z" fill="#fff"/></svg>