<svg viewBox="0 0 128 23" xmlns="http://www.w3.org/2000/svg" fill-rule="evenodd" clip-rule="evenodd" stroke-linejoin="round" stroke-miterlimit="1.414"><path d="M82.208 0h-3.696c-5.264 0-7.664 3.488-7.664 6.736v9.144c0 3.248 2.392 6.744 7.64 6.744h3.752c5.248 0 7.64-3.496 7.64-6.744V6.736c0-3.24-2.4-6.736-7.672-6.736zm24.736 2.6C105.552.8 103.728.056 100.712.056c-4.528 0-7.456 2.56-7.456 6.528V22.52h2.856V6.952c0-2.76 1.544-4.096 4.728-4.096 3.016 0 4.68 1.36 4.68 3.832V22.52h2.856V6.688c0-2.472 1.656-3.832 4.672-3.832 3.184 0 4.736 1.336 4.736 4.096V22.52h2.848V6.584c0-3.968-2.92-6.528-7.448-6.528-3.024 0-4.848.744-6.24 2.544zM87.016 15.512c0 2.736-1.784 4.304-4.912 4.304h-3.488c-3.168 0-4.912-1.528-4.912-4.304v-8.4c0-2.744 1.792-4.312 4.912-4.312h3.488c3.128 0 4.912 1.568 4.912 4.312v8.4zM59.776 0c-5.248 0-7.64 3.488-7.64 6.736v9.144c0 3.248 2.392 6.744 7.64 6.744h3.248c2.672 0 4.416-.392 5.824-1.304l.184-.12-1.64-2.376-.168.104c-1.048.632-2.376.888-4.568.888h-2.744c-3.168 0-4.92-1.528-4.92-4.304v-8.4c0-2.784 1.752-4.312 4.92-4.312h2.744c2.192 0 3.512.264 4.568.896l.168.104 1.64-2.376-.184-.12C67.44.392 65.704 0 63.024 0h-3.248zM24.528.16v15.568c0 2.752-1.552 4.088-4.736 4.088-3.016 0-4.672-1.36-4.672-3.824V.16h-2.856v15.832c0 2.464-1.664 3.824-4.68 3.824-3.184 0-4.728-1.336-4.728-4.088V.16H0v15.936c0 3.96 2.928 6.528 7.456 6.528 3.016 0 4.84-.752 6.232-2.544 1.392 1.792 3.216 2.544 6.24 2.544 4.52 0 7.448-2.568 7.448-6.528V.16h-2.848zM127.36 3.896c-.424.424-.936.64-1.544.64s-1.12-.216-1.544-.64c-.416-.424-.632-.944-.632-1.552 0-.6.216-1.112.64-1.544.424-.424.936-.632 1.536-.632.608 0 1.12.208 1.544.632.432.424.64.944.64 1.544 0 .608-.208 1.12-.64 1.552zm-2.864-2.88c-.368.368-.552.808-.552 1.328 0 .528.184.976.544 1.344.368.368.808.552 1.328.552s.968-.184 1.328-.552c.368-.368.552-.816.552-1.344 0-.52-.184-.96-.552-1.328-.368-.368-.808-.552-1.328-.552-.512 0-.96.184-1.32.552zm1.28.12c.296 0 .512.032.656.088.248.104.368.304.368.608 0 .216-.08.376-.232.472-.08.056-.2.096-.352.12.192.024.328.104.416.232.088.128.128.256.128.376v.176c0 .056.008.112.008.176.008.064.008.104.024.128l.008.024h-.392c-.008-.008-.008-.016-.008-.024s0-.016-.008-.024l-.008-.08v-.184c0-.28-.072-.464-.224-.552-.088-.048-.248-.08-.472-.08h-.328v.952h-.424V1.136h.84zM38.632 0c-2.528 0-3.72.272-5.04.784l-.232.088 1.432 2.544.168-.072c.976-.4 2.032-.544 4.048-.544h2.136c3.128 0 4.912 1.568 4.912 4.312v8.4c0 2.736-1.784 4.304-4.912 4.304h-3.488c-3.2 0-4.752-1.296-4.752-3.96 0-2.648 1.552-3.936 4.752-3.936h4.864v-2.8h-5c-4.752 0-7.472 2.464-7.472 6.76 0 4.16 2.864 6.744 7.472 6.744h3.76c5.248 0 7.632-3.496 7.632-6.744V6.736C48.912 3.488 46.528 0 41.28 0h-2.648zm87.6 1.52c-.112-.064-.28-.096-.512-.096h-.36v.872h.384c.176 0 .312-.016.4-.056.168-.064.248-.192.248-.376 0-.168-.056-.288-.16-.344z"/></svg>