<svg viewBox="0 0 129 96" xmlns="http://www.w3.org/2000/svg" fill-rule="evenodd" clip-rule="evenodd" stroke-linejoin="round" stroke-miterlimit="1.414"><path d="M63.127 95.13l65.108-22.594V.413h-128v72.123L63.127 95.13zm57.796-87.78L7.493 7.3v59.21l55.62 19.957 57.81-20.248.072-58.75-.072-.12zm-10.538 50.49c-1.19 0-2.158-.967-2.158-2.157s.968-2.158 2.158-2.158 2.158.968 2.158 2.158-.97 2.157-2.158 2.157zm0-3.755c-.904 0-1.528.66-1.528 1.598 0 .94.624 1.598 1.528 1.598.903 0 1.528-.66 1.528-1.59 0-.94-.625-1.6-1.528-1.6zm.378 2.63l-.46-.84h-.234v.84h-.46V54.64h.83c.5 0 .782.14.782.62 0 .437-.245.57-.485.588l.52.87h-.503zm-50.86-1.346c-.945.63-1.96 1.14-3.18 1.09l-12.428-.05-.01-22.598-3.618 22.623-6.967.005s-1.694-10.48-1.74-10.53l-1.786 10.53h-6.76l-5.39-33.2h7.82s1.394 9.82 1.486 9.868c0 0 1.198-7.965 1.612-9.856l6.173-.013 1.567 10.084 1.763-10.093 18.486-.012c2.08.196 4.1 1.717 4.84 3.826.33.85.42 1.87.42 2.79v19.04c.186 2.4-.37 5.086-2.28 6.49zm44.76.56c-1.98.82-4.34.41-6.553.53-3.086-.268-6.196-2.668-7.14-5.82l-1.96.013v5.773l-7.773-.01-.012-5.76-10.365-.015v-6.76l9.536-20.633h8.575V43.44l1.91.005.04-14.137c.3-2.4 1.694-4.505 3.95-5.524 3.56-1.242 6.46-.878 8.56-.606 2.326.12 4.584 1.644 5.32 3.948.23.872.37 1.793.37 2.763l.004 19.66c-.093 2.764-2.055 5.31-4.45 6.376zm5.803-.91h-.397v.463h.39c.172 0 .27-.035.27-.233 0-.2-.1-.233-.274-.233zm-9.498-25.96l.014 21.384c-.055.264-.35.44-.516.645-.5.147-1.06 0-1.254-.47l-.112-.703-.014-20.976c.11-.293.405-.56.71-.646.363-.03.697.03.95.267l.222.498zm-47.206 1.35c-.21-.387-.885-.77-1.37-.72v20.18l.138-.007c.323-.05 1.275-.5 1.345-.86l-.004-18.22-.1-.376zm15.785 13.42h-6.075v-7.37h6.075v7.366zm8.66-.167v.12h2.973v-5.82l-.093-.047-2.88 5.74z"/></svg>