<svg viewBox="0 0 128 48" xmlns="http://www.w3.org/2000/svg" fill-rule="evenodd" clip-rule="evenodd" stroke-linejoin="round" stroke-miterlimit="1.414"><path d="M89.777 43.304c.69 0 1.18.025 1.462.077.28.06.49.16.62.3a.92.92 0 0 1 .18.34c.04.13.072.31.095.54.03.297.045.668.045 1.117 0 .574-.023 1.01-.07 1.304-.046.295-.127.51-.24.648-.12.147-.314.247-.585.3-.27.054-.718.08-1.336.08-.306 0-.644-.005-1.014-.016a15.34 15.34 0 0 1-.73-.034 1.653 1.653 0 0 1-.477-.114.86.86 0 0 1-.31-.244c-.12-.146-.2-.35-.24-.615-.04-.265-.06-.71-.06-1.34 0-.743.043-1.27.132-1.583.106-.37.35-.587.73-.653.35-.063.946-.095 1.787-.097zm17.163 3.22h.524c0 .052 0 .086.003.102.004.262.02.437.05.526.028.09.09.158.187.205.15.076.64.113 1.473.113.602 0 1.035-.034 1.297-.102.26-.066.388-.298.388-.694 0-.2-.02-.352-.062-.453a.374.374 0 0 0-.213-.21 1.3 1.3 0 0 0-.424-.07 57.41 57.41 0 0 0-1.77-.01c-.334 0-.603-.032-.804-.103a.927.927 0 0 1-.47-.344c-.13-.187-.19-.47-.19-.85 0-.423.1-.73.3-.917.1-.093.21-.164.33-.212.12-.047.29-.086.503-.115a9.36 9.36 0 0 1 1.275-.076c.457 0 .81.024 1.06.08.25.052.442.143.58.273a.833.833 0 0 1 .235.373c.04.143.064.364.07.662h-.54v-.074c0-.227-.023-.38-.066-.458-.063-.12-.2-.208-.413-.26-.21-.053-.526-.08-.946-.08-.522 0-.914.023-1.176.068-.262.045-.44.12-.532.225-.086.1-.13.27-.13.5 0 .21.023.36.066.45.04.09.123.157.25.2.183.07.536.107 1.06.11.177.004.617.006 1.32.01.29 0 .51.033.666.094a.813.813 0 0 1 .38.32c.123.192.184.465.184.82 0 .34-.05.61-.15.804-.12.23-.344.38-.67.46-.326.078-.913.117-1.76.117a7.59 7.59 0 0 1-.99-.048 1.242 1.242 0 0 1-.506-.17.765.765 0 0 1-.31-.375c-.06-.15-.087-.376-.087-.68 0-.01 0-.08.003-.21zm-5.322 1.46v-4.667h2.79c.62 0 1.054.03 1.305.09.302.07.532.256.69.556.08.153.138.358.172.614.033.256.05.613.05 1.07 0 .573-.044 1.027-.133 1.362-.14.51-.433.81-.883.9-.24.04-.62.07-1.16.07h-2.84zm-9.002 0v-4.667h2.52c.685.01 1.12.03 1.31.058.335.05.566.224.694.52.085.198.128.475.128.83 0 .27-.013.474-.04.614a.782.782 0 0 1-.135.33c-.105.13-.27.23-.492.28a.708.708 0 0 1 .42.232c.08.095.13.21.15.34.02.133.03.395.03.787v.663h-.54v-.447c0-.38-.002-.644-.02-.79-.04-.296-.18-.47-.43-.52a2.22 2.22 0 0 0-.265-.028 43.847 43.847 0 0 0-.8-.01h-1.98v1.794h-.54zm-24.416 0v-4.667h3.964v.547H68.74v1.426h3.28v.546h-3.28v1.6h3.427v.547H68.2zm-12.712-4.12v1.426h3.28v.546h-3.28v1.6h3.428v.547H54.95v-4.666h13.045v.547h-2.023v4.12h-.54v-4.12h-3.958v4.12h-.54v-4.12h-5.446zm-5.624 4.12v-4.667h2.685c.48.01.79.02.91.03.38.038.65.21.792.517.075.157.113.374.113.65 0 .303-.037.528-.11.676a.718.718 0 0 1-.39.34c.24.044.41.152.51.322.1.17.15.438.15.805 0 .465-.075.786-.223.964a.77.77 0 0 1-.325.23 2.32 2.32 0 0 1-.59.11c-.222.02-.505.03-.846.03h-2.68zm-18.783 0v-4.667h2.79c.62 0 1.06.03 1.31.09.3.07.53.256.69.556.08.153.14.358.17.614.04.256.05.613.05 1.07 0 .573-.04 1.027-.13 1.362-.14.51-.43.81-.88.9-.233.04-.62.07-1.158.07h-2.84zm-4.98-4.667h.54v4.666h-.54v-4.666zm-10.29 4.666v-4.666h2.686c.49.01.796.02.92.03.38.038.647.21.793.517.074.157.11.374.11.65 0 .303-.035.528-.108.676a.72.72 0 0 1-.39.34c.24.044.41.152.51.322.1.17.15.438.15.805 0 .465-.075.786-.223.964a.77.77 0 0 1-.33.23 2.466 2.466 0 0 1-.588.11 9.9 9.9 0 0 1-.85.03H15.8zm11.34-4.666h.54v4.12h3.192v.546h-3.74v-4.666zm9.375 0h.54v4.666h-.54v-4.666zm35.94 4.666v-4.666h2.52c.684.01 1.12.03 1.31.058.334.05.565.224.693.52.083.198.126.475.126.83 0 .27-.014.474-.04.614a.782.782 0 0 1-.136.33c-.103.13-.27.23-.49.28a.708.708 0 0 1 .415.232.74.74 0 0 1 .147.34c.02.133.032.395.032.787v.663h-.54v-.447c0-.38-.01-.644-.02-.79-.04-.296-.187-.47-.438-.52a2.22 2.22 0 0 0-.265-.028 43.816 43.816 0 0 0-.8-.01h-1.987v1.794h-.54zm25.22-4.666h.54v4.12h3.194v.546h-3.74v-4.666zm-19.122 0h.584l1.638 4.143h.17l1.588-4.143h.67l1.53 4.143h.16l1.68-4.143h.59l-1.91 4.666h-.91l-1.47-3.99-1.536 3.99h-.926l-1.854-4.666zm10.913.547c-.566 0-.98.026-1.245.08a.616.616 0 0 0-.333.15c-.07.073-.114.19-.14.35-.047.26-.07.642-.07 1.143 0 .515.01.89.037 1.126.025.236.07.394.135.473a.433.433 0 0 0 .222.144c.1.03.25.052.46.068.348.028.75.04 1.208.04.65 0 1.123-.03 1.42-.09.23-.046.37-.205.413-.476.046-.292.07-.688.07-1.19 0-.612-.02-1.044-.06-1.295-.037-.255-.19-.407-.457-.454a3.923 3.923 0 0 0-.528-.053 36.04 36.04 0 0 0-1.13-.016zm12.69 3.572h2.27c.39 0 .63-.003.724-.01.095-.004.2-.023.31-.055.22-.05.377-.22.472-.49.094-.27.14-.69.14-1.25 0-.733-.084-1.216-.25-1.45a.56.56 0 0 0-.24-.2 1.388 1.388 0 0 0-.414-.093c-.102-.01-.36-.013-.773-.013h-2.242v3.57zm-51.753 0h2.144c.42 0 .72-.013.892-.04.173-.026.3-.076.38-.15.106-.102.158-.3.158-.6 0-.32-.056-.526-.172-.622a.54.54 0 0 0-.28-.123 14.69 14.69 0 0 0-.98-.03h-2.14v1.57zm-18.785 0h2.27c.39 0 .63-.003.725-.01.093-.004.197-.023.31-.055.218-.05.375-.22.47-.49.095-.27.142-.69.142-1.25 0-.733-.082-1.216-.246-1.45a.563.563 0 0 0-.24-.2 1.388 1.388 0 0 0-.414-.093 12.45 12.45 0 0 0-.77-.013h-2.25v3.57zm-15.28 0h2.147c.423 0 .72-.013.895-.04.175-.026.302-.076.383-.15.104-.102.156-.3.156-.6 0-.32-.06-.526-.175-.622a.54.54 0 0 0-.28-.123 14.735 14.735 0 0 0-.98-.03h-2.15v1.57zm4.51-4.12h.54v2.295c0 .68.004 1.09.016 1.23.015.18.06.31.13.39.07.08.195.133.365.158.28.04.683.06 1.21.06.724 0 1.22-.026 1.494-.076.16-.03.274-.086.34-.172.064-.084.102-.224.112-.42.01-.173.018-.56.02-1.156v-2.3h.54v2.297a26.73 26.73 0 0 1-.03 1.29c-.034.405-.163.688-.387.847a1.112 1.112 0 0 1-.504.18c-.197.026-.684.05-1.46.07a47.03 47.03 0 0 1-1.223-.03 2.41 2.41 0 0 1-.446-.07c-.266-.066-.462-.24-.586-.52-.06-.136-.096-.3-.11-.49a24.11 24.11 0 0 1-.032-1.276V43.33zm24.537 2.302h2.652c-.005.722-.026 1.19-.063 1.408-.043.24-.11.42-.2.54a.885.885 0 0 1-.41.287c-.243.093-.803.14-1.674.14-.82 0-1.4-.03-1.74-.092a.856.856 0 0 1-.643-.44c-.15-.27-.222-.87-.222-1.8 0-.646.04-1.15.124-1.513.073-.344.26-.57.545-.677.29-.107.86-.16 1.707-.16.28 0 .59.01.938.025s.585.036.71.056c.26.04.47.157.633.346.097.116.165.25.204.403.04.152.06.37.066.646h-.554c-.005-.364-.05-.59-.13-.686a.468.468 0 0 0-.224-.13 2.764 2.764 0 0 0-.462-.07 14.1 14.1 0 0 0-1.082-.034c-.567 0-.974.018-1.223.052-.25.034-.415.096-.496.185-.075.08-.127.23-.156.44a8.738 8.738 0 0 0-.04 1.024c0 .7.022 1.16.07 1.377.035.13.08.228.15.29a.59.59 0 0 0 .3.13c.268.05.847.074 1.74.074.493 0 .857-.023 1.09-.07.215-.04.35-.13.41-.267.058-.14.09-.45.096-.93H45.4v-.55zm-7.825-2.3h.9l3.54 4.09h.124v-4.09h.54v4.664h-.914l-3.533-4.08h-.12v4.08h-.54v-4.666zm55.595 2.324h1.985c.526 0 .862-.01 1.01-.026a.745.745 0 0 0 .362-.128c.137-.105.206-.363.206-.773 0-.353-.063-.582-.19-.687-.084-.068-.214-.113-.39-.133-.177-.02-.51-.03-.998-.03h-1.99v1.777zm-20.16 0h1.985c.525 0 .862-.01 1.01-.026a.745.745 0 0 0 .36-.128c.14-.105.21-.363.21-.773 0-.353-.066-.582-.194-.687-.083-.068-.213-.113-.39-.133-.176-.02-.51-.03-.996-.03H73v1.777zm-22.59-.322h2.147c.358 0 .604-.007.736-.022a.705.705 0 0 0 .31-.094c.15-.1.23-.304.23-.612 0-.294-.055-.487-.16-.58a.46.46 0 0 0-.25-.11c-.1-.014-.39-.026-.866-.038h-2.15v1.456zm-34.06 0H18.5a7.9 7.9 0 0 0 .738-.022.71.71 0 0 0 .31-.094c.15-.1.227-.304.227-.612 0-.294-.053-.487-.158-.58a.46.46 0 0 0-.252-.11 12.04 12.04 0 0 0-.864-.038h-2.15v1.456zm37.672-3.53h19.97v-2.53L64 29.13l-9.987 10.13v2.53zM0 11.69l29.82 30.1h14.066L63.86 21.536 84.113 41.79H98.18L128 11.69V9.157h-18.004L90.022 29.13 69.767 9.16H58.233L38.26 29.13 18.003 9.16H0v2.53zm79.895-2.532v3.094l9.846 9.846 9.85-9.846V9.158H79.9zm-51.482 0h19.692v3.094l-9.846 9.846-9.85-9.846V9.158zm80.76-8.863c1.005 0 1.713.037 2.125.11.412.076.712.22.902.435.12.136.21.297.27.484.06.187.108.45.143.786.043.427.064.966.064 1.618 0 .833-.033 1.464-.1 1.892-.068.43-.185.742-.352.94-.172.212-.455.357-.85.435-.394.077-1.04.116-1.938.116-.442 0-.932 0-1.47-.02a21.49 21.49 0 0 1-1.06-.05 2.383 2.383 0 0 1-.693-.16 1.23 1.23 0 0 1-.452-.355c-.175-.212-.292-.51-.35-.893-.06-.384-.09-1.032-.09-1.945 0-1.08.065-1.843.194-2.296.155-.535.51-.85 1.063-.947.5-.09 1.37-.134 2.59-.14zm-62.44 6.792V.314h3.88c.86 0 1.463.043 1.812.13.42.102.74.37.96.808.112.222.19.518.238.89.048.373.07.89.07 1.556 0 .83-.06 1.488-.184 1.975-.2.747-.61 1.185-1.23 1.314-.33.066-.86.1-1.61.1h-3.94zM93.103.314H94v6.773h-.897V.314zm28.226 6.773V.314h3.72c.98.023 1.57.05 1.77.08a1.152 1.152 0 0 1 .87.694c.123.298.19.738.19 1.32 0 .456-.036.816-.1 1.08a1.274 1.274 0 0 1-.83.938c-.174.053-.44.087-.8.1-.13.004-.495.007-1.1.01h-2.942v2.55h-.784zm-37.04 0l-.63-1.43h-4.3l-.637 1.43h-.803L80.94.314h1.135l3.01 6.773H84.3zm-46.504 0l-.63-1.43H32.85l-.635 1.43h-.8L34.433.314h1.135l3.012 6.773h-.788zM73.5.314H80v.794h-2.862v5.98h-.763v-5.98H73.5V.314zm39.903 6.773V.314h3.945c1.07.014 1.752.042 2.048.085.523.07.884.32 1.085.75.14.29.2.69.2 1.2 0 .39-.02.69-.06.89a1.08 1.08 0 0 1-.21.49c-.16.194-.42.33-.77.41.27.05.49.163.65.34.12.14.2.302.23.494.04.192.05.572.05 1.14v.964h-.84v-.65c0-.553-.01-.935-.03-1.146-.06-.43-.29-.68-.68-.756a3.964 3.964 0 0 0-.415-.044 52.76 52.76 0 0 0-1.25-.012h-3.1v2.61h-.844zM25.768.387h.755v5.885h4.473v.78h-5.228V.39zM12.496 7.03V.312h5.465V1.1h-4.72v2.05h4.52v.787h-4.52V6.24h4.73v.787H12.5zm96.226-5.922c-.82 0-1.423.038-1.807.114-.224.043-.385.117-.484.22-.09.105-.16.275-.2.51-.065.377-.1.93-.1 1.657 0 .74.02 1.29.056 1.63.036.34.1.57.196.69a.628.628 0 0 0 .323.21c.14.04.36.07.667.09.5.04 1.083.06 1.75.06.946 0 1.634-.045 2.065-.134.34-.066.54-.296.603-.69.065-.423.1-1 .1-1.726 0-.89-.03-1.516-.088-1.88-.058-.37-.28-.59-.668-.66a6.056 6.056 0 0 0-.765-.077c-.286-.01-.83-.02-1.64-.023zM47.48 6.293h3.155c.54 0 .877-.004 1.007-.013a1.9 1.9 0 0 0 .43-.082c.305-.086.524-.325.655-.72.132-.393.198-1 .198-1.82 0-1.065-.114-1.766-.342-2.103a.802.802 0 0 0-.338-.29 1.89 1.89 0 0 0-.572-.137c-.143-.013-.5-.02-1.075-.02H47.48v5.185zM65.898.313h.813v3.33c0 .983.01 1.575.03 1.777.03.258.09.444.2.56.11.116.3.192.55.228.43.057 1.04.085 1.83.085 1.09 0 1.84-.037 2.25-.11.25-.042.42-.126.52-.25.1-.124.16-.327.177-.608.014-.254.025-.815.03-1.682V.313h.814v3.33c-.006.903-.02 1.527-.044 1.87-.056.59-.25 1-.588 1.23a1.72 1.72 0 0 1-.76.264c-.298.037-1.032.07-2.203.1a68.328 68.328 0 0 1-1.85-.043A3.836 3.836 0 0 1 67 6.962c-.403-.095-.698-.347-.886-.754a2.148 2.148 0 0 1-.165-.712c-.027-.276-.04-.893-.05-1.853V.313zm38.09 4.457h.796c-.02.615-.054 1.038-.1 1.27-.098.502-.402.812-.912.927-.414.093-1.15.14-2.21.14-1.373 0-2.302-.054-2.785-.16-.46-.102-.768-.367-.927-.796-.16-.42-.238-1.2-.238-2.34 0-1.08.06-1.86.18-2.35.144-.578.514-.916 1.11-1.01.578-.1 1.422-.146 2.534-.146 1.062 0 1.823.057 2.282.173.228.056.425.166.59.33a1.1 1.1 0 0 1 .32.568c.044.203.07.598.075 1.187h-.76a12.612 12.612 0 0 1-.005-.232c0-.324-.028-.555-.085-.692a.595.595 0 0 0-.333-.312c-.303-.136-1.01-.204-2.124-.204-.807 0-1.413.022-1.818.07-.405.05-.67.125-.792.23-.117.107-.203.325-.258.656-.056.33-.084.79-.084 1.38 0 .277.01.636.032 1.076.02.44.042.74.063.906.03.26.1.45.22.567.12.115.302.19.56.213.462.053 1.13.08 1.99.08.263 0 .61-.01 1.037-.028.427-.018.7-.035.816-.052.23-.033.4-.083.51-.15a.523.523 0 0 0 .23-.306c.04-.12.064-.448.076-.987zM.648.312h.743l2.09 5.965H3.7L5.71.312h.853L8.51 6.277h.203L10.85.312h.752L9.172 7.03H8.016l-1.87-5.744-1.96 5.744H3.01L.647.312zm85.017.002h1.217l4.804 5.94h.17V.314h.73v6.772H91.35l-4.793-5.924h-.16v5.924h-.732V.314zm-46.5 0h1.217l4.804 5.94h.17V.314h.73v6.772H44.85l-4.793-5.924h-.16v5.924h-.732V.314zM54.5 4.29h3v.87h-3v-.87zm28.827.574L81.67 1.108h-.285l-1.68 3.756h3.622zm-46.504 0l-1.657-3.756h-.285L33.2 4.864h3.623zm85.29-1.12h2.944c.72-.005 1.167-.018 1.342-.04a.787.787 0 0 0 .44-.204.695.695 0 0 0 .18-.36c.034-.154.05-.388.05-.702 0-.348-.014-.595-.044-.742a.604.604 0 0 0-.18-.34.827.827 0 0 0-.433-.186c-.174-.025-.63-.045-1.366-.062h-2.943v2.635zm-7.866-.056h3.1c.823 0 1.35-.012 1.58-.037a1.23 1.23 0 0 0 .567-.18c.216-.15.324-.522.324-1.12 0-.51-.1-.843-.3-1-.13-.1-.334-.16-.61-.19-.277-.03-.797-.043-1.56-.043h-3.1v2.58zM18.08.388h1.03l2.766 3.198L24.552.388h1.065l-3.36 3.94v2.725h-.763V4.328L18.08.388zm39.807-.08h1.032l2.76 3.2 2.67-3.2h1.065l-3.36 3.94v2.726h-.76V4.25L57.885.31z"/></svg>