<svg viewBox="0 0 128 26" xmlns="http://www.w3.org/2000/svg" fill-rule="evenodd" clip-rule="evenodd" stroke-linejoin="round" stroke-miterlimit="1.414"><path d="M9.506 22.54l13.254 2.62V13.084H9.506v9.456zm14.168 1.248h.42v1.31h.172v-1.32h.424v-.16h-1.016v.17zm2.42-.154l-.46 1.016c-.02.04-.04.1-.07.18h-.006l-.08-.176-.46-1.02h-.22v1.464h.168v-.98c0-.14-.006-.24-.01-.3.01.06.024.12.04.14l.5 1.12h.08l.5-1.128c.014-.028.028-.076.044-.14h.004c-.014.11-.02.206-.02.284v.98h.172v-1.46h-.212l.03.02zM0 20.654l8.22 1.628v-9.18H0v7.576-.024zm73.894-10.21h-.04c-.654-1.152-1.7-1.312-3.136-1.312-1.46 0-2.62.532-3.5 1.594-.88 1.06-1.314 2.476-1.314 4.24 0 1.646.394 2.948 1.184 3.9.786.96 1.84 1.434 3.148 1.434 1.62 0 2.82-.42 3.592-1.792h.04v1.54h2.42V4.26h-2.42v6.188l.026-.004zm9.45-1.312c-1.74 0-3.12.504-4.14 1.51-1.026 1.02-1.54 2.42-1.54 4.2 0 1.66.494 2.98 1.476 3.98.98 1 2.296 1.5 3.944 1.5 1.694 0 3.04-.512 4.046-1.536 1.004-1.024 1.506-2.388 1.506-4.09 0-1.734-.466-3.092-1.396-4.07-.932-.98-2.23-1.472-3.896-1.472v-.022zm27.4 5.964c-.236-.246-.524-.466-.86-.66-.334-.196-.714-.386-1.136-.574-.32-.1-.604-.22-.85-.32-.26-.1-.46-.2-.64-.32s-.32-.26-.4-.42c-.1-.16-.14-.356-.14-.58 0-.192.04-.36.128-.52.09-.156.214-.29.374-.4.16-.112.354-.2.58-.26.228-.06.48-.096.76-.096.9 0 1.694.26 2.38.77V9.58c-.712-.3-1.524-.448-2.44-.448-.506 0-1 .068-1.48.204-.48.134-.91.336-1.288.604-.38.268-.68.6-.9.99-.226.392-.34.844-.34 1.36 0 .416.06.78.166 1.094.106.312.268.592.48.84.22.244.486.464.808.66.32.194.686.38 1.088.552.32.132.62.25.88.354.266.104.496.22.692.354.19.132.346.28.46.452.12.17.174.38.174.62 0 .86-.668 1.292-2.012 1.292-1 0-1.92-.344-2.752-1.03v2.22c.788.388 1.72.58 2.794.58.554 0 1.084-.064 1.586-.192.5-.128.948-.32 1.332-.588.384-.264.692-.6.92-1 .232-.404.348-.88.348-1.42 0-.44-.064-.826-.194-1.15-.128-.32-.31-.6-.546-.85l.028.018zm14.704-3.22c1.116-.704 1.846-1.86 1.846-3.174 0-2.14-1.952-3.88-4.36-3.88-2.41 0-4.364 1.74-4.364 3.9 0 1.366.788 2.56 1.98 3.26-1.44.78-2.4 2.2-2.4 3.834 0 2.47 2.2 4.47 4.924 4.47 2.72 0 4.926-2 4.926-4.47 0-1.692-1.032-3.16-2.552-3.92v-.02zM50.496 20.05h2.42V9.38h-2.42v10.67zm10.28-10.92c-1.47 0-2.592.676-3.37 2.024h-.04V9.38h-2.36v10.67h2.36v-6.084c0-.84.234-1.536.7-2.088.466-.56 1.044-1 1.76-1 1.374 0 2.448.56 2.406 3.16v6h2.02v-6.52c0-1.42-.3-2.52-.892-3.276-.596-.752-1.46-1.13-2.586-1.13l.002.018zm13.15 6.06c0 .96-.268 1.756-.8 2.388-.534.62-1.23.94-2.088.94-.88 0-1.58-.34-2.1-.98-.52-.66-.776-1.54-.776-2.68 0-1.24.27-2.212.806-2.91.54-.7 1.274-1.05 2.212-1.05.794 0 1.446.276 1.96.82.51.552.766 1.22.766 2v1.454l.02.018zm49 3.286c-1.566 0-2.832-1.268-2.832-2.832 0-1.564 1.266-2.832 2.83-2.832s2.832 1.268 2.832 2.832c0 1.564-1.268 2.832-2.832 2.832h.002zm-37.536-1.04c-.51.632-1.24.948-2.192.948-.94 0-1.68-.32-2.24-.964-.56-.64-.84-1.524-.84-2.64 0-1.16.272-2.07.82-2.73.548-.66 1.3-.99 2.24-.99.952 0 1.68.32 2.192.96.51.64.766 1.544.766 2.72 0 1.164-.256 2.064-.766 2.696h.02zm14.674-.334c-.09.36-.14.66-.156.92h-.072c-.026-.36-.072-.66-.134-.92l-1.9-7.72h-2.24l-2.14 7.68c-.086.34-.14.654-.16.94h-.074c-.02-.38-.06-.68-.124-.92l-1.92-7.68h-2.48l3.112 10.67h2.46l2.092-7.25c.112-.38.174-.68.188-.92h.04c.02.348.066.66.14.94l1.926 7.228h2.51l3.12-10.672h-2.28l-1.888 7.72-.02-.016zm-55.488-1c-.136.58-.214 1.04-.236 1.38h-.04c-.048-.51-.12-.96-.216-1.328l-2.79-11.02H38.78L35.76 16.07c-.16.606-.26 1.086-.284 1.44h-.052c-.028-.5-.096-.98-.204-1.44L32.552 5.13h-2.68l4.116 14.94h2.82L39.62 9.59c.13-.464.212-.94.248-1.44h.04c.028.532.1 1.02.216 1.46l2.8 10.452h2.76l4.034-14.94h-2.54l-2.62 10.98h.018zM0 12.06h8.22V2.88L0 4.504v7.556zm9.506 0H22.76V0L9.506 2.62v9.44zm103.44-2.928c-.356 0-.66.124-.908.37-.26.26-.38.56-.38.9 0 .34.12.66.36.9s.55.372.904.372c.35 0 .652-.12.9-.368.25-.246.38-.544.38-.892s-.13-.65-.38-.896c-.248-.244-.55-.368-.9-.368l.024-.018zm.772 2.034c-.22.214-.48.32-.78.32-.3 0-.56-.106-.78-.32-.22-.212-.32-.47-.32-.772 0-.3.1-.56.32-.774.22-.214.48-.32.78-.32.3 0 .56.106.76.32.212.214.32.472.32.774 0 .3-.108.56-.32.772h.02zm9.22-4.612c1.28 0 2.32 1.04 2.32 2.33 0 1.286-1.04 2.328-2.34 2.328-1.3 0-2.33-1.04-2.33-2.328 0-1.288 1.044-2.33 2.33-2.33h.02zm-9.82 3.904v-.02c.12-.02.22-.08.28-.16.064-.08.1-.172.1-.28 0-.134-.06-.24-.16-.32-.112-.076-.26-.114-.46-.114h-.48v1.588h.284v-.64h.132c.09 0 .18.09.254.274l.16.366h.352l-.21-.42c-.084-.18-.18-.28-.26-.292l.008.018zm-.22-.16h-.216v-.48h.18c.11 0 .194.02.246.06.052.02.08.08.08.18 0 .16-.1.24-.294.24h.004zm-61.14-5.76c-.8 0-1.46.6-1.46 1.34 0 .74.652 1.34 1.454 1.34.8 0 1.454-.6 1.454-1.34 0-.74-.652-1.34-1.454-1.34h.006z"/></svg>