<svg viewBox="0 0 128 30" xmlns="http://www.w3.org/2000/svg" fill-rule="evenodd" clip-rule="evenodd" stroke-linejoin="round" stroke-miterlimit="1.414"><path d="M14.522 0C6.514 0 0 6.514 0 14.52c0 8.008 6.514 14.522 14.522 14.522 8.006 0 14.522-6.514 14.522-14.522C29.044 6.514 22.528 0 14.522 0zm0 28.378C6.882 28.378.666 22.162.666 14.52.666 6.882 6.882.666 14.522.666c7.638 0 13.854 6.216 13.854 13.854 0 7.642-6.216 13.858-13.854 13.858zm.218-12.768l-3.738 10.862c1.116.328 2.296.506 3.52.506 1.45 0 2.842-.25 4.136-.706-.034-.052-.064-.11-.088-.17L14.74 15.61zM2.064 14.52c0 4.932 2.866 9.194 7.02 11.212L3.142 9.452C2.452 11 2.064 12.714 2.064 14.52zm23.388-5.976c.054.398.084.824.084 1.282 0 1.264-.236 2.684-.948 4.462l-3.804 11c3.704-2.158 6.194-6.172 6.194-10.766 0-2.166-.552-4.204-1.526-5.978zm90.445 12.626c-1.126 0-2.112-.59-2.534-.956-.142.14-.394.562-.45.956h-.536v-3.884h.564c.23 1.858 1.52 2.956 3.18 2.956.91 0 1.64-.506 1.64-1.35 0-.732-.65-1.296-1.8-1.83l-1.602-.76c-1.13-.536-1.972-1.464-1.972-2.702 0-1.352 1.27-2.506 3.013-2.506.93 0 1.715.338 2.193.732.14-.112.28-.422.366-.76h.534v3.322h-.59c-.197-1.324-.93-2.422-2.42-2.422-.787 0-1.52.45-1.52 1.154 0 .732.59 1.126 1.943 1.746l1.547.76c1.35.648 1.884 1.69 1.884 2.534 0 1.772-1.55 3.01-3.43 3.01zm-63.333 0c-3.096 0-5.63-2.28-5.63-5.066 0-2.758 2.534-5.038 5.63-5.038s5.63 2.28 5.63 5.038c0 2.786-2.534 5.066-5.63 5.066zm72 0c-1.125 0-2.11-.59-2.53-.956-.143.14-.395.562-.45.956h-.537v-3.884h.564c.23 1.858 1.52 2.956 3.18 2.956.9 0 1.64-.506 1.64-1.35 0-.732-.644-1.296-1.8-1.83l-1.603-.76c-1.126-.536-1.97-1.464-1.97-2.702 0-1.352 1.266-2.506 3.01-2.506.93 0 1.717.338 2.197.732.14-.112.28-.422.366-.76h.534v3.322h-.59c-.197-1.324-.93-2.422-2.42-2.422-.79 0-1.52.45-1.52 1.154 0 .732.59 1.126 1.94 1.746l1.55.76c1.35.648 1.885 1.69 1.885 2.534 0 1.772-1.55 3.01-3.435 3.01zm-37.604-.928v.564h-6.446v-.564c1.886 0 2.224-.478 2.224-3.294v-4.504c0-2.814-.338-3.264-2.224-3.264v-.564h5.828c2.898 0 4.504 1.492 4.504 3.492 0 1.942-1.606 3.462-4.504 3.462h-1.606v1.378c0 2.816.338 3.294 2.224 3.294zm-34.396-8.304c-2.59 0-3.49 2.336-3.49 4.166 0 1.858.9 4.166 3.49 4.166 2.618 0 3.518-2.308 3.518-4.166 0-1.83-.9-4.166-3.518-4.166zm21.674-.506H69.2v.534c1.576 0 1.828.338 1.828 2.336v3.604c0 1.998-.252 2.364-1.828 2.364-1.21-.168-2.028-.816-3.154-2.054l-1.294-1.408c1.744-.31 2.674-1.408 2.674-2.646 0-1.548-1.322-2.73-3.8-2.73h-4.954v.534c1.576 0 1.83.338 1.83 2.336v3.604c0 1.998-.254 2.364-1.83 2.364v.536h5.602v-.536c-1.576 0-1.83-.366-1.83-2.364v-1.014h.478l3.124 3.914h8.192c4.026 0 5.77-2.14 5.77-4.702s-1.744-4.672-5.77-4.672zm35.945 6.728l-.142.506c-.25.928-.56 1.266-2.56 1.266h-.39c-1.46 0-1.712-.338-1.712-2.336v-1.294c2.196 0 2.364.196 2.364 1.66h.536v-4.194h-.538c0 1.464-.168 1.66-2.364 1.66v-3.152h1.548c2 0 2.31.338 2.564 1.266l.14.536h.45l-.198-2.646h-8.28v.534c1.575 0 1.83.338 1.83 2.336v3.604c0 1.828-.217 2.288-1.46 2.354-1.182-.18-1.99-.824-3.1-2.044l-1.297-1.408c1.746-.31 2.673-1.408 2.673-2.646 0-1.548-1.32-2.73-3.8-2.73h-4.95v.534c1.576 0 1.83.338 1.83 2.336v3.604c0 1.998-.252 2.364-1.83 2.364v.536h5.602v-.536c-1.576 0-1.83-.366-1.83-2.364v-1.014h.48l3.124 3.914h11.566l.17-2.646h-.42zm-35.86 1.772h-.197c-1.014 0-1.154-.252-1.154-1.548v-6.108h1.35c2.928 0 3.462 2.14 3.462 3.8 0 1.718-.534 3.856-3.462 3.856zm-31.33-2.87l1.943-5.744c.562-1.66.31-2.138-1.492-2.138v-.564h5.292v.564c-1.774 0-2.196.422-2.9 2.476l-3.208 9.628h-.366l-2.872-8.812-2.926 8.812h-.366l-3.126-9.628c-.674-2.054-1.126-2.476-2.758-2.476v-.564h6.25v.564c-1.662 0-2.112.394-1.522 2.138l1.886 5.744 2.844-8.446h.534l2.788 8.446zm19.45-1.042H63.6c1.266 0 1.83-.872 1.83-1.858 0-1.014-.564-1.886-1.83-1.886h-1.154v3.744zm32.82 0h1.155c1.268 0 1.83-.872 1.83-1.858 0-1.014-.562-1.886-1.83-1.886h-1.154v3.744zm-8.92-6.39h-1.607v4.898h1.606c1.576 0 2.308-1.098 2.308-2.42 0-1.352-.732-2.478-2.308-2.478zm-63.41 4.262c0-1.54-.555-2.606-1.03-3.436-.63-1.026-1.223-1.894-1.223-2.92 0-1.146.868-2.212 2.092-2.212.056 0 .108.008.162.01-2.216-2.03-5.17-3.27-8.412-3.27-4.352 0-8.182 2.234-10.408 5.616.292.008.566.014.8.014 1.304 0 3.32-.158 3.32-.158.672-.04.752.946.08 1.026 0 0-.674.08-1.426.118l4.538 13.494 2.726-8.176L12.21 8.68c-.67-.04-1.306-.118-1.306-.118-.672-.04-.592-1.066.078-1.026 0 0 2.058.158 3.282.158 1.302 0 3.32-.158 3.32-.158.672-.04.752.946.08 1.026 0 0-.676.078-1.426.118l4.502 13.392 1.242-4.152c.54-1.724.95-2.962.95-4.028z"/></svg>