<svg viewBox="0 0 87 128" xmlns="http://www.w3.org/2000/svg" fill-rule="evenodd" clip-rule="evenodd" stroke-linejoin="round" stroke-miterlimit="1.414">
    <path d="M8.034 104.654c.815 0 1.493.543 1.629 1.222h.135v.135l2.58 8.551.271.951.407-.951 2.036-5.292-.542-1.901c0-.27-.136-.542-.136-.813 0-1.086.679-1.765 1.63-1.901h4.343c.815 0 1.493.544 1.765 1.222v.136l2.715 8.552.271.95.271-.95 3.394-8.824c.272-.677.95-1.086 1.765-1.086.949 0 1.764.815 1.763 1.764 0 .271 0 .543-.135.814l-7.601 19.546c-.272.678-.951 1.221-1.766 1.221-.814 0-1.629-.543-1.764-1.356l-3.801-11.267-.272-1.086-.407 1.086-4.479 11.402c-.272.678-.95 1.221-1.765 1.221-.814 0-1.493-.543-1.765-1.356l-6.379-19.276c-.135-.271-.271-.542-.271-.813 0-1.087.814-1.766 1.764-1.901h4.344zm32.171 0c.814 0 1.493.543 1.628 1.222l.136.135 2.579 8.551.271.951.408-.951 2.037-5.292-.543-1.901c-.136-.27-.136-.542-.136-.813 0-1.086.679-1.765 1.629-1.901h4.345c.813 0 1.493.544 1.764 1.222v.136l2.715 8.552.271.95.271-.95 3.394-8.824c.27-.677.95-1.086 1.764-1.086.95 0 1.765.815 1.765 1.764 0 .271 0 .543-.135.814l-7.601 19.546c-.271.678-.951 1.221-1.765 1.221-.813 0-1.629-.543-1.764-1.356l-3.802-11.267-.271-1.086-.407 1.086-4.481 11.402c-.271.678-.95 1.221-1.763 1.221-.815 0-1.495-.543-1.766-1.356l-6.38-19.276c-.135-.271-.271-.542-.271-.813 0-1.087.814-1.766 1.764-1.901h4.344zm28.369.001h15.068c.951 0 1.764.815 1.764 1.766 0 .951-.814 1.765-1.765 1.765h-9.095v5.293h6.245c.815 0 1.628.815 1.628 1.765 0 .815-.816 1.629-1.628 1.629h-6.245v9.365c0 .951-.679 1.629-1.629 1.629H68.71c-.95 0-1.629-.678-1.764-1.629v-19.954c0-.95.677-1.629 1.628-1.629zm12.082-11.809c-2.716 0-4.887 2.037-4.887 4.751 0 2.58 2.171 4.751 4.887 4.751 2.579 0 4.75-2.173 4.75-4.751 0-2.715-2.171-4.751-4.75-4.751zm3.937 4.751c-.002 2.159-1.778 3.936-3.937 3.937-2.308 0-4.072-1.764-4.072-3.937s1.764-4.073 4.072-4.073c2.171 0 3.937 1.901 3.937 4.073zm-3.802-2.307c1.085 0 1.628.407 1.628 1.357 0 .814-.543 1.086-1.221 1.222l1.357 2.037h-.813l-1.223-2.037h-.678l-.001 2.037h-.678V95.29h1.629zm-.136 2.036c.543 0 1.087 0 1.087-.813 0-.544-.544-.544-1.087-.544h-.814v1.357h.814zM17.808 86.602c-2.715 0-4.886 2.037-4.886 4.751 0 2.58 2.171 4.75 4.886 4.75 2.579 0 4.75-2.172 4.75-4.75 0-2.715-2.171-4.751-4.75-4.751zM42.597 0c1.724.597 3.342 1.994 4.53 4.616 2.58 5.565.95 6.787-1.9 7.873-1.221.407-3.528 1.764-4.75 2.986-2.58 2.443-3.529 2.172-5.837.679-12.082 15.203-7.738 34.07 5.972 37.464 1.358.407 2.444 1.221 3.258 3.122 3.258 6.651 5.973.407 10.589 3.529 6.516 2.851 5.43-2.715 8.959-2.715 13.845-.135 20.36-11.81 20.088-22.668 0-.815.544-.951.815.135 5.158 17.239-3.802 48.595-10.997 53.209-7.058 4.615-16.967 5.973-13.845-6.923 4.75-22.396-12.08-16.966-5.158 5.973.678 2.715 5.836 7.331-3.529 8.552-16.288 1.222-20.632-11.403-26.876-25.247-.271-.95-.814-.815-.814-.271-.544 7.737 7.194 13.981-4.073 13.981-6.244-.408-10.587-1.764-15.745-17.51-2.172-7.602-.136-8.688-1.494-14.389C-1.06 40.451.568 22.805 17.808 13.71c1.629-.951 1.765-.407 1.357 0-19.953 13.71-13.031 38.686-.271 46.831.407.271 1.085.271.814-.544-2.986-9.502-.679-8.687-.95-18.053-.271-8.959 1.9-19.139 14.115-27.419-4.342-5.295-2.035-9.774 1.495-12.624A10.569 10.569 0 0 1 37.986 0h4.611zM21.744 91.353c-.002 2.159-1.777 3.935-3.936 3.937-2.308 0-4.072-1.765-4.072-3.937 0-2.172 1.764-4.071 4.072-4.071 2.172-.001 3.936 1.899 3.936 4.071zm-1.9.679c-.271 1.087-.95 1.765-1.9 1.765-1.493 0-2.444-1.086-2.444-2.444 0-1.356.951-2.442 2.308-2.442 1.086 0 1.9.543 2.036 1.629h-.679c-.136-.543-.678-.951-1.357-.951-.95 0-1.494.814-1.494 1.764 0 .951.679 1.766 1.63 1.766.543 0 1.085-.408 1.221-1.087h.679zm37.057-29.727c0-.271-.136-.136-.273-.136-2.307 0-5.7-.407-9.365-1.221 0-.136-.271-.136-.271 0 .271 4.072 8.28 5.43 9.909 1.357zm-.271-6.244c2.85-.271 2.171-2.986 0-3.529-1.901-.679-4.751-1.086-6.923-.951-3.665 0-3.529 2.851-1.63 3.394 1.494.407 2.443.542 3.665 2.171 1.086 2.173.544-.678 4.888-1.085zm3.664-15.203c2.716 2.986 2.986 12.217 9.909 8.552 4.071-2.172 4.071-11.402-1.493-14.796-4.481-2.579-6.923.95-8.553 5.294-.134.407-.134.678.137.95zm-10.723-1.493c-2.986 2.308-4.887 8.959-10.18 6.651-4.343-2.172-4.75-10.588 2.715-14.524 5.158-2.443 7.737 2.308 7.737 7.33 0 .135-.136.407-.272.543zM70.068 8.823c3.529-5.972 9.773-4.886 12.896-1.9 3.394 3.258 4.072 7.058 2.715 9.638-1.765 3.529-6.379 7.737-9.366 3.665-1.356-1.9-4.072-4.072-5.7-4.615-2.31-1.086-2.717-3.123-.545-6.788z" fill-rule="nonzero"/>
</svg>
